<?xml version="1.0" encoding="utf-8" standalone="no"?>
<!DOCTYPE svg PUBLIC "-//W3C//DTD SVG 1.1//EN"
  "http://www.w3.org/Graphics/SVG/1.1/DTD/svg11.dtd">
<svg xmlns:xlink="http://www.w3.org/1999/xlink" width="2160pt" height="1440pt" viewBox="0 0 2160 1440" xmlns="http://www.w3.org/2000/svg" version="1.1">
 <metadata>
  <rdf:RDF xmlns:dc="http://purl.org/dc/elements/1.1/" xmlns:cc="http://creativecommons.org/ns#" xmlns:rdf="http://www.w3.org/1999/02/22-rdf-syntax-ns#">
   <cc:Work>
    <dc:type rdf:resource="http://purl.org/dc/dcmitype/StillImage"/>
    <dc:date>2023-10-28T18:07:24.227403</dc:date>
    <dc:format>image/svg+xml</dc:format>
    <dc:creator>
     <cc:Agent>
      <dc:title>Matplotlib v3.5.1, https://matplotlib.org/</dc:title>
     </cc:Agent>
    </dc:creator>
   </cc:Work>
  </rdf:RDF>
 </metadata>
 <defs>
  <style type="text/css">*{stroke-linejoin: round; stroke-linecap: butt}</style>
 </defs>
 <g id="figure_1">
  <g id="patch_1">
   <path d="M 0 1440 
L 2160 1440 
L 2160 0 
L 0 0 
z
" style="fill: #ffffff"/>
  </g>
  <g id="axes_1">
   <g id="patch_2">
    <path d="M 270 666.981818 
L 1030.909091 666.981818 
L 1030.909091 172.8 
L 270 172.8 
z
" style="fill: #eaeaf2"/>
   </g>
   <g id="matplotlib.axis_1">
    <g id="xtick_1">
     <g id="line2d_1">
      <path d="M 304.586777 666.981818 
L 304.586777 172.8 
" clip-path="url(#pdef7c1900e)" style="fill: none; stroke: #ffffff; stroke-linecap: round"/>
     </g>
     <g id="text_1">
      <!-- 0 -->
      <g style="fill: #262626" transform="translate(296.940488 696.165803)scale(0.275 -0.275)">
       <defs>
        <path id="ArialMT-30" d="M 266 2259 
Q 266 3072 433 3567 
Q 600 4063 929 4331 
Q 1259 4600 1759 4600 
Q 2128 4600 2406 4451 
Q 2684 4303 2865 4023 
Q 3047 3744 3150 3342 
Q 3253 2941 3253 2259 
Q 3253 1453 3087 958 
Q 2922 463 2592 192 
Q 2263 -78 1759 -78 
Q 1097 -78 719 397 
Q 266 969 266 2259 
z
M 844 2259 
Q 844 1131 1108 757 
Q 1372 384 1759 384 
Q 2147 384 2411 759 
Q 2675 1134 2675 2259 
Q 2675 3391 2411 3762 
Q 2147 4134 1753 4134 
Q 1366 4134 1134 3806 
Q 844 3388 844 2259 
z
" transform="scale(0.015625)"/>
       </defs>
       <use xlink:href="#ArialMT-30"/>
      </g>
     </g>
    </g>
    <g id="xtick_2">
     <g id="line2d_2">
      <path d="M 393.27082 666.981818 
L 393.27082 172.8 
" clip-path="url(#pdef7c1900e)" style="fill: none; stroke: #ffffff; stroke-linecap: round"/>
     </g>
     <g id="text_2">
      <!-- 5 -->
      <g style="fill: #262626" transform="translate(385.624531 696.165803)scale(0.275 -0.275)">
       <defs>
        <path id="ArialMT-35" d="M 266 1200 
L 856 1250 
Q 922 819 1161 601 
Q 1400 384 1738 384 
Q 2144 384 2425 690 
Q 2706 997 2706 1503 
Q 2706 1984 2436 2262 
Q 2166 2541 1728 2541 
Q 1456 2541 1237 2417 
Q 1019 2294 894 2097 
L 366 2166 
L 809 4519 
L 3088 4519 
L 3088 3981 
L 1259 3981 
L 1013 2750 
Q 1425 3038 1878 3038 
Q 2478 3038 2890 2622 
Q 3303 2206 3303 1553 
Q 3303 931 2941 478 
Q 2500 -78 1738 -78 
Q 1113 -78 717 272 
Q 322 622 266 1200 
z
" transform="scale(0.015625)"/>
       </defs>
       <use xlink:href="#ArialMT-35"/>
      </g>
     </g>
    </g>
    <g id="xtick_3">
     <g id="line2d_3">
      <path d="M 481.954863 666.981818 
L 481.954863 172.8 
" clip-path="url(#pdef7c1900e)" style="fill: none; stroke: #ffffff; stroke-linecap: round"/>
     </g>
     <g id="text_3">
      <!-- 10 -->
      <g style="fill: #262626" transform="translate(466.662285 696.165803)scale(0.275 -0.275)">
       <defs>
        <path id="ArialMT-31" d="M 2384 0 
L 1822 0 
L 1822 3584 
Q 1619 3391 1289 3197 
Q 959 3003 697 2906 
L 697 3450 
Q 1169 3672 1522 3987 
Q 1875 4303 2022 4600 
L 2384 4600 
L 2384 0 
z
" transform="scale(0.015625)"/>
       </defs>
       <use xlink:href="#ArialMT-31"/>
       <use xlink:href="#ArialMT-30" x="55.615234"/>
      </g>
     </g>
    </g>
    <g id="xtick_4">
     <g id="line2d_4">
      <path d="M 570.638907 666.981818 
L 570.638907 172.8 
" clip-path="url(#pdef7c1900e)" style="fill: none; stroke: #ffffff; stroke-linecap: round"/>
     </g>
     <g id="text_4">
      <!-- 15 -->
      <g style="fill: #262626" transform="translate(555.346328 696.165803)scale(0.275 -0.275)">
       <use xlink:href="#ArialMT-31"/>
       <use xlink:href="#ArialMT-35" x="55.615234"/>
      </g>
     </g>
    </g>
    <g id="xtick_5">
     <g id="line2d_5">
      <path d="M 659.32295 666.981818 
L 659.32295 172.8 
" clip-path="url(#pdef7c1900e)" style="fill: none; stroke: #ffffff; stroke-linecap: round"/>
     </g>
     <g id="text_5">
      <!-- 20 -->
      <g style="fill: #262626" transform="translate(644.030372 696.165803)scale(0.275 -0.275)">
       <defs>
        <path id="ArialMT-32" d="M 3222 541 
L 3222 0 
L 194 0 
Q 188 203 259 391 
Q 375 700 629 1000 
Q 884 1300 1366 1694 
Q 2113 2306 2375 2664 
Q 2638 3022 2638 3341 
Q 2638 3675 2398 3904 
Q 2159 4134 1775 4134 
Q 1369 4134 1125 3890 
Q 881 3647 878 3216 
L 300 3275 
Q 359 3922 746 4261 
Q 1134 4600 1788 4600 
Q 2447 4600 2831 4234 
Q 3216 3869 3216 3328 
Q 3216 3053 3103 2787 
Q 2991 2522 2730 2228 
Q 2469 1934 1863 1422 
Q 1356 997 1212 845 
Q 1069 694 975 541 
L 3222 541 
z
" transform="scale(0.015625)"/>
       </defs>
       <use xlink:href="#ArialMT-32"/>
       <use xlink:href="#ArialMT-30" x="55.615234"/>
      </g>
     </g>
    </g>
    <g id="xtick_6">
     <g id="line2d_6">
      <path d="M 748.006993 666.981818 
L 748.006993 172.8 
" clip-path="url(#pdef7c1900e)" style="fill: none; stroke: #ffffff; stroke-linecap: round"/>
     </g>
     <g id="text_6">
      <!-- 25 -->
      <g style="fill: #262626" transform="translate(732.714415 696.165803)scale(0.275 -0.275)">
       <use xlink:href="#ArialMT-32"/>
       <use xlink:href="#ArialMT-35" x="55.615234"/>
      </g>
     </g>
    </g>
    <g id="xtick_7">
     <g id="line2d_7">
      <path d="M 836.691036 666.981818 
L 836.691036 172.8 
" clip-path="url(#pdef7c1900e)" style="fill: none; stroke: #ffffff; stroke-linecap: round"/>
     </g>
     <g id="text_7">
      <!-- 30 -->
      <g style="fill: #262626" transform="translate(821.398458 696.165803)scale(0.275 -0.275)">
       <defs>
        <path id="ArialMT-33" d="M 269 1209 
L 831 1284 
Q 928 806 1161 595 
Q 1394 384 1728 384 
Q 2125 384 2398 659 
Q 2672 934 2672 1341 
Q 2672 1728 2419 1979 
Q 2166 2231 1775 2231 
Q 1616 2231 1378 2169 
L 1441 2663 
Q 1497 2656 1531 2656 
Q 1891 2656 2178 2843 
Q 2466 3031 2466 3422 
Q 2466 3731 2256 3934 
Q 2047 4138 1716 4138 
Q 1388 4138 1169 3931 
Q 950 3725 888 3313 
L 325 3413 
Q 428 3978 793 4289 
Q 1159 4600 1703 4600 
Q 2078 4600 2393 4439 
Q 2709 4278 2876 4000 
Q 3044 3722 3044 3409 
Q 3044 3113 2884 2869 
Q 2725 2625 2413 2481 
Q 2819 2388 3044 2092 
Q 3269 1797 3269 1353 
Q 3269 753 2831 336 
Q 2394 -81 1725 -81 
Q 1122 -81 723 278 
Q 325 638 269 1209 
z
" transform="scale(0.015625)"/>
       </defs>
       <use xlink:href="#ArialMT-33"/>
       <use xlink:href="#ArialMT-30" x="55.615234"/>
      </g>
     </g>
    </g>
    <g id="xtick_8">
     <g id="line2d_8">
      <path d="M 925.375079 666.981818 
L 925.375079 172.8 
" clip-path="url(#pdef7c1900e)" style="fill: none; stroke: #ffffff; stroke-linecap: round"/>
     </g>
     <g id="text_8">
      <!-- 35 -->
      <g style="fill: #262626" transform="translate(910.082501 696.165803)scale(0.275 -0.275)">
       <use xlink:href="#ArialMT-33"/>
       <use xlink:href="#ArialMT-35" x="55.615234"/>
      </g>
     </g>
    </g>
    <g id="xtick_9">
     <g id="line2d_9">
      <path d="M 1014.059123 666.981818 
L 1014.059123 172.8 
" clip-path="url(#pdef7c1900e)" style="fill: none; stroke: #ffffff; stroke-linecap: round"/>
     </g>
     <g id="text_9">
      <!-- 40 -->
      <g style="fill: #262626" transform="translate(998.766545 696.165803)scale(0.275 -0.275)">
       <defs>
        <path id="ArialMT-34" d="M 2069 0 
L 2069 1097 
L 81 1097 
L 81 1613 
L 2172 4581 
L 2631 4581 
L 2631 1613 
L 3250 1613 
L 3250 1097 
L 2631 1097 
L 2631 0 
L 2069 0 
z
M 2069 1613 
L 2069 3678 
L 634 1613 
L 2069 1613 
z
" transform="scale(0.015625)"/>
       </defs>
       <use xlink:href="#ArialMT-34"/>
       <use xlink:href="#ArialMT-30" x="55.615234"/>
      </g>
     </g>
    </g>
    <g id="text_10">
     <!-- Epoch -->
     <g style="fill: #262626" transform="translate(607.924858 727.104865)scale(0.3 -0.3)">
      <defs>
       <path id="ArialMT-45" d="M 506 0 
L 506 4581 
L 3819 4581 
L 3819 4041 
L 1113 4041 
L 1113 2638 
L 3647 2638 
L 3647 2100 
L 1113 2100 
L 1113 541 
L 3925 541 
L 3925 0 
L 506 0 
z
" transform="scale(0.015625)"/>
       <path id="ArialMT-70" d="M 422 -1272 
L 422 3319 
L 934 3319 
L 934 2888 
Q 1116 3141 1344 3267 
Q 1572 3394 1897 3394 
Q 2322 3394 2647 3175 
Q 2972 2956 3137 2557 
Q 3303 2159 3303 1684 
Q 3303 1175 3120 767 
Q 2938 359 2589 142 
Q 2241 -75 1856 -75 
Q 1575 -75 1351 44 
Q 1128 163 984 344 
L 984 -1272 
L 422 -1272 
z
M 931 1641 
Q 931 1000 1190 694 
Q 1450 388 1819 388 
Q 2194 388 2461 705 
Q 2728 1022 2728 1688 
Q 2728 2322 2467 2637 
Q 2206 2953 1844 2953 
Q 1484 2953 1207 2617 
Q 931 2281 931 1641 
z
" transform="scale(0.015625)"/>
       <path id="ArialMT-6f" d="M 213 1659 
Q 213 2581 725 3025 
Q 1153 3394 1769 3394 
Q 2453 3394 2887 2945 
Q 3322 2497 3322 1706 
Q 3322 1066 3130 698 
Q 2938 331 2570 128 
Q 2203 -75 1769 -75 
Q 1072 -75 642 372 
Q 213 819 213 1659 
z
M 791 1659 
Q 791 1022 1069 705 
Q 1347 388 1769 388 
Q 2188 388 2466 706 
Q 2744 1025 2744 1678 
Q 2744 2294 2464 2611 
Q 2184 2928 1769 2928 
Q 1347 2928 1069 2612 
Q 791 2297 791 1659 
z
" transform="scale(0.015625)"/>
       <path id="ArialMT-63" d="M 2588 1216 
L 3141 1144 
Q 3050 572 2676 248 
Q 2303 -75 1759 -75 
Q 1078 -75 664 370 
Q 250 816 250 1647 
Q 250 2184 428 2587 
Q 606 2991 970 3192 
Q 1334 3394 1763 3394 
Q 2303 3394 2647 3120 
Q 2991 2847 3088 2344 
L 2541 2259 
Q 2463 2594 2264 2762 
Q 2066 2931 1784 2931 
Q 1359 2931 1093 2626 
Q 828 2322 828 1663 
Q 828 994 1084 691 
Q 1341 388 1753 388 
Q 2084 388 2306 591 
Q 2528 794 2588 1216 
z
" transform="scale(0.015625)"/>
       <path id="ArialMT-68" d="M 422 0 
L 422 4581 
L 984 4581 
L 984 2938 
Q 1378 3394 1978 3394 
Q 2347 3394 2619 3248 
Q 2891 3103 3008 2847 
Q 3125 2591 3125 2103 
L 3125 0 
L 2563 0 
L 2563 2103 
Q 2563 2525 2380 2717 
Q 2197 2909 1863 2909 
Q 1613 2909 1392 2779 
Q 1172 2650 1078 2428 
Q 984 2206 984 1816 
L 984 0 
L 422 0 
z
" transform="scale(0.015625)"/>
      </defs>
      <use xlink:href="#ArialMT-45"/>
      <use xlink:href="#ArialMT-70" x="66.699219"/>
      <use xlink:href="#ArialMT-6f" x="122.314453"/>
      <use xlink:href="#ArialMT-63" x="177.929688"/>
      <use xlink:href="#ArialMT-68" x="227.929688"/>
     </g>
    </g>
   </g>
   <g id="matplotlib.axis_2">
    <g id="ytick_1">
     <g id="line2d_10">
      <path d="M 270 615.681617 
L 1030.909091 615.681617 
" clip-path="url(#pdef7c1900e)" style="fill: none; stroke: #ffffff; stroke-linecap: round"/>
     </g>
     <g id="text_11">
      <!-- 0.095 -->
      <g style="fill: #262626" transform="translate(191.689844 625.523609)scale(0.275 -0.275)">
       <defs>
        <path id="ArialMT-2e" d="M 581 0 
L 581 641 
L 1222 641 
L 1222 0 
L 581 0 
z
" transform="scale(0.015625)"/>
        <path id="ArialMT-39" d="M 350 1059 
L 891 1109 
Q 959 728 1153 556 
Q 1347 384 1650 384 
Q 1909 384 2104 503 
Q 2300 622 2425 820 
Q 2550 1019 2634 1356 
Q 2719 1694 2719 2044 
Q 2719 2081 2716 2156 
Q 2547 1888 2255 1720 
Q 1963 1553 1622 1553 
Q 1053 1553 659 1965 
Q 266 2378 266 3053 
Q 266 3750 677 4175 
Q 1088 4600 1706 4600 
Q 2153 4600 2523 4359 
Q 2894 4119 3086 3673 
Q 3278 3228 3278 2384 
Q 3278 1506 3087 986 
Q 2897 466 2520 194 
Q 2144 -78 1638 -78 
Q 1100 -78 759 220 
Q 419 519 350 1059 
z
M 2653 3081 
Q 2653 3566 2395 3850 
Q 2138 4134 1775 4134 
Q 1400 4134 1122 3828 
Q 844 3522 844 3034 
Q 844 2597 1108 2323 
Q 1372 2050 1759 2050 
Q 2150 2050 2401 2323 
Q 2653 2597 2653 3081 
z
" transform="scale(0.015625)"/>
       </defs>
       <use xlink:href="#ArialMT-30"/>
       <use xlink:href="#ArialMT-2e" x="55.615234"/>
       <use xlink:href="#ArialMT-30" x="83.398438"/>
       <use xlink:href="#ArialMT-39" x="139.013672"/>
       <use xlink:href="#ArialMT-35" x="194.628906"/>
      </g>
     </g>
    </g>
    <g id="ytick_2">
     <g id="line2d_11">
      <path d="M 270 539.793746 
L 1030.909091 539.793746 
" clip-path="url(#pdef7c1900e)" style="fill: none; stroke: #ffffff; stroke-linecap: round"/>
     </g>
     <g id="text_12">
      <!-- 0.100 -->
      <g style="fill: #262626" transform="translate(191.689844 549.635738)scale(0.275 -0.275)">
       <use xlink:href="#ArialMT-30"/>
       <use xlink:href="#ArialMT-2e" x="55.615234"/>
       <use xlink:href="#ArialMT-31" x="83.398438"/>
       <use xlink:href="#ArialMT-30" x="139.013672"/>
       <use xlink:href="#ArialMT-30" x="194.628906"/>
      </g>
     </g>
    </g>
    <g id="ytick_3">
     <g id="line2d_12">
      <path d="M 270 463.905874 
L 1030.909091 463.905874 
" clip-path="url(#pdef7c1900e)" style="fill: none; stroke: #ffffff; stroke-linecap: round"/>
     </g>
     <g id="text_13">
      <!-- 0.105 -->
      <g style="fill: #262626" transform="translate(191.689844 473.747867)scale(0.275 -0.275)">
       <use xlink:href="#ArialMT-30"/>
       <use xlink:href="#ArialMT-2e" x="55.615234"/>
       <use xlink:href="#ArialMT-31" x="83.398438"/>
       <use xlink:href="#ArialMT-30" x="139.013672"/>
       <use xlink:href="#ArialMT-35" x="194.628906"/>
      </g>
     </g>
    </g>
    <g id="ytick_4">
     <g id="line2d_13">
      <path d="M 270 388.018003 
L 1030.909091 388.018003 
" clip-path="url(#pdef7c1900e)" style="fill: none; stroke: #ffffff; stroke-linecap: round"/>
     </g>
     <g id="text_14">
      <!-- 0.110 -->
      <g style="fill: #262626" transform="translate(193.717969 397.859995)scale(0.275 -0.275)">
       <use xlink:href="#ArialMT-30"/>
       <use xlink:href="#ArialMT-2e" x="55.615234"/>
       <use xlink:href="#ArialMT-31" x="83.398438"/>
       <use xlink:href="#ArialMT-31" x="131.638672"/>
       <use xlink:href="#ArialMT-30" x="187.253906"/>
      </g>
     </g>
    </g>
    <g id="ytick_5">
     <g id="line2d_14">
      <path d="M 270 312.130132 
L 1030.909091 312.130132 
" clip-path="url(#pdef7c1900e)" style="fill: none; stroke: #ffffff; stroke-linecap: round"/>
     </g>
     <g id="text_15">
      <!-- 0.115 -->
      <g style="fill: #262626" transform="translate(193.717969 321.972124)scale(0.275 -0.275)">
       <use xlink:href="#ArialMT-30"/>
       <use xlink:href="#ArialMT-2e" x="55.615234"/>
       <use xlink:href="#ArialMT-31" x="83.398438"/>
       <use xlink:href="#ArialMT-31" x="131.638672"/>
       <use xlink:href="#ArialMT-35" x="187.253906"/>
      </g>
     </g>
    </g>
    <g id="ytick_6">
     <g id="line2d_15">
      <path d="M 270 236.24226 
L 1030.909091 236.24226 
" clip-path="url(#pdef7c1900e)" style="fill: none; stroke: #ffffff; stroke-linecap: round"/>
     </g>
     <g id="text_16">
      <!-- 0.120 -->
      <g style="fill: #262626" transform="translate(191.689844 246.084253)scale(0.275 -0.275)">
       <use xlink:href="#ArialMT-30"/>
       <use xlink:href="#ArialMT-2e" x="55.615234"/>
       <use xlink:href="#ArialMT-31" x="83.398438"/>
       <use xlink:href="#ArialMT-32" x="139.013672"/>
       <use xlink:href="#ArialMT-30" x="194.628906"/>
      </g>
     </g>
    </g>
    <g id="text_17">
     <!-- testing accuracy -->
     <g style="fill: #262626" transform="translate(181.375781 528.268253)rotate(-90)scale(0.3 -0.3)">
      <defs>
       <path id="ArialMT-74" d="M 1650 503 
L 1731 6 
Q 1494 -44 1306 -44 
Q 1000 -44 831 53 
Q 663 150 594 308 
Q 525 466 525 972 
L 525 2881 
L 113 2881 
L 113 3319 
L 525 3319 
L 525 4141 
L 1084 4478 
L 1084 3319 
L 1650 3319 
L 1650 2881 
L 1084 2881 
L 1084 941 
Q 1084 700 1114 631 
Q 1144 563 1211 522 
Q 1278 481 1403 481 
Q 1497 481 1650 503 
z
" transform="scale(0.015625)"/>
       <path id="ArialMT-65" d="M 2694 1069 
L 3275 997 
Q 3138 488 2766 206 
Q 2394 -75 1816 -75 
Q 1088 -75 661 373 
Q 234 822 234 1631 
Q 234 2469 665 2931 
Q 1097 3394 1784 3394 
Q 2450 3394 2872 2941 
Q 3294 2488 3294 1666 
Q 3294 1616 3291 1516 
L 816 1516 
Q 847 969 1125 678 
Q 1403 388 1819 388 
Q 2128 388 2347 550 
Q 2566 713 2694 1069 
z
M 847 1978 
L 2700 1978 
Q 2663 2397 2488 2606 
Q 2219 2931 1791 2931 
Q 1403 2931 1139 2672 
Q 875 2413 847 1978 
z
" transform="scale(0.015625)"/>
       <path id="ArialMT-73" d="M 197 991 
L 753 1078 
Q 800 744 1014 566 
Q 1228 388 1613 388 
Q 2000 388 2187 545 
Q 2375 703 2375 916 
Q 2375 1106 2209 1216 
Q 2094 1291 1634 1406 
Q 1016 1563 777 1677 
Q 538 1791 414 1992 
Q 291 2194 291 2438 
Q 291 2659 392 2848 
Q 494 3038 669 3163 
Q 800 3259 1026 3326 
Q 1253 3394 1513 3394 
Q 1903 3394 2198 3281 
Q 2494 3169 2634 2976 
Q 2775 2784 2828 2463 
L 2278 2388 
Q 2241 2644 2061 2787 
Q 1881 2931 1553 2931 
Q 1166 2931 1000 2803 
Q 834 2675 834 2503 
Q 834 2394 903 2306 
Q 972 2216 1119 2156 
Q 1203 2125 1616 2013 
Q 2213 1853 2448 1751 
Q 2684 1650 2818 1456 
Q 2953 1263 2953 975 
Q 2953 694 2789 445 
Q 2625 197 2315 61 
Q 2006 -75 1616 -75 
Q 969 -75 630 194 
Q 291 463 197 991 
z
" transform="scale(0.015625)"/>
       <path id="ArialMT-69" d="M 425 3934 
L 425 4581 
L 988 4581 
L 988 3934 
L 425 3934 
z
M 425 0 
L 425 3319 
L 988 3319 
L 988 0 
L 425 0 
z
" transform="scale(0.015625)"/>
       <path id="ArialMT-6e" d="M 422 0 
L 422 3319 
L 928 3319 
L 928 2847 
Q 1294 3394 1984 3394 
Q 2284 3394 2536 3286 
Q 2788 3178 2913 3003 
Q 3038 2828 3088 2588 
Q 3119 2431 3119 2041 
L 3119 0 
L 2556 0 
L 2556 2019 
Q 2556 2363 2490 2533 
Q 2425 2703 2258 2804 
Q 2091 2906 1866 2906 
Q 1506 2906 1245 2678 
Q 984 2450 984 1813 
L 984 0 
L 422 0 
z
" transform="scale(0.015625)"/>
       <path id="ArialMT-67" d="M 319 -275 
L 866 -356 
Q 900 -609 1056 -725 
Q 1266 -881 1628 -881 
Q 2019 -881 2231 -725 
Q 2444 -569 2519 -288 
Q 2563 -116 2559 434 
Q 2191 0 1641 0 
Q 956 0 581 494 
Q 206 988 206 1678 
Q 206 2153 378 2554 
Q 550 2956 876 3175 
Q 1203 3394 1644 3394 
Q 2231 3394 2613 2919 
L 2613 3319 
L 3131 3319 
L 3131 450 
Q 3131 -325 2973 -648 
Q 2816 -972 2473 -1159 
Q 2131 -1347 1631 -1347 
Q 1038 -1347 672 -1080 
Q 306 -813 319 -275 
z
M 784 1719 
Q 784 1066 1043 766 
Q 1303 466 1694 466 
Q 2081 466 2343 764 
Q 2606 1063 2606 1700 
Q 2606 2309 2336 2618 
Q 2066 2928 1684 2928 
Q 1309 2928 1046 2623 
Q 784 2319 784 1719 
z
" transform="scale(0.015625)"/>
       <path id="ArialMT-20" transform="scale(0.015625)"/>
       <path id="ArialMT-61" d="M 2588 409 
Q 2275 144 1986 34 
Q 1697 -75 1366 -75 
Q 819 -75 525 192 
Q 231 459 231 875 
Q 231 1119 342 1320 
Q 453 1522 633 1644 
Q 813 1766 1038 1828 
Q 1203 1872 1538 1913 
Q 2219 1994 2541 2106 
Q 2544 2222 2544 2253 
Q 2544 2597 2384 2738 
Q 2169 2928 1744 2928 
Q 1347 2928 1158 2789 
Q 969 2650 878 2297 
L 328 2372 
Q 403 2725 575 2942 
Q 747 3159 1072 3276 
Q 1397 3394 1825 3394 
Q 2250 3394 2515 3294 
Q 2781 3194 2906 3042 
Q 3031 2891 3081 2659 
Q 3109 2516 3109 2141 
L 3109 1391 
Q 3109 606 3145 398 
Q 3181 191 3288 0 
L 2700 0 
Q 2613 175 2588 409 
z
M 2541 1666 
Q 2234 1541 1622 1453 
Q 1275 1403 1131 1340 
Q 988 1278 909 1158 
Q 831 1038 831 891 
Q 831 666 1001 516 
Q 1172 366 1500 366 
Q 1825 366 2078 508 
Q 2331 650 2450 897 
Q 2541 1088 2541 1459 
L 2541 1666 
z
" transform="scale(0.015625)"/>
       <path id="ArialMT-75" d="M 2597 0 
L 2597 488 
Q 2209 -75 1544 -75 
Q 1250 -75 995 37 
Q 741 150 617 320 
Q 494 491 444 738 
Q 409 903 409 1263 
L 409 3319 
L 972 3319 
L 972 1478 
Q 972 1038 1006 884 
Q 1059 663 1231 536 
Q 1403 409 1656 409 
Q 1909 409 2131 539 
Q 2353 669 2445 892 
Q 2538 1116 2538 1541 
L 2538 3319 
L 3100 3319 
L 3100 0 
L 2597 0 
z
" transform="scale(0.015625)"/>
       <path id="ArialMT-72" d="M 416 0 
L 416 3319 
L 922 3319 
L 922 2816 
Q 1116 3169 1280 3281 
Q 1444 3394 1641 3394 
Q 1925 3394 2219 3213 
L 2025 2691 
Q 1819 2813 1613 2813 
Q 1428 2813 1281 2702 
Q 1134 2591 1072 2394 
Q 978 2094 978 1738 
L 978 0 
L 416 0 
z
" transform="scale(0.015625)"/>
       <path id="ArialMT-79" d="M 397 -1278 
L 334 -750 
Q 519 -800 656 -800 
Q 844 -800 956 -737 
Q 1069 -675 1141 -563 
Q 1194 -478 1313 -144 
Q 1328 -97 1363 -6 
L 103 3319 
L 709 3319 
L 1400 1397 
Q 1534 1031 1641 628 
Q 1738 1016 1872 1384 
L 2581 3319 
L 3144 3319 
L 1881 -56 
Q 1678 -603 1566 -809 
Q 1416 -1088 1222 -1217 
Q 1028 -1347 759 -1347 
Q 597 -1347 397 -1278 
z
" transform="scale(0.015625)"/>
      </defs>
      <use xlink:href="#ArialMT-74"/>
      <use xlink:href="#ArialMT-65" x="27.783203"/>
      <use xlink:href="#ArialMT-73" x="83.398438"/>
      <use xlink:href="#ArialMT-74" x="133.398438"/>
      <use xlink:href="#ArialMT-69" x="161.181641"/>
      <use xlink:href="#ArialMT-6e" x="183.398438"/>
      <use xlink:href="#ArialMT-67" x="239.013672"/>
      <use xlink:href="#ArialMT-20" x="294.628906"/>
      <use xlink:href="#ArialMT-61" x="322.412109"/>
      <use xlink:href="#ArialMT-63" x="378.027344"/>
      <use xlink:href="#ArialMT-63" x="428.027344"/>
      <use xlink:href="#ArialMT-75" x="478.027344"/>
      <use xlink:href="#ArialMT-72" x="533.642578"/>
      <use xlink:href="#ArialMT-61" x="566.943359"/>
      <use xlink:href="#ArialMT-63" x="622.558594"/>
      <use xlink:href="#ArialMT-79" x="672.558594"/>
     </g>
    </g>
   </g>
   <g id="line2d_16">
    <path d="M 304.586777 539.793746 
L 322.323586 539.793746 
L 340.060394 539.793746 
L 357.797203 539.793746 
L 375.534011 539.793746 
L 393.27082 539.793746 
L 411.007629 539.793746 
L 428.744437 539.793746 
L 446.481246 539.793746 
L 464.218055 539.793746 
L 481.954863 541.311503 
L 499.691672 539.793746 
L 517.428481 539.793746 
L 535.165289 541.311503 
L 552.902098 539.793746 
L 570.638907 539.793746 
L 588.375715 539.793746 
L 606.112524 539.793746 
L 623.849332 538.275988 
L 641.586141 538.275988 
L 659.32295 539.793746 
L 677.059758 539.793746 
L 694.796567 539.793746 
L 712.533376 539.793746 
L 730.270184 539.793746 
L 748.006993 539.793746 
L 765.743802 539.793746 
L 783.48061 538.275988 
L 801.217419 539.793746 
L 818.954228 539.793746 
L 836.691036 539.793746 
L 854.427845 541.311503 
L 872.164654 541.311503 
L 889.901462 541.311503 
L 907.638271 539.793746 
L 925.375079 539.793746 
L 943.111888 539.793746 
L 960.848697 541.311503 
L 978.585505 541.311503 
L 996.322314 541.311503 
" clip-path="url(#pdef7c1900e)" style="fill: none; stroke: #4c72b0; stroke-width: 1.5; stroke-linecap: round"/>
   </g>
   <g id="line2d_17">
    <path d="M 304.586777 316.683404 
L 322.323586 526.133929 
L 340.060394 513.99187 
L 357.797203 515.509627 
L 375.534011 495.77878 
L 393.27082 198.298325 
L 411.007629 489.707751 
L 428.744437 594.433013 
L 446.481246 530.687201 
L 464.218055 195.26281 
L 481.954863 551.935805 
L 499.691672 517.027384 
L 517.428481 532.204959 
L 535.165289 612.646102 
L 552.902098 539.793746 
L 570.638907 533.722716 
L 588.375715 573.184409 
L 606.112524 548.90029 
L 623.849332 515.509627 
L 641.586141 617.199375 
L 659.32295 524.616172 
L 677.059758 485.154478 
L 694.796567 533.722716 
L 712.533376 538.275988 
L 730.270184 644.519008 
L 748.006993 515.509627 
L 765.743802 539.793746 
L 783.48061 554.97132 
L 801.217419 485.154478 
L 818.954228 533.722716 
L 836.691036 538.275988 
L 854.427845 465.423632 
L 872.164654 567.113379 
L 889.901462 515.509627 
L 907.638271 538.275988 
L 925.375079 538.275988 
L 943.111888 539.793746 
L 960.848697 257.490864 
L 978.585505 539.793746 
L 996.322314 554.97132 
" clip-path="url(#pdef7c1900e)" style="fill: none; stroke: #dd8452; stroke-width: 1.5; stroke-linecap: round"/>
   </g>
   <g id="patch_3">
    <path d="M 270 666.981818 
L 270 172.8 
" style="fill: none; stroke: #ffffff; stroke-width: 1.25; stroke-linejoin: miter; stroke-linecap: square"/>
   </g>
   <g id="patch_4">
    <path d="M 1030.909091 666.981818 
L 1030.909091 172.8 
" style="fill: none; stroke: #ffffff; stroke-width: 1.25; stroke-linejoin: miter; stroke-linecap: square"/>
   </g>
   <g id="patch_5">
    <path d="M 270 666.981818 
L 1030.909091 666.981818 
" style="fill: none; stroke: #ffffff; stroke-width: 1.25; stroke-linejoin: miter; stroke-linecap: square"/>
   </g>
   <g id="patch_6">
    <path d="M 270 172.8 
L 1030.909091 172.8 
" style="fill: none; stroke: #ffffff; stroke-width: 1.25; stroke-linejoin: miter; stroke-linecap: square"/>
   </g>
   <g id="text_18">
    <!-- Testing accuracy of L1 Loss -->
    <g style="fill: #262626" transform="translate(465.375639 166.8)scale(0.3 -0.3)">
     <defs>
      <path id="ArialMT-54" d="M 1659 0 
L 1659 4041 
L 150 4041 
L 150 4581 
L 3781 4581 
L 3781 4041 
L 2266 4041 
L 2266 0 
L 1659 0 
z
" transform="scale(0.015625)"/>
      <path id="ArialMT-66" d="M 556 0 
L 556 2881 
L 59 2881 
L 59 3319 
L 556 3319 
L 556 3672 
Q 556 4006 616 4169 
Q 697 4388 901 4523 
Q 1106 4659 1475 4659 
Q 1713 4659 2000 4603 
L 1916 4113 
Q 1741 4144 1584 4144 
Q 1328 4144 1222 4034 
Q 1116 3925 1116 3625 
L 1116 3319 
L 1763 3319 
L 1763 2881 
L 1116 2881 
L 1116 0 
L 556 0 
z
" transform="scale(0.015625)"/>
      <path id="ArialMT-4c" d="M 469 0 
L 469 4581 
L 1075 4581 
L 1075 541 
L 3331 541 
L 3331 0 
L 469 0 
z
" transform="scale(0.015625)"/>
     </defs>
     <use xlink:href="#ArialMT-54"/>
     <use xlink:href="#ArialMT-65" x="49.958984"/>
     <use xlink:href="#ArialMT-73" x="105.574219"/>
     <use xlink:href="#ArialMT-74" x="155.574219"/>
     <use xlink:href="#ArialMT-69" x="183.357422"/>
     <use xlink:href="#ArialMT-6e" x="205.574219"/>
     <use xlink:href="#ArialMT-67" x="261.189453"/>
     <use xlink:href="#ArialMT-20" x="316.804688"/>
     <use xlink:href="#ArialMT-61" x="344.587891"/>
     <use xlink:href="#ArialMT-63" x="400.203125"/>
     <use xlink:href="#ArialMT-63" x="450.203125"/>
     <use xlink:href="#ArialMT-75" x="500.203125"/>
     <use xlink:href="#ArialMT-72" x="555.818359"/>
     <use xlink:href="#ArialMT-61" x="589.119141"/>
     <use xlink:href="#ArialMT-63" x="644.734375"/>
     <use xlink:href="#ArialMT-79" x="694.734375"/>
     <use xlink:href="#ArialMT-20" x="744.734375"/>
     <use xlink:href="#ArialMT-6f" x="772.517578"/>
     <use xlink:href="#ArialMT-66" x="828.132812"/>
     <use xlink:href="#ArialMT-20" x="855.916016"/>
     <use xlink:href="#ArialMT-4c" x="883.699219"/>
     <use xlink:href="#ArialMT-31" x="939.314453"/>
     <use xlink:href="#ArialMT-20" x="994.929688"/>
     <use xlink:href="#ArialMT-4c" x="1022.712891"/>
     <use xlink:href="#ArialMT-6f" x="1078.328125"/>
     <use xlink:href="#ArialMT-73" x="1133.943359"/>
     <use xlink:href="#ArialMT-73" x="1183.943359"/>
    </g>
   </g>
   <g id="legend_1">
    <g id="patch_7">
     <path d="M 541.494389 272.934375 
L 759.414702 272.934375 
Q 764.914702 272.934375 764.914702 267.434375 
L 764.914702 192.05 
Q 764.914702 186.55 759.414702 186.55 
L 541.494389 186.55 
Q 535.994389 186.55 535.994389 192.05 
L 535.994389 267.434375 
Q 535.994389 272.934375 541.494389 272.934375 
z
" style="fill: #eaeaf2; opacity: 0.8; stroke: #cccccc; stroke-linejoin: miter"/>
    </g>
    <g id="line2d_18">
     <path d="M 546.994389 207.944141 
L 574.494389 207.944141 
L 601.994389 207.944141 
" style="fill: none; stroke: #4c72b0; stroke-width: 1.5; stroke-linecap: round"/>
    </g>
    <g id="text_19">
     <!-- acc_SGD -->
     <g style="fill: #262626" transform="translate(623.994389 217.569141)scale(0.275 -0.275)">
      <defs>
       <path id="ArialMT-5f" d="M -97 -1272 
L -97 -866 
L 3631 -866 
L 3631 -1272 
L -97 -1272 
z
" transform="scale(0.015625)"/>
       <path id="ArialMT-53" d="M 288 1472 
L 859 1522 
Q 900 1178 1048 958 
Q 1197 738 1509 602 
Q 1822 466 2213 466 
Q 2559 466 2825 569 
Q 3091 672 3220 851 
Q 3350 1031 3350 1244 
Q 3350 1459 3225 1620 
Q 3100 1781 2813 1891 
Q 2628 1963 1997 2114 
Q 1366 2266 1113 2400 
Q 784 2572 623 2826 
Q 463 3081 463 3397 
Q 463 3744 659 4045 
Q 856 4347 1234 4503 
Q 1613 4659 2075 4659 
Q 2584 4659 2973 4495 
Q 3363 4331 3572 4012 
Q 3781 3694 3797 3291 
L 3216 3247 
Q 3169 3681 2898 3903 
Q 2628 4125 2100 4125 
Q 1550 4125 1298 3923 
Q 1047 3722 1047 3438 
Q 1047 3191 1225 3031 
Q 1400 2872 2139 2705 
Q 2878 2538 3153 2413 
Q 3553 2228 3743 1945 
Q 3934 1663 3934 1294 
Q 3934 928 3725 604 
Q 3516 281 3123 101 
Q 2731 -78 2241 -78 
Q 1619 -78 1198 103 
Q 778 284 539 648 
Q 300 1013 288 1472 
z
" transform="scale(0.015625)"/>
       <path id="ArialMT-47" d="M 2638 1797 
L 2638 2334 
L 4578 2338 
L 4578 638 
Q 4131 281 3656 101 
Q 3181 -78 2681 -78 
Q 2006 -78 1454 211 
Q 903 500 622 1047 
Q 341 1594 341 2269 
Q 341 2938 620 3517 
Q 900 4097 1425 4378 
Q 1950 4659 2634 4659 
Q 3131 4659 3532 4498 
Q 3934 4338 4162 4050 
Q 4391 3763 4509 3300 
L 3963 3150 
Q 3859 3500 3706 3700 
Q 3553 3900 3268 4020 
Q 2984 4141 2638 4141 
Q 2222 4141 1919 4014 
Q 1616 3888 1430 3681 
Q 1244 3475 1141 3228 
Q 966 2803 966 2306 
Q 966 1694 1177 1281 
Q 1388 869 1791 669 
Q 2194 469 2647 469 
Q 3041 469 3416 620 
Q 3791 772 3984 944 
L 3984 1797 
L 2638 1797 
z
" transform="scale(0.015625)"/>
       <path id="ArialMT-44" d="M 494 0 
L 494 4581 
L 2072 4581 
Q 2606 4581 2888 4516 
Q 3281 4425 3559 4188 
Q 3922 3881 4101 3404 
Q 4281 2928 4281 2316 
Q 4281 1794 4159 1391 
Q 4038 988 3847 723 
Q 3656 459 3429 307 
Q 3203 156 2883 78 
Q 2563 0 2147 0 
L 494 0 
z
M 1100 541 
L 2078 541 
Q 2531 541 2789 625 
Q 3047 709 3200 863 
Q 3416 1078 3536 1442 
Q 3656 1806 3656 2325 
Q 3656 3044 3420 3430 
Q 3184 3816 2847 3947 
Q 2603 4041 2063 4041 
L 1100 4041 
L 1100 541 
z
" transform="scale(0.015625)"/>
      </defs>
      <use xlink:href="#ArialMT-61"/>
      <use xlink:href="#ArialMT-63" x="55.615234"/>
      <use xlink:href="#ArialMT-63" x="105.615234"/>
      <use xlink:href="#ArialMT-5f" x="155.615234"/>
      <use xlink:href="#ArialMT-53" x="211.230469"/>
      <use xlink:href="#ArialMT-47" x="277.929688"/>
      <use xlink:href="#ArialMT-44" x="355.712891"/>
     </g>
    </g>
    <g id="line2d_19">
     <path d="M 546.994389 246.84375 
L 574.494389 246.84375 
L 601.994389 246.84375 
" style="fill: none; stroke: #dd8452; stroke-width: 1.5; stroke-linecap: round"/>
    </g>
    <g id="text_20">
     <!-- acc_Adam -->
     <g style="fill: #262626" transform="translate(623.994389 256.46875)scale(0.275 -0.275)">
      <defs>
       <path id="ArialMT-41" d="M -9 0 
L 1750 4581 
L 2403 4581 
L 4278 0 
L 3588 0 
L 3053 1388 
L 1138 1388 
L 634 0 
L -9 0 
z
M 1313 1881 
L 2866 1881 
L 2388 3150 
Q 2169 3728 2063 4100 
Q 1975 3659 1816 3225 
L 1313 1881 
z
" transform="scale(0.015625)"/>
       <path id="ArialMT-64" d="M 2575 0 
L 2575 419 
Q 2259 -75 1647 -75 
Q 1250 -75 917 144 
Q 584 363 401 755 
Q 219 1147 219 1656 
Q 219 2153 384 2558 
Q 550 2963 881 3178 
Q 1213 3394 1622 3394 
Q 1922 3394 2156 3267 
Q 2391 3141 2538 2938 
L 2538 4581 
L 3097 4581 
L 3097 0 
L 2575 0 
z
M 797 1656 
Q 797 1019 1065 703 
Q 1334 388 1700 388 
Q 2069 388 2326 689 
Q 2584 991 2584 1609 
Q 2584 2291 2321 2609 
Q 2059 2928 1675 2928 
Q 1300 2928 1048 2622 
Q 797 2316 797 1656 
z
" transform="scale(0.015625)"/>
       <path id="ArialMT-6d" d="M 422 0 
L 422 3319 
L 925 3319 
L 925 2853 
Q 1081 3097 1340 3245 
Q 1600 3394 1931 3394 
Q 2300 3394 2536 3241 
Q 2772 3088 2869 2813 
Q 3263 3394 3894 3394 
Q 4388 3394 4653 3120 
Q 4919 2847 4919 2278 
L 4919 0 
L 4359 0 
L 4359 2091 
Q 4359 2428 4304 2576 
Q 4250 2725 4106 2815 
Q 3963 2906 3769 2906 
Q 3419 2906 3187 2673 
Q 2956 2441 2956 1928 
L 2956 0 
L 2394 0 
L 2394 2156 
Q 2394 2531 2256 2718 
Q 2119 2906 1806 2906 
Q 1569 2906 1367 2781 
Q 1166 2656 1075 2415 
Q 984 2175 984 1722 
L 984 0 
L 422 0 
z
" transform="scale(0.015625)"/>
      </defs>
      <use xlink:href="#ArialMT-61"/>
      <use xlink:href="#ArialMT-63" x="55.615234"/>
      <use xlink:href="#ArialMT-63" x="105.615234"/>
      <use xlink:href="#ArialMT-5f" x="155.615234"/>
      <use xlink:href="#ArialMT-41" x="211.230469"/>
      <use xlink:href="#ArialMT-64" x="277.929688"/>
      <use xlink:href="#ArialMT-61" x="333.544922"/>
      <use xlink:href="#ArialMT-6d" x="389.160156"/>
     </g>
    </g>
   </g>
  </g>
  <g id="axes_2">
   <g id="patch_8">
    <path d="M 1183.090909 666.981818 
L 1944 666.981818 
L 1944 172.8 
L 1183.090909 172.8 
z
" style="fill: #eaeaf2"/>
   </g>
   <g id="matplotlib.axis_3">
    <g id="xtick_10">
     <g id="line2d_20">
      <path d="M 1217.677686 666.981818 
L 1217.677686 172.8 
" clip-path="url(#pc213a1a6f6)" style="fill: none; stroke: #ffffff; stroke-linecap: round"/>
     </g>
     <g id="text_21">
      <!-- 0 -->
      <g style="fill: #262626" transform="translate(1210.031397 696.165803)scale(0.275 -0.275)">
       <use xlink:href="#ArialMT-30"/>
      </g>
     </g>
    </g>
    <g id="xtick_11">
     <g id="line2d_21">
      <path d="M 1306.361729 666.981818 
L 1306.361729 172.8 
" clip-path="url(#pc213a1a6f6)" style="fill: none; stroke: #ffffff; stroke-linecap: round"/>
     </g>
     <g id="text_22">
      <!-- 5 -->
      <g style="fill: #262626" transform="translate(1298.71544 696.165803)scale(0.275 -0.275)">
       <use xlink:href="#ArialMT-35"/>
      </g>
     </g>
    </g>
    <g id="xtick_12">
     <g id="line2d_22">
      <path d="M 1395.045772 666.981818 
L 1395.045772 172.8 
" clip-path="url(#pc213a1a6f6)" style="fill: none; stroke: #ffffff; stroke-linecap: round"/>
     </g>
     <g id="text_23">
      <!-- 10 -->
      <g style="fill: #262626" transform="translate(1379.753194 696.165803)scale(0.275 -0.275)">
       <use xlink:href="#ArialMT-31"/>
       <use xlink:href="#ArialMT-30" x="55.615234"/>
      </g>
     </g>
    </g>
    <g id="xtick_13">
     <g id="line2d_23">
      <path d="M 1483.729816 666.981818 
L 1483.729816 172.8 
" clip-path="url(#pc213a1a6f6)" style="fill: none; stroke: #ffffff; stroke-linecap: round"/>
     </g>
     <g id="text_24">
      <!-- 15 -->
      <g style="fill: #262626" transform="translate(1468.437238 696.165803)scale(0.275 -0.275)">
       <use xlink:href="#ArialMT-31"/>
       <use xlink:href="#ArialMT-35" x="55.615234"/>
      </g>
     </g>
    </g>
    <g id="xtick_14">
     <g id="line2d_24">
      <path d="M 1572.413859 666.981818 
L 1572.413859 172.8 
" clip-path="url(#pc213a1a6f6)" style="fill: none; stroke: #ffffff; stroke-linecap: round"/>
     </g>
     <g id="text_25">
      <!-- 20 -->
      <g style="fill: #262626" transform="translate(1557.121281 696.165803)scale(0.275 -0.275)">
       <use xlink:href="#ArialMT-32"/>
       <use xlink:href="#ArialMT-30" x="55.615234"/>
      </g>
     </g>
    </g>
    <g id="xtick_15">
     <g id="line2d_25">
      <path d="M 1661.097902 666.981818 
L 1661.097902 172.8 
" clip-path="url(#pc213a1a6f6)" style="fill: none; stroke: #ffffff; stroke-linecap: round"/>
     </g>
     <g id="text_26">
      <!-- 25 -->
      <g style="fill: #262626" transform="translate(1645.805324 696.165803)scale(0.275 -0.275)">
       <use xlink:href="#ArialMT-32"/>
       <use xlink:href="#ArialMT-35" x="55.615234"/>
      </g>
     </g>
    </g>
    <g id="xtick_16">
     <g id="line2d_26">
      <path d="M 1749.781945 666.981818 
L 1749.781945 172.8 
" clip-path="url(#pc213a1a6f6)" style="fill: none; stroke: #ffffff; stroke-linecap: round"/>
     </g>
     <g id="text_27">
      <!-- 30 -->
      <g style="fill: #262626" transform="translate(1734.489367 696.165803)scale(0.275 -0.275)">
       <use xlink:href="#ArialMT-33"/>
       <use xlink:href="#ArialMT-30" x="55.615234"/>
      </g>
     </g>
    </g>
    <g id="xtick_17">
     <g id="line2d_27">
      <path d="M 1838.465989 666.981818 
L 1838.465989 172.8 
" clip-path="url(#pc213a1a6f6)" style="fill: none; stroke: #ffffff; stroke-linecap: round"/>
     </g>
     <g id="text_28">
      <!-- 35 -->
      <g style="fill: #262626" transform="translate(1823.17341 696.165803)scale(0.275 -0.275)">
       <use xlink:href="#ArialMT-33"/>
       <use xlink:href="#ArialMT-35" x="55.615234"/>
      </g>
     </g>
    </g>
    <g id="xtick_18">
     <g id="line2d_28">
      <path d="M 1927.150032 666.981818 
L 1927.150032 172.8 
" clip-path="url(#pc213a1a6f6)" style="fill: none; stroke: #ffffff; stroke-linecap: round"/>
     </g>
     <g id="text_29">
      <!-- 40 -->
      <g style="fill: #262626" transform="translate(1911.857454 696.165803)scale(0.275 -0.275)">
       <use xlink:href="#ArialMT-34"/>
       <use xlink:href="#ArialMT-30" x="55.615234"/>
      </g>
     </g>
    </g>
    <g id="text_30">
     <!-- Epoch -->
     <g style="fill: #262626" transform="translate(1521.015767 727.104865)scale(0.3 -0.3)">
      <use xlink:href="#ArialMT-45"/>
      <use xlink:href="#ArialMT-70" x="66.699219"/>
      <use xlink:href="#ArialMT-6f" x="122.314453"/>
      <use xlink:href="#ArialMT-63" x="177.929688"/>
      <use xlink:href="#ArialMT-68" x="227.929688"/>
     </g>
    </g>
   </g>
   <g id="matplotlib.axis_4">
    <g id="ytick_7">
     <g id="line2d_29">
      <path d="M 1183.090909 656.421086 
L 1944 656.421086 
" clip-path="url(#pc213a1a6f6)" style="fill: none; stroke: #ffffff; stroke-linecap: round"/>
     </g>
     <g id="text_31">
      <!-- 0.35 -->
      <g style="fill: #262626" transform="translate(1120.073331 666.263078)scale(0.275 -0.275)">
       <use xlink:href="#ArialMT-30"/>
       <use xlink:href="#ArialMT-2e" x="55.615234"/>
       <use xlink:href="#ArialMT-33" x="83.398438"/>
       <use xlink:href="#ArialMT-35" x="139.013672"/>
      </g>
     </g>
    </g>
    <g id="ytick_8">
     <g id="line2d_30">
      <path d="M 1183.090909 561.960153 
L 1944 561.960153 
" clip-path="url(#pc213a1a6f6)" style="fill: none; stroke: #ffffff; stroke-linecap: round"/>
     </g>
     <g id="text_32">
      <!-- 0.40 -->
      <g style="fill: #262626" transform="translate(1120.073331 571.802145)scale(0.275 -0.275)">
       <use xlink:href="#ArialMT-30"/>
       <use xlink:href="#ArialMT-2e" x="55.615234"/>
       <use xlink:href="#ArialMT-34" x="83.398438"/>
       <use xlink:href="#ArialMT-30" x="139.013672"/>
      </g>
     </g>
    </g>
    <g id="ytick_9">
     <g id="line2d_31">
      <path d="M 1183.090909 467.499219 
L 1944 467.499219 
" clip-path="url(#pc213a1a6f6)" style="fill: none; stroke: #ffffff; stroke-linecap: round"/>
     </g>
     <g id="text_33">
      <!-- 0.45 -->
      <g style="fill: #262626" transform="translate(1120.073331 477.341212)scale(0.275 -0.275)">
       <use xlink:href="#ArialMT-30"/>
       <use xlink:href="#ArialMT-2e" x="55.615234"/>
       <use xlink:href="#ArialMT-34" x="83.398438"/>
       <use xlink:href="#ArialMT-35" x="139.013672"/>
      </g>
     </g>
    </g>
    <g id="ytick_10">
     <g id="line2d_32">
      <path d="M 1183.090909 373.038286 
L 1944 373.038286 
" clip-path="url(#pc213a1a6f6)" style="fill: none; stroke: #ffffff; stroke-linecap: round"/>
     </g>
     <g id="text_34">
      <!-- 0.50 -->
      <g style="fill: #262626" transform="translate(1120.073331 382.880278)scale(0.275 -0.275)">
       <use xlink:href="#ArialMT-30"/>
       <use xlink:href="#ArialMT-2e" x="55.615234"/>
       <use xlink:href="#ArialMT-35" x="83.398438"/>
       <use xlink:href="#ArialMT-30" x="139.013672"/>
      </g>
     </g>
    </g>
    <g id="ytick_11">
     <g id="line2d_33">
      <path d="M 1183.090909 278.577353 
L 1944 278.577353 
" clip-path="url(#pc213a1a6f6)" style="fill: none; stroke: #ffffff; stroke-linecap: round"/>
     </g>
     <g id="text_35">
      <!-- 0.55 -->
      <g style="fill: #262626" transform="translate(1120.073331 288.419345)scale(0.275 -0.275)">
       <use xlink:href="#ArialMT-30"/>
       <use xlink:href="#ArialMT-2e" x="55.615234"/>
       <use xlink:href="#ArialMT-35" x="83.398438"/>
       <use xlink:href="#ArialMT-35" x="139.013672"/>
      </g>
     </g>
    </g>
    <g id="ytick_12">
     <g id="line2d_34">
      <path d="M 1183.090909 184.11642 
L 1944 184.11642 
" clip-path="url(#pc213a1a6f6)" style="fill: none; stroke: #ffffff; stroke-linecap: round"/>
     </g>
     <g id="text_36">
      <!-- 0.60 -->
      <g style="fill: #262626" transform="translate(1120.073331 193.958412)scale(0.275 -0.275)">
       <defs>
        <path id="ArialMT-36" d="M 3184 3459 
L 2625 3416 
Q 2550 3747 2413 3897 
Q 2184 4138 1850 4138 
Q 1581 4138 1378 3988 
Q 1113 3794 959 3422 
Q 806 3050 800 2363 
Q 1003 2672 1297 2822 
Q 1591 2972 1913 2972 
Q 2475 2972 2870 2558 
Q 3266 2144 3266 1488 
Q 3266 1056 3080 686 
Q 2894 316 2569 119 
Q 2244 -78 1831 -78 
Q 1128 -78 684 439 
Q 241 956 241 2144 
Q 241 3472 731 4075 
Q 1159 4600 1884 4600 
Q 2425 4600 2770 4297 
Q 3116 3994 3184 3459 
z
M 888 1484 
Q 888 1194 1011 928 
Q 1134 663 1356 523 
Q 1578 384 1822 384 
Q 2178 384 2434 671 
Q 2691 959 2691 1453 
Q 2691 1928 2437 2201 
Q 2184 2475 1800 2475 
Q 1419 2475 1153 2201 
Q 888 1928 888 1484 
z
" transform="scale(0.015625)"/>
       </defs>
       <use xlink:href="#ArialMT-30"/>
       <use xlink:href="#ArialMT-2e" x="55.615234"/>
       <use xlink:href="#ArialMT-36" x="83.398438"/>
       <use xlink:href="#ArialMT-30" x="139.013672"/>
      </g>
     </g>
    </g>
    <g id="text_37">
     <!-- testing accuracy -->
     <g style="fill: #262626" transform="translate(1109.759268 528.268253)rotate(-90)scale(0.3 -0.3)">
      <use xlink:href="#ArialMT-74"/>
      <use xlink:href="#ArialMT-65" x="27.783203"/>
      <use xlink:href="#ArialMT-73" x="83.398438"/>
      <use xlink:href="#ArialMT-74" x="133.398438"/>
      <use xlink:href="#ArialMT-69" x="161.181641"/>
      <use xlink:href="#ArialMT-6e" x="183.398438"/>
      <use xlink:href="#ArialMT-67" x="239.013672"/>
      <use xlink:href="#ArialMT-20" x="294.628906"/>
      <use xlink:href="#ArialMT-61" x="322.412109"/>
      <use xlink:href="#ArialMT-63" x="378.027344"/>
      <use xlink:href="#ArialMT-63" x="428.027344"/>
      <use xlink:href="#ArialMT-75" x="478.027344"/>
      <use xlink:href="#ArialMT-72" x="533.642578"/>
      <use xlink:href="#ArialMT-61" x="566.943359"/>
      <use xlink:href="#ArialMT-63" x="622.558594"/>
      <use xlink:href="#ArialMT-79" x="672.558594"/>
     </g>
    </g>
   </g>
   <g id="line2d_35">
    <path d="M 1217.677686 557.803872 
L 1235.414495 557.237106 
L 1253.151303 643.007633 
L 1270.888112 644.519008 
L 1288.624921 629.972025 
L 1306.361729 479.023453 
L 1324.098538 457.486361 
L 1341.835346 422.913659 
L 1359.572155 467.310298 
L 1377.308964 415.356784 
L 1395.045772 372.471521 
L 1412.782581 362.080818 
L 1430.51939 361.325131 
L 1448.256198 361.514052 
L 1465.993007 354.1461 
L 1483.729816 313.150055 
L 1501.466624 317.306336 
L 1519.203433 322.596148 
L 1536.940242 307.67132 
L 1554.67705 293.313259 
L 1572.413859 295.391399 
L 1590.150668 278.766275 
L 1607.887476 295.580321 
L 1625.624285 264.030369 
L 1643.361093 278.766275 
L 1661.097902 263.652526 
L 1678.834711 257.98487 
L 1696.571519 254.395354 
L 1714.308328 252.506135 
L 1732.045137 261.385463 
L 1749.781945 253.450745 
L 1767.518754 242.87112 
L 1785.255563 243.81573 
L 1802.992371 249.861229 
L 1820.72918 242.115433 
L 1838.465989 239.84837 
L 1856.202797 237.581308 
L 1873.939606 235.314246 
L 1891.676414 235.503167 
L 1909.413223 238.525917 
" clip-path="url(#pc213a1a6f6)" style="fill: none; stroke: #4c72b0; stroke-width: 1.5; stroke-linecap: round"/>
   </g>
   <g id="line2d_36">
    <path d="M 1217.677686 568.76134 
L 1235.414495 475.811782 
L 1253.151303 415.545706 
L 1270.888112 397.598129 
L 1288.624921 362.836505 
L 1306.361729 336.387444 
L 1324.098538 312.394367 
L 1341.835346 315.417117 
L 1359.572155 286.134228 
L 1377.308964 284.811775 
L 1395.045772 275.365681 
L 1412.782581 274.23215 
L 1430.51939 266.675275 
L 1448.256198 247.594167 
L 1465.993007 261.196541 
L 1483.729816 244.004651 
L 1501.466624 244.004651 
L 1519.203433 232.480418 
L 1536.940242 240.79298 
L 1554.67705 252.695057 
L 1572.413859 230.591199 
L 1590.150668 227.001683 
L 1607.887476 219.822653 
L 1625.624285 250.994761 
L 1643.361093 222.278637 
L 1661.097902 227.568449 
L 1678.834711 215.666371 
L 1696.571519 227.757371 
L 1714.308328 220.956184 
L 1732.045137 216.044215 
L 1749.781945 209.43195 
L 1767.518754 215.666371 
L 1785.255563 201.30831 
L 1802.992371 222.089715 
L 1820.72918 216.422059 
L 1838.465989 195.26281 
L 1856.202797 198.096638 
L 1873.939606 211.887934 
L 1891.676414 200.174778 
L 1909.413223 211.699012 
" clip-path="url(#pc213a1a6f6)" style="fill: none; stroke: #dd8452; stroke-width: 1.5; stroke-linecap: round"/>
   </g>
   <g id="patch_9">
    <path d="M 1183.090909 666.981818 
L 1183.090909 172.8 
" style="fill: none; stroke: #ffffff; stroke-width: 1.25; stroke-linejoin: miter; stroke-linecap: square"/>
   </g>
   <g id="patch_10">
    <path d="M 1944 666.981818 
L 1944 172.8 
" style="fill: none; stroke: #ffffff; stroke-width: 1.25; stroke-linejoin: miter; stroke-linecap: square"/>
   </g>
   <g id="patch_11">
    <path d="M 1183.090909 666.981818 
L 1944 666.981818 
" style="fill: none; stroke: #ffffff; stroke-width: 1.25; stroke-linejoin: miter; stroke-linecap: square"/>
   </g>
   <g id="patch_12">
    <path d="M 1183.090909 172.8 
L 1944 172.8 
" style="fill: none; stroke: #ffffff; stroke-width: 1.25; stroke-linejoin: miter; stroke-linecap: square"/>
   </g>
   <g id="text_38">
    <!-- Testing accuracy of Cross-Entropy Loss -->
    <g style="fill: #262626" transform="translate(1299.294673 166.8)scale(0.3 -0.3)">
     <defs>
      <path id="ArialMT-43" d="M 3763 1606 
L 4369 1453 
Q 4178 706 3683 314 
Q 3188 -78 2472 -78 
Q 1731 -78 1267 223 
Q 803 525 561 1097 
Q 319 1669 319 2325 
Q 319 3041 592 3573 
Q 866 4106 1370 4382 
Q 1875 4659 2481 4659 
Q 3169 4659 3637 4309 
Q 4106 3959 4291 3325 
L 3694 3184 
Q 3534 3684 3231 3912 
Q 2928 4141 2469 4141 
Q 1941 4141 1586 3887 
Q 1231 3634 1087 3207 
Q 944 2781 944 2328 
Q 944 1744 1114 1308 
Q 1284 872 1643 656 
Q 2003 441 2422 441 
Q 2931 441 3284 734 
Q 3638 1028 3763 1606 
z
" transform="scale(0.015625)"/>
      <path id="ArialMT-2d" d="M 203 1375 
L 203 1941 
L 1931 1941 
L 1931 1375 
L 203 1375 
z
" transform="scale(0.015625)"/>
     </defs>
     <use xlink:href="#ArialMT-54"/>
     <use xlink:href="#ArialMT-65" x="49.958984"/>
     <use xlink:href="#ArialMT-73" x="105.574219"/>
     <use xlink:href="#ArialMT-74" x="155.574219"/>
     <use xlink:href="#ArialMT-69" x="183.357422"/>
     <use xlink:href="#ArialMT-6e" x="205.574219"/>
     <use xlink:href="#ArialMT-67" x="261.189453"/>
     <use xlink:href="#ArialMT-20" x="316.804688"/>
     <use xlink:href="#ArialMT-61" x="344.587891"/>
     <use xlink:href="#ArialMT-63" x="400.203125"/>
     <use xlink:href="#ArialMT-63" x="450.203125"/>
     <use xlink:href="#ArialMT-75" x="500.203125"/>
     <use xlink:href="#ArialMT-72" x="555.818359"/>
     <use xlink:href="#ArialMT-61" x="589.119141"/>
     <use xlink:href="#ArialMT-63" x="644.734375"/>
     <use xlink:href="#ArialMT-79" x="694.734375"/>
     <use xlink:href="#ArialMT-20" x="744.734375"/>
     <use xlink:href="#ArialMT-6f" x="772.517578"/>
     <use xlink:href="#ArialMT-66" x="828.132812"/>
     <use xlink:href="#ArialMT-20" x="855.916016"/>
     <use xlink:href="#ArialMT-43" x="883.699219"/>
     <use xlink:href="#ArialMT-72" x="955.916016"/>
     <use xlink:href="#ArialMT-6f" x="989.216797"/>
     <use xlink:href="#ArialMT-73" x="1044.832031"/>
     <use xlink:href="#ArialMT-73" x="1094.832031"/>
     <use xlink:href="#ArialMT-2d" x="1144.832031"/>
     <use xlink:href="#ArialMT-45" x="1178.132812"/>
     <use xlink:href="#ArialMT-6e" x="1244.832031"/>
     <use xlink:href="#ArialMT-74" x="1300.447266"/>
     <use xlink:href="#ArialMT-72" x="1328.230469"/>
     <use xlink:href="#ArialMT-6f" x="1361.53125"/>
     <use xlink:href="#ArialMT-70" x="1417.146484"/>
     <use xlink:href="#ArialMT-79" x="1472.761719"/>
     <use xlink:href="#ArialMT-20" x="1522.761719"/>
     <use xlink:href="#ArialMT-4c" x="1550.544922"/>
     <use xlink:href="#ArialMT-6f" x="1606.160156"/>
     <use xlink:href="#ArialMT-73" x="1661.775391"/>
     <use xlink:href="#ArialMT-73" x="1711.775391"/>
    </g>
   </g>
   <g id="legend_2">
    <g id="patch_13">
     <path d="M 1706.829687 653.231818 
L 1924.75 653.231818 
Q 1930.25 653.231818 1930.25 647.731818 
L 1930.25 572.347443 
Q 1930.25 566.847443 1924.75 566.847443 
L 1706.829687 566.847443 
Q 1701.329687 566.847443 1701.329687 572.347443 
L 1701.329687 647.731818 
Q 1701.329687 653.231818 1706.829687 653.231818 
z
" style="fill: #eaeaf2; opacity: 0.8; stroke: #cccccc; stroke-linejoin: miter"/>
    </g>
    <g id="line2d_37">
     <path d="M 1712.329687 588.241584 
L 1739.829687 588.241584 
L 1767.329687 588.241584 
" style="fill: none; stroke: #4c72b0; stroke-width: 1.5; stroke-linecap: round"/>
    </g>
    <g id="text_39">
     <!-- acc_SGD -->
     <g style="fill: #262626" transform="translate(1789.329687 597.866584)scale(0.275 -0.275)">
      <use xlink:href="#ArialMT-61"/>
      <use xlink:href="#ArialMT-63" x="55.615234"/>
      <use xlink:href="#ArialMT-63" x="105.615234"/>
      <use xlink:href="#ArialMT-5f" x="155.615234"/>
      <use xlink:href="#ArialMT-53" x="211.230469"/>
      <use xlink:href="#ArialMT-47" x="277.929688"/>
      <use xlink:href="#ArialMT-44" x="355.712891"/>
     </g>
    </g>
    <g id="line2d_38">
     <path d="M 1712.329687 627.141193 
L 1739.829687 627.141193 
L 1767.329687 627.141193 
" style="fill: none; stroke: #dd8452; stroke-width: 1.5; stroke-linecap: round"/>
    </g>
    <g id="text_40">
     <!-- acc_Adam -->
     <g style="fill: #262626" transform="translate(1789.329687 636.766193)scale(0.275 -0.275)">
      <use xlink:href="#ArialMT-61"/>
      <use xlink:href="#ArialMT-63" x="55.615234"/>
      <use xlink:href="#ArialMT-63" x="105.615234"/>
      <use xlink:href="#ArialMT-5f" x="155.615234"/>
      <use xlink:href="#ArialMT-41" x="211.230469"/>
      <use xlink:href="#ArialMT-64" x="277.929688"/>
      <use xlink:href="#ArialMT-61" x="333.544922"/>
      <use xlink:href="#ArialMT-6d" x="389.160156"/>
     </g>
    </g>
   </g>
  </g>
  <g id="axes_3">
   <g id="patch_14">
    <path d="M 270 1260 
L 1030.909091 1260 
L 1030.909091 765.818182 
L 270 765.818182 
z
" style="fill: #eaeaf2"/>
   </g>
   <g id="matplotlib.axis_5">
    <g id="xtick_19">
     <g id="line2d_39">
      <path d="M 304.586777 1260 
L 304.586777 765.818182 
" clip-path="url(#pf92bead82b)" style="fill: none; stroke: #ffffff; stroke-linecap: round"/>
     </g>
     <g id="text_41">
      <!-- 0 -->
      <g style="fill: #262626" transform="translate(296.940488 1289.183984)scale(0.275 -0.275)">
       <use xlink:href="#ArialMT-30"/>
      </g>
     </g>
    </g>
    <g id="xtick_20">
     <g id="line2d_40">
      <path d="M 393.27082 1260 
L 393.27082 765.818182 
" clip-path="url(#pf92bead82b)" style="fill: none; stroke: #ffffff; stroke-linecap: round"/>
     </g>
     <g id="text_42">
      <!-- 5 -->
      <g style="fill: #262626" transform="translate(385.624531 1289.183984)scale(0.275 -0.275)">
       <use xlink:href="#ArialMT-35"/>
      </g>
     </g>
    </g>
    <g id="xtick_21">
     <g id="line2d_41">
      <path d="M 481.954863 1260 
L 481.954863 765.818182 
" clip-path="url(#pf92bead82b)" style="fill: none; stroke: #ffffff; stroke-linecap: round"/>
     </g>
     <g id="text_43">
      <!-- 10 -->
      <g style="fill: #262626" transform="translate(466.662285 1289.183984)scale(0.275 -0.275)">
       <use xlink:href="#ArialMT-31"/>
       <use xlink:href="#ArialMT-30" x="55.615234"/>
      </g>
     </g>
    </g>
    <g id="xtick_22">
     <g id="line2d_42">
      <path d="M 570.638907 1260 
L 570.638907 765.818182 
" clip-path="url(#pf92bead82b)" style="fill: none; stroke: #ffffff; stroke-linecap: round"/>
     </g>
     <g id="text_44">
      <!-- 15 -->
      <g style="fill: #262626" transform="translate(555.346328 1289.183984)scale(0.275 -0.275)">
       <use xlink:href="#ArialMT-31"/>
       <use xlink:href="#ArialMT-35" x="55.615234"/>
      </g>
     </g>
    </g>
    <g id="xtick_23">
     <g id="line2d_43">
      <path d="M 659.32295 1260 
L 659.32295 765.818182 
" clip-path="url(#pf92bead82b)" style="fill: none; stroke: #ffffff; stroke-linecap: round"/>
     </g>
     <g id="text_45">
      <!-- 20 -->
      <g style="fill: #262626" transform="translate(644.030372 1289.183984)scale(0.275 -0.275)">
       <use xlink:href="#ArialMT-32"/>
       <use xlink:href="#ArialMT-30" x="55.615234"/>
      </g>
     </g>
    </g>
    <g id="xtick_24">
     <g id="line2d_44">
      <path d="M 748.006993 1260 
L 748.006993 765.818182 
" clip-path="url(#pf92bead82b)" style="fill: none; stroke: #ffffff; stroke-linecap: round"/>
     </g>
     <g id="text_46">
      <!-- 25 -->
      <g style="fill: #262626" transform="translate(732.714415 1289.183984)scale(0.275 -0.275)">
       <use xlink:href="#ArialMT-32"/>
       <use xlink:href="#ArialMT-35" x="55.615234"/>
      </g>
     </g>
    </g>
    <g id="xtick_25">
     <g id="line2d_45">
      <path d="M 836.691036 1260 
L 836.691036 765.818182 
" clip-path="url(#pf92bead82b)" style="fill: none; stroke: #ffffff; stroke-linecap: round"/>
     </g>
     <g id="text_47">
      <!-- 30 -->
      <g style="fill: #262626" transform="translate(821.398458 1289.183984)scale(0.275 -0.275)">
       <use xlink:href="#ArialMT-33"/>
       <use xlink:href="#ArialMT-30" x="55.615234"/>
      </g>
     </g>
    </g>
    <g id="xtick_26">
     <g id="line2d_46">
      <path d="M 925.375079 1260 
L 925.375079 765.818182 
" clip-path="url(#pf92bead82b)" style="fill: none; stroke: #ffffff; stroke-linecap: round"/>
     </g>
     <g id="text_48">
      <!-- 35 -->
      <g style="fill: #262626" transform="translate(910.082501 1289.183984)scale(0.275 -0.275)">
       <use xlink:href="#ArialMT-33"/>
       <use xlink:href="#ArialMT-35" x="55.615234"/>
      </g>
     </g>
    </g>
    <g id="xtick_27">
     <g id="line2d_47">
      <path d="M 1014.059123 1260 
L 1014.059123 765.818182 
" clip-path="url(#pf92bead82b)" style="fill: none; stroke: #ffffff; stroke-linecap: round"/>
     </g>
     <g id="text_49">
      <!-- 40 -->
      <g style="fill: #262626" transform="translate(998.766545 1289.183984)scale(0.275 -0.275)">
       <use xlink:href="#ArialMT-34"/>
       <use xlink:href="#ArialMT-30" x="55.615234"/>
      </g>
     </g>
    </g>
    <g id="text_50">
     <!-- Epoch -->
     <g style="fill: #262626" transform="translate(607.924858 1320.123047)scale(0.3 -0.3)">
      <use xlink:href="#ArialMT-45"/>
      <use xlink:href="#ArialMT-70" x="66.699219"/>
      <use xlink:href="#ArialMT-6f" x="122.314453"/>
      <use xlink:href="#ArialMT-63" x="177.929688"/>
      <use xlink:href="#ArialMT-68" x="227.929688"/>
     </g>
    </g>
   </g>
   <g id="matplotlib.axis_6">
    <g id="ytick_13">
     <g id="line2d_48">
      <path d="M 270 1200.118187 
L 1030.909091 1200.118187 
" clip-path="url(#pf92bead82b)" style="fill: none; stroke: #ffffff; stroke-linecap: round"/>
     </g>
     <g id="text_51">
      <!-- 0.40 -->
      <g style="fill: #262626" transform="translate(206.982422 1209.960179)scale(0.275 -0.275)">
       <use xlink:href="#ArialMT-30"/>
       <use xlink:href="#ArialMT-2e" x="55.615234"/>
       <use xlink:href="#ArialMT-34" x="83.398438"/>
       <use xlink:href="#ArialMT-30" x="139.013672"/>
      </g>
     </g>
    </g>
    <g id="ytick_14">
     <g id="line2d_49">
      <path d="M 270 1086.035862 
L 1030.909091 1086.035862 
" clip-path="url(#pf92bead82b)" style="fill: none; stroke: #ffffff; stroke-linecap: round"/>
     </g>
     <g id="text_52">
      <!-- 0.45 -->
      <g style="fill: #262626" transform="translate(206.982422 1095.877854)scale(0.275 -0.275)">
       <use xlink:href="#ArialMT-30"/>
       <use xlink:href="#ArialMT-2e" x="55.615234"/>
       <use xlink:href="#ArialMT-34" x="83.398438"/>
       <use xlink:href="#ArialMT-35" x="139.013672"/>
      </g>
     </g>
    </g>
    <g id="ytick_15">
     <g id="line2d_50">
      <path d="M 270 971.953536 
L 1030.909091 971.953536 
" clip-path="url(#pf92bead82b)" style="fill: none; stroke: #ffffff; stroke-linecap: round"/>
     </g>
     <g id="text_53">
      <!-- 0.50 -->
      <g style="fill: #262626" transform="translate(206.982422 981.795528)scale(0.275 -0.275)">
       <use xlink:href="#ArialMT-30"/>
       <use xlink:href="#ArialMT-2e" x="55.615234"/>
       <use xlink:href="#ArialMT-35" x="83.398438"/>
       <use xlink:href="#ArialMT-30" x="139.013672"/>
      </g>
     </g>
    </g>
    <g id="ytick_16">
     <g id="line2d_51">
      <path d="M 270 857.87121 
L 1030.909091 857.87121 
" clip-path="url(#pf92bead82b)" style="fill: none; stroke: #ffffff; stroke-linecap: round"/>
     </g>
     <g id="text_54">
      <!-- 0.55 -->
      <g style="fill: #262626" transform="translate(206.982422 867.713203)scale(0.275 -0.275)">
       <use xlink:href="#ArialMT-30"/>
       <use xlink:href="#ArialMT-2e" x="55.615234"/>
       <use xlink:href="#ArialMT-35" x="83.398438"/>
       <use xlink:href="#ArialMT-35" x="139.013672"/>
      </g>
     </g>
    </g>
    <g id="text_55">
     <!-- testing accuracy -->
     <g style="fill: #262626" transform="translate(196.668359 1121.286435)rotate(-90)scale(0.3 -0.3)">
      <use xlink:href="#ArialMT-74"/>
      <use xlink:href="#ArialMT-65" x="27.783203"/>
      <use xlink:href="#ArialMT-73" x="83.398438"/>
      <use xlink:href="#ArialMT-74" x="133.398438"/>
      <use xlink:href="#ArialMT-69" x="161.181641"/>
      <use xlink:href="#ArialMT-6e" x="183.398438"/>
      <use xlink:href="#ArialMT-67" x="239.013672"/>
      <use xlink:href="#ArialMT-20" x="294.628906"/>
      <use xlink:href="#ArialMT-61" x="322.412109"/>
      <use xlink:href="#ArialMT-63" x="378.027344"/>
      <use xlink:href="#ArialMT-63" x="428.027344"/>
      <use xlink:href="#ArialMT-75" x="478.027344"/>
      <use xlink:href="#ArialMT-72" x="533.642578"/>
      <use xlink:href="#ArialMT-61" x="566.943359"/>
      <use xlink:href="#ArialMT-63" x="622.558594"/>
      <use xlink:href="#ArialMT-79" x="672.558594"/>
     </g>
    </g>
   </g>
   <g id="line2d_52">
    <path d="M 304.586777 1228.866933 
L 322.323586 1234.11472 
L 340.060394 1215.633384 
L 357.797203 1211.52642 
L 375.534011 1193.729577 
L 393.27082 1074.627629 
L 411.007629 1050.442176 
L 428.744437 1053.180152 
L 446.481246 1077.59377 
L 464.218055 1010.513362 
L 481.954863 975.147841 
L 499.691672 944.573778 
L 517.428481 980.167463 
L 535.165289 934.534533 
L 552.902098 892.324073 
L 570.638907 868.823114 
L 588.375715 877.037041 
L 606.112524 872.930077 
L 623.849332 865.856973 
L 641.586141 855.133235 
L 659.32295 843.496837 
L 677.059758 843.953167 
L 694.796567 829.122464 
L 712.533376 843.496837 
L 730.270184 819.311384 
L 748.006993 812.694609 
L 765.743802 807.674987 
L 783.48061 812.010115 
L 801.217419 803.339859 
L 818.954228 812.694609 
L 836.691036 801.286377 
L 854.427845 799.46106 
L 872.164654 794.441437 
L 889.901462 788.280992 
L 907.638271 796.266755 
L 925.375079 792.61612 
L 943.111888 790.334474 
L 960.848697 792.844285 
L 978.585505 789.421815 
L 996.322314 794.669602 
" clip-path="url(#pf92bead82b)" style="fill: none; stroke: #4c72b0; stroke-width: 1.5; stroke-linecap: round"/>
   </g>
   <g id="line2d_53">
    <path d="M 304.586777 1237.53719 
L 322.323586 1123.911194 
L 340.060394 1067.78269 
L 357.797203 1048.616859 
L 375.534011 998.192471 
L 393.27082 994.541836 
L 411.007629 944.117449 
L 428.744437 913.543385 
L 446.481246 891.867743 
L 464.218055 892.780402 
L 481.954863 875.896218 
L 499.691672 868.594949 
L 517.428481 884.566475 
L 535.165289 871.332925 
L 552.902098 872.245583 
L 570.638907 860.837351 
L 588.375715 846.691142 
L 606.112524 860.381022 
L 623.849332 849.429118 
L 641.586141 843.268673 
L 659.32295 847.147472 
L 677.059758 823.190183 
L 694.796567 822.277525 
L 712.533376 840.530697 
L 730.270184 823.190183 
L 748.006993 814.976256 
L 765.743802 836.651898 
L 783.48061 818.170561 
L 801.217419 814.291762 
L 818.954228 811.097457 
L 836.691036 826.840818 
L 854.427845 819.995878 
L 872.164654 809.956634 
L 889.901462 801.514542 
L 907.638271 809.956634 
L 925.375079 800.830048 
L 943.111888 801.742706 
L 960.848697 806.990493 
L 978.585505 815.66075 
L 996.322314 801.970871 
" clip-path="url(#pf92bead82b)" style="fill: none; stroke: #dd8452; stroke-width: 1.5; stroke-linecap: round"/>
   </g>
   <g id="patch_15">
    <path d="M 270 1260 
L 270 765.818182 
" style="fill: none; stroke: #ffffff; stroke-width: 1.25; stroke-linejoin: miter; stroke-linecap: square"/>
   </g>
   <g id="patch_16">
    <path d="M 1030.909091 1260 
L 1030.909091 765.818182 
" style="fill: none; stroke: #ffffff; stroke-width: 1.25; stroke-linejoin: miter; stroke-linecap: square"/>
   </g>
   <g id="patch_17">
    <path d="M 270 1260 
L 1030.909091 1260 
" style="fill: none; stroke: #ffffff; stroke-width: 1.25; stroke-linejoin: miter; stroke-linecap: square"/>
   </g>
   <g id="patch_18">
    <path d="M 270 765.818182 
L 1030.909091 765.818182 
" style="fill: none; stroke: #ffffff; stroke-width: 1.25; stroke-linejoin: miter; stroke-linecap: square"/>
   </g>
   <g id="text_56">
    <!-- Testing accuracy of Focal Loss (gamma=0.5) -->
    <g style="fill: #262626" transform="translate(351.600639 759.818182)scale(0.3 -0.3)">
     <defs>
      <path id="ArialMT-46" d="M 525 0 
L 525 4581 
L 3616 4581 
L 3616 4041 
L 1131 4041 
L 1131 2622 
L 3281 2622 
L 3281 2081 
L 1131 2081 
L 1131 0 
L 525 0 
z
" transform="scale(0.015625)"/>
      <path id="ArialMT-6c" d="M 409 0 
L 409 4581 
L 972 4581 
L 972 0 
L 409 0 
z
" transform="scale(0.015625)"/>
      <path id="ArialMT-28" d="M 1497 -1347 
Q 1031 -759 709 28 
Q 388 816 388 1659 
Q 388 2403 628 3084 
Q 909 3875 1497 4659 
L 1900 4659 
Q 1522 4009 1400 3731 
Q 1209 3300 1100 2831 
Q 966 2247 966 1656 
Q 966 153 1900 -1347 
L 1497 -1347 
z
" transform="scale(0.015625)"/>
      <path id="ArialMT-3d" d="M 3381 2694 
L 356 2694 
L 356 3219 
L 3381 3219 
L 3381 2694 
z
M 3381 1303 
L 356 1303 
L 356 1828 
L 3381 1828 
L 3381 1303 
z
" transform="scale(0.015625)"/>
      <path id="ArialMT-29" d="M 791 -1347 
L 388 -1347 
Q 1322 153 1322 1656 
Q 1322 2244 1188 2822 
Q 1081 3291 891 3722 
Q 769 4003 388 4659 
L 791 4659 
Q 1378 3875 1659 3084 
Q 1900 2403 1900 1659 
Q 1900 816 1576 28 
Q 1253 -759 791 -1347 
z
" transform="scale(0.015625)"/>
     </defs>
     <use xlink:href="#ArialMT-54"/>
     <use xlink:href="#ArialMT-65" x="49.958984"/>
     <use xlink:href="#ArialMT-73" x="105.574219"/>
     <use xlink:href="#ArialMT-74" x="155.574219"/>
     <use xlink:href="#ArialMT-69" x="183.357422"/>
     <use xlink:href="#ArialMT-6e" x="205.574219"/>
     <use xlink:href="#ArialMT-67" x="261.189453"/>
     <use xlink:href="#ArialMT-20" x="316.804688"/>
     <use xlink:href="#ArialMT-61" x="344.587891"/>
     <use xlink:href="#ArialMT-63" x="400.203125"/>
     <use xlink:href="#ArialMT-63" x="450.203125"/>
     <use xlink:href="#ArialMT-75" x="500.203125"/>
     <use xlink:href="#ArialMT-72" x="555.818359"/>
     <use xlink:href="#ArialMT-61" x="589.119141"/>
     <use xlink:href="#ArialMT-63" x="644.734375"/>
     <use xlink:href="#ArialMT-79" x="694.734375"/>
     <use xlink:href="#ArialMT-20" x="744.734375"/>
     <use xlink:href="#ArialMT-6f" x="772.517578"/>
     <use xlink:href="#ArialMT-66" x="828.132812"/>
     <use xlink:href="#ArialMT-20" x="855.916016"/>
     <use xlink:href="#ArialMT-46" x="883.699219"/>
     <use xlink:href="#ArialMT-6f" x="944.783203"/>
     <use xlink:href="#ArialMT-63" x="1000.398438"/>
     <use xlink:href="#ArialMT-61" x="1050.398438"/>
     <use xlink:href="#ArialMT-6c" x="1106.013672"/>
     <use xlink:href="#ArialMT-20" x="1128.230469"/>
     <use xlink:href="#ArialMT-4c" x="1156.013672"/>
     <use xlink:href="#ArialMT-6f" x="1211.628906"/>
     <use xlink:href="#ArialMT-73" x="1267.244141"/>
     <use xlink:href="#ArialMT-73" x="1317.244141"/>
     <use xlink:href="#ArialMT-20" x="1367.244141"/>
     <use xlink:href="#ArialMT-28" x="1395.027344"/>
     <use xlink:href="#ArialMT-67" x="1428.328125"/>
     <use xlink:href="#ArialMT-61" x="1483.943359"/>
     <use xlink:href="#ArialMT-6d" x="1539.558594"/>
     <use xlink:href="#ArialMT-6d" x="1622.859375"/>
     <use xlink:href="#ArialMT-61" x="1706.160156"/>
     <use xlink:href="#ArialMT-3d" x="1761.775391"/>
     <use xlink:href="#ArialMT-30" x="1820.173828"/>
     <use xlink:href="#ArialMT-2e" x="1875.789062"/>
     <use xlink:href="#ArialMT-35" x="1903.572266"/>
     <use xlink:href="#ArialMT-29" x="1959.1875"/>
    </g>
   </g>
   <g id="legend_3">
    <g id="patch_19">
     <path d="M 289.25 865.952557 
L 507.170313 865.952557 
Q 512.670313 865.952557 512.670313 860.452557 
L 512.670313 785.068182 
Q 512.670313 779.568182 507.170313 779.568182 
L 289.25 779.568182 
Q 283.75 779.568182 283.75 785.068182 
L 283.75 860.452557 
Q 283.75 865.952557 289.25 865.952557 
z
" style="fill: #eaeaf2; opacity: 0.8; stroke: #cccccc; stroke-linejoin: miter"/>
    </g>
    <g id="line2d_54">
     <path d="M 294.75 800.962322 
L 322.25 800.962322 
L 349.75 800.962322 
" style="fill: none; stroke: #4c72b0; stroke-width: 1.5; stroke-linecap: round"/>
    </g>
    <g id="text_57">
     <!-- acc_SGD -->
     <g style="fill: #262626" transform="translate(371.75 810.587322)scale(0.275 -0.275)">
      <use xlink:href="#ArialMT-61"/>
      <use xlink:href="#ArialMT-63" x="55.615234"/>
      <use xlink:href="#ArialMT-63" x="105.615234"/>
      <use xlink:href="#ArialMT-5f" x="155.615234"/>
      <use xlink:href="#ArialMT-53" x="211.230469"/>
      <use xlink:href="#ArialMT-47" x="277.929688"/>
      <use xlink:href="#ArialMT-44" x="355.712891"/>
     </g>
    </g>
    <g id="line2d_55">
     <path d="M 294.75 839.861932 
L 322.25 839.861932 
L 349.75 839.861932 
" style="fill: none; stroke: #dd8452; stroke-width: 1.5; stroke-linecap: round"/>
    </g>
    <g id="text_58">
     <!-- acc_Adam -->
     <g style="fill: #262626" transform="translate(371.75 849.486932)scale(0.275 -0.275)">
      <use xlink:href="#ArialMT-61"/>
      <use xlink:href="#ArialMT-63" x="55.615234"/>
      <use xlink:href="#ArialMT-63" x="105.615234"/>
      <use xlink:href="#ArialMT-5f" x="155.615234"/>
      <use xlink:href="#ArialMT-41" x="211.230469"/>
      <use xlink:href="#ArialMT-64" x="277.929688"/>
      <use xlink:href="#ArialMT-61" x="333.544922"/>
      <use xlink:href="#ArialMT-6d" x="389.160156"/>
     </g>
    </g>
   </g>
  </g>
  <g id="axes_4">
   <g id="patch_20">
    <path d="M 1183.090909 1260 
L 1944 1260 
L 1944 765.818182 
L 1183.090909 765.818182 
z
" style="fill: #eaeaf2"/>
   </g>
   <g id="matplotlib.axis_7">
    <g id="xtick_28">
     <g id="line2d_56">
      <path d="M 1217.677686 1260 
L 1217.677686 765.818182 
" clip-path="url(#p7cdb4da50f)" style="fill: none; stroke: #ffffff; stroke-linecap: round"/>
     </g>
     <g id="text_59">
      <!-- 0 -->
      <g style="fill: #262626" transform="translate(1210.031397 1289.183984)scale(0.275 -0.275)">
       <use xlink:href="#ArialMT-30"/>
      </g>
     </g>
    </g>
    <g id="xtick_29">
     <g id="line2d_57">
      <path d="M 1306.361729 1260 
L 1306.361729 765.818182 
" clip-path="url(#p7cdb4da50f)" style="fill: none; stroke: #ffffff; stroke-linecap: round"/>
     </g>
     <g id="text_60">
      <!-- 5 -->
      <g style="fill: #262626" transform="translate(1298.71544 1289.183984)scale(0.275 -0.275)">
       <use xlink:href="#ArialMT-35"/>
      </g>
     </g>
    </g>
    <g id="xtick_30">
     <g id="line2d_58">
      <path d="M 1395.045772 1260 
L 1395.045772 765.818182 
" clip-path="url(#p7cdb4da50f)" style="fill: none; stroke: #ffffff; stroke-linecap: round"/>
     </g>
     <g id="text_61">
      <!-- 10 -->
      <g style="fill: #262626" transform="translate(1379.753194 1289.183984)scale(0.275 -0.275)">
       <use xlink:href="#ArialMT-31"/>
       <use xlink:href="#ArialMT-30" x="55.615234"/>
      </g>
     </g>
    </g>
    <g id="xtick_31">
     <g id="line2d_59">
      <path d="M 1483.729816 1260 
L 1483.729816 765.818182 
" clip-path="url(#p7cdb4da50f)" style="fill: none; stroke: #ffffff; stroke-linecap: round"/>
     </g>
     <g id="text_62">
      <!-- 15 -->
      <g style="fill: #262626" transform="translate(1468.437238 1289.183984)scale(0.275 -0.275)">
       <use xlink:href="#ArialMT-31"/>
       <use xlink:href="#ArialMT-35" x="55.615234"/>
      </g>
     </g>
    </g>
    <g id="xtick_32">
     <g id="line2d_60">
      <path d="M 1572.413859 1260 
L 1572.413859 765.818182 
" clip-path="url(#p7cdb4da50f)" style="fill: none; stroke: #ffffff; stroke-linecap: round"/>
     </g>
     <g id="text_63">
      <!-- 20 -->
      <g style="fill: #262626" transform="translate(1557.121281 1289.183984)scale(0.275 -0.275)">
       <use xlink:href="#ArialMT-32"/>
       <use xlink:href="#ArialMT-30" x="55.615234"/>
      </g>
     </g>
    </g>
    <g id="xtick_33">
     <g id="line2d_61">
      <path d="M 1661.097902 1260 
L 1661.097902 765.818182 
" clip-path="url(#p7cdb4da50f)" style="fill: none; stroke: #ffffff; stroke-linecap: round"/>
     </g>
     <g id="text_64">
      <!-- 25 -->
      <g style="fill: #262626" transform="translate(1645.805324 1289.183984)scale(0.275 -0.275)">
       <use xlink:href="#ArialMT-32"/>
       <use xlink:href="#ArialMT-35" x="55.615234"/>
      </g>
     </g>
    </g>
    <g id="xtick_34">
     <g id="line2d_62">
      <path d="M 1749.781945 1260 
L 1749.781945 765.818182 
" clip-path="url(#p7cdb4da50f)" style="fill: none; stroke: #ffffff; stroke-linecap: round"/>
     </g>
     <g id="text_65">
      <!-- 30 -->
      <g style="fill: #262626" transform="translate(1734.489367 1289.183984)scale(0.275 -0.275)">
       <use xlink:href="#ArialMT-33"/>
       <use xlink:href="#ArialMT-30" x="55.615234"/>
      </g>
     </g>
    </g>
    <g id="xtick_35">
     <g id="line2d_63">
      <path d="M 1838.465989 1260 
L 1838.465989 765.818182 
" clip-path="url(#p7cdb4da50f)" style="fill: none; stroke: #ffffff; stroke-linecap: round"/>
     </g>
     <g id="text_66">
      <!-- 35 -->
      <g style="fill: #262626" transform="translate(1823.17341 1289.183984)scale(0.275 -0.275)">
       <use xlink:href="#ArialMT-33"/>
       <use xlink:href="#ArialMT-35" x="55.615234"/>
      </g>
     </g>
    </g>
    <g id="xtick_36">
     <g id="line2d_64">
      <path d="M 1927.150032 1260 
L 1927.150032 765.818182 
" clip-path="url(#p7cdb4da50f)" style="fill: none; stroke: #ffffff; stroke-linecap: round"/>
     </g>
     <g id="text_67">
      <!-- 40 -->
      <g style="fill: #262626" transform="translate(1911.857454 1289.183984)scale(0.275 -0.275)">
       <use xlink:href="#ArialMT-34"/>
       <use xlink:href="#ArialMT-30" x="55.615234"/>
      </g>
     </g>
    </g>
    <g id="text_68">
     <!-- Epoch -->
     <g style="fill: #262626" transform="translate(1521.015767 1320.123047)scale(0.3 -0.3)">
      <use xlink:href="#ArialMT-45"/>
      <use xlink:href="#ArialMT-70" x="66.699219"/>
      <use xlink:href="#ArialMT-6f" x="122.314453"/>
      <use xlink:href="#ArialMT-63" x="177.929688"/>
      <use xlink:href="#ArialMT-68" x="227.929688"/>
     </g>
    </g>
   </g>
   <g id="matplotlib.axis_8">
    <g id="ytick_17">
     <g id="line2d_65">
      <path d="M 1183.090909 1221.652508 
L 1944 1221.652508 
" clip-path="url(#p7cdb4da50f)" style="fill: none; stroke: #ffffff; stroke-linecap: round"/>
     </g>
     <g id="text_69">
      <!-- 0.35 -->
      <g style="fill: #262626" transform="translate(1120.073331 1231.4945)scale(0.275 -0.275)">
       <use xlink:href="#ArialMT-30"/>
       <use xlink:href="#ArialMT-2e" x="55.615234"/>
       <use xlink:href="#ArialMT-33" x="83.398438"/>
       <use xlink:href="#ArialMT-35" x="139.013672"/>
      </g>
     </g>
    </g>
    <g id="ytick_18">
     <g id="line2d_66">
      <path d="M 1183.090909 1128.213198 
L 1944 1128.213198 
" clip-path="url(#p7cdb4da50f)" style="fill: none; stroke: #ffffff; stroke-linecap: round"/>
     </g>
     <g id="text_70">
      <!-- 0.40 -->
      <g style="fill: #262626" transform="translate(1120.073331 1138.055191)scale(0.275 -0.275)">
       <use xlink:href="#ArialMT-30"/>
       <use xlink:href="#ArialMT-2e" x="55.615234"/>
       <use xlink:href="#ArialMT-34" x="83.398438"/>
       <use xlink:href="#ArialMT-30" x="139.013672"/>
      </g>
     </g>
    </g>
    <g id="ytick_19">
     <g id="line2d_67">
      <path d="M 1183.090909 1034.773889 
L 1944 1034.773889 
" clip-path="url(#p7cdb4da50f)" style="fill: none; stroke: #ffffff; stroke-linecap: round"/>
     </g>
     <g id="text_71">
      <!-- 0.45 -->
      <g style="fill: #262626" transform="translate(1120.073331 1044.615881)scale(0.275 -0.275)">
       <use xlink:href="#ArialMT-30"/>
       <use xlink:href="#ArialMT-2e" x="55.615234"/>
       <use xlink:href="#ArialMT-34" x="83.398438"/>
       <use xlink:href="#ArialMT-35" x="139.013672"/>
      </g>
     </g>
    </g>
    <g id="ytick_20">
     <g id="line2d_68">
      <path d="M 1183.090909 941.33458 
L 1944 941.33458 
" clip-path="url(#p7cdb4da50f)" style="fill: none; stroke: #ffffff; stroke-linecap: round"/>
     </g>
     <g id="text_72">
      <!-- 0.50 -->
      <g style="fill: #262626" transform="translate(1120.073331 951.176572)scale(0.275 -0.275)">
       <use xlink:href="#ArialMT-30"/>
       <use xlink:href="#ArialMT-2e" x="55.615234"/>
       <use xlink:href="#ArialMT-35" x="83.398438"/>
       <use xlink:href="#ArialMT-30" x="139.013672"/>
      </g>
     </g>
    </g>
    <g id="ytick_21">
     <g id="line2d_69">
      <path d="M 1183.090909 847.895271 
L 1944 847.895271 
" clip-path="url(#p7cdb4da50f)" style="fill: none; stroke: #ffffff; stroke-linecap: round"/>
     </g>
     <g id="text_73">
      <!-- 0.55 -->
      <g style="fill: #262626" transform="translate(1120.073331 857.737263)scale(0.275 -0.275)">
       <use xlink:href="#ArialMT-30"/>
       <use xlink:href="#ArialMT-2e" x="55.615234"/>
       <use xlink:href="#ArialMT-35" x="83.398438"/>
       <use xlink:href="#ArialMT-35" x="139.013672"/>
      </g>
     </g>
    </g>
    <g id="text_74">
     <!-- testing accuracy -->
     <g style="fill: #262626" transform="translate(1109.759268 1121.286435)rotate(-90)scale(0.3 -0.3)">
      <use xlink:href="#ArialMT-74"/>
      <use xlink:href="#ArialMT-65" x="27.783203"/>
      <use xlink:href="#ArialMT-73" x="83.398438"/>
      <use xlink:href="#ArialMT-74" x="133.398438"/>
      <use xlink:href="#ArialMT-69" x="161.181641"/>
      <use xlink:href="#ArialMT-6e" x="183.398438"/>
      <use xlink:href="#ArialMT-67" x="239.013672"/>
      <use xlink:href="#ArialMT-20" x="294.628906"/>
      <use xlink:href="#ArialMT-61" x="322.412109"/>
      <use xlink:href="#ArialMT-63" x="378.027344"/>
      <use xlink:href="#ArialMT-63" x="428.027344"/>
      <use xlink:href="#ArialMT-75" x="478.027344"/>
      <use xlink:href="#ArialMT-72" x="533.642578"/>
      <use xlink:href="#ArialMT-61" x="566.943359"/>
      <use xlink:href="#ArialMT-63" x="622.558594"/>
      <use xlink:href="#ArialMT-79" x="672.558594"/>
     </g>
    </g>
   </g>
   <g id="line2d_70">
    <path d="M 1217.677686 1192.8732 
L 1235.414495 1237.53719 
L 1253.151303 1179.231061 
L 1270.888112 1188.761871 
L 1288.624921 1186.332449 
L 1306.361729 1087.286781 
L 1324.098538 1041.314641 
L 1341.835346 1058.507474 
L 1359.572155 1076.260943 
L 1377.308964 1051.406086 
L 1395.045772 983.382269 
L 1412.782581 969.553251 
L 1430.51939 948.996603 
L 1448.256198 956.658627 
L 1465.993007 960.209321 
L 1483.729816 914.424059 
L 1501.466624 896.67059 
L 1519.203433 880.599029 
L 1536.940242 882.467815 
L 1554.67705 897.418105 
L 1572.413859 860.22926 
L 1590.150668 870.881341 
L 1607.887476 858.921109 
L 1625.624285 854.80978 
L 1643.361093 841.728277 
L 1661.097902 837.24319 
L 1678.834711 835.935039 
L 1696.571519 846.213363 
L 1714.308328 825.469837 
L 1732.045137 835.748161 
L 1749.781945 820.237235 
L 1767.518754 822.666657 
L 1785.255563 833.692496 
L 1802.992371 819.489721 
L 1820.72918 824.909201 
L 1838.465989 817.060299 
L 1856.202797 820.424114 
L 1873.939606 817.994692 
L 1891.676414 823.414172 
L 1909.413223 818.368449 
" clip-path="url(#p7cdb4da50f)" style="fill: none; stroke: #4c72b0; stroke-width: 1.5; stroke-linecap: round"/>
   </g>
   <g id="line2d_71">
    <path d="M 1217.677686 1102.797706 
L 1235.414495 1036.829554 
L 1253.151303 992.539322 
L 1270.888112 976.46776 
L 1288.624921 946.006546 
L 1306.361729 944.137759 
L 1324.098538 915.171574 
L 1341.835346 910.125851 
L 1359.572155 887.139781 
L 1377.308964 885.457873 
L 1395.045772 891.998625 
L 1412.782581 883.028451 
L 1430.51939 854.436023 
L 1448.256198 850.324693 
L 1465.993007 863.032439 
L 1483.729816 850.885329 
L 1501.466624 840.980762 
L 1519.203433 833.505617 
L 1536.940242 838.364461 
L 1554.67705 838.55134 
L 1572.413859 809.772033 
L 1590.150668 814.25712 
L 1607.887476 807.716368 
L 1625.624285 814.817756 
L 1643.361093 818.555328 
L 1661.097902 808.650761 
L 1678.834711 803.978796 
L 1696.571519 824.722322 
L 1714.308328 793.88735 
L 1732.045137 805.100067 
L 1749.781945 803.044403 
L 1767.518754 805.847582 
L 1785.255563 795.382379 
L 1802.992371 799.119952 
L 1820.72918 805.660703 
L 1838.465989 788.280992 
L 1856.202797 797.438044 
L 1873.939606 788.654749 
L 1891.676414 797.438044 
L 1909.413223 793.700472 
" clip-path="url(#p7cdb4da50f)" style="fill: none; stroke: #dd8452; stroke-width: 1.5; stroke-linecap: round"/>
   </g>
   <g id="patch_21">
    <path d="M 1183.090909 1260 
L 1183.090909 765.818182 
" style="fill: none; stroke: #ffffff; stroke-width: 1.25; stroke-linejoin: miter; stroke-linecap: square"/>
   </g>
   <g id="patch_22">
    <path d="M 1944 1260 
L 1944 765.818182 
" style="fill: none; stroke: #ffffff; stroke-width: 1.25; stroke-linejoin: miter; stroke-linecap: square"/>
   </g>
   <g id="patch_23">
    <path d="M 1183.090909 1260 
L 1944 1260 
" style="fill: none; stroke: #ffffff; stroke-width: 1.25; stroke-linejoin: miter; stroke-linecap: square"/>
   </g>
   <g id="patch_24">
    <path d="M 1183.090909 765.818182 
L 1944 765.818182 
" style="fill: none; stroke: #ffffff; stroke-width: 1.25; stroke-linejoin: miter; stroke-linecap: square"/>
   </g>
   <g id="text_75">
    <!-- Testing accuracy of Focal Loss (gamma=2) -->
    <g style="fill: #262626" transform="translate(1277.200142 759.818182)scale(0.3 -0.3)">
     <use xlink:href="#ArialMT-54"/>
     <use xlink:href="#ArialMT-65" x="49.958984"/>
     <use xlink:href="#ArialMT-73" x="105.574219"/>
     <use xlink:href="#ArialMT-74" x="155.574219"/>
     <use xlink:href="#ArialMT-69" x="183.357422"/>
     <use xlink:href="#ArialMT-6e" x="205.574219"/>
     <use xlink:href="#ArialMT-67" x="261.189453"/>
     <use xlink:href="#ArialMT-20" x="316.804688"/>
     <use xlink:href="#ArialMT-61" x="344.587891"/>
     <use xlink:href="#ArialMT-63" x="400.203125"/>
     <use xlink:href="#ArialMT-63" x="450.203125"/>
     <use xlink:href="#ArialMT-75" x="500.203125"/>
     <use xlink:href="#ArialMT-72" x="555.818359"/>
     <use xlink:href="#ArialMT-61" x="589.119141"/>
     <use xlink:href="#ArialMT-63" x="644.734375"/>
     <use xlink:href="#ArialMT-79" x="694.734375"/>
     <use xlink:href="#ArialMT-20" x="744.734375"/>
     <use xlink:href="#ArialMT-6f" x="772.517578"/>
     <use xlink:href="#ArialMT-66" x="828.132812"/>
     <use xlink:href="#ArialMT-20" x="855.916016"/>
     <use xlink:href="#ArialMT-46" x="883.699219"/>
     <use xlink:href="#ArialMT-6f" x="944.783203"/>
     <use xlink:href="#ArialMT-63" x="1000.398438"/>
     <use xlink:href="#ArialMT-61" x="1050.398438"/>
     <use xlink:href="#ArialMT-6c" x="1106.013672"/>
     <use xlink:href="#ArialMT-20" x="1128.230469"/>
     <use xlink:href="#ArialMT-4c" x="1156.013672"/>
     <use xlink:href="#ArialMT-6f" x="1211.628906"/>
     <use xlink:href="#ArialMT-73" x="1267.244141"/>
     <use xlink:href="#ArialMT-73" x="1317.244141"/>
     <use xlink:href="#ArialMT-20" x="1367.244141"/>
     <use xlink:href="#ArialMT-28" x="1395.027344"/>
     <use xlink:href="#ArialMT-67" x="1428.328125"/>
     <use xlink:href="#ArialMT-61" x="1483.943359"/>
     <use xlink:href="#ArialMT-6d" x="1539.558594"/>
     <use xlink:href="#ArialMT-6d" x="1622.859375"/>
     <use xlink:href="#ArialMT-61" x="1706.160156"/>
     <use xlink:href="#ArialMT-3d" x="1761.775391"/>
     <use xlink:href="#ArialMT-32" x="1820.173828"/>
     <use xlink:href="#ArialMT-29" x="1875.789062"/>
    </g>
   </g>
   <g id="legend_4">
    <g id="patch_25">
     <path d="M 1706.829687 1246.25 
L 1924.75 1246.25 
Q 1930.25 1246.25 1930.25 1240.75 
L 1930.25 1165.365625 
Q 1930.25 1159.865625 1924.75 1159.865625 
L 1706.829687 1159.865625 
Q 1701.329687 1159.865625 1701.329687 1165.365625 
L 1701.329687 1240.75 
Q 1701.329687 1246.25 1706.829687 1246.25 
z
" style="fill: #eaeaf2; opacity: 0.8; stroke: #cccccc; stroke-linejoin: miter"/>
    </g>
    <g id="line2d_72">
     <path d="M 1712.329687 1181.259766 
L 1739.829687 1181.259766 
L 1767.329687 1181.259766 
" style="fill: none; stroke: #4c72b0; stroke-width: 1.5; stroke-linecap: round"/>
    </g>
    <g id="text_76">
     <!-- acc_SGD -->
     <g style="fill: #262626" transform="translate(1789.329687 1190.884766)scale(0.275 -0.275)">
      <use xlink:href="#ArialMT-61"/>
      <use xlink:href="#ArialMT-63" x="55.615234"/>
      <use xlink:href="#ArialMT-63" x="105.615234"/>
      <use xlink:href="#ArialMT-5f" x="155.615234"/>
      <use xlink:href="#ArialMT-53" x="211.230469"/>
      <use xlink:href="#ArialMT-47" x="277.929688"/>
      <use xlink:href="#ArialMT-44" x="355.712891"/>
     </g>
    </g>
    <g id="line2d_73">
     <path d="M 1712.329687 1220.159375 
L 1739.829687 1220.159375 
L 1767.329687 1220.159375 
" style="fill: none; stroke: #dd8452; stroke-width: 1.5; stroke-linecap: round"/>
    </g>
    <g id="text_77">
     <!-- acc_Adam -->
     <g style="fill: #262626" transform="translate(1789.329687 1229.784375)scale(0.275 -0.275)">
      <use xlink:href="#ArialMT-61"/>
      <use xlink:href="#ArialMT-63" x="55.615234"/>
      <use xlink:href="#ArialMT-63" x="105.615234"/>
      <use xlink:href="#ArialMT-5f" x="155.615234"/>
      <use xlink:href="#ArialMT-41" x="211.230469"/>
      <use xlink:href="#ArialMT-64" x="277.929688"/>
      <use xlink:href="#ArialMT-61" x="333.544922"/>
      <use xlink:href="#ArialMT-6d" x="389.160156"/>
     </g>
    </g>
   </g>
  </g>
  <g id="text_78">
   <!-- Testing accuracy of different loss functions -->
   <g transform="translate(704.640625 57.91875)scale(0.4 -0.4)">
    <use xlink:href="#ArialMT-54"/>
    <use xlink:href="#ArialMT-65" x="49.958984"/>
    <use xlink:href="#ArialMT-73" x="105.574219"/>
    <use xlink:href="#ArialMT-74" x="155.574219"/>
    <use xlink:href="#ArialMT-69" x="183.357422"/>
    <use xlink:href="#ArialMT-6e" x="205.574219"/>
    <use xlink:href="#ArialMT-67" x="261.189453"/>
    <use xlink:href="#ArialMT-20" x="316.804688"/>
    <use xlink:href="#ArialMT-61" x="344.587891"/>
    <use xlink:href="#ArialMT-63" x="400.203125"/>
    <use xlink:href="#ArialMT-63" x="450.203125"/>
    <use xlink:href="#ArialMT-75" x="500.203125"/>
    <use xlink:href="#ArialMT-72" x="555.818359"/>
    <use xlink:href="#ArialMT-61" x="589.119141"/>
    <use xlink:href="#ArialMT-63" x="644.734375"/>
    <use xlink:href="#ArialMT-79" x="694.734375"/>
    <use xlink:href="#ArialMT-20" x="744.734375"/>
    <use xlink:href="#ArialMT-6f" x="772.517578"/>
    <use xlink:href="#ArialMT-66" x="828.132812"/>
    <use xlink:href="#ArialMT-20" x="855.916016"/>
    <use xlink:href="#ArialMT-64" x="883.699219"/>
    <use xlink:href="#ArialMT-69" x="939.314453"/>
    <use xlink:href="#ArialMT-66" x="961.53125"/>
    <use xlink:href="#ArialMT-66" x="987.564453"/>
    <use xlink:href="#ArialMT-65" x="1015.347656"/>
    <use xlink:href="#ArialMT-72" x="1070.962891"/>
    <use xlink:href="#ArialMT-65" x="1104.263672"/>
    <use xlink:href="#ArialMT-6e" x="1159.878906"/>
    <use xlink:href="#ArialMT-74" x="1215.494141"/>
    <use xlink:href="#ArialMT-20" x="1243.277344"/>
    <use xlink:href="#ArialMT-6c" x="1271.060547"/>
    <use xlink:href="#ArialMT-6f" x="1293.277344"/>
    <use xlink:href="#ArialMT-73" x="1348.892578"/>
    <use xlink:href="#ArialMT-73" x="1398.892578"/>
    <use xlink:href="#ArialMT-20" x="1448.892578"/>
    <use xlink:href="#ArialMT-66" x="1476.675781"/>
    <use xlink:href="#ArialMT-75" x="1504.458984"/>
    <use xlink:href="#ArialMT-6e" x="1560.074219"/>
    <use xlink:href="#ArialMT-63" x="1615.689453"/>
    <use xlink:href="#ArialMT-74" x="1665.689453"/>
    <use xlink:href="#ArialMT-69" x="1693.472656"/>
    <use xlink:href="#ArialMT-6f" x="1715.689453"/>
    <use xlink:href="#ArialMT-6e" x="1771.304688"/>
    <use xlink:href="#ArialMT-73" x="1826.919922"/>
   </g>
  </g>
 </g>
 <defs>
  <clipPath id="pdef7c1900e">
   <rect x="270" y="172.8" width="760.909091" height="494.181818"/>
  </clipPath>
  <clipPath id="pc213a1a6f6">
   <rect x="1183.090909" y="172.8" width="760.909091" height="494.181818"/>
  </clipPath>
  <clipPath id="pf92bead82b">
   <rect x="270" y="765.818182" width="760.909091" height="494.181818"/>
  </clipPath>
  <clipPath id="p7cdb4da50f">
   <rect x="1183.090909" y="765.818182" width="760.909091" height="494.181818"/>
  </clipPath>
 </defs>
</svg>
