<?xml version="1.0" encoding="utf-8" standalone="no"?>
<!DOCTYPE svg PUBLIC "-//W3C//DTD SVG 1.1//EN"
  "http://www.w3.org/Graphics/SVG/1.1/DTD/svg11.dtd">
<svg xmlns:xlink="http://www.w3.org/1999/xlink" width="2160pt" height="1440pt" viewBox="0 0 2160 1440" xmlns="http://www.w3.org/2000/svg" version="1.1">
 <metadata>
  <rdf:RDF xmlns:dc="http://purl.org/dc/elements/1.1/" xmlns:cc="http://creativecommons.org/ns#" xmlns:rdf="http://www.w3.org/1999/02/22-rdf-syntax-ns#">
   <cc:Work>
    <dc:type rdf:resource="http://purl.org/dc/dcmitype/StillImage"/>
    <dc:date>2023-10-28T08:01:36.424411</dc:date>
    <dc:format>image/svg+xml</dc:format>
    <dc:creator>
     <cc:Agent>
      <dc:title>Matplotlib v3.7.3, https://matplotlib.org/</dc:title>
     </cc:Agent>
    </dc:creator>
   </cc:Work>
  </rdf:RDF>
 </metadata>
 <defs>
  <style type="text/css">*{stroke-linejoin: round; stroke-linecap: butt}</style>
 </defs>
 <g id="figure_1">
  <g id="patch_1">
   <path d="M 0 1440 
L 2160 1440 
L 2160 0 
L 0 0 
z
" style="fill: #ffffff"/>
  </g>
  <g id="axes_1">
   <g id="patch_2">
    <path d="M 270 676.8 
L 1030.909091 676.8 
L 1030.909091 172.8 
L 270 172.8 
z
" style="fill: #eaeaf2"/>
   </g>
   <g id="matplotlib.axis_1">
    <g id="xtick_1">
     <g id="line2d_1">
      <path d="M 304.586777 676.8 
L 304.586777 172.8 
" clip-path="url(#pdd0a571eea)" style="fill: none; stroke: #ffffff; stroke-linecap: round"/>
     </g>
     <g id="text_1">
      <!-- 0 -->
      <g style="fill: #262626" transform="translate(295.838339 707.195703) scale(0.275 -0.275)">
       <defs>
        <path id="DejaVuSans-30" d="M 2034 4250 
Q 1547 4250 1301 3770 
Q 1056 3291 1056 2328 
Q 1056 1369 1301 889 
Q 1547 409 2034 409 
Q 2525 409 2770 889 
Q 3016 1369 3016 2328 
Q 3016 3291 2770 3770 
Q 2525 4250 2034 4250 
z
M 2034 4750 
Q 2819 4750 3233 4129 
Q 3647 3509 3647 2328 
Q 3647 1150 3233 529 
Q 2819 -91 2034 -91 
Q 1250 -91 836 529 
Q 422 1150 422 2328 
Q 422 3509 836 4129 
Q 1250 4750 2034 4750 
z
" transform="scale(0.015625)"/>
       </defs>
       <use xlink:href="#DejaVuSans-30"/>
      </g>
     </g>
    </g>
    <g id="xtick_2">
     <g id="line2d_2">
      <path d="M 393.27082 676.8 
L 393.27082 172.8 
" clip-path="url(#pdd0a571eea)" style="fill: none; stroke: #ffffff; stroke-linecap: round"/>
     </g>
     <g id="text_2">
      <!-- 5 -->
      <g style="fill: #262626" transform="translate(384.522383 707.195703) scale(0.275 -0.275)">
       <defs>
        <path id="DejaVuSans-35" d="M 691 4666 
L 3169 4666 
L 3169 4134 
L 1269 4134 
L 1269 2991 
Q 1406 3038 1543 3061 
Q 1681 3084 1819 3084 
Q 2600 3084 3056 2656 
Q 3513 2228 3513 1497 
Q 3513 744 3044 326 
Q 2575 -91 1722 -91 
Q 1428 -91 1123 -41 
Q 819 9 494 109 
L 494 744 
Q 775 591 1075 516 
Q 1375 441 1709 441 
Q 2250 441 2565 725 
Q 2881 1009 2881 1497 
Q 2881 1984 2565 2268 
Q 2250 2553 1709 2553 
Q 1456 2553 1204 2497 
Q 953 2441 691 2322 
L 691 4666 
z
" transform="scale(0.015625)"/>
       </defs>
       <use xlink:href="#DejaVuSans-35"/>
      </g>
     </g>
    </g>
    <g id="xtick_3">
     <g id="line2d_3">
      <path d="M 481.954863 676.8 
L 481.954863 172.8 
" clip-path="url(#pdd0a571eea)" style="fill: none; stroke: #ffffff; stroke-linecap: round"/>
     </g>
     <g id="text_3">
      <!-- 10 -->
      <g style="fill: #262626" transform="translate(464.457988 707.195703) scale(0.275 -0.275)">
       <defs>
        <path id="DejaVuSans-31" d="M 794 531 
L 1825 531 
L 1825 4091 
L 703 3866 
L 703 4441 
L 1819 4666 
L 2450 4666 
L 2450 531 
L 3481 531 
L 3481 0 
L 794 0 
L 794 531 
z
" transform="scale(0.015625)"/>
       </defs>
       <use xlink:href="#DejaVuSans-31"/>
       <use xlink:href="#DejaVuSans-30" x="63.623047"/>
      </g>
     </g>
    </g>
    <g id="xtick_4">
     <g id="line2d_4">
      <path d="M 570.638907 676.8 
L 570.638907 172.8 
" clip-path="url(#pdd0a571eea)" style="fill: none; stroke: #ffffff; stroke-linecap: round"/>
     </g>
     <g id="text_4">
      <!-- 15 -->
      <g style="fill: #262626" transform="translate(553.142032 707.195703) scale(0.275 -0.275)">
       <use xlink:href="#DejaVuSans-31"/>
       <use xlink:href="#DejaVuSans-35" x="63.623047"/>
      </g>
     </g>
    </g>
    <g id="xtick_5">
     <g id="line2d_5">
      <path d="M 659.32295 676.8 
L 659.32295 172.8 
" clip-path="url(#pdd0a571eea)" style="fill: none; stroke: #ffffff; stroke-linecap: round"/>
     </g>
     <g id="text_5">
      <!-- 20 -->
      <g style="fill: #262626" transform="translate(641.826075 707.195703) scale(0.275 -0.275)">
       <defs>
        <path id="DejaVuSans-32" d="M 1228 531 
L 3431 531 
L 3431 0 
L 469 0 
L 469 531 
Q 828 903 1448 1529 
Q 2069 2156 2228 2338 
Q 2531 2678 2651 2914 
Q 2772 3150 2772 3378 
Q 2772 3750 2511 3984 
Q 2250 4219 1831 4219 
Q 1534 4219 1204 4116 
Q 875 4013 500 3803 
L 500 4441 
Q 881 4594 1212 4672 
Q 1544 4750 1819 4750 
Q 2544 4750 2975 4387 
Q 3406 4025 3406 3419 
Q 3406 3131 3298 2873 
Q 3191 2616 2906 2266 
Q 2828 2175 2409 1742 
Q 1991 1309 1228 531 
z
" transform="scale(0.015625)"/>
       </defs>
       <use xlink:href="#DejaVuSans-32"/>
       <use xlink:href="#DejaVuSans-30" x="63.623047"/>
      </g>
     </g>
    </g>
    <g id="xtick_6">
     <g id="line2d_6">
      <path d="M 748.006993 676.8 
L 748.006993 172.8 
" clip-path="url(#pdd0a571eea)" style="fill: none; stroke: #ffffff; stroke-linecap: round"/>
     </g>
     <g id="text_6">
      <!-- 25 -->
      <g style="fill: #262626" transform="translate(730.510118 707.195703) scale(0.275 -0.275)">
       <use xlink:href="#DejaVuSans-32"/>
       <use xlink:href="#DejaVuSans-35" x="63.623047"/>
      </g>
     </g>
    </g>
    <g id="xtick_7">
     <g id="line2d_7">
      <path d="M 836.691036 676.8 
L 836.691036 172.8 
" clip-path="url(#pdd0a571eea)" style="fill: none; stroke: #ffffff; stroke-linecap: round"/>
     </g>
     <g id="text_7">
      <!-- 30 -->
      <g style="fill: #262626" transform="translate(819.194161 707.195703) scale(0.275 -0.275)">
       <defs>
        <path id="DejaVuSans-33" d="M 2597 2516 
Q 3050 2419 3304 2112 
Q 3559 1806 3559 1356 
Q 3559 666 3084 287 
Q 2609 -91 1734 -91 
Q 1441 -91 1130 -33 
Q 819 25 488 141 
L 488 750 
Q 750 597 1062 519 
Q 1375 441 1716 441 
Q 2309 441 2620 675 
Q 2931 909 2931 1356 
Q 2931 1769 2642 2001 
Q 2353 2234 1838 2234 
L 1294 2234 
L 1294 2753 
L 1863 2753 
Q 2328 2753 2575 2939 
Q 2822 3125 2822 3475 
Q 2822 3834 2567 4026 
Q 2313 4219 1838 4219 
Q 1578 4219 1281 4162 
Q 984 4106 628 3988 
L 628 4550 
Q 988 4650 1302 4700 
Q 1616 4750 1894 4750 
Q 2613 4750 3031 4423 
Q 3450 4097 3450 3541 
Q 3450 3153 3228 2886 
Q 3006 2619 2597 2516 
z
" transform="scale(0.015625)"/>
       </defs>
       <use xlink:href="#DejaVuSans-33"/>
       <use xlink:href="#DejaVuSans-30" x="63.623047"/>
      </g>
     </g>
    </g>
    <g id="xtick_8">
     <g id="line2d_8">
      <path d="M 925.375079 676.8 
L 925.375079 172.8 
" clip-path="url(#pdd0a571eea)" style="fill: none; stroke: #ffffff; stroke-linecap: round"/>
     </g>
     <g id="text_8">
      <!-- 35 -->
      <g style="fill: #262626" transform="translate(907.878204 707.195703) scale(0.275 -0.275)">
       <use xlink:href="#DejaVuSans-33"/>
       <use xlink:href="#DejaVuSans-35" x="63.623047"/>
      </g>
     </g>
    </g>
    <g id="xtick_9">
     <g id="line2d_9">
      <path d="M 1014.059123 676.8 
L 1014.059123 172.8 
" clip-path="url(#pdd0a571eea)" style="fill: none; stroke: #ffffff; stroke-linecap: round"/>
     </g>
     <g id="text_9">
      <!-- 40 -->
      <g style="fill: #262626" transform="translate(996.562248 707.195703) scale(0.275 -0.275)">
       <defs>
        <path id="DejaVuSans-34" d="M 2419 4116 
L 825 1625 
L 2419 1625 
L 2419 4116 
z
M 2253 4666 
L 3047 4666 
L 3047 1625 
L 3713 1625 
L 3713 1100 
L 3047 1100 
L 3047 0 
L 2419 0 
L 2419 1100 
L 313 1100 
L 313 1709 
L 2253 4666 
z
" transform="scale(0.015625)"/>
       </defs>
       <use xlink:href="#DejaVuSans-34"/>
       <use xlink:href="#DejaVuSans-30" x="63.623047"/>
      </g>
     </g>
    </g>
    <g id="text_10">
     <!-- Epoch -->
     <g style="fill: #262626" transform="translate(604.521733 739.710156) scale(0.3 -0.3)">
      <defs>
       <path id="DejaVuSans-45" d="M 628 4666 
L 3578 4666 
L 3578 4134 
L 1259 4134 
L 1259 2753 
L 3481 2753 
L 3481 2222 
L 1259 2222 
L 1259 531 
L 3634 531 
L 3634 0 
L 628 0 
L 628 4666 
z
" transform="scale(0.015625)"/>
       <path id="DejaVuSans-70" d="M 1159 525 
L 1159 -1331 
L 581 -1331 
L 581 3500 
L 1159 3500 
L 1159 2969 
Q 1341 3281 1617 3432 
Q 1894 3584 2278 3584 
Q 2916 3584 3314 3078 
Q 3713 2572 3713 1747 
Q 3713 922 3314 415 
Q 2916 -91 2278 -91 
Q 1894 -91 1617 61 
Q 1341 213 1159 525 
z
M 3116 1747 
Q 3116 2381 2855 2742 
Q 2594 3103 2138 3103 
Q 1681 3103 1420 2742 
Q 1159 2381 1159 1747 
Q 1159 1113 1420 752 
Q 1681 391 2138 391 
Q 2594 391 2855 752 
Q 3116 1113 3116 1747 
z
" transform="scale(0.015625)"/>
       <path id="DejaVuSans-6f" d="M 1959 3097 
Q 1497 3097 1228 2736 
Q 959 2375 959 1747 
Q 959 1119 1226 758 
Q 1494 397 1959 397 
Q 2419 397 2687 759 
Q 2956 1122 2956 1747 
Q 2956 2369 2687 2733 
Q 2419 3097 1959 3097 
z
M 1959 3584 
Q 2709 3584 3137 3096 
Q 3566 2609 3566 1747 
Q 3566 888 3137 398 
Q 2709 -91 1959 -91 
Q 1206 -91 779 398 
Q 353 888 353 1747 
Q 353 2609 779 3096 
Q 1206 3584 1959 3584 
z
" transform="scale(0.015625)"/>
       <path id="DejaVuSans-63" d="M 3122 3366 
L 3122 2828 
Q 2878 2963 2633 3030 
Q 2388 3097 2138 3097 
Q 1578 3097 1268 2742 
Q 959 2388 959 1747 
Q 959 1106 1268 751 
Q 1578 397 2138 397 
Q 2388 397 2633 464 
Q 2878 531 3122 666 
L 3122 134 
Q 2881 22 2623 -34 
Q 2366 -91 2075 -91 
Q 1284 -91 818 406 
Q 353 903 353 1747 
Q 353 2603 823 3093 
Q 1294 3584 2113 3584 
Q 2378 3584 2631 3529 
Q 2884 3475 3122 3366 
z
" transform="scale(0.015625)"/>
       <path id="DejaVuSans-68" d="M 3513 2113 
L 3513 0 
L 2938 0 
L 2938 2094 
Q 2938 2591 2744 2837 
Q 2550 3084 2163 3084 
Q 1697 3084 1428 2787 
Q 1159 2491 1159 1978 
L 1159 0 
L 581 0 
L 581 4863 
L 1159 4863 
L 1159 2956 
Q 1366 3272 1645 3428 
Q 1925 3584 2291 3584 
Q 2894 3584 3203 3211 
Q 3513 2838 3513 2113 
z
" transform="scale(0.015625)"/>
      </defs>
      <use xlink:href="#DejaVuSans-45"/>
      <use xlink:href="#DejaVuSans-70" x="63.183594"/>
      <use xlink:href="#DejaVuSans-6f" x="126.660156"/>
      <use xlink:href="#DejaVuSans-63" x="187.841797"/>
      <use xlink:href="#DejaVuSans-68" x="242.822266"/>
     </g>
    </g>
   </g>
   <g id="matplotlib.axis_2">
    <g id="ytick_1">
     <g id="line2d_10">
      <path d="M 270 624.48059 
L 1030.909091 624.48059 
" clip-path="url(#pdd0a571eea)" style="fill: none; stroke: #ffffff; stroke-linecap: round"/>
     </g>
     <g id="text_11">
      <!-- 0.095 -->
      <g style="fill: #262626" transform="translate(181.772656 634.928441) scale(0.275 -0.275)">
       <defs>
        <path id="DejaVuSans-2e" d="M 684 794 
L 1344 794 
L 1344 0 
L 684 0 
L 684 794 
z
" transform="scale(0.015625)"/>
        <path id="DejaVuSans-39" d="M 703 97 
L 703 672 
Q 941 559 1184 500 
Q 1428 441 1663 441 
Q 2288 441 2617 861 
Q 2947 1281 2994 2138 
Q 2813 1869 2534 1725 
Q 2256 1581 1919 1581 
Q 1219 1581 811 2004 
Q 403 2428 403 3163 
Q 403 3881 828 4315 
Q 1253 4750 1959 4750 
Q 2769 4750 3195 4129 
Q 3622 3509 3622 2328 
Q 3622 1225 3098 567 
Q 2575 -91 1691 -91 
Q 1453 -91 1209 -44 
Q 966 3 703 97 
z
M 1959 2075 
Q 2384 2075 2632 2365 
Q 2881 2656 2881 3163 
Q 2881 3666 2632 3958 
Q 2384 4250 1959 4250 
Q 1534 4250 1286 3958 
Q 1038 3666 1038 3163 
Q 1038 2656 1286 2365 
Q 1534 2075 1959 2075 
z
" transform="scale(0.015625)"/>
       </defs>
       <use xlink:href="#DejaVuSans-30"/>
       <use xlink:href="#DejaVuSans-2e" x="63.623047"/>
       <use xlink:href="#DejaVuSans-30" x="95.410156"/>
       <use xlink:href="#DejaVuSans-39" x="159.033203"/>
       <use xlink:href="#DejaVuSans-35" x="222.65625"/>
      </g>
     </g>
    </g>
    <g id="ytick_2">
     <g id="line2d_11">
      <path d="M 270 547.085012 
L 1030.909091 547.085012 
" clip-path="url(#pdd0a571eea)" style="fill: none; stroke: #ffffff; stroke-linecap: round"/>
     </g>
     <g id="text_12">
      <!-- 0.100 -->
      <g style="fill: #262626" transform="translate(181.772656 557.532864) scale(0.275 -0.275)">
       <use xlink:href="#DejaVuSans-30"/>
       <use xlink:href="#DejaVuSans-2e" x="63.623047"/>
       <use xlink:href="#DejaVuSans-31" x="95.410156"/>
       <use xlink:href="#DejaVuSans-30" x="159.033203"/>
       <use xlink:href="#DejaVuSans-30" x="222.65625"/>
      </g>
     </g>
    </g>
    <g id="ytick_3">
     <g id="line2d_12">
      <path d="M 270 469.689435 
L 1030.909091 469.689435 
" clip-path="url(#pdd0a571eea)" style="fill: none; stroke: #ffffff; stroke-linecap: round"/>
     </g>
     <g id="text_13">
      <!-- 0.105 -->
      <g style="fill: #262626" transform="translate(181.772656 480.137286) scale(0.275 -0.275)">
       <use xlink:href="#DejaVuSans-30"/>
       <use xlink:href="#DejaVuSans-2e" x="63.623047"/>
       <use xlink:href="#DejaVuSans-31" x="95.410156"/>
       <use xlink:href="#DejaVuSans-30" x="159.033203"/>
       <use xlink:href="#DejaVuSans-35" x="222.65625"/>
      </g>
     </g>
    </g>
    <g id="ytick_4">
     <g id="line2d_13">
      <path d="M 270 392.293857 
L 1030.909091 392.293857 
" clip-path="url(#pdd0a571eea)" style="fill: none; stroke: #ffffff; stroke-linecap: round"/>
     </g>
     <g id="text_14">
      <!-- 0.110 -->
      <g style="fill: #262626" transform="translate(181.772656 402.741709) scale(0.275 -0.275)">
       <use xlink:href="#DejaVuSans-30"/>
       <use xlink:href="#DejaVuSans-2e" x="63.623047"/>
       <use xlink:href="#DejaVuSans-31" x="95.410156"/>
       <use xlink:href="#DejaVuSans-31" x="159.033203"/>
       <use xlink:href="#DejaVuSans-30" x="222.65625"/>
      </g>
     </g>
    </g>
    <g id="ytick_5">
     <g id="line2d_14">
      <path d="M 270 314.89828 
L 1030.909091 314.89828 
" clip-path="url(#pdd0a571eea)" style="fill: none; stroke: #ffffff; stroke-linecap: round"/>
     </g>
     <g id="text_15">
      <!-- 0.115 -->
      <g style="fill: #262626" transform="translate(181.772656 325.346132) scale(0.275 -0.275)">
       <use xlink:href="#DejaVuSans-30"/>
       <use xlink:href="#DejaVuSans-2e" x="63.623047"/>
       <use xlink:href="#DejaVuSans-31" x="95.410156"/>
       <use xlink:href="#DejaVuSans-31" x="159.033203"/>
       <use xlink:href="#DejaVuSans-35" x="222.65625"/>
      </g>
     </g>
    </g>
    <g id="ytick_6">
     <g id="line2d_15">
      <path d="M 270 237.502703 
L 1030.909091 237.502703 
" clip-path="url(#pdd0a571eea)" style="fill: none; stroke: #ffffff; stroke-linecap: round"/>
     </g>
     <g id="text_16">
      <!-- 0.120 -->
      <g style="fill: #262626" transform="translate(181.772656 247.950554) scale(0.275 -0.275)">
       <use xlink:href="#DejaVuSans-30"/>
       <use xlink:href="#DejaVuSans-2e" x="63.623047"/>
       <use xlink:href="#DejaVuSans-31" x="95.410156"/>
       <use xlink:href="#DejaVuSans-32" x="159.033203"/>
       <use xlink:href="#DejaVuSans-30" x="222.65625"/>
      </g>
     </g>
    </g>
    <g id="text_17">
     <!-- testing accuracy -->
     <g style="fill: #262626" transform="translate(171.533594 549.246094) rotate(-90) scale(0.3 -0.3)">
      <defs>
       <path id="DejaVuSans-74" d="M 1172 4494 
L 1172 3500 
L 2356 3500 
L 2356 3053 
L 1172 3053 
L 1172 1153 
Q 1172 725 1289 603 
Q 1406 481 1766 481 
L 2356 481 
L 2356 0 
L 1766 0 
Q 1100 0 847 248 
Q 594 497 594 1153 
L 594 3053 
L 172 3053 
L 172 3500 
L 594 3500 
L 594 4494 
L 1172 4494 
z
" transform="scale(0.015625)"/>
       <path id="DejaVuSans-65" d="M 3597 1894 
L 3597 1613 
L 953 1613 
Q 991 1019 1311 708 
Q 1631 397 2203 397 
Q 2534 397 2845 478 
Q 3156 559 3463 722 
L 3463 178 
Q 3153 47 2828 -22 
Q 2503 -91 2169 -91 
Q 1331 -91 842 396 
Q 353 884 353 1716 
Q 353 2575 817 3079 
Q 1281 3584 2069 3584 
Q 2775 3584 3186 3129 
Q 3597 2675 3597 1894 
z
M 3022 2063 
Q 3016 2534 2758 2815 
Q 2500 3097 2075 3097 
Q 1594 3097 1305 2825 
Q 1016 2553 972 2059 
L 3022 2063 
z
" transform="scale(0.015625)"/>
       <path id="DejaVuSans-73" d="M 2834 3397 
L 2834 2853 
Q 2591 2978 2328 3040 
Q 2066 3103 1784 3103 
Q 1356 3103 1142 2972 
Q 928 2841 928 2578 
Q 928 2378 1081 2264 
Q 1234 2150 1697 2047 
L 1894 2003 
Q 2506 1872 2764 1633 
Q 3022 1394 3022 966 
Q 3022 478 2636 193 
Q 2250 -91 1575 -91 
Q 1294 -91 989 -36 
Q 684 19 347 128 
L 347 722 
Q 666 556 975 473 
Q 1284 391 1588 391 
Q 1994 391 2212 530 
Q 2431 669 2431 922 
Q 2431 1156 2273 1281 
Q 2116 1406 1581 1522 
L 1381 1569 
Q 847 1681 609 1914 
Q 372 2147 372 2553 
Q 372 3047 722 3315 
Q 1072 3584 1716 3584 
Q 2034 3584 2315 3537 
Q 2597 3491 2834 3397 
z
" transform="scale(0.015625)"/>
       <path id="DejaVuSans-69" d="M 603 3500 
L 1178 3500 
L 1178 0 
L 603 0 
L 603 3500 
z
M 603 4863 
L 1178 4863 
L 1178 4134 
L 603 4134 
L 603 4863 
z
" transform="scale(0.015625)"/>
       <path id="DejaVuSans-6e" d="M 3513 2113 
L 3513 0 
L 2938 0 
L 2938 2094 
Q 2938 2591 2744 2837 
Q 2550 3084 2163 3084 
Q 1697 3084 1428 2787 
Q 1159 2491 1159 1978 
L 1159 0 
L 581 0 
L 581 3500 
L 1159 3500 
L 1159 2956 
Q 1366 3272 1645 3428 
Q 1925 3584 2291 3584 
Q 2894 3584 3203 3211 
Q 3513 2838 3513 2113 
z
" transform="scale(0.015625)"/>
       <path id="DejaVuSans-67" d="M 2906 1791 
Q 2906 2416 2648 2759 
Q 2391 3103 1925 3103 
Q 1463 3103 1205 2759 
Q 947 2416 947 1791 
Q 947 1169 1205 825 
Q 1463 481 1925 481 
Q 2391 481 2648 825 
Q 2906 1169 2906 1791 
z
M 3481 434 
Q 3481 -459 3084 -895 
Q 2688 -1331 1869 -1331 
Q 1566 -1331 1297 -1286 
Q 1028 -1241 775 -1147 
L 775 -588 
Q 1028 -725 1275 -790 
Q 1522 -856 1778 -856 
Q 2344 -856 2625 -561 
Q 2906 -266 2906 331 
L 2906 616 
Q 2728 306 2450 153 
Q 2172 0 1784 0 
Q 1141 0 747 490 
Q 353 981 353 1791 
Q 353 2603 747 3093 
Q 1141 3584 1784 3584 
Q 2172 3584 2450 3431 
Q 2728 3278 2906 2969 
L 2906 3500 
L 3481 3500 
L 3481 434 
z
" transform="scale(0.015625)"/>
       <path id="DejaVuSans-20" transform="scale(0.015625)"/>
       <path id="DejaVuSans-61" d="M 2194 1759 
Q 1497 1759 1228 1600 
Q 959 1441 959 1056 
Q 959 750 1161 570 
Q 1363 391 1709 391 
Q 2188 391 2477 730 
Q 2766 1069 2766 1631 
L 2766 1759 
L 2194 1759 
z
M 3341 1997 
L 3341 0 
L 2766 0 
L 2766 531 
Q 2569 213 2275 61 
Q 1981 -91 1556 -91 
Q 1019 -91 701 211 
Q 384 513 384 1019 
Q 384 1609 779 1909 
Q 1175 2209 1959 2209 
L 2766 2209 
L 2766 2266 
Q 2766 2663 2505 2880 
Q 2244 3097 1772 3097 
Q 1472 3097 1187 3025 
Q 903 2953 641 2809 
L 641 3341 
Q 956 3463 1253 3523 
Q 1550 3584 1831 3584 
Q 2591 3584 2966 3190 
Q 3341 2797 3341 1997 
z
" transform="scale(0.015625)"/>
       <path id="DejaVuSans-75" d="M 544 1381 
L 544 3500 
L 1119 3500 
L 1119 1403 
Q 1119 906 1312 657 
Q 1506 409 1894 409 
Q 2359 409 2629 706 
Q 2900 1003 2900 1516 
L 2900 3500 
L 3475 3500 
L 3475 0 
L 2900 0 
L 2900 538 
Q 2691 219 2414 64 
Q 2138 -91 1772 -91 
Q 1169 -91 856 284 
Q 544 659 544 1381 
z
M 1991 3584 
L 1991 3584 
z
" transform="scale(0.015625)"/>
       <path id="DejaVuSans-72" d="M 2631 2963 
Q 2534 3019 2420 3045 
Q 2306 3072 2169 3072 
Q 1681 3072 1420 2755 
Q 1159 2438 1159 1844 
L 1159 0 
L 581 0 
L 581 3500 
L 1159 3500 
L 1159 2956 
Q 1341 3275 1631 3429 
Q 1922 3584 2338 3584 
Q 2397 3584 2469 3576 
Q 2541 3569 2628 3553 
L 2631 2963 
z
" transform="scale(0.015625)"/>
       <path id="DejaVuSans-79" d="M 2059 -325 
Q 1816 -950 1584 -1140 
Q 1353 -1331 966 -1331 
L 506 -1331 
L 506 -850 
L 844 -850 
Q 1081 -850 1212 -737 
Q 1344 -625 1503 -206 
L 1606 56 
L 191 3500 
L 800 3500 
L 1894 763 
L 2988 3500 
L 3597 3500 
L 2059 -325 
z
" transform="scale(0.015625)"/>
      </defs>
      <use xlink:href="#DejaVuSans-74"/>
      <use xlink:href="#DejaVuSans-65" x="39.208984"/>
      <use xlink:href="#DejaVuSans-73" x="100.732422"/>
      <use xlink:href="#DejaVuSans-74" x="152.832031"/>
      <use xlink:href="#DejaVuSans-69" x="192.041016"/>
      <use xlink:href="#DejaVuSans-6e" x="219.824219"/>
      <use xlink:href="#DejaVuSans-67" x="283.203125"/>
      <use xlink:href="#DejaVuSans-20" x="346.679688"/>
      <use xlink:href="#DejaVuSans-61" x="378.466797"/>
      <use xlink:href="#DejaVuSans-63" x="439.746094"/>
      <use xlink:href="#DejaVuSans-63" x="494.726562"/>
      <use xlink:href="#DejaVuSans-75" x="549.707031"/>
      <use xlink:href="#DejaVuSans-72" x="613.085938"/>
      <use xlink:href="#DejaVuSans-61" x="654.199219"/>
      <use xlink:href="#DejaVuSans-63" x="715.478516"/>
      <use xlink:href="#DejaVuSans-79" x="770.458984"/>
     </g>
    </g>
   </g>
   <g id="PolyCollection_1"/>
   <g id="PolyCollection_2"/>
   <g id="line2d_16">
    <path d="M 304.586777 547.085012 
L 322.323586 547.085012 
L 340.060394 547.085012 
L 357.797203 547.085012 
L 375.534011 547.085012 
L 393.27082 547.085012 
L 411.007629 547.085012 
L 428.744437 547.085012 
L 446.481246 547.085012 
L 464.218055 547.085012 
L 481.954863 548.632924 
L 499.691672 547.085012 
L 517.428481 547.085012 
L 535.165289 548.632924 
L 552.902098 547.085012 
L 570.638907 547.085012 
L 588.375715 547.085012 
L 606.112524 547.085012 
L 623.849332 545.537101 
L 641.586141 545.537101 
L 659.32295 547.085012 
L 677.059758 547.085012 
L 694.796567 547.085012 
L 712.533376 547.085012 
L 730.270184 547.085012 
L 748.006993 547.085012 
L 765.743802 547.085012 
L 783.48061 545.537101 
L 801.217419 547.085012 
L 818.954228 547.085012 
L 836.691036 547.085012 
L 854.427845 548.632924 
L 872.164654 548.632924 
L 889.901462 548.632924 
L 907.638271 547.085012 
L 925.375079 547.085012 
L 943.111888 547.085012 
L 960.848697 548.632924 
L 978.585505 548.632924 
L 996.322314 548.632924 
" clip-path="url(#pdd0a571eea)" style="fill: none; stroke: #4c72b0; stroke-width: 1.5; stroke-linecap: round"/>
   </g>
   <g id="line2d_17">
    <path d="M 304.586777 319.542015 
L 322.323586 533.153808 
L 340.060394 520.770516 
L 357.797203 522.318428 
L 375.534011 502.195577 
L 393.27082 198.804914 
L 411.007629 496.003931 
L 428.744437 602.809828 
L 446.481246 537.797543 
L 464.218055 195.709091 
L 481.954863 559.468305 
L 499.691672 523.866339 
L 517.428481 539.345455 
L 535.165289 621.384767 
L 552.902098 547.085012 
L 570.638907 540.893366 
L 588.375715 581.139066 
L 606.112524 556.372482 
L 623.849332 522.318428 
L 641.586141 626.028501 
L 659.32295 531.605897 
L 677.059758 491.360197 
L 694.796567 540.893366 
L 712.533376 545.537101 
L 730.270184 653.890909 
L 748.006993 522.318428 
L 765.743802 547.085012 
L 783.48061 562.564128 
L 801.217419 491.360197 
L 818.954228 540.893366 
L 836.691036 545.537101 
L 854.427845 471.237346 
L 872.164654 574.94742 
L 889.901462 522.318428 
L 907.638271 545.537101 
L 925.375079 545.537101 
L 943.111888 547.085012 
L 960.848697 259.173464 
L 978.585505 547.085012 
L 996.322314 562.564128 
" clip-path="url(#pdd0a571eea)" style="fill: none; stroke: #dd8452; stroke-width: 1.5; stroke-linecap: round"/>
   </g>
   <g id="patch_3">
    <path d="M 270 676.8 
L 270 172.8 
" style="fill: none; stroke: #ffffff; stroke-width: 1.25; stroke-linejoin: miter; stroke-linecap: square"/>
   </g>
   <g id="patch_4">
    <path d="M 1030.909091 676.8 
L 1030.909091 172.8 
" style="fill: none; stroke: #ffffff; stroke-width: 1.25; stroke-linejoin: miter; stroke-linecap: square"/>
   </g>
   <g id="patch_5">
    <path d="M 270 676.8 
L 1030.909091 676.8 
" style="fill: none; stroke: #ffffff; stroke-width: 1.25; stroke-linejoin: miter; stroke-linecap: square"/>
   </g>
   <g id="patch_6">
    <path d="M 270 172.8 
L 1030.909091 172.8 
" style="fill: none; stroke: #ffffff; stroke-width: 1.25; stroke-linejoin: miter; stroke-linecap: square"/>
   </g>
   <g id="text_18">
    <!-- Testing accuracy of L1 Loss -->
    <g style="fill: #262626" transform="translate(445.71392 166.8) scale(0.3 -0.3)">
     <defs>
      <path id="DejaVuSans-54" d="M -19 4666 
L 3928 4666 
L 3928 4134 
L 2272 4134 
L 2272 0 
L 1638 0 
L 1638 4134 
L -19 4134 
L -19 4666 
z
" transform="scale(0.015625)"/>
      <path id="DejaVuSans-66" d="M 2375 4863 
L 2375 4384 
L 1825 4384 
Q 1516 4384 1395 4259 
Q 1275 4134 1275 3809 
L 1275 3500 
L 2222 3500 
L 2222 3053 
L 1275 3053 
L 1275 0 
L 697 0 
L 697 3053 
L 147 3053 
L 147 3500 
L 697 3500 
L 697 3744 
Q 697 4328 969 4595 
Q 1241 4863 1831 4863 
L 2375 4863 
z
" transform="scale(0.015625)"/>
      <path id="DejaVuSans-4c" d="M 628 4666 
L 1259 4666 
L 1259 531 
L 3531 531 
L 3531 0 
L 628 0 
L 628 4666 
z
" transform="scale(0.015625)"/>
     </defs>
     <use xlink:href="#DejaVuSans-54"/>
     <use xlink:href="#DejaVuSans-65" x="44.083984"/>
     <use xlink:href="#DejaVuSans-73" x="105.607422"/>
     <use xlink:href="#DejaVuSans-74" x="157.707031"/>
     <use xlink:href="#DejaVuSans-69" x="196.916016"/>
     <use xlink:href="#DejaVuSans-6e" x="224.699219"/>
     <use xlink:href="#DejaVuSans-67" x="288.078125"/>
     <use xlink:href="#DejaVuSans-20" x="351.554688"/>
     <use xlink:href="#DejaVuSans-61" x="383.341797"/>
     <use xlink:href="#DejaVuSans-63" x="444.621094"/>
     <use xlink:href="#DejaVuSans-63" x="499.601562"/>
     <use xlink:href="#DejaVuSans-75" x="554.582031"/>
     <use xlink:href="#DejaVuSans-72" x="617.960938"/>
     <use xlink:href="#DejaVuSans-61" x="659.074219"/>
     <use xlink:href="#DejaVuSans-63" x="720.353516"/>
     <use xlink:href="#DejaVuSans-79" x="775.333984"/>
     <use xlink:href="#DejaVuSans-20" x="834.513672"/>
     <use xlink:href="#DejaVuSans-6f" x="866.300781"/>
     <use xlink:href="#DejaVuSans-66" x="927.482422"/>
     <use xlink:href="#DejaVuSans-20" x="962.6875"/>
     <use xlink:href="#DejaVuSans-4c" x="994.474609"/>
     <use xlink:href="#DejaVuSans-31" x="1050.1875"/>
     <use xlink:href="#DejaVuSans-20" x="1113.810547"/>
     <use xlink:href="#DejaVuSans-4c" x="1145.597656"/>
     <use xlink:href="#DejaVuSans-6f" x="1199.560547"/>
     <use xlink:href="#DejaVuSans-73" x="1260.742188"/>
     <use xlink:href="#DejaVuSans-73" x="1312.841797"/>
    </g>
   </g>
   <g id="legend_1">
    <g id="patch_7">
     <path d="M 536.318803 277.059375 
L 764.590288 277.059375 
Q 770.090288 277.059375 770.090288 271.559375 
L 770.090288 192.05 
Q 770.090288 186.55 764.590288 186.55 
L 536.318803 186.55 
Q 530.818803 186.55 530.818803 192.05 
L 530.818803 271.559375 
Q 530.818803 277.059375 536.318803 277.059375 
z
" style="fill: #eaeaf2; opacity: 0.8; stroke: #cccccc; stroke-linejoin: miter"/>
    </g>
    <g id="line2d_18">
     <path d="M 541.818803 208.820703 
L 569.318803 208.820703 
L 596.818803 208.820703 
" style="fill: none; stroke: #4c72b0; stroke-width: 1.5; stroke-linecap: round"/>
    </g>
    <g id="text_19">
     <!-- acc_SGD -->
     <g style="fill: #262626" transform="translate(618.818803 218.445703) scale(0.275 -0.275)">
      <defs>
       <path id="DejaVuSans-5f" d="M 3263 -1063 
L 3263 -1509 
L -63 -1509 
L -63 -1063 
L 3263 -1063 
z
" transform="scale(0.015625)"/>
       <path id="DejaVuSans-53" d="M 3425 4513 
L 3425 3897 
Q 3066 4069 2747 4153 
Q 2428 4238 2131 4238 
Q 1616 4238 1336 4038 
Q 1056 3838 1056 3469 
Q 1056 3159 1242 3001 
Q 1428 2844 1947 2747 
L 2328 2669 
Q 3034 2534 3370 2195 
Q 3706 1856 3706 1288 
Q 3706 609 3251 259 
Q 2797 -91 1919 -91 
Q 1588 -91 1214 -16 
Q 841 59 441 206 
L 441 856 
Q 825 641 1194 531 
Q 1563 422 1919 422 
Q 2459 422 2753 634 
Q 3047 847 3047 1241 
Q 3047 1584 2836 1778 
Q 2625 1972 2144 2069 
L 1759 2144 
Q 1053 2284 737 2584 
Q 422 2884 422 3419 
Q 422 4038 858 4394 
Q 1294 4750 2059 4750 
Q 2388 4750 2728 4690 
Q 3069 4631 3425 4513 
z
" transform="scale(0.015625)"/>
       <path id="DejaVuSans-47" d="M 3809 666 
L 3809 1919 
L 2778 1919 
L 2778 2438 
L 4434 2438 
L 4434 434 
Q 4069 175 3628 42 
Q 3188 -91 2688 -91 
Q 1594 -91 976 548 
Q 359 1188 359 2328 
Q 359 3472 976 4111 
Q 1594 4750 2688 4750 
Q 3144 4750 3555 4637 
Q 3966 4525 4313 4306 
L 4313 3634 
Q 3963 3931 3569 4081 
Q 3175 4231 2741 4231 
Q 1884 4231 1454 3753 
Q 1025 3275 1025 2328 
Q 1025 1384 1454 906 
Q 1884 428 2741 428 
Q 3075 428 3337 486 
Q 3600 544 3809 666 
z
" transform="scale(0.015625)"/>
       <path id="DejaVuSans-44" d="M 1259 4147 
L 1259 519 
L 2022 519 
Q 2988 519 3436 956 
Q 3884 1394 3884 2338 
Q 3884 3275 3436 3711 
Q 2988 4147 2022 4147 
L 1259 4147 
z
M 628 4666 
L 1925 4666 
Q 3281 4666 3915 4102 
Q 4550 3538 4550 2338 
Q 4550 1131 3912 565 
Q 3275 0 1925 0 
L 628 0 
L 628 4666 
z
" transform="scale(0.015625)"/>
      </defs>
      <use xlink:href="#DejaVuSans-61"/>
      <use xlink:href="#DejaVuSans-63" x="61.279297"/>
      <use xlink:href="#DejaVuSans-63" x="116.259766"/>
      <use xlink:href="#DejaVuSans-5f" x="171.240234"/>
      <use xlink:href="#DejaVuSans-53" x="221.240234"/>
      <use xlink:href="#DejaVuSans-47" x="284.716797"/>
      <use xlink:href="#DejaVuSans-44" x="362.207031"/>
     </g>
    </g>
    <g id="line2d_19">
     <path d="M 541.818803 249.950391 
L 569.318803 249.950391 
L 596.818803 249.950391 
" style="fill: none; stroke: #dd8452; stroke-width: 1.5; stroke-linecap: round"/>
    </g>
    <g id="text_20">
     <!-- acc_Adam -->
     <g style="fill: #262626" transform="translate(618.818803 259.575391) scale(0.275 -0.275)">
      <defs>
       <path id="DejaVuSans-41" d="M 2188 4044 
L 1331 1722 
L 3047 1722 
L 2188 4044 
z
M 1831 4666 
L 2547 4666 
L 4325 0 
L 3669 0 
L 3244 1197 
L 1141 1197 
L 716 0 
L 50 0 
L 1831 4666 
z
" transform="scale(0.015625)"/>
       <path id="DejaVuSans-64" d="M 2906 2969 
L 2906 4863 
L 3481 4863 
L 3481 0 
L 2906 0 
L 2906 525 
Q 2725 213 2448 61 
Q 2172 -91 1784 -91 
Q 1150 -91 751 415 
Q 353 922 353 1747 
Q 353 2572 751 3078 
Q 1150 3584 1784 3584 
Q 2172 3584 2448 3432 
Q 2725 3281 2906 2969 
z
M 947 1747 
Q 947 1113 1208 752 
Q 1469 391 1925 391 
Q 2381 391 2643 752 
Q 2906 1113 2906 1747 
Q 2906 2381 2643 2742 
Q 2381 3103 1925 3103 
Q 1469 3103 1208 2742 
Q 947 2381 947 1747 
z
" transform="scale(0.015625)"/>
       <path id="DejaVuSans-6d" d="M 3328 2828 
Q 3544 3216 3844 3400 
Q 4144 3584 4550 3584 
Q 5097 3584 5394 3201 
Q 5691 2819 5691 2113 
L 5691 0 
L 5113 0 
L 5113 2094 
Q 5113 2597 4934 2840 
Q 4756 3084 4391 3084 
Q 3944 3084 3684 2787 
Q 3425 2491 3425 1978 
L 3425 0 
L 2847 0 
L 2847 2094 
Q 2847 2600 2669 2842 
Q 2491 3084 2119 3084 
Q 1678 3084 1418 2786 
Q 1159 2488 1159 1978 
L 1159 0 
L 581 0 
L 581 3500 
L 1159 3500 
L 1159 2956 
Q 1356 3278 1631 3431 
Q 1906 3584 2284 3584 
Q 2666 3584 2933 3390 
Q 3200 3197 3328 2828 
z
" transform="scale(0.015625)"/>
      </defs>
      <use xlink:href="#DejaVuSans-61"/>
      <use xlink:href="#DejaVuSans-63" x="61.279297"/>
      <use xlink:href="#DejaVuSans-63" x="116.259766"/>
      <use xlink:href="#DejaVuSans-5f" x="171.240234"/>
      <use xlink:href="#DejaVuSans-41" x="221.240234"/>
      <use xlink:href="#DejaVuSans-64" x="287.898438"/>
      <use xlink:href="#DejaVuSans-61" x="351.375"/>
      <use xlink:href="#DejaVuSans-6d" x="412.654297"/>
     </g>
    </g>
   </g>
  </g>
  <g id="axes_2">
   <g id="patch_8">
    <path d="M 1183.090909 676.8 
L 1944 676.8 
L 1944 172.8 
L 1183.090909 172.8 
z
" style="fill: #eaeaf2"/>
   </g>
   <g id="matplotlib.axis_3">
    <g id="xtick_10">
     <g id="line2d_20">
      <path d="M 1217.677686 676.8 
L 1217.677686 172.8 
" clip-path="url(#peaf389367d)" style="fill: none; stroke: #ffffff; stroke-linecap: round"/>
     </g>
     <g id="text_21">
      <!-- 0 -->
      <g style="fill: #262626" transform="translate(1208.929248 707.195703) scale(0.275 -0.275)">
       <use xlink:href="#DejaVuSans-30"/>
      </g>
     </g>
    </g>
    <g id="xtick_11">
     <g id="line2d_21">
      <path d="M 1306.361729 676.8 
L 1306.361729 172.8 
" clip-path="url(#peaf389367d)" style="fill: none; stroke: #ffffff; stroke-linecap: round"/>
     </g>
     <g id="text_22">
      <!-- 5 -->
      <g style="fill: #262626" transform="translate(1297.613292 707.195703) scale(0.275 -0.275)">
       <use xlink:href="#DejaVuSans-35"/>
      </g>
     </g>
    </g>
    <g id="xtick_12">
     <g id="line2d_22">
      <path d="M 1395.045772 676.8 
L 1395.045772 172.8 
" clip-path="url(#peaf389367d)" style="fill: none; stroke: #ffffff; stroke-linecap: round"/>
     </g>
     <g id="text_23">
      <!-- 10 -->
      <g style="fill: #262626" transform="translate(1377.548897 707.195703) scale(0.275 -0.275)">
       <use xlink:href="#DejaVuSans-31"/>
       <use xlink:href="#DejaVuSans-30" x="63.623047"/>
      </g>
     </g>
    </g>
    <g id="xtick_13">
     <g id="line2d_23">
      <path d="M 1483.729816 676.8 
L 1483.729816 172.8 
" clip-path="url(#peaf389367d)" style="fill: none; stroke: #ffffff; stroke-linecap: round"/>
     </g>
     <g id="text_24">
      <!-- 15 -->
      <g style="fill: #262626" transform="translate(1466.232941 707.195703) scale(0.275 -0.275)">
       <use xlink:href="#DejaVuSans-31"/>
       <use xlink:href="#DejaVuSans-35" x="63.623047"/>
      </g>
     </g>
    </g>
    <g id="xtick_14">
     <g id="line2d_24">
      <path d="M 1572.413859 676.8 
L 1572.413859 172.8 
" clip-path="url(#peaf389367d)" style="fill: none; stroke: #ffffff; stroke-linecap: round"/>
     </g>
     <g id="text_25">
      <!-- 20 -->
      <g style="fill: #262626" transform="translate(1554.916984 707.195703) scale(0.275 -0.275)">
       <use xlink:href="#DejaVuSans-32"/>
       <use xlink:href="#DejaVuSans-30" x="63.623047"/>
      </g>
     </g>
    </g>
    <g id="xtick_15">
     <g id="line2d_25">
      <path d="M 1661.097902 676.8 
L 1661.097902 172.8 
" clip-path="url(#peaf389367d)" style="fill: none; stroke: #ffffff; stroke-linecap: round"/>
     </g>
     <g id="text_26">
      <!-- 25 -->
      <g style="fill: #262626" transform="translate(1643.601027 707.195703) scale(0.275 -0.275)">
       <use xlink:href="#DejaVuSans-32"/>
       <use xlink:href="#DejaVuSans-35" x="63.623047"/>
      </g>
     </g>
    </g>
    <g id="xtick_16">
     <g id="line2d_26">
      <path d="M 1749.781945 676.8 
L 1749.781945 172.8 
" clip-path="url(#peaf389367d)" style="fill: none; stroke: #ffffff; stroke-linecap: round"/>
     </g>
     <g id="text_27">
      <!-- 30 -->
      <g style="fill: #262626" transform="translate(1732.28507 707.195703) scale(0.275 -0.275)">
       <use xlink:href="#DejaVuSans-33"/>
       <use xlink:href="#DejaVuSans-30" x="63.623047"/>
      </g>
     </g>
    </g>
    <g id="xtick_17">
     <g id="line2d_27">
      <path d="M 1838.465989 676.8 
L 1838.465989 172.8 
" clip-path="url(#peaf389367d)" style="fill: none; stroke: #ffffff; stroke-linecap: round"/>
     </g>
     <g id="text_28">
      <!-- 35 -->
      <g style="fill: #262626" transform="translate(1820.969114 707.195703) scale(0.275 -0.275)">
       <use xlink:href="#DejaVuSans-33"/>
       <use xlink:href="#DejaVuSans-35" x="63.623047"/>
      </g>
     </g>
    </g>
    <g id="xtick_18">
     <g id="line2d_28">
      <path d="M 1927.150032 676.8 
L 1927.150032 172.8 
" clip-path="url(#peaf389367d)" style="fill: none; stroke: #ffffff; stroke-linecap: round"/>
     </g>
     <g id="text_29">
      <!-- 40 -->
      <g style="fill: #262626" transform="translate(1909.653157 707.195703) scale(0.275 -0.275)">
       <use xlink:href="#DejaVuSans-34"/>
       <use xlink:href="#DejaVuSans-30" x="63.623047"/>
      </g>
     </g>
    </g>
    <g id="text_30">
     <!-- Epoch -->
     <g style="fill: #262626" transform="translate(1517.612642 739.710156) scale(0.3 -0.3)">
      <use xlink:href="#DejaVuSans-45"/>
      <use xlink:href="#DejaVuSans-70" x="63.183594"/>
      <use xlink:href="#DejaVuSans-6f" x="126.660156"/>
      <use xlink:href="#DejaVuSans-63" x="187.841797"/>
      <use xlink:href="#DejaVuSans-68" x="242.822266"/>
     </g>
    </g>
   </g>
   <g id="matplotlib.axis_4">
    <g id="ytick_7">
     <g id="line2d_29">
      <path d="M 1183.090909 666.029452 
L 1944 666.029452 
" clip-path="url(#peaf389367d)" style="fill: none; stroke: #ffffff; stroke-linecap: round"/>
     </g>
     <g id="text_31">
      <!-- 0.35 -->
      <g style="fill: #262626" transform="translate(1112.36044 676.477303) scale(0.275 -0.275)">
       <use xlink:href="#DejaVuSans-30"/>
       <use xlink:href="#DejaVuSans-2e" x="63.623047"/>
       <use xlink:href="#DejaVuSans-33" x="95.410156"/>
       <use xlink:href="#DejaVuSans-35" x="159.033203"/>
      </g>
     </g>
    </g>
    <g id="ytick_8">
     <g id="line2d_30">
      <path d="M 1183.090909 569.691811 
L 1944 569.691811 
" clip-path="url(#peaf389367d)" style="fill: none; stroke: #ffffff; stroke-linecap: round"/>
     </g>
     <g id="text_32">
      <!-- 0.40 -->
      <g style="fill: #262626" transform="translate(1112.36044 580.139663) scale(0.275 -0.275)">
       <use xlink:href="#DejaVuSans-30"/>
       <use xlink:href="#DejaVuSans-2e" x="63.623047"/>
       <use xlink:href="#DejaVuSans-34" x="95.410156"/>
       <use xlink:href="#DejaVuSans-30" x="159.033203"/>
      </g>
     </g>
    </g>
    <g id="ytick_9">
     <g id="line2d_31">
      <path d="M 1183.090909 473.354171 
L 1944 473.354171 
" clip-path="url(#peaf389367d)" style="fill: none; stroke: #ffffff; stroke-linecap: round"/>
     </g>
     <g id="text_33">
      <!-- 0.45 -->
      <g style="fill: #262626" transform="translate(1112.36044 483.802022) scale(0.275 -0.275)">
       <use xlink:href="#DejaVuSans-30"/>
       <use xlink:href="#DejaVuSans-2e" x="63.623047"/>
       <use xlink:href="#DejaVuSans-34" x="95.410156"/>
       <use xlink:href="#DejaVuSans-35" x="159.033203"/>
      </g>
     </g>
    </g>
    <g id="ytick_10">
     <g id="line2d_32">
      <path d="M 1183.090909 377.01653 
L 1944 377.01653 
" clip-path="url(#peaf389367d)" style="fill: none; stroke: #ffffff; stroke-linecap: round"/>
     </g>
     <g id="text_34">
      <!-- 0.50 -->
      <g style="fill: #262626" transform="translate(1112.36044 387.464382) scale(0.275 -0.275)">
       <use xlink:href="#DejaVuSans-30"/>
       <use xlink:href="#DejaVuSans-2e" x="63.623047"/>
       <use xlink:href="#DejaVuSans-35" x="95.410156"/>
       <use xlink:href="#DejaVuSans-30" x="159.033203"/>
      </g>
     </g>
    </g>
    <g id="ytick_11">
     <g id="line2d_33">
      <path d="M 1183.090909 280.67889 
L 1944 280.67889 
" clip-path="url(#peaf389367d)" style="fill: none; stroke: #ffffff; stroke-linecap: round"/>
     </g>
     <g id="text_35">
      <!-- 0.55 -->
      <g style="fill: #262626" transform="translate(1112.36044 291.126741) scale(0.275 -0.275)">
       <use xlink:href="#DejaVuSans-30"/>
       <use xlink:href="#DejaVuSans-2e" x="63.623047"/>
       <use xlink:href="#DejaVuSans-35" x="95.410156"/>
       <use xlink:href="#DejaVuSans-35" x="159.033203"/>
      </g>
     </g>
    </g>
    <g id="ytick_12">
     <g id="line2d_34">
      <path d="M 1183.090909 184.341249 
L 1944 184.341249 
" clip-path="url(#peaf389367d)" style="fill: none; stroke: #ffffff; stroke-linecap: round"/>
     </g>
     <g id="text_36">
      <!-- 0.60 -->
      <g style="fill: #262626" transform="translate(1112.36044 194.789101) scale(0.275 -0.275)">
       <defs>
        <path id="DejaVuSans-36" d="M 2113 2584 
Q 1688 2584 1439 2293 
Q 1191 2003 1191 1497 
Q 1191 994 1439 701 
Q 1688 409 2113 409 
Q 2538 409 2786 701 
Q 3034 994 3034 1497 
Q 3034 2003 2786 2293 
Q 2538 2584 2113 2584 
z
M 3366 4563 
L 3366 3988 
Q 3128 4100 2886 4159 
Q 2644 4219 2406 4219 
Q 1781 4219 1451 3797 
Q 1122 3375 1075 2522 
Q 1259 2794 1537 2939 
Q 1816 3084 2150 3084 
Q 2853 3084 3261 2657 
Q 3669 2231 3669 1497 
Q 3669 778 3244 343 
Q 2819 -91 2113 -91 
Q 1303 -91 875 529 
Q 447 1150 447 2328 
Q 447 3434 972 4092 
Q 1497 4750 2381 4750 
Q 2619 4750 2861 4703 
Q 3103 4656 3366 4563 
z
" transform="scale(0.015625)"/>
       </defs>
       <use xlink:href="#DejaVuSans-30"/>
       <use xlink:href="#DejaVuSans-2e" x="63.623047"/>
       <use xlink:href="#DejaVuSans-36" x="95.410156"/>
       <use xlink:href="#DejaVuSans-30" x="159.033203"/>
      </g>
     </g>
    </g>
    <g id="text_37">
     <!-- testing accuracy -->
     <g style="fill: #262626" transform="translate(1102.121378 549.246094) rotate(-90) scale(0.3 -0.3)">
      <use xlink:href="#DejaVuSans-74"/>
      <use xlink:href="#DejaVuSans-65" x="39.208984"/>
      <use xlink:href="#DejaVuSans-73" x="100.732422"/>
      <use xlink:href="#DejaVuSans-74" x="152.832031"/>
      <use xlink:href="#DejaVuSans-69" x="192.041016"/>
      <use xlink:href="#DejaVuSans-6e" x="219.824219"/>
      <use xlink:href="#DejaVuSans-67" x="283.203125"/>
      <use xlink:href="#DejaVuSans-20" x="346.679688"/>
      <use xlink:href="#DejaVuSans-61" x="378.466797"/>
      <use xlink:href="#DejaVuSans-63" x="439.746094"/>
      <use xlink:href="#DejaVuSans-63" x="494.726562"/>
      <use xlink:href="#DejaVuSans-75" x="549.707031"/>
      <use xlink:href="#DejaVuSans-72" x="613.085938"/>
      <use xlink:href="#DejaVuSans-61" x="654.199219"/>
      <use xlink:href="#DejaVuSans-63" x="715.478516"/>
      <use xlink:href="#DejaVuSans-79" x="770.458984"/>
     </g>
    </g>
   </g>
   <g id="PolyCollection_3"/>
   <g id="PolyCollection_4"/>
   <g id="line2d_35">
    <path d="M 1217.677686 565.452955 
L 1235.414495 564.874929 
L 1253.151303 652.349507 
L 1270.888112 653.890909 
L 1288.624921 639.054912 
L 1306.361729 485.107363 
L 1324.098538 463.142381 
L 1341.835346 427.882804 
L 1359.572155 473.161496 
L 1377.308964 420.175793 
L 1395.045772 376.438504 
L 1412.782581 365.841364 
L 1430.51939 365.070663 
L 1448.256198 365.263338 
L 1465.993007 357.749002 
L 1483.729816 315.938466 
L 1501.466624 320.177322 
L 1519.203433 325.57223 
L 1536.940242 310.350883 
L 1554.67705 295.707562 
L 1572.413859 297.82699 
L 1590.150668 280.871565 
L 1607.887476 298.019665 
L 1625.624285 265.842893 
L 1643.361093 280.871565 
L 1661.097902 265.457543 
L 1678.834711 259.677284 
L 1696.571519 256.016454 
L 1714.308328 254.089701 
L 1732.045137 263.145439 
L 1749.781945 255.053077 
L 1767.518754 244.263262 
L 1785.255563 245.226638 
L 1802.992371 251.392247 
L 1820.72918 243.492561 
L 1838.465989 241.180457 
L 1856.202797 238.868354 
L 1873.939606 236.55625 
L 1891.676414 236.748926 
L 1909.413223 239.83173 
" clip-path="url(#peaf389367d)" style="fill: none; stroke: #4c72b0; stroke-width: 1.5; stroke-linecap: round"/>
   </g>
   <g id="line2d_36">
    <path d="M 1217.677686 576.628121 
L 1235.414495 481.831883 
L 1253.151303 420.368469 
L 1270.888112 402.064317 
L 1288.624921 366.612065 
L 1306.361729 339.637526 
L 1324.098538 315.167765 
L 1341.835346 318.25057 
L 1359.572155 288.385901 
L 1377.308964 287.037174 
L 1395.045772 277.40341 
L 1412.782581 276.247358 
L 1430.51939 268.540347 
L 1448.256198 249.080144 
L 1465.993007 262.952764 
L 1483.729816 245.419313 
L 1501.466624 245.419313 
L 1519.203433 233.666121 
L 1536.940242 242.143834 
L 1554.67705 254.282376 
L 1572.413859 231.739368 
L 1590.150668 228.078538 
L 1607.887476 220.756877 
L 1625.624285 252.548299 
L 1643.361093 223.261656 
L 1661.097902 228.656564 
L 1678.834711 216.518021 
L 1696.571519 228.849239 
L 1714.308328 221.912929 
L 1732.045137 216.903372 
L 1749.781945 210.159737 
L 1767.518754 216.518021 
L 1785.255563 201.8747 
L 1802.992371 223.068981 
L 1820.72918 217.288722 
L 1838.465989 195.709091 
L 1856.202797 198.59922 
L 1873.939606 212.664516 
L 1891.676414 200.718648 
L 1909.413223 212.47184 
" clip-path="url(#peaf389367d)" style="fill: none; stroke: #dd8452; stroke-width: 1.5; stroke-linecap: round"/>
   </g>
   <g id="patch_9">
    <path d="M 1183.090909 676.8 
L 1183.090909 172.8 
" style="fill: none; stroke: #ffffff; stroke-width: 1.25; stroke-linejoin: miter; stroke-linecap: square"/>
   </g>
   <g id="patch_10">
    <path d="M 1944 676.8 
L 1944 172.8 
" style="fill: none; stroke: #ffffff; stroke-width: 1.25; stroke-linejoin: miter; stroke-linecap: square"/>
   </g>
   <g id="patch_11">
    <path d="M 1183.090909 676.8 
L 1944 676.8 
" style="fill: none; stroke: #ffffff; stroke-width: 1.25; stroke-linejoin: miter; stroke-linecap: square"/>
   </g>
   <g id="patch_12">
    <path d="M 1183.090909 172.8 
L 1944 172.8 
" style="fill: none; stroke: #ffffff; stroke-width: 1.25; stroke-linejoin: miter; stroke-linecap: square"/>
   </g>
   <g id="text_38">
    <!-- Testing accuracy of Cross-Entropy Loss -->
    <g style="fill: #262626" transform="translate(1271.912642 166.8) scale(0.3 -0.3)">
     <defs>
      <path id="DejaVuSans-43" d="M 4122 4306 
L 4122 3641 
Q 3803 3938 3442 4084 
Q 3081 4231 2675 4231 
Q 1875 4231 1450 3742 
Q 1025 3253 1025 2328 
Q 1025 1406 1450 917 
Q 1875 428 2675 428 
Q 3081 428 3442 575 
Q 3803 722 4122 1019 
L 4122 359 
Q 3791 134 3420 21 
Q 3050 -91 2638 -91 
Q 1578 -91 968 557 
Q 359 1206 359 2328 
Q 359 3453 968 4101 
Q 1578 4750 2638 4750 
Q 3056 4750 3426 4639 
Q 3797 4528 4122 4306 
z
" transform="scale(0.015625)"/>
      <path id="DejaVuSans-2d" d="M 313 2009 
L 1997 2009 
L 1997 1497 
L 313 1497 
L 313 2009 
z
" transform="scale(0.015625)"/>
     </defs>
     <use xlink:href="#DejaVuSans-54"/>
     <use xlink:href="#DejaVuSans-65" x="44.083984"/>
     <use xlink:href="#DejaVuSans-73" x="105.607422"/>
     <use xlink:href="#DejaVuSans-74" x="157.707031"/>
     <use xlink:href="#DejaVuSans-69" x="196.916016"/>
     <use xlink:href="#DejaVuSans-6e" x="224.699219"/>
     <use xlink:href="#DejaVuSans-67" x="288.078125"/>
     <use xlink:href="#DejaVuSans-20" x="351.554688"/>
     <use xlink:href="#DejaVuSans-61" x="383.341797"/>
     <use xlink:href="#DejaVuSans-63" x="444.621094"/>
     <use xlink:href="#DejaVuSans-63" x="499.601562"/>
     <use xlink:href="#DejaVuSans-75" x="554.582031"/>
     <use xlink:href="#DejaVuSans-72" x="617.960938"/>
     <use xlink:href="#DejaVuSans-61" x="659.074219"/>
     <use xlink:href="#DejaVuSans-63" x="720.353516"/>
     <use xlink:href="#DejaVuSans-79" x="775.333984"/>
     <use xlink:href="#DejaVuSans-20" x="834.513672"/>
     <use xlink:href="#DejaVuSans-6f" x="866.300781"/>
     <use xlink:href="#DejaVuSans-66" x="927.482422"/>
     <use xlink:href="#DejaVuSans-20" x="962.6875"/>
     <use xlink:href="#DejaVuSans-43" x="994.474609"/>
     <use xlink:href="#DejaVuSans-72" x="1064.298828"/>
     <use xlink:href="#DejaVuSans-6f" x="1103.162109"/>
     <use xlink:href="#DejaVuSans-73" x="1164.34375"/>
     <use xlink:href="#DejaVuSans-73" x="1216.443359"/>
     <use xlink:href="#DejaVuSans-2d" x="1268.542969"/>
     <use xlink:href="#DejaVuSans-45" x="1304.626953"/>
     <use xlink:href="#DejaVuSans-6e" x="1367.810547"/>
     <use xlink:href="#DejaVuSans-74" x="1431.189453"/>
     <use xlink:href="#DejaVuSans-72" x="1470.398438"/>
     <use xlink:href="#DejaVuSans-6f" x="1509.261719"/>
     <use xlink:href="#DejaVuSans-70" x="1570.443359"/>
     <use xlink:href="#DejaVuSans-79" x="1633.919922"/>
     <use xlink:href="#DejaVuSans-20" x="1693.099609"/>
     <use xlink:href="#DejaVuSans-4c" x="1724.886719"/>
     <use xlink:href="#DejaVuSans-6f" x="1778.849609"/>
     <use xlink:href="#DejaVuSans-73" x="1840.03125"/>
     <use xlink:href="#DejaVuSans-73" x="1892.130859"/>
    </g>
   </g>
   <g id="legend_2">
    <g id="patch_13">
     <path d="M 1696.478516 663.05 
L 1924.75 663.05 
Q 1930.25 663.05 1930.25 657.55 
L 1930.25 578.040625 
Q 1930.25 572.540625 1924.75 572.540625 
L 1696.478516 572.540625 
Q 1690.978516 572.540625 1690.978516 578.040625 
L 1690.978516 657.55 
Q 1690.978516 663.05 1696.478516 663.05 
z
" style="fill: #eaeaf2; opacity: 0.8; stroke: #cccccc; stroke-linejoin: miter"/>
    </g>
    <g id="line2d_37">
     <path d="M 1701.978516 594.811328 
L 1729.478516 594.811328 
L 1756.978516 594.811328 
" style="fill: none; stroke: #4c72b0; stroke-width: 1.5; stroke-linecap: round"/>
    </g>
    <g id="text_39">
     <!-- acc_SGD -->
     <g style="fill: #262626" transform="translate(1778.978516 604.436328) scale(0.275 -0.275)">
      <use xlink:href="#DejaVuSans-61"/>
      <use xlink:href="#DejaVuSans-63" x="61.279297"/>
      <use xlink:href="#DejaVuSans-63" x="116.259766"/>
      <use xlink:href="#DejaVuSans-5f" x="171.240234"/>
      <use xlink:href="#DejaVuSans-53" x="221.240234"/>
      <use xlink:href="#DejaVuSans-47" x="284.716797"/>
      <use xlink:href="#DejaVuSans-44" x="362.207031"/>
     </g>
    </g>
    <g id="line2d_38">
     <path d="M 1701.978516 635.941016 
L 1729.478516 635.941016 
L 1756.978516 635.941016 
" style="fill: none; stroke: #dd8452; stroke-width: 1.5; stroke-linecap: round"/>
    </g>
    <g id="text_40">
     <!-- acc_Adam -->
     <g style="fill: #262626" transform="translate(1778.978516 645.566016) scale(0.275 -0.275)">
      <use xlink:href="#DejaVuSans-61"/>
      <use xlink:href="#DejaVuSans-63" x="61.279297"/>
      <use xlink:href="#DejaVuSans-63" x="116.259766"/>
      <use xlink:href="#DejaVuSans-5f" x="171.240234"/>
      <use xlink:href="#DejaVuSans-41" x="221.240234"/>
      <use xlink:href="#DejaVuSans-64" x="287.898438"/>
      <use xlink:href="#DejaVuSans-61" x="351.375"/>
      <use xlink:href="#DejaVuSans-6d" x="412.654297"/>
     </g>
    </g>
   </g>
  </g>
  <g id="axes_3">
   <g id="patch_14">
    <path d="M 270 1281.6 
L 1030.909091 1281.6 
L 1030.909091 777.6 
L 270 777.6 
z
" style="fill: #eaeaf2"/>
   </g>
   <g id="matplotlib.axis_5">
    <g id="xtick_19">
     <g id="line2d_39">
      <path d="M 304.586777 1281.6 
L 304.586777 777.6 
" clip-path="url(#p7031d71e56)" style="fill: none; stroke: #ffffff; stroke-linecap: round"/>
     </g>
     <g id="text_41">
      <!-- 0 -->
      <g style="fill: #262626" transform="translate(295.838339 1311.995703) scale(0.275 -0.275)">
       <use xlink:href="#DejaVuSans-30"/>
      </g>
     </g>
    </g>
    <g id="xtick_20">
     <g id="line2d_40">
      <path d="M 393.27082 1281.6 
L 393.27082 777.6 
" clip-path="url(#p7031d71e56)" style="fill: none; stroke: #ffffff; stroke-linecap: round"/>
     </g>
     <g id="text_42">
      <!-- 5 -->
      <g style="fill: #262626" transform="translate(384.522383 1311.995703) scale(0.275 -0.275)">
       <use xlink:href="#DejaVuSans-35"/>
      </g>
     </g>
    </g>
    <g id="xtick_21">
     <g id="line2d_41">
      <path d="M 481.954863 1281.6 
L 481.954863 777.6 
" clip-path="url(#p7031d71e56)" style="fill: none; stroke: #ffffff; stroke-linecap: round"/>
     </g>
     <g id="text_43">
      <!-- 10 -->
      <g style="fill: #262626" transform="translate(464.457988 1311.995703) scale(0.275 -0.275)">
       <use xlink:href="#DejaVuSans-31"/>
       <use xlink:href="#DejaVuSans-30" x="63.623047"/>
      </g>
     </g>
    </g>
    <g id="xtick_22">
     <g id="line2d_42">
      <path d="M 570.638907 1281.6 
L 570.638907 777.6 
" clip-path="url(#p7031d71e56)" style="fill: none; stroke: #ffffff; stroke-linecap: round"/>
     </g>
     <g id="text_44">
      <!-- 15 -->
      <g style="fill: #262626" transform="translate(553.142032 1311.995703) scale(0.275 -0.275)">
       <use xlink:href="#DejaVuSans-31"/>
       <use xlink:href="#DejaVuSans-35" x="63.623047"/>
      </g>
     </g>
    </g>
    <g id="xtick_23">
     <g id="line2d_43">
      <path d="M 659.32295 1281.6 
L 659.32295 777.6 
" clip-path="url(#p7031d71e56)" style="fill: none; stroke: #ffffff; stroke-linecap: round"/>
     </g>
     <g id="text_45">
      <!-- 20 -->
      <g style="fill: #262626" transform="translate(641.826075 1311.995703) scale(0.275 -0.275)">
       <use xlink:href="#DejaVuSans-32"/>
       <use xlink:href="#DejaVuSans-30" x="63.623047"/>
      </g>
     </g>
    </g>
    <g id="xtick_24">
     <g id="line2d_44">
      <path d="M 748.006993 1281.6 
L 748.006993 777.6 
" clip-path="url(#p7031d71e56)" style="fill: none; stroke: #ffffff; stroke-linecap: round"/>
     </g>
     <g id="text_46">
      <!-- 25 -->
      <g style="fill: #262626" transform="translate(730.510118 1311.995703) scale(0.275 -0.275)">
       <use xlink:href="#DejaVuSans-32"/>
       <use xlink:href="#DejaVuSans-35" x="63.623047"/>
      </g>
     </g>
    </g>
    <g id="xtick_25">
     <g id="line2d_45">
      <path d="M 836.691036 1281.6 
L 836.691036 777.6 
" clip-path="url(#p7031d71e56)" style="fill: none; stroke: #ffffff; stroke-linecap: round"/>
     </g>
     <g id="text_47">
      <!-- 30 -->
      <g style="fill: #262626" transform="translate(819.194161 1311.995703) scale(0.275 -0.275)">
       <use xlink:href="#DejaVuSans-33"/>
       <use xlink:href="#DejaVuSans-30" x="63.623047"/>
      </g>
     </g>
    </g>
    <g id="xtick_26">
     <g id="line2d_46">
      <path d="M 925.375079 1281.6 
L 925.375079 777.6 
" clip-path="url(#p7031d71e56)" style="fill: none; stroke: #ffffff; stroke-linecap: round"/>
     </g>
     <g id="text_48">
      <!-- 35 -->
      <g style="fill: #262626" transform="translate(907.878204 1311.995703) scale(0.275 -0.275)">
       <use xlink:href="#DejaVuSans-33"/>
       <use xlink:href="#DejaVuSans-35" x="63.623047"/>
      </g>
     </g>
    </g>
    <g id="xtick_27">
     <g id="line2d_47">
      <path d="M 1014.059123 1281.6 
L 1014.059123 777.6 
" clip-path="url(#p7031d71e56)" style="fill: none; stroke: #ffffff; stroke-linecap: round"/>
     </g>
     <g id="text_49">
      <!-- 40 -->
      <g style="fill: #262626" transform="translate(996.562248 1311.995703) scale(0.275 -0.275)">
       <use xlink:href="#DejaVuSans-34"/>
       <use xlink:href="#DejaVuSans-30" x="63.623047"/>
      </g>
     </g>
    </g>
    <g id="text_50">
     <!-- Epoch -->
     <g style="fill: #262626" transform="translate(604.521733 1344.510156) scale(0.3 -0.3)">
      <use xlink:href="#DejaVuSans-45"/>
      <use xlink:href="#DejaVuSans-70" x="63.183594"/>
      <use xlink:href="#DejaVuSans-6f" x="126.660156"/>
      <use xlink:href="#DejaVuSans-63" x="187.841797"/>
      <use xlink:href="#DejaVuSans-68" x="242.822266"/>
     </g>
    </g>
   </g>
   <g id="matplotlib.axis_6">
    <g id="ytick_13">
     <g id="line2d_48">
      <path d="M 270 1278.702913 
L 1030.909091 1278.702913 
" clip-path="url(#p7031d71e56)" style="fill: none; stroke: #ffffff; stroke-linecap: round"/>
     </g>
     <g id="text_51">
      <!-- 0.375 -->
      <g style="fill: #262626" transform="translate(181.772656 1289.150765) scale(0.275 -0.275)">
       <defs>
        <path id="DejaVuSans-37" d="M 525 4666 
L 3525 4666 
L 3525 4397 
L 1831 0 
L 1172 0 
L 2766 4134 
L 525 4134 
L 525 4666 
z
" transform="scale(0.015625)"/>
       </defs>
       <use xlink:href="#DejaVuSans-30"/>
       <use xlink:href="#DejaVuSans-2e" x="63.623047"/>
       <use xlink:href="#DejaVuSans-33" x="95.410156"/>
       <use xlink:href="#DejaVuSans-37" x="159.033203"/>
       <use xlink:href="#DejaVuSans-35" x="222.65625"/>
      </g>
     </g>
    </g>
    <g id="ytick_14">
     <g id="line2d_49">
      <path d="M 270 1220.528482 
L 1030.909091 1220.528482 
" clip-path="url(#p7031d71e56)" style="fill: none; stroke: #ffffff; stroke-linecap: round"/>
     </g>
     <g id="text_52">
      <!-- 0.400 -->
      <g style="fill: #262626" transform="translate(181.772656 1230.976334) scale(0.275 -0.275)">
       <use xlink:href="#DejaVuSans-30"/>
       <use xlink:href="#DejaVuSans-2e" x="63.623047"/>
       <use xlink:href="#DejaVuSans-34" x="95.410156"/>
       <use xlink:href="#DejaVuSans-30" x="159.033203"/>
       <use xlink:href="#DejaVuSans-30" x="222.65625"/>
      </g>
     </g>
    </g>
    <g id="ytick_15">
     <g id="line2d_50">
      <path d="M 270 1162.354051 
L 1030.909091 1162.354051 
" clip-path="url(#p7031d71e56)" style="fill: none; stroke: #ffffff; stroke-linecap: round"/>
     </g>
     <g id="text_53">
      <!-- 0.425 -->
      <g style="fill: #262626" transform="translate(181.772656 1172.801903) scale(0.275 -0.275)">
       <use xlink:href="#DejaVuSans-30"/>
       <use xlink:href="#DejaVuSans-2e" x="63.623047"/>
       <use xlink:href="#DejaVuSans-34" x="95.410156"/>
       <use xlink:href="#DejaVuSans-32" x="159.033203"/>
       <use xlink:href="#DejaVuSans-35" x="222.65625"/>
      </g>
     </g>
    </g>
    <g id="ytick_16">
     <g id="line2d_51">
      <path d="M 270 1104.17962 
L 1030.909091 1104.17962 
" clip-path="url(#p7031d71e56)" style="fill: none; stroke: #ffffff; stroke-linecap: round"/>
     </g>
     <g id="text_54">
      <!-- 0.450 -->
      <g style="fill: #262626" transform="translate(181.772656 1114.627472) scale(0.275 -0.275)">
       <use xlink:href="#DejaVuSans-30"/>
       <use xlink:href="#DejaVuSans-2e" x="63.623047"/>
       <use xlink:href="#DejaVuSans-34" x="95.410156"/>
       <use xlink:href="#DejaVuSans-35" x="159.033203"/>
       <use xlink:href="#DejaVuSans-30" x="222.65625"/>
      </g>
     </g>
    </g>
    <g id="ytick_17">
     <g id="line2d_52">
      <path d="M 270 1046.00519 
L 1030.909091 1046.00519 
" clip-path="url(#p7031d71e56)" style="fill: none; stroke: #ffffff; stroke-linecap: round"/>
     </g>
     <g id="text_55">
      <!-- 0.475 -->
      <g style="fill: #262626" transform="translate(181.772656 1056.453041) scale(0.275 -0.275)">
       <use xlink:href="#DejaVuSans-30"/>
       <use xlink:href="#DejaVuSans-2e" x="63.623047"/>
       <use xlink:href="#DejaVuSans-34" x="95.410156"/>
       <use xlink:href="#DejaVuSans-37" x="159.033203"/>
       <use xlink:href="#DejaVuSans-35" x="222.65625"/>
      </g>
     </g>
    </g>
    <g id="ytick_18">
     <g id="line2d_53">
      <path d="M 270 987.830759 
L 1030.909091 987.830759 
" clip-path="url(#p7031d71e56)" style="fill: none; stroke: #ffffff; stroke-linecap: round"/>
     </g>
     <g id="text_56">
      <!-- 0.500 -->
      <g style="fill: #262626" transform="translate(181.772656 998.27861) scale(0.275 -0.275)">
       <use xlink:href="#DejaVuSans-30"/>
       <use xlink:href="#DejaVuSans-2e" x="63.623047"/>
       <use xlink:href="#DejaVuSans-35" x="95.410156"/>
       <use xlink:href="#DejaVuSans-30" x="159.033203"/>
       <use xlink:href="#DejaVuSans-30" x="222.65625"/>
      </g>
     </g>
    </g>
    <g id="ytick_19">
     <g id="line2d_54">
      <path d="M 270 929.656328 
L 1030.909091 929.656328 
" clip-path="url(#p7031d71e56)" style="fill: none; stroke: #ffffff; stroke-linecap: round"/>
     </g>
     <g id="text_57">
      <!-- 0.525 -->
      <g style="fill: #262626" transform="translate(181.772656 940.104179) scale(0.275 -0.275)">
       <use xlink:href="#DejaVuSans-30"/>
       <use xlink:href="#DejaVuSans-2e" x="63.623047"/>
       <use xlink:href="#DejaVuSans-35" x="95.410156"/>
       <use xlink:href="#DejaVuSans-32" x="159.033203"/>
       <use xlink:href="#DejaVuSans-35" x="222.65625"/>
      </g>
     </g>
    </g>
    <g id="ytick_20">
     <g id="line2d_55">
      <path d="M 270 871.481897 
L 1030.909091 871.481897 
" clip-path="url(#p7031d71e56)" style="fill: none; stroke: #ffffff; stroke-linecap: round"/>
     </g>
     <g id="text_58">
      <!-- 0.550 -->
      <g style="fill: #262626" transform="translate(181.772656 881.929748) scale(0.275 -0.275)">
       <use xlink:href="#DejaVuSans-30"/>
       <use xlink:href="#DejaVuSans-2e" x="63.623047"/>
       <use xlink:href="#DejaVuSans-35" x="95.410156"/>
       <use xlink:href="#DejaVuSans-35" x="159.033203"/>
       <use xlink:href="#DejaVuSans-30" x="222.65625"/>
      </g>
     </g>
    </g>
    <g id="ytick_21">
     <g id="line2d_56">
      <path d="M 270 813.307466 
L 1030.909091 813.307466 
" clip-path="url(#p7031d71e56)" style="fill: none; stroke: #ffffff; stroke-linecap: round"/>
     </g>
     <g id="text_59">
      <!-- 0.575 -->
      <g style="fill: #262626" transform="translate(181.772656 823.755317) scale(0.275 -0.275)">
       <use xlink:href="#DejaVuSans-30"/>
       <use xlink:href="#DejaVuSans-2e" x="63.623047"/>
       <use xlink:href="#DejaVuSans-35" x="95.410156"/>
       <use xlink:href="#DejaVuSans-37" x="159.033203"/>
       <use xlink:href="#DejaVuSans-35" x="222.65625"/>
      </g>
     </g>
    </g>
    <g id="text_60">
     <!-- testing accuracy -->
     <g style="fill: #262626" transform="translate(171.533594 1154.046094) rotate(-90) scale(0.3 -0.3)">
      <use xlink:href="#DejaVuSans-74"/>
      <use xlink:href="#DejaVuSans-65" x="39.208984"/>
      <use xlink:href="#DejaVuSans-73" x="100.732422"/>
      <use xlink:href="#DejaVuSans-74" x="152.832031"/>
      <use xlink:href="#DejaVuSans-69" x="192.041016"/>
      <use xlink:href="#DejaVuSans-6e" x="219.824219"/>
      <use xlink:href="#DejaVuSans-67" x="283.203125"/>
      <use xlink:href="#DejaVuSans-20" x="346.679688"/>
      <use xlink:href="#DejaVuSans-61" x="378.466797"/>
      <use xlink:href="#DejaVuSans-63" x="439.746094"/>
      <use xlink:href="#DejaVuSans-63" x="494.726562"/>
      <use xlink:href="#DejaVuSans-75" x="549.707031"/>
      <use xlink:href="#DejaVuSans-72" x="613.085938"/>
      <use xlink:href="#DejaVuSans-61" x="654.199219"/>
      <use xlink:href="#DejaVuSans-63" x="715.478516"/>
      <use xlink:href="#DejaVuSans-79" x="770.458984"/>
     </g>
    </g>
   </g>
   <g id="PolyCollection_5"/>
   <g id="PolyCollection_6"/>
   <g id="line2d_57">
    <path d="M 304.586777 1249.848396 
L 322.323586 1255.200443 
L 340.060394 1236.351928 
L 357.797203 1232.163369 
L 375.534011 1214.012946 
L 393.27082 1092.544734 
L 411.007629 1067.878776 
L 428.744437 1070.671148 
L 446.481246 1095.569805 
L 464.218055 1027.156674 
L 481.954863 991.088527 
L 499.691672 959.907032 
L 517.428481 996.207877 
L 535.165289 949.668332 
L 552.902098 906.619253 
L 570.638907 882.651387 
L 588.375715 891.028505 
L 606.112524 886.839946 
L 623.849332 879.626317 
L 641.586141 868.689524 
L 659.32295 856.82194 
L 677.059758 857.287336 
L 694.796567 842.161983 
L 712.533376 856.82194 
L 730.270184 832.155981 
L 748.006993 825.407747 
L 765.743802 820.288397 
L 783.48061 824.709654 
L 801.217419 815.867141 
L 818.954228 825.407747 
L 836.691036 813.772861 
L 854.427845 811.911279 
L 872.164654 806.791929 
L 889.901462 800.509091 
L 907.638271 808.653511 
L 925.375079 804.930348 
L 943.111888 802.60337 
L 960.848697 805.163045 
L 978.585505 801.67258 
L 996.322314 807.024627 
" clip-path="url(#p7031d71e56)" style="fill: none; stroke: #4c72b0; stroke-width: 1.5; stroke-linecap: round"/>
   </g>
   <g id="line2d_58">
    <path d="M 304.586777 1258.690909 
L 322.323586 1142.807443 
L 340.060394 1085.563803 
L 357.797203 1066.017194 
L 375.534011 1014.590997 
L 393.27082 1010.867833 
L 411.007629 959.441636 
L 428.744437 928.260141 
L 446.481246 906.153858 
L 464.218055 907.084648 
L 481.954863 889.865017 
L 499.691672 882.41869 
L 517.428481 898.70753 
L 535.165289 885.211062 
L 552.902098 886.141853 
L 570.638907 874.506967 
L 588.375715 860.079708 
L 606.112524 874.041572 
L 623.849332 862.872081 
L 641.586141 856.589242 
L 659.32295 860.545104 
L 677.059758 836.111843 
L 694.796567 835.181052 
L 712.533376 853.79687 
L 730.270184 836.111843 
L 748.006993 827.734725 
L 765.743802 849.841008 
L 783.48061 830.992493 
L 801.217419 827.036631 
L 818.954228 823.778863 
L 836.691036 839.835006 
L 854.427845 832.854075 
L 872.164654 822.615375 
L 889.901462 814.005559 
L 907.638271 822.615375 
L 925.375079 813.307466 
L 943.111888 814.238257 
L 960.848697 819.590304 
L 978.585505 828.432818 
L 996.322314 814.470954 
" clip-path="url(#p7031d71e56)" style="fill: none; stroke: #dd8452; stroke-width: 1.5; stroke-linecap: round"/>
   </g>
   <g id="patch_15">
    <path d="M 270 1281.6 
L 270 777.6 
" style="fill: none; stroke: #ffffff; stroke-width: 1.25; stroke-linejoin: miter; stroke-linecap: square"/>
   </g>
   <g id="patch_16">
    <path d="M 1030.909091 1281.6 
L 1030.909091 777.6 
" style="fill: none; stroke: #ffffff; stroke-width: 1.25; stroke-linejoin: miter; stroke-linecap: square"/>
   </g>
   <g id="patch_17">
    <path d="M 270 1281.6 
L 1030.909091 1281.6 
" style="fill: none; stroke: #ffffff; stroke-width: 1.25; stroke-linejoin: miter; stroke-linecap: square"/>
   </g>
   <g id="patch_18">
    <path d="M 270 777.6 
L 1030.909091 777.6 
" style="fill: none; stroke: #ffffff; stroke-width: 1.25; stroke-linejoin: miter; stroke-linecap: square"/>
   </g>
   <g id="text_61">
    <!-- Testing accuracy of Focal Loss (gamma=0.5) -->
    <g style="fill: #262626" transform="translate(314.721733 771.6) scale(0.3 -0.3)">
     <defs>
      <path id="DejaVuSans-46" d="M 628 4666 
L 3309 4666 
L 3309 4134 
L 1259 4134 
L 1259 2759 
L 3109 2759 
L 3109 2228 
L 1259 2228 
L 1259 0 
L 628 0 
L 628 4666 
z
" transform="scale(0.015625)"/>
      <path id="DejaVuSans-6c" d="M 603 4863 
L 1178 4863 
L 1178 0 
L 603 0 
L 603 4863 
z
" transform="scale(0.015625)"/>
      <path id="DejaVuSans-28" d="M 1984 4856 
Q 1566 4138 1362 3434 
Q 1159 2731 1159 2009 
Q 1159 1288 1364 580 
Q 1569 -128 1984 -844 
L 1484 -844 
Q 1016 -109 783 600 
Q 550 1309 550 2009 
Q 550 2706 781 3412 
Q 1013 4119 1484 4856 
L 1984 4856 
z
" transform="scale(0.015625)"/>
      <path id="DejaVuSans-3d" d="M 678 2906 
L 4684 2906 
L 4684 2381 
L 678 2381 
L 678 2906 
z
M 678 1631 
L 4684 1631 
L 4684 1100 
L 678 1100 
L 678 1631 
z
" transform="scale(0.015625)"/>
      <path id="DejaVuSans-29" d="M 513 4856 
L 1013 4856 
Q 1481 4119 1714 3412 
Q 1947 2706 1947 2009 
Q 1947 1309 1714 600 
Q 1481 -109 1013 -844 
L 513 -844 
Q 928 -128 1133 580 
Q 1338 1288 1338 2009 
Q 1338 2731 1133 3434 
Q 928 4138 513 4856 
z
" transform="scale(0.015625)"/>
     </defs>
     <use xlink:href="#DejaVuSans-54"/>
     <use xlink:href="#DejaVuSans-65" x="44.083984"/>
     <use xlink:href="#DejaVuSans-73" x="105.607422"/>
     <use xlink:href="#DejaVuSans-74" x="157.707031"/>
     <use xlink:href="#DejaVuSans-69" x="196.916016"/>
     <use xlink:href="#DejaVuSans-6e" x="224.699219"/>
     <use xlink:href="#DejaVuSans-67" x="288.078125"/>
     <use xlink:href="#DejaVuSans-20" x="351.554688"/>
     <use xlink:href="#DejaVuSans-61" x="383.341797"/>
     <use xlink:href="#DejaVuSans-63" x="444.621094"/>
     <use xlink:href="#DejaVuSans-63" x="499.601562"/>
     <use xlink:href="#DejaVuSans-75" x="554.582031"/>
     <use xlink:href="#DejaVuSans-72" x="617.960938"/>
     <use xlink:href="#DejaVuSans-61" x="659.074219"/>
     <use xlink:href="#DejaVuSans-63" x="720.353516"/>
     <use xlink:href="#DejaVuSans-79" x="775.333984"/>
     <use xlink:href="#DejaVuSans-20" x="834.513672"/>
     <use xlink:href="#DejaVuSans-6f" x="866.300781"/>
     <use xlink:href="#DejaVuSans-66" x="927.482422"/>
     <use xlink:href="#DejaVuSans-20" x="962.6875"/>
     <use xlink:href="#DejaVuSans-46" x="994.474609"/>
     <use xlink:href="#DejaVuSans-6f" x="1048.369141"/>
     <use xlink:href="#DejaVuSans-63" x="1109.550781"/>
     <use xlink:href="#DejaVuSans-61" x="1164.53125"/>
     <use xlink:href="#DejaVuSans-6c" x="1225.810547"/>
     <use xlink:href="#DejaVuSans-20" x="1253.59375"/>
     <use xlink:href="#DejaVuSans-4c" x="1285.380859"/>
     <use xlink:href="#DejaVuSans-6f" x="1339.34375"/>
     <use xlink:href="#DejaVuSans-73" x="1400.525391"/>
     <use xlink:href="#DejaVuSans-73" x="1452.625"/>
     <use xlink:href="#DejaVuSans-20" x="1504.724609"/>
     <use xlink:href="#DejaVuSans-28" x="1536.511719"/>
     <use xlink:href="#DejaVuSans-67" x="1575.525391"/>
     <use xlink:href="#DejaVuSans-61" x="1639.001953"/>
     <use xlink:href="#DejaVuSans-6d" x="1700.28125"/>
     <use xlink:href="#DejaVuSans-6d" x="1797.693359"/>
     <use xlink:href="#DejaVuSans-61" x="1895.105469"/>
     <use xlink:href="#DejaVuSans-3d" x="1956.384766"/>
     <use xlink:href="#DejaVuSans-30" x="2040.173828"/>
     <use xlink:href="#DejaVuSans-2e" x="2103.796875"/>
     <use xlink:href="#DejaVuSans-35" x="2135.583984"/>
     <use xlink:href="#DejaVuSans-29" x="2199.207031"/>
    </g>
   </g>
   <g id="legend_3">
    <g id="patch_19">
     <path d="M 289.25 881.859375 
L 517.521484 881.859375 
Q 523.021484 881.859375 523.021484 876.359375 
L 523.021484 796.85 
Q 523.021484 791.35 517.521484 791.35 
L 289.25 791.35 
Q 283.75 791.35 283.75 796.85 
L 283.75 876.359375 
Q 283.75 881.859375 289.25 881.859375 
z
" style="fill: #eaeaf2; opacity: 0.8; stroke: #cccccc; stroke-linejoin: miter"/>
    </g>
    <g id="line2d_59">
     <path d="M 294.75 813.620703 
L 322.25 813.620703 
L 349.75 813.620703 
" style="fill: none; stroke: #4c72b0; stroke-width: 1.5; stroke-linecap: round"/>
    </g>
    <g id="text_62">
     <!-- acc_SGD -->
     <g style="fill: #262626" transform="translate(371.75 823.245703) scale(0.275 -0.275)">
      <use xlink:href="#DejaVuSans-61"/>
      <use xlink:href="#DejaVuSans-63" x="61.279297"/>
      <use xlink:href="#DejaVuSans-63" x="116.259766"/>
      <use xlink:href="#DejaVuSans-5f" x="171.240234"/>
      <use xlink:href="#DejaVuSans-53" x="221.240234"/>
      <use xlink:href="#DejaVuSans-47" x="284.716797"/>
      <use xlink:href="#DejaVuSans-44" x="362.207031"/>
     </g>
    </g>
    <g id="line2d_60">
     <path d="M 294.75 854.750391 
L 322.25 854.750391 
L 349.75 854.750391 
" style="fill: none; stroke: #dd8452; stroke-width: 1.5; stroke-linecap: round"/>
    </g>
    <g id="text_63">
     <!-- acc_Adam -->
     <g style="fill: #262626" transform="translate(371.75 864.375391) scale(0.275 -0.275)">
      <use xlink:href="#DejaVuSans-61"/>
      <use xlink:href="#DejaVuSans-63" x="61.279297"/>
      <use xlink:href="#DejaVuSans-63" x="116.259766"/>
      <use xlink:href="#DejaVuSans-5f" x="171.240234"/>
      <use xlink:href="#DejaVuSans-41" x="221.240234"/>
      <use xlink:href="#DejaVuSans-64" x="287.898438"/>
      <use xlink:href="#DejaVuSans-61" x="351.375"/>
      <use xlink:href="#DejaVuSans-6d" x="412.654297"/>
     </g>
    </g>
   </g>
  </g>
  <g id="axes_4">
   <g id="patch_20">
    <path d="M 1183.090909 1281.6 
L 1944 1281.6 
L 1944 777.6 
L 1183.090909 777.6 
z
" style="fill: #eaeaf2"/>
   </g>
   <g id="matplotlib.axis_7">
    <g id="xtick_28">
     <g id="line2d_61">
      <path d="M 1217.677686 1281.6 
L 1217.677686 777.6 
" clip-path="url(#pcce93b6881)" style="fill: none; stroke: #ffffff; stroke-linecap: round"/>
     </g>
     <g id="text_64">
      <!-- 0 -->
      <g style="fill: #262626" transform="translate(1208.929248 1311.995703) scale(0.275 -0.275)">
       <use xlink:href="#DejaVuSans-30"/>
      </g>
     </g>
    </g>
    <g id="xtick_29">
     <g id="line2d_62">
      <path d="M 1306.361729 1281.6 
L 1306.361729 777.6 
" clip-path="url(#pcce93b6881)" style="fill: none; stroke: #ffffff; stroke-linecap: round"/>
     </g>
     <g id="text_65">
      <!-- 5 -->
      <g style="fill: #262626" transform="translate(1297.613292 1311.995703) scale(0.275 -0.275)">
       <use xlink:href="#DejaVuSans-35"/>
      </g>
     </g>
    </g>
    <g id="xtick_30">
     <g id="line2d_63">
      <path d="M 1395.045772 1281.6 
L 1395.045772 777.6 
" clip-path="url(#pcce93b6881)" style="fill: none; stroke: #ffffff; stroke-linecap: round"/>
     </g>
     <g id="text_66">
      <!-- 10 -->
      <g style="fill: #262626" transform="translate(1377.548897 1311.995703) scale(0.275 -0.275)">
       <use xlink:href="#DejaVuSans-31"/>
       <use xlink:href="#DejaVuSans-30" x="63.623047"/>
      </g>
     </g>
    </g>
    <g id="xtick_31">
     <g id="line2d_64">
      <path d="M 1483.729816 1281.6 
L 1483.729816 777.6 
" clip-path="url(#pcce93b6881)" style="fill: none; stroke: #ffffff; stroke-linecap: round"/>
     </g>
     <g id="text_67">
      <!-- 15 -->
      <g style="fill: #262626" transform="translate(1466.232941 1311.995703) scale(0.275 -0.275)">
       <use xlink:href="#DejaVuSans-31"/>
       <use xlink:href="#DejaVuSans-35" x="63.623047"/>
      </g>
     </g>
    </g>
    <g id="xtick_32">
     <g id="line2d_65">
      <path d="M 1572.413859 1281.6 
L 1572.413859 777.6 
" clip-path="url(#pcce93b6881)" style="fill: none; stroke: #ffffff; stroke-linecap: round"/>
     </g>
     <g id="text_68">
      <!-- 20 -->
      <g style="fill: #262626" transform="translate(1554.916984 1311.995703) scale(0.275 -0.275)">
       <use xlink:href="#DejaVuSans-32"/>
       <use xlink:href="#DejaVuSans-30" x="63.623047"/>
      </g>
     </g>
    </g>
    <g id="xtick_33">
     <g id="line2d_66">
      <path d="M 1661.097902 1281.6 
L 1661.097902 777.6 
" clip-path="url(#pcce93b6881)" style="fill: none; stroke: #ffffff; stroke-linecap: round"/>
     </g>
     <g id="text_69">
      <!-- 25 -->
      <g style="fill: #262626" transform="translate(1643.601027 1311.995703) scale(0.275 -0.275)">
       <use xlink:href="#DejaVuSans-32"/>
       <use xlink:href="#DejaVuSans-35" x="63.623047"/>
      </g>
     </g>
    </g>
    <g id="xtick_34">
     <g id="line2d_67">
      <path d="M 1749.781945 1281.6 
L 1749.781945 777.6 
" clip-path="url(#pcce93b6881)" style="fill: none; stroke: #ffffff; stroke-linecap: round"/>
     </g>
     <g id="text_70">
      <!-- 30 -->
      <g style="fill: #262626" transform="translate(1732.28507 1311.995703) scale(0.275 -0.275)">
       <use xlink:href="#DejaVuSans-33"/>
       <use xlink:href="#DejaVuSans-30" x="63.623047"/>
      </g>
     </g>
    </g>
    <g id="xtick_35">
     <g id="line2d_68">
      <path d="M 1838.465989 1281.6 
L 1838.465989 777.6 
" clip-path="url(#pcce93b6881)" style="fill: none; stroke: #ffffff; stroke-linecap: round"/>
     </g>
     <g id="text_71">
      <!-- 35 -->
      <g style="fill: #262626" transform="translate(1820.969114 1311.995703) scale(0.275 -0.275)">
       <use xlink:href="#DejaVuSans-33"/>
       <use xlink:href="#DejaVuSans-35" x="63.623047"/>
      </g>
     </g>
    </g>
    <g id="xtick_36">
     <g id="line2d_69">
      <path d="M 1927.150032 1281.6 
L 1927.150032 777.6 
" clip-path="url(#pcce93b6881)" style="fill: none; stroke: #ffffff; stroke-linecap: round"/>
     </g>
     <g id="text_72">
      <!-- 40 -->
      <g style="fill: #262626" transform="translate(1909.653157 1311.995703) scale(0.275 -0.275)">
       <use xlink:href="#DejaVuSans-34"/>
       <use xlink:href="#DejaVuSans-30" x="63.623047"/>
      </g>
     </g>
    </g>
    <g id="text_73">
     <!-- Epoch -->
     <g style="fill: #262626" transform="translate(1517.612642 1344.510156) scale(0.3 -0.3)">
      <use xlink:href="#DejaVuSans-45"/>
      <use xlink:href="#DejaVuSans-70" x="63.183594"/>
      <use xlink:href="#DejaVuSans-6f" x="126.660156"/>
      <use xlink:href="#DejaVuSans-63" x="187.841797"/>
      <use xlink:href="#DejaVuSans-68" x="242.822266"/>
     </g>
    </g>
   </g>
   <g id="matplotlib.axis_8">
    <g id="ytick_22">
     <g id="line2d_70">
      <path d="M 1183.090909 1242.490637 
L 1944 1242.490637 
" clip-path="url(#pcce93b6881)" style="fill: none; stroke: #ffffff; stroke-linecap: round"/>
     </g>
     <g id="text_74">
      <!-- 0.35 -->
      <g style="fill: #262626" transform="translate(1112.36044 1252.938488) scale(0.275 -0.275)">
       <use xlink:href="#DejaVuSans-30"/>
       <use xlink:href="#DejaVuSans-2e" x="63.623047"/>
       <use xlink:href="#DejaVuSans-33" x="95.410156"/>
       <use xlink:href="#DejaVuSans-35" x="159.033203"/>
      </g>
     </g>
    </g>
    <g id="ytick_23">
     <g id="line2d_71">
      <path d="M 1183.090909 1147.194918 
L 1944 1147.194918 
" clip-path="url(#pcce93b6881)" style="fill: none; stroke: #ffffff; stroke-linecap: round"/>
     </g>
     <g id="text_75">
      <!-- 0.40 -->
      <g style="fill: #262626" transform="translate(1112.36044 1157.642769) scale(0.275 -0.275)">
       <use xlink:href="#DejaVuSans-30"/>
       <use xlink:href="#DejaVuSans-2e" x="63.623047"/>
       <use xlink:href="#DejaVuSans-34" x="95.410156"/>
       <use xlink:href="#DejaVuSans-30" x="159.033203"/>
      </g>
     </g>
    </g>
    <g id="ytick_24">
     <g id="line2d_72">
      <path d="M 1183.090909 1051.899198 
L 1944 1051.899198 
" clip-path="url(#pcce93b6881)" style="fill: none; stroke: #ffffff; stroke-linecap: round"/>
     </g>
     <g id="text_76">
      <!-- 0.45 -->
      <g style="fill: #262626" transform="translate(1112.36044 1062.34705) scale(0.275 -0.275)">
       <use xlink:href="#DejaVuSans-30"/>
       <use xlink:href="#DejaVuSans-2e" x="63.623047"/>
       <use xlink:href="#DejaVuSans-34" x="95.410156"/>
       <use xlink:href="#DejaVuSans-35" x="159.033203"/>
      </g>
     </g>
    </g>
    <g id="ytick_25">
     <g id="line2d_73">
      <path d="M 1183.090909 956.603479 
L 1944 956.603479 
" clip-path="url(#pcce93b6881)" style="fill: none; stroke: #ffffff; stroke-linecap: round"/>
     </g>
     <g id="text_77">
      <!-- 0.50 -->
      <g style="fill: #262626" transform="translate(1112.36044 967.051331) scale(0.275 -0.275)">
       <use xlink:href="#DejaVuSans-30"/>
       <use xlink:href="#DejaVuSans-2e" x="63.623047"/>
       <use xlink:href="#DejaVuSans-35" x="95.410156"/>
       <use xlink:href="#DejaVuSans-30" x="159.033203"/>
      </g>
     </g>
    </g>
    <g id="ytick_26">
     <g id="line2d_74">
      <path d="M 1183.090909 861.30776 
L 1944 861.30776 
" clip-path="url(#pcce93b6881)" style="fill: none; stroke: #ffffff; stroke-linecap: round"/>
     </g>
     <g id="text_78">
      <!-- 0.55 -->
      <g style="fill: #262626" transform="translate(1112.36044 871.755611) scale(0.275 -0.275)">
       <use xlink:href="#DejaVuSans-30"/>
       <use xlink:href="#DejaVuSans-2e" x="63.623047"/>
       <use xlink:href="#DejaVuSans-35" x="95.410156"/>
       <use xlink:href="#DejaVuSans-35" x="159.033203"/>
      </g>
     </g>
    </g>
    <g id="text_79">
     <!-- testing accuracy -->
     <g style="fill: #262626" transform="translate(1102.121378 1154.046094) rotate(-90) scale(0.3 -0.3)">
      <use xlink:href="#DejaVuSans-74"/>
      <use xlink:href="#DejaVuSans-65" x="39.208984"/>
      <use xlink:href="#DejaVuSans-73" x="100.732422"/>
      <use xlink:href="#DejaVuSans-74" x="152.832031"/>
      <use xlink:href="#DejaVuSans-69" x="192.041016"/>
      <use xlink:href="#DejaVuSans-6e" x="219.824219"/>
      <use xlink:href="#DejaVuSans-67" x="283.203125"/>
      <use xlink:href="#DejaVuSans-20" x="346.679688"/>
      <use xlink:href="#DejaVuSans-61" x="378.466797"/>
      <use xlink:href="#DejaVuSans-63" x="439.746094"/>
      <use xlink:href="#DejaVuSans-63" x="494.726562"/>
      <use xlink:href="#DejaVuSans-75" x="549.707031"/>
      <use xlink:href="#DejaVuSans-72" x="613.085938"/>
      <use xlink:href="#DejaVuSans-61" x="654.199219"/>
      <use xlink:href="#DejaVuSans-63" x="715.478516"/>
      <use xlink:href="#DejaVuSans-79" x="770.458984"/>
     </g>
    </g>
   </g>
   <g id="PolyCollection_7"/>
   <g id="PolyCollection_8"/>
   <g id="line2d_75">
    <path d="M 1217.677686 1213.139555 
L 1235.414495 1258.690909 
L 1253.151303 1199.22638 
L 1270.888112 1208.946544 
L 1288.624921 1206.468855 
L 1306.361729 1105.455393 
L 1324.098538 1058.569899 
L 1341.835346 1076.104311 
L 1359.572155 1094.210498 
L 1377.308964 1068.861836 
L 1395.045772 999.486553 
L 1412.782581 985.382786 
L 1430.51939 964.417728 
L 1448.256198 972.231977 
L 1465.993007 975.853214 
L 1483.729816 929.158312 
L 1501.466624 911.052125 
L 1519.203433 894.661262 
L 1536.940242 896.567176 
L 1554.67705 911.814491 
L 1572.413859 873.886795 
L 1590.150668 884.750507 
L 1607.887476 872.552655 
L 1625.624285 868.359643 
L 1643.361093 855.018242 
L 1661.097902 850.444048 
L 1678.834711 849.109908 
L 1696.571519 859.592437 
L 1714.308328 838.436787 
L 1732.045137 848.919316 
L 1749.781945 833.100227 
L 1767.518754 835.577916 
L 1785.255563 846.82281 
L 1802.992371 832.337861 
L 1820.72918 837.865013 
L 1838.465989 829.860172 
L 1856.202797 833.290818 
L 1873.939606 830.81313 
L 1891.676414 836.340281 
L 1909.413223 831.194313 
" clip-path="url(#pcce93b6881)" style="fill: none; stroke: #4c72b0; stroke-width: 1.5; stroke-linecap: round"/>
   </g>
   <g id="line2d_76">
    <path d="M 1217.677686 1121.274482 
L 1235.414495 1053.995704 
L 1253.151303 1008.825533 
L 1270.888112 992.434669 
L 1288.624921 961.368265 
L 1306.361729 959.462351 
L 1324.098538 929.920678 
L 1341.835346 924.774709 
L 1359.572155 901.331962 
L 1377.308964 899.616639 
L 1395.045772 906.287339 
L 1412.782581 897.13895 
L 1430.51939 867.97846 
L 1448.256198 863.785448 
L 1465.993007 876.745666 
L 1483.729816 864.357223 
L 1501.466624 854.255877 
L 1519.203433 846.632219 
L 1536.940242 851.587596 
L 1554.67705 851.778188 
L 1572.413859 822.427106 
L 1590.150668 827.001301 
L 1607.887476 820.330601 
L 1625.624285 827.573075 
L 1643.361093 831.384904 
L 1661.097902 821.283558 
L 1678.834711 816.518772 
L 1696.571519 837.674421 
L 1714.308328 806.226834 
L 1732.045137 817.66232 
L 1749.781945 815.565815 
L 1767.518754 818.424686 
L 1785.255563 807.751566 
L 1802.992371 811.563394 
L 1820.72918 818.234095 
L 1838.465989 800.509091 
L 1856.202797 809.848071 
L 1873.939606 800.890274 
L 1891.676414 809.848071 
L 1909.413223 806.036243 
" clip-path="url(#pcce93b6881)" style="fill: none; stroke: #dd8452; stroke-width: 1.5; stroke-linecap: round"/>
   </g>
   <g id="patch_21">
    <path d="M 1183.090909 1281.6 
L 1183.090909 777.6 
" style="fill: none; stroke: #ffffff; stroke-width: 1.25; stroke-linejoin: miter; stroke-linecap: square"/>
   </g>
   <g id="patch_22">
    <path d="M 1944 1281.6 
L 1944 777.6 
" style="fill: none; stroke: #ffffff; stroke-width: 1.25; stroke-linejoin: miter; stroke-linecap: square"/>
   </g>
   <g id="patch_23">
    <path d="M 1183.090909 1281.6 
L 1944 1281.6 
" style="fill: none; stroke: #ffffff; stroke-width: 1.25; stroke-linejoin: miter; stroke-linecap: square"/>
   </g>
   <g id="patch_24">
    <path d="M 1183.090909 777.6 
L 1944 777.6 
" style="fill: none; stroke: #ffffff; stroke-width: 1.25; stroke-linejoin: miter; stroke-linecap: square"/>
   </g>
   <g id="text_80">
    <!-- Testing accuracy of Focal Loss (gamma=2) -->
    <g style="fill: #262626" transform="translate(1242.12358 771.6) scale(0.3 -0.3)">
     <use xlink:href="#DejaVuSans-54"/>
     <use xlink:href="#DejaVuSans-65" x="44.083984"/>
     <use xlink:href="#DejaVuSans-73" x="105.607422"/>
     <use xlink:href="#DejaVuSans-74" x="157.707031"/>
     <use xlink:href="#DejaVuSans-69" x="196.916016"/>
     <use xlink:href="#DejaVuSans-6e" x="224.699219"/>
     <use xlink:href="#DejaVuSans-67" x="288.078125"/>
     <use xlink:href="#DejaVuSans-20" x="351.554688"/>
     <use xlink:href="#DejaVuSans-61" x="383.341797"/>
     <use xlink:href="#DejaVuSans-63" x="444.621094"/>
     <use xlink:href="#DejaVuSans-63" x="499.601562"/>
     <use xlink:href="#DejaVuSans-75" x="554.582031"/>
     <use xlink:href="#DejaVuSans-72" x="617.960938"/>
     <use xlink:href="#DejaVuSans-61" x="659.074219"/>
     <use xlink:href="#DejaVuSans-63" x="720.353516"/>
     <use xlink:href="#DejaVuSans-79" x="775.333984"/>
     <use xlink:href="#DejaVuSans-20" x="834.513672"/>
     <use xlink:href="#DejaVuSans-6f" x="866.300781"/>
     <use xlink:href="#DejaVuSans-66" x="927.482422"/>
     <use xlink:href="#DejaVuSans-20" x="962.6875"/>
     <use xlink:href="#DejaVuSans-46" x="994.474609"/>
     <use xlink:href="#DejaVuSans-6f" x="1048.369141"/>
     <use xlink:href="#DejaVuSans-63" x="1109.550781"/>
     <use xlink:href="#DejaVuSans-61" x="1164.53125"/>
     <use xlink:href="#DejaVuSans-6c" x="1225.810547"/>
     <use xlink:href="#DejaVuSans-20" x="1253.59375"/>
     <use xlink:href="#DejaVuSans-4c" x="1285.380859"/>
     <use xlink:href="#DejaVuSans-6f" x="1339.34375"/>
     <use xlink:href="#DejaVuSans-73" x="1400.525391"/>
     <use xlink:href="#DejaVuSans-73" x="1452.625"/>
     <use xlink:href="#DejaVuSans-20" x="1504.724609"/>
     <use xlink:href="#DejaVuSans-28" x="1536.511719"/>
     <use xlink:href="#DejaVuSans-67" x="1575.525391"/>
     <use xlink:href="#DejaVuSans-61" x="1639.001953"/>
     <use xlink:href="#DejaVuSans-6d" x="1700.28125"/>
     <use xlink:href="#DejaVuSans-6d" x="1797.693359"/>
     <use xlink:href="#DejaVuSans-61" x="1895.105469"/>
     <use xlink:href="#DejaVuSans-3d" x="1956.384766"/>
     <use xlink:href="#DejaVuSans-32" x="2040.173828"/>
     <use xlink:href="#DejaVuSans-29" x="2103.796875"/>
    </g>
   </g>
   <g id="legend_4">
    <g id="patch_25">
     <path d="M 1696.478516 1267.85 
L 1924.75 1267.85 
Q 1930.25 1267.85 1930.25 1262.35 
L 1930.25 1182.840625 
Q 1930.25 1177.340625 1924.75 1177.340625 
L 1696.478516 1177.340625 
Q 1690.978516 1177.340625 1690.978516 1182.840625 
L 1690.978516 1262.35 
Q 1690.978516 1267.85 1696.478516 1267.85 
z
" style="fill: #eaeaf2; opacity: 0.8; stroke: #cccccc; stroke-linejoin: miter"/>
    </g>
    <g id="line2d_77">
     <path d="M 1701.978516 1199.611328 
L 1729.478516 1199.611328 
L 1756.978516 1199.611328 
" style="fill: none; stroke: #4c72b0; stroke-width: 1.5; stroke-linecap: round"/>
    </g>
    <g id="text_81">
     <!-- acc_SGD -->
     <g style="fill: #262626" transform="translate(1778.978516 1209.236328) scale(0.275 -0.275)">
      <use xlink:href="#DejaVuSans-61"/>
      <use xlink:href="#DejaVuSans-63" x="61.279297"/>
      <use xlink:href="#DejaVuSans-63" x="116.259766"/>
      <use xlink:href="#DejaVuSans-5f" x="171.240234"/>
      <use xlink:href="#DejaVuSans-53" x="221.240234"/>
      <use xlink:href="#DejaVuSans-47" x="284.716797"/>
      <use xlink:href="#DejaVuSans-44" x="362.207031"/>
     </g>
    </g>
    <g id="line2d_78">
     <path d="M 1701.978516 1240.741016 
L 1729.478516 1240.741016 
L 1756.978516 1240.741016 
" style="fill: none; stroke: #dd8452; stroke-width: 1.5; stroke-linecap: round"/>
    </g>
    <g id="text_82">
     <!-- acc_Adam -->
     <g style="fill: #262626" transform="translate(1778.978516 1250.366016) scale(0.275 -0.275)">
      <use xlink:href="#DejaVuSans-61"/>
      <use xlink:href="#DejaVuSans-63" x="61.279297"/>
      <use xlink:href="#DejaVuSans-63" x="116.259766"/>
      <use xlink:href="#DejaVuSans-5f" x="171.240234"/>
      <use xlink:href="#DejaVuSans-41" x="221.240234"/>
      <use xlink:href="#DejaVuSans-64" x="287.898438"/>
      <use xlink:href="#DejaVuSans-61" x="351.375"/>
      <use xlink:href="#DejaVuSans-6d" x="412.654297"/>
     </g>
    </g>
   </g>
  </g>
  <g id="text_83">
   <!-- Testing accuracy of different loss functions -->
   <g transform="translate(652.4125 59.19375) scale(0.4 -0.4)">
    <use xlink:href="#DejaVuSans-54"/>
    <use xlink:href="#DejaVuSans-65" x="44.083984"/>
    <use xlink:href="#DejaVuSans-73" x="105.607422"/>
    <use xlink:href="#DejaVuSans-74" x="157.707031"/>
    <use xlink:href="#DejaVuSans-69" x="196.916016"/>
    <use xlink:href="#DejaVuSans-6e" x="224.699219"/>
    <use xlink:href="#DejaVuSans-67" x="288.078125"/>
    <use xlink:href="#DejaVuSans-20" x="351.554688"/>
    <use xlink:href="#DejaVuSans-61" x="383.341797"/>
    <use xlink:href="#DejaVuSans-63" x="444.621094"/>
    <use xlink:href="#DejaVuSans-63" x="499.601562"/>
    <use xlink:href="#DejaVuSans-75" x="554.582031"/>
    <use xlink:href="#DejaVuSans-72" x="617.960938"/>
    <use xlink:href="#DejaVuSans-61" x="659.074219"/>
    <use xlink:href="#DejaVuSans-63" x="720.353516"/>
    <use xlink:href="#DejaVuSans-79" x="775.333984"/>
    <use xlink:href="#DejaVuSans-20" x="834.513672"/>
    <use xlink:href="#DejaVuSans-6f" x="866.300781"/>
    <use xlink:href="#DejaVuSans-66" x="927.482422"/>
    <use xlink:href="#DejaVuSans-20" x="962.6875"/>
    <use xlink:href="#DejaVuSans-64" x="994.474609"/>
    <use xlink:href="#DejaVuSans-69" x="1057.951172"/>
    <use xlink:href="#DejaVuSans-66" x="1085.734375"/>
    <use xlink:href="#DejaVuSans-66" x="1120.939453"/>
    <use xlink:href="#DejaVuSans-65" x="1156.144531"/>
    <use xlink:href="#DejaVuSans-72" x="1217.667969"/>
    <use xlink:href="#DejaVuSans-65" x="1256.53125"/>
    <use xlink:href="#DejaVuSans-6e" x="1318.054688"/>
    <use xlink:href="#DejaVuSans-74" x="1381.433594"/>
    <use xlink:href="#DejaVuSans-20" x="1420.642578"/>
    <use xlink:href="#DejaVuSans-6c" x="1452.429688"/>
    <use xlink:href="#DejaVuSans-6f" x="1480.212891"/>
    <use xlink:href="#DejaVuSans-73" x="1541.394531"/>
    <use xlink:href="#DejaVuSans-73" x="1593.494141"/>
    <use xlink:href="#DejaVuSans-20" x="1645.59375"/>
    <use xlink:href="#DejaVuSans-66" x="1677.380859"/>
    <use xlink:href="#DejaVuSans-75" x="1712.585938"/>
    <use xlink:href="#DejaVuSans-6e" x="1775.964844"/>
    <use xlink:href="#DejaVuSans-63" x="1839.34375"/>
    <use xlink:href="#DejaVuSans-74" x="1894.324219"/>
    <use xlink:href="#DejaVuSans-69" x="1933.533203"/>
    <use xlink:href="#DejaVuSans-6f" x="1961.316406"/>
    <use xlink:href="#DejaVuSans-6e" x="2022.498047"/>
    <use xlink:href="#DejaVuSans-73" x="2085.876953"/>
   </g>
  </g>
 </g>
 <defs>
  <clipPath id="pdd0a571eea">
   <rect x="270" y="172.8" width="760.909091" height="504"/>
  </clipPath>
  <clipPath id="peaf389367d">
   <rect x="1183.090909" y="172.8" width="760.909091" height="504"/>
  </clipPath>
  <clipPath id="p7031d71e56">
   <rect x="270" y="777.6" width="760.909091" height="504"/>
  </clipPath>
  <clipPath id="pcce93b6881">
   <rect x="1183.090909" y="777.6" width="760.909091" height="504"/>
  </clipPath>
 </defs>
</svg>
