<?xml version="1.0" encoding="utf-8" standalone="no"?>
<!DOCTYPE svg PUBLIC "-//W3C//DTD SVG 1.1//EN"
  "http://www.w3.org/Graphics/SVG/1.1/DTD/svg11.dtd">
<svg xmlns:xlink="http://www.w3.org/1999/xlink" width="2160pt" height="1080pt" viewBox="0 0 2160 1080" xmlns="http://www.w3.org/2000/svg" version="1.1">
 <metadata>
  <rdf:RDF xmlns:dc="http://purl.org/dc/elements/1.1/" xmlns:cc="http://creativecommons.org/ns#" xmlns:rdf="http://www.w3.org/1999/02/22-rdf-syntax-ns#">
   <cc:Work>
    <dc:type rdf:resource="http://purl.org/dc/dcmitype/StillImage"/>
    <dc:date>2023-10-28T01:12:50.133412</dc:date>
    <dc:format>image/svg+xml</dc:format>
    <dc:creator>
     <cc:Agent>
      <dc:title>Matplotlib v3.5.1, https://matplotlib.org/</dc:title>
     </cc:Agent>
    </dc:creator>
   </cc:Work>
  </rdf:RDF>
 </metadata>
 <defs>
  <style type="text/css">*{stroke-linejoin: round; stroke-linecap: butt}</style>
 </defs>
 <g id="figure_1">
  <g id="patch_1">
   <path d="M 0 1080 
L 2160 1080 
L 2160 0 
L 0 0 
z
" style="fill: #ffffff"/>
  </g>
  <g id="axes_1">
   <g id="patch_2">
    <path d="M 270 945 
L 1030.909091 945 
L 1030.909091 129.6 
L 270 129.6 
z
" style="fill: #eaeaf2"/>
   </g>
   <g id="matplotlib.axis_1">
    <g id="xtick_1">
     <g id="line2d_1">
      <path d="M 304.586777 945 
L 304.586777 129.6 
" clip-path="url(#p9fa071735e)" style="fill: none; stroke: #ffffff; stroke-linecap: round"/>
     </g>
     <g id="text_1">
      <!-- 0 -->
      <g style="fill: #262626" transform="translate(296.940488 974.183984)scale(0.275 -0.275)">
       <defs>
        <path id="ArialMT-30" d="M 266 2259 
Q 266 3072 433 3567 
Q 600 4063 929 4331 
Q 1259 4600 1759 4600 
Q 2128 4600 2406 4451 
Q 2684 4303 2865 4023 
Q 3047 3744 3150 3342 
Q 3253 2941 3253 2259 
Q 3253 1453 3087 958 
Q 2922 463 2592 192 
Q 2263 -78 1759 -78 
Q 1097 -78 719 397 
Q 266 969 266 2259 
z
M 844 2259 
Q 844 1131 1108 757 
Q 1372 384 1759 384 
Q 2147 384 2411 759 
Q 2675 1134 2675 2259 
Q 2675 3391 2411 3762 
Q 2147 4134 1753 4134 
Q 1366 4134 1134 3806 
Q 844 3388 844 2259 
z
" transform="scale(0.015625)"/>
       </defs>
       <use xlink:href="#ArialMT-30"/>
      </g>
     </g>
    </g>
    <g id="xtick_2">
     <g id="line2d_2">
      <path d="M 393.27082 945 
L 393.27082 129.6 
" clip-path="url(#p9fa071735e)" style="fill: none; stroke: #ffffff; stroke-linecap: round"/>
     </g>
     <g id="text_2">
      <!-- 5 -->
      <g style="fill: #262626" transform="translate(385.624531 974.183984)scale(0.275 -0.275)">
       <defs>
        <path id="ArialMT-35" d="M 266 1200 
L 856 1250 
Q 922 819 1161 601 
Q 1400 384 1738 384 
Q 2144 384 2425 690 
Q 2706 997 2706 1503 
Q 2706 1984 2436 2262 
Q 2166 2541 1728 2541 
Q 1456 2541 1237 2417 
Q 1019 2294 894 2097 
L 366 2166 
L 809 4519 
L 3088 4519 
L 3088 3981 
L 1259 3981 
L 1013 2750 
Q 1425 3038 1878 3038 
Q 2478 3038 2890 2622 
Q 3303 2206 3303 1553 
Q 3303 931 2941 478 
Q 2500 -78 1738 -78 
Q 1113 -78 717 272 
Q 322 622 266 1200 
z
" transform="scale(0.015625)"/>
       </defs>
       <use xlink:href="#ArialMT-35"/>
      </g>
     </g>
    </g>
    <g id="xtick_3">
     <g id="line2d_3">
      <path d="M 481.954863 945 
L 481.954863 129.6 
" clip-path="url(#p9fa071735e)" style="fill: none; stroke: #ffffff; stroke-linecap: round"/>
     </g>
     <g id="text_3">
      <!-- 10 -->
      <g style="fill: #262626" transform="translate(466.662285 974.183984)scale(0.275 -0.275)">
       <defs>
        <path id="ArialMT-31" d="M 2384 0 
L 1822 0 
L 1822 3584 
Q 1619 3391 1289 3197 
Q 959 3003 697 2906 
L 697 3450 
Q 1169 3672 1522 3987 
Q 1875 4303 2022 4600 
L 2384 4600 
L 2384 0 
z
" transform="scale(0.015625)"/>
       </defs>
       <use xlink:href="#ArialMT-31"/>
       <use xlink:href="#ArialMT-30" x="55.615234"/>
      </g>
     </g>
    </g>
    <g id="xtick_4">
     <g id="line2d_4">
      <path d="M 570.638907 945 
L 570.638907 129.6 
" clip-path="url(#p9fa071735e)" style="fill: none; stroke: #ffffff; stroke-linecap: round"/>
     </g>
     <g id="text_4">
      <!-- 15 -->
      <g style="fill: #262626" transform="translate(555.346328 974.183984)scale(0.275 -0.275)">
       <use xlink:href="#ArialMT-31"/>
       <use xlink:href="#ArialMT-35" x="55.615234"/>
      </g>
     </g>
    </g>
    <g id="xtick_5">
     <g id="line2d_5">
      <path d="M 659.32295 945 
L 659.32295 129.6 
" clip-path="url(#p9fa071735e)" style="fill: none; stroke: #ffffff; stroke-linecap: round"/>
     </g>
     <g id="text_5">
      <!-- 20 -->
      <g style="fill: #262626" transform="translate(644.030372 974.183984)scale(0.275 -0.275)">
       <defs>
        <path id="ArialMT-32" d="M 3222 541 
L 3222 0 
L 194 0 
Q 188 203 259 391 
Q 375 700 629 1000 
Q 884 1300 1366 1694 
Q 2113 2306 2375 2664 
Q 2638 3022 2638 3341 
Q 2638 3675 2398 3904 
Q 2159 4134 1775 4134 
Q 1369 4134 1125 3890 
Q 881 3647 878 3216 
L 300 3275 
Q 359 3922 746 4261 
Q 1134 4600 1788 4600 
Q 2447 4600 2831 4234 
Q 3216 3869 3216 3328 
Q 3216 3053 3103 2787 
Q 2991 2522 2730 2228 
Q 2469 1934 1863 1422 
Q 1356 997 1212 845 
Q 1069 694 975 541 
L 3222 541 
z
" transform="scale(0.015625)"/>
       </defs>
       <use xlink:href="#ArialMT-32"/>
       <use xlink:href="#ArialMT-30" x="55.615234"/>
      </g>
     </g>
    </g>
    <g id="xtick_6">
     <g id="line2d_6">
      <path d="M 748.006993 945 
L 748.006993 129.6 
" clip-path="url(#p9fa071735e)" style="fill: none; stroke: #ffffff; stroke-linecap: round"/>
     </g>
     <g id="text_6">
      <!-- 25 -->
      <g style="fill: #262626" transform="translate(732.714415 974.183984)scale(0.275 -0.275)">
       <use xlink:href="#ArialMT-32"/>
       <use xlink:href="#ArialMT-35" x="55.615234"/>
      </g>
     </g>
    </g>
    <g id="xtick_7">
     <g id="line2d_7">
      <path d="M 836.691036 945 
L 836.691036 129.6 
" clip-path="url(#p9fa071735e)" style="fill: none; stroke: #ffffff; stroke-linecap: round"/>
     </g>
     <g id="text_7">
      <!-- 30 -->
      <g style="fill: #262626" transform="translate(821.398458 974.183984)scale(0.275 -0.275)">
       <defs>
        <path id="ArialMT-33" d="M 269 1209 
L 831 1284 
Q 928 806 1161 595 
Q 1394 384 1728 384 
Q 2125 384 2398 659 
Q 2672 934 2672 1341 
Q 2672 1728 2419 1979 
Q 2166 2231 1775 2231 
Q 1616 2231 1378 2169 
L 1441 2663 
Q 1497 2656 1531 2656 
Q 1891 2656 2178 2843 
Q 2466 3031 2466 3422 
Q 2466 3731 2256 3934 
Q 2047 4138 1716 4138 
Q 1388 4138 1169 3931 
Q 950 3725 888 3313 
L 325 3413 
Q 428 3978 793 4289 
Q 1159 4600 1703 4600 
Q 2078 4600 2393 4439 
Q 2709 4278 2876 4000 
Q 3044 3722 3044 3409 
Q 3044 3113 2884 2869 
Q 2725 2625 2413 2481 
Q 2819 2388 3044 2092 
Q 3269 1797 3269 1353 
Q 3269 753 2831 336 
Q 2394 -81 1725 -81 
Q 1122 -81 723 278 
Q 325 638 269 1209 
z
" transform="scale(0.015625)"/>
       </defs>
       <use xlink:href="#ArialMT-33"/>
       <use xlink:href="#ArialMT-30" x="55.615234"/>
      </g>
     </g>
    </g>
    <g id="xtick_8">
     <g id="line2d_8">
      <path d="M 925.375079 945 
L 925.375079 129.6 
" clip-path="url(#p9fa071735e)" style="fill: none; stroke: #ffffff; stroke-linecap: round"/>
     </g>
     <g id="text_8">
      <!-- 35 -->
      <g style="fill: #262626" transform="translate(910.082501 974.183984)scale(0.275 -0.275)">
       <use xlink:href="#ArialMT-33"/>
       <use xlink:href="#ArialMT-35" x="55.615234"/>
      </g>
     </g>
    </g>
    <g id="xtick_9">
     <g id="line2d_9">
      <path d="M 1014.059123 945 
L 1014.059123 129.6 
" clip-path="url(#p9fa071735e)" style="fill: none; stroke: #ffffff; stroke-linecap: round"/>
     </g>
     <g id="text_9">
      <!-- 40 -->
      <g style="fill: #262626" transform="translate(998.766545 974.183984)scale(0.275 -0.275)">
       <defs>
        <path id="ArialMT-34" d="M 2069 0 
L 2069 1097 
L 81 1097 
L 81 1613 
L 2172 4581 
L 2631 4581 
L 2631 1613 
L 3250 1613 
L 3250 1097 
L 2631 1097 
L 2631 0 
L 2069 0 
z
M 2069 1613 
L 2069 3678 
L 634 1613 
L 2069 1613 
z
" transform="scale(0.015625)"/>
       </defs>
       <use xlink:href="#ArialMT-34"/>
       <use xlink:href="#ArialMT-30" x="55.615234"/>
      </g>
     </g>
    </g>
    <g id="text_10">
     <!-- Epoch -->
     <g style="fill: #262626" transform="translate(607.924858 1005.123047)scale(0.3 -0.3)">
      <defs>
       <path id="ArialMT-45" d="M 506 0 
L 506 4581 
L 3819 4581 
L 3819 4041 
L 1113 4041 
L 1113 2638 
L 3647 2638 
L 3647 2100 
L 1113 2100 
L 1113 541 
L 3925 541 
L 3925 0 
L 506 0 
z
" transform="scale(0.015625)"/>
       <path id="ArialMT-70" d="M 422 -1272 
L 422 3319 
L 934 3319 
L 934 2888 
Q 1116 3141 1344 3267 
Q 1572 3394 1897 3394 
Q 2322 3394 2647 3175 
Q 2972 2956 3137 2557 
Q 3303 2159 3303 1684 
Q 3303 1175 3120 767 
Q 2938 359 2589 142 
Q 2241 -75 1856 -75 
Q 1575 -75 1351 44 
Q 1128 163 984 344 
L 984 -1272 
L 422 -1272 
z
M 931 1641 
Q 931 1000 1190 694 
Q 1450 388 1819 388 
Q 2194 388 2461 705 
Q 2728 1022 2728 1688 
Q 2728 2322 2467 2637 
Q 2206 2953 1844 2953 
Q 1484 2953 1207 2617 
Q 931 2281 931 1641 
z
" transform="scale(0.015625)"/>
       <path id="ArialMT-6f" d="M 213 1659 
Q 213 2581 725 3025 
Q 1153 3394 1769 3394 
Q 2453 3394 2887 2945 
Q 3322 2497 3322 1706 
Q 3322 1066 3130 698 
Q 2938 331 2570 128 
Q 2203 -75 1769 -75 
Q 1072 -75 642 372 
Q 213 819 213 1659 
z
M 791 1659 
Q 791 1022 1069 705 
Q 1347 388 1769 388 
Q 2188 388 2466 706 
Q 2744 1025 2744 1678 
Q 2744 2294 2464 2611 
Q 2184 2928 1769 2928 
Q 1347 2928 1069 2612 
Q 791 2297 791 1659 
z
" transform="scale(0.015625)"/>
       <path id="ArialMT-63" d="M 2588 1216 
L 3141 1144 
Q 3050 572 2676 248 
Q 2303 -75 1759 -75 
Q 1078 -75 664 370 
Q 250 816 250 1647 
Q 250 2184 428 2587 
Q 606 2991 970 3192 
Q 1334 3394 1763 3394 
Q 2303 3394 2647 3120 
Q 2991 2847 3088 2344 
L 2541 2259 
Q 2463 2594 2264 2762 
Q 2066 2931 1784 2931 
Q 1359 2931 1093 2626 
Q 828 2322 828 1663 
Q 828 994 1084 691 
Q 1341 388 1753 388 
Q 2084 388 2306 591 
Q 2528 794 2588 1216 
z
" transform="scale(0.015625)"/>
       <path id="ArialMT-68" d="M 422 0 
L 422 4581 
L 984 4581 
L 984 2938 
Q 1378 3394 1978 3394 
Q 2347 3394 2619 3248 
Q 2891 3103 3008 2847 
Q 3125 2591 3125 2103 
L 3125 0 
L 2563 0 
L 2563 2103 
Q 2563 2525 2380 2717 
Q 2197 2909 1863 2909 
Q 1613 2909 1392 2779 
Q 1172 2650 1078 2428 
Q 984 2206 984 1816 
L 984 0 
L 422 0 
z
" transform="scale(0.015625)"/>
      </defs>
      <use xlink:href="#ArialMT-45"/>
      <use xlink:href="#ArialMT-70" x="66.699219"/>
      <use xlink:href="#ArialMT-6f" x="122.314453"/>
      <use xlink:href="#ArialMT-63" x="177.929688"/>
      <use xlink:href="#ArialMT-68" x="227.929688"/>
     </g>
    </g>
   </g>
   <g id="matplotlib.axis_2">
    <g id="ytick_1">
     <g id="line2d_10">
      <path d="M 270 829.183455 
L 1030.909091 829.183455 
" clip-path="url(#p9fa071735e)" style="fill: none; stroke: #ffffff; stroke-linecap: round"/>
     </g>
     <g id="text_11">
      <!-- 0.35 -->
      <g style="fill: #262626" transform="translate(206.982422 839.025448)scale(0.275 -0.275)">
       <defs>
        <path id="ArialMT-2e" d="M 581 0 
L 581 641 
L 1222 641 
L 1222 0 
L 581 0 
z
" transform="scale(0.015625)"/>
       </defs>
       <use xlink:href="#ArialMT-30"/>
       <use xlink:href="#ArialMT-2e" x="55.615234"/>
       <use xlink:href="#ArialMT-33" x="83.398438"/>
       <use xlink:href="#ArialMT-35" x="139.013672"/>
      </g>
     </g>
    </g>
    <g id="ytick_2">
     <g id="line2d_11">
      <path d="M 270 682.802585 
L 1030.909091 682.802585 
" clip-path="url(#p9fa071735e)" style="fill: none; stroke: #ffffff; stroke-linecap: round"/>
     </g>
     <g id="text_12">
      <!-- 0.40 -->
      <g style="fill: #262626" transform="translate(206.982422 692.644577)scale(0.275 -0.275)">
       <use xlink:href="#ArialMT-30"/>
       <use xlink:href="#ArialMT-2e" x="55.615234"/>
       <use xlink:href="#ArialMT-34" x="83.398438"/>
       <use xlink:href="#ArialMT-30" x="139.013672"/>
      </g>
     </g>
    </g>
    <g id="ytick_3">
     <g id="line2d_12">
      <path d="M 270 536.421715 
L 1030.909091 536.421715 
" clip-path="url(#p9fa071735e)" style="fill: none; stroke: #ffffff; stroke-linecap: round"/>
     </g>
     <g id="text_13">
      <!-- 0.45 -->
      <g style="fill: #262626" transform="translate(206.982422 546.263707)scale(0.275 -0.275)">
       <use xlink:href="#ArialMT-30"/>
       <use xlink:href="#ArialMT-2e" x="55.615234"/>
       <use xlink:href="#ArialMT-34" x="83.398438"/>
       <use xlink:href="#ArialMT-35" x="139.013672"/>
      </g>
     </g>
    </g>
    <g id="ytick_4">
     <g id="line2d_13">
      <path d="M 270 390.040844 
L 1030.909091 390.040844 
" clip-path="url(#p9fa071735e)" style="fill: none; stroke: #ffffff; stroke-linecap: round"/>
     </g>
     <g id="text_14">
      <!-- 0.50 -->
      <g style="fill: #262626" transform="translate(206.982422 399.882837)scale(0.275 -0.275)">
       <use xlink:href="#ArialMT-30"/>
       <use xlink:href="#ArialMT-2e" x="55.615234"/>
       <use xlink:href="#ArialMT-35" x="83.398438"/>
       <use xlink:href="#ArialMT-30" x="139.013672"/>
      </g>
     </g>
    </g>
    <g id="ytick_5">
     <g id="line2d_14">
      <path d="M 270 243.659974 
L 1030.909091 243.659974 
" clip-path="url(#p9fa071735e)" style="fill: none; stroke: #ffffff; stroke-linecap: round"/>
     </g>
     <g id="text_15">
      <!-- 0.55 -->
      <g style="fill: #262626" transform="translate(206.982422 253.501966)scale(0.275 -0.275)">
       <use xlink:href="#ArialMT-30"/>
       <use xlink:href="#ArialMT-2e" x="55.615234"/>
       <use xlink:href="#ArialMT-35" x="83.398438"/>
       <use xlink:href="#ArialMT-35" x="139.013672"/>
      </g>
     </g>
    </g>
    <g id="text_16">
     <!-- Testing accuracy -->
     <g style="fill: #262626" transform="translate(196.668359 649.003125)rotate(-90)scale(0.3 -0.3)">
      <defs>
       <path id="ArialMT-54" d="M 1659 0 
L 1659 4041 
L 150 4041 
L 150 4581 
L 3781 4581 
L 3781 4041 
L 2266 4041 
L 2266 0 
L 1659 0 
z
" transform="scale(0.015625)"/>
       <path id="ArialMT-65" d="M 2694 1069 
L 3275 997 
Q 3138 488 2766 206 
Q 2394 -75 1816 -75 
Q 1088 -75 661 373 
Q 234 822 234 1631 
Q 234 2469 665 2931 
Q 1097 3394 1784 3394 
Q 2450 3394 2872 2941 
Q 3294 2488 3294 1666 
Q 3294 1616 3291 1516 
L 816 1516 
Q 847 969 1125 678 
Q 1403 388 1819 388 
Q 2128 388 2347 550 
Q 2566 713 2694 1069 
z
M 847 1978 
L 2700 1978 
Q 2663 2397 2488 2606 
Q 2219 2931 1791 2931 
Q 1403 2931 1139 2672 
Q 875 2413 847 1978 
z
" transform="scale(0.015625)"/>
       <path id="ArialMT-73" d="M 197 991 
L 753 1078 
Q 800 744 1014 566 
Q 1228 388 1613 388 
Q 2000 388 2187 545 
Q 2375 703 2375 916 
Q 2375 1106 2209 1216 
Q 2094 1291 1634 1406 
Q 1016 1563 777 1677 
Q 538 1791 414 1992 
Q 291 2194 291 2438 
Q 291 2659 392 2848 
Q 494 3038 669 3163 
Q 800 3259 1026 3326 
Q 1253 3394 1513 3394 
Q 1903 3394 2198 3281 
Q 2494 3169 2634 2976 
Q 2775 2784 2828 2463 
L 2278 2388 
Q 2241 2644 2061 2787 
Q 1881 2931 1553 2931 
Q 1166 2931 1000 2803 
Q 834 2675 834 2503 
Q 834 2394 903 2306 
Q 972 2216 1119 2156 
Q 1203 2125 1616 2013 
Q 2213 1853 2448 1751 
Q 2684 1650 2818 1456 
Q 2953 1263 2953 975 
Q 2953 694 2789 445 
Q 2625 197 2315 61 
Q 2006 -75 1616 -75 
Q 969 -75 630 194 
Q 291 463 197 991 
z
" transform="scale(0.015625)"/>
       <path id="ArialMT-74" d="M 1650 503 
L 1731 6 
Q 1494 -44 1306 -44 
Q 1000 -44 831 53 
Q 663 150 594 308 
Q 525 466 525 972 
L 525 2881 
L 113 2881 
L 113 3319 
L 525 3319 
L 525 4141 
L 1084 4478 
L 1084 3319 
L 1650 3319 
L 1650 2881 
L 1084 2881 
L 1084 941 
Q 1084 700 1114 631 
Q 1144 563 1211 522 
Q 1278 481 1403 481 
Q 1497 481 1650 503 
z
" transform="scale(0.015625)"/>
       <path id="ArialMT-69" d="M 425 3934 
L 425 4581 
L 988 4581 
L 988 3934 
L 425 3934 
z
M 425 0 
L 425 3319 
L 988 3319 
L 988 0 
L 425 0 
z
" transform="scale(0.015625)"/>
       <path id="ArialMT-6e" d="M 422 0 
L 422 3319 
L 928 3319 
L 928 2847 
Q 1294 3394 1984 3394 
Q 2284 3394 2536 3286 
Q 2788 3178 2913 3003 
Q 3038 2828 3088 2588 
Q 3119 2431 3119 2041 
L 3119 0 
L 2556 0 
L 2556 2019 
Q 2556 2363 2490 2533 
Q 2425 2703 2258 2804 
Q 2091 2906 1866 2906 
Q 1506 2906 1245 2678 
Q 984 2450 984 1813 
L 984 0 
L 422 0 
z
" transform="scale(0.015625)"/>
       <path id="ArialMT-67" d="M 319 -275 
L 866 -356 
Q 900 -609 1056 -725 
Q 1266 -881 1628 -881 
Q 2019 -881 2231 -725 
Q 2444 -569 2519 -288 
Q 2563 -116 2559 434 
Q 2191 0 1641 0 
Q 956 0 581 494 
Q 206 988 206 1678 
Q 206 2153 378 2554 
Q 550 2956 876 3175 
Q 1203 3394 1644 3394 
Q 2231 3394 2613 2919 
L 2613 3319 
L 3131 3319 
L 3131 450 
Q 3131 -325 2973 -648 
Q 2816 -972 2473 -1159 
Q 2131 -1347 1631 -1347 
Q 1038 -1347 672 -1080 
Q 306 -813 319 -275 
z
M 784 1719 
Q 784 1066 1043 766 
Q 1303 466 1694 466 
Q 2081 466 2343 764 
Q 2606 1063 2606 1700 
Q 2606 2309 2336 2618 
Q 2066 2928 1684 2928 
Q 1309 2928 1046 2623 
Q 784 2319 784 1719 
z
" transform="scale(0.015625)"/>
       <path id="ArialMT-20" transform="scale(0.015625)"/>
       <path id="ArialMT-61" d="M 2588 409 
Q 2275 144 1986 34 
Q 1697 -75 1366 -75 
Q 819 -75 525 192 
Q 231 459 231 875 
Q 231 1119 342 1320 
Q 453 1522 633 1644 
Q 813 1766 1038 1828 
Q 1203 1872 1538 1913 
Q 2219 1994 2541 2106 
Q 2544 2222 2544 2253 
Q 2544 2597 2384 2738 
Q 2169 2928 1744 2928 
Q 1347 2928 1158 2789 
Q 969 2650 878 2297 
L 328 2372 
Q 403 2725 575 2942 
Q 747 3159 1072 3276 
Q 1397 3394 1825 3394 
Q 2250 3394 2515 3294 
Q 2781 3194 2906 3042 
Q 3031 2891 3081 2659 
Q 3109 2516 3109 2141 
L 3109 1391 
Q 3109 606 3145 398 
Q 3181 191 3288 0 
L 2700 0 
Q 2613 175 2588 409 
z
M 2541 1666 
Q 2234 1541 1622 1453 
Q 1275 1403 1131 1340 
Q 988 1278 909 1158 
Q 831 1038 831 891 
Q 831 666 1001 516 
Q 1172 366 1500 366 
Q 1825 366 2078 508 
Q 2331 650 2450 897 
Q 2541 1088 2541 1459 
L 2541 1666 
z
" transform="scale(0.015625)"/>
       <path id="ArialMT-75" d="M 2597 0 
L 2597 488 
Q 2209 -75 1544 -75 
Q 1250 -75 995 37 
Q 741 150 617 320 
Q 494 491 444 738 
Q 409 903 409 1263 
L 409 3319 
L 972 3319 
L 972 1478 
Q 972 1038 1006 884 
Q 1059 663 1231 536 
Q 1403 409 1656 409 
Q 1909 409 2131 539 
Q 2353 669 2445 892 
Q 2538 1116 2538 1541 
L 2538 3319 
L 3100 3319 
L 3100 0 
L 2597 0 
z
" transform="scale(0.015625)"/>
       <path id="ArialMT-72" d="M 416 0 
L 416 3319 
L 922 3319 
L 922 2816 
Q 1116 3169 1280 3281 
Q 1444 3394 1641 3394 
Q 1925 3394 2219 3213 
L 2025 2691 
Q 1819 2813 1613 2813 
Q 1428 2813 1281 2702 
Q 1134 2591 1072 2394 
Q 978 2094 978 1738 
L 978 0 
L 416 0 
z
" transform="scale(0.015625)"/>
       <path id="ArialMT-79" d="M 397 -1278 
L 334 -750 
Q 519 -800 656 -800 
Q 844 -800 956 -737 
Q 1069 -675 1141 -563 
Q 1194 -478 1313 -144 
Q 1328 -97 1363 -6 
L 103 3319 
L 709 3319 
L 1400 1397 
Q 1534 1031 1641 628 
Q 1738 1016 1872 1384 
L 2581 3319 
L 3144 3319 
L 1881 -56 
Q 1678 -603 1566 -809 
Q 1416 -1088 1222 -1217 
Q 1028 -1347 759 -1347 
Q 597 -1347 397 -1278 
z
" transform="scale(0.015625)"/>
      </defs>
      <use xlink:href="#ArialMT-54"/>
      <use xlink:href="#ArialMT-65" x="49.958984"/>
      <use xlink:href="#ArialMT-73" x="105.574219"/>
      <use xlink:href="#ArialMT-74" x="155.574219"/>
      <use xlink:href="#ArialMT-69" x="183.357422"/>
      <use xlink:href="#ArialMT-6e" x="205.574219"/>
      <use xlink:href="#ArialMT-67" x="261.189453"/>
      <use xlink:href="#ArialMT-20" x="316.804688"/>
      <use xlink:href="#ArialMT-61" x="344.587891"/>
      <use xlink:href="#ArialMT-63" x="400.203125"/>
      <use xlink:href="#ArialMT-63" x="450.203125"/>
      <use xlink:href="#ArialMT-75" x="500.203125"/>
      <use xlink:href="#ArialMT-72" x="555.818359"/>
      <use xlink:href="#ArialMT-61" x="589.119141"/>
      <use xlink:href="#ArialMT-63" x="644.734375"/>
      <use xlink:href="#ArialMT-79" x="694.734375"/>
     </g>
    </g>
   </g>
   <g id="line2d_15">
    <path d="M 304.586777 782.634339 
L 322.323586 741.354933 
L 340.060394 762.141017 
L 357.797203 668.45726 
L 375.534011 763.604826 
L 393.27082 519.734296 
L 411.007629 548.424946 
L 428.744437 506.560017 
L 446.481246 469.379276 
L 464.218055 506.560017 
L 481.954863 427.221586 
L 499.691672 385.356657 
L 517.428481 344.662775 
L 535.165289 347.590392 
L 552.902098 363.98505 
L 570.638907 265.617105 
L 588.375715 293.42947 
L 606.112524 261.811202 
L 623.849332 236.048169 
L 641.586141 242.196165 
L 659.32295 210.577897 
L 677.059758 213.798277 
L 694.796567 213.505515 
L 712.533376 217.311417 
L 730.270184 218.482464 
L 748.006993 218.482464 
L 765.743802 202.380569 
L 783.48061 194.476002 
L 801.217419 206.186471 
L 818.954228 199.452951 
L 836.691036 180.423438 
L 854.427845 178.081344 
L 872.164654 179.252391 
L 889.901462 178.374106 
L 907.638271 178.374106 
L 925.375079 183.351056 
L 943.111888 181.301723 
L 960.848697 173.98268 
L 978.585505 178.081344 
L 996.322314 174.568203 
" clip-path="url(#p9fa071735e)" style="fill: none; stroke: #4c72b0; stroke-width: 1.5; stroke-linecap: round"/>
   </g>
   <g id="line2d_16">
    <path d="M 304.586777 907.936364 
L 322.323586 741.354933 
L 340.060394 740.76941 
L 357.797203 706.223524 
L 375.534011 674.019733 
L 393.27082 590.875399 
L 411.007629 542.27695 
L 428.744437 496.89888 
L 446.481246 517.684963 
L 464.218055 503.046876 
L 481.954863 443.323481 
L 499.691672 361.642956 
L 517.428481 367.49819 
L 535.165289 372.47514 
L 552.902098 393.261224 
L 570.638907 308.067557 
L 588.375715 310.116889 
L 606.112524 274.399957 
L 623.849332 289.330806 
L 641.586141 357.544291 
L 659.32295 222.288367 
L 677.059758 216.433132 
L 694.796567 227.85084 
L 712.533376 228.729125 
L 730.270184 222.288367 
L 748.006993 189.20629 
L 765.743802 212.919991 
L 783.48061 200.038475 
L 801.217419 185.400388 
L 818.954228 217.604179 
L 836.691036 181.008962 
L 854.427845 171.933348 
L 872.164654 186.864196 
L 889.901462 181.301723 
L 907.638271 187.742482 
L 925.375079 175.153727 
L 943.111888 178.959629 
L 960.848697 166.663636 
L 978.585505 180.7162 
L 996.322314 174.275442 
" clip-path="url(#p9fa071735e)" style="fill: none; stroke: #dd8452; stroke-width: 1.5; stroke-linecap: round"/>
   </g>
   <g id="line2d_17">
    <path d="M 304.586777 796.979664 
L 322.323586 771.802154 
L 340.060394 668.45726 
L 357.797203 666.700689 
L 375.534011 660.552693 
L 393.27082 530.56648 
L 411.007629 541.691426 
L 428.744437 492.507454 
L 446.481246 516.221155 
L 464.218055 458.25433 
L 481.954863 367.205429 
L 499.691672 355.202197 
L 517.428481 338.514778 
L 535.165289 354.03115 
L 552.902098 371.304093 
L 570.638907 323.291168 
L 588.375715 286.110427 
L 606.112524 255.370444 
L 623.849332 286.110427 
L 641.586141 303.383369 
L 659.32295 221.410082 
L 677.059758 220.824558 
L 694.796567 250.100732 
L 712.533376 240.146833 
L 730.270184 215.554847 
L 748.006993 225.801508 
L 765.743802 201.209522 
L 783.48061 205.015424 
L 801.217419 222.581129 
L 818.954228 207.357518 
L 836.691036 186.571435 
L 854.427845 180.423438 
L 872.164654 195.061525 
L 889.901462 183.058294 
L 907.638271 190.670099 
L 925.375079 193.012193 
L 943.111888 181.594485 
L 960.848697 197.696381 
L 978.585505 179.837915 
L 996.322314 176.032012 
" clip-path="url(#p9fa071735e)" style="fill: none; stroke: #55a868; stroke-width: 1.5; stroke-linecap: round"/>
   </g>
   <g id="patch_3">
    <path d="M 270 945 
L 270 129.6 
" style="fill: none; stroke: #ffffff; stroke-width: 1.25; stroke-linejoin: miter; stroke-linecap: square"/>
   </g>
   <g id="patch_4">
    <path d="M 1030.909091 945 
L 1030.909091 129.6 
" style="fill: none; stroke: #ffffff; stroke-width: 1.25; stroke-linejoin: miter; stroke-linecap: square"/>
   </g>
   <g id="patch_5">
    <path d="M 270 945 
L 1030.909091 945 
" style="fill: none; stroke: #ffffff; stroke-width: 1.25; stroke-linejoin: miter; stroke-linecap: square"/>
   </g>
   <g id="patch_6">
    <path d="M 270 129.6 
L 1030.909091 129.6 
" style="fill: none; stroke: #ffffff; stroke-width: 1.25; stroke-linejoin: miter; stroke-linecap: square"/>
   </g>
   <g id="text_17">
    <!-- Testing accuracy of different loss functions in SGD optimizer -->
    <g style="fill: #262626" transform="translate(251.40767 123.6)scale(0.3 -0.3)">
     <defs>
      <path id="ArialMT-66" d="M 556 0 
L 556 2881 
L 59 2881 
L 59 3319 
L 556 3319 
L 556 3672 
Q 556 4006 616 4169 
Q 697 4388 901 4523 
Q 1106 4659 1475 4659 
Q 1713 4659 2000 4603 
L 1916 4113 
Q 1741 4144 1584 4144 
Q 1328 4144 1222 4034 
Q 1116 3925 1116 3625 
L 1116 3319 
L 1763 3319 
L 1763 2881 
L 1116 2881 
L 1116 0 
L 556 0 
z
" transform="scale(0.015625)"/>
      <path id="ArialMT-64" d="M 2575 0 
L 2575 419 
Q 2259 -75 1647 -75 
Q 1250 -75 917 144 
Q 584 363 401 755 
Q 219 1147 219 1656 
Q 219 2153 384 2558 
Q 550 2963 881 3178 
Q 1213 3394 1622 3394 
Q 1922 3394 2156 3267 
Q 2391 3141 2538 2938 
L 2538 4581 
L 3097 4581 
L 3097 0 
L 2575 0 
z
M 797 1656 
Q 797 1019 1065 703 
Q 1334 388 1700 388 
Q 2069 388 2326 689 
Q 2584 991 2584 1609 
Q 2584 2291 2321 2609 
Q 2059 2928 1675 2928 
Q 1300 2928 1048 2622 
Q 797 2316 797 1656 
z
" transform="scale(0.015625)"/>
      <path id="ArialMT-6c" d="M 409 0 
L 409 4581 
L 972 4581 
L 972 0 
L 409 0 
z
" transform="scale(0.015625)"/>
      <path id="ArialMT-53" d="M 288 1472 
L 859 1522 
Q 900 1178 1048 958 
Q 1197 738 1509 602 
Q 1822 466 2213 466 
Q 2559 466 2825 569 
Q 3091 672 3220 851 
Q 3350 1031 3350 1244 
Q 3350 1459 3225 1620 
Q 3100 1781 2813 1891 
Q 2628 1963 1997 2114 
Q 1366 2266 1113 2400 
Q 784 2572 623 2826 
Q 463 3081 463 3397 
Q 463 3744 659 4045 
Q 856 4347 1234 4503 
Q 1613 4659 2075 4659 
Q 2584 4659 2973 4495 
Q 3363 4331 3572 4012 
Q 3781 3694 3797 3291 
L 3216 3247 
Q 3169 3681 2898 3903 
Q 2628 4125 2100 4125 
Q 1550 4125 1298 3923 
Q 1047 3722 1047 3438 
Q 1047 3191 1225 3031 
Q 1400 2872 2139 2705 
Q 2878 2538 3153 2413 
Q 3553 2228 3743 1945 
Q 3934 1663 3934 1294 
Q 3934 928 3725 604 
Q 3516 281 3123 101 
Q 2731 -78 2241 -78 
Q 1619 -78 1198 103 
Q 778 284 539 648 
Q 300 1013 288 1472 
z
" transform="scale(0.015625)"/>
      <path id="ArialMT-47" d="M 2638 1797 
L 2638 2334 
L 4578 2338 
L 4578 638 
Q 4131 281 3656 101 
Q 3181 -78 2681 -78 
Q 2006 -78 1454 211 
Q 903 500 622 1047 
Q 341 1594 341 2269 
Q 341 2938 620 3517 
Q 900 4097 1425 4378 
Q 1950 4659 2634 4659 
Q 3131 4659 3532 4498 
Q 3934 4338 4162 4050 
Q 4391 3763 4509 3300 
L 3963 3150 
Q 3859 3500 3706 3700 
Q 3553 3900 3268 4020 
Q 2984 4141 2638 4141 
Q 2222 4141 1919 4014 
Q 1616 3888 1430 3681 
Q 1244 3475 1141 3228 
Q 966 2803 966 2306 
Q 966 1694 1177 1281 
Q 1388 869 1791 669 
Q 2194 469 2647 469 
Q 3041 469 3416 620 
Q 3791 772 3984 944 
L 3984 1797 
L 2638 1797 
z
" transform="scale(0.015625)"/>
      <path id="ArialMT-44" d="M 494 0 
L 494 4581 
L 2072 4581 
Q 2606 4581 2888 4516 
Q 3281 4425 3559 4188 
Q 3922 3881 4101 3404 
Q 4281 2928 4281 2316 
Q 4281 1794 4159 1391 
Q 4038 988 3847 723 
Q 3656 459 3429 307 
Q 3203 156 2883 78 
Q 2563 0 2147 0 
L 494 0 
z
M 1100 541 
L 2078 541 
Q 2531 541 2789 625 
Q 3047 709 3200 863 
Q 3416 1078 3536 1442 
Q 3656 1806 3656 2325 
Q 3656 3044 3420 3430 
Q 3184 3816 2847 3947 
Q 2603 4041 2063 4041 
L 1100 4041 
L 1100 541 
z
" transform="scale(0.015625)"/>
      <path id="ArialMT-6d" d="M 422 0 
L 422 3319 
L 925 3319 
L 925 2853 
Q 1081 3097 1340 3245 
Q 1600 3394 1931 3394 
Q 2300 3394 2536 3241 
Q 2772 3088 2869 2813 
Q 3263 3394 3894 3394 
Q 4388 3394 4653 3120 
Q 4919 2847 4919 2278 
L 4919 0 
L 4359 0 
L 4359 2091 
Q 4359 2428 4304 2576 
Q 4250 2725 4106 2815 
Q 3963 2906 3769 2906 
Q 3419 2906 3187 2673 
Q 2956 2441 2956 1928 
L 2956 0 
L 2394 0 
L 2394 2156 
Q 2394 2531 2256 2718 
Q 2119 2906 1806 2906 
Q 1569 2906 1367 2781 
Q 1166 2656 1075 2415 
Q 984 2175 984 1722 
L 984 0 
L 422 0 
z
" transform="scale(0.015625)"/>
      <path id="ArialMT-7a" d="M 125 0 
L 125 456 
L 2238 2881 
Q 1878 2863 1603 2863 
L 250 2863 
L 250 3319 
L 2963 3319 
L 2963 2947 
L 1166 841 
L 819 456 
Q 1197 484 1528 484 
L 3063 484 
L 3063 0 
L 125 0 
z
" transform="scale(0.015625)"/>
     </defs>
     <use xlink:href="#ArialMT-54"/>
     <use xlink:href="#ArialMT-65" x="49.958984"/>
     <use xlink:href="#ArialMT-73" x="105.574219"/>
     <use xlink:href="#ArialMT-74" x="155.574219"/>
     <use xlink:href="#ArialMT-69" x="183.357422"/>
     <use xlink:href="#ArialMT-6e" x="205.574219"/>
     <use xlink:href="#ArialMT-67" x="261.189453"/>
     <use xlink:href="#ArialMT-20" x="316.804688"/>
     <use xlink:href="#ArialMT-61" x="344.587891"/>
     <use xlink:href="#ArialMT-63" x="400.203125"/>
     <use xlink:href="#ArialMT-63" x="450.203125"/>
     <use xlink:href="#ArialMT-75" x="500.203125"/>
     <use xlink:href="#ArialMT-72" x="555.818359"/>
     <use xlink:href="#ArialMT-61" x="589.119141"/>
     <use xlink:href="#ArialMT-63" x="644.734375"/>
     <use xlink:href="#ArialMT-79" x="694.734375"/>
     <use xlink:href="#ArialMT-20" x="744.734375"/>
     <use xlink:href="#ArialMT-6f" x="772.517578"/>
     <use xlink:href="#ArialMT-66" x="828.132812"/>
     <use xlink:href="#ArialMT-20" x="855.916016"/>
     <use xlink:href="#ArialMT-64" x="883.699219"/>
     <use xlink:href="#ArialMT-69" x="939.314453"/>
     <use xlink:href="#ArialMT-66" x="961.53125"/>
     <use xlink:href="#ArialMT-66" x="987.564453"/>
     <use xlink:href="#ArialMT-65" x="1015.347656"/>
     <use xlink:href="#ArialMT-72" x="1070.962891"/>
     <use xlink:href="#ArialMT-65" x="1104.263672"/>
     <use xlink:href="#ArialMT-6e" x="1159.878906"/>
     <use xlink:href="#ArialMT-74" x="1215.494141"/>
     <use xlink:href="#ArialMT-20" x="1243.277344"/>
     <use xlink:href="#ArialMT-6c" x="1271.060547"/>
     <use xlink:href="#ArialMT-6f" x="1293.277344"/>
     <use xlink:href="#ArialMT-73" x="1348.892578"/>
     <use xlink:href="#ArialMT-73" x="1398.892578"/>
     <use xlink:href="#ArialMT-20" x="1448.892578"/>
     <use xlink:href="#ArialMT-66" x="1476.675781"/>
     <use xlink:href="#ArialMT-75" x="1504.458984"/>
     <use xlink:href="#ArialMT-6e" x="1560.074219"/>
     <use xlink:href="#ArialMT-63" x="1615.689453"/>
     <use xlink:href="#ArialMT-74" x="1665.689453"/>
     <use xlink:href="#ArialMT-69" x="1693.472656"/>
     <use xlink:href="#ArialMT-6f" x="1715.689453"/>
     <use xlink:href="#ArialMT-6e" x="1771.304688"/>
     <use xlink:href="#ArialMT-73" x="1826.919922"/>
     <use xlink:href="#ArialMT-20" x="1876.919922"/>
     <use xlink:href="#ArialMT-69" x="1904.703125"/>
     <use xlink:href="#ArialMT-6e" x="1926.919922"/>
     <use xlink:href="#ArialMT-20" x="1982.535156"/>
     <use xlink:href="#ArialMT-53" x="2010.318359"/>
     <use xlink:href="#ArialMT-47" x="2077.017578"/>
     <use xlink:href="#ArialMT-44" x="2154.800781"/>
     <use xlink:href="#ArialMT-20" x="2227.017578"/>
     <use xlink:href="#ArialMT-6f" x="2254.800781"/>
     <use xlink:href="#ArialMT-70" x="2310.416016"/>
     <use xlink:href="#ArialMT-74" x="2366.03125"/>
     <use xlink:href="#ArialMT-69" x="2393.814453"/>
     <use xlink:href="#ArialMT-6d" x="2416.03125"/>
     <use xlink:href="#ArialMT-69" x="2499.332031"/>
     <use xlink:href="#ArialMT-7a" x="2521.548828"/>
     <use xlink:href="#ArialMT-65" x="2571.548828"/>
     <use xlink:href="#ArialMT-72" x="2627.164062"/>
    </g>
   </g>
   <g id="legend_1">
    <g id="patch_7">
     <path d="M 537.778232 931.25 
L 1011.659091 931.25 
Q 1017.159091 931.25 1017.159091 925.75 
L 1017.159091 810.151172 
Q 1017.159091 804.651172 1011.659091 804.651172 
L 537.778232 804.651172 
Q 532.278232 804.651172 532.278232 810.151172 
L 532.278232 925.75 
Q 532.278232 931.25 537.778232 931.25 
z
" style="fill: #eaeaf2; opacity: 0.8; stroke: #cccccc; stroke-linejoin: miter"/>
    </g>
    <g id="line2d_18">
     <path d="M 543.278232 826.045313 
L 570.778232 826.045313 
L 598.278232 826.045313 
" style="fill: none; stroke: #4c72b0; stroke-width: 1.5; stroke-linecap: round"/>
    </g>
    <g id="text_18">
     <!-- CE_acc_SGD -->
     <g style="fill: #262626" transform="translate(620.278232 835.670313)scale(0.275 -0.275)">
      <defs>
       <path id="ArialMT-43" d="M 3763 1606 
L 4369 1453 
Q 4178 706 3683 314 
Q 3188 -78 2472 -78 
Q 1731 -78 1267 223 
Q 803 525 561 1097 
Q 319 1669 319 2325 
Q 319 3041 592 3573 
Q 866 4106 1370 4382 
Q 1875 4659 2481 4659 
Q 3169 4659 3637 4309 
Q 4106 3959 4291 3325 
L 3694 3184 
Q 3534 3684 3231 3912 
Q 2928 4141 2469 4141 
Q 1941 4141 1586 3887 
Q 1231 3634 1087 3207 
Q 944 2781 944 2328 
Q 944 1744 1114 1308 
Q 1284 872 1643 656 
Q 2003 441 2422 441 
Q 2931 441 3284 734 
Q 3638 1028 3763 1606 
z
" transform="scale(0.015625)"/>
       <path id="ArialMT-5f" d="M -97 -1272 
L -97 -866 
L 3631 -866 
L 3631 -1272 
L -97 -1272 
z
" transform="scale(0.015625)"/>
      </defs>
      <use xlink:href="#ArialMT-43"/>
      <use xlink:href="#ArialMT-45" x="72.216797"/>
      <use xlink:href="#ArialMT-5f" x="138.916016"/>
      <use xlink:href="#ArialMT-61" x="194.53125"/>
      <use xlink:href="#ArialMT-63" x="250.146484"/>
      <use xlink:href="#ArialMT-63" x="300.146484"/>
      <use xlink:href="#ArialMT-5f" x="350.146484"/>
      <use xlink:href="#ArialMT-53" x="405.761719"/>
      <use xlink:href="#ArialMT-47" x="472.460938"/>
      <use xlink:href="#ArialMT-44" x="550.244141"/>
     </g>
    </g>
    <g id="line2d_19">
     <path d="M 543.278232 865.280078 
L 570.778232 865.280078 
L 598.278232 865.280078 
" style="fill: none; stroke: #dd8452; stroke-width: 1.5; stroke-linecap: round"/>
    </g>
    <g id="text_19">
     <!-- Focal(Gamma = 0.5)_acc_SGD -->
     <g style="fill: #262626" transform="translate(620.278232 874.905078)scale(0.275 -0.275)">
      <defs>
       <path id="ArialMT-46" d="M 525 0 
L 525 4581 
L 3616 4581 
L 3616 4041 
L 1131 4041 
L 1131 2622 
L 3281 2622 
L 3281 2081 
L 1131 2081 
L 1131 0 
L 525 0 
z
" transform="scale(0.015625)"/>
       <path id="ArialMT-28" d="M 1497 -1347 
Q 1031 -759 709 28 
Q 388 816 388 1659 
Q 388 2403 628 3084 
Q 909 3875 1497 4659 
L 1900 4659 
Q 1522 4009 1400 3731 
Q 1209 3300 1100 2831 
Q 966 2247 966 1656 
Q 966 153 1900 -1347 
L 1497 -1347 
z
" transform="scale(0.015625)"/>
       <path id="ArialMT-3d" d="M 3381 2694 
L 356 2694 
L 356 3219 
L 3381 3219 
L 3381 2694 
z
M 3381 1303 
L 356 1303 
L 356 1828 
L 3381 1828 
L 3381 1303 
z
" transform="scale(0.015625)"/>
       <path id="ArialMT-29" d="M 791 -1347 
L 388 -1347 
Q 1322 153 1322 1656 
Q 1322 2244 1188 2822 
Q 1081 3291 891 3722 
Q 769 4003 388 4659 
L 791 4659 
Q 1378 3875 1659 3084 
Q 1900 2403 1900 1659 
Q 1900 816 1576 28 
Q 1253 -759 791 -1347 
z
" transform="scale(0.015625)"/>
      </defs>
      <use xlink:href="#ArialMT-46"/>
      <use xlink:href="#ArialMT-6f" x="61.083984"/>
      <use xlink:href="#ArialMT-63" x="116.699219"/>
      <use xlink:href="#ArialMT-61" x="166.699219"/>
      <use xlink:href="#ArialMT-6c" x="222.314453"/>
      <use xlink:href="#ArialMT-28" x="244.53125"/>
      <use xlink:href="#ArialMT-47" x="277.832031"/>
      <use xlink:href="#ArialMT-61" x="355.615234"/>
      <use xlink:href="#ArialMT-6d" x="411.230469"/>
      <use xlink:href="#ArialMT-6d" x="494.53125"/>
      <use xlink:href="#ArialMT-61" x="577.832031"/>
      <use xlink:href="#ArialMT-20" x="633.447266"/>
      <use xlink:href="#ArialMT-3d" x="661.230469"/>
      <use xlink:href="#ArialMT-20" x="719.628906"/>
      <use xlink:href="#ArialMT-30" x="747.412109"/>
      <use xlink:href="#ArialMT-2e" x="803.027344"/>
      <use xlink:href="#ArialMT-35" x="830.810547"/>
      <use xlink:href="#ArialMT-29" x="886.425781"/>
      <use xlink:href="#ArialMT-5f" x="919.726562"/>
      <use xlink:href="#ArialMT-61" x="975.341797"/>
      <use xlink:href="#ArialMT-63" x="1030.957031"/>
      <use xlink:href="#ArialMT-63" x="1080.957031"/>
      <use xlink:href="#ArialMT-5f" x="1130.957031"/>
      <use xlink:href="#ArialMT-53" x="1186.572266"/>
      <use xlink:href="#ArialMT-47" x="1253.271484"/>
      <use xlink:href="#ArialMT-44" x="1331.054688"/>
     </g>
    </g>
    <g id="line2d_20">
     <path d="M 543.278232 904.837109 
L 570.778232 904.837109 
L 598.278232 904.837109 
" style="fill: none; stroke: #55a868; stroke-width: 1.5; stroke-linecap: round"/>
    </g>
    <g id="text_20">
     <!-- Focal(Gamma = 2)_acc_SGD -->
     <g style="fill: #262626" transform="translate(620.278232 914.462109)scale(0.275 -0.275)">
      <use xlink:href="#ArialMT-46"/>
      <use xlink:href="#ArialMT-6f" x="61.083984"/>
      <use xlink:href="#ArialMT-63" x="116.699219"/>
      <use xlink:href="#ArialMT-61" x="166.699219"/>
      <use xlink:href="#ArialMT-6c" x="222.314453"/>
      <use xlink:href="#ArialMT-28" x="244.53125"/>
      <use xlink:href="#ArialMT-47" x="277.832031"/>
      <use xlink:href="#ArialMT-61" x="355.615234"/>
      <use xlink:href="#ArialMT-6d" x="411.230469"/>
      <use xlink:href="#ArialMT-6d" x="494.53125"/>
      <use xlink:href="#ArialMT-61" x="577.832031"/>
      <use xlink:href="#ArialMT-20" x="633.447266"/>
      <use xlink:href="#ArialMT-3d" x="661.230469"/>
      <use xlink:href="#ArialMT-20" x="719.628906"/>
      <use xlink:href="#ArialMT-32" x="747.412109"/>
      <use xlink:href="#ArialMT-29" x="803.027344"/>
      <use xlink:href="#ArialMT-5f" x="836.328125"/>
      <use xlink:href="#ArialMT-61" x="891.943359"/>
      <use xlink:href="#ArialMT-63" x="947.558594"/>
      <use xlink:href="#ArialMT-63" x="997.558594"/>
      <use xlink:href="#ArialMT-5f" x="1047.558594"/>
      <use xlink:href="#ArialMT-53" x="1103.173828"/>
      <use xlink:href="#ArialMT-47" x="1169.873047"/>
      <use xlink:href="#ArialMT-44" x="1247.65625"/>
     </g>
    </g>
   </g>
  </g>
  <g id="axes_2">
   <g id="patch_8">
    <path d="M 1183.090909 945 
L 1944 945 
L 1944 129.6 
L 1183.090909 129.6 
z
" style="fill: #eaeaf2"/>
   </g>
   <g id="matplotlib.axis_3">
    <g id="xtick_10">
     <g id="line2d_21">
      <path d="M 1217.677686 945 
L 1217.677686 129.6 
" clip-path="url(#pd7bb259e5b)" style="fill: none; stroke: #ffffff; stroke-linecap: round"/>
     </g>
     <g id="text_21">
      <!-- 0 -->
      <g style="fill: #262626" transform="translate(1210.031397 974.183984)scale(0.275 -0.275)">
       <use xlink:href="#ArialMT-30"/>
      </g>
     </g>
    </g>
    <g id="xtick_11">
     <g id="line2d_22">
      <path d="M 1306.361729 945 
L 1306.361729 129.6 
" clip-path="url(#pd7bb259e5b)" style="fill: none; stroke: #ffffff; stroke-linecap: round"/>
     </g>
     <g id="text_22">
      <!-- 5 -->
      <g style="fill: #262626" transform="translate(1298.71544 974.183984)scale(0.275 -0.275)">
       <use xlink:href="#ArialMT-35"/>
      </g>
     </g>
    </g>
    <g id="xtick_12">
     <g id="line2d_23">
      <path d="M 1395.045772 945 
L 1395.045772 129.6 
" clip-path="url(#pd7bb259e5b)" style="fill: none; stroke: #ffffff; stroke-linecap: round"/>
     </g>
     <g id="text_23">
      <!-- 10 -->
      <g style="fill: #262626" transform="translate(1379.753194 974.183984)scale(0.275 -0.275)">
       <use xlink:href="#ArialMT-31"/>
       <use xlink:href="#ArialMT-30" x="55.615234"/>
      </g>
     </g>
    </g>
    <g id="xtick_13">
     <g id="line2d_24">
      <path d="M 1483.729816 945 
L 1483.729816 129.6 
" clip-path="url(#pd7bb259e5b)" style="fill: none; stroke: #ffffff; stroke-linecap: round"/>
     </g>
     <g id="text_24">
      <!-- 15 -->
      <g style="fill: #262626" transform="translate(1468.437238 974.183984)scale(0.275 -0.275)">
       <use xlink:href="#ArialMT-31"/>
       <use xlink:href="#ArialMT-35" x="55.615234"/>
      </g>
     </g>
    </g>
    <g id="xtick_14">
     <g id="line2d_25">
      <path d="M 1572.413859 945 
L 1572.413859 129.6 
" clip-path="url(#pd7bb259e5b)" style="fill: none; stroke: #ffffff; stroke-linecap: round"/>
     </g>
     <g id="text_25">
      <!-- 20 -->
      <g style="fill: #262626" transform="translate(1557.121281 974.183984)scale(0.275 -0.275)">
       <use xlink:href="#ArialMT-32"/>
       <use xlink:href="#ArialMT-30" x="55.615234"/>
      </g>
     </g>
    </g>
    <g id="xtick_15">
     <g id="line2d_26">
      <path d="M 1661.097902 945 
L 1661.097902 129.6 
" clip-path="url(#pd7bb259e5b)" style="fill: none; stroke: #ffffff; stroke-linecap: round"/>
     </g>
     <g id="text_26">
      <!-- 25 -->
      <g style="fill: #262626" transform="translate(1645.805324 974.183984)scale(0.275 -0.275)">
       <use xlink:href="#ArialMT-32"/>
       <use xlink:href="#ArialMT-35" x="55.615234"/>
      </g>
     </g>
    </g>
    <g id="xtick_16">
     <g id="line2d_27">
      <path d="M 1749.781945 945 
L 1749.781945 129.6 
" clip-path="url(#pd7bb259e5b)" style="fill: none; stroke: #ffffff; stroke-linecap: round"/>
     </g>
     <g id="text_27">
      <!-- 30 -->
      <g style="fill: #262626" transform="translate(1734.489367 974.183984)scale(0.275 -0.275)">
       <use xlink:href="#ArialMT-33"/>
       <use xlink:href="#ArialMT-30" x="55.615234"/>
      </g>
     </g>
    </g>
    <g id="xtick_17">
     <g id="line2d_28">
      <path d="M 1838.465989 945 
L 1838.465989 129.6 
" clip-path="url(#pd7bb259e5b)" style="fill: none; stroke: #ffffff; stroke-linecap: round"/>
     </g>
     <g id="text_28">
      <!-- 35 -->
      <g style="fill: #262626" transform="translate(1823.17341 974.183984)scale(0.275 -0.275)">
       <use xlink:href="#ArialMT-33"/>
       <use xlink:href="#ArialMT-35" x="55.615234"/>
      </g>
     </g>
    </g>
    <g id="xtick_18">
     <g id="line2d_29">
      <path d="M 1927.150032 945 
L 1927.150032 129.6 
" clip-path="url(#pd7bb259e5b)" style="fill: none; stroke: #ffffff; stroke-linecap: round"/>
     </g>
     <g id="text_29">
      <!-- 40 -->
      <g style="fill: #262626" transform="translate(1911.857454 974.183984)scale(0.275 -0.275)">
       <use xlink:href="#ArialMT-34"/>
       <use xlink:href="#ArialMT-30" x="55.615234"/>
      </g>
     </g>
    </g>
    <g id="text_30">
     <!-- Epoch -->
     <g style="fill: #262626" transform="translate(1521.015767 1005.123047)scale(0.3 -0.3)">
      <use xlink:href="#ArialMT-45"/>
      <use xlink:href="#ArialMT-70" x="66.699219"/>
      <use xlink:href="#ArialMT-6f" x="122.314453"/>
      <use xlink:href="#ArialMT-63" x="177.929688"/>
      <use xlink:href="#ArialMT-68" x="227.929688"/>
     </g>
    </g>
   </g>
   <g id="matplotlib.axis_4">
    <g id="ytick_6">
     <g id="line2d_30">
      <path d="M 1183.090909 839.465389 
L 1944 839.465389 
" clip-path="url(#pd7bb259e5b)" style="fill: none; stroke: #ffffff; stroke-linecap: round"/>
     </g>
     <g id="text_31">
      <!-- 0.425 -->
      <g style="fill: #262626" transform="translate(1104.780753 849.307381)scale(0.275 -0.275)">
       <use xlink:href="#ArialMT-30"/>
       <use xlink:href="#ArialMT-2e" x="55.615234"/>
       <use xlink:href="#ArialMT-34" x="83.398438"/>
       <use xlink:href="#ArialMT-32" x="139.013672"/>
       <use xlink:href="#ArialMT-35" x="194.628906"/>
      </g>
     </g>
    </g>
    <g id="ytick_7">
     <g id="line2d_31">
      <path d="M 1183.090909 733.143999 
L 1944 733.143999 
" clip-path="url(#pd7bb259e5b)" style="fill: none; stroke: #ffffff; stroke-linecap: round"/>
     </g>
     <g id="text_32">
      <!-- 0.450 -->
      <g style="fill: #262626" transform="translate(1104.780753 742.985992)scale(0.275 -0.275)">
       <use xlink:href="#ArialMT-30"/>
       <use xlink:href="#ArialMT-2e" x="55.615234"/>
       <use xlink:href="#ArialMT-34" x="83.398438"/>
       <use xlink:href="#ArialMT-35" x="139.013672"/>
       <use xlink:href="#ArialMT-30" x="194.628906"/>
      </g>
     </g>
    </g>
    <g id="ytick_8">
     <g id="line2d_32">
      <path d="M 1183.090909 626.82261 
L 1944 626.82261 
" clip-path="url(#pd7bb259e5b)" style="fill: none; stroke: #ffffff; stroke-linecap: round"/>
     </g>
     <g id="text_33">
      <!-- 0.475 -->
      <g style="fill: #262626" transform="translate(1104.780753 636.664602)scale(0.275 -0.275)">
       <defs>
        <path id="ArialMT-37" d="M 303 3981 
L 303 4522 
L 3269 4522 
L 3269 4084 
Q 2831 3619 2401 2847 
Q 1972 2075 1738 1259 
Q 1569 684 1522 0 
L 944 0 
Q 953 541 1156 1306 
Q 1359 2072 1739 2783 
Q 2119 3494 2547 3981 
L 303 3981 
z
" transform="scale(0.015625)"/>
       </defs>
       <use xlink:href="#ArialMT-30"/>
       <use xlink:href="#ArialMT-2e" x="55.615234"/>
       <use xlink:href="#ArialMT-34" x="83.398438"/>
       <use xlink:href="#ArialMT-37" x="139.013672"/>
       <use xlink:href="#ArialMT-35" x="194.628906"/>
      </g>
     </g>
    </g>
    <g id="ytick_9">
     <g id="line2d_33">
      <path d="M 1183.090909 520.50122 
L 1944 520.50122 
" clip-path="url(#pd7bb259e5b)" style="fill: none; stroke: #ffffff; stroke-linecap: round"/>
     </g>
     <g id="text_34">
      <!-- 0.500 -->
      <g style="fill: #262626" transform="translate(1104.780753 530.343213)scale(0.275 -0.275)">
       <use xlink:href="#ArialMT-30"/>
       <use xlink:href="#ArialMT-2e" x="55.615234"/>
       <use xlink:href="#ArialMT-35" x="83.398438"/>
       <use xlink:href="#ArialMT-30" x="139.013672"/>
       <use xlink:href="#ArialMT-30" x="194.628906"/>
      </g>
     </g>
    </g>
    <g id="ytick_10">
     <g id="line2d_34">
      <path d="M 1183.090909 414.179831 
L 1944 414.179831 
" clip-path="url(#pd7bb259e5b)" style="fill: none; stroke: #ffffff; stroke-linecap: round"/>
     </g>
     <g id="text_35">
      <!-- 0.525 -->
      <g style="fill: #262626" transform="translate(1104.780753 424.021823)scale(0.275 -0.275)">
       <use xlink:href="#ArialMT-30"/>
       <use xlink:href="#ArialMT-2e" x="55.615234"/>
       <use xlink:href="#ArialMT-35" x="83.398438"/>
       <use xlink:href="#ArialMT-32" x="139.013672"/>
       <use xlink:href="#ArialMT-35" x="194.628906"/>
      </g>
     </g>
    </g>
    <g id="ytick_11">
     <g id="line2d_35">
      <path d="M 1183.090909 307.858442 
L 1944 307.858442 
" clip-path="url(#pd7bb259e5b)" style="fill: none; stroke: #ffffff; stroke-linecap: round"/>
     </g>
     <g id="text_36">
      <!-- 0.550 -->
      <g style="fill: #262626" transform="translate(1104.780753 317.700434)scale(0.275 -0.275)">
       <use xlink:href="#ArialMT-30"/>
       <use xlink:href="#ArialMT-2e" x="55.615234"/>
       <use xlink:href="#ArialMT-35" x="83.398438"/>
       <use xlink:href="#ArialMT-35" x="139.013672"/>
       <use xlink:href="#ArialMT-30" x="194.628906"/>
      </g>
     </g>
    </g>
    <g id="ytick_12">
     <g id="line2d_36">
      <path d="M 1183.090909 201.537052 
L 1944 201.537052 
" clip-path="url(#pd7bb259e5b)" style="fill: none; stroke: #ffffff; stroke-linecap: round"/>
     </g>
     <g id="text_37">
      <!-- 0.575 -->
      <g style="fill: #262626" transform="translate(1104.780753 211.379044)scale(0.275 -0.275)">
       <use xlink:href="#ArialMT-30"/>
       <use xlink:href="#ArialMT-2e" x="55.615234"/>
       <use xlink:href="#ArialMT-35" x="83.398438"/>
       <use xlink:href="#ArialMT-37" x="139.013672"/>
       <use xlink:href="#ArialMT-35" x="194.628906"/>
      </g>
     </g>
    </g>
    <g id="text_38">
     <!-- Testing accuracy -->
     <g style="fill: #262626" transform="translate(1094.46669 649.003125)rotate(-90)scale(0.3 -0.3)">
      <use xlink:href="#ArialMT-54"/>
      <use xlink:href="#ArialMT-65" x="49.958984"/>
      <use xlink:href="#ArialMT-73" x="105.574219"/>
      <use xlink:href="#ArialMT-74" x="155.574219"/>
      <use xlink:href="#ArialMT-69" x="183.357422"/>
      <use xlink:href="#ArialMT-6e" x="205.574219"/>
      <use xlink:href="#ArialMT-67" x="261.189453"/>
      <use xlink:href="#ArialMT-20" x="316.804688"/>
      <use xlink:href="#ArialMT-61" x="344.587891"/>
      <use xlink:href="#ArialMT-63" x="400.203125"/>
      <use xlink:href="#ArialMT-63" x="450.203125"/>
      <use xlink:href="#ArialMT-75" x="500.203125"/>
      <use xlink:href="#ArialMT-72" x="555.818359"/>
      <use xlink:href="#ArialMT-61" x="589.119141"/>
      <use xlink:href="#ArialMT-63" x="644.734375"/>
      <use xlink:href="#ArialMT-79" x="694.734375"/>
     </g>
    </g>
   </g>
   <g id="line2d_37">
    <path d="M 1217.677686 892.200798 
L 1235.414495 722.51186 
L 1253.151303 647.236317 
L 1270.888112 591.098623 
L 1288.624921 568.558488 
L 1306.361729 541.340213 
L 1324.098538 462.237099 
L 1341.835346 429.490111 
L 1359.572155 430.340682 
L 1377.308964 375.05356 
L 1395.045772 363.145564 
L 1412.782581 383.133985 
L 1430.51939 343.157143 
L 1448.256198 341.456001 
L 1465.993007 354.639853 
L 1483.729816 327.421577 
L 1501.466624 315.938867 
L 1519.203433 295.099875 
L 1536.940242 258.950602 
L 1554.67705 287.444735 
L 1572.413859 283.191879 
L 1590.150668 265.755171 
L 1607.887476 279.789595 
L 1625.624285 255.123032 
L 1643.361093 321.467579 
L 1661.097902 248.318463 
L 1678.834711 214.720904 
L 1696.571519 217.272618 
L 1714.308328 205.364622 
L 1732.045137 219.824331 
L 1749.781945 215.996761 
L 1767.518754 247.042607 
L 1785.255563 204.514051 
L 1802.992371 204.939337 
L 1820.72918 207.065764 
L 1838.465989 189.629056 
L 1856.202797 176.019919 
L 1873.939606 169.21535 
L 1891.676414 173.468205 
L 1909.413223 184.100344 
" clip-path="url(#pd7bb259e5b)" style="fill: none; stroke: #4c72b0; stroke-width: 1.5; stroke-linecap: round"/>
   </g>
   <g id="line2d_38">
    <path d="M 1217.677686 907.936364 
L 1235.414495 827.132108 
L 1253.151303 620.868612 
L 1270.888112 573.661915 
L 1288.624921 508.593225 
L 1306.361729 476.271522 
L 1324.098538 453.306102 
L 1341.835346 459.685386 
L 1359.572155 399.294836 
L 1377.308964 402.697121 
L 1395.045772 355.490424 
L 1412.782581 366.973134 
L 1430.51939 329.122719 
L 1448.256198 350.812283 
L 1465.993007 361.444422 
L 1483.729816 323.168722 
L 1501.466624 332.099718 
L 1519.203433 276.812596 
L 1536.940242 306.582585 
L 1554.67705 262.352887 
L 1572.413859 249.59432 
L 1590.150668 275.962025 
L 1607.887476 288.720591 
L 1625.624285 245.76675 
L 1643.361093 256.824175 
L 1661.097902 262.352887 
L 1678.834711 249.59432 
L 1696.571519 233.008183 
L 1714.308328 212.169191 
L 1732.045137 208.341621 
L 1749.781945 213.019762 
L 1767.518754 218.97376 
L 1785.255563 206.640479 
L 1802.992371 218.97376 
L 1820.72918 186.226772 
L 1838.465989 181.548631 
L 1856.202797 217.697903 
L 1873.939606 192.606055 
L 1891.676414 201.962338 
L 1909.413223 169.640635 
" clip-path="url(#pd7bb259e5b)" style="fill: none; stroke: #dd8452; stroke-width: 1.5; stroke-linecap: round"/>
   </g>
   <g id="line2d_39">
    <path d="M 1217.677686 850.948099 
L 1235.414495 733.569285 
L 1253.151303 640.006462 
L 1270.888112 551.121781 
L 1288.624921 526.029933 
L 1306.361729 451.60496 
L 1324.098538 454.156673 
L 1341.835346 409.076404 
L 1359.572155 361.444422 
L 1377.308964 362.294993 
L 1395.045772 361.019136 
L 1412.782581 346.984713 
L 1430.51939 340.180144 
L 1448.256198 300.628587 
L 1465.993007 336.352574 
L 1483.729816 331.249147 
L 1501.466624 244.916179 
L 1519.203433 284.467736 
L 1536.940242 259.375888 
L 1554.67705 272.985026 
L 1572.413859 258.525317 
L 1590.150668 260.226459 
L 1607.887476 232.157612 
L 1625.624285 234.709326 
L 1643.361093 212.169191 
L 1661.097902 245.341465 
L 1678.834711 272.134455 
L 1696.571519 222.80133 
L 1714.308328 218.97376 
L 1732.045137 217.272618 
L 1749.781945 210.468049 
L 1767.518754 201.111767 
L 1785.255563 200.686481 
L 1802.992371 179.422203 
L 1820.72918 211.743905 
L 1838.465989 189.629056 
L 1856.202797 180.69806 
L 1873.939606 166.663636 
L 1891.676414 182.399202 
L 1909.413223 178.146346 
" clip-path="url(#pd7bb259e5b)" style="fill: none; stroke: #55a868; stroke-width: 1.5; stroke-linecap: round"/>
   </g>
   <g id="patch_9">
    <path d="M 1183.090909 945 
L 1183.090909 129.6 
" style="fill: none; stroke: #ffffff; stroke-width: 1.25; stroke-linejoin: miter; stroke-linecap: square"/>
   </g>
   <g id="patch_10">
    <path d="M 1944 945 
L 1944 129.6 
" style="fill: none; stroke: #ffffff; stroke-width: 1.25; stroke-linejoin: miter; stroke-linecap: square"/>
   </g>
   <g id="patch_11">
    <path d="M 1183.090909 945 
L 1944 945 
" style="fill: none; stroke: #ffffff; stroke-width: 1.25; stroke-linejoin: miter; stroke-linecap: square"/>
   </g>
   <g id="patch_12">
    <path d="M 1183.090909 129.6 
L 1944 129.6 
" style="fill: none; stroke: #ffffff; stroke-width: 1.25; stroke-linejoin: miter; stroke-linecap: square"/>
   </g>
   <g id="text_39">
    <!-- Testing accuracy of different loss functions in Adam optimizer -->
    <g style="fill: #262626" transform="translate(1158.646236 123.6)scale(0.3 -0.3)">
     <defs>
      <path id="ArialMT-41" d="M -9 0 
L 1750 4581 
L 2403 4581 
L 4278 0 
L 3588 0 
L 3053 1388 
L 1138 1388 
L 634 0 
L -9 0 
z
M 1313 1881 
L 2866 1881 
L 2388 3150 
Q 2169 3728 2063 4100 
Q 1975 3659 1816 3225 
L 1313 1881 
z
" transform="scale(0.015625)"/>
     </defs>
     <use xlink:href="#ArialMT-54"/>
     <use xlink:href="#ArialMT-65" x="49.958984"/>
     <use xlink:href="#ArialMT-73" x="105.574219"/>
     <use xlink:href="#ArialMT-74" x="155.574219"/>
     <use xlink:href="#ArialMT-69" x="183.357422"/>
     <use xlink:href="#ArialMT-6e" x="205.574219"/>
     <use xlink:href="#ArialMT-67" x="261.189453"/>
     <use xlink:href="#ArialMT-20" x="316.804688"/>
     <use xlink:href="#ArialMT-61" x="344.587891"/>
     <use xlink:href="#ArialMT-63" x="400.203125"/>
     <use xlink:href="#ArialMT-63" x="450.203125"/>
     <use xlink:href="#ArialMT-75" x="500.203125"/>
     <use xlink:href="#ArialMT-72" x="555.818359"/>
     <use xlink:href="#ArialMT-61" x="589.119141"/>
     <use xlink:href="#ArialMT-63" x="644.734375"/>
     <use xlink:href="#ArialMT-79" x="694.734375"/>
     <use xlink:href="#ArialMT-20" x="744.734375"/>
     <use xlink:href="#ArialMT-6f" x="772.517578"/>
     <use xlink:href="#ArialMT-66" x="828.132812"/>
     <use xlink:href="#ArialMT-20" x="855.916016"/>
     <use xlink:href="#ArialMT-64" x="883.699219"/>
     <use xlink:href="#ArialMT-69" x="939.314453"/>
     <use xlink:href="#ArialMT-66" x="961.53125"/>
     <use xlink:href="#ArialMT-66" x="987.564453"/>
     <use xlink:href="#ArialMT-65" x="1015.347656"/>
     <use xlink:href="#ArialMT-72" x="1070.962891"/>
     <use xlink:href="#ArialMT-65" x="1104.263672"/>
     <use xlink:href="#ArialMT-6e" x="1159.878906"/>
     <use xlink:href="#ArialMT-74" x="1215.494141"/>
     <use xlink:href="#ArialMT-20" x="1243.277344"/>
     <use xlink:href="#ArialMT-6c" x="1271.060547"/>
     <use xlink:href="#ArialMT-6f" x="1293.277344"/>
     <use xlink:href="#ArialMT-73" x="1348.892578"/>
     <use xlink:href="#ArialMT-73" x="1398.892578"/>
     <use xlink:href="#ArialMT-20" x="1448.892578"/>
     <use xlink:href="#ArialMT-66" x="1476.675781"/>
     <use xlink:href="#ArialMT-75" x="1504.458984"/>
     <use xlink:href="#ArialMT-6e" x="1560.074219"/>
     <use xlink:href="#ArialMT-63" x="1615.689453"/>
     <use xlink:href="#ArialMT-74" x="1665.689453"/>
     <use xlink:href="#ArialMT-69" x="1693.472656"/>
     <use xlink:href="#ArialMT-6f" x="1715.689453"/>
     <use xlink:href="#ArialMT-6e" x="1771.304688"/>
     <use xlink:href="#ArialMT-73" x="1826.919922"/>
     <use xlink:href="#ArialMT-20" x="1876.919922"/>
     <use xlink:href="#ArialMT-69" x="1904.703125"/>
     <use xlink:href="#ArialMT-6e" x="1926.919922"/>
     <use xlink:href="#ArialMT-20" x="1982.535156"/>
     <use xlink:href="#ArialMT-41" x="2004.818359"/>
     <use xlink:href="#ArialMT-64" x="2071.517578"/>
     <use xlink:href="#ArialMT-61" x="2127.132812"/>
     <use xlink:href="#ArialMT-6d" x="2182.748047"/>
     <use xlink:href="#ArialMT-20" x="2266.048828"/>
     <use xlink:href="#ArialMT-6f" x="2293.832031"/>
     <use xlink:href="#ArialMT-70" x="2349.447266"/>
     <use xlink:href="#ArialMT-74" x="2405.0625"/>
     <use xlink:href="#ArialMT-69" x="2432.845703"/>
     <use xlink:href="#ArialMT-6d" x="2455.0625"/>
     <use xlink:href="#ArialMT-69" x="2538.363281"/>
     <use xlink:href="#ArialMT-7a" x="2560.580078"/>
     <use xlink:href="#ArialMT-65" x="2610.580078"/>
     <use xlink:href="#ArialMT-72" x="2666.195312"/>
    </g>
   </g>
   <g id="legend_2">
    <g id="patch_13">
     <path d="M 1438.627344 931.25 
L 1924.75 931.25 
Q 1930.25 931.25 1930.25 925.75 
L 1930.25 810.151172 
Q 1930.25 804.651172 1924.75 804.651172 
L 1438.627344 804.651172 
Q 1433.127344 804.651172 1433.127344 810.151172 
L 1433.127344 925.75 
Q 1433.127344 931.25 1438.627344 931.25 
z
" style="fill: #eaeaf2; opacity: 0.8; stroke: #cccccc; stroke-linejoin: miter"/>
    </g>
    <g id="line2d_40">
     <path d="M 1444.127344 826.045313 
L 1471.627344 826.045313 
L 1499.127344 826.045313 
" style="fill: none; stroke: #4c72b0; stroke-width: 1.5; stroke-linecap: round"/>
    </g>
    <g id="text_40">
     <!-- CE_acc_Adam -->
     <g style="fill: #262626" transform="translate(1521.127344 835.670313)scale(0.275 -0.275)">
      <use xlink:href="#ArialMT-43"/>
      <use xlink:href="#ArialMT-45" x="72.216797"/>
      <use xlink:href="#ArialMT-5f" x="138.916016"/>
      <use xlink:href="#ArialMT-61" x="194.53125"/>
      <use xlink:href="#ArialMT-63" x="250.146484"/>
      <use xlink:href="#ArialMT-63" x="300.146484"/>
      <use xlink:href="#ArialMT-5f" x="350.146484"/>
      <use xlink:href="#ArialMT-41" x="405.761719"/>
      <use xlink:href="#ArialMT-64" x="472.460938"/>
      <use xlink:href="#ArialMT-61" x="528.076172"/>
      <use xlink:href="#ArialMT-6d" x="583.691406"/>
     </g>
    </g>
    <g id="line2d_41">
     <path d="M 1444.127344 865.280078 
L 1471.627344 865.280078 
L 1499.127344 865.280078 
" style="fill: none; stroke: #dd8452; stroke-width: 1.5; stroke-linecap: round"/>
    </g>
    <g id="text_41">
     <!-- Focal(Gamma = 0.5)_acc_Adam -->
     <g style="fill: #262626" transform="translate(1521.127344 874.905078)scale(0.275 -0.275)">
      <use xlink:href="#ArialMT-46"/>
      <use xlink:href="#ArialMT-6f" x="61.083984"/>
      <use xlink:href="#ArialMT-63" x="116.699219"/>
      <use xlink:href="#ArialMT-61" x="166.699219"/>
      <use xlink:href="#ArialMT-6c" x="222.314453"/>
      <use xlink:href="#ArialMT-28" x="244.53125"/>
      <use xlink:href="#ArialMT-47" x="277.832031"/>
      <use xlink:href="#ArialMT-61" x="355.615234"/>
      <use xlink:href="#ArialMT-6d" x="411.230469"/>
      <use xlink:href="#ArialMT-6d" x="494.53125"/>
      <use xlink:href="#ArialMT-61" x="577.832031"/>
      <use xlink:href="#ArialMT-20" x="633.447266"/>
      <use xlink:href="#ArialMT-3d" x="661.230469"/>
      <use xlink:href="#ArialMT-20" x="719.628906"/>
      <use xlink:href="#ArialMT-30" x="747.412109"/>
      <use xlink:href="#ArialMT-2e" x="803.027344"/>
      <use xlink:href="#ArialMT-35" x="830.810547"/>
      <use xlink:href="#ArialMT-29" x="886.425781"/>
      <use xlink:href="#ArialMT-5f" x="919.726562"/>
      <use xlink:href="#ArialMT-61" x="975.341797"/>
      <use xlink:href="#ArialMT-63" x="1030.957031"/>
      <use xlink:href="#ArialMT-63" x="1080.957031"/>
      <use xlink:href="#ArialMT-5f" x="1130.957031"/>
      <use xlink:href="#ArialMT-41" x="1186.572266"/>
      <use xlink:href="#ArialMT-64" x="1253.271484"/>
      <use xlink:href="#ArialMT-61" x="1308.886719"/>
      <use xlink:href="#ArialMT-6d" x="1364.501953"/>
     </g>
    </g>
    <g id="line2d_42">
     <path d="M 1444.127344 904.837109 
L 1471.627344 904.837109 
L 1499.127344 904.837109 
" style="fill: none; stroke: #55a868; stroke-width: 1.5; stroke-linecap: round"/>
    </g>
    <g id="text_42">
     <!-- Focal(Gamma = 2)_acc_Adam -->
     <g style="fill: #262626" transform="translate(1521.127344 914.462109)scale(0.275 -0.275)">
      <use xlink:href="#ArialMT-46"/>
      <use xlink:href="#ArialMT-6f" x="61.083984"/>
      <use xlink:href="#ArialMT-63" x="116.699219"/>
      <use xlink:href="#ArialMT-61" x="166.699219"/>
      <use xlink:href="#ArialMT-6c" x="222.314453"/>
      <use xlink:href="#ArialMT-28" x="244.53125"/>
      <use xlink:href="#ArialMT-47" x="277.832031"/>
      <use xlink:href="#ArialMT-61" x="355.615234"/>
      <use xlink:href="#ArialMT-6d" x="411.230469"/>
      <use xlink:href="#ArialMT-6d" x="494.53125"/>
      <use xlink:href="#ArialMT-61" x="577.832031"/>
      <use xlink:href="#ArialMT-20" x="633.447266"/>
      <use xlink:href="#ArialMT-3d" x="661.230469"/>
      <use xlink:href="#ArialMT-20" x="719.628906"/>
      <use xlink:href="#ArialMT-32" x="747.412109"/>
      <use xlink:href="#ArialMT-29" x="803.027344"/>
      <use xlink:href="#ArialMT-5f" x="836.328125"/>
      <use xlink:href="#ArialMT-61" x="891.943359"/>
      <use xlink:href="#ArialMT-63" x="947.558594"/>
      <use xlink:href="#ArialMT-63" x="997.558594"/>
      <use xlink:href="#ArialMT-5f" x="1047.558594"/>
      <use xlink:href="#ArialMT-41" x="1103.173828"/>
      <use xlink:href="#ArialMT-64" x="1169.873047"/>
      <use xlink:href="#ArialMT-61" x="1225.488281"/>
      <use xlink:href="#ArialMT-6d" x="1281.103516"/>
     </g>
    </g>
   </g>
  </g>
  <g id="text_43">
   <!-- Testing accuracy of different loss functions in distinict optimizers -->
   <g style="fill: #262626" transform="translate(514.590625 50.71875)scale(0.4 -0.4)">
    <use xlink:href="#ArialMT-54"/>
    <use xlink:href="#ArialMT-65" x="49.958984"/>
    <use xlink:href="#ArialMT-73" x="105.574219"/>
    <use xlink:href="#ArialMT-74" x="155.574219"/>
    <use xlink:href="#ArialMT-69" x="183.357422"/>
    <use xlink:href="#ArialMT-6e" x="205.574219"/>
    <use xlink:href="#ArialMT-67" x="261.189453"/>
    <use xlink:href="#ArialMT-20" x="316.804688"/>
    <use xlink:href="#ArialMT-61" x="344.587891"/>
    <use xlink:href="#ArialMT-63" x="400.203125"/>
    <use xlink:href="#ArialMT-63" x="450.203125"/>
    <use xlink:href="#ArialMT-75" x="500.203125"/>
    <use xlink:href="#ArialMT-72" x="555.818359"/>
    <use xlink:href="#ArialMT-61" x="589.119141"/>
    <use xlink:href="#ArialMT-63" x="644.734375"/>
    <use xlink:href="#ArialMT-79" x="694.734375"/>
    <use xlink:href="#ArialMT-20" x="744.734375"/>
    <use xlink:href="#ArialMT-6f" x="772.517578"/>
    <use xlink:href="#ArialMT-66" x="828.132812"/>
    <use xlink:href="#ArialMT-20" x="855.916016"/>
    <use xlink:href="#ArialMT-64" x="883.699219"/>
    <use xlink:href="#ArialMT-69" x="939.314453"/>
    <use xlink:href="#ArialMT-66" x="961.53125"/>
    <use xlink:href="#ArialMT-66" x="987.564453"/>
    <use xlink:href="#ArialMT-65" x="1015.347656"/>
    <use xlink:href="#ArialMT-72" x="1070.962891"/>
    <use xlink:href="#ArialMT-65" x="1104.263672"/>
    <use xlink:href="#ArialMT-6e" x="1159.878906"/>
    <use xlink:href="#ArialMT-74" x="1215.494141"/>
    <use xlink:href="#ArialMT-20" x="1243.277344"/>
    <use xlink:href="#ArialMT-6c" x="1271.060547"/>
    <use xlink:href="#ArialMT-6f" x="1293.277344"/>
    <use xlink:href="#ArialMT-73" x="1348.892578"/>
    <use xlink:href="#ArialMT-73" x="1398.892578"/>
    <use xlink:href="#ArialMT-20" x="1448.892578"/>
    <use xlink:href="#ArialMT-66" x="1476.675781"/>
    <use xlink:href="#ArialMT-75" x="1504.458984"/>
    <use xlink:href="#ArialMT-6e" x="1560.074219"/>
    <use xlink:href="#ArialMT-63" x="1615.689453"/>
    <use xlink:href="#ArialMT-74" x="1665.689453"/>
    <use xlink:href="#ArialMT-69" x="1693.472656"/>
    <use xlink:href="#ArialMT-6f" x="1715.689453"/>
    <use xlink:href="#ArialMT-6e" x="1771.304688"/>
    <use xlink:href="#ArialMT-73" x="1826.919922"/>
    <use xlink:href="#ArialMT-20" x="1876.919922"/>
    <use xlink:href="#ArialMT-69" x="1904.703125"/>
    <use xlink:href="#ArialMT-6e" x="1926.919922"/>
    <use xlink:href="#ArialMT-20" x="1982.535156"/>
    <use xlink:href="#ArialMT-64" x="2010.318359"/>
    <use xlink:href="#ArialMT-69" x="2065.933594"/>
    <use xlink:href="#ArialMT-73" x="2088.150391"/>
    <use xlink:href="#ArialMT-74" x="2138.150391"/>
    <use xlink:href="#ArialMT-69" x="2165.933594"/>
    <use xlink:href="#ArialMT-6e" x="2188.150391"/>
    <use xlink:href="#ArialMT-69" x="2243.765625"/>
    <use xlink:href="#ArialMT-63" x="2265.982422"/>
    <use xlink:href="#ArialMT-74" x="2315.982422"/>
    <use xlink:href="#ArialMT-20" x="2343.765625"/>
    <use xlink:href="#ArialMT-6f" x="2371.548828"/>
    <use xlink:href="#ArialMT-70" x="2427.164062"/>
    <use xlink:href="#ArialMT-74" x="2482.779297"/>
    <use xlink:href="#ArialMT-69" x="2510.5625"/>
    <use xlink:href="#ArialMT-6d" x="2532.779297"/>
    <use xlink:href="#ArialMT-69" x="2616.080078"/>
    <use xlink:href="#ArialMT-7a" x="2638.296875"/>
    <use xlink:href="#ArialMT-65" x="2688.296875"/>
    <use xlink:href="#ArialMT-72" x="2743.912109"/>
    <use xlink:href="#ArialMT-73" x="2777.212891"/>
   </g>
  </g>
 </g>
 <defs>
  <clipPath id="p9fa071735e">
   <rect x="270" y="129.6" width="760.909091" height="815.4"/>
  </clipPath>
  <clipPath id="pd7bb259e5b">
   <rect x="1183.090909" y="129.6" width="760.909091" height="815.4"/>
  </clipPath>
 </defs>
</svg>
