<?xml version="1.0" encoding="utf-8" standalone="no"?>
<!DOCTYPE svg PUBLIC "-//W3C//DTD SVG 1.1//EN"
  "http://www.w3.org/Graphics/SVG/1.1/DTD/svg11.dtd">
<svg xmlns:xlink="http://www.w3.org/1999/xlink" width="2160pt" height="1440pt" viewBox="0 0 2160 1440" xmlns="http://www.w3.org/2000/svg" version="1.1">
 <metadata>
  <rdf:RDF xmlns:dc="http://purl.org/dc/elements/1.1/" xmlns:cc="http://creativecommons.org/ns#" xmlns:rdf="http://www.w3.org/1999/02/22-rdf-syntax-ns#">
   <cc:Work>
    <dc:type rdf:resource="http://purl.org/dc/dcmitype/StillImage"/>
    <dc:date>2023-10-28T01:12:50.814486</dc:date>
    <dc:format>image/svg+xml</dc:format>
    <dc:creator>
     <cc:Agent>
      <dc:title>Matplotlib v3.5.1, https://matplotlib.org/</dc:title>
     </cc:Agent>
    </dc:creator>
   </cc:Work>
  </rdf:RDF>
 </metadata>
 <defs>
  <style type="text/css">*{stroke-linejoin: round; stroke-linecap: butt}</style>
 </defs>
 <g id="figure_1">
  <g id="patch_1">
   <path d="M 0 1440 
L 2160 1440 
L 2160 0 
L 0 0 
z
" style="fill: #ffffff"/>
  </g>
  <g id="axes_1">
   <g id="patch_2">
    <path d="M 270 666.981818 
L 1030.909091 666.981818 
L 1030.909091 172.8 
L 270 172.8 
z
" style="fill: #eaeaf2"/>
   </g>
   <g id="matplotlib.axis_1">
    <g id="xtick_1">
     <g id="line2d_1">
      <path d="M 286.38321 666.981818 
L 286.38321 172.8 
" clip-path="url(#p48dea502fd)" style="fill: none; stroke: #ffffff; stroke-linecap: round"/>
     </g>
     <g id="text_1">
      <!-- 0 -->
      <g style="fill: #262626" transform="translate(278.736921 696.165803)scale(0.275 -0.275)">
       <defs>
        <path id="ArialMT-30" d="M 266 2259 
Q 266 3072 433 3567 
Q 600 4063 929 4331 
Q 1259 4600 1759 4600 
Q 2128 4600 2406 4451 
Q 2684 4303 2865 4023 
Q 3047 3744 3150 3342 
Q 3253 2941 3253 2259 
Q 3253 1453 3087 958 
Q 2922 463 2592 192 
Q 2263 -78 1759 -78 
Q 1097 -78 719 397 
Q 266 969 266 2259 
z
M 844 2259 
Q 844 1131 1108 757 
Q 1372 384 1759 384 
Q 2147 384 2411 759 
Q 2675 1134 2675 2259 
Q 2675 3391 2411 3762 
Q 2147 4134 1753 4134 
Q 1366 4134 1134 3806 
Q 844 3388 844 2259 
z
" transform="scale(0.015625)"/>
       </defs>
       <use xlink:href="#ArialMT-30"/>
      </g>
     </g>
    </g>
    <g id="xtick_2">
     <g id="line2d_2">
      <path d="M 377.401044 666.981818 
L 377.401044 172.8 
" clip-path="url(#p48dea502fd)" style="fill: none; stroke: #ffffff; stroke-linecap: round"/>
     </g>
     <g id="text_2">
      <!-- 5 -->
      <g style="fill: #262626" transform="translate(369.754755 696.165803)scale(0.275 -0.275)">
       <defs>
        <path id="ArialMT-35" d="M 266 1200 
L 856 1250 
Q 922 819 1161 601 
Q 1400 384 1738 384 
Q 2144 384 2425 690 
Q 2706 997 2706 1503 
Q 2706 1984 2436 2262 
Q 2166 2541 1728 2541 
Q 1456 2541 1237 2417 
Q 1019 2294 894 2097 
L 366 2166 
L 809 4519 
L 3088 4519 
L 3088 3981 
L 1259 3981 
L 1013 2750 
Q 1425 3038 1878 3038 
Q 2478 3038 2890 2622 
Q 3303 2206 3303 1553 
Q 3303 931 2941 478 
Q 2500 -78 1738 -78 
Q 1113 -78 717 272 
Q 322 622 266 1200 
z
" transform="scale(0.015625)"/>
       </defs>
       <use xlink:href="#ArialMT-35"/>
      </g>
     </g>
    </g>
    <g id="xtick_3">
     <g id="line2d_3">
      <path d="M 468.418878 666.981818 
L 468.418878 172.8 
" clip-path="url(#p48dea502fd)" style="fill: none; stroke: #ffffff; stroke-linecap: round"/>
     </g>
     <g id="text_3">
      <!-- 10 -->
      <g style="fill: #262626" transform="translate(453.1263 696.165803)scale(0.275 -0.275)">
       <defs>
        <path id="ArialMT-31" d="M 2384 0 
L 1822 0 
L 1822 3584 
Q 1619 3391 1289 3197 
Q 959 3003 697 2906 
L 697 3450 
Q 1169 3672 1522 3987 
Q 1875 4303 2022 4600 
L 2384 4600 
L 2384 0 
z
" transform="scale(0.015625)"/>
       </defs>
       <use xlink:href="#ArialMT-31"/>
       <use xlink:href="#ArialMT-30" x="55.615234"/>
      </g>
     </g>
    </g>
    <g id="xtick_4">
     <g id="line2d_4">
      <path d="M 559.436712 666.981818 
L 559.436712 172.8 
" clip-path="url(#p48dea502fd)" style="fill: none; stroke: #ffffff; stroke-linecap: round"/>
     </g>
     <g id="text_4">
      <!-- 15 -->
      <g style="fill: #262626" transform="translate(544.144133 696.165803)scale(0.275 -0.275)">
       <use xlink:href="#ArialMT-31"/>
       <use xlink:href="#ArialMT-35" x="55.615234"/>
      </g>
     </g>
    </g>
    <g id="xtick_5">
     <g id="line2d_5">
      <path d="M 650.454545 666.981818 
L 650.454545 172.8 
" clip-path="url(#p48dea502fd)" style="fill: none; stroke: #ffffff; stroke-linecap: round"/>
     </g>
     <g id="text_5">
      <!-- 20 -->
      <g style="fill: #262626" transform="translate(635.161967 696.165803)scale(0.275 -0.275)">
       <defs>
        <path id="ArialMT-32" d="M 3222 541 
L 3222 0 
L 194 0 
Q 188 203 259 391 
Q 375 700 629 1000 
Q 884 1300 1366 1694 
Q 2113 2306 2375 2664 
Q 2638 3022 2638 3341 
Q 2638 3675 2398 3904 
Q 2159 4134 1775 4134 
Q 1369 4134 1125 3890 
Q 881 3647 878 3216 
L 300 3275 
Q 359 3922 746 4261 
Q 1134 4600 1788 4600 
Q 2447 4600 2831 4234 
Q 3216 3869 3216 3328 
Q 3216 3053 3103 2787 
Q 2991 2522 2730 2228 
Q 2469 1934 1863 1422 
Q 1356 997 1212 845 
Q 1069 694 975 541 
L 3222 541 
z
" transform="scale(0.015625)"/>
       </defs>
       <use xlink:href="#ArialMT-32"/>
       <use xlink:href="#ArialMT-30" x="55.615234"/>
      </g>
     </g>
    </g>
    <g id="xtick_6">
     <g id="line2d_6">
      <path d="M 741.472379 666.981818 
L 741.472379 172.8 
" clip-path="url(#p48dea502fd)" style="fill: none; stroke: #ffffff; stroke-linecap: round"/>
     </g>
     <g id="text_6">
      <!-- 25 -->
      <g style="fill: #262626" transform="translate(726.179801 696.165803)scale(0.275 -0.275)">
       <use xlink:href="#ArialMT-32"/>
       <use xlink:href="#ArialMT-35" x="55.615234"/>
      </g>
     </g>
    </g>
    <g id="xtick_7">
     <g id="line2d_7">
      <path d="M 832.490213 666.981818 
L 832.490213 172.8 
" clip-path="url(#p48dea502fd)" style="fill: none; stroke: #ffffff; stroke-linecap: round"/>
     </g>
     <g id="text_7">
      <!-- 30 -->
      <g style="fill: #262626" transform="translate(817.197635 696.165803)scale(0.275 -0.275)">
       <defs>
        <path id="ArialMT-33" d="M 269 1209 
L 831 1284 
Q 928 806 1161 595 
Q 1394 384 1728 384 
Q 2125 384 2398 659 
Q 2672 934 2672 1341 
Q 2672 1728 2419 1979 
Q 2166 2231 1775 2231 
Q 1616 2231 1378 2169 
L 1441 2663 
Q 1497 2656 1531 2656 
Q 1891 2656 2178 2843 
Q 2466 3031 2466 3422 
Q 2466 3731 2256 3934 
Q 2047 4138 1716 4138 
Q 1388 4138 1169 3931 
Q 950 3725 888 3313 
L 325 3413 
Q 428 3978 793 4289 
Q 1159 4600 1703 4600 
Q 2078 4600 2393 4439 
Q 2709 4278 2876 4000 
Q 3044 3722 3044 3409 
Q 3044 3113 2884 2869 
Q 2725 2625 2413 2481 
Q 2819 2388 3044 2092 
Q 3269 1797 3269 1353 
Q 3269 753 2831 336 
Q 2394 -81 1725 -81 
Q 1122 -81 723 278 
Q 325 638 269 1209 
z
" transform="scale(0.015625)"/>
       </defs>
       <use xlink:href="#ArialMT-33"/>
       <use xlink:href="#ArialMT-30" x="55.615234"/>
      </g>
     </g>
    </g>
    <g id="xtick_8">
     <g id="line2d_8">
      <path d="M 923.508047 666.981818 
L 923.508047 172.8 
" clip-path="url(#p48dea502fd)" style="fill: none; stroke: #ffffff; stroke-linecap: round"/>
     </g>
     <g id="text_8">
      <!-- 35 -->
      <g style="fill: #262626" transform="translate(908.215469 696.165803)scale(0.275 -0.275)">
       <use xlink:href="#ArialMT-33"/>
       <use xlink:href="#ArialMT-35" x="55.615234"/>
      </g>
     </g>
    </g>
    <g id="xtick_9">
     <g id="line2d_9">
      <path d="M 1014.525881 666.981818 
L 1014.525881 172.8 
" clip-path="url(#p48dea502fd)" style="fill: none; stroke: #ffffff; stroke-linecap: round"/>
     </g>
     <g id="text_9">
      <!-- 40 -->
      <g style="fill: #262626" transform="translate(999.233303 696.165803)scale(0.275 -0.275)">
       <defs>
        <path id="ArialMT-34" d="M 2069 0 
L 2069 1097 
L 81 1097 
L 81 1613 
L 2172 4581 
L 2631 4581 
L 2631 1613 
L 3250 1613 
L 3250 1097 
L 2631 1097 
L 2631 0 
L 2069 0 
z
M 2069 1613 
L 2069 3678 
L 634 1613 
L 2069 1613 
z
" transform="scale(0.015625)"/>
       </defs>
       <use xlink:href="#ArialMT-34"/>
       <use xlink:href="#ArialMT-30" x="55.615234"/>
      </g>
     </g>
    </g>
    <g id="text_10">
     <!-- Epoch -->
     <g style="fill: #262626" transform="translate(607.924858 727.104865)scale(0.3 -0.3)">
      <defs>
       <path id="ArialMT-45" d="M 506 0 
L 506 4581 
L 3819 4581 
L 3819 4041 
L 1113 4041 
L 1113 2638 
L 3647 2638 
L 3647 2100 
L 1113 2100 
L 1113 541 
L 3925 541 
L 3925 0 
L 506 0 
z
" transform="scale(0.015625)"/>
       <path id="ArialMT-70" d="M 422 -1272 
L 422 3319 
L 934 3319 
L 934 2888 
Q 1116 3141 1344 3267 
Q 1572 3394 1897 3394 
Q 2322 3394 2647 3175 
Q 2972 2956 3137 2557 
Q 3303 2159 3303 1684 
Q 3303 1175 3120 767 
Q 2938 359 2589 142 
Q 2241 -75 1856 -75 
Q 1575 -75 1351 44 
Q 1128 163 984 344 
L 984 -1272 
L 422 -1272 
z
M 931 1641 
Q 931 1000 1190 694 
Q 1450 388 1819 388 
Q 2194 388 2461 705 
Q 2728 1022 2728 1688 
Q 2728 2322 2467 2637 
Q 2206 2953 1844 2953 
Q 1484 2953 1207 2617 
Q 931 2281 931 1641 
z
" transform="scale(0.015625)"/>
       <path id="ArialMT-6f" d="M 213 1659 
Q 213 2581 725 3025 
Q 1153 3394 1769 3394 
Q 2453 3394 2887 2945 
Q 3322 2497 3322 1706 
Q 3322 1066 3130 698 
Q 2938 331 2570 128 
Q 2203 -75 1769 -75 
Q 1072 -75 642 372 
Q 213 819 213 1659 
z
M 791 1659 
Q 791 1022 1069 705 
Q 1347 388 1769 388 
Q 2188 388 2466 706 
Q 2744 1025 2744 1678 
Q 2744 2294 2464 2611 
Q 2184 2928 1769 2928 
Q 1347 2928 1069 2612 
Q 791 2297 791 1659 
z
" transform="scale(0.015625)"/>
       <path id="ArialMT-63" d="M 2588 1216 
L 3141 1144 
Q 3050 572 2676 248 
Q 2303 -75 1759 -75 
Q 1078 -75 664 370 
Q 250 816 250 1647 
Q 250 2184 428 2587 
Q 606 2991 970 3192 
Q 1334 3394 1763 3394 
Q 2303 3394 2647 3120 
Q 2991 2847 3088 2344 
L 2541 2259 
Q 2463 2594 2264 2762 
Q 2066 2931 1784 2931 
Q 1359 2931 1093 2626 
Q 828 2322 828 1663 
Q 828 994 1084 691 
Q 1341 388 1753 388 
Q 2084 388 2306 591 
Q 2528 794 2588 1216 
z
" transform="scale(0.015625)"/>
       <path id="ArialMT-68" d="M 422 0 
L 422 4581 
L 984 4581 
L 984 2938 
Q 1378 3394 1978 3394 
Q 2347 3394 2619 3248 
Q 2891 3103 3008 2847 
Q 3125 2591 3125 2103 
L 3125 0 
L 2563 0 
L 2563 2103 
Q 2563 2525 2380 2717 
Q 2197 2909 1863 2909 
Q 1613 2909 1392 2779 
Q 1172 2650 1078 2428 
Q 984 2206 984 1816 
L 984 0 
L 422 0 
z
" transform="scale(0.015625)"/>
      </defs>
      <use xlink:href="#ArialMT-45"/>
      <use xlink:href="#ArialMT-70" x="66.699219"/>
      <use xlink:href="#ArialMT-6f" x="122.314453"/>
      <use xlink:href="#ArialMT-63" x="177.929688"/>
      <use xlink:href="#ArialMT-68" x="227.929688"/>
     </g>
    </g>
   </g>
   <g id="matplotlib.axis_2">
    <g id="ytick_1">
     <g id="line2d_10">
      <path d="M 270 663.030037 
L 1030.909091 663.030037 
" clip-path="url(#p48dea502fd)" style="fill: none; stroke: #ffffff; stroke-linecap: round"/>
     </g>
     <g id="text_11">
      <!-- -0.06 -->
      <g style="fill: #262626" transform="translate(197.825781 672.872029)scale(0.275 -0.275)">
       <defs>
        <path id="ArialMT-2d" d="M 203 1375 
L 203 1941 
L 1931 1941 
L 1931 1375 
L 203 1375 
z
" transform="scale(0.015625)"/>
        <path id="ArialMT-2e" d="M 581 0 
L 581 641 
L 1222 641 
L 1222 0 
L 581 0 
z
" transform="scale(0.015625)"/>
        <path id="ArialMT-36" d="M 3184 3459 
L 2625 3416 
Q 2550 3747 2413 3897 
Q 2184 4138 1850 4138 
Q 1581 4138 1378 3988 
Q 1113 3794 959 3422 
Q 806 3050 800 2363 
Q 1003 2672 1297 2822 
Q 1591 2972 1913 2972 
Q 2475 2972 2870 2558 
Q 3266 2144 3266 1488 
Q 3266 1056 3080 686 
Q 2894 316 2569 119 
Q 2244 -78 1831 -78 
Q 1128 -78 684 439 
Q 241 956 241 2144 
Q 241 3472 731 4075 
Q 1159 4600 1884 4600 
Q 2425 4600 2770 4297 
Q 3116 3994 3184 3459 
z
M 888 1484 
Q 888 1194 1011 928 
Q 1134 663 1356 523 
Q 1578 384 1822 384 
Q 2178 384 2434 671 
Q 2691 959 2691 1453 
Q 2691 1928 2437 2201 
Q 2184 2475 1800 2475 
Q 1419 2475 1153 2201 
Q 888 1928 888 1484 
z
" transform="scale(0.015625)"/>
       </defs>
       <use xlink:href="#ArialMT-2d"/>
       <use xlink:href="#ArialMT-30" x="33.300781"/>
       <use xlink:href="#ArialMT-2e" x="88.916016"/>
       <use xlink:href="#ArialMT-30" x="116.699219"/>
       <use xlink:href="#ArialMT-36" x="172.314453"/>
      </g>
     </g>
    </g>
    <g id="ytick_2">
     <g id="line2d_11">
      <path d="M 270 581.468112 
L 1030.909091 581.468112 
" clip-path="url(#p48dea502fd)" style="fill: none; stroke: #ffffff; stroke-linecap: round"/>
     </g>
     <g id="text_12">
      <!-- -0.04 -->
      <g style="fill: #262626" transform="translate(197.825781 591.310105)scale(0.275 -0.275)">
       <use xlink:href="#ArialMT-2d"/>
       <use xlink:href="#ArialMT-30" x="33.300781"/>
       <use xlink:href="#ArialMT-2e" x="88.916016"/>
       <use xlink:href="#ArialMT-30" x="116.699219"/>
       <use xlink:href="#ArialMT-34" x="172.314453"/>
      </g>
     </g>
    </g>
    <g id="ytick_3">
     <g id="line2d_12">
      <path d="M 270 499.906188 
L 1030.909091 499.906188 
" clip-path="url(#p48dea502fd)" style="fill: none; stroke: #ffffff; stroke-linecap: round"/>
     </g>
     <g id="text_13">
      <!-- -0.02 -->
      <g style="fill: #262626" transform="translate(197.825781 509.74818)scale(0.275 -0.275)">
       <use xlink:href="#ArialMT-2d"/>
       <use xlink:href="#ArialMT-30" x="33.300781"/>
       <use xlink:href="#ArialMT-2e" x="88.916016"/>
       <use xlink:href="#ArialMT-30" x="116.699219"/>
       <use xlink:href="#ArialMT-32" x="172.314453"/>
      </g>
     </g>
    </g>
    <g id="ytick_4">
     <g id="line2d_13">
      <path d="M 270 418.344264 
L 1030.909091 418.344264 
" clip-path="url(#p48dea502fd)" style="fill: none; stroke: #ffffff; stroke-linecap: round"/>
     </g>
     <g id="text_14">
      <!-- 0.00 -->
      <g style="fill: #262626" transform="translate(206.982422 428.186256)scale(0.275 -0.275)">
       <use xlink:href="#ArialMT-30"/>
       <use xlink:href="#ArialMT-2e" x="55.615234"/>
       <use xlink:href="#ArialMT-30" x="83.398438"/>
       <use xlink:href="#ArialMT-30" x="139.013672"/>
      </g>
     </g>
    </g>
    <g id="ytick_5">
     <g id="line2d_14">
      <path d="M 270 336.78234 
L 1030.909091 336.78234 
" clip-path="url(#p48dea502fd)" style="fill: none; stroke: #ffffff; stroke-linecap: round"/>
     </g>
     <g id="text_15">
      <!-- 0.02 -->
      <g style="fill: #262626" transform="translate(206.982422 346.624332)scale(0.275 -0.275)">
       <use xlink:href="#ArialMT-30"/>
       <use xlink:href="#ArialMT-2e" x="55.615234"/>
       <use xlink:href="#ArialMT-30" x="83.398438"/>
       <use xlink:href="#ArialMT-32" x="139.013672"/>
      </g>
     </g>
    </g>
    <g id="ytick_6">
     <g id="line2d_15">
      <path d="M 270 255.220415 
L 1030.909091 255.220415 
" clip-path="url(#p48dea502fd)" style="fill: none; stroke: #ffffff; stroke-linecap: round"/>
     </g>
     <g id="text_16">
      <!-- 0.04 -->
      <g style="fill: #262626" transform="translate(206.982422 265.062407)scale(0.275 -0.275)">
       <use xlink:href="#ArialMT-30"/>
       <use xlink:href="#ArialMT-2e" x="55.615234"/>
       <use xlink:href="#ArialMT-30" x="83.398438"/>
       <use xlink:href="#ArialMT-34" x="139.013672"/>
      </g>
     </g>
    </g>
    <g id="ytick_7">
     <g id="line2d_16">
      <path d="M 270 173.658491 
L 1030.909091 173.658491 
" clip-path="url(#p48dea502fd)" style="fill: none; stroke: #ffffff; stroke-linecap: round"/>
     </g>
     <g id="text_17">
      <!-- 0.06 -->
      <g style="fill: #262626" transform="translate(206.982422 183.500483)scale(0.275 -0.275)">
       <use xlink:href="#ArialMT-30"/>
       <use xlink:href="#ArialMT-2e" x="55.615234"/>
       <use xlink:href="#ArialMT-30" x="83.398438"/>
       <use xlink:href="#ArialMT-36" x="139.013672"/>
      </g>
     </g>
    </g>
    <g id="text_18">
     <!-- Testing changing rate -->
     <g style="fill: #262626" transform="translate(187.511719 562.468253)rotate(-90)scale(0.3 -0.3)">
      <defs>
       <path id="ArialMT-54" d="M 1659 0 
L 1659 4041 
L 150 4041 
L 150 4581 
L 3781 4581 
L 3781 4041 
L 2266 4041 
L 2266 0 
L 1659 0 
z
" transform="scale(0.015625)"/>
       <path id="ArialMT-65" d="M 2694 1069 
L 3275 997 
Q 3138 488 2766 206 
Q 2394 -75 1816 -75 
Q 1088 -75 661 373 
Q 234 822 234 1631 
Q 234 2469 665 2931 
Q 1097 3394 1784 3394 
Q 2450 3394 2872 2941 
Q 3294 2488 3294 1666 
Q 3294 1616 3291 1516 
L 816 1516 
Q 847 969 1125 678 
Q 1403 388 1819 388 
Q 2128 388 2347 550 
Q 2566 713 2694 1069 
z
M 847 1978 
L 2700 1978 
Q 2663 2397 2488 2606 
Q 2219 2931 1791 2931 
Q 1403 2931 1139 2672 
Q 875 2413 847 1978 
z
" transform="scale(0.015625)"/>
       <path id="ArialMT-73" d="M 197 991 
L 753 1078 
Q 800 744 1014 566 
Q 1228 388 1613 388 
Q 2000 388 2187 545 
Q 2375 703 2375 916 
Q 2375 1106 2209 1216 
Q 2094 1291 1634 1406 
Q 1016 1563 777 1677 
Q 538 1791 414 1992 
Q 291 2194 291 2438 
Q 291 2659 392 2848 
Q 494 3038 669 3163 
Q 800 3259 1026 3326 
Q 1253 3394 1513 3394 
Q 1903 3394 2198 3281 
Q 2494 3169 2634 2976 
Q 2775 2784 2828 2463 
L 2278 2388 
Q 2241 2644 2061 2787 
Q 1881 2931 1553 2931 
Q 1166 2931 1000 2803 
Q 834 2675 834 2503 
Q 834 2394 903 2306 
Q 972 2216 1119 2156 
Q 1203 2125 1616 2013 
Q 2213 1853 2448 1751 
Q 2684 1650 2818 1456 
Q 2953 1263 2953 975 
Q 2953 694 2789 445 
Q 2625 197 2315 61 
Q 2006 -75 1616 -75 
Q 969 -75 630 194 
Q 291 463 197 991 
z
" transform="scale(0.015625)"/>
       <path id="ArialMT-74" d="M 1650 503 
L 1731 6 
Q 1494 -44 1306 -44 
Q 1000 -44 831 53 
Q 663 150 594 308 
Q 525 466 525 972 
L 525 2881 
L 113 2881 
L 113 3319 
L 525 3319 
L 525 4141 
L 1084 4478 
L 1084 3319 
L 1650 3319 
L 1650 2881 
L 1084 2881 
L 1084 941 
Q 1084 700 1114 631 
Q 1144 563 1211 522 
Q 1278 481 1403 481 
Q 1497 481 1650 503 
z
" transform="scale(0.015625)"/>
       <path id="ArialMT-69" d="M 425 3934 
L 425 4581 
L 988 4581 
L 988 3934 
L 425 3934 
z
M 425 0 
L 425 3319 
L 988 3319 
L 988 0 
L 425 0 
z
" transform="scale(0.015625)"/>
       <path id="ArialMT-6e" d="M 422 0 
L 422 3319 
L 928 3319 
L 928 2847 
Q 1294 3394 1984 3394 
Q 2284 3394 2536 3286 
Q 2788 3178 2913 3003 
Q 3038 2828 3088 2588 
Q 3119 2431 3119 2041 
L 3119 0 
L 2556 0 
L 2556 2019 
Q 2556 2363 2490 2533 
Q 2425 2703 2258 2804 
Q 2091 2906 1866 2906 
Q 1506 2906 1245 2678 
Q 984 2450 984 1813 
L 984 0 
L 422 0 
z
" transform="scale(0.015625)"/>
       <path id="ArialMT-67" d="M 319 -275 
L 866 -356 
Q 900 -609 1056 -725 
Q 1266 -881 1628 -881 
Q 2019 -881 2231 -725 
Q 2444 -569 2519 -288 
Q 2563 -116 2559 434 
Q 2191 0 1641 0 
Q 956 0 581 494 
Q 206 988 206 1678 
Q 206 2153 378 2554 
Q 550 2956 876 3175 
Q 1203 3394 1644 3394 
Q 2231 3394 2613 2919 
L 2613 3319 
L 3131 3319 
L 3131 450 
Q 3131 -325 2973 -648 
Q 2816 -972 2473 -1159 
Q 2131 -1347 1631 -1347 
Q 1038 -1347 672 -1080 
Q 306 -813 319 -275 
z
M 784 1719 
Q 784 1066 1043 766 
Q 1303 466 1694 466 
Q 2081 466 2343 764 
Q 2606 1063 2606 1700 
Q 2606 2309 2336 2618 
Q 2066 2928 1684 2928 
Q 1309 2928 1046 2623 
Q 784 2319 784 1719 
z
" transform="scale(0.015625)"/>
       <path id="ArialMT-20" transform="scale(0.015625)"/>
       <path id="ArialMT-61" d="M 2588 409 
Q 2275 144 1986 34 
Q 1697 -75 1366 -75 
Q 819 -75 525 192 
Q 231 459 231 875 
Q 231 1119 342 1320 
Q 453 1522 633 1644 
Q 813 1766 1038 1828 
Q 1203 1872 1538 1913 
Q 2219 1994 2541 2106 
Q 2544 2222 2544 2253 
Q 2544 2597 2384 2738 
Q 2169 2928 1744 2928 
Q 1347 2928 1158 2789 
Q 969 2650 878 2297 
L 328 2372 
Q 403 2725 575 2942 
Q 747 3159 1072 3276 
Q 1397 3394 1825 3394 
Q 2250 3394 2515 3294 
Q 2781 3194 2906 3042 
Q 3031 2891 3081 2659 
Q 3109 2516 3109 2141 
L 3109 1391 
Q 3109 606 3145 398 
Q 3181 191 3288 0 
L 2700 0 
Q 2613 175 2588 409 
z
M 2541 1666 
Q 2234 1541 1622 1453 
Q 1275 1403 1131 1340 
Q 988 1278 909 1158 
Q 831 1038 831 891 
Q 831 666 1001 516 
Q 1172 366 1500 366 
Q 1825 366 2078 508 
Q 2331 650 2450 897 
Q 2541 1088 2541 1459 
L 2541 1666 
z
" transform="scale(0.015625)"/>
       <path id="ArialMT-72" d="M 416 0 
L 416 3319 
L 922 3319 
L 922 2816 
Q 1116 3169 1280 3281 
Q 1444 3394 1641 3394 
Q 1925 3394 2219 3213 
L 2025 2691 
Q 1819 2813 1613 2813 
Q 1428 2813 1281 2702 
Q 1134 2591 1072 2394 
Q 978 2094 978 1738 
L 978 0 
L 416 0 
z
" transform="scale(0.015625)"/>
      </defs>
      <use xlink:href="#ArialMT-54"/>
      <use xlink:href="#ArialMT-65" x="49.958984"/>
      <use xlink:href="#ArialMT-73" x="105.574219"/>
      <use xlink:href="#ArialMT-74" x="155.574219"/>
      <use xlink:href="#ArialMT-69" x="183.357422"/>
      <use xlink:href="#ArialMT-6e" x="205.574219"/>
      <use xlink:href="#ArialMT-67" x="261.189453"/>
      <use xlink:href="#ArialMT-20" x="316.804688"/>
      <use xlink:href="#ArialMT-63" x="344.587891"/>
      <use xlink:href="#ArialMT-68" x="394.587891"/>
      <use xlink:href="#ArialMT-61" x="450.203125"/>
      <use xlink:href="#ArialMT-6e" x="505.818359"/>
      <use xlink:href="#ArialMT-67" x="561.433594"/>
      <use xlink:href="#ArialMT-69" x="617.048828"/>
      <use xlink:href="#ArialMT-6e" x="639.265625"/>
      <use xlink:href="#ArialMT-67" x="694.880859"/>
      <use xlink:href="#ArialMT-20" x="750.496094"/>
      <use xlink:href="#ArialMT-72" x="778.279297"/>
      <use xlink:href="#ArialMT-61" x="811.580078"/>
      <use xlink:href="#ArialMT-74" x="867.195312"/>
      <use xlink:href="#ArialMT-65" x="894.978516"/>
     </g>
    </g>
   </g>
   <g id="line2d_17">
    <path d="M 304.586777 644.519008 
L 322.790344 278.277922 
L 340.99391 195.26281 
L 359.197477 591.699126 
L 377.401044 621.710376 
L 395.604611 489.711743 
L 413.808177 316.946634 
L 432.011744 424.926394 
L 450.215311 409.036438 
L 468.418878 505.853673 
L 486.622445 480.539014 
L 504.826011 365.762152 
L 523.029578 472.152973 
L 541.233145 417.237014 
L 559.436712 436.544734 
L 577.640278 419.389375 
L 595.843845 420.978719 
L 614.047412 414.390819 
L 632.250979 425.877005 
L 650.454545 450.073176 
L 668.658112 405.091081 
L 686.861679 422.100283 
L 705.065246 426.878644 
L 723.268813 409.916745 
L 741.472379 428.166263 
L 759.675946 420.125196 
L 777.879513 422.734491 
L 796.08308 414.30849 
L 814.286646 421.653854 
L 832.490213 423.199979 
L 850.69378 415.444175 
L 868.897347 420.988118 
L 887.100913 418.877219 
L 905.30448 416.928979 
L 923.508047 421.842906 
L 941.711614 418.752977 
L 959.915181 418.814273 
L 978.118747 418.864824 
L 996.322314 418.571638 
" clip-path="url(#p48dea502fd)" style="fill: none; stroke: #4c72b0; stroke-width: 1.5; stroke-linecap: round"/>
   </g>
   <g id="line2d_18">
    <path d="M 304.586777 436.493091 
L 322.790344 422.375628 
L 340.99391 421.571226 
L 359.197477 419.937814 
L 377.401044 416.57688 
L 395.604611 420.621681 
L 413.808177 420.160982 
L 432.011744 410.404167 
L 450.215311 422.182736 
L 468.418878 423.220893 
L 486.622445 420.420061 
L 504.826011 410.87581 
L 523.029578 421.507333 
L 541.233145 417.673722 
L 559.436712 417.365883 
L 577.640278 418.381326 
L 595.843845 419.034245 
L 614.047412 417.640487 
L 632.250979 421.455097 
L 650.454545 413.706721 
L 668.658112 422.012592 
L 686.861679 421.466893 
L 705.065246 417.251367 
L 723.268813 419.799656 
L 741.472379 417.322267 
L 759.675946 417.158487 
L 777.879513 420.597159 
L 796.08308 417.707136 
L 814.286646 419.912625 
L 832.490213 417.469063 
L 850.69378 420.176163 
L 868.897347 415.429191 
L 887.100913 420.122892 
L 905.30448 418.235728 
L 923.508047 419.945553 
L 941.711614 416.026484 
L 959.915181 417.636875 
L 978.118747 418.181952 
L 996.322314 419.17572 
" clip-path="url(#p48dea502fd)" style="fill: none; stroke: #dd8452; stroke-width: 1.5; stroke-linecap: round"/>
   </g>
   <g id="patch_3">
    <path d="M 270 666.981818 
L 270 172.8 
" style="fill: none; stroke: #ffffff; stroke-width: 1.25; stroke-linejoin: miter; stroke-linecap: square"/>
   </g>
   <g id="patch_4">
    <path d="M 1030.909091 666.981818 
L 1030.909091 172.8 
" style="fill: none; stroke: #ffffff; stroke-width: 1.25; stroke-linejoin: miter; stroke-linecap: square"/>
   </g>
   <g id="patch_5">
    <path d="M 270 666.981818 
L 1030.909091 666.981818 
" style="fill: none; stroke: #ffffff; stroke-width: 1.25; stroke-linejoin: miter; stroke-linecap: square"/>
   </g>
   <g id="patch_6">
    <path d="M 270 172.8 
L 1030.909091 172.8 
" style="fill: none; stroke: #ffffff; stroke-width: 1.25; stroke-linejoin: miter; stroke-linecap: square"/>
   </g>
   <g id="text_19">
    <!-- Testing changing rate of MAE (L1) Loss -->
    <g style="fill: #262626" transform="translate(387.839702 166.8)scale(0.3 -0.3)">
     <defs>
      <path id="ArialMT-66" d="M 556 0 
L 556 2881 
L 59 2881 
L 59 3319 
L 556 3319 
L 556 3672 
Q 556 4006 616 4169 
Q 697 4388 901 4523 
Q 1106 4659 1475 4659 
Q 1713 4659 2000 4603 
L 1916 4113 
Q 1741 4144 1584 4144 
Q 1328 4144 1222 4034 
Q 1116 3925 1116 3625 
L 1116 3319 
L 1763 3319 
L 1763 2881 
L 1116 2881 
L 1116 0 
L 556 0 
z
" transform="scale(0.015625)"/>
      <path id="ArialMT-4d" d="M 475 0 
L 475 4581 
L 1388 4581 
L 2472 1338 
Q 2622 884 2691 659 
Q 2769 909 2934 1394 
L 4031 4581 
L 4847 4581 
L 4847 0 
L 4263 0 
L 4263 3834 
L 2931 0 
L 2384 0 
L 1059 3900 
L 1059 0 
L 475 0 
z
" transform="scale(0.015625)"/>
      <path id="ArialMT-41" d="M -9 0 
L 1750 4581 
L 2403 4581 
L 4278 0 
L 3588 0 
L 3053 1388 
L 1138 1388 
L 634 0 
L -9 0 
z
M 1313 1881 
L 2866 1881 
L 2388 3150 
Q 2169 3728 2063 4100 
Q 1975 3659 1816 3225 
L 1313 1881 
z
" transform="scale(0.015625)"/>
      <path id="ArialMT-28" d="M 1497 -1347 
Q 1031 -759 709 28 
Q 388 816 388 1659 
Q 388 2403 628 3084 
Q 909 3875 1497 4659 
L 1900 4659 
Q 1522 4009 1400 3731 
Q 1209 3300 1100 2831 
Q 966 2247 966 1656 
Q 966 153 1900 -1347 
L 1497 -1347 
z
" transform="scale(0.015625)"/>
      <path id="ArialMT-4c" d="M 469 0 
L 469 4581 
L 1075 4581 
L 1075 541 
L 3331 541 
L 3331 0 
L 469 0 
z
" transform="scale(0.015625)"/>
      <path id="ArialMT-29" d="M 791 -1347 
L 388 -1347 
Q 1322 153 1322 1656 
Q 1322 2244 1188 2822 
Q 1081 3291 891 3722 
Q 769 4003 388 4659 
L 791 4659 
Q 1378 3875 1659 3084 
Q 1900 2403 1900 1659 
Q 1900 816 1576 28 
Q 1253 -759 791 -1347 
z
" transform="scale(0.015625)"/>
     </defs>
     <use xlink:href="#ArialMT-54"/>
     <use xlink:href="#ArialMT-65" x="49.958984"/>
     <use xlink:href="#ArialMT-73" x="105.574219"/>
     <use xlink:href="#ArialMT-74" x="155.574219"/>
     <use xlink:href="#ArialMT-69" x="183.357422"/>
     <use xlink:href="#ArialMT-6e" x="205.574219"/>
     <use xlink:href="#ArialMT-67" x="261.189453"/>
     <use xlink:href="#ArialMT-20" x="316.804688"/>
     <use xlink:href="#ArialMT-63" x="344.587891"/>
     <use xlink:href="#ArialMT-68" x="394.587891"/>
     <use xlink:href="#ArialMT-61" x="450.203125"/>
     <use xlink:href="#ArialMT-6e" x="505.818359"/>
     <use xlink:href="#ArialMT-67" x="561.433594"/>
     <use xlink:href="#ArialMT-69" x="617.048828"/>
     <use xlink:href="#ArialMT-6e" x="639.265625"/>
     <use xlink:href="#ArialMT-67" x="694.880859"/>
     <use xlink:href="#ArialMT-20" x="750.496094"/>
     <use xlink:href="#ArialMT-72" x="778.279297"/>
     <use xlink:href="#ArialMT-61" x="811.580078"/>
     <use xlink:href="#ArialMT-74" x="867.195312"/>
     <use xlink:href="#ArialMT-65" x="894.978516"/>
     <use xlink:href="#ArialMT-20" x="950.59375"/>
     <use xlink:href="#ArialMT-6f" x="978.376953"/>
     <use xlink:href="#ArialMT-66" x="1033.992188"/>
     <use xlink:href="#ArialMT-20" x="1061.775391"/>
     <use xlink:href="#ArialMT-4d" x="1089.558594"/>
     <use xlink:href="#ArialMT-41" x="1172.859375"/>
     <use xlink:href="#ArialMT-45" x="1239.558594"/>
     <use xlink:href="#ArialMT-20" x="1306.257812"/>
     <use xlink:href="#ArialMT-28" x="1334.041016"/>
     <use xlink:href="#ArialMT-4c" x="1367.341797"/>
     <use xlink:href="#ArialMT-31" x="1422.957031"/>
     <use xlink:href="#ArialMT-29" x="1478.572266"/>
     <use xlink:href="#ArialMT-20" x="1511.873047"/>
     <use xlink:href="#ArialMT-4c" x="1539.65625"/>
     <use xlink:href="#ArialMT-6f" x="1595.271484"/>
     <use xlink:href="#ArialMT-73" x="1650.886719"/>
     <use xlink:href="#ArialMT-73" x="1700.886719"/>
    </g>
   </g>
   <g id="legend_1">
    <g id="patch_7">
     <path d="M 805.9462 273.016016 
L 1011.659091 273.016016 
Q 1017.159091 273.016016 1017.159091 267.516016 
L 1017.159091 192.05 
Q 1017.159091 186.55 1011.659091 186.55 
L 805.9462 186.55 
Q 800.4462 186.55 800.4462 192.05 
L 800.4462 267.516016 
Q 800.4462 273.016016 805.9462 273.016016 
z
" style="fill: #eaeaf2; opacity: 0.8; stroke: #cccccc; stroke-linejoin: miter"/>
    </g>
    <g id="line2d_19">
     <path d="M 811.4462 207.944141 
L 838.9462 207.944141 
L 866.4462 207.944141 
" style="fill: none; stroke: #4c72b0; stroke-width: 1.5; stroke-linecap: round"/>
    </g>
    <g id="text_20">
     <!-- L1_SGD -->
     <g style="fill: #262626" transform="translate(888.4462 217.569141)scale(0.275 -0.275)">
      <defs>
       <path id="ArialMT-5f" d="M -97 -1272 
L -97 -866 
L 3631 -866 
L 3631 -1272 
L -97 -1272 
z
" transform="scale(0.015625)"/>
       <path id="ArialMT-53" d="M 288 1472 
L 859 1522 
Q 900 1178 1048 958 
Q 1197 738 1509 602 
Q 1822 466 2213 466 
Q 2559 466 2825 569 
Q 3091 672 3220 851 
Q 3350 1031 3350 1244 
Q 3350 1459 3225 1620 
Q 3100 1781 2813 1891 
Q 2628 1963 1997 2114 
Q 1366 2266 1113 2400 
Q 784 2572 623 2826 
Q 463 3081 463 3397 
Q 463 3744 659 4045 
Q 856 4347 1234 4503 
Q 1613 4659 2075 4659 
Q 2584 4659 2973 4495 
Q 3363 4331 3572 4012 
Q 3781 3694 3797 3291 
L 3216 3247 
Q 3169 3681 2898 3903 
Q 2628 4125 2100 4125 
Q 1550 4125 1298 3923 
Q 1047 3722 1047 3438 
Q 1047 3191 1225 3031 
Q 1400 2872 2139 2705 
Q 2878 2538 3153 2413 
Q 3553 2228 3743 1945 
Q 3934 1663 3934 1294 
Q 3934 928 3725 604 
Q 3516 281 3123 101 
Q 2731 -78 2241 -78 
Q 1619 -78 1198 103 
Q 778 284 539 648 
Q 300 1013 288 1472 
z
" transform="scale(0.015625)"/>
       <path id="ArialMT-47" d="M 2638 1797 
L 2638 2334 
L 4578 2338 
L 4578 638 
Q 4131 281 3656 101 
Q 3181 -78 2681 -78 
Q 2006 -78 1454 211 
Q 903 500 622 1047 
Q 341 1594 341 2269 
Q 341 2938 620 3517 
Q 900 4097 1425 4378 
Q 1950 4659 2634 4659 
Q 3131 4659 3532 4498 
Q 3934 4338 4162 4050 
Q 4391 3763 4509 3300 
L 3963 3150 
Q 3859 3500 3706 3700 
Q 3553 3900 3268 4020 
Q 2984 4141 2638 4141 
Q 2222 4141 1919 4014 
Q 1616 3888 1430 3681 
Q 1244 3475 1141 3228 
Q 966 2803 966 2306 
Q 966 1694 1177 1281 
Q 1388 869 1791 669 
Q 2194 469 2647 469 
Q 3041 469 3416 620 
Q 3791 772 3984 944 
L 3984 1797 
L 2638 1797 
z
" transform="scale(0.015625)"/>
       <path id="ArialMT-44" d="M 494 0 
L 494 4581 
L 2072 4581 
Q 2606 4581 2888 4516 
Q 3281 4425 3559 4188 
Q 3922 3881 4101 3404 
Q 4281 2928 4281 2316 
Q 4281 1794 4159 1391 
Q 4038 988 3847 723 
Q 3656 459 3429 307 
Q 3203 156 2883 78 
Q 2563 0 2147 0 
L 494 0 
z
M 1100 541 
L 2078 541 
Q 2531 541 2789 625 
Q 3047 709 3200 863 
Q 3416 1078 3536 1442 
Q 3656 1806 3656 2325 
Q 3656 3044 3420 3430 
Q 3184 3816 2847 3947 
Q 2603 4041 2063 4041 
L 1100 4041 
L 1100 541 
z
" transform="scale(0.015625)"/>
      </defs>
      <use xlink:href="#ArialMT-4c"/>
      <use xlink:href="#ArialMT-31" x="55.615234"/>
      <use xlink:href="#ArialMT-5f" x="111.230469"/>
      <use xlink:href="#ArialMT-53" x="166.845703"/>
      <use xlink:href="#ArialMT-47" x="233.544922"/>
      <use xlink:href="#ArialMT-44" x="311.328125"/>
     </g>
    </g>
    <g id="line2d_20">
     <path d="M 811.4462 246.925391 
L 838.9462 246.925391 
L 866.4462 246.925391 
" style="fill: none; stroke: #dd8452; stroke-width: 1.5; stroke-linecap: round"/>
    </g>
    <g id="text_21">
     <!-- L1_Adam -->
     <g style="fill: #262626" transform="translate(888.4462 256.550391)scale(0.275 -0.275)">
      <defs>
       <path id="ArialMT-64" d="M 2575 0 
L 2575 419 
Q 2259 -75 1647 -75 
Q 1250 -75 917 144 
Q 584 363 401 755 
Q 219 1147 219 1656 
Q 219 2153 384 2558 
Q 550 2963 881 3178 
Q 1213 3394 1622 3394 
Q 1922 3394 2156 3267 
Q 2391 3141 2538 2938 
L 2538 4581 
L 3097 4581 
L 3097 0 
L 2575 0 
z
M 797 1656 
Q 797 1019 1065 703 
Q 1334 388 1700 388 
Q 2069 388 2326 689 
Q 2584 991 2584 1609 
Q 2584 2291 2321 2609 
Q 2059 2928 1675 2928 
Q 1300 2928 1048 2622 
Q 797 2316 797 1656 
z
" transform="scale(0.015625)"/>
       <path id="ArialMT-6d" d="M 422 0 
L 422 3319 
L 925 3319 
L 925 2853 
Q 1081 3097 1340 3245 
Q 1600 3394 1931 3394 
Q 2300 3394 2536 3241 
Q 2772 3088 2869 2813 
Q 3263 3394 3894 3394 
Q 4388 3394 4653 3120 
Q 4919 2847 4919 2278 
L 4919 0 
L 4359 0 
L 4359 2091 
Q 4359 2428 4304 2576 
Q 4250 2725 4106 2815 
Q 3963 2906 3769 2906 
Q 3419 2906 3187 2673 
Q 2956 2441 2956 1928 
L 2956 0 
L 2394 0 
L 2394 2156 
Q 2394 2531 2256 2718 
Q 2119 2906 1806 2906 
Q 1569 2906 1367 2781 
Q 1166 2656 1075 2415 
Q 984 2175 984 1722 
L 984 0 
L 422 0 
z
" transform="scale(0.015625)"/>
      </defs>
      <use xlink:href="#ArialMT-4c"/>
      <use xlink:href="#ArialMT-31" x="55.615234"/>
      <use xlink:href="#ArialMT-5f" x="111.230469"/>
      <use xlink:href="#ArialMT-41" x="166.845703"/>
      <use xlink:href="#ArialMT-64" x="233.544922"/>
      <use xlink:href="#ArialMT-61" x="289.160156"/>
      <use xlink:href="#ArialMT-6d" x="344.775391"/>
     </g>
    </g>
   </g>
  </g>
  <g id="axes_2">
   <g id="patch_8">
    <path d="M 1183.090909 666.981818 
L 1944 666.981818 
L 1944 172.8 
L 1183.090909 172.8 
z
" style="fill: #eaeaf2"/>
   </g>
   <g id="matplotlib.axis_3">
    <g id="xtick_10">
     <g id="line2d_21">
      <path d="M 1199.474119 666.981818 
L 1199.474119 172.8 
" clip-path="url(#pd8d36ad627)" style="fill: none; stroke: #ffffff; stroke-linecap: round"/>
     </g>
     <g id="text_22">
      <!-- 0 -->
      <g style="fill: #262626" transform="translate(1191.82783 696.165803)scale(0.275 -0.275)">
       <use xlink:href="#ArialMT-30"/>
      </g>
     </g>
    </g>
    <g id="xtick_11">
     <g id="line2d_22">
      <path d="M 1290.491953 666.981818 
L 1290.491953 172.8 
" clip-path="url(#pd8d36ad627)" style="fill: none; stroke: #ffffff; stroke-linecap: round"/>
     </g>
     <g id="text_23">
      <!-- 5 -->
      <g style="fill: #262626" transform="translate(1282.845664 696.165803)scale(0.275 -0.275)">
       <use xlink:href="#ArialMT-35"/>
      </g>
     </g>
    </g>
    <g id="xtick_12">
     <g id="line2d_23">
      <path d="M 1381.509787 666.981818 
L 1381.509787 172.8 
" clip-path="url(#pd8d36ad627)" style="fill: none; stroke: #ffffff; stroke-linecap: round"/>
     </g>
     <g id="text_24">
      <!-- 10 -->
      <g style="fill: #262626" transform="translate(1366.217209 696.165803)scale(0.275 -0.275)">
       <use xlink:href="#ArialMT-31"/>
       <use xlink:href="#ArialMT-30" x="55.615234"/>
      </g>
     </g>
    </g>
    <g id="xtick_13">
     <g id="line2d_24">
      <path d="M 1472.527621 666.981818 
L 1472.527621 172.8 
" clip-path="url(#pd8d36ad627)" style="fill: none; stroke: #ffffff; stroke-linecap: round"/>
     </g>
     <g id="text_25">
      <!-- 15 -->
      <g style="fill: #262626" transform="translate(1457.235043 696.165803)scale(0.275 -0.275)">
       <use xlink:href="#ArialMT-31"/>
       <use xlink:href="#ArialMT-35" x="55.615234"/>
      </g>
     </g>
    </g>
    <g id="xtick_14">
     <g id="line2d_25">
      <path d="M 1563.545455 666.981818 
L 1563.545455 172.8 
" clip-path="url(#pd8d36ad627)" style="fill: none; stroke: #ffffff; stroke-linecap: round"/>
     </g>
     <g id="text_26">
      <!-- 20 -->
      <g style="fill: #262626" transform="translate(1548.252876 696.165803)scale(0.275 -0.275)">
       <use xlink:href="#ArialMT-32"/>
       <use xlink:href="#ArialMT-30" x="55.615234"/>
      </g>
     </g>
    </g>
    <g id="xtick_15">
     <g id="line2d_26">
      <path d="M 1654.563288 666.981818 
L 1654.563288 172.8 
" clip-path="url(#pd8d36ad627)" style="fill: none; stroke: #ffffff; stroke-linecap: round"/>
     </g>
     <g id="text_27">
      <!-- 25 -->
      <g style="fill: #262626" transform="translate(1639.27071 696.165803)scale(0.275 -0.275)">
       <use xlink:href="#ArialMT-32"/>
       <use xlink:href="#ArialMT-35" x="55.615234"/>
      </g>
     </g>
    </g>
    <g id="xtick_16">
     <g id="line2d_27">
      <path d="M 1745.581122 666.981818 
L 1745.581122 172.8 
" clip-path="url(#pd8d36ad627)" style="fill: none; stroke: #ffffff; stroke-linecap: round"/>
     </g>
     <g id="text_28">
      <!-- 30 -->
      <g style="fill: #262626" transform="translate(1730.288544 696.165803)scale(0.275 -0.275)">
       <use xlink:href="#ArialMT-33"/>
       <use xlink:href="#ArialMT-30" x="55.615234"/>
      </g>
     </g>
    </g>
    <g id="xtick_17">
     <g id="line2d_28">
      <path d="M 1836.598956 666.981818 
L 1836.598956 172.8 
" clip-path="url(#pd8d36ad627)" style="fill: none; stroke: #ffffff; stroke-linecap: round"/>
     </g>
     <g id="text_29">
      <!-- 35 -->
      <g style="fill: #262626" transform="translate(1821.306378 696.165803)scale(0.275 -0.275)">
       <use xlink:href="#ArialMT-33"/>
       <use xlink:href="#ArialMT-35" x="55.615234"/>
      </g>
     </g>
    </g>
    <g id="xtick_18">
     <g id="line2d_29">
      <path d="M 1927.61679 666.981818 
L 1927.61679 172.8 
" clip-path="url(#pd8d36ad627)" style="fill: none; stroke: #ffffff; stroke-linecap: round"/>
     </g>
     <g id="text_30">
      <!-- 40 -->
      <g style="fill: #262626" transform="translate(1912.324212 696.165803)scale(0.275 -0.275)">
       <use xlink:href="#ArialMT-34"/>
       <use xlink:href="#ArialMT-30" x="55.615234"/>
      </g>
     </g>
    </g>
    <g id="text_31">
     <!-- Epoch -->
     <g style="fill: #262626" transform="translate(1521.015767 727.104865)scale(0.3 -0.3)">
      <use xlink:href="#ArialMT-45"/>
      <use xlink:href="#ArialMT-70" x="66.699219"/>
      <use xlink:href="#ArialMT-6f" x="122.314453"/>
      <use xlink:href="#ArialMT-63" x="177.929688"/>
      <use xlink:href="#ArialMT-68" x="227.929688"/>
     </g>
    </g>
   </g>
   <g id="matplotlib.axis_4">
    <g id="ytick_8">
     <g id="line2d_30">
      <path d="M 1183.090909 658.568285 
L 1944 658.568285 
" clip-path="url(#pd8d36ad627)" style="fill: none; stroke: #ffffff; stroke-linecap: round"/>
     </g>
     <g id="text_32">
      <!-- -0.125 -->
      <g style="fill: #262626" transform="translate(1095.624112 668.410277)scale(0.275 -0.275)">
       <use xlink:href="#ArialMT-2d"/>
       <use xlink:href="#ArialMT-30" x="33.300781"/>
       <use xlink:href="#ArialMT-2e" x="88.916016"/>
       <use xlink:href="#ArialMT-31" x="116.699219"/>
       <use xlink:href="#ArialMT-32" x="172.314453"/>
       <use xlink:href="#ArialMT-35" x="227.929688"/>
      </g>
     </g>
    </g>
    <g id="ytick_9">
     <g id="line2d_31">
      <path d="M 1183.090909 586.718535 
L 1944 586.718535 
" clip-path="url(#pd8d36ad627)" style="fill: none; stroke: #ffffff; stroke-linecap: round"/>
     </g>
     <g id="text_33">
      <!-- -0.100 -->
      <g style="fill: #262626" transform="translate(1095.624112 596.560528)scale(0.275 -0.275)">
       <use xlink:href="#ArialMT-2d"/>
       <use xlink:href="#ArialMT-30" x="33.300781"/>
       <use xlink:href="#ArialMT-2e" x="88.916016"/>
       <use xlink:href="#ArialMT-31" x="116.699219"/>
       <use xlink:href="#ArialMT-30" x="172.314453"/>
       <use xlink:href="#ArialMT-30" x="227.929688"/>
      </g>
     </g>
    </g>
    <g id="ytick_10">
     <g id="line2d_32">
      <path d="M 1183.090909 514.868785 
L 1944 514.868785 
" clip-path="url(#pd8d36ad627)" style="fill: none; stroke: #ffffff; stroke-linecap: round"/>
     </g>
     <g id="text_34">
      <!-- -0.075 -->
      <g style="fill: #262626" transform="translate(1095.624112 524.710778)scale(0.275 -0.275)">
       <defs>
        <path id="ArialMT-37" d="M 303 3981 
L 303 4522 
L 3269 4522 
L 3269 4084 
Q 2831 3619 2401 2847 
Q 1972 2075 1738 1259 
Q 1569 684 1522 0 
L 944 0 
Q 953 541 1156 1306 
Q 1359 2072 1739 2783 
Q 2119 3494 2547 3981 
L 303 3981 
z
" transform="scale(0.015625)"/>
       </defs>
       <use xlink:href="#ArialMT-2d"/>
       <use xlink:href="#ArialMT-30" x="33.300781"/>
       <use xlink:href="#ArialMT-2e" x="88.916016"/>
       <use xlink:href="#ArialMT-30" x="116.699219"/>
       <use xlink:href="#ArialMT-37" x="172.314453"/>
       <use xlink:href="#ArialMT-35" x="227.929688"/>
      </g>
     </g>
    </g>
    <g id="ytick_11">
     <g id="line2d_33">
      <path d="M 1183.090909 443.019036 
L 1944 443.019036 
" clip-path="url(#pd8d36ad627)" style="fill: none; stroke: #ffffff; stroke-linecap: round"/>
     </g>
     <g id="text_35">
      <!-- -0.050 -->
      <g style="fill: #262626" transform="translate(1095.624112 452.861028)scale(0.275 -0.275)">
       <use xlink:href="#ArialMT-2d"/>
       <use xlink:href="#ArialMT-30" x="33.300781"/>
       <use xlink:href="#ArialMT-2e" x="88.916016"/>
       <use xlink:href="#ArialMT-30" x="116.699219"/>
       <use xlink:href="#ArialMT-35" x="172.314453"/>
       <use xlink:href="#ArialMT-30" x="227.929688"/>
      </g>
     </g>
    </g>
    <g id="ytick_12">
     <g id="line2d_34">
      <path d="M 1183.090909 371.169286 
L 1944 371.169286 
" clip-path="url(#pd8d36ad627)" style="fill: none; stroke: #ffffff; stroke-linecap: round"/>
     </g>
     <g id="text_36">
      <!-- -0.025 -->
      <g style="fill: #262626" transform="translate(1095.624112 381.011278)scale(0.275 -0.275)">
       <use xlink:href="#ArialMT-2d"/>
       <use xlink:href="#ArialMT-30" x="33.300781"/>
       <use xlink:href="#ArialMT-2e" x="88.916016"/>
       <use xlink:href="#ArialMT-30" x="116.699219"/>
       <use xlink:href="#ArialMT-32" x="172.314453"/>
       <use xlink:href="#ArialMT-35" x="227.929688"/>
      </g>
     </g>
    </g>
    <g id="ytick_13">
     <g id="line2d_35">
      <path d="M 1183.090909 299.319536 
L 1944 299.319536 
" clip-path="url(#pd8d36ad627)" style="fill: none; stroke: #ffffff; stroke-linecap: round"/>
     </g>
     <g id="text_37">
      <!-- 0.000 -->
      <g style="fill: #262626" transform="translate(1104.780753 309.161528)scale(0.275 -0.275)">
       <use xlink:href="#ArialMT-30"/>
       <use xlink:href="#ArialMT-2e" x="55.615234"/>
       <use xlink:href="#ArialMT-30" x="83.398438"/>
       <use xlink:href="#ArialMT-30" x="139.013672"/>
       <use xlink:href="#ArialMT-30" x="194.628906"/>
      </g>
     </g>
    </g>
    <g id="ytick_14">
     <g id="line2d_36">
      <path d="M 1183.090909 227.469786 
L 1944 227.469786 
" clip-path="url(#pd8d36ad627)" style="fill: none; stroke: #ffffff; stroke-linecap: round"/>
     </g>
     <g id="text_38">
      <!-- 0.025 -->
      <g style="fill: #262626" transform="translate(1104.780753 237.311778)scale(0.275 -0.275)">
       <use xlink:href="#ArialMT-30"/>
       <use xlink:href="#ArialMT-2e" x="55.615234"/>
       <use xlink:href="#ArialMT-30" x="83.398438"/>
       <use xlink:href="#ArialMT-32" x="139.013672"/>
       <use xlink:href="#ArialMT-35" x="194.628906"/>
      </g>
     </g>
    </g>
    <g id="text_39">
     <!-- Testing changing rate -->
     <g style="fill: #262626" transform="translate(1085.31005 562.468253)rotate(-90)scale(0.3 -0.3)">
      <use xlink:href="#ArialMT-54"/>
      <use xlink:href="#ArialMT-65" x="49.958984"/>
      <use xlink:href="#ArialMT-73" x="105.574219"/>
      <use xlink:href="#ArialMT-74" x="155.574219"/>
      <use xlink:href="#ArialMT-69" x="183.357422"/>
      <use xlink:href="#ArialMT-6e" x="205.574219"/>
      <use xlink:href="#ArialMT-67" x="261.189453"/>
      <use xlink:href="#ArialMT-20" x="316.804688"/>
      <use xlink:href="#ArialMT-63" x="344.587891"/>
      <use xlink:href="#ArialMT-68" x="394.587891"/>
      <use xlink:href="#ArialMT-61" x="450.203125"/>
      <use xlink:href="#ArialMT-6e" x="505.818359"/>
      <use xlink:href="#ArialMT-67" x="561.433594"/>
      <use xlink:href="#ArialMT-69" x="617.048828"/>
      <use xlink:href="#ArialMT-6e" x="639.265625"/>
      <use xlink:href="#ArialMT-67" x="694.880859"/>
      <use xlink:href="#ArialMT-20" x="750.496094"/>
      <use xlink:href="#ArialMT-72" x="778.279297"/>
      <use xlink:href="#ArialMT-61" x="811.580078"/>
      <use xlink:href="#ArialMT-74" x="867.195312"/>
      <use xlink:href="#ArialMT-65" x="894.978516"/>
     </g>
    </g>
   </g>
   <g id="line2d_37">
    <path d="M 1217.677686 375.730087 
L 1235.881253 270.974249 
L 1254.084819 412.752458 
L 1272.288386 195.26281 
L 1290.491953 644.519008 
L 1308.69552 245.525371 
L 1326.899087 391.303441 
L 1345.102653 351.628727 
L 1363.30622 213.419618 
L 1381.509787 415.639055 
L 1399.713354 384.015998 
L 1417.91692 359.966168 
L 1436.120487 301.041619 
L 1454.324054 252.072275 
L 1472.527621 486.795827 
L 1490.731187 248.318019 
L 1508.934754 367.35839 
L 1527.138321 322.888711 
L 1545.341888 301.495682 
L 1563.545455 339.943074 
L 1581.749021 319.359606 
L 1599.952588 269.972324 
L 1618.156155 312.098962 
L 1636.359722 310.177723 
L 1654.563288 320.40492 
L 1672.766855 322.924694 
L 1690.970422 298.974753 
L 1709.173989 285.391554 
L 1727.377555 323.109917 
L 1745.581122 318.009638 
L 1763.784689 293.059707 
L 1781.988256 304.363748 
L 1800.191823 297.782736 
L 1818.395389 315.38778 
L 1836.598956 297.012909 
L 1854.802523 298.423556 
L 1873.00609 301.937846 
L 1891.209656 306.092483 
L 1909.413223 299.830825 
" clip-path="url(#pd8d36ad627)" style="fill: none; stroke: #4c72b0; stroke-width: 1.5; stroke-linecap: round"/>
   </g>
   <g id="line2d_38">
    <path d="M 1217.677686 488.385896 
L 1235.881253 390.65331 
L 1254.084819 359.285847 
L 1272.288386 360.278679 
L 1290.491953 324.499011 
L 1308.69552 367.084798 
L 1326.899087 343.520533 
L 1345.102653 311.355044 
L 1363.30622 336.588908 
L 1381.509787 322.58413 
L 1399.713354 290.104947 
L 1417.91692 332.888041 
L 1436.120487 312.633159 
L 1454.324054 283.648183 
L 1472.527621 340.878431 
L 1490.731187 313.605754 
L 1508.934754 328.523099 
L 1527.138321 331.803886 
L 1545.341888 267.628303 
L 1563.545455 297.079615 
L 1581.749021 356.655947 
L 1599.952588 277.190877 
L 1618.156155 322.238894 
L 1636.359722 238.620783 
L 1654.563288 356.695375 
L 1672.766855 327.277934 
L 1690.970422 320.575635 
L 1709.173989 302.565029 
L 1727.377555 301.99157 
L 1745.581122 309.549461 
L 1763.784689 251.882013 
L 1781.988256 330.639439 
L 1800.191823 317.794093 
L 1818.395389 321.554385 
L 1836.598956 299.989983 
L 1854.802523 311.557142 
L 1873.00609 320.501197 
L 1891.209656 293.923637 
L 1909.413223 292.773356 
" clip-path="url(#pd8d36ad627)" style="fill: none; stroke: #dd8452; stroke-width: 1.5; stroke-linecap: round"/>
   </g>
   <g id="patch_9">
    <path d="M 1183.090909 666.981818 
L 1183.090909 172.8 
" style="fill: none; stroke: #ffffff; stroke-width: 1.25; stroke-linejoin: miter; stroke-linecap: square"/>
   </g>
   <g id="patch_10">
    <path d="M 1944 666.981818 
L 1944 172.8 
" style="fill: none; stroke: #ffffff; stroke-width: 1.25; stroke-linejoin: miter; stroke-linecap: square"/>
   </g>
   <g id="patch_11">
    <path d="M 1183.090909 666.981818 
L 1944 666.981818 
" style="fill: none; stroke: #ffffff; stroke-width: 1.25; stroke-linejoin: miter; stroke-linecap: square"/>
   </g>
   <g id="patch_12">
    <path d="M 1183.090909 172.8 
L 1944 172.8 
" style="fill: none; stroke: #ffffff; stroke-width: 1.25; stroke-linejoin: miter; stroke-linecap: square"/>
   </g>
   <g id="text_40">
    <!-- Testing changing rate of Cross-Entropy Loss -->
    <g style="fill: #262626" transform="translate(1268.420455 166.8)scale(0.3 -0.3)">
     <defs>
      <path id="ArialMT-43" d="M 3763 1606 
L 4369 1453 
Q 4178 706 3683 314 
Q 3188 -78 2472 -78 
Q 1731 -78 1267 223 
Q 803 525 561 1097 
Q 319 1669 319 2325 
Q 319 3041 592 3573 
Q 866 4106 1370 4382 
Q 1875 4659 2481 4659 
Q 3169 4659 3637 4309 
Q 4106 3959 4291 3325 
L 3694 3184 
Q 3534 3684 3231 3912 
Q 2928 4141 2469 4141 
Q 1941 4141 1586 3887 
Q 1231 3634 1087 3207 
Q 944 2781 944 2328 
Q 944 1744 1114 1308 
Q 1284 872 1643 656 
Q 2003 441 2422 441 
Q 2931 441 3284 734 
Q 3638 1028 3763 1606 
z
" transform="scale(0.015625)"/>
      <path id="ArialMT-79" d="M 397 -1278 
L 334 -750 
Q 519 -800 656 -800 
Q 844 -800 956 -737 
Q 1069 -675 1141 -563 
Q 1194 -478 1313 -144 
Q 1328 -97 1363 -6 
L 103 3319 
L 709 3319 
L 1400 1397 
Q 1534 1031 1641 628 
Q 1738 1016 1872 1384 
L 2581 3319 
L 3144 3319 
L 1881 -56 
Q 1678 -603 1566 -809 
Q 1416 -1088 1222 -1217 
Q 1028 -1347 759 -1347 
Q 597 -1347 397 -1278 
z
" transform="scale(0.015625)"/>
     </defs>
     <use xlink:href="#ArialMT-54"/>
     <use xlink:href="#ArialMT-65" x="49.958984"/>
     <use xlink:href="#ArialMT-73" x="105.574219"/>
     <use xlink:href="#ArialMT-74" x="155.574219"/>
     <use xlink:href="#ArialMT-69" x="183.357422"/>
     <use xlink:href="#ArialMT-6e" x="205.574219"/>
     <use xlink:href="#ArialMT-67" x="261.189453"/>
     <use xlink:href="#ArialMT-20" x="316.804688"/>
     <use xlink:href="#ArialMT-63" x="344.587891"/>
     <use xlink:href="#ArialMT-68" x="394.587891"/>
     <use xlink:href="#ArialMT-61" x="450.203125"/>
     <use xlink:href="#ArialMT-6e" x="505.818359"/>
     <use xlink:href="#ArialMT-67" x="561.433594"/>
     <use xlink:href="#ArialMT-69" x="617.048828"/>
     <use xlink:href="#ArialMT-6e" x="639.265625"/>
     <use xlink:href="#ArialMT-67" x="694.880859"/>
     <use xlink:href="#ArialMT-20" x="750.496094"/>
     <use xlink:href="#ArialMT-72" x="778.279297"/>
     <use xlink:href="#ArialMT-61" x="811.580078"/>
     <use xlink:href="#ArialMT-74" x="867.195312"/>
     <use xlink:href="#ArialMT-65" x="894.978516"/>
     <use xlink:href="#ArialMT-20" x="950.59375"/>
     <use xlink:href="#ArialMT-6f" x="978.376953"/>
     <use xlink:href="#ArialMT-66" x="1033.992188"/>
     <use xlink:href="#ArialMT-20" x="1061.775391"/>
     <use xlink:href="#ArialMT-43" x="1089.558594"/>
     <use xlink:href="#ArialMT-72" x="1161.775391"/>
     <use xlink:href="#ArialMT-6f" x="1195.076172"/>
     <use xlink:href="#ArialMT-73" x="1250.691406"/>
     <use xlink:href="#ArialMT-73" x="1300.691406"/>
     <use xlink:href="#ArialMT-2d" x="1350.691406"/>
     <use xlink:href="#ArialMT-45" x="1383.992188"/>
     <use xlink:href="#ArialMT-6e" x="1450.691406"/>
     <use xlink:href="#ArialMT-74" x="1506.306641"/>
     <use xlink:href="#ArialMT-72" x="1534.089844"/>
     <use xlink:href="#ArialMT-6f" x="1567.390625"/>
     <use xlink:href="#ArialMT-70" x="1623.005859"/>
     <use xlink:href="#ArialMT-79" x="1678.621094"/>
     <use xlink:href="#ArialMT-20" x="1728.621094"/>
     <use xlink:href="#ArialMT-4c" x="1756.404297"/>
     <use xlink:href="#ArialMT-6f" x="1812.019531"/>
     <use xlink:href="#ArialMT-73" x="1867.634766"/>
     <use xlink:href="#ArialMT-73" x="1917.634766"/>
    </g>
   </g>
   <g id="legend_2">
    <g id="patch_13">
     <path d="M 1711.41875 653.231818 
L 1924.75 653.231818 
Q 1930.25 653.231818 1930.25 647.731818 
L 1930.25 572.012287 
Q 1930.25 566.512287 1924.75 566.512287 
L 1711.41875 566.512287 
Q 1705.91875 566.512287 1705.91875 572.012287 
L 1705.91875 647.731818 
Q 1705.91875 653.231818 1711.41875 653.231818 
z
" style="fill: #eaeaf2; opacity: 0.8; stroke: #cccccc; stroke-linejoin: miter"/>
    </g>
    <g id="line2d_39">
     <path d="M 1716.91875 587.906428 
L 1744.41875 587.906428 
L 1771.91875 587.906428 
" style="fill: none; stroke: #4c72b0; stroke-width: 1.5; stroke-linecap: round"/>
    </g>
    <g id="text_41">
     <!-- CE_SGD -->
     <g style="fill: #262626" transform="translate(1793.91875 597.531428)scale(0.275 -0.275)">
      <use xlink:href="#ArialMT-43"/>
      <use xlink:href="#ArialMT-45" x="72.216797"/>
      <use xlink:href="#ArialMT-5f" x="138.916016"/>
      <use xlink:href="#ArialMT-53" x="194.53125"/>
      <use xlink:href="#ArialMT-47" x="261.230469"/>
      <use xlink:href="#ArialMT-44" x="339.013672"/>
     </g>
    </g>
    <g id="line2d_40">
     <path d="M 1716.91875 627.141193 
L 1744.41875 627.141193 
L 1771.91875 627.141193 
" style="fill: none; stroke: #dd8452; stroke-width: 1.5; stroke-linecap: round"/>
    </g>
    <g id="text_42">
     <!-- CE_Adam -->
     <g style="fill: #262626" transform="translate(1793.91875 636.766193)scale(0.275 -0.275)">
      <use xlink:href="#ArialMT-43"/>
      <use xlink:href="#ArialMT-45" x="72.216797"/>
      <use xlink:href="#ArialMT-5f" x="138.916016"/>
      <use xlink:href="#ArialMT-41" x="194.53125"/>
      <use xlink:href="#ArialMT-64" x="261.230469"/>
      <use xlink:href="#ArialMT-61" x="316.845703"/>
      <use xlink:href="#ArialMT-6d" x="372.460938"/>
     </g>
    </g>
   </g>
  </g>
  <g id="axes_3">
   <g id="patch_14">
    <path d="M 270 1260 
L 1030.909091 1260 
L 1030.909091 765.818182 
L 270 765.818182 
z
" style="fill: #eaeaf2"/>
   </g>
   <g id="matplotlib.axis_5">
    <g id="xtick_19">
     <g id="line2d_41">
      <path d="M 286.38321 1260 
L 286.38321 765.818182 
" clip-path="url(#p8313450546)" style="fill: none; stroke: #ffffff; stroke-linecap: round"/>
     </g>
     <g id="text_43">
      <!-- 0 -->
      <g style="fill: #262626" transform="translate(278.736921 1289.183984)scale(0.275 -0.275)">
       <use xlink:href="#ArialMT-30"/>
      </g>
     </g>
    </g>
    <g id="xtick_20">
     <g id="line2d_42">
      <path d="M 377.401044 1260 
L 377.401044 765.818182 
" clip-path="url(#p8313450546)" style="fill: none; stroke: #ffffff; stroke-linecap: round"/>
     </g>
     <g id="text_44">
      <!-- 5 -->
      <g style="fill: #262626" transform="translate(369.754755 1289.183984)scale(0.275 -0.275)">
       <use xlink:href="#ArialMT-35"/>
      </g>
     </g>
    </g>
    <g id="xtick_21">
     <g id="line2d_43">
      <path d="M 468.418878 1260 
L 468.418878 765.818182 
" clip-path="url(#p8313450546)" style="fill: none; stroke: #ffffff; stroke-linecap: round"/>
     </g>
     <g id="text_45">
      <!-- 10 -->
      <g style="fill: #262626" transform="translate(453.1263 1289.183984)scale(0.275 -0.275)">
       <use xlink:href="#ArialMT-31"/>
       <use xlink:href="#ArialMT-30" x="55.615234"/>
      </g>
     </g>
    </g>
    <g id="xtick_22">
     <g id="line2d_44">
      <path d="M 559.436712 1260 
L 559.436712 765.818182 
" clip-path="url(#p8313450546)" style="fill: none; stroke: #ffffff; stroke-linecap: round"/>
     </g>
     <g id="text_46">
      <!-- 15 -->
      <g style="fill: #262626" transform="translate(544.144133 1289.183984)scale(0.275 -0.275)">
       <use xlink:href="#ArialMT-31"/>
       <use xlink:href="#ArialMT-35" x="55.615234"/>
      </g>
     </g>
    </g>
    <g id="xtick_23">
     <g id="line2d_45">
      <path d="M 650.454545 1260 
L 650.454545 765.818182 
" clip-path="url(#p8313450546)" style="fill: none; stroke: #ffffff; stroke-linecap: round"/>
     </g>
     <g id="text_47">
      <!-- 20 -->
      <g style="fill: #262626" transform="translate(635.161967 1289.183984)scale(0.275 -0.275)">
       <use xlink:href="#ArialMT-32"/>
       <use xlink:href="#ArialMT-30" x="55.615234"/>
      </g>
     </g>
    </g>
    <g id="xtick_24">
     <g id="line2d_46">
      <path d="M 741.472379 1260 
L 741.472379 765.818182 
" clip-path="url(#p8313450546)" style="fill: none; stroke: #ffffff; stroke-linecap: round"/>
     </g>
     <g id="text_48">
      <!-- 25 -->
      <g style="fill: #262626" transform="translate(726.179801 1289.183984)scale(0.275 -0.275)">
       <use xlink:href="#ArialMT-32"/>
       <use xlink:href="#ArialMT-35" x="55.615234"/>
      </g>
     </g>
    </g>
    <g id="xtick_25">
     <g id="line2d_47">
      <path d="M 832.490213 1260 
L 832.490213 765.818182 
" clip-path="url(#p8313450546)" style="fill: none; stroke: #ffffff; stroke-linecap: round"/>
     </g>
     <g id="text_49">
      <!-- 30 -->
      <g style="fill: #262626" transform="translate(817.197635 1289.183984)scale(0.275 -0.275)">
       <use xlink:href="#ArialMT-33"/>
       <use xlink:href="#ArialMT-30" x="55.615234"/>
      </g>
     </g>
    </g>
    <g id="xtick_26">
     <g id="line2d_48">
      <path d="M 923.508047 1260 
L 923.508047 765.818182 
" clip-path="url(#p8313450546)" style="fill: none; stroke: #ffffff; stroke-linecap: round"/>
     </g>
     <g id="text_50">
      <!-- 35 -->
      <g style="fill: #262626" transform="translate(908.215469 1289.183984)scale(0.275 -0.275)">
       <use xlink:href="#ArialMT-33"/>
       <use xlink:href="#ArialMT-35" x="55.615234"/>
      </g>
     </g>
    </g>
    <g id="xtick_27">
     <g id="line2d_49">
      <path d="M 1014.525881 1260 
L 1014.525881 765.818182 
" clip-path="url(#p8313450546)" style="fill: none; stroke: #ffffff; stroke-linecap: round"/>
     </g>
     <g id="text_51">
      <!-- 40 -->
      <g style="fill: #262626" transform="translate(999.233303 1289.183984)scale(0.275 -0.275)">
       <use xlink:href="#ArialMT-34"/>
       <use xlink:href="#ArialMT-30" x="55.615234"/>
      </g>
     </g>
    </g>
    <g id="text_52">
     <!-- Epoch -->
     <g style="fill: #262626" transform="translate(607.924858 1320.123047)scale(0.3 -0.3)">
      <use xlink:href="#ArialMT-45"/>
      <use xlink:href="#ArialMT-70" x="66.699219"/>
      <use xlink:href="#ArialMT-6f" x="122.314453"/>
      <use xlink:href="#ArialMT-63" x="177.929688"/>
      <use xlink:href="#ArialMT-68" x="227.929688"/>
     </g>
    </g>
   </g>
   <g id="matplotlib.axis_6">
    <g id="ytick_15">
     <g id="line2d_50">
      <path d="M 270 1195.803851 
L 1030.909091 1195.803851 
" clip-path="url(#p8313450546)" style="fill: none; stroke: #ffffff; stroke-linecap: round"/>
     </g>
     <g id="text_53">
      <!-- -0.075 -->
      <g style="fill: #262626" transform="translate(182.533203 1205.645844)scale(0.275 -0.275)">
       <use xlink:href="#ArialMT-2d"/>
       <use xlink:href="#ArialMT-30" x="33.300781"/>
       <use xlink:href="#ArialMT-2e" x="88.916016"/>
       <use xlink:href="#ArialMT-30" x="116.699219"/>
       <use xlink:href="#ArialMT-37" x="172.314453"/>
       <use xlink:href="#ArialMT-35" x="227.929688"/>
      </g>
     </g>
    </g>
    <g id="ytick_16">
     <g id="line2d_51">
      <path d="M 270 1119.596811 
L 1030.909091 1119.596811 
" clip-path="url(#p8313450546)" style="fill: none; stroke: #ffffff; stroke-linecap: round"/>
     </g>
     <g id="text_54">
      <!-- -0.050 -->
      <g style="fill: #262626" transform="translate(182.533203 1129.438803)scale(0.275 -0.275)">
       <use xlink:href="#ArialMT-2d"/>
       <use xlink:href="#ArialMT-30" x="33.300781"/>
       <use xlink:href="#ArialMT-2e" x="88.916016"/>
       <use xlink:href="#ArialMT-30" x="116.699219"/>
       <use xlink:href="#ArialMT-35" x="172.314453"/>
       <use xlink:href="#ArialMT-30" x="227.929688"/>
      </g>
     </g>
    </g>
    <g id="ytick_17">
     <g id="line2d_52">
      <path d="M 270 1043.38977 
L 1030.909091 1043.38977 
" clip-path="url(#p8313450546)" style="fill: none; stroke: #ffffff; stroke-linecap: round"/>
     </g>
     <g id="text_55">
      <!-- -0.025 -->
      <g style="fill: #262626" transform="translate(182.533203 1053.231762)scale(0.275 -0.275)">
       <use xlink:href="#ArialMT-2d"/>
       <use xlink:href="#ArialMT-30" x="33.300781"/>
       <use xlink:href="#ArialMT-2e" x="88.916016"/>
       <use xlink:href="#ArialMT-30" x="116.699219"/>
       <use xlink:href="#ArialMT-32" x="172.314453"/>
       <use xlink:href="#ArialMT-35" x="227.929688"/>
      </g>
     </g>
    </g>
    <g id="ytick_18">
     <g id="line2d_53">
      <path d="M 270 967.18273 
L 1030.909091 967.18273 
" clip-path="url(#p8313450546)" style="fill: none; stroke: #ffffff; stroke-linecap: round"/>
     </g>
     <g id="text_56">
      <!-- 0.000 -->
      <g style="fill: #262626" transform="translate(191.689844 977.024722)scale(0.275 -0.275)">
       <use xlink:href="#ArialMT-30"/>
       <use xlink:href="#ArialMT-2e" x="55.615234"/>
       <use xlink:href="#ArialMT-30" x="83.398438"/>
       <use xlink:href="#ArialMT-30" x="139.013672"/>
       <use xlink:href="#ArialMT-30" x="194.628906"/>
      </g>
     </g>
    </g>
    <g id="ytick_19">
     <g id="line2d_54">
      <path d="M 270 890.975689 
L 1030.909091 890.975689 
" clip-path="url(#p8313450546)" style="fill: none; stroke: #ffffff; stroke-linecap: round"/>
     </g>
     <g id="text_57">
      <!-- 0.025 -->
      <g style="fill: #262626" transform="translate(191.689844 900.817681)scale(0.275 -0.275)">
       <use xlink:href="#ArialMT-30"/>
       <use xlink:href="#ArialMT-2e" x="55.615234"/>
       <use xlink:href="#ArialMT-30" x="83.398438"/>
       <use xlink:href="#ArialMT-32" x="139.013672"/>
       <use xlink:href="#ArialMT-35" x="194.628906"/>
      </g>
     </g>
    </g>
    <g id="ytick_20">
     <g id="line2d_55">
      <path d="M 270 814.768648 
L 1030.909091 814.768648 
" clip-path="url(#p8313450546)" style="fill: none; stroke: #ffffff; stroke-linecap: round"/>
     </g>
     <g id="text_58">
      <!-- 0.050 -->
      <g style="fill: #262626" transform="translate(191.689844 824.610641)scale(0.275 -0.275)">
       <use xlink:href="#ArialMT-30"/>
       <use xlink:href="#ArialMT-2e" x="55.615234"/>
       <use xlink:href="#ArialMT-30" x="83.398438"/>
       <use xlink:href="#ArialMT-35" x="139.013672"/>
       <use xlink:href="#ArialMT-30" x="194.628906"/>
      </g>
     </g>
    </g>
    <g id="text_59">
     <!-- Testing changing rate -->
     <g style="fill: #262626" transform="translate(172.219141 1155.486435)rotate(-90)scale(0.3 -0.3)">
      <use xlink:href="#ArialMT-54"/>
      <use xlink:href="#ArialMT-65" x="49.958984"/>
      <use xlink:href="#ArialMT-73" x="105.574219"/>
      <use xlink:href="#ArialMT-74" x="155.574219"/>
      <use xlink:href="#ArialMT-69" x="183.357422"/>
      <use xlink:href="#ArialMT-6e" x="205.574219"/>
      <use xlink:href="#ArialMT-67" x="261.189453"/>
      <use xlink:href="#ArialMT-20" x="316.804688"/>
      <use xlink:href="#ArialMT-63" x="344.587891"/>
      <use xlink:href="#ArialMT-68" x="394.587891"/>
      <use xlink:href="#ArialMT-61" x="450.203125"/>
      <use xlink:href="#ArialMT-6e" x="505.818359"/>
      <use xlink:href="#ArialMT-67" x="561.433594"/>
      <use xlink:href="#ArialMT-69" x="617.048828"/>
      <use xlink:href="#ArialMT-6e" x="639.265625"/>
      <use xlink:href="#ArialMT-67" x="694.880859"/>
      <use xlink:href="#ArialMT-20" x="750.496094"/>
      <use xlink:href="#ArialMT-72" x="778.279297"/>
      <use xlink:href="#ArialMT-61" x="811.580078"/>
      <use xlink:href="#ArialMT-74" x="867.195312"/>
      <use xlink:href="#ArialMT-65" x="894.978516"/>
     </g>
    </g>
   </g>
   <g id="line2d_56">
    <path d="M 304.586777 1162.469073 
L 322.790344 929.205276 
L 340.99391 1028.637585 
L 359.197477 1027.37307 
L 377.401044 1179.767792 
L 395.604611 1050.569303 
L 413.808177 1024.955408 
L 432.011744 940.000802 
L 450.215311 968.089607 
L 468.418878 1047.780342 
L 486.622445 1181.420326 
L 504.826011 927.360319 
L 523.029578 968.631953 
L 541.233145 966.837601 
L 559.436712 1125.214583 
L 577.640278 963.144746 
L 595.843845 1049.360742 
L 614.047412 957.698117 
L 632.250979 788.280992 
L 650.454545 1237.53719 
L 668.658112 978.747788 
L 686.861679 967.13692 
L 705.065246 965.830131 
L 723.268813 993.179915 
L 741.472379 1005.345114 
L 759.675946 963.503325 
L 777.879513 971.891986 
L 796.08308 980.4924 
L 814.286646 906.12084 
L 832.490213 1055.746078 
L 850.69378 969.715581 
L 868.897347 956.751975 
L 887.100913 976.562663 
L 905.30448 952.904173 
L 923.508047 993.328581 
L 941.711614 967.120772 
L 959.915181 975.730921 
L 978.118747 960.441885 
L 996.322314 971.764414 
" clip-path="url(#p8313450546)" style="fill: none; stroke: #4c72b0; stroke-width: 1.5; stroke-linecap: round"/>
   </g>
   <g id="line2d_57">
    <path d="M 304.586777 1170.207274 
L 322.790344 1177.99656 
L 340.99391 1041.092908 
L 359.197477 1033.078836 
L 377.401044 1029.270129 
L 395.604611 999.815203 
L 413.808177 997.201433 
L 432.011744 1012.975932 
L 450.215311 988.814831 
L 468.418878 987.744217 
L 486.622445 968.933493 
L 504.826011 1040.985925 
L 523.029578 951.733143 
L 541.233145 938.352236 
L 559.436712 1032.596072 
L 577.640278 963.20748 
L 595.843845 996.158429 
L 614.047412 944.067019 
L 632.250979 1014.404055 
L 650.454545 1014.385138 
L 668.658112 969.915522 
L 686.861679 941.551312 
L 705.065246 992.07698 
L 723.268813 963.383823 
L 741.472379 972.813237 
L 759.675946 967.980377 
L 777.879513 1020.5089 
L 796.08308 976.062906 
L 814.286646 943.276671 
L 832.490213 1001.95722 
L 850.69378 920.546658 
L 868.897347 1001.041132 
L 887.100913 993.935926 
L 905.30448 959.135017 
L 923.508047 1004.144212 
L 941.711614 936.638546 
L 959.915181 975.675427 
L 978.118747 960.065373 
L 996.322314 1004.641252 
" clip-path="url(#p8313450546)" style="fill: none; stroke: #dd8452; stroke-width: 1.5; stroke-linecap: round"/>
   </g>
   <g id="patch_15">
    <path d="M 270 1260 
L 270 765.818182 
" style="fill: none; stroke: #ffffff; stroke-width: 1.25; stroke-linejoin: miter; stroke-linecap: square"/>
   </g>
   <g id="patch_16">
    <path d="M 1030.909091 1260 
L 1030.909091 765.818182 
" style="fill: none; stroke: #ffffff; stroke-width: 1.25; stroke-linejoin: miter; stroke-linecap: square"/>
   </g>
   <g id="patch_17">
    <path d="M 270 1260 
L 1030.909091 1260 
" style="fill: none; stroke: #ffffff; stroke-width: 1.25; stroke-linejoin: miter; stroke-linecap: square"/>
   </g>
   <g id="patch_18">
    <path d="M 270 765.818182 
L 1030.909091 765.818182 
" style="fill: none; stroke: #ffffff; stroke-width: 1.25; stroke-linejoin: miter; stroke-linecap: square"/>
   </g>
   <g id="text_60">
    <!-- Testing changing rate of Focal Loss (gamma=0.5) -->
    <g style="fill: #262626" transform="translate(320.72642 759.818182)scale(0.3 -0.3)">
     <defs>
      <path id="ArialMT-46" d="M 525 0 
L 525 4581 
L 3616 4581 
L 3616 4041 
L 1131 4041 
L 1131 2622 
L 3281 2622 
L 3281 2081 
L 1131 2081 
L 1131 0 
L 525 0 
z
" transform="scale(0.015625)"/>
      <path id="ArialMT-6c" d="M 409 0 
L 409 4581 
L 972 4581 
L 972 0 
L 409 0 
z
" transform="scale(0.015625)"/>
      <path id="ArialMT-3d" d="M 3381 2694 
L 356 2694 
L 356 3219 
L 3381 3219 
L 3381 2694 
z
M 3381 1303 
L 356 1303 
L 356 1828 
L 3381 1828 
L 3381 1303 
z
" transform="scale(0.015625)"/>
     </defs>
     <use xlink:href="#ArialMT-54"/>
     <use xlink:href="#ArialMT-65" x="49.958984"/>
     <use xlink:href="#ArialMT-73" x="105.574219"/>
     <use xlink:href="#ArialMT-74" x="155.574219"/>
     <use xlink:href="#ArialMT-69" x="183.357422"/>
     <use xlink:href="#ArialMT-6e" x="205.574219"/>
     <use xlink:href="#ArialMT-67" x="261.189453"/>
     <use xlink:href="#ArialMT-20" x="316.804688"/>
     <use xlink:href="#ArialMT-63" x="344.587891"/>
     <use xlink:href="#ArialMT-68" x="394.587891"/>
     <use xlink:href="#ArialMT-61" x="450.203125"/>
     <use xlink:href="#ArialMT-6e" x="505.818359"/>
     <use xlink:href="#ArialMT-67" x="561.433594"/>
     <use xlink:href="#ArialMT-69" x="617.048828"/>
     <use xlink:href="#ArialMT-6e" x="639.265625"/>
     <use xlink:href="#ArialMT-67" x="694.880859"/>
     <use xlink:href="#ArialMT-20" x="750.496094"/>
     <use xlink:href="#ArialMT-72" x="778.279297"/>
     <use xlink:href="#ArialMT-61" x="811.580078"/>
     <use xlink:href="#ArialMT-74" x="867.195312"/>
     <use xlink:href="#ArialMT-65" x="894.978516"/>
     <use xlink:href="#ArialMT-20" x="950.59375"/>
     <use xlink:href="#ArialMT-6f" x="978.376953"/>
     <use xlink:href="#ArialMT-66" x="1033.992188"/>
     <use xlink:href="#ArialMT-20" x="1061.775391"/>
     <use xlink:href="#ArialMT-46" x="1089.558594"/>
     <use xlink:href="#ArialMT-6f" x="1150.642578"/>
     <use xlink:href="#ArialMT-63" x="1206.257812"/>
     <use xlink:href="#ArialMT-61" x="1256.257812"/>
     <use xlink:href="#ArialMT-6c" x="1311.873047"/>
     <use xlink:href="#ArialMT-20" x="1334.089844"/>
     <use xlink:href="#ArialMT-4c" x="1361.873047"/>
     <use xlink:href="#ArialMT-6f" x="1417.488281"/>
     <use xlink:href="#ArialMT-73" x="1473.103516"/>
     <use xlink:href="#ArialMT-73" x="1523.103516"/>
     <use xlink:href="#ArialMT-20" x="1573.103516"/>
     <use xlink:href="#ArialMT-28" x="1600.886719"/>
     <use xlink:href="#ArialMT-67" x="1634.1875"/>
     <use xlink:href="#ArialMT-61" x="1689.802734"/>
     <use xlink:href="#ArialMT-6d" x="1745.417969"/>
     <use xlink:href="#ArialMT-6d" x="1828.71875"/>
     <use xlink:href="#ArialMT-61" x="1912.019531"/>
     <use xlink:href="#ArialMT-3d" x="1967.634766"/>
     <use xlink:href="#ArialMT-30" x="2026.033203"/>
     <use xlink:href="#ArialMT-2e" x="2081.648438"/>
     <use xlink:href="#ArialMT-35" x="2109.431641"/>
     <use xlink:href="#ArialMT-29" x="2165.046875"/>
    </g>
   </g>
   <g id="legend_3">
    <g id="patch_19">
     <path d="M 583.621591 866.932244 
L 1011.659091 866.932244 
Q 1017.159091 866.932244 1017.159091 861.432244 
L 1017.159091 785.068182 
Q 1017.159091 779.568182 1011.659091 779.568182 
L 583.621591 779.568182 
Q 578.121591 779.568182 578.121591 785.068182 
L 578.121591 861.432244 
Q 578.121591 866.932244 583.621591 866.932244 
z
" style="fill: #eaeaf2; opacity: 0.8; stroke: #cccccc; stroke-linejoin: miter"/>
    </g>
    <g id="line2d_58">
     <path d="M 589.121591 800.962322 
L 616.621591 800.962322 
L 644.121591 800.962322 
" style="fill: none; stroke: #4c72b0; stroke-width: 1.5; stroke-linecap: round"/>
    </g>
    <g id="text_61">
     <!-- Focal(Gamma = 0.5)_SGD -->
     <g style="fill: #262626" transform="translate(666.121591 810.587322)scale(0.275 -0.275)">
      <use xlink:href="#ArialMT-46"/>
      <use xlink:href="#ArialMT-6f" x="61.083984"/>
      <use xlink:href="#ArialMT-63" x="116.699219"/>
      <use xlink:href="#ArialMT-61" x="166.699219"/>
      <use xlink:href="#ArialMT-6c" x="222.314453"/>
      <use xlink:href="#ArialMT-28" x="244.53125"/>
      <use xlink:href="#ArialMT-47" x="277.832031"/>
      <use xlink:href="#ArialMT-61" x="355.615234"/>
      <use xlink:href="#ArialMT-6d" x="411.230469"/>
      <use xlink:href="#ArialMT-6d" x="494.53125"/>
      <use xlink:href="#ArialMT-61" x="577.832031"/>
      <use xlink:href="#ArialMT-20" x="633.447266"/>
      <use xlink:href="#ArialMT-3d" x="661.230469"/>
      <use xlink:href="#ArialMT-20" x="719.628906"/>
      <use xlink:href="#ArialMT-30" x="747.412109"/>
      <use xlink:href="#ArialMT-2e" x="803.027344"/>
      <use xlink:href="#ArialMT-35" x="830.810547"/>
      <use xlink:href="#ArialMT-29" x="886.425781"/>
      <use xlink:href="#ArialMT-5f" x="919.726562"/>
      <use xlink:href="#ArialMT-53" x="975.341797"/>
      <use xlink:href="#ArialMT-47" x="1042.041016"/>
      <use xlink:href="#ArialMT-44" x="1119.824219"/>
     </g>
    </g>
    <g id="line2d_59">
     <path d="M 589.121591 840.519354 
L 616.621591 840.519354 
L 644.121591 840.519354 
" style="fill: none; stroke: #dd8452; stroke-width: 1.5; stroke-linecap: round"/>
    </g>
    <g id="text_62">
     <!-- Focal(Gamma = 0.5)_Adam -->
     <g style="fill: #262626" transform="translate(666.121591 850.144354)scale(0.275 -0.275)">
      <use xlink:href="#ArialMT-46"/>
      <use xlink:href="#ArialMT-6f" x="61.083984"/>
      <use xlink:href="#ArialMT-63" x="116.699219"/>
      <use xlink:href="#ArialMT-61" x="166.699219"/>
      <use xlink:href="#ArialMT-6c" x="222.314453"/>
      <use xlink:href="#ArialMT-28" x="244.53125"/>
      <use xlink:href="#ArialMT-47" x="277.832031"/>
      <use xlink:href="#ArialMT-61" x="355.615234"/>
      <use xlink:href="#ArialMT-6d" x="411.230469"/>
      <use xlink:href="#ArialMT-6d" x="494.53125"/>
      <use xlink:href="#ArialMT-61" x="577.832031"/>
      <use xlink:href="#ArialMT-20" x="633.447266"/>
      <use xlink:href="#ArialMT-3d" x="661.230469"/>
      <use xlink:href="#ArialMT-20" x="719.628906"/>
      <use xlink:href="#ArialMT-30" x="747.412109"/>
      <use xlink:href="#ArialMT-2e" x="803.027344"/>
      <use xlink:href="#ArialMT-35" x="830.810547"/>
      <use xlink:href="#ArialMT-29" x="886.425781"/>
      <use xlink:href="#ArialMT-5f" x="919.726562"/>
      <use xlink:href="#ArialMT-41" x="975.341797"/>
      <use xlink:href="#ArialMT-64" x="1042.041016"/>
      <use xlink:href="#ArialMT-61" x="1097.65625"/>
      <use xlink:href="#ArialMT-6d" x="1153.271484"/>
     </g>
    </g>
   </g>
  </g>
  <g id="axes_4">
   <g id="patch_20">
    <path d="M 1183.090909 1260 
L 1944 1260 
L 1944 765.818182 
L 1183.090909 765.818182 
z
" style="fill: #eaeaf2"/>
   </g>
   <g id="matplotlib.axis_7">
    <g id="xtick_28">
     <g id="line2d_60">
      <path d="M 1199.474119 1260 
L 1199.474119 765.818182 
" clip-path="url(#p6e4074d2e1)" style="fill: none; stroke: #ffffff; stroke-linecap: round"/>
     </g>
     <g id="text_63">
      <!-- 0 -->
      <g style="fill: #262626" transform="translate(1191.82783 1289.183984)scale(0.275 -0.275)">
       <use xlink:href="#ArialMT-30"/>
      </g>
     </g>
    </g>
    <g id="xtick_29">
     <g id="line2d_61">
      <path d="M 1290.491953 1260 
L 1290.491953 765.818182 
" clip-path="url(#p6e4074d2e1)" style="fill: none; stroke: #ffffff; stroke-linecap: round"/>
     </g>
     <g id="text_64">
      <!-- 5 -->
      <g style="fill: #262626" transform="translate(1282.845664 1289.183984)scale(0.275 -0.275)">
       <use xlink:href="#ArialMT-35"/>
      </g>
     </g>
    </g>
    <g id="xtick_30">
     <g id="line2d_62">
      <path d="M 1381.509787 1260 
L 1381.509787 765.818182 
" clip-path="url(#p6e4074d2e1)" style="fill: none; stroke: #ffffff; stroke-linecap: round"/>
     </g>
     <g id="text_65">
      <!-- 10 -->
      <g style="fill: #262626" transform="translate(1366.217209 1289.183984)scale(0.275 -0.275)">
       <use xlink:href="#ArialMT-31"/>
       <use xlink:href="#ArialMT-30" x="55.615234"/>
      </g>
     </g>
    </g>
    <g id="xtick_31">
     <g id="line2d_63">
      <path d="M 1472.527621 1260 
L 1472.527621 765.818182 
" clip-path="url(#p6e4074d2e1)" style="fill: none; stroke: #ffffff; stroke-linecap: round"/>
     </g>
     <g id="text_66">
      <!-- 15 -->
      <g style="fill: #262626" transform="translate(1457.235043 1289.183984)scale(0.275 -0.275)">
       <use xlink:href="#ArialMT-31"/>
       <use xlink:href="#ArialMT-35" x="55.615234"/>
      </g>
     </g>
    </g>
    <g id="xtick_32">
     <g id="line2d_64">
      <path d="M 1563.545455 1260 
L 1563.545455 765.818182 
" clip-path="url(#p6e4074d2e1)" style="fill: none; stroke: #ffffff; stroke-linecap: round"/>
     </g>
     <g id="text_67">
      <!-- 20 -->
      <g style="fill: #262626" transform="translate(1548.252876 1289.183984)scale(0.275 -0.275)">
       <use xlink:href="#ArialMT-32"/>
       <use xlink:href="#ArialMT-30" x="55.615234"/>
      </g>
     </g>
    </g>
    <g id="xtick_33">
     <g id="line2d_65">
      <path d="M 1654.563288 1260 
L 1654.563288 765.818182 
" clip-path="url(#p6e4074d2e1)" style="fill: none; stroke: #ffffff; stroke-linecap: round"/>
     </g>
     <g id="text_68">
      <!-- 25 -->
      <g style="fill: #262626" transform="translate(1639.27071 1289.183984)scale(0.275 -0.275)">
       <use xlink:href="#ArialMT-32"/>
       <use xlink:href="#ArialMT-35" x="55.615234"/>
      </g>
     </g>
    </g>
    <g id="xtick_34">
     <g id="line2d_66">
      <path d="M 1745.581122 1260 
L 1745.581122 765.818182 
" clip-path="url(#p6e4074d2e1)" style="fill: none; stroke: #ffffff; stroke-linecap: round"/>
     </g>
     <g id="text_69">
      <!-- 30 -->
      <g style="fill: #262626" transform="translate(1730.288544 1289.183984)scale(0.275 -0.275)">
       <use xlink:href="#ArialMT-33"/>
       <use xlink:href="#ArialMT-30" x="55.615234"/>
      </g>
     </g>
    </g>
    <g id="xtick_35">
     <g id="line2d_67">
      <path d="M 1836.598956 1260 
L 1836.598956 765.818182 
" clip-path="url(#p6e4074d2e1)" style="fill: none; stroke: #ffffff; stroke-linecap: round"/>
     </g>
     <g id="text_70">
      <!-- 35 -->
      <g style="fill: #262626" transform="translate(1821.306378 1289.183984)scale(0.275 -0.275)">
       <use xlink:href="#ArialMT-33"/>
       <use xlink:href="#ArialMT-35" x="55.615234"/>
      </g>
     </g>
    </g>
    <g id="xtick_36">
     <g id="line2d_68">
      <path d="M 1927.61679 1260 
L 1927.61679 765.818182 
" clip-path="url(#p6e4074d2e1)" style="fill: none; stroke: #ffffff; stroke-linecap: round"/>
     </g>
     <g id="text_71">
      <!-- 40 -->
      <g style="fill: #262626" transform="translate(1912.324212 1289.183984)scale(0.275 -0.275)">
       <use xlink:href="#ArialMT-34"/>
       <use xlink:href="#ArialMT-30" x="55.615234"/>
      </g>
     </g>
    </g>
    <g id="text_72">
     <!-- Epoch -->
     <g style="fill: #262626" transform="translate(1521.015767 1320.123047)scale(0.3 -0.3)">
      <use xlink:href="#ArialMT-45"/>
      <use xlink:href="#ArialMT-70" x="66.699219"/>
      <use xlink:href="#ArialMT-6f" x="122.314453"/>
      <use xlink:href="#ArialMT-63" x="177.929688"/>
      <use xlink:href="#ArialMT-68" x="227.929688"/>
     </g>
    </g>
   </g>
   <g id="matplotlib.axis_8">
    <g id="ytick_21">
     <g id="line2d_69">
      <path d="M 1183.090909 1223.598887 
L 1944 1223.598887 
" clip-path="url(#p6e4074d2e1)" style="fill: none; stroke: #ffffff; stroke-linecap: round"/>
     </g>
     <g id="text_73">
      <!-- -0.100 -->
      <g style="fill: #262626" transform="translate(1095.624112 1233.44088)scale(0.275 -0.275)">
       <use xlink:href="#ArialMT-2d"/>
       <use xlink:href="#ArialMT-30" x="33.300781"/>
       <use xlink:href="#ArialMT-2e" x="88.916016"/>
       <use xlink:href="#ArialMT-31" x="116.699219"/>
       <use xlink:href="#ArialMT-30" x="172.314453"/>
       <use xlink:href="#ArialMT-30" x="227.929688"/>
      </g>
     </g>
    </g>
    <g id="ytick_22">
     <g id="line2d_70">
      <path d="M 1183.090909 1147.611536 
L 1944 1147.611536 
" clip-path="url(#p6e4074d2e1)" style="fill: none; stroke: #ffffff; stroke-linecap: round"/>
     </g>
     <g id="text_74">
      <!-- -0.075 -->
      <g style="fill: #262626" transform="translate(1095.624112 1157.453528)scale(0.275 -0.275)">
       <use xlink:href="#ArialMT-2d"/>
       <use xlink:href="#ArialMT-30" x="33.300781"/>
       <use xlink:href="#ArialMT-2e" x="88.916016"/>
       <use xlink:href="#ArialMT-30" x="116.699219"/>
       <use xlink:href="#ArialMT-37" x="172.314453"/>
       <use xlink:href="#ArialMT-35" x="227.929688"/>
      </g>
     </g>
    </g>
    <g id="ytick_23">
     <g id="line2d_71">
      <path d="M 1183.090909 1071.624185 
L 1944 1071.624185 
" clip-path="url(#p6e4074d2e1)" style="fill: none; stroke: #ffffff; stroke-linecap: round"/>
     </g>
     <g id="text_75">
      <!-- -0.050 -->
      <g style="fill: #262626" transform="translate(1095.624112 1081.466177)scale(0.275 -0.275)">
       <use xlink:href="#ArialMT-2d"/>
       <use xlink:href="#ArialMT-30" x="33.300781"/>
       <use xlink:href="#ArialMT-2e" x="88.916016"/>
       <use xlink:href="#ArialMT-30" x="116.699219"/>
       <use xlink:href="#ArialMT-35" x="172.314453"/>
       <use xlink:href="#ArialMT-30" x="227.929688"/>
      </g>
     </g>
    </g>
    <g id="ytick_24">
     <g id="line2d_72">
      <path d="M 1183.090909 995.636833 
L 1944 995.636833 
" clip-path="url(#p6e4074d2e1)" style="fill: none; stroke: #ffffff; stroke-linecap: round"/>
     </g>
     <g id="text_76">
      <!-- -0.025 -->
      <g style="fill: #262626" transform="translate(1095.624112 1005.478826)scale(0.275 -0.275)">
       <use xlink:href="#ArialMT-2d"/>
       <use xlink:href="#ArialMT-30" x="33.300781"/>
       <use xlink:href="#ArialMT-2e" x="88.916016"/>
       <use xlink:href="#ArialMT-30" x="116.699219"/>
       <use xlink:href="#ArialMT-32" x="172.314453"/>
       <use xlink:href="#ArialMT-35" x="227.929688"/>
      </g>
     </g>
    </g>
    <g id="ytick_25">
     <g id="line2d_73">
      <path d="M 1183.090909 919.649482 
L 1944 919.649482 
" clip-path="url(#p6e4074d2e1)" style="fill: none; stroke: #ffffff; stroke-linecap: round"/>
     </g>
     <g id="text_77">
      <!-- 0.000 -->
      <g style="fill: #262626" transform="translate(1104.780753 929.491474)scale(0.275 -0.275)">
       <use xlink:href="#ArialMT-30"/>
       <use xlink:href="#ArialMT-2e" x="55.615234"/>
       <use xlink:href="#ArialMT-30" x="83.398438"/>
       <use xlink:href="#ArialMT-30" x="139.013672"/>
       <use xlink:href="#ArialMT-30" x="194.628906"/>
      </g>
     </g>
    </g>
    <g id="ytick_26">
     <g id="line2d_74">
      <path d="M 1183.090909 843.662131 
L 1944 843.662131 
" clip-path="url(#p6e4074d2e1)" style="fill: none; stroke: #ffffff; stroke-linecap: round"/>
     </g>
     <g id="text_78">
      <!-- 0.025 -->
      <g style="fill: #262626" transform="translate(1104.780753 853.504123)scale(0.275 -0.275)">
       <use xlink:href="#ArialMT-30"/>
       <use xlink:href="#ArialMT-2e" x="55.615234"/>
       <use xlink:href="#ArialMT-30" x="83.398438"/>
       <use xlink:href="#ArialMT-32" x="139.013672"/>
       <use xlink:href="#ArialMT-35" x="194.628906"/>
      </g>
     </g>
    </g>
    <g id="ytick_27">
     <g id="line2d_75">
      <path d="M 1183.090909 767.674779 
L 1944 767.674779 
" clip-path="url(#p6e4074d2e1)" style="fill: none; stroke: #ffffff; stroke-linecap: round"/>
     </g>
     <g id="text_79">
      <!-- 0.050 -->
      <g style="fill: #262626" transform="translate(1104.780753 777.516772)scale(0.275 -0.275)">
       <use xlink:href="#ArialMT-30"/>
       <use xlink:href="#ArialMT-2e" x="55.615234"/>
       <use xlink:href="#ArialMT-30" x="83.398438"/>
       <use xlink:href="#ArialMT-35" x="139.013672"/>
       <use xlink:href="#ArialMT-30" x="194.628906"/>
      </g>
     </g>
    </g>
    <g id="text_80">
     <!-- Testing changing rate -->
     <g style="fill: #262626" transform="translate(1085.31005 1155.486435)rotate(-90)scale(0.3 -0.3)">
      <use xlink:href="#ArialMT-54"/>
      <use xlink:href="#ArialMT-65" x="49.958984"/>
      <use xlink:href="#ArialMT-73" x="105.574219"/>
      <use xlink:href="#ArialMT-74" x="155.574219"/>
      <use xlink:href="#ArialMT-69" x="183.357422"/>
      <use xlink:href="#ArialMT-6e" x="205.574219"/>
      <use xlink:href="#ArialMT-67" x="261.189453"/>
      <use xlink:href="#ArialMT-20" x="316.804688"/>
      <use xlink:href="#ArialMT-63" x="344.587891"/>
      <use xlink:href="#ArialMT-68" x="394.587891"/>
      <use xlink:href="#ArialMT-61" x="450.203125"/>
      <use xlink:href="#ArialMT-6e" x="505.818359"/>
      <use xlink:href="#ArialMT-67" x="561.433594"/>
      <use xlink:href="#ArialMT-69" x="617.048828"/>
      <use xlink:href="#ArialMT-6e" x="639.265625"/>
      <use xlink:href="#ArialMT-67" x="694.880859"/>
      <use xlink:href="#ArialMT-20" x="750.496094"/>
      <use xlink:href="#ArialMT-72" x="778.279297"/>
      <use xlink:href="#ArialMT-61" x="811.580078"/>
      <use xlink:href="#ArialMT-74" x="867.195312"/>
      <use xlink:href="#ArialMT-65" x="894.978516"/>
     </g>
    </g>
   </g>
   <g id="line2d_76">
    <path d="M 1217.677686 1014.511906 
L 1235.881253 1110.524588 
L 1254.084819 837.155208 
L 1272.288386 1003.592226 
L 1290.491953 1237.53719 
L 1308.69552 788.280992 
L 1326.899087 1067.166985 
L 1345.102653 897.53761 
L 1363.30622 985.107867 
L 1381.509787 1134.678109 
L 1399.713354 962.625986 
L 1417.91692 958.452316 
L 1436.120487 894.572632 
L 1454.324054 901.528299 
L 1472.527621 1021.099348 
L 1490.731187 1023.092744 
L 1508.934754 948.68315 
L 1527.138321 874.452385 
L 1545.341888 859.448348 
L 1563.545455 1123.711316 
L 1581.749021 907.340821 
L 1599.952588 890.580541 
L 1618.156155 910.95969 
L 1636.359722 978.544592 
L 1654.563288 911.176283 
L 1672.766855 969.917142 
L 1690.970422 899.000966 
L 1709.173989 907.332403 
L 1727.377555 928.573181 
L 1745.581122 942.527748 
L 1763.784689 956.364749 
L 1781.988256 898.199868 
L 1800.191823 946.175924 
L 1818.395389 898.06428 
L 1836.598956 927.515784 
L 1854.802523 932.728844 
L 1873.00609 901.818639 
L 1891.209656 952.361622 
L 1909.413223 903.102034 
" clip-path="url(#p6e4074d2e1)" style="fill: none; stroke: #4c72b0; stroke-width: 1.5; stroke-linecap: round"/>
   </g>
   <g id="line2d_77">
    <path d="M 1217.677686 1174.558413 
L 1235.881253 1034.058181 
L 1254.084819 1037.541526 
L 1272.288386 982.702478 
L 1290.491953 1012.677785 
L 1308.69552 926.922282 
L 1326.899087 1010.705822 
L 1345.102653 988.635394 
L 1363.30622 879.410848 
L 1381.509787 966.363152 
L 1399.713354 985.160621 
L 1417.91692 921.172772 
L 1436.120487 934.358643 
L 1454.324054 922.271097 
L 1472.527621 904.620829 
L 1490.731187 1059.08218 
L 1508.934754 904.954059 
L 1527.138321 946.714669 
L 1545.341888 925.262233 
L 1563.545455 916.108065 
L 1581.749021 967.867747 
L 1599.952588 929.670602 
L 1618.156155 888.389579 
L 1636.359722 979.36599 
L 1654.563288 854.443694 
L 1672.766855 829.580306 
L 1690.970422 1070.293908 
L 1709.173989 947.732345 
L 1727.377555 902.940517 
L 1745.581122 931.69458 
L 1763.784689 953.485796 
L 1781.988256 900.73265 
L 1800.191823 957.443302 
L 1818.395389 878.404048 
L 1836.598956 948.459986 
L 1854.802523 891.369413 
L 1873.00609 982.457559 
L 1891.209656 879.944023 
L 1909.413223 942.215275 
" clip-path="url(#p6e4074d2e1)" style="fill: none; stroke: #dd8452; stroke-width: 1.5; stroke-linecap: round"/>
   </g>
   <g id="patch_21">
    <path d="M 1183.090909 1260 
L 1183.090909 765.818182 
" style="fill: none; stroke: #ffffff; stroke-width: 1.25; stroke-linejoin: miter; stroke-linecap: square"/>
   </g>
   <g id="patch_22">
    <path d="M 1944 1260 
L 1944 765.818182 
" style="fill: none; stroke: #ffffff; stroke-width: 1.25; stroke-linejoin: miter; stroke-linecap: square"/>
   </g>
   <g id="patch_23">
    <path d="M 1183.090909 1260 
L 1944 1260 
" style="fill: none; stroke: #ffffff; stroke-width: 1.25; stroke-linejoin: miter; stroke-linecap: square"/>
   </g>
   <g id="patch_24">
    <path d="M 1183.090909 765.818182 
L 1944 765.818182 
" style="fill: none; stroke: #ffffff; stroke-width: 1.25; stroke-linejoin: miter; stroke-linecap: square"/>
   </g>
   <g id="text_81">
    <!-- Testing changing rate of Focal Loss (gamma=2) -->
    <g style="fill: #262626" transform="translate(1246.325923 759.818182)scale(0.3 -0.3)">
     <use xlink:href="#ArialMT-54"/>
     <use xlink:href="#ArialMT-65" x="49.958984"/>
     <use xlink:href="#ArialMT-73" x="105.574219"/>
     <use xlink:href="#ArialMT-74" x="155.574219"/>
     <use xlink:href="#ArialMT-69" x="183.357422"/>
     <use xlink:href="#ArialMT-6e" x="205.574219"/>
     <use xlink:href="#ArialMT-67" x="261.189453"/>
     <use xlink:href="#ArialMT-20" x="316.804688"/>
     <use xlink:href="#ArialMT-63" x="344.587891"/>
     <use xlink:href="#ArialMT-68" x="394.587891"/>
     <use xlink:href="#ArialMT-61" x="450.203125"/>
     <use xlink:href="#ArialMT-6e" x="505.818359"/>
     <use xlink:href="#ArialMT-67" x="561.433594"/>
     <use xlink:href="#ArialMT-69" x="617.048828"/>
     <use xlink:href="#ArialMT-6e" x="639.265625"/>
     <use xlink:href="#ArialMT-67" x="694.880859"/>
     <use xlink:href="#ArialMT-20" x="750.496094"/>
     <use xlink:href="#ArialMT-72" x="778.279297"/>
     <use xlink:href="#ArialMT-61" x="811.580078"/>
     <use xlink:href="#ArialMT-74" x="867.195312"/>
     <use xlink:href="#ArialMT-65" x="894.978516"/>
     <use xlink:href="#ArialMT-20" x="950.59375"/>
     <use xlink:href="#ArialMT-6f" x="978.376953"/>
     <use xlink:href="#ArialMT-66" x="1033.992188"/>
     <use xlink:href="#ArialMT-20" x="1061.775391"/>
     <use xlink:href="#ArialMT-46" x="1089.558594"/>
     <use xlink:href="#ArialMT-6f" x="1150.642578"/>
     <use xlink:href="#ArialMT-63" x="1206.257812"/>
     <use xlink:href="#ArialMT-61" x="1256.257812"/>
     <use xlink:href="#ArialMT-6c" x="1311.873047"/>
     <use xlink:href="#ArialMT-20" x="1334.089844"/>
     <use xlink:href="#ArialMT-4c" x="1361.873047"/>
     <use xlink:href="#ArialMT-6f" x="1417.488281"/>
     <use xlink:href="#ArialMT-73" x="1473.103516"/>
     <use xlink:href="#ArialMT-73" x="1523.103516"/>
     <use xlink:href="#ArialMT-20" x="1573.103516"/>
     <use xlink:href="#ArialMT-28" x="1600.886719"/>
     <use xlink:href="#ArialMT-67" x="1634.1875"/>
     <use xlink:href="#ArialMT-61" x="1689.802734"/>
     <use xlink:href="#ArialMT-6d" x="1745.417969"/>
     <use xlink:href="#ArialMT-6d" x="1828.71875"/>
     <use xlink:href="#ArialMT-61" x="1912.019531"/>
     <use xlink:href="#ArialMT-3d" x="1967.634766"/>
     <use xlink:href="#ArialMT-32" x="2026.033203"/>
     <use xlink:href="#ArialMT-29" x="2081.648438"/>
    </g>
   </g>
   <g id="legend_4">
    <g id="patch_25">
     <path d="M 1519.644922 1246.25 
L 1924.75 1246.25 
Q 1930.25 1246.25 1930.25 1240.75 
L 1930.25 1164.385937 
Q 1930.25 1158.885937 1924.75 1158.885937 
L 1519.644922 1158.885937 
Q 1514.144922 1158.885937 1514.144922 1164.385937 
L 1514.144922 1240.75 
Q 1514.144922 1246.25 1519.644922 1246.25 
z
" style="fill: #eaeaf2; opacity: 0.8; stroke: #cccccc; stroke-linejoin: miter"/>
    </g>
    <g id="line2d_78">
     <path d="M 1525.144922 1180.280078 
L 1552.644922 1180.280078 
L 1580.144922 1180.280078 
" style="fill: none; stroke: #4c72b0; stroke-width: 1.5; stroke-linecap: round"/>
    </g>
    <g id="text_82">
     <!-- Focal(Gamma = 2)_SGD -->
     <g style="fill: #262626" transform="translate(1602.144922 1189.905078)scale(0.275 -0.275)">
      <use xlink:href="#ArialMT-46"/>
      <use xlink:href="#ArialMT-6f" x="61.083984"/>
      <use xlink:href="#ArialMT-63" x="116.699219"/>
      <use xlink:href="#ArialMT-61" x="166.699219"/>
      <use xlink:href="#ArialMT-6c" x="222.314453"/>
      <use xlink:href="#ArialMT-28" x="244.53125"/>
      <use xlink:href="#ArialMT-47" x="277.832031"/>
      <use xlink:href="#ArialMT-61" x="355.615234"/>
      <use xlink:href="#ArialMT-6d" x="411.230469"/>
      <use xlink:href="#ArialMT-6d" x="494.53125"/>
      <use xlink:href="#ArialMT-61" x="577.832031"/>
      <use xlink:href="#ArialMT-20" x="633.447266"/>
      <use xlink:href="#ArialMT-3d" x="661.230469"/>
      <use xlink:href="#ArialMT-20" x="719.628906"/>
      <use xlink:href="#ArialMT-32" x="747.412109"/>
      <use xlink:href="#ArialMT-29" x="803.027344"/>
      <use xlink:href="#ArialMT-5f" x="836.328125"/>
      <use xlink:href="#ArialMT-53" x="891.943359"/>
      <use xlink:href="#ArialMT-47" x="958.642578"/>
      <use xlink:href="#ArialMT-44" x="1036.425781"/>
     </g>
    </g>
    <g id="line2d_79">
     <path d="M 1525.144922 1219.837109 
L 1552.644922 1219.837109 
L 1580.144922 1219.837109 
" style="fill: none; stroke: #dd8452; stroke-width: 1.5; stroke-linecap: round"/>
    </g>
    <g id="text_83">
     <!-- Focal(Gamma = 2)_Adam -->
     <g style="fill: #262626" transform="translate(1602.144922 1229.462109)scale(0.275 -0.275)">
      <use xlink:href="#ArialMT-46"/>
      <use xlink:href="#ArialMT-6f" x="61.083984"/>
      <use xlink:href="#ArialMT-63" x="116.699219"/>
      <use xlink:href="#ArialMT-61" x="166.699219"/>
      <use xlink:href="#ArialMT-6c" x="222.314453"/>
      <use xlink:href="#ArialMT-28" x="244.53125"/>
      <use xlink:href="#ArialMT-47" x="277.832031"/>
      <use xlink:href="#ArialMT-61" x="355.615234"/>
      <use xlink:href="#ArialMT-6d" x="411.230469"/>
      <use xlink:href="#ArialMT-6d" x="494.53125"/>
      <use xlink:href="#ArialMT-61" x="577.832031"/>
      <use xlink:href="#ArialMT-20" x="633.447266"/>
      <use xlink:href="#ArialMT-3d" x="661.230469"/>
      <use xlink:href="#ArialMT-20" x="719.628906"/>
      <use xlink:href="#ArialMT-32" x="747.412109"/>
      <use xlink:href="#ArialMT-29" x="803.027344"/>
      <use xlink:href="#ArialMT-5f" x="836.328125"/>
      <use xlink:href="#ArialMT-41" x="891.943359"/>
      <use xlink:href="#ArialMT-64" x="958.642578"/>
      <use xlink:href="#ArialMT-61" x="1014.257812"/>
      <use xlink:href="#ArialMT-6d" x="1069.873047"/>
     </g>
    </g>
   </g>
  </g>
  <g id="text_84">
   <!-- Testing changing rate of different loss functions -->
   <g style="fill: #262626" transform="translate(663.475 57.91875)scale(0.4 -0.4)">
    <defs>
     <path id="ArialMT-75" d="M 2597 0 
L 2597 488 
Q 2209 -75 1544 -75 
Q 1250 -75 995 37 
Q 741 150 617 320 
Q 494 491 444 738 
Q 409 903 409 1263 
L 409 3319 
L 972 3319 
L 972 1478 
Q 972 1038 1006 884 
Q 1059 663 1231 536 
Q 1403 409 1656 409 
Q 1909 409 2131 539 
Q 2353 669 2445 892 
Q 2538 1116 2538 1541 
L 2538 3319 
L 3100 3319 
L 3100 0 
L 2597 0 
z
" transform="scale(0.015625)"/>
    </defs>
    <use xlink:href="#ArialMT-54"/>
    <use xlink:href="#ArialMT-65" x="49.958984"/>
    <use xlink:href="#ArialMT-73" x="105.574219"/>
    <use xlink:href="#ArialMT-74" x="155.574219"/>
    <use xlink:href="#ArialMT-69" x="183.357422"/>
    <use xlink:href="#ArialMT-6e" x="205.574219"/>
    <use xlink:href="#ArialMT-67" x="261.189453"/>
    <use xlink:href="#ArialMT-20" x="316.804688"/>
    <use xlink:href="#ArialMT-63" x="344.587891"/>
    <use xlink:href="#ArialMT-68" x="394.587891"/>
    <use xlink:href="#ArialMT-61" x="450.203125"/>
    <use xlink:href="#ArialMT-6e" x="505.818359"/>
    <use xlink:href="#ArialMT-67" x="561.433594"/>
    <use xlink:href="#ArialMT-69" x="617.048828"/>
    <use xlink:href="#ArialMT-6e" x="639.265625"/>
    <use xlink:href="#ArialMT-67" x="694.880859"/>
    <use xlink:href="#ArialMT-20" x="750.496094"/>
    <use xlink:href="#ArialMT-72" x="778.279297"/>
    <use xlink:href="#ArialMT-61" x="811.580078"/>
    <use xlink:href="#ArialMT-74" x="867.195312"/>
    <use xlink:href="#ArialMT-65" x="894.978516"/>
    <use xlink:href="#ArialMT-20" x="950.59375"/>
    <use xlink:href="#ArialMT-6f" x="978.376953"/>
    <use xlink:href="#ArialMT-66" x="1033.992188"/>
    <use xlink:href="#ArialMT-20" x="1061.775391"/>
    <use xlink:href="#ArialMT-64" x="1089.558594"/>
    <use xlink:href="#ArialMT-69" x="1145.173828"/>
    <use xlink:href="#ArialMT-66" x="1167.390625"/>
    <use xlink:href="#ArialMT-66" x="1193.423828"/>
    <use xlink:href="#ArialMT-65" x="1221.207031"/>
    <use xlink:href="#ArialMT-72" x="1276.822266"/>
    <use xlink:href="#ArialMT-65" x="1310.123047"/>
    <use xlink:href="#ArialMT-6e" x="1365.738281"/>
    <use xlink:href="#ArialMT-74" x="1421.353516"/>
    <use xlink:href="#ArialMT-20" x="1449.136719"/>
    <use xlink:href="#ArialMT-6c" x="1476.919922"/>
    <use xlink:href="#ArialMT-6f" x="1499.136719"/>
    <use xlink:href="#ArialMT-73" x="1554.751953"/>
    <use xlink:href="#ArialMT-73" x="1604.751953"/>
    <use xlink:href="#ArialMT-20" x="1654.751953"/>
    <use xlink:href="#ArialMT-66" x="1682.535156"/>
    <use xlink:href="#ArialMT-75" x="1710.318359"/>
    <use xlink:href="#ArialMT-6e" x="1765.933594"/>
    <use xlink:href="#ArialMT-63" x="1821.548828"/>
    <use xlink:href="#ArialMT-74" x="1871.548828"/>
    <use xlink:href="#ArialMT-69" x="1899.332031"/>
    <use xlink:href="#ArialMT-6f" x="1921.548828"/>
    <use xlink:href="#ArialMT-6e" x="1977.164062"/>
    <use xlink:href="#ArialMT-73" x="2032.779297"/>
   </g>
  </g>
 </g>
 <defs>
  <clipPath id="p48dea502fd">
   <rect x="270" y="172.8" width="760.909091" height="494.181818"/>
  </clipPath>
  <clipPath id="pd8d36ad627">
   <rect x="1183.090909" y="172.8" width="760.909091" height="494.181818"/>
  </clipPath>
  <clipPath id="p8313450546">
   <rect x="270" y="765.818182" width="760.909091" height="494.181818"/>
  </clipPath>
  <clipPath id="p6e4074d2e1">
   <rect x="1183.090909" y="765.818182" width="760.909091" height="494.181818"/>
  </clipPath>
 </defs>
</svg>
