<?xml version="1.0" encoding="utf-8" standalone="no"?>
<!DOCTYPE svg PUBLIC "-//W3C//DTD SVG 1.1//EN"
  "http://www.w3.org/Graphics/SVG/1.1/DTD/svg11.dtd">
<svg xmlns:xlink="http://www.w3.org/1999/xlink" width="2160pt" height="1080pt" viewBox="0 0 2160 1080" xmlns="http://www.w3.org/2000/svg" version="1.1">
 <metadata>
  <rdf:RDF xmlns:dc="http://purl.org/dc/elements/1.1/" xmlns:cc="http://creativecommons.org/ns#" xmlns:rdf="http://www.w3.org/1999/02/22-rdf-syntax-ns#">
   <cc:Work>
    <dc:type rdf:resource="http://purl.org/dc/dcmitype/StillImage"/>
    <dc:date>2023-10-28T01:12:51.898060</dc:date>
    <dc:format>image/svg+xml</dc:format>
    <dc:creator>
     <cc:Agent>
      <dc:title>Matplotlib v3.5.1, https://matplotlib.org/</dc:title>
     </cc:Agent>
    </dc:creator>
   </cc:Work>
  </rdf:RDF>
 </metadata>
 <defs>
  <style type="text/css">*{stroke-linejoin: round; stroke-linecap: butt}</style>
 </defs>
 <g id="figure_1">
  <g id="patch_1">
   <path d="M 0 1080 
L 2160 1080 
L 2160 0 
L 0 0 
z
" style="fill: #ffffff"/>
  </g>
  <g id="axes_1">
   <g id="patch_2">
    <path d="M 270 945 
L 1030.909091 945 
L 1030.909091 129.6 
L 270 129.6 
z
" style="fill: #eaeaf2"/>
   </g>
   <g id="matplotlib.axis_1">
    <g id="xtick_1">
     <g id="line2d_1">
      <path d="M 286.38321 945 
L 286.38321 129.6 
" clip-path="url(#p1bc1848981)" style="fill: none; stroke: #ffffff; stroke-linecap: round"/>
     </g>
     <g id="text_1">
      <!-- 0 -->
      <g style="fill: #262626" transform="translate(278.736921 974.183984)scale(0.275 -0.275)">
       <defs>
        <path id="ArialMT-30" d="M 266 2259 
Q 266 3072 433 3567 
Q 600 4063 929 4331 
Q 1259 4600 1759 4600 
Q 2128 4600 2406 4451 
Q 2684 4303 2865 4023 
Q 3047 3744 3150 3342 
Q 3253 2941 3253 2259 
Q 3253 1453 3087 958 
Q 2922 463 2592 192 
Q 2263 -78 1759 -78 
Q 1097 -78 719 397 
Q 266 969 266 2259 
z
M 844 2259 
Q 844 1131 1108 757 
Q 1372 384 1759 384 
Q 2147 384 2411 759 
Q 2675 1134 2675 2259 
Q 2675 3391 2411 3762 
Q 2147 4134 1753 4134 
Q 1366 4134 1134 3806 
Q 844 3388 844 2259 
z
" transform="scale(0.015625)"/>
       </defs>
       <use xlink:href="#ArialMT-30"/>
      </g>
     </g>
    </g>
    <g id="xtick_2">
     <g id="line2d_2">
      <path d="M 377.401044 945 
L 377.401044 129.6 
" clip-path="url(#p1bc1848981)" style="fill: none; stroke: #ffffff; stroke-linecap: round"/>
     </g>
     <g id="text_2">
      <!-- 5 -->
      <g style="fill: #262626" transform="translate(369.754755 974.183984)scale(0.275 -0.275)">
       <defs>
        <path id="ArialMT-35" d="M 266 1200 
L 856 1250 
Q 922 819 1161 601 
Q 1400 384 1738 384 
Q 2144 384 2425 690 
Q 2706 997 2706 1503 
Q 2706 1984 2436 2262 
Q 2166 2541 1728 2541 
Q 1456 2541 1237 2417 
Q 1019 2294 894 2097 
L 366 2166 
L 809 4519 
L 3088 4519 
L 3088 3981 
L 1259 3981 
L 1013 2750 
Q 1425 3038 1878 3038 
Q 2478 3038 2890 2622 
Q 3303 2206 3303 1553 
Q 3303 931 2941 478 
Q 2500 -78 1738 -78 
Q 1113 -78 717 272 
Q 322 622 266 1200 
z
" transform="scale(0.015625)"/>
       </defs>
       <use xlink:href="#ArialMT-35"/>
      </g>
     </g>
    </g>
    <g id="xtick_3">
     <g id="line2d_3">
      <path d="M 468.418878 945 
L 468.418878 129.6 
" clip-path="url(#p1bc1848981)" style="fill: none; stroke: #ffffff; stroke-linecap: round"/>
     </g>
     <g id="text_3">
      <!-- 10 -->
      <g style="fill: #262626" transform="translate(453.1263 974.183984)scale(0.275 -0.275)">
       <defs>
        <path id="ArialMT-31" d="M 2384 0 
L 1822 0 
L 1822 3584 
Q 1619 3391 1289 3197 
Q 959 3003 697 2906 
L 697 3450 
Q 1169 3672 1522 3987 
Q 1875 4303 2022 4600 
L 2384 4600 
L 2384 0 
z
" transform="scale(0.015625)"/>
       </defs>
       <use xlink:href="#ArialMT-31"/>
       <use xlink:href="#ArialMT-30" x="55.615234"/>
      </g>
     </g>
    </g>
    <g id="xtick_4">
     <g id="line2d_4">
      <path d="M 559.436712 945 
L 559.436712 129.6 
" clip-path="url(#p1bc1848981)" style="fill: none; stroke: #ffffff; stroke-linecap: round"/>
     </g>
     <g id="text_4">
      <!-- 15 -->
      <g style="fill: #262626" transform="translate(544.144133 974.183984)scale(0.275 -0.275)">
       <use xlink:href="#ArialMT-31"/>
       <use xlink:href="#ArialMT-35" x="55.615234"/>
      </g>
     </g>
    </g>
    <g id="xtick_5">
     <g id="line2d_5">
      <path d="M 650.454545 945 
L 650.454545 129.6 
" clip-path="url(#p1bc1848981)" style="fill: none; stroke: #ffffff; stroke-linecap: round"/>
     </g>
     <g id="text_5">
      <!-- 20 -->
      <g style="fill: #262626" transform="translate(635.161967 974.183984)scale(0.275 -0.275)">
       <defs>
        <path id="ArialMT-32" d="M 3222 541 
L 3222 0 
L 194 0 
Q 188 203 259 391 
Q 375 700 629 1000 
Q 884 1300 1366 1694 
Q 2113 2306 2375 2664 
Q 2638 3022 2638 3341 
Q 2638 3675 2398 3904 
Q 2159 4134 1775 4134 
Q 1369 4134 1125 3890 
Q 881 3647 878 3216 
L 300 3275 
Q 359 3922 746 4261 
Q 1134 4600 1788 4600 
Q 2447 4600 2831 4234 
Q 3216 3869 3216 3328 
Q 3216 3053 3103 2787 
Q 2991 2522 2730 2228 
Q 2469 1934 1863 1422 
Q 1356 997 1212 845 
Q 1069 694 975 541 
L 3222 541 
z
" transform="scale(0.015625)"/>
       </defs>
       <use xlink:href="#ArialMT-32"/>
       <use xlink:href="#ArialMT-30" x="55.615234"/>
      </g>
     </g>
    </g>
    <g id="xtick_6">
     <g id="line2d_6">
      <path d="M 741.472379 945 
L 741.472379 129.6 
" clip-path="url(#p1bc1848981)" style="fill: none; stroke: #ffffff; stroke-linecap: round"/>
     </g>
     <g id="text_6">
      <!-- 25 -->
      <g style="fill: #262626" transform="translate(726.179801 974.183984)scale(0.275 -0.275)">
       <use xlink:href="#ArialMT-32"/>
       <use xlink:href="#ArialMT-35" x="55.615234"/>
      </g>
     </g>
    </g>
    <g id="xtick_7">
     <g id="line2d_7">
      <path d="M 832.490213 945 
L 832.490213 129.6 
" clip-path="url(#p1bc1848981)" style="fill: none; stroke: #ffffff; stroke-linecap: round"/>
     </g>
     <g id="text_7">
      <!-- 30 -->
      <g style="fill: #262626" transform="translate(817.197635 974.183984)scale(0.275 -0.275)">
       <defs>
        <path id="ArialMT-33" d="M 269 1209 
L 831 1284 
Q 928 806 1161 595 
Q 1394 384 1728 384 
Q 2125 384 2398 659 
Q 2672 934 2672 1341 
Q 2672 1728 2419 1979 
Q 2166 2231 1775 2231 
Q 1616 2231 1378 2169 
L 1441 2663 
Q 1497 2656 1531 2656 
Q 1891 2656 2178 2843 
Q 2466 3031 2466 3422 
Q 2466 3731 2256 3934 
Q 2047 4138 1716 4138 
Q 1388 4138 1169 3931 
Q 950 3725 888 3313 
L 325 3413 
Q 428 3978 793 4289 
Q 1159 4600 1703 4600 
Q 2078 4600 2393 4439 
Q 2709 4278 2876 4000 
Q 3044 3722 3044 3409 
Q 3044 3113 2884 2869 
Q 2725 2625 2413 2481 
Q 2819 2388 3044 2092 
Q 3269 1797 3269 1353 
Q 3269 753 2831 336 
Q 2394 -81 1725 -81 
Q 1122 -81 723 278 
Q 325 638 269 1209 
z
" transform="scale(0.015625)"/>
       </defs>
       <use xlink:href="#ArialMT-33"/>
       <use xlink:href="#ArialMT-30" x="55.615234"/>
      </g>
     </g>
    </g>
    <g id="xtick_8">
     <g id="line2d_8">
      <path d="M 923.508047 945 
L 923.508047 129.6 
" clip-path="url(#p1bc1848981)" style="fill: none; stroke: #ffffff; stroke-linecap: round"/>
     </g>
     <g id="text_8">
      <!-- 35 -->
      <g style="fill: #262626" transform="translate(908.215469 974.183984)scale(0.275 -0.275)">
       <use xlink:href="#ArialMT-33"/>
       <use xlink:href="#ArialMT-35" x="55.615234"/>
      </g>
     </g>
    </g>
    <g id="xtick_9">
     <g id="line2d_9">
      <path d="M 1014.525881 945 
L 1014.525881 129.6 
" clip-path="url(#p1bc1848981)" style="fill: none; stroke: #ffffff; stroke-linecap: round"/>
     </g>
     <g id="text_9">
      <!-- 40 -->
      <g style="fill: #262626" transform="translate(999.233303 974.183984)scale(0.275 -0.275)">
       <defs>
        <path id="ArialMT-34" d="M 2069 0 
L 2069 1097 
L 81 1097 
L 81 1613 
L 2172 4581 
L 2631 4581 
L 2631 1613 
L 3250 1613 
L 3250 1097 
L 2631 1097 
L 2631 0 
L 2069 0 
z
M 2069 1613 
L 2069 3678 
L 634 1613 
L 2069 1613 
z
" transform="scale(0.015625)"/>
       </defs>
       <use xlink:href="#ArialMT-34"/>
       <use xlink:href="#ArialMT-30" x="55.615234"/>
      </g>
     </g>
    </g>
    <g id="text_10">
     <!-- Epoch -->
     <g style="fill: #262626" transform="translate(607.924858 1005.123047)scale(0.3 -0.3)">
      <defs>
       <path id="ArialMT-45" d="M 506 0 
L 506 4581 
L 3819 4581 
L 3819 4041 
L 1113 4041 
L 1113 2638 
L 3647 2638 
L 3647 2100 
L 1113 2100 
L 1113 541 
L 3925 541 
L 3925 0 
L 506 0 
z
" transform="scale(0.015625)"/>
       <path id="ArialMT-70" d="M 422 -1272 
L 422 3319 
L 934 3319 
L 934 2888 
Q 1116 3141 1344 3267 
Q 1572 3394 1897 3394 
Q 2322 3394 2647 3175 
Q 2972 2956 3137 2557 
Q 3303 2159 3303 1684 
Q 3303 1175 3120 767 
Q 2938 359 2589 142 
Q 2241 -75 1856 -75 
Q 1575 -75 1351 44 
Q 1128 163 984 344 
L 984 -1272 
L 422 -1272 
z
M 931 1641 
Q 931 1000 1190 694 
Q 1450 388 1819 388 
Q 2194 388 2461 705 
Q 2728 1022 2728 1688 
Q 2728 2322 2467 2637 
Q 2206 2953 1844 2953 
Q 1484 2953 1207 2617 
Q 931 2281 931 1641 
z
" transform="scale(0.015625)"/>
       <path id="ArialMT-6f" d="M 213 1659 
Q 213 2581 725 3025 
Q 1153 3394 1769 3394 
Q 2453 3394 2887 2945 
Q 3322 2497 3322 1706 
Q 3322 1066 3130 698 
Q 2938 331 2570 128 
Q 2203 -75 1769 -75 
Q 1072 -75 642 372 
Q 213 819 213 1659 
z
M 791 1659 
Q 791 1022 1069 705 
Q 1347 388 1769 388 
Q 2188 388 2466 706 
Q 2744 1025 2744 1678 
Q 2744 2294 2464 2611 
Q 2184 2928 1769 2928 
Q 1347 2928 1069 2612 
Q 791 2297 791 1659 
z
" transform="scale(0.015625)"/>
       <path id="ArialMT-63" d="M 2588 1216 
L 3141 1144 
Q 3050 572 2676 248 
Q 2303 -75 1759 -75 
Q 1078 -75 664 370 
Q 250 816 250 1647 
Q 250 2184 428 2587 
Q 606 2991 970 3192 
Q 1334 3394 1763 3394 
Q 2303 3394 2647 3120 
Q 2991 2847 3088 2344 
L 2541 2259 
Q 2463 2594 2264 2762 
Q 2066 2931 1784 2931 
Q 1359 2931 1093 2626 
Q 828 2322 828 1663 
Q 828 994 1084 691 
Q 1341 388 1753 388 
Q 2084 388 2306 591 
Q 2528 794 2588 1216 
z
" transform="scale(0.015625)"/>
       <path id="ArialMT-68" d="M 422 0 
L 422 4581 
L 984 4581 
L 984 2938 
Q 1378 3394 1978 3394 
Q 2347 3394 2619 3248 
Q 2891 3103 3008 2847 
Q 3125 2591 3125 2103 
L 3125 0 
L 2563 0 
L 2563 2103 
Q 2563 2525 2380 2717 
Q 2197 2909 1863 2909 
Q 1613 2909 1392 2779 
Q 1172 2650 1078 2428 
Q 984 2206 984 1816 
L 984 0 
L 422 0 
z
" transform="scale(0.015625)"/>
      </defs>
      <use xlink:href="#ArialMT-45"/>
      <use xlink:href="#ArialMT-70" x="66.699219"/>
      <use xlink:href="#ArialMT-6f" x="122.314453"/>
      <use xlink:href="#ArialMT-63" x="177.929688"/>
      <use xlink:href="#ArialMT-68" x="227.929688"/>
     </g>
    </g>
   </g>
   <g id="matplotlib.axis_2">
    <g id="ytick_1">
     <g id="line2d_10">
      <path d="M 270 928.202778 
L 1030.909091 928.202778 
" clip-path="url(#p1bc1848981)" style="fill: none; stroke: #ffffff; stroke-linecap: round"/>
     </g>
     <g id="text_11">
      <!-- -0.125 -->
      <g style="fill: #262626" transform="translate(182.533203 938.04477)scale(0.275 -0.275)">
       <defs>
        <path id="ArialMT-2d" d="M 203 1375 
L 203 1941 
L 1931 1941 
L 1931 1375 
L 203 1375 
z
" transform="scale(0.015625)"/>
        <path id="ArialMT-2e" d="M 581 0 
L 581 641 
L 1222 641 
L 1222 0 
L 581 0 
z
" transform="scale(0.015625)"/>
       </defs>
       <use xlink:href="#ArialMT-2d"/>
       <use xlink:href="#ArialMT-30" x="33.300781"/>
       <use xlink:href="#ArialMT-2e" x="88.916016"/>
       <use xlink:href="#ArialMT-31" x="116.699219"/>
       <use xlink:href="#ArialMT-32" x="172.314453"/>
       <use xlink:href="#ArialMT-35" x="227.929688"/>
      </g>
     </g>
    </g>
    <g id="ytick_2">
     <g id="line2d_11">
      <path d="M 270 824.557814 
L 1030.909091 824.557814 
" clip-path="url(#p1bc1848981)" style="fill: none; stroke: #ffffff; stroke-linecap: round"/>
     </g>
     <g id="text_12">
      <!-- -0.100 -->
      <g style="fill: #262626" transform="translate(182.533203 834.399806)scale(0.275 -0.275)">
       <use xlink:href="#ArialMT-2d"/>
       <use xlink:href="#ArialMT-30" x="33.300781"/>
       <use xlink:href="#ArialMT-2e" x="88.916016"/>
       <use xlink:href="#ArialMT-31" x="116.699219"/>
       <use xlink:href="#ArialMT-30" x="172.314453"/>
       <use xlink:href="#ArialMT-30" x="227.929688"/>
      </g>
     </g>
    </g>
    <g id="ytick_3">
     <g id="line2d_12">
      <path d="M 270 720.912849 
L 1030.909091 720.912849 
" clip-path="url(#p1bc1848981)" style="fill: none; stroke: #ffffff; stroke-linecap: round"/>
     </g>
     <g id="text_13">
      <!-- -0.075 -->
      <g style="fill: #262626" transform="translate(182.533203 730.754842)scale(0.275 -0.275)">
       <defs>
        <path id="ArialMT-37" d="M 303 3981 
L 303 4522 
L 3269 4522 
L 3269 4084 
Q 2831 3619 2401 2847 
Q 1972 2075 1738 1259 
Q 1569 684 1522 0 
L 944 0 
Q 953 541 1156 1306 
Q 1359 2072 1739 2783 
Q 2119 3494 2547 3981 
L 303 3981 
z
" transform="scale(0.015625)"/>
       </defs>
       <use xlink:href="#ArialMT-2d"/>
       <use xlink:href="#ArialMT-30" x="33.300781"/>
       <use xlink:href="#ArialMT-2e" x="88.916016"/>
       <use xlink:href="#ArialMT-30" x="116.699219"/>
       <use xlink:href="#ArialMT-37" x="172.314453"/>
       <use xlink:href="#ArialMT-35" x="227.929688"/>
      </g>
     </g>
    </g>
    <g id="ytick_4">
     <g id="line2d_13">
      <path d="M 270 617.267885 
L 1030.909091 617.267885 
" clip-path="url(#p1bc1848981)" style="fill: none; stroke: #ffffff; stroke-linecap: round"/>
     </g>
     <g id="text_14">
      <!-- -0.050 -->
      <g style="fill: #262626" transform="translate(182.533203 627.109877)scale(0.275 -0.275)">
       <use xlink:href="#ArialMT-2d"/>
       <use xlink:href="#ArialMT-30" x="33.300781"/>
       <use xlink:href="#ArialMT-2e" x="88.916016"/>
       <use xlink:href="#ArialMT-30" x="116.699219"/>
       <use xlink:href="#ArialMT-35" x="172.314453"/>
       <use xlink:href="#ArialMT-30" x="227.929688"/>
      </g>
     </g>
    </g>
    <g id="ytick_5">
     <g id="line2d_14">
      <path d="M 270 513.622921 
L 1030.909091 513.622921 
" clip-path="url(#p1bc1848981)" style="fill: none; stroke: #ffffff; stroke-linecap: round"/>
     </g>
     <g id="text_15">
      <!-- -0.025 -->
      <g style="fill: #262626" transform="translate(182.533203 523.464913)scale(0.275 -0.275)">
       <use xlink:href="#ArialMT-2d"/>
       <use xlink:href="#ArialMT-30" x="33.300781"/>
       <use xlink:href="#ArialMT-2e" x="88.916016"/>
       <use xlink:href="#ArialMT-30" x="116.699219"/>
       <use xlink:href="#ArialMT-32" x="172.314453"/>
       <use xlink:href="#ArialMT-35" x="227.929688"/>
      </g>
     </g>
    </g>
    <g id="ytick_6">
     <g id="line2d_15">
      <path d="M 270 409.977956 
L 1030.909091 409.977956 
" clip-path="url(#p1bc1848981)" style="fill: none; stroke: #ffffff; stroke-linecap: round"/>
     </g>
     <g id="text_16">
      <!-- 0.000 -->
      <g style="fill: #262626" transform="translate(191.689844 419.819948)scale(0.275 -0.275)">
       <use xlink:href="#ArialMT-30"/>
       <use xlink:href="#ArialMT-2e" x="55.615234"/>
       <use xlink:href="#ArialMT-30" x="83.398438"/>
       <use xlink:href="#ArialMT-30" x="139.013672"/>
       <use xlink:href="#ArialMT-30" x="194.628906"/>
      </g>
     </g>
    </g>
    <g id="ytick_7">
     <g id="line2d_16">
      <path d="M 270 306.332992 
L 1030.909091 306.332992 
" clip-path="url(#p1bc1848981)" style="fill: none; stroke: #ffffff; stroke-linecap: round"/>
     </g>
     <g id="text_17">
      <!-- 0.025 -->
      <g style="fill: #262626" transform="translate(191.689844 316.174984)scale(0.275 -0.275)">
       <use xlink:href="#ArialMT-30"/>
       <use xlink:href="#ArialMT-2e" x="55.615234"/>
       <use xlink:href="#ArialMT-30" x="83.398438"/>
       <use xlink:href="#ArialMT-32" x="139.013672"/>
       <use xlink:href="#ArialMT-35" x="194.628906"/>
      </g>
     </g>
    </g>
    <g id="ytick_8">
     <g id="line2d_17">
      <path d="M 270 202.688027 
L 1030.909091 202.688027 
" clip-path="url(#p1bc1848981)" style="fill: none; stroke: #ffffff; stroke-linecap: round"/>
     </g>
     <g id="text_18">
      <!-- 0.050 -->
      <g style="fill: #262626" transform="translate(191.689844 212.53002)scale(0.275 -0.275)">
       <use xlink:href="#ArialMT-30"/>
       <use xlink:href="#ArialMT-2e" x="55.615234"/>
       <use xlink:href="#ArialMT-30" x="83.398438"/>
       <use xlink:href="#ArialMT-35" x="139.013672"/>
       <use xlink:href="#ArialMT-30" x="194.628906"/>
      </g>
     </g>
    </g>
    <g id="text_19">
     <!-- Testing changing rate -->
     <g style="fill: #262626" transform="translate(172.219141 679.877344)rotate(-90)scale(0.3 -0.3)">
      <defs>
       <path id="ArialMT-54" d="M 1659 0 
L 1659 4041 
L 150 4041 
L 150 4581 
L 3781 4581 
L 3781 4041 
L 2266 4041 
L 2266 0 
L 1659 0 
z
" transform="scale(0.015625)"/>
       <path id="ArialMT-65" d="M 2694 1069 
L 3275 997 
Q 3138 488 2766 206 
Q 2394 -75 1816 -75 
Q 1088 -75 661 373 
Q 234 822 234 1631 
Q 234 2469 665 2931 
Q 1097 3394 1784 3394 
Q 2450 3394 2872 2941 
Q 3294 2488 3294 1666 
Q 3294 1616 3291 1516 
L 816 1516 
Q 847 969 1125 678 
Q 1403 388 1819 388 
Q 2128 388 2347 550 
Q 2566 713 2694 1069 
z
M 847 1978 
L 2700 1978 
Q 2663 2397 2488 2606 
Q 2219 2931 1791 2931 
Q 1403 2931 1139 2672 
Q 875 2413 847 1978 
z
" transform="scale(0.015625)"/>
       <path id="ArialMT-73" d="M 197 991 
L 753 1078 
Q 800 744 1014 566 
Q 1228 388 1613 388 
Q 2000 388 2187 545 
Q 2375 703 2375 916 
Q 2375 1106 2209 1216 
Q 2094 1291 1634 1406 
Q 1016 1563 777 1677 
Q 538 1791 414 1992 
Q 291 2194 291 2438 
Q 291 2659 392 2848 
Q 494 3038 669 3163 
Q 800 3259 1026 3326 
Q 1253 3394 1513 3394 
Q 1903 3394 2198 3281 
Q 2494 3169 2634 2976 
Q 2775 2784 2828 2463 
L 2278 2388 
Q 2241 2644 2061 2787 
Q 1881 2931 1553 2931 
Q 1166 2931 1000 2803 
Q 834 2675 834 2503 
Q 834 2394 903 2306 
Q 972 2216 1119 2156 
Q 1203 2125 1616 2013 
Q 2213 1853 2448 1751 
Q 2684 1650 2818 1456 
Q 2953 1263 2953 975 
Q 2953 694 2789 445 
Q 2625 197 2315 61 
Q 2006 -75 1616 -75 
Q 969 -75 630 194 
Q 291 463 197 991 
z
" transform="scale(0.015625)"/>
       <path id="ArialMT-74" d="M 1650 503 
L 1731 6 
Q 1494 -44 1306 -44 
Q 1000 -44 831 53 
Q 663 150 594 308 
Q 525 466 525 972 
L 525 2881 
L 113 2881 
L 113 3319 
L 525 3319 
L 525 4141 
L 1084 4478 
L 1084 3319 
L 1650 3319 
L 1650 2881 
L 1084 2881 
L 1084 941 
Q 1084 700 1114 631 
Q 1144 563 1211 522 
Q 1278 481 1403 481 
Q 1497 481 1650 503 
z
" transform="scale(0.015625)"/>
       <path id="ArialMT-69" d="M 425 3934 
L 425 4581 
L 988 4581 
L 988 3934 
L 425 3934 
z
M 425 0 
L 425 3319 
L 988 3319 
L 988 0 
L 425 0 
z
" transform="scale(0.015625)"/>
       <path id="ArialMT-6e" d="M 422 0 
L 422 3319 
L 928 3319 
L 928 2847 
Q 1294 3394 1984 3394 
Q 2284 3394 2536 3286 
Q 2788 3178 2913 3003 
Q 3038 2828 3088 2588 
Q 3119 2431 3119 2041 
L 3119 0 
L 2556 0 
L 2556 2019 
Q 2556 2363 2490 2533 
Q 2425 2703 2258 2804 
Q 2091 2906 1866 2906 
Q 1506 2906 1245 2678 
Q 984 2450 984 1813 
L 984 0 
L 422 0 
z
" transform="scale(0.015625)"/>
       <path id="ArialMT-67" d="M 319 -275 
L 866 -356 
Q 900 -609 1056 -725 
Q 1266 -881 1628 -881 
Q 2019 -881 2231 -725 
Q 2444 -569 2519 -288 
Q 2563 -116 2559 434 
Q 2191 0 1641 0 
Q 956 0 581 494 
Q 206 988 206 1678 
Q 206 2153 378 2554 
Q 550 2956 876 3175 
Q 1203 3394 1644 3394 
Q 2231 3394 2613 2919 
L 2613 3319 
L 3131 3319 
L 3131 450 
Q 3131 -325 2973 -648 
Q 2816 -972 2473 -1159 
Q 2131 -1347 1631 -1347 
Q 1038 -1347 672 -1080 
Q 306 -813 319 -275 
z
M 784 1719 
Q 784 1066 1043 766 
Q 1303 466 1694 466 
Q 2081 466 2343 764 
Q 2606 1063 2606 1700 
Q 2606 2309 2336 2618 
Q 2066 2928 1684 2928 
Q 1309 2928 1046 2623 
Q 784 2319 784 1719 
z
" transform="scale(0.015625)"/>
       <path id="ArialMT-20" transform="scale(0.015625)"/>
       <path id="ArialMT-61" d="M 2588 409 
Q 2275 144 1986 34 
Q 1697 -75 1366 -75 
Q 819 -75 525 192 
Q 231 459 231 875 
Q 231 1119 342 1320 
Q 453 1522 633 1644 
Q 813 1766 1038 1828 
Q 1203 1872 1538 1913 
Q 2219 1994 2541 2106 
Q 2544 2222 2544 2253 
Q 2544 2597 2384 2738 
Q 2169 2928 1744 2928 
Q 1347 2928 1158 2789 
Q 969 2650 878 2297 
L 328 2372 
Q 403 2725 575 2942 
Q 747 3159 1072 3276 
Q 1397 3394 1825 3394 
Q 2250 3394 2515 3294 
Q 2781 3194 2906 3042 
Q 3031 2891 3081 2659 
Q 3109 2516 3109 2141 
L 3109 1391 
Q 3109 606 3145 398 
Q 3181 191 3288 0 
L 2700 0 
Q 2613 175 2588 409 
z
M 2541 1666 
Q 2234 1541 1622 1453 
Q 1275 1403 1131 1340 
Q 988 1278 909 1158 
Q 831 1038 831 891 
Q 831 666 1001 516 
Q 1172 366 1500 366 
Q 1825 366 2078 508 
Q 2331 650 2450 897 
Q 2541 1088 2541 1459 
L 2541 1666 
z
" transform="scale(0.015625)"/>
       <path id="ArialMT-72" d="M 416 0 
L 416 3319 
L 922 3319 
L 922 2816 
Q 1116 3169 1280 3281 
Q 1444 3394 1641 3394 
Q 1925 3394 2219 3213 
L 2025 2691 
Q 1819 2813 1613 2813 
Q 1428 2813 1281 2702 
Q 1134 2591 1072 2394 
Q 978 2094 978 1738 
L 978 0 
L 416 0 
z
" transform="scale(0.015625)"/>
      </defs>
      <use xlink:href="#ArialMT-54"/>
      <use xlink:href="#ArialMT-65" x="49.958984"/>
      <use xlink:href="#ArialMT-73" x="105.574219"/>
      <use xlink:href="#ArialMT-74" x="155.574219"/>
      <use xlink:href="#ArialMT-69" x="183.357422"/>
      <use xlink:href="#ArialMT-6e" x="205.574219"/>
      <use xlink:href="#ArialMT-67" x="261.189453"/>
      <use xlink:href="#ArialMT-20" x="316.804688"/>
      <use xlink:href="#ArialMT-63" x="344.587891"/>
      <use xlink:href="#ArialMT-68" x="394.587891"/>
      <use xlink:href="#ArialMT-61" x="450.203125"/>
      <use xlink:href="#ArialMT-6e" x="505.818359"/>
      <use xlink:href="#ArialMT-67" x="561.433594"/>
      <use xlink:href="#ArialMT-69" x="617.048828"/>
      <use xlink:href="#ArialMT-6e" x="639.265625"/>
      <use xlink:href="#ArialMT-67" x="694.880859"/>
      <use xlink:href="#ArialMT-20" x="750.496094"/>
      <use xlink:href="#ArialMT-72" x="778.279297"/>
      <use xlink:href="#ArialMT-61" x="811.580078"/>
      <use xlink:href="#ArialMT-74" x="867.195312"/>
      <use xlink:href="#ArialMT-65" x="894.978516"/>
     </g>
    </g>
   </g>
   <g id="line2d_18">
    <path d="M 304.586777 520.201984 
L 322.790344 369.089209 
L 340.99391 573.607631 
L 359.197477 259.873667 
L 377.401044 907.936364 
L 395.604611 332.378601 
L 413.808177 542.666917 
L 432.011744 485.435203 
L 450.215311 286.065292 
L 468.418878 577.771615 
L 486.622445 532.154607 
L 504.826011 497.462158 
L 523.029578 412.462102 
L 541.233145 341.822665 
L 559.436712 680.416942 
L 577.640278 336.407061 
L 595.843845 508.125613 
L 614.047412 443.977049 
L 632.250979 413.117099 
L 650.454545 468.578372 
L 668.658112 438.886231 
L 686.861679 367.643909 
L 705.065246 428.412581 
L 723.268813 425.641148 
L 741.472379 440.394122 
L 759.675946 444.028955 
L 777.879513 409.4806 
L 796.08308 389.886513 
L 814.286646 444.296144 
L 832.490213 436.938871 
L 850.69378 400.948005 
L 868.897347 417.254352 
L 887.100913 407.761087 
L 905.30448 433.156778 
L 923.508047 406.650593 
L 941.711614 408.685485 
L 959.915181 413.75493 
L 978.118747 419.748093 
L 996.322314 410.715503 
" clip-path="url(#p1bc1848981)" style="fill: none; stroke-dasharray: 5.55,2.4; stroke-dashoffset: 0; stroke: #4c72b0; stroke-width: 1.5"/>
   </g>
   <g id="line2d_19">
    <path d="M 304.586777 675.576068 
L 322.790344 358.32693 
L 340.99391 493.559293 
L 359.197477 491.839496 
L 377.401044 699.103095 
L 395.604611 523.387404 
L 413.808177 488.551368 
L 432.011744 373.009325 
L 450.215311 411.211349 
L 468.418878 519.594293 
L 486.622445 701.350615 
L 504.826011 355.817707 
L 523.029578 411.948965 
L 541.233145 409.508565 
L 559.436712 624.908306 
L 577.640278 404.486119 
L 595.843845 521.743708 
L 614.047412 397.078461 
L 632.250979 166.663636 
L 650.454545 777.672046 
L 668.658112 425.70695 
L 686.861679 409.915654 
L 705.065246 408.138362 
L 723.268813 445.335284 
L 741.472379 461.880497 
L 759.675946 404.973803 
L 777.879513 416.382754 
L 796.08308 428.0797 
L 814.286646 326.931071 
L 832.490213 530.428048 
L 850.69378 413.422746 
L 868.897347 395.791666 
L 887.100913 422.735083 
L 905.30448 390.558485 
L 923.508047 445.537477 
L 941.711614 409.893691 
L 959.915181 421.603877 
L 978.118747 400.810108 
L 996.322314 416.20925 
" clip-path="url(#p1bc1848981)" style="fill: none; stroke-dasharray: 1.5,2.475; stroke-dashoffset: 0; stroke: #dd8452; stroke-width: 1.5"/>
   </g>
   <g id="line2d_20">
    <path d="M 304.586777 539.368076 
L 322.790344 670.327122 
L 340.99391 297.457702 
L 359.197477 524.473889 
L 377.401044 843.569332 
L 395.604611 230.794418 
L 413.808177 611.188369 
L 432.011744 379.817882 
L 450.215311 499.261657 
L 468.418878 703.271958 
L 486.622445 468.596899 
L 504.826011 462.904111 
L 523.029578 375.77372 
L 541.233145 385.261088 
L 559.436712 548.353193 
L 577.640278 551.072138 
L 595.843845 449.579198 
L 614.047412 348.330176 
L 632.250979 327.865021 
L 650.454545 688.31351 
L 668.658112 393.189232 
L 686.861679 370.328602 
L 705.065246 398.125283 
L 723.268813 490.309504 
L 741.472379 398.420712 
L 759.675946 478.541865 
L 777.879513 381.813865 
L 796.08308 393.177749 
L 814.286646 422.149672 
L 832.490213 441.183374 
L 850.69378 460.056718 
L 868.897347 380.721185 
L 887.100913 446.1594 
L 905.30448 380.536247 
L 923.508047 420.707408 
L 941.711614 427.817899 
L 959.915181 385.657104 
L 978.118747 454.596548 
L 996.322314 387.407626 
" clip-path="url(#p1bc1848981)" style="fill: none; stroke: #55a868; stroke-width: 1.5; stroke-linecap: round"/>
   </g>
   <g id="patch_3">
    <path d="M 270 945 
L 270 129.6 
" style="fill: none; stroke: #ffffff; stroke-width: 1.25; stroke-linejoin: miter; stroke-linecap: square"/>
   </g>
   <g id="patch_4">
    <path d="M 1030.909091 945 
L 1030.909091 129.6 
" style="fill: none; stroke: #ffffff; stroke-width: 1.25; stroke-linejoin: miter; stroke-linecap: square"/>
   </g>
   <g id="patch_5">
    <path d="M 270 945 
L 1030.909091 945 
" style="fill: none; stroke: #ffffff; stroke-width: 1.25; stroke-linejoin: miter; stroke-linecap: square"/>
   </g>
   <g id="patch_6">
    <path d="M 270 129.6 
L 1030.909091 129.6 
" style="fill: none; stroke: #ffffff; stroke-width: 1.25; stroke-linejoin: miter; stroke-linecap: square"/>
   </g>
   <g id="text_20">
    <!-- Testing changing rate of different loss functions in SGD optimizer -->
    <g style="fill: #262626" transform="translate(220.533452 123.6)scale(0.3 -0.3)">
     <defs>
      <path id="ArialMT-66" d="M 556 0 
L 556 2881 
L 59 2881 
L 59 3319 
L 556 3319 
L 556 3672 
Q 556 4006 616 4169 
Q 697 4388 901 4523 
Q 1106 4659 1475 4659 
Q 1713 4659 2000 4603 
L 1916 4113 
Q 1741 4144 1584 4144 
Q 1328 4144 1222 4034 
Q 1116 3925 1116 3625 
L 1116 3319 
L 1763 3319 
L 1763 2881 
L 1116 2881 
L 1116 0 
L 556 0 
z
" transform="scale(0.015625)"/>
      <path id="ArialMT-64" d="M 2575 0 
L 2575 419 
Q 2259 -75 1647 -75 
Q 1250 -75 917 144 
Q 584 363 401 755 
Q 219 1147 219 1656 
Q 219 2153 384 2558 
Q 550 2963 881 3178 
Q 1213 3394 1622 3394 
Q 1922 3394 2156 3267 
Q 2391 3141 2538 2938 
L 2538 4581 
L 3097 4581 
L 3097 0 
L 2575 0 
z
M 797 1656 
Q 797 1019 1065 703 
Q 1334 388 1700 388 
Q 2069 388 2326 689 
Q 2584 991 2584 1609 
Q 2584 2291 2321 2609 
Q 2059 2928 1675 2928 
Q 1300 2928 1048 2622 
Q 797 2316 797 1656 
z
" transform="scale(0.015625)"/>
      <path id="ArialMT-6c" d="M 409 0 
L 409 4581 
L 972 4581 
L 972 0 
L 409 0 
z
" transform="scale(0.015625)"/>
      <path id="ArialMT-75" d="M 2597 0 
L 2597 488 
Q 2209 -75 1544 -75 
Q 1250 -75 995 37 
Q 741 150 617 320 
Q 494 491 444 738 
Q 409 903 409 1263 
L 409 3319 
L 972 3319 
L 972 1478 
Q 972 1038 1006 884 
Q 1059 663 1231 536 
Q 1403 409 1656 409 
Q 1909 409 2131 539 
Q 2353 669 2445 892 
Q 2538 1116 2538 1541 
L 2538 3319 
L 3100 3319 
L 3100 0 
L 2597 0 
z
" transform="scale(0.015625)"/>
      <path id="ArialMT-53" d="M 288 1472 
L 859 1522 
Q 900 1178 1048 958 
Q 1197 738 1509 602 
Q 1822 466 2213 466 
Q 2559 466 2825 569 
Q 3091 672 3220 851 
Q 3350 1031 3350 1244 
Q 3350 1459 3225 1620 
Q 3100 1781 2813 1891 
Q 2628 1963 1997 2114 
Q 1366 2266 1113 2400 
Q 784 2572 623 2826 
Q 463 3081 463 3397 
Q 463 3744 659 4045 
Q 856 4347 1234 4503 
Q 1613 4659 2075 4659 
Q 2584 4659 2973 4495 
Q 3363 4331 3572 4012 
Q 3781 3694 3797 3291 
L 3216 3247 
Q 3169 3681 2898 3903 
Q 2628 4125 2100 4125 
Q 1550 4125 1298 3923 
Q 1047 3722 1047 3438 
Q 1047 3191 1225 3031 
Q 1400 2872 2139 2705 
Q 2878 2538 3153 2413 
Q 3553 2228 3743 1945 
Q 3934 1663 3934 1294 
Q 3934 928 3725 604 
Q 3516 281 3123 101 
Q 2731 -78 2241 -78 
Q 1619 -78 1198 103 
Q 778 284 539 648 
Q 300 1013 288 1472 
z
" transform="scale(0.015625)"/>
      <path id="ArialMT-47" d="M 2638 1797 
L 2638 2334 
L 4578 2338 
L 4578 638 
Q 4131 281 3656 101 
Q 3181 -78 2681 -78 
Q 2006 -78 1454 211 
Q 903 500 622 1047 
Q 341 1594 341 2269 
Q 341 2938 620 3517 
Q 900 4097 1425 4378 
Q 1950 4659 2634 4659 
Q 3131 4659 3532 4498 
Q 3934 4338 4162 4050 
Q 4391 3763 4509 3300 
L 3963 3150 
Q 3859 3500 3706 3700 
Q 3553 3900 3268 4020 
Q 2984 4141 2638 4141 
Q 2222 4141 1919 4014 
Q 1616 3888 1430 3681 
Q 1244 3475 1141 3228 
Q 966 2803 966 2306 
Q 966 1694 1177 1281 
Q 1388 869 1791 669 
Q 2194 469 2647 469 
Q 3041 469 3416 620 
Q 3791 772 3984 944 
L 3984 1797 
L 2638 1797 
z
" transform="scale(0.015625)"/>
      <path id="ArialMT-44" d="M 494 0 
L 494 4581 
L 2072 4581 
Q 2606 4581 2888 4516 
Q 3281 4425 3559 4188 
Q 3922 3881 4101 3404 
Q 4281 2928 4281 2316 
Q 4281 1794 4159 1391 
Q 4038 988 3847 723 
Q 3656 459 3429 307 
Q 3203 156 2883 78 
Q 2563 0 2147 0 
L 494 0 
z
M 1100 541 
L 2078 541 
Q 2531 541 2789 625 
Q 3047 709 3200 863 
Q 3416 1078 3536 1442 
Q 3656 1806 3656 2325 
Q 3656 3044 3420 3430 
Q 3184 3816 2847 3947 
Q 2603 4041 2063 4041 
L 1100 4041 
L 1100 541 
z
" transform="scale(0.015625)"/>
      <path id="ArialMT-6d" d="M 422 0 
L 422 3319 
L 925 3319 
L 925 2853 
Q 1081 3097 1340 3245 
Q 1600 3394 1931 3394 
Q 2300 3394 2536 3241 
Q 2772 3088 2869 2813 
Q 3263 3394 3894 3394 
Q 4388 3394 4653 3120 
Q 4919 2847 4919 2278 
L 4919 0 
L 4359 0 
L 4359 2091 
Q 4359 2428 4304 2576 
Q 4250 2725 4106 2815 
Q 3963 2906 3769 2906 
Q 3419 2906 3187 2673 
Q 2956 2441 2956 1928 
L 2956 0 
L 2394 0 
L 2394 2156 
Q 2394 2531 2256 2718 
Q 2119 2906 1806 2906 
Q 1569 2906 1367 2781 
Q 1166 2656 1075 2415 
Q 984 2175 984 1722 
L 984 0 
L 422 0 
z
" transform="scale(0.015625)"/>
      <path id="ArialMT-7a" d="M 125 0 
L 125 456 
L 2238 2881 
Q 1878 2863 1603 2863 
L 250 2863 
L 250 3319 
L 2963 3319 
L 2963 2947 
L 1166 841 
L 819 456 
Q 1197 484 1528 484 
L 3063 484 
L 3063 0 
L 125 0 
z
" transform="scale(0.015625)"/>
     </defs>
     <use xlink:href="#ArialMT-54"/>
     <use xlink:href="#ArialMT-65" x="49.958984"/>
     <use xlink:href="#ArialMT-73" x="105.574219"/>
     <use xlink:href="#ArialMT-74" x="155.574219"/>
     <use xlink:href="#ArialMT-69" x="183.357422"/>
     <use xlink:href="#ArialMT-6e" x="205.574219"/>
     <use xlink:href="#ArialMT-67" x="261.189453"/>
     <use xlink:href="#ArialMT-20" x="316.804688"/>
     <use xlink:href="#ArialMT-63" x="344.587891"/>
     <use xlink:href="#ArialMT-68" x="394.587891"/>
     <use xlink:href="#ArialMT-61" x="450.203125"/>
     <use xlink:href="#ArialMT-6e" x="505.818359"/>
     <use xlink:href="#ArialMT-67" x="561.433594"/>
     <use xlink:href="#ArialMT-69" x="617.048828"/>
     <use xlink:href="#ArialMT-6e" x="639.265625"/>
     <use xlink:href="#ArialMT-67" x="694.880859"/>
     <use xlink:href="#ArialMT-20" x="750.496094"/>
     <use xlink:href="#ArialMT-72" x="778.279297"/>
     <use xlink:href="#ArialMT-61" x="811.580078"/>
     <use xlink:href="#ArialMT-74" x="867.195312"/>
     <use xlink:href="#ArialMT-65" x="894.978516"/>
     <use xlink:href="#ArialMT-20" x="950.59375"/>
     <use xlink:href="#ArialMT-6f" x="978.376953"/>
     <use xlink:href="#ArialMT-66" x="1033.992188"/>
     <use xlink:href="#ArialMT-20" x="1061.775391"/>
     <use xlink:href="#ArialMT-64" x="1089.558594"/>
     <use xlink:href="#ArialMT-69" x="1145.173828"/>
     <use xlink:href="#ArialMT-66" x="1167.390625"/>
     <use xlink:href="#ArialMT-66" x="1193.423828"/>
     <use xlink:href="#ArialMT-65" x="1221.207031"/>
     <use xlink:href="#ArialMT-72" x="1276.822266"/>
     <use xlink:href="#ArialMT-65" x="1310.123047"/>
     <use xlink:href="#ArialMT-6e" x="1365.738281"/>
     <use xlink:href="#ArialMT-74" x="1421.353516"/>
     <use xlink:href="#ArialMT-20" x="1449.136719"/>
     <use xlink:href="#ArialMT-6c" x="1476.919922"/>
     <use xlink:href="#ArialMT-6f" x="1499.136719"/>
     <use xlink:href="#ArialMT-73" x="1554.751953"/>
     <use xlink:href="#ArialMT-73" x="1604.751953"/>
     <use xlink:href="#ArialMT-20" x="1654.751953"/>
     <use xlink:href="#ArialMT-66" x="1682.535156"/>
     <use xlink:href="#ArialMT-75" x="1710.318359"/>
     <use xlink:href="#ArialMT-6e" x="1765.933594"/>
     <use xlink:href="#ArialMT-63" x="1821.548828"/>
     <use xlink:href="#ArialMT-74" x="1871.548828"/>
     <use xlink:href="#ArialMT-69" x="1899.332031"/>
     <use xlink:href="#ArialMT-6f" x="1921.548828"/>
     <use xlink:href="#ArialMT-6e" x="1977.164062"/>
     <use xlink:href="#ArialMT-73" x="2032.779297"/>
     <use xlink:href="#ArialMT-20" x="2082.779297"/>
     <use xlink:href="#ArialMT-69" x="2110.5625"/>
     <use xlink:href="#ArialMT-6e" x="2132.779297"/>
     <use xlink:href="#ArialMT-20" x="2188.394531"/>
     <use xlink:href="#ArialMT-53" x="2216.177734"/>
     <use xlink:href="#ArialMT-47" x="2282.876953"/>
     <use xlink:href="#ArialMT-44" x="2360.660156"/>
     <use xlink:href="#ArialMT-20" x="2432.876953"/>
     <use xlink:href="#ArialMT-6f" x="2460.660156"/>
     <use xlink:href="#ArialMT-70" x="2516.275391"/>
     <use xlink:href="#ArialMT-74" x="2571.890625"/>
     <use xlink:href="#ArialMT-69" x="2599.673828"/>
     <use xlink:href="#ArialMT-6d" x="2621.890625"/>
     <use xlink:href="#ArialMT-69" x="2705.191406"/>
     <use xlink:href="#ArialMT-7a" x="2727.408203"/>
     <use xlink:href="#ArialMT-65" x="2777.408203"/>
     <use xlink:href="#ArialMT-72" x="2833.023438"/>
    </g>
   </g>
   <g id="legend_1">
    <g id="patch_7">
     <path d="M 595.863388 931.25 
L 1011.659091 931.25 
Q 1017.159091 931.25 1017.159091 925.75 
L 1017.159091 810.151172 
Q 1017.159091 804.651172 1011.659091 804.651172 
L 595.863388 804.651172 
Q 590.363388 804.651172 590.363388 810.151172 
L 590.363388 925.75 
Q 590.363388 931.25 595.863388 931.25 
z
" style="fill: #eaeaf2; opacity: 0.8; stroke: #cccccc; stroke-linejoin: miter"/>
    </g>
    <g id="line2d_21">
     <path d="M 601.363388 826.045313 
L 628.863388 826.045313 
L 656.363388 826.045313 
" style="fill: none; stroke-dasharray: 5.55,2.4; stroke-dashoffset: 0; stroke: #4c72b0; stroke-width: 1.5"/>
    </g>
    <g id="text_21">
     <!-- CE_SGD -->
     <g style="fill: #262626" transform="translate(678.363388 835.670313)scale(0.275 -0.275)">
      <defs>
       <path id="ArialMT-43" d="M 3763 1606 
L 4369 1453 
Q 4178 706 3683 314 
Q 3188 -78 2472 -78 
Q 1731 -78 1267 223 
Q 803 525 561 1097 
Q 319 1669 319 2325 
Q 319 3041 592 3573 
Q 866 4106 1370 4382 
Q 1875 4659 2481 4659 
Q 3169 4659 3637 4309 
Q 4106 3959 4291 3325 
L 3694 3184 
Q 3534 3684 3231 3912 
Q 2928 4141 2469 4141 
Q 1941 4141 1586 3887 
Q 1231 3634 1087 3207 
Q 944 2781 944 2328 
Q 944 1744 1114 1308 
Q 1284 872 1643 656 
Q 2003 441 2422 441 
Q 2931 441 3284 734 
Q 3638 1028 3763 1606 
z
" transform="scale(0.015625)"/>
       <path id="ArialMT-5f" d="M -97 -1272 
L -97 -866 
L 3631 -866 
L 3631 -1272 
L -97 -1272 
z
" transform="scale(0.015625)"/>
      </defs>
      <use xlink:href="#ArialMT-43"/>
      <use xlink:href="#ArialMT-45" x="72.216797"/>
      <use xlink:href="#ArialMT-5f" x="138.916016"/>
      <use xlink:href="#ArialMT-53" x="194.53125"/>
      <use xlink:href="#ArialMT-47" x="261.230469"/>
      <use xlink:href="#ArialMT-44" x="339.013672"/>
     </g>
    </g>
    <g id="line2d_22">
     <path d="M 601.363388 865.280078 
L 628.863388 865.280078 
L 656.363388 865.280078 
" style="fill: none; stroke-dasharray: 1.5,2.475; stroke-dashoffset: 0; stroke: #dd8452; stroke-width: 1.5"/>
    </g>
    <g id="text_22">
     <!-- Focal(Gamma = 0.5)_SGD -->
     <g style="fill: #262626" transform="translate(678.363388 874.905078)scale(0.275 -0.275)">
      <defs>
       <path id="ArialMT-46" d="M 525 0 
L 525 4581 
L 3616 4581 
L 3616 4041 
L 1131 4041 
L 1131 2622 
L 3281 2622 
L 3281 2081 
L 1131 2081 
L 1131 0 
L 525 0 
z
" transform="scale(0.015625)"/>
       <path id="ArialMT-28" d="M 1497 -1347 
Q 1031 -759 709 28 
Q 388 816 388 1659 
Q 388 2403 628 3084 
Q 909 3875 1497 4659 
L 1900 4659 
Q 1522 4009 1400 3731 
Q 1209 3300 1100 2831 
Q 966 2247 966 1656 
Q 966 153 1900 -1347 
L 1497 -1347 
z
" transform="scale(0.015625)"/>
       <path id="ArialMT-3d" d="M 3381 2694 
L 356 2694 
L 356 3219 
L 3381 3219 
L 3381 2694 
z
M 3381 1303 
L 356 1303 
L 356 1828 
L 3381 1828 
L 3381 1303 
z
" transform="scale(0.015625)"/>
       <path id="ArialMT-29" d="M 791 -1347 
L 388 -1347 
Q 1322 153 1322 1656 
Q 1322 2244 1188 2822 
Q 1081 3291 891 3722 
Q 769 4003 388 4659 
L 791 4659 
Q 1378 3875 1659 3084 
Q 1900 2403 1900 1659 
Q 1900 816 1576 28 
Q 1253 -759 791 -1347 
z
" transform="scale(0.015625)"/>
      </defs>
      <use xlink:href="#ArialMT-46"/>
      <use xlink:href="#ArialMT-6f" x="61.083984"/>
      <use xlink:href="#ArialMT-63" x="116.699219"/>
      <use xlink:href="#ArialMT-61" x="166.699219"/>
      <use xlink:href="#ArialMT-6c" x="222.314453"/>
      <use xlink:href="#ArialMT-28" x="244.53125"/>
      <use xlink:href="#ArialMT-47" x="277.832031"/>
      <use xlink:href="#ArialMT-61" x="355.615234"/>
      <use xlink:href="#ArialMT-6d" x="411.230469"/>
      <use xlink:href="#ArialMT-6d" x="494.53125"/>
      <use xlink:href="#ArialMT-61" x="577.832031"/>
      <use xlink:href="#ArialMT-20" x="633.447266"/>
      <use xlink:href="#ArialMT-3d" x="661.230469"/>
      <use xlink:href="#ArialMT-20" x="719.628906"/>
      <use xlink:href="#ArialMT-30" x="747.412109"/>
      <use xlink:href="#ArialMT-2e" x="803.027344"/>
      <use xlink:href="#ArialMT-35" x="830.810547"/>
      <use xlink:href="#ArialMT-29" x="886.425781"/>
      <use xlink:href="#ArialMT-5f" x="919.726562"/>
      <use xlink:href="#ArialMT-53" x="975.341797"/>
      <use xlink:href="#ArialMT-47" x="1042.041016"/>
      <use xlink:href="#ArialMT-44" x="1119.824219"/>
     </g>
    </g>
    <g id="line2d_23">
     <path d="M 601.363388 904.837109 
L 628.863388 904.837109 
L 656.363388 904.837109 
" style="fill: none; stroke: #55a868; stroke-width: 1.5; stroke-linecap: round"/>
    </g>
    <g id="text_23">
     <!-- Focal(Gamma = 2)_SGD -->
     <g style="fill: #262626" transform="translate(678.363388 914.462109)scale(0.275 -0.275)">
      <use xlink:href="#ArialMT-46"/>
      <use xlink:href="#ArialMT-6f" x="61.083984"/>
      <use xlink:href="#ArialMT-63" x="116.699219"/>
      <use xlink:href="#ArialMT-61" x="166.699219"/>
      <use xlink:href="#ArialMT-6c" x="222.314453"/>
      <use xlink:href="#ArialMT-28" x="244.53125"/>
      <use xlink:href="#ArialMT-47" x="277.832031"/>
      <use xlink:href="#ArialMT-61" x="355.615234"/>
      <use xlink:href="#ArialMT-6d" x="411.230469"/>
      <use xlink:href="#ArialMT-6d" x="494.53125"/>
      <use xlink:href="#ArialMT-61" x="577.832031"/>
      <use xlink:href="#ArialMT-20" x="633.447266"/>
      <use xlink:href="#ArialMT-3d" x="661.230469"/>
      <use xlink:href="#ArialMT-20" x="719.628906"/>
      <use xlink:href="#ArialMT-32" x="747.412109"/>
      <use xlink:href="#ArialMT-29" x="803.027344"/>
      <use xlink:href="#ArialMT-5f" x="836.328125"/>
      <use xlink:href="#ArialMT-53" x="891.943359"/>
      <use xlink:href="#ArialMT-47" x="958.642578"/>
      <use xlink:href="#ArialMT-44" x="1036.425781"/>
     </g>
    </g>
   </g>
  </g>
  <g id="axes_2">
   <g id="patch_8">
    <path d="M 1183.090909 945 
L 1944 945 
L 1944 129.6 
L 1183.090909 129.6 
z
" style="fill: #eaeaf2"/>
   </g>
   <g id="matplotlib.axis_3">
    <g id="xtick_10">
     <g id="line2d_24">
      <path d="M 1199.474119 945 
L 1199.474119 129.6 
" clip-path="url(#p38a84cb2e3)" style="fill: none; stroke: #ffffff; stroke-linecap: round"/>
     </g>
     <g id="text_24">
      <!-- 0 -->
      <g style="fill: #262626" transform="translate(1191.82783 974.183984)scale(0.275 -0.275)">
       <use xlink:href="#ArialMT-30"/>
      </g>
     </g>
    </g>
    <g id="xtick_11">
     <g id="line2d_25">
      <path d="M 1290.491953 945 
L 1290.491953 129.6 
" clip-path="url(#p38a84cb2e3)" style="fill: none; stroke: #ffffff; stroke-linecap: round"/>
     </g>
     <g id="text_25">
      <!-- 5 -->
      <g style="fill: #262626" transform="translate(1282.845664 974.183984)scale(0.275 -0.275)">
       <use xlink:href="#ArialMT-35"/>
      </g>
     </g>
    </g>
    <g id="xtick_12">
     <g id="line2d_26">
      <path d="M 1381.509787 945 
L 1381.509787 129.6 
" clip-path="url(#p38a84cb2e3)" style="fill: none; stroke: #ffffff; stroke-linecap: round"/>
     </g>
     <g id="text_26">
      <!-- 10 -->
      <g style="fill: #262626" transform="translate(1366.217209 974.183984)scale(0.275 -0.275)">
       <use xlink:href="#ArialMT-31"/>
       <use xlink:href="#ArialMT-30" x="55.615234"/>
      </g>
     </g>
    </g>
    <g id="xtick_13">
     <g id="line2d_27">
      <path d="M 1472.527621 945 
L 1472.527621 129.6 
" clip-path="url(#p38a84cb2e3)" style="fill: none; stroke: #ffffff; stroke-linecap: round"/>
     </g>
     <g id="text_27">
      <!-- 15 -->
      <g style="fill: #262626" transform="translate(1457.235043 974.183984)scale(0.275 -0.275)">
       <use xlink:href="#ArialMT-31"/>
       <use xlink:href="#ArialMT-35" x="55.615234"/>
      </g>
     </g>
    </g>
    <g id="xtick_14">
     <g id="line2d_28">
      <path d="M 1563.545455 945 
L 1563.545455 129.6 
" clip-path="url(#p38a84cb2e3)" style="fill: none; stroke: #ffffff; stroke-linecap: round"/>
     </g>
     <g id="text_28">
      <!-- 20 -->
      <g style="fill: #262626" transform="translate(1548.252876 974.183984)scale(0.275 -0.275)">
       <use xlink:href="#ArialMT-32"/>
       <use xlink:href="#ArialMT-30" x="55.615234"/>
      </g>
     </g>
    </g>
    <g id="xtick_15">
     <g id="line2d_29">
      <path d="M 1654.563288 945 
L 1654.563288 129.6 
" clip-path="url(#p38a84cb2e3)" style="fill: none; stroke: #ffffff; stroke-linecap: round"/>
     </g>
     <g id="text_29">
      <!-- 25 -->
      <g style="fill: #262626" transform="translate(1639.27071 974.183984)scale(0.275 -0.275)">
       <use xlink:href="#ArialMT-32"/>
       <use xlink:href="#ArialMT-35" x="55.615234"/>
      </g>
     </g>
    </g>
    <g id="xtick_16">
     <g id="line2d_30">
      <path d="M 1745.581122 945 
L 1745.581122 129.6 
" clip-path="url(#p38a84cb2e3)" style="fill: none; stroke: #ffffff; stroke-linecap: round"/>
     </g>
     <g id="text_30">
      <!-- 30 -->
      <g style="fill: #262626" transform="translate(1730.288544 974.183984)scale(0.275 -0.275)">
       <use xlink:href="#ArialMT-33"/>
       <use xlink:href="#ArialMT-30" x="55.615234"/>
      </g>
     </g>
    </g>
    <g id="xtick_17">
     <g id="line2d_31">
      <path d="M 1836.598956 945 
L 1836.598956 129.6 
" clip-path="url(#p38a84cb2e3)" style="fill: none; stroke: #ffffff; stroke-linecap: round"/>
     </g>
     <g id="text_31">
      <!-- 35 -->
      <g style="fill: #262626" transform="translate(1821.306378 974.183984)scale(0.275 -0.275)">
       <use xlink:href="#ArialMT-33"/>
       <use xlink:href="#ArialMT-35" x="55.615234"/>
      </g>
     </g>
    </g>
    <g id="xtick_18">
     <g id="line2d_32">
      <path d="M 1927.61679 945 
L 1927.61679 129.6 
" clip-path="url(#p38a84cb2e3)" style="fill: none; stroke: #ffffff; stroke-linecap: round"/>
     </g>
     <g id="text_32">
      <!-- 40 -->
      <g style="fill: #262626" transform="translate(1912.324212 974.183984)scale(0.275 -0.275)">
       <use xlink:href="#ArialMT-34"/>
       <use xlink:href="#ArialMT-30" x="55.615234"/>
      </g>
     </g>
    </g>
    <g id="text_33">
     <!-- Epoch -->
     <g style="fill: #262626" transform="translate(1521.015767 1005.123047)scale(0.3 -0.3)">
      <use xlink:href="#ArialMT-45"/>
      <use xlink:href="#ArialMT-70" x="66.699219"/>
      <use xlink:href="#ArialMT-6f" x="122.314453"/>
      <use xlink:href="#ArialMT-63" x="177.929688"/>
      <use xlink:href="#ArialMT-68" x="227.929688"/>
     </g>
    </g>
   </g>
   <g id="matplotlib.axis_4">
    <g id="ytick_9">
     <g id="line2d_33">
      <path d="M 1183.090909 882.68979 
L 1944 882.68979 
" clip-path="url(#p38a84cb2e3)" style="fill: none; stroke: #ffffff; stroke-linecap: round"/>
     </g>
     <g id="text_34">
      <!-- -0.08 -->
      <g style="fill: #262626" transform="translate(1110.91669 892.531783)scale(0.275 -0.275)">
       <defs>
        <path id="ArialMT-38" d="M 1131 2484 
Q 781 2613 612 2850 
Q 444 3088 444 3419 
Q 444 3919 803 4259 
Q 1163 4600 1759 4600 
Q 2359 4600 2725 4251 
Q 3091 3903 3091 3403 
Q 3091 3084 2923 2848 
Q 2756 2613 2416 2484 
Q 2838 2347 3058 2040 
Q 3278 1734 3278 1309 
Q 3278 722 2862 322 
Q 2447 -78 1769 -78 
Q 1091 -78 675 323 
Q 259 725 259 1325 
Q 259 1772 486 2073 
Q 713 2375 1131 2484 
z
M 1019 3438 
Q 1019 3113 1228 2906 
Q 1438 2700 1772 2700 
Q 2097 2700 2305 2904 
Q 2513 3109 2513 3406 
Q 2513 3716 2298 3927 
Q 2084 4138 1766 4138 
Q 1444 4138 1231 3931 
Q 1019 3725 1019 3438 
z
M 838 1322 
Q 838 1081 952 856 
Q 1066 631 1291 507 
Q 1516 384 1775 384 
Q 2178 384 2440 643 
Q 2703 903 2703 1303 
Q 2703 1709 2433 1975 
Q 2163 2241 1756 2241 
Q 1359 2241 1098 1978 
Q 838 1716 838 1322 
z
" transform="scale(0.015625)"/>
       </defs>
       <use xlink:href="#ArialMT-2d"/>
       <use xlink:href="#ArialMT-30" x="33.300781"/>
       <use xlink:href="#ArialMT-2e" x="88.916016"/>
       <use xlink:href="#ArialMT-30" x="116.699219"/>
       <use xlink:href="#ArialMT-38" x="172.314453"/>
      </g>
     </g>
    </g>
    <g id="ytick_10">
     <g id="line2d_34">
      <path d="M 1183.090909 752.067354 
L 1944 752.067354 
" clip-path="url(#p38a84cb2e3)" style="fill: none; stroke: #ffffff; stroke-linecap: round"/>
     </g>
     <g id="text_35">
      <!-- -0.06 -->
      <g style="fill: #262626" transform="translate(1110.91669 761.909346)scale(0.275 -0.275)">
       <defs>
        <path id="ArialMT-36" d="M 3184 3459 
L 2625 3416 
Q 2550 3747 2413 3897 
Q 2184 4138 1850 4138 
Q 1581 4138 1378 3988 
Q 1113 3794 959 3422 
Q 806 3050 800 2363 
Q 1003 2672 1297 2822 
Q 1591 2972 1913 2972 
Q 2475 2972 2870 2558 
Q 3266 2144 3266 1488 
Q 3266 1056 3080 686 
Q 2894 316 2569 119 
Q 2244 -78 1831 -78 
Q 1128 -78 684 439 
Q 241 956 241 2144 
Q 241 3472 731 4075 
Q 1159 4600 1884 4600 
Q 2425 4600 2770 4297 
Q 3116 3994 3184 3459 
z
M 888 1484 
Q 888 1194 1011 928 
Q 1134 663 1356 523 
Q 1578 384 1822 384 
Q 2178 384 2434 671 
Q 2691 959 2691 1453 
Q 2691 1928 2437 2201 
Q 2184 2475 1800 2475 
Q 1419 2475 1153 2201 
Q 888 1928 888 1484 
z
" transform="scale(0.015625)"/>
       </defs>
       <use xlink:href="#ArialMT-2d"/>
       <use xlink:href="#ArialMT-30" x="33.300781"/>
       <use xlink:href="#ArialMT-2e" x="88.916016"/>
       <use xlink:href="#ArialMT-30" x="116.699219"/>
       <use xlink:href="#ArialMT-36" x="172.314453"/>
      </g>
     </g>
    </g>
    <g id="ytick_11">
     <g id="line2d_35">
      <path d="M 1183.090909 621.444917 
L 1944 621.444917 
" clip-path="url(#p38a84cb2e3)" style="fill: none; stroke: #ffffff; stroke-linecap: round"/>
     </g>
     <g id="text_36">
      <!-- -0.04 -->
      <g style="fill: #262626" transform="translate(1110.91669 631.28691)scale(0.275 -0.275)">
       <use xlink:href="#ArialMT-2d"/>
       <use xlink:href="#ArialMT-30" x="33.300781"/>
       <use xlink:href="#ArialMT-2e" x="88.916016"/>
       <use xlink:href="#ArialMT-30" x="116.699219"/>
       <use xlink:href="#ArialMT-34" x="172.314453"/>
      </g>
     </g>
    </g>
    <g id="ytick_12">
     <g id="line2d_36">
      <path d="M 1183.090909 490.822481 
L 1944 490.822481 
" clip-path="url(#p38a84cb2e3)" style="fill: none; stroke: #ffffff; stroke-linecap: round"/>
     </g>
     <g id="text_37">
      <!-- -0.02 -->
      <g style="fill: #262626" transform="translate(1110.91669 500.664473)scale(0.275 -0.275)">
       <use xlink:href="#ArialMT-2d"/>
       <use xlink:href="#ArialMT-30" x="33.300781"/>
       <use xlink:href="#ArialMT-2e" x="88.916016"/>
       <use xlink:href="#ArialMT-30" x="116.699219"/>
       <use xlink:href="#ArialMT-32" x="172.314453"/>
      </g>
     </g>
    </g>
    <g id="ytick_13">
     <g id="line2d_37">
      <path d="M 1183.090909 360.200044 
L 1944 360.200044 
" clip-path="url(#p38a84cb2e3)" style="fill: none; stroke: #ffffff; stroke-linecap: round"/>
     </g>
     <g id="text_38">
      <!-- 0.00 -->
      <g style="fill: #262626" transform="translate(1120.073331 370.042037)scale(0.275 -0.275)">
       <use xlink:href="#ArialMT-30"/>
       <use xlink:href="#ArialMT-2e" x="55.615234"/>
       <use xlink:href="#ArialMT-30" x="83.398438"/>
       <use xlink:href="#ArialMT-30" x="139.013672"/>
      </g>
     </g>
    </g>
    <g id="ytick_14">
     <g id="line2d_38">
      <path d="M 1183.090909 229.577608 
L 1944 229.577608 
" clip-path="url(#p38a84cb2e3)" style="fill: none; stroke: #ffffff; stroke-linecap: round"/>
     </g>
     <g id="text_39">
      <!-- 0.02 -->
      <g style="fill: #262626" transform="translate(1120.073331 239.4196)scale(0.275 -0.275)">
       <use xlink:href="#ArialMT-30"/>
       <use xlink:href="#ArialMT-2e" x="55.615234"/>
       <use xlink:href="#ArialMT-30" x="83.398438"/>
       <use xlink:href="#ArialMT-32" x="139.013672"/>
      </g>
     </g>
    </g>
    <g id="text_40">
     <!-- Testing changing rate -->
     <g style="fill: #262626" transform="translate(1100.602628 679.877344)rotate(-90)scale(0.3 -0.3)">
      <use xlink:href="#ArialMT-54"/>
      <use xlink:href="#ArialMT-65" x="49.958984"/>
      <use xlink:href="#ArialMT-73" x="105.574219"/>
      <use xlink:href="#ArialMT-74" x="155.574219"/>
      <use xlink:href="#ArialMT-69" x="183.357422"/>
      <use xlink:href="#ArialMT-6e" x="205.574219"/>
      <use xlink:href="#ArialMT-67" x="261.189453"/>
      <use xlink:href="#ArialMT-20" x="316.804688"/>
      <use xlink:href="#ArialMT-63" x="344.587891"/>
      <use xlink:href="#ArialMT-68" x="394.587891"/>
      <use xlink:href="#ArialMT-61" x="450.203125"/>
      <use xlink:href="#ArialMT-6e" x="505.818359"/>
      <use xlink:href="#ArialMT-67" x="561.433594"/>
      <use xlink:href="#ArialMT-69" x="617.048828"/>
      <use xlink:href="#ArialMT-6e" x="639.265625"/>
      <use xlink:href="#ArialMT-67" x="694.880859"/>
      <use xlink:href="#ArialMT-20" x="750.496094"/>
      <use xlink:href="#ArialMT-72" x="778.279297"/>
      <use xlink:href="#ArialMT-61" x="811.580078"/>
      <use xlink:href="#ArialMT-74" x="867.195312"/>
      <use xlink:href="#ArialMT-65" x="894.978516"/>
     </g>
    </g>
   </g>
   <g id="line2d_39">
    <path d="M 1217.677686 789.852004 
L 1235.881253 567.755397 
L 1254.084819 496.47306 
L 1272.288386 498.729264 
L 1290.491953 417.420223 
L 1308.69552 514.196121 
L 1326.899087 460.646496 
L 1345.102653 387.550651 
L 1363.30622 444.894428 
L 1381.509787 413.06867 
L 1399.713354 339.259958 
L 1417.91692 436.484235 
L 1436.120487 390.455159 
L 1454.324054 324.587007 
L 1472.527621 454.642338 
L 1490.731187 392.665374 
L 1508.934754 426.564935 
L 1527.138321 434.020499 
L 1545.341888 288.181943 
L 1563.545455 355.109839 
L 1581.749021 490.496631 
L 1599.952588 309.912826 
L 1618.156155 412.284123 
L 1636.359722 222.262561 
L 1654.563288 490.586232 
L 1672.766855 423.735305 
L 1690.970422 408.50438 
L 1709.173989 367.575406 
L 1727.377555 366.272223 
L 1745.581122 383.447478 
L 1763.784689 252.398612 
L 1781.988256 431.374301 
L 1800.191823 402.183345 
L 1818.395389 410.728581 
L 1836.598956 361.723631 
L 1854.802523 388.009918 
L 1873.00609 408.335219 
L 1891.209656 347.937904 
L 1909.413223 345.323897 
" clip-path="url(#p38a84cb2e3)" style="fill: none; stroke-dasharray: 5.55,2.4; stroke-dashoffset: 0; stroke: #4c72b0; stroke-width: 1.5"/>
   </g>
   <g id="line2d_40">
    <path d="M 1217.677686 795.192017 
L 1235.881253 811.881017 
L 1254.084819 518.556928 
L 1272.288386 501.386309 
L 1290.491953 493.225931 
L 1308.69552 430.117029 
L 1326.899087 424.516873 
L 1345.102653 458.314662 
L 1363.30622 406.548088 
L 1381.509787 404.254235 
L 1399.713354 363.951157 
L 1417.91692 518.327711 
L 1436.120487 327.098402 
L 1454.324054 298.429025 
L 1472.527621 500.35196 
L 1490.731187 351.682838 
L 1508.934754 422.282177 
L 1527.138321 310.67328 
L 1545.341888 461.374498 
L 1563.545455 461.333968 
L 1581.749021 366.055212 
L 1599.952588 305.283232 
L 1618.156155 413.537434 
L 1636.359722 352.060665 
L 1654.563288 372.263737 
L 1672.766855 361.909051 
L 1690.970422 474.454486 
L 1709.173989 379.226343 
L 1727.377555 308.979913 
L 1745.581122 434.706425 
L 1763.784689 260.279531 
L 1781.988256 432.743654 
L 1800.191823 417.520334 
L 1818.395389 342.957349 
L 1836.598956 439.392183 
L 1854.802523 294.757342 
L 1873.00609 378.396146 
L 1891.209656 344.950692 
L 1909.413223 440.45712 
" clip-path="url(#p38a84cb2e3)" style="fill: none; stroke-dasharray: 1.5,2.475; stroke-dashoffset: 0; stroke: #dd8452; stroke-width: 1.5"/>
   </g>
   <g id="line2d_41">
    <path d="M 1217.677686 907.936364 
L 1235.881253 606.036073 
L 1254.084819 613.520923 
L 1272.288386 495.685356 
L 1290.491953 560.094886 
L 1308.69552 375.827495 
L 1326.899087 555.857623 
L 1345.102653 508.433727 
L 1363.30622 273.73716 
L 1381.509787 460.576181 
L 1399.713354 500.967298 
L 1417.91692 363.473219 
L 1436.120487 391.806398 
L 1454.324054 365.833247 
L 1472.527621 327.907182 
L 1490.731187 659.806467 
L 1508.934754 328.62321 
L 1527.138321 418.356445 
L 1545.341888 372.26046 
L 1563.545455 352.590414 
L 1581.749021 463.809184 
L 1599.952588 381.732955 
L 1618.156155 293.030236 
L 1636.359722 488.516067 
L 1654.563288 220.088915 
L 1672.766855 166.663636 
L 1690.970422 683.8977 
L 1709.173989 420.543179 
L 1727.377555 324.296607 
L 1745.581122 386.081983 
L 1763.784689 432.905923 
L 1781.988256 319.552445 
L 1800.191823 441.409627 
L 1818.395389 271.573796 
L 1836.598956 422.1067 
L 1854.802523 299.433163 
L 1873.00609 495.159085 
L 1891.209656 274.882822 
L 1909.413223 408.688359 
" clip-path="url(#p38a84cb2e3)" style="fill: none; stroke: #55a868; stroke-width: 1.5; stroke-linecap: round"/>
   </g>
   <g id="patch_9">
    <path d="M 1183.090909 945 
L 1183.090909 129.6 
" style="fill: none; stroke: #ffffff; stroke-width: 1.25; stroke-linejoin: miter; stroke-linecap: square"/>
   </g>
   <g id="patch_10">
    <path d="M 1944 945 
L 1944 129.6 
" style="fill: none; stroke: #ffffff; stroke-width: 1.25; stroke-linejoin: miter; stroke-linecap: square"/>
   </g>
   <g id="patch_11">
    <path d="M 1183.090909 945 
L 1944 945 
" style="fill: none; stroke: #ffffff; stroke-width: 1.25; stroke-linejoin: miter; stroke-linecap: square"/>
   </g>
   <g id="patch_12">
    <path d="M 1183.090909 129.6 
L 1944 129.6 
" style="fill: none; stroke: #ffffff; stroke-width: 1.25; stroke-linejoin: miter; stroke-linecap: square"/>
   </g>
   <g id="text_41">
    <!-- Testing changing rate of different loss functions in Adam optimizer -->
    <g style="fill: #262626" transform="translate(1127.772017 123.6)scale(0.3 -0.3)">
     <defs>
      <path id="ArialMT-41" d="M -9 0 
L 1750 4581 
L 2403 4581 
L 4278 0 
L 3588 0 
L 3053 1388 
L 1138 1388 
L 634 0 
L -9 0 
z
M 1313 1881 
L 2866 1881 
L 2388 3150 
Q 2169 3728 2063 4100 
Q 1975 3659 1816 3225 
L 1313 1881 
z
" transform="scale(0.015625)"/>
     </defs>
     <use xlink:href="#ArialMT-54"/>
     <use xlink:href="#ArialMT-65" x="49.958984"/>
     <use xlink:href="#ArialMT-73" x="105.574219"/>
     <use xlink:href="#ArialMT-74" x="155.574219"/>
     <use xlink:href="#ArialMT-69" x="183.357422"/>
     <use xlink:href="#ArialMT-6e" x="205.574219"/>
     <use xlink:href="#ArialMT-67" x="261.189453"/>
     <use xlink:href="#ArialMT-20" x="316.804688"/>
     <use xlink:href="#ArialMT-63" x="344.587891"/>
     <use xlink:href="#ArialMT-68" x="394.587891"/>
     <use xlink:href="#ArialMT-61" x="450.203125"/>
     <use xlink:href="#ArialMT-6e" x="505.818359"/>
     <use xlink:href="#ArialMT-67" x="561.433594"/>
     <use xlink:href="#ArialMT-69" x="617.048828"/>
     <use xlink:href="#ArialMT-6e" x="639.265625"/>
     <use xlink:href="#ArialMT-67" x="694.880859"/>
     <use xlink:href="#ArialMT-20" x="750.496094"/>
     <use xlink:href="#ArialMT-72" x="778.279297"/>
     <use xlink:href="#ArialMT-61" x="811.580078"/>
     <use xlink:href="#ArialMT-74" x="867.195312"/>
     <use xlink:href="#ArialMT-65" x="894.978516"/>
     <use xlink:href="#ArialMT-20" x="950.59375"/>
     <use xlink:href="#ArialMT-6f" x="978.376953"/>
     <use xlink:href="#ArialMT-66" x="1033.992188"/>
     <use xlink:href="#ArialMT-20" x="1061.775391"/>
     <use xlink:href="#ArialMT-64" x="1089.558594"/>
     <use xlink:href="#ArialMT-69" x="1145.173828"/>
     <use xlink:href="#ArialMT-66" x="1167.390625"/>
     <use xlink:href="#ArialMT-66" x="1193.423828"/>
     <use xlink:href="#ArialMT-65" x="1221.207031"/>
     <use xlink:href="#ArialMT-72" x="1276.822266"/>
     <use xlink:href="#ArialMT-65" x="1310.123047"/>
     <use xlink:href="#ArialMT-6e" x="1365.738281"/>
     <use xlink:href="#ArialMT-74" x="1421.353516"/>
     <use xlink:href="#ArialMT-20" x="1449.136719"/>
     <use xlink:href="#ArialMT-6c" x="1476.919922"/>
     <use xlink:href="#ArialMT-6f" x="1499.136719"/>
     <use xlink:href="#ArialMT-73" x="1554.751953"/>
     <use xlink:href="#ArialMT-73" x="1604.751953"/>
     <use xlink:href="#ArialMT-20" x="1654.751953"/>
     <use xlink:href="#ArialMT-66" x="1682.535156"/>
     <use xlink:href="#ArialMT-75" x="1710.318359"/>
     <use xlink:href="#ArialMT-6e" x="1765.933594"/>
     <use xlink:href="#ArialMT-63" x="1821.548828"/>
     <use xlink:href="#ArialMT-74" x="1871.548828"/>
     <use xlink:href="#ArialMT-69" x="1899.332031"/>
     <use xlink:href="#ArialMT-6f" x="1921.548828"/>
     <use xlink:href="#ArialMT-6e" x="1977.164062"/>
     <use xlink:href="#ArialMT-73" x="2032.779297"/>
     <use xlink:href="#ArialMT-20" x="2082.779297"/>
     <use xlink:href="#ArialMT-69" x="2110.5625"/>
     <use xlink:href="#ArialMT-6e" x="2132.779297"/>
     <use xlink:href="#ArialMT-20" x="2188.394531"/>
     <use xlink:href="#ArialMT-41" x="2210.677734"/>
     <use xlink:href="#ArialMT-64" x="2277.376953"/>
     <use xlink:href="#ArialMT-61" x="2332.992188"/>
     <use xlink:href="#ArialMT-6d" x="2388.607422"/>
     <use xlink:href="#ArialMT-20" x="2471.908203"/>
     <use xlink:href="#ArialMT-6f" x="2499.691406"/>
     <use xlink:href="#ArialMT-70" x="2555.306641"/>
     <use xlink:href="#ArialMT-74" x="2610.921875"/>
     <use xlink:href="#ArialMT-69" x="2638.705078"/>
     <use xlink:href="#ArialMT-6d" x="2660.921875"/>
     <use xlink:href="#ArialMT-69" x="2744.222656"/>
     <use xlink:href="#ArialMT-7a" x="2766.439453"/>
     <use xlink:href="#ArialMT-65" x="2816.439453"/>
     <use xlink:href="#ArialMT-72" x="2872.054688"/>
    </g>
   </g>
   <g id="legend_2">
    <g id="patch_13">
     <path d="M 1496.7125 931.25 
L 1924.75 931.25 
Q 1930.25 931.25 1930.25 925.75 
L 1930.25 810.151172 
Q 1930.25 804.651172 1924.75 804.651172 
L 1496.7125 804.651172 
Q 1491.2125 804.651172 1491.2125 810.151172 
L 1491.2125 925.75 
Q 1491.2125 931.25 1496.7125 931.25 
z
" style="fill: #eaeaf2; opacity: 0.8; stroke: #cccccc; stroke-linejoin: miter"/>
    </g>
    <g id="line2d_42">
     <path d="M 1502.2125 826.045313 
L 1529.7125 826.045313 
L 1557.2125 826.045313 
" style="fill: none; stroke-dasharray: 5.55,2.4; stroke-dashoffset: 0; stroke: #4c72b0; stroke-width: 1.5"/>
    </g>
    <g id="text_42">
     <!-- CE_Adam -->
     <g style="fill: #262626" transform="translate(1579.2125 835.670313)scale(0.275 -0.275)">
      <use xlink:href="#ArialMT-43"/>
      <use xlink:href="#ArialMT-45" x="72.216797"/>
      <use xlink:href="#ArialMT-5f" x="138.916016"/>
      <use xlink:href="#ArialMT-41" x="194.53125"/>
      <use xlink:href="#ArialMT-64" x="261.230469"/>
      <use xlink:href="#ArialMT-61" x="316.845703"/>
      <use xlink:href="#ArialMT-6d" x="372.460938"/>
     </g>
    </g>
    <g id="line2d_43">
     <path d="M 1502.2125 865.280078 
L 1529.7125 865.280078 
L 1557.2125 865.280078 
" style="fill: none; stroke-dasharray: 1.5,2.475; stroke-dashoffset: 0; stroke: #dd8452; stroke-width: 1.5"/>
    </g>
    <g id="text_43">
     <!-- Focal(Gamma = 0.5)_Adam -->
     <g style="fill: #262626" transform="translate(1579.2125 874.905078)scale(0.275 -0.275)">
      <use xlink:href="#ArialMT-46"/>
      <use xlink:href="#ArialMT-6f" x="61.083984"/>
      <use xlink:href="#ArialMT-63" x="116.699219"/>
      <use xlink:href="#ArialMT-61" x="166.699219"/>
      <use xlink:href="#ArialMT-6c" x="222.314453"/>
      <use xlink:href="#ArialMT-28" x="244.53125"/>
      <use xlink:href="#ArialMT-47" x="277.832031"/>
      <use xlink:href="#ArialMT-61" x="355.615234"/>
      <use xlink:href="#ArialMT-6d" x="411.230469"/>
      <use xlink:href="#ArialMT-6d" x="494.53125"/>
      <use xlink:href="#ArialMT-61" x="577.832031"/>
      <use xlink:href="#ArialMT-20" x="633.447266"/>
      <use xlink:href="#ArialMT-3d" x="661.230469"/>
      <use xlink:href="#ArialMT-20" x="719.628906"/>
      <use xlink:href="#ArialMT-30" x="747.412109"/>
      <use xlink:href="#ArialMT-2e" x="803.027344"/>
      <use xlink:href="#ArialMT-35" x="830.810547"/>
      <use xlink:href="#ArialMT-29" x="886.425781"/>
      <use xlink:href="#ArialMT-5f" x="919.726562"/>
      <use xlink:href="#ArialMT-41" x="975.341797"/>
      <use xlink:href="#ArialMT-64" x="1042.041016"/>
      <use xlink:href="#ArialMT-61" x="1097.65625"/>
      <use xlink:href="#ArialMT-6d" x="1153.271484"/>
     </g>
    </g>
    <g id="line2d_44">
     <path d="M 1502.2125 904.837109 
L 1529.7125 904.837109 
L 1557.2125 904.837109 
" style="fill: none; stroke: #55a868; stroke-width: 1.5; stroke-linecap: round"/>
    </g>
    <g id="text_44">
     <!-- Focal(Gamma = 2)_Adam -->
     <g style="fill: #262626" transform="translate(1579.2125 914.462109)scale(0.275 -0.275)">
      <use xlink:href="#ArialMT-46"/>
      <use xlink:href="#ArialMT-6f" x="61.083984"/>
      <use xlink:href="#ArialMT-63" x="116.699219"/>
      <use xlink:href="#ArialMT-61" x="166.699219"/>
      <use xlink:href="#ArialMT-6c" x="222.314453"/>
      <use xlink:href="#ArialMT-28" x="244.53125"/>
      <use xlink:href="#ArialMT-47" x="277.832031"/>
      <use xlink:href="#ArialMT-61" x="355.615234"/>
      <use xlink:href="#ArialMT-6d" x="411.230469"/>
      <use xlink:href="#ArialMT-6d" x="494.53125"/>
      <use xlink:href="#ArialMT-61" x="577.832031"/>
      <use xlink:href="#ArialMT-20" x="633.447266"/>
      <use xlink:href="#ArialMT-3d" x="661.230469"/>
      <use xlink:href="#ArialMT-20" x="719.628906"/>
      <use xlink:href="#ArialMT-32" x="747.412109"/>
      <use xlink:href="#ArialMT-29" x="803.027344"/>
      <use xlink:href="#ArialMT-5f" x="836.328125"/>
      <use xlink:href="#ArialMT-41" x="891.943359"/>
      <use xlink:href="#ArialMT-64" x="958.642578"/>
      <use xlink:href="#ArialMT-61" x="1014.257812"/>
      <use xlink:href="#ArialMT-6d" x="1069.873047"/>
     </g>
    </g>
   </g>
  </g>
  <g id="text_45">
   <!-- Testing changing rate of different loss functions in distinct optimizers -->
   <g style="fill: #262626" transform="translate(477.86875 50.71875)scale(0.4 -0.4)">
    <use xlink:href="#ArialMT-54"/>
    <use xlink:href="#ArialMT-65" x="49.958984"/>
    <use xlink:href="#ArialMT-73" x="105.574219"/>
    <use xlink:href="#ArialMT-74" x="155.574219"/>
    <use xlink:href="#ArialMT-69" x="183.357422"/>
    <use xlink:href="#ArialMT-6e" x="205.574219"/>
    <use xlink:href="#ArialMT-67" x="261.189453"/>
    <use xlink:href="#ArialMT-20" x="316.804688"/>
    <use xlink:href="#ArialMT-63" x="344.587891"/>
    <use xlink:href="#ArialMT-68" x="394.587891"/>
    <use xlink:href="#ArialMT-61" x="450.203125"/>
    <use xlink:href="#ArialMT-6e" x="505.818359"/>
    <use xlink:href="#ArialMT-67" x="561.433594"/>
    <use xlink:href="#ArialMT-69" x="617.048828"/>
    <use xlink:href="#ArialMT-6e" x="639.265625"/>
    <use xlink:href="#ArialMT-67" x="694.880859"/>
    <use xlink:href="#ArialMT-20" x="750.496094"/>
    <use xlink:href="#ArialMT-72" x="778.279297"/>
    <use xlink:href="#ArialMT-61" x="811.580078"/>
    <use xlink:href="#ArialMT-74" x="867.195312"/>
    <use xlink:href="#ArialMT-65" x="894.978516"/>
    <use xlink:href="#ArialMT-20" x="950.59375"/>
    <use xlink:href="#ArialMT-6f" x="978.376953"/>
    <use xlink:href="#ArialMT-66" x="1033.992188"/>
    <use xlink:href="#ArialMT-20" x="1061.775391"/>
    <use xlink:href="#ArialMT-64" x="1089.558594"/>
    <use xlink:href="#ArialMT-69" x="1145.173828"/>
    <use xlink:href="#ArialMT-66" x="1167.390625"/>
    <use xlink:href="#ArialMT-66" x="1193.423828"/>
    <use xlink:href="#ArialMT-65" x="1221.207031"/>
    <use xlink:href="#ArialMT-72" x="1276.822266"/>
    <use xlink:href="#ArialMT-65" x="1310.123047"/>
    <use xlink:href="#ArialMT-6e" x="1365.738281"/>
    <use xlink:href="#ArialMT-74" x="1421.353516"/>
    <use xlink:href="#ArialMT-20" x="1449.136719"/>
    <use xlink:href="#ArialMT-6c" x="1476.919922"/>
    <use xlink:href="#ArialMT-6f" x="1499.136719"/>
    <use xlink:href="#ArialMT-73" x="1554.751953"/>
    <use xlink:href="#ArialMT-73" x="1604.751953"/>
    <use xlink:href="#ArialMT-20" x="1654.751953"/>
    <use xlink:href="#ArialMT-66" x="1682.535156"/>
    <use xlink:href="#ArialMT-75" x="1710.318359"/>
    <use xlink:href="#ArialMT-6e" x="1765.933594"/>
    <use xlink:href="#ArialMT-63" x="1821.548828"/>
    <use xlink:href="#ArialMT-74" x="1871.548828"/>
    <use xlink:href="#ArialMT-69" x="1899.332031"/>
    <use xlink:href="#ArialMT-6f" x="1921.548828"/>
    <use xlink:href="#ArialMT-6e" x="1977.164062"/>
    <use xlink:href="#ArialMT-73" x="2032.779297"/>
    <use xlink:href="#ArialMT-20" x="2082.779297"/>
    <use xlink:href="#ArialMT-69" x="2110.5625"/>
    <use xlink:href="#ArialMT-6e" x="2132.779297"/>
    <use xlink:href="#ArialMT-20" x="2188.394531"/>
    <use xlink:href="#ArialMT-64" x="2216.177734"/>
    <use xlink:href="#ArialMT-69" x="2271.792969"/>
    <use xlink:href="#ArialMT-73" x="2294.009766"/>
    <use xlink:href="#ArialMT-74" x="2344.009766"/>
    <use xlink:href="#ArialMT-69" x="2371.792969"/>
    <use xlink:href="#ArialMT-6e" x="2394.009766"/>
    <use xlink:href="#ArialMT-63" x="2449.625"/>
    <use xlink:href="#ArialMT-74" x="2499.625"/>
    <use xlink:href="#ArialMT-20" x="2527.408203"/>
    <use xlink:href="#ArialMT-6f" x="2555.191406"/>
    <use xlink:href="#ArialMT-70" x="2610.806641"/>
    <use xlink:href="#ArialMT-74" x="2666.421875"/>
    <use xlink:href="#ArialMT-69" x="2694.205078"/>
    <use xlink:href="#ArialMT-6d" x="2716.421875"/>
    <use xlink:href="#ArialMT-69" x="2799.722656"/>
    <use xlink:href="#ArialMT-7a" x="2821.939453"/>
    <use xlink:href="#ArialMT-65" x="2871.939453"/>
    <use xlink:href="#ArialMT-72" x="2927.554688"/>
    <use xlink:href="#ArialMT-73" x="2960.855469"/>
   </g>
  </g>
 </g>
 <defs>
  <clipPath id="p1bc1848981">
   <rect x="270" y="129.6" width="760.909091" height="815.4"/>
  </clipPath>
  <clipPath id="p38a84cb2e3">
   <rect x="1183.090909" y="129.6" width="760.909091" height="815.4"/>
  </clipPath>
 </defs>
</svg>
