<?xml version="1.0" encoding="utf-8" standalone="no"?>
<!DOCTYPE svg PUBLIC "-//W3C//DTD SVG 1.1//EN"
  "http://www.w3.org/Graphics/SVG/1.1/DTD/svg11.dtd">
<svg xmlns:xlink="http://www.w3.org/1999/xlink" width="2160pt" height="864pt" viewBox="0 0 2160 864" xmlns="http://www.w3.org/2000/svg" version="1.1">
 <metadata>
  <rdf:RDF xmlns:dc="http://purl.org/dc/elements/1.1/" xmlns:cc="http://creativecommons.org/ns#" xmlns:rdf="http://www.w3.org/1999/02/22-rdf-syntax-ns#">
   <cc:Work>
    <dc:type rdf:resource="http://purl.org/dc/dcmitype/StillImage"/>
    <dc:date>2023-10-28T08:01:44.068439</dc:date>
    <dc:format>image/svg+xml</dc:format>
    <dc:creator>
     <cc:Agent>
      <dc:title>Matplotlib v3.7.3, https://matplotlib.org/</dc:title>
     </cc:Agent>
    </dc:creator>
   </cc:Work>
  </rdf:RDF>
 </metadata>
 <defs>
  <style type="text/css">*{stroke-linejoin: round; stroke-linecap: butt}</style>
 </defs>
 <g id="figure_1">
  <g id="patch_1">
   <path d="M 0 864 
L 2160 864 
L 2160 0 
L 0 0 
z
" style="fill: #ffffff"/>
  </g>
  <g id="axes_1">
   <g id="patch_2">
    <path d="M 270 768.96 
L 1030.909091 768.96 
L 1030.909091 103.68 
L 270 103.68 
z
" style="fill: #eaeaf2"/>
   </g>
   <g id="matplotlib.axis_1">
    <g id="xtick_1">
     <g id="line2d_1">
      <path d="M 304.586777 768.96 
L 304.586777 103.68 
" clip-path="url(#p20ff2bbda1)" style="fill: none; stroke: #ffffff; stroke-linecap: round"/>
     </g>
     <g id="text_1">
      <!-- 0 -->
      <g style="fill: #262626" transform="translate(295.838339 799.355703) scale(0.275 -0.275)">
       <defs>
        <path id="DejaVuSans-30" d="M 2034 4250 
Q 1547 4250 1301 3770 
Q 1056 3291 1056 2328 
Q 1056 1369 1301 889 
Q 1547 409 2034 409 
Q 2525 409 2770 889 
Q 3016 1369 3016 2328 
Q 3016 3291 2770 3770 
Q 2525 4250 2034 4250 
z
M 2034 4750 
Q 2819 4750 3233 4129 
Q 3647 3509 3647 2328 
Q 3647 1150 3233 529 
Q 2819 -91 2034 -91 
Q 1250 -91 836 529 
Q 422 1150 422 2328 
Q 422 3509 836 4129 
Q 1250 4750 2034 4750 
z
" transform="scale(0.015625)"/>
       </defs>
       <use xlink:href="#DejaVuSans-30"/>
      </g>
     </g>
    </g>
    <g id="xtick_2">
     <g id="line2d_2">
      <path d="M 393.27082 768.96 
L 393.27082 103.68 
" clip-path="url(#p20ff2bbda1)" style="fill: none; stroke: #ffffff; stroke-linecap: round"/>
     </g>
     <g id="text_2">
      <!-- 5 -->
      <g style="fill: #262626" transform="translate(384.522383 799.355703) scale(0.275 -0.275)">
       <defs>
        <path id="DejaVuSans-35" d="M 691 4666 
L 3169 4666 
L 3169 4134 
L 1269 4134 
L 1269 2991 
Q 1406 3038 1543 3061 
Q 1681 3084 1819 3084 
Q 2600 3084 3056 2656 
Q 3513 2228 3513 1497 
Q 3513 744 3044 326 
Q 2575 -91 1722 -91 
Q 1428 -91 1123 -41 
Q 819 9 494 109 
L 494 744 
Q 775 591 1075 516 
Q 1375 441 1709 441 
Q 2250 441 2565 725 
Q 2881 1009 2881 1497 
Q 2881 1984 2565 2268 
Q 2250 2553 1709 2553 
Q 1456 2553 1204 2497 
Q 953 2441 691 2322 
L 691 4666 
z
" transform="scale(0.015625)"/>
       </defs>
       <use xlink:href="#DejaVuSans-35"/>
      </g>
     </g>
    </g>
    <g id="xtick_3">
     <g id="line2d_3">
      <path d="M 481.954863 768.96 
L 481.954863 103.68 
" clip-path="url(#p20ff2bbda1)" style="fill: none; stroke: #ffffff; stroke-linecap: round"/>
     </g>
     <g id="text_3">
      <!-- 10 -->
      <g style="fill: #262626" transform="translate(464.457988 799.355703) scale(0.275 -0.275)">
       <defs>
        <path id="DejaVuSans-31" d="M 794 531 
L 1825 531 
L 1825 4091 
L 703 3866 
L 703 4441 
L 1819 4666 
L 2450 4666 
L 2450 531 
L 3481 531 
L 3481 0 
L 794 0 
L 794 531 
z
" transform="scale(0.015625)"/>
       </defs>
       <use xlink:href="#DejaVuSans-31"/>
       <use xlink:href="#DejaVuSans-30" x="63.623047"/>
      </g>
     </g>
    </g>
    <g id="xtick_4">
     <g id="line2d_4">
      <path d="M 570.638907 768.96 
L 570.638907 103.68 
" clip-path="url(#p20ff2bbda1)" style="fill: none; stroke: #ffffff; stroke-linecap: round"/>
     </g>
     <g id="text_4">
      <!-- 15 -->
      <g style="fill: #262626" transform="translate(553.142032 799.355703) scale(0.275 -0.275)">
       <use xlink:href="#DejaVuSans-31"/>
       <use xlink:href="#DejaVuSans-35" x="63.623047"/>
      </g>
     </g>
    </g>
    <g id="xtick_5">
     <g id="line2d_5">
      <path d="M 659.32295 768.96 
L 659.32295 103.68 
" clip-path="url(#p20ff2bbda1)" style="fill: none; stroke: #ffffff; stroke-linecap: round"/>
     </g>
     <g id="text_5">
      <!-- 20 -->
      <g style="fill: #262626" transform="translate(641.826075 799.355703) scale(0.275 -0.275)">
       <defs>
        <path id="DejaVuSans-32" d="M 1228 531 
L 3431 531 
L 3431 0 
L 469 0 
L 469 531 
Q 828 903 1448 1529 
Q 2069 2156 2228 2338 
Q 2531 2678 2651 2914 
Q 2772 3150 2772 3378 
Q 2772 3750 2511 3984 
Q 2250 4219 1831 4219 
Q 1534 4219 1204 4116 
Q 875 4013 500 3803 
L 500 4441 
Q 881 4594 1212 4672 
Q 1544 4750 1819 4750 
Q 2544 4750 2975 4387 
Q 3406 4025 3406 3419 
Q 3406 3131 3298 2873 
Q 3191 2616 2906 2266 
Q 2828 2175 2409 1742 
Q 1991 1309 1228 531 
z
" transform="scale(0.015625)"/>
       </defs>
       <use xlink:href="#DejaVuSans-32"/>
       <use xlink:href="#DejaVuSans-30" x="63.623047"/>
      </g>
     </g>
    </g>
    <g id="xtick_6">
     <g id="line2d_6">
      <path d="M 748.006993 768.96 
L 748.006993 103.68 
" clip-path="url(#p20ff2bbda1)" style="fill: none; stroke: #ffffff; stroke-linecap: round"/>
     </g>
     <g id="text_6">
      <!-- 25 -->
      <g style="fill: #262626" transform="translate(730.510118 799.355703) scale(0.275 -0.275)">
       <use xlink:href="#DejaVuSans-32"/>
       <use xlink:href="#DejaVuSans-35" x="63.623047"/>
      </g>
     </g>
    </g>
    <g id="xtick_7">
     <g id="line2d_7">
      <path d="M 836.691036 768.96 
L 836.691036 103.68 
" clip-path="url(#p20ff2bbda1)" style="fill: none; stroke: #ffffff; stroke-linecap: round"/>
     </g>
     <g id="text_7">
      <!-- 30 -->
      <g style="fill: #262626" transform="translate(819.194161 799.355703) scale(0.275 -0.275)">
       <defs>
        <path id="DejaVuSans-33" d="M 2597 2516 
Q 3050 2419 3304 2112 
Q 3559 1806 3559 1356 
Q 3559 666 3084 287 
Q 2609 -91 1734 -91 
Q 1441 -91 1130 -33 
Q 819 25 488 141 
L 488 750 
Q 750 597 1062 519 
Q 1375 441 1716 441 
Q 2309 441 2620 675 
Q 2931 909 2931 1356 
Q 2931 1769 2642 2001 
Q 2353 2234 1838 2234 
L 1294 2234 
L 1294 2753 
L 1863 2753 
Q 2328 2753 2575 2939 
Q 2822 3125 2822 3475 
Q 2822 3834 2567 4026 
Q 2313 4219 1838 4219 
Q 1578 4219 1281 4162 
Q 984 4106 628 3988 
L 628 4550 
Q 988 4650 1302 4700 
Q 1616 4750 1894 4750 
Q 2613 4750 3031 4423 
Q 3450 4097 3450 3541 
Q 3450 3153 3228 2886 
Q 3006 2619 2597 2516 
z
" transform="scale(0.015625)"/>
       </defs>
       <use xlink:href="#DejaVuSans-33"/>
       <use xlink:href="#DejaVuSans-30" x="63.623047"/>
      </g>
     </g>
    </g>
    <g id="xtick_8">
     <g id="line2d_8">
      <path d="M 925.375079 768.96 
L 925.375079 103.68 
" clip-path="url(#p20ff2bbda1)" style="fill: none; stroke: #ffffff; stroke-linecap: round"/>
     </g>
     <g id="text_8">
      <!-- 35 -->
      <g style="fill: #262626" transform="translate(907.878204 799.355703) scale(0.275 -0.275)">
       <use xlink:href="#DejaVuSans-33"/>
       <use xlink:href="#DejaVuSans-35" x="63.623047"/>
      </g>
     </g>
    </g>
    <g id="xtick_9">
     <g id="line2d_9">
      <path d="M 1014.059123 768.96 
L 1014.059123 103.68 
" clip-path="url(#p20ff2bbda1)" style="fill: none; stroke: #ffffff; stroke-linecap: round"/>
     </g>
     <g id="text_9">
      <!-- 40 -->
      <g style="fill: #262626" transform="translate(996.562248 799.355703) scale(0.275 -0.275)">
       <defs>
        <path id="DejaVuSans-34" d="M 2419 4116 
L 825 1625 
L 2419 1625 
L 2419 4116 
z
M 2253 4666 
L 3047 4666 
L 3047 1625 
L 3713 1625 
L 3713 1100 
L 3047 1100 
L 3047 0 
L 2419 0 
L 2419 1100 
L 313 1100 
L 313 1709 
L 2253 4666 
z
" transform="scale(0.015625)"/>
       </defs>
       <use xlink:href="#DejaVuSans-34"/>
       <use xlink:href="#DejaVuSans-30" x="63.623047"/>
      </g>
     </g>
    </g>
    <g id="text_10">
     <!-- Epoch -->
     <g style="fill: #262626" transform="translate(604.521733 831.870156) scale(0.3 -0.3)">
      <defs>
       <path id="DejaVuSans-45" d="M 628 4666 
L 3578 4666 
L 3578 4134 
L 1259 4134 
L 1259 2753 
L 3481 2753 
L 3481 2222 
L 1259 2222 
L 1259 531 
L 3634 531 
L 3634 0 
L 628 0 
L 628 4666 
z
" transform="scale(0.015625)"/>
       <path id="DejaVuSans-70" d="M 1159 525 
L 1159 -1331 
L 581 -1331 
L 581 3500 
L 1159 3500 
L 1159 2969 
Q 1341 3281 1617 3432 
Q 1894 3584 2278 3584 
Q 2916 3584 3314 3078 
Q 3713 2572 3713 1747 
Q 3713 922 3314 415 
Q 2916 -91 2278 -91 
Q 1894 -91 1617 61 
Q 1341 213 1159 525 
z
M 3116 1747 
Q 3116 2381 2855 2742 
Q 2594 3103 2138 3103 
Q 1681 3103 1420 2742 
Q 1159 2381 1159 1747 
Q 1159 1113 1420 752 
Q 1681 391 2138 391 
Q 2594 391 2855 752 
Q 3116 1113 3116 1747 
z
" transform="scale(0.015625)"/>
       <path id="DejaVuSans-6f" d="M 1959 3097 
Q 1497 3097 1228 2736 
Q 959 2375 959 1747 
Q 959 1119 1226 758 
Q 1494 397 1959 397 
Q 2419 397 2687 759 
Q 2956 1122 2956 1747 
Q 2956 2369 2687 2733 
Q 2419 3097 1959 3097 
z
M 1959 3584 
Q 2709 3584 3137 3096 
Q 3566 2609 3566 1747 
Q 3566 888 3137 398 
Q 2709 -91 1959 -91 
Q 1206 -91 779 398 
Q 353 888 353 1747 
Q 353 2609 779 3096 
Q 1206 3584 1959 3584 
z
" transform="scale(0.015625)"/>
       <path id="DejaVuSans-63" d="M 3122 3366 
L 3122 2828 
Q 2878 2963 2633 3030 
Q 2388 3097 2138 3097 
Q 1578 3097 1268 2742 
Q 959 2388 959 1747 
Q 959 1106 1268 751 
Q 1578 397 2138 397 
Q 2388 397 2633 464 
Q 2878 531 3122 666 
L 3122 134 
Q 2881 22 2623 -34 
Q 2366 -91 2075 -91 
Q 1284 -91 818 406 
Q 353 903 353 1747 
Q 353 2603 823 3093 
Q 1294 3584 2113 3584 
Q 2378 3584 2631 3529 
Q 2884 3475 3122 3366 
z
" transform="scale(0.015625)"/>
       <path id="DejaVuSans-68" d="M 3513 2113 
L 3513 0 
L 2938 0 
L 2938 2094 
Q 2938 2591 2744 2837 
Q 2550 3084 2163 3084 
Q 1697 3084 1428 2787 
Q 1159 2491 1159 1978 
L 1159 0 
L 581 0 
L 581 4863 
L 1159 4863 
L 1159 2956 
Q 1366 3272 1645 3428 
Q 1925 3584 2291 3584 
Q 2894 3584 3203 3211 
Q 3513 2838 3513 2113 
z
" transform="scale(0.015625)"/>
      </defs>
      <use xlink:href="#DejaVuSans-45"/>
      <use xlink:href="#DejaVuSans-70" x="63.183594"/>
      <use xlink:href="#DejaVuSans-6f" x="126.660156"/>
      <use xlink:href="#DejaVuSans-63" x="187.841797"/>
      <use xlink:href="#DejaVuSans-68" x="242.822266"/>
     </g>
    </g>
   </g>
   <g id="matplotlib.axis_2">
    <g id="ytick_1">
     <g id="line2d_10">
      <path d="M 270 755.794246 
L 1030.909091 755.794246 
" clip-path="url(#p20ff2bbda1)" style="fill: none; stroke: #ffffff; stroke-linecap: round"/>
     </g>
     <g id="text_11">
      <!-- -0.12 -->
      <g style="fill: #262626" transform="translate(189.348047 766.242098) scale(0.275 -0.275)">
       <defs>
        <path id="DejaVuSans-2d" d="M 313 2009 
L 1997 2009 
L 1997 1497 
L 313 1497 
L 313 2009 
z
" transform="scale(0.015625)"/>
        <path id="DejaVuSans-2e" d="M 684 794 
L 1344 794 
L 1344 0 
L 684 0 
L 684 794 
z
" transform="scale(0.015625)"/>
       </defs>
       <use xlink:href="#DejaVuSans-2d"/>
       <use xlink:href="#DejaVuSans-30" x="36.083984"/>
       <use xlink:href="#DejaVuSans-2e" x="99.707031"/>
       <use xlink:href="#DejaVuSans-31" x="131.494141"/>
       <use xlink:href="#DejaVuSans-32" x="195.117188"/>
      </g>
     </g>
    </g>
    <g id="ytick_2">
     <g id="line2d_11">
      <path d="M 270 639.642911 
L 1030.909091 639.642911 
" clip-path="url(#p20ff2bbda1)" style="fill: none; stroke: #ffffff; stroke-linecap: round"/>
     </g>
     <g id="text_12">
      <!-- -0.10 -->
      <g style="fill: #262626" transform="translate(189.348047 650.090763) scale(0.275 -0.275)">
       <use xlink:href="#DejaVuSans-2d"/>
       <use xlink:href="#DejaVuSans-30" x="36.083984"/>
       <use xlink:href="#DejaVuSans-2e" x="99.707031"/>
       <use xlink:href="#DejaVuSans-31" x="131.494141"/>
       <use xlink:href="#DejaVuSans-30" x="195.117188"/>
      </g>
     </g>
    </g>
    <g id="ytick_3">
     <g id="line2d_12">
      <path d="M 270 523.491577 
L 1030.909091 523.491577 
" clip-path="url(#p20ff2bbda1)" style="fill: none; stroke: #ffffff; stroke-linecap: round"/>
     </g>
     <g id="text_13">
      <!-- -0.08 -->
      <g style="fill: #262626" transform="translate(189.348047 533.939428) scale(0.275 -0.275)">
       <defs>
        <path id="DejaVuSans-38" d="M 2034 2216 
Q 1584 2216 1326 1975 
Q 1069 1734 1069 1313 
Q 1069 891 1326 650 
Q 1584 409 2034 409 
Q 2484 409 2743 651 
Q 3003 894 3003 1313 
Q 3003 1734 2745 1975 
Q 2488 2216 2034 2216 
z
M 1403 2484 
Q 997 2584 770 2862 
Q 544 3141 544 3541 
Q 544 4100 942 4425 
Q 1341 4750 2034 4750 
Q 2731 4750 3128 4425 
Q 3525 4100 3525 3541 
Q 3525 3141 3298 2862 
Q 3072 2584 2669 2484 
Q 3125 2378 3379 2068 
Q 3634 1759 3634 1313 
Q 3634 634 3220 271 
Q 2806 -91 2034 -91 
Q 1263 -91 848 271 
Q 434 634 434 1313 
Q 434 1759 690 2068 
Q 947 2378 1403 2484 
z
M 1172 3481 
Q 1172 3119 1398 2916 
Q 1625 2713 2034 2713 
Q 2441 2713 2670 2916 
Q 2900 3119 2900 3481 
Q 2900 3844 2670 4047 
Q 2441 4250 2034 4250 
Q 1625 4250 1398 4047 
Q 1172 3844 1172 3481 
z
" transform="scale(0.015625)"/>
       </defs>
       <use xlink:href="#DejaVuSans-2d"/>
       <use xlink:href="#DejaVuSans-30" x="36.083984"/>
       <use xlink:href="#DejaVuSans-2e" x="99.707031"/>
       <use xlink:href="#DejaVuSans-30" x="131.494141"/>
       <use xlink:href="#DejaVuSans-38" x="195.117188"/>
      </g>
     </g>
    </g>
    <g id="ytick_4">
     <g id="line2d_13">
      <path d="M 270 407.340242 
L 1030.909091 407.340242 
" clip-path="url(#p20ff2bbda1)" style="fill: none; stroke: #ffffff; stroke-linecap: round"/>
     </g>
     <g id="text_14">
      <!-- -0.06 -->
      <g style="fill: #262626" transform="translate(189.348047 417.788094) scale(0.275 -0.275)">
       <defs>
        <path id="DejaVuSans-36" d="M 2113 2584 
Q 1688 2584 1439 2293 
Q 1191 2003 1191 1497 
Q 1191 994 1439 701 
Q 1688 409 2113 409 
Q 2538 409 2786 701 
Q 3034 994 3034 1497 
Q 3034 2003 2786 2293 
Q 2538 2584 2113 2584 
z
M 3366 4563 
L 3366 3988 
Q 3128 4100 2886 4159 
Q 2644 4219 2406 4219 
Q 1781 4219 1451 3797 
Q 1122 3375 1075 2522 
Q 1259 2794 1537 2939 
Q 1816 3084 2150 3084 
Q 2853 3084 3261 2657 
Q 3669 2231 3669 1497 
Q 3669 778 3244 343 
Q 2819 -91 2113 -91 
Q 1303 -91 875 529 
Q 447 1150 447 2328 
Q 447 3434 972 4092 
Q 1497 4750 2381 4750 
Q 2619 4750 2861 4703 
Q 3103 4656 3366 4563 
z
" transform="scale(0.015625)"/>
       </defs>
       <use xlink:href="#DejaVuSans-2d"/>
       <use xlink:href="#DejaVuSans-30" x="36.083984"/>
       <use xlink:href="#DejaVuSans-2e" x="99.707031"/>
       <use xlink:href="#DejaVuSans-30" x="131.494141"/>
       <use xlink:href="#DejaVuSans-36" x="195.117188"/>
      </g>
     </g>
    </g>
    <g id="ytick_5">
     <g id="line2d_14">
      <path d="M 270 291.188907 
L 1030.909091 291.188907 
" clip-path="url(#p20ff2bbda1)" style="fill: none; stroke: #ffffff; stroke-linecap: round"/>
     </g>
     <g id="text_15">
      <!-- -0.04 -->
      <g style="fill: #262626" transform="translate(189.348047 301.636759) scale(0.275 -0.275)">
       <use xlink:href="#DejaVuSans-2d"/>
       <use xlink:href="#DejaVuSans-30" x="36.083984"/>
       <use xlink:href="#DejaVuSans-2e" x="99.707031"/>
       <use xlink:href="#DejaVuSans-30" x="131.494141"/>
       <use xlink:href="#DejaVuSans-34" x="195.117188"/>
      </g>
     </g>
    </g>
    <g id="ytick_6">
     <g id="line2d_15">
      <path d="M 270 175.037572 
L 1030.909091 175.037572 
" clip-path="url(#p20ff2bbda1)" style="fill: none; stroke: #ffffff; stroke-linecap: round"/>
     </g>
     <g id="text_16">
      <!-- -0.02 -->
      <g style="fill: #262626" transform="translate(189.348047 185.485424) scale(0.275 -0.275)">
       <use xlink:href="#DejaVuSans-2d"/>
       <use xlink:href="#DejaVuSans-30" x="36.083984"/>
       <use xlink:href="#DejaVuSans-2e" x="99.707031"/>
       <use xlink:href="#DejaVuSans-30" x="131.494141"/>
       <use xlink:href="#DejaVuSans-32" x="195.117188"/>
      </g>
     </g>
    </g>
    <g id="text_17">
     <!-- Distance -->
     <g style="fill: #262626" transform="translate(179.108984 501.9075) rotate(-90) scale(0.3 -0.3)">
      <defs>
       <path id="DejaVuSans-44" d="M 1259 4147 
L 1259 519 
L 2022 519 
Q 2988 519 3436 956 
Q 3884 1394 3884 2338 
Q 3884 3275 3436 3711 
Q 2988 4147 2022 4147 
L 1259 4147 
z
M 628 4666 
L 1925 4666 
Q 3281 4666 3915 4102 
Q 4550 3538 4550 2338 
Q 4550 1131 3912 565 
Q 3275 0 1925 0 
L 628 0 
L 628 4666 
z
" transform="scale(0.015625)"/>
       <path id="DejaVuSans-69" d="M 603 3500 
L 1178 3500 
L 1178 0 
L 603 0 
L 603 3500 
z
M 603 4863 
L 1178 4863 
L 1178 4134 
L 603 4134 
L 603 4863 
z
" transform="scale(0.015625)"/>
       <path id="DejaVuSans-73" d="M 2834 3397 
L 2834 2853 
Q 2591 2978 2328 3040 
Q 2066 3103 1784 3103 
Q 1356 3103 1142 2972 
Q 928 2841 928 2578 
Q 928 2378 1081 2264 
Q 1234 2150 1697 2047 
L 1894 2003 
Q 2506 1872 2764 1633 
Q 3022 1394 3022 966 
Q 3022 478 2636 193 
Q 2250 -91 1575 -91 
Q 1294 -91 989 -36 
Q 684 19 347 128 
L 347 722 
Q 666 556 975 473 
Q 1284 391 1588 391 
Q 1994 391 2212 530 
Q 2431 669 2431 922 
Q 2431 1156 2273 1281 
Q 2116 1406 1581 1522 
L 1381 1569 
Q 847 1681 609 1914 
Q 372 2147 372 2553 
Q 372 3047 722 3315 
Q 1072 3584 1716 3584 
Q 2034 3584 2315 3537 
Q 2597 3491 2834 3397 
z
" transform="scale(0.015625)"/>
       <path id="DejaVuSans-74" d="M 1172 4494 
L 1172 3500 
L 2356 3500 
L 2356 3053 
L 1172 3053 
L 1172 1153 
Q 1172 725 1289 603 
Q 1406 481 1766 481 
L 2356 481 
L 2356 0 
L 1766 0 
Q 1100 0 847 248 
Q 594 497 594 1153 
L 594 3053 
L 172 3053 
L 172 3500 
L 594 3500 
L 594 4494 
L 1172 4494 
z
" transform="scale(0.015625)"/>
       <path id="DejaVuSans-61" d="M 2194 1759 
Q 1497 1759 1228 1600 
Q 959 1441 959 1056 
Q 959 750 1161 570 
Q 1363 391 1709 391 
Q 2188 391 2477 730 
Q 2766 1069 2766 1631 
L 2766 1759 
L 2194 1759 
z
M 3341 1997 
L 3341 0 
L 2766 0 
L 2766 531 
Q 2569 213 2275 61 
Q 1981 -91 1556 -91 
Q 1019 -91 701 211 
Q 384 513 384 1019 
Q 384 1609 779 1909 
Q 1175 2209 1959 2209 
L 2766 2209 
L 2766 2266 
Q 2766 2663 2505 2880 
Q 2244 3097 1772 3097 
Q 1472 3097 1187 3025 
Q 903 2953 641 2809 
L 641 3341 
Q 956 3463 1253 3523 
Q 1550 3584 1831 3584 
Q 2591 3584 2966 3190 
Q 3341 2797 3341 1997 
z
" transform="scale(0.015625)"/>
       <path id="DejaVuSans-6e" d="M 3513 2113 
L 3513 0 
L 2938 0 
L 2938 2094 
Q 2938 2591 2744 2837 
Q 2550 3084 2163 3084 
Q 1697 3084 1428 2787 
Q 1159 2491 1159 1978 
L 1159 0 
L 581 0 
L 581 3500 
L 1159 3500 
L 1159 2956 
Q 1366 3272 1645 3428 
Q 1925 3584 2291 3584 
Q 2894 3584 3203 3211 
Q 3513 2838 3513 2113 
z
" transform="scale(0.015625)"/>
       <path id="DejaVuSans-65" d="M 3597 1894 
L 3597 1613 
L 953 1613 
Q 991 1019 1311 708 
Q 1631 397 2203 397 
Q 2534 397 2845 478 
Q 3156 559 3463 722 
L 3463 178 
Q 3153 47 2828 -22 
Q 2503 -91 2169 -91 
Q 1331 -91 842 396 
Q 353 884 353 1716 
Q 353 2575 817 3079 
Q 1281 3584 2069 3584 
Q 2775 3584 3186 3129 
Q 3597 2675 3597 1894 
z
M 3022 2063 
Q 3016 2534 2758 2815 
Q 2500 3097 2075 3097 
Q 1594 3097 1305 2825 
Q 1016 2553 972 2059 
L 3022 2063 
z
" transform="scale(0.015625)"/>
      </defs>
      <use xlink:href="#DejaVuSans-44"/>
      <use xlink:href="#DejaVuSans-69" x="77.001953"/>
      <use xlink:href="#DejaVuSans-73" x="104.785156"/>
      <use xlink:href="#DejaVuSans-74" x="156.884766"/>
      <use xlink:href="#DejaVuSans-61" x="196.09375"/>
      <use xlink:href="#DejaVuSans-6e" x="257.373047"/>
      <use xlink:href="#DejaVuSans-63" x="320.751953"/>
      <use xlink:href="#DejaVuSans-65" x="375.732422"/>
     </g>
    </g>
   </g>
   <g id="PolyCollection_1"/>
   <g id="PolyCollection_2"/>
   <g id="PolyCollection_3"/>
   <g id="line2d_16">
    <path d="M 304.586777 738.72 
L 322.323586 391.892114 
L 340.060394 133.92 
L 357.797203 158.660234 
L 375.534011 187.465765 
L 393.27082 335.442566 
L 411.007629 284.568281 
L 428.744437 373.424052 
L 446.481246 190.4857 
L 464.218055 359.602043 
L 481.954863 283.058314 
L 499.691672 289.214335 
L 517.428481 269.004002 
L 535.165289 264.241798 
L 552.902098 261.80262 
L 570.638907 287.472065 
L 588.375715 264.125646 
L 606.112524 236.249326 
L 623.849332 253.439723 
L 641.586141 297.693382 
L 659.32295 214.529026 
L 677.059758 273.650056 
L 694.796567 189.208035 
L 712.533376 280.386833 
L 730.270184 251.116697 
L 748.006993 230.441759 
L 765.743802 266.680976 
L 783.48061 253.439723 
L 801.217419 286.891308 
L 818.954228 223.124225 
L 836.691036 231.603273 
L 854.427845 268.074792 
L 872.164654 262.73183 
L 889.901462 239.966169 
L 907.638271 287.472065 
L 925.375079 265.28716 
L 943.111888 239.269261 
L 960.848697 263.54489 
L 978.585505 274.579266 
L 996.322314 250.884394 
" clip-path="url(#p20ff2bbda1)" style="fill: none; stroke-dasharray: 5.55,2.4; stroke-dashoffset: 0; stroke: #4c72b0; stroke-width: 1.5"/>
   </g>
   <g id="line2d_17">
    <path d="M 304.586777 582.96106 
L 322.323586 251.465151 
L 340.060394 259.24729 
L 357.797203 191.531062 
L 375.534011 192.692575 
L 393.27082 265.403311 
L 411.007629 263.893344 
L 428.744437 236.481629 
L 446.481246 156.221056 
L 464.218055 275.160023 
L 481.954863 211.973697 
L 499.691672 261.570317 
L 517.428481 161.79632 
L 535.165289 259.24729 
L 552.902098 331.841874 
L 570.638907 297.925685 
L 588.375715 222.65962 
L 606.112524 258.898836 
L 623.849332 272.140088 
L 641.586141 261.221863 
L 659.32295 213.251362 
L 677.059758 234.042451 
L 694.796567 263.080284 
L 712.533376 218.013566 
L 730.270184 261.105712 
L 748.006993 255.76275 
L 765.743802 245.773735 
L 783.48061 223.58883 
L 801.217419 258.782685 
L 818.954228 228.81564 
L 836.691036 239.385412 
L 854.427845 250.652091 
L 872.164654 256.227355 
L 889.901462 254.601237 
L 907.638271 238.688504 
L 925.375079 232.648635 
L 943.111888 251.581302 
L 960.848697 241.127682 
L 978.585505 234.739359 
L 996.322314 225.563403 
" clip-path="url(#p20ff2bbda1)" style="fill: none; stroke-dasharray: 1.5,2.475; stroke-dashoffset: 0; stroke: #dd8452; stroke-width: 1.5"/>
   </g>
   <g id="line2d_18">
    <path d="M 304.586777 631.860772 
L 322.323586 182.703561 
L 340.060394 295.951112 
L 357.797203 196.874023 
L 375.534011 163.887044 
L 393.27082 232.300181 
L 411.007629 314.767628 
L 428.744437 208.489157 
L 446.481246 162.493228 
L 464.218055 199.429353 
L 481.954863 250.652091 
L 499.691672 270.51397 
L 517.428481 294.208842 
L 535.165289 272.953148 
L 552.902098 251.116697 
L 570.638907 274.346964 
L 588.375715 273.18545 
L 606.112524 309.308515 
L 623.849332 297.809533 
L 641.586141 253.788177 
L 659.32295 288.052821 
L 677.059758 252.742815 
L 694.796567 275.856931 
L 712.533376 277.366898 
L 730.270184 288.168973 
L 748.006993 279.22532 
L 765.743802 269.120154 
L 783.48061 241.243833 
L 801.217419 298.971047 
L 818.954228 270.397818 
L 836.691036 275.973082 
L 854.427845 282.70986 
L 872.164654 246.586795 
L 889.901462 291.42121 
L 907.638271 280.270682 
L 925.375079 271.44318 
L 943.111888 272.720845 
L 960.848697 276.089234 
L 978.585505 272.372391 
L 996.322314 258.434231 
" clip-path="url(#p20ff2bbda1)" style="fill: none; stroke: #55a868; stroke-width: 1.5; stroke-linecap: round"/>
   </g>
   <g id="patch_3">
    <path d="M 270 768.96 
L 270 103.68 
" style="fill: none; stroke: #ffffff; stroke-width: 1.25; stroke-linejoin: miter; stroke-linecap: square"/>
   </g>
   <g id="patch_4">
    <path d="M 1030.909091 768.96 
L 1030.909091 103.68 
" style="fill: none; stroke: #ffffff; stroke-width: 1.25; stroke-linejoin: miter; stroke-linecap: square"/>
   </g>
   <g id="patch_5">
    <path d="M 270 768.96 
L 1030.909091 768.96 
" style="fill: none; stroke: #ffffff; stroke-width: 1.25; stroke-linejoin: miter; stroke-linecap: square"/>
   </g>
   <g id="patch_6">
    <path d="M 270 103.68 
L 1030.909091 103.68 
" style="fill: none; stroke: #ffffff; stroke-width: 1.25; stroke-linejoin: miter; stroke-linecap: square"/>
   </g>
   <g id="text_18">
    <!-- Distance in SGD optimizer -->
    <g style="fill: #262626" transform="translate(453.40142 97.68) scale(0.3 -0.3)">
     <defs>
      <path id="DejaVuSans-20" transform="scale(0.015625)"/>
      <path id="DejaVuSans-53" d="M 3425 4513 
L 3425 3897 
Q 3066 4069 2747 4153 
Q 2428 4238 2131 4238 
Q 1616 4238 1336 4038 
Q 1056 3838 1056 3469 
Q 1056 3159 1242 3001 
Q 1428 2844 1947 2747 
L 2328 2669 
Q 3034 2534 3370 2195 
Q 3706 1856 3706 1288 
Q 3706 609 3251 259 
Q 2797 -91 1919 -91 
Q 1588 -91 1214 -16 
Q 841 59 441 206 
L 441 856 
Q 825 641 1194 531 
Q 1563 422 1919 422 
Q 2459 422 2753 634 
Q 3047 847 3047 1241 
Q 3047 1584 2836 1778 
Q 2625 1972 2144 2069 
L 1759 2144 
Q 1053 2284 737 2584 
Q 422 2884 422 3419 
Q 422 4038 858 4394 
Q 1294 4750 2059 4750 
Q 2388 4750 2728 4690 
Q 3069 4631 3425 4513 
z
" transform="scale(0.015625)"/>
      <path id="DejaVuSans-47" d="M 3809 666 
L 3809 1919 
L 2778 1919 
L 2778 2438 
L 4434 2438 
L 4434 434 
Q 4069 175 3628 42 
Q 3188 -91 2688 -91 
Q 1594 -91 976 548 
Q 359 1188 359 2328 
Q 359 3472 976 4111 
Q 1594 4750 2688 4750 
Q 3144 4750 3555 4637 
Q 3966 4525 4313 4306 
L 4313 3634 
Q 3963 3931 3569 4081 
Q 3175 4231 2741 4231 
Q 1884 4231 1454 3753 
Q 1025 3275 1025 2328 
Q 1025 1384 1454 906 
Q 1884 428 2741 428 
Q 3075 428 3337 486 
Q 3600 544 3809 666 
z
" transform="scale(0.015625)"/>
      <path id="DejaVuSans-6d" d="M 3328 2828 
Q 3544 3216 3844 3400 
Q 4144 3584 4550 3584 
Q 5097 3584 5394 3201 
Q 5691 2819 5691 2113 
L 5691 0 
L 5113 0 
L 5113 2094 
Q 5113 2597 4934 2840 
Q 4756 3084 4391 3084 
Q 3944 3084 3684 2787 
Q 3425 2491 3425 1978 
L 3425 0 
L 2847 0 
L 2847 2094 
Q 2847 2600 2669 2842 
Q 2491 3084 2119 3084 
Q 1678 3084 1418 2786 
Q 1159 2488 1159 1978 
L 1159 0 
L 581 0 
L 581 3500 
L 1159 3500 
L 1159 2956 
Q 1356 3278 1631 3431 
Q 1906 3584 2284 3584 
Q 2666 3584 2933 3390 
Q 3200 3197 3328 2828 
z
" transform="scale(0.015625)"/>
      <path id="DejaVuSans-7a" d="M 353 3500 
L 3084 3500 
L 3084 2975 
L 922 459 
L 3084 459 
L 3084 0 
L 275 0 
L 275 525 
L 2438 3041 
L 353 3041 
L 353 3500 
z
" transform="scale(0.015625)"/>
      <path id="DejaVuSans-72" d="M 2631 2963 
Q 2534 3019 2420 3045 
Q 2306 3072 2169 3072 
Q 1681 3072 1420 2755 
Q 1159 2438 1159 1844 
L 1159 0 
L 581 0 
L 581 3500 
L 1159 3500 
L 1159 2956 
Q 1341 3275 1631 3429 
Q 1922 3584 2338 3584 
Q 2397 3584 2469 3576 
Q 2541 3569 2628 3553 
L 2631 2963 
z
" transform="scale(0.015625)"/>
     </defs>
     <use xlink:href="#DejaVuSans-44"/>
     <use xlink:href="#DejaVuSans-69" x="77.001953"/>
     <use xlink:href="#DejaVuSans-73" x="104.785156"/>
     <use xlink:href="#DejaVuSans-74" x="156.884766"/>
     <use xlink:href="#DejaVuSans-61" x="196.09375"/>
     <use xlink:href="#DejaVuSans-6e" x="257.373047"/>
     <use xlink:href="#DejaVuSans-63" x="320.751953"/>
     <use xlink:href="#DejaVuSans-65" x="375.732422"/>
     <use xlink:href="#DejaVuSans-20" x="437.255859"/>
     <use xlink:href="#DejaVuSans-69" x="469.042969"/>
     <use xlink:href="#DejaVuSans-6e" x="496.826172"/>
     <use xlink:href="#DejaVuSans-20" x="560.205078"/>
     <use xlink:href="#DejaVuSans-53" x="591.992188"/>
     <use xlink:href="#DejaVuSans-47" x="655.46875"/>
     <use xlink:href="#DejaVuSans-44" x="732.958984"/>
     <use xlink:href="#DejaVuSans-20" x="809.960938"/>
     <use xlink:href="#DejaVuSans-6f" x="841.748047"/>
     <use xlink:href="#DejaVuSans-70" x="902.929688"/>
     <use xlink:href="#DejaVuSans-74" x="966.40625"/>
     <use xlink:href="#DejaVuSans-69" x="1005.615234"/>
     <use xlink:href="#DejaVuSans-6d" x="1033.398438"/>
     <use xlink:href="#DejaVuSans-69" x="1130.810547"/>
     <use xlink:href="#DejaVuSans-7a" x="1158.59375"/>
     <use xlink:href="#DejaVuSans-65" x="1211.083984"/>
     <use xlink:href="#DejaVuSans-72" x="1272.607422"/>
    </g>
   </g>
   <g id="legend_1">
    <g id="patch_7">
     <path d="M 564.405966 755.21 
L 1011.659091 755.21 
Q 1017.159091 755.21 1017.159091 749.71 
L 1017.159091 629.070938 
Q 1017.159091 623.570938 1011.659091 623.570938 
L 564.405966 623.570938 
Q 558.905966 623.570938 558.905966 629.070938 
L 558.905966 749.71 
Q 558.905966 755.21 564.405966 755.21 
z
" style="fill: #eaeaf2; opacity: 0.8; stroke: #cccccc; stroke-linejoin: miter"/>
    </g>
    <g id="line2d_19">
     <path d="M 569.905966 645.841641 
L 597.405966 645.841641 
L 624.905966 645.841641 
" style="fill: none; stroke-dasharray: 5.55,2.4; stroke-dashoffset: 0; stroke: #4c72b0; stroke-width: 1.5"/>
    </g>
    <g id="text_19">
     <!-- CE_SGD -->
     <g style="fill: #262626" transform="translate(646.905966 655.466641) scale(0.275 -0.275)">
      <defs>
       <path id="DejaVuSans-43" d="M 4122 4306 
L 4122 3641 
Q 3803 3938 3442 4084 
Q 3081 4231 2675 4231 
Q 1875 4231 1450 3742 
Q 1025 3253 1025 2328 
Q 1025 1406 1450 917 
Q 1875 428 2675 428 
Q 3081 428 3442 575 
Q 3803 722 4122 1019 
L 4122 359 
Q 3791 134 3420 21 
Q 3050 -91 2638 -91 
Q 1578 -91 968 557 
Q 359 1206 359 2328 
Q 359 3453 968 4101 
Q 1578 4750 2638 4750 
Q 3056 4750 3426 4639 
Q 3797 4528 4122 4306 
z
" transform="scale(0.015625)"/>
       <path id="DejaVuSans-5f" d="M 3263 -1063 
L 3263 -1509 
L -63 -1509 
L -63 -1063 
L 3263 -1063 
z
" transform="scale(0.015625)"/>
      </defs>
      <use xlink:href="#DejaVuSans-43"/>
      <use xlink:href="#DejaVuSans-45" x="69.824219"/>
      <use xlink:href="#DejaVuSans-5f" x="133.007812"/>
      <use xlink:href="#DejaVuSans-53" x="183.007812"/>
      <use xlink:href="#DejaVuSans-47" x="246.484375"/>
      <use xlink:href="#DejaVuSans-44" x="323.974609"/>
     </g>
    </g>
    <g id="line2d_20">
     <path d="M 569.905966 686.971328 
L 597.405966 686.971328 
L 624.905966 686.971328 
" style="fill: none; stroke-dasharray: 1.5,2.475; stroke-dashoffset: 0; stroke: #dd8452; stroke-width: 1.5"/>
    </g>
    <g id="text_20">
     <!-- Focal(Gamma = 0.5)_SGD -->
     <g style="fill: #262626" transform="translate(646.905966 696.596328) scale(0.275 -0.275)">
      <defs>
       <path id="DejaVuSans-46" d="M 628 4666 
L 3309 4666 
L 3309 4134 
L 1259 4134 
L 1259 2759 
L 3109 2759 
L 3109 2228 
L 1259 2228 
L 1259 0 
L 628 0 
L 628 4666 
z
" transform="scale(0.015625)"/>
       <path id="DejaVuSans-6c" d="M 603 4863 
L 1178 4863 
L 1178 0 
L 603 0 
L 603 4863 
z
" transform="scale(0.015625)"/>
       <path id="DejaVuSans-28" d="M 1984 4856 
Q 1566 4138 1362 3434 
Q 1159 2731 1159 2009 
Q 1159 1288 1364 580 
Q 1569 -128 1984 -844 
L 1484 -844 
Q 1016 -109 783 600 
Q 550 1309 550 2009 
Q 550 2706 781 3412 
Q 1013 4119 1484 4856 
L 1984 4856 
z
" transform="scale(0.015625)"/>
       <path id="DejaVuSans-3d" d="M 678 2906 
L 4684 2906 
L 4684 2381 
L 678 2381 
L 678 2906 
z
M 678 1631 
L 4684 1631 
L 4684 1100 
L 678 1100 
L 678 1631 
z
" transform="scale(0.015625)"/>
       <path id="DejaVuSans-29" d="M 513 4856 
L 1013 4856 
Q 1481 4119 1714 3412 
Q 1947 2706 1947 2009 
Q 1947 1309 1714 600 
Q 1481 -109 1013 -844 
L 513 -844 
Q 928 -128 1133 580 
Q 1338 1288 1338 2009 
Q 1338 2731 1133 3434 
Q 928 4138 513 4856 
z
" transform="scale(0.015625)"/>
      </defs>
      <use xlink:href="#DejaVuSans-46"/>
      <use xlink:href="#DejaVuSans-6f" x="53.894531"/>
      <use xlink:href="#DejaVuSans-63" x="115.076172"/>
      <use xlink:href="#DejaVuSans-61" x="170.056641"/>
      <use xlink:href="#DejaVuSans-6c" x="231.335938"/>
      <use xlink:href="#DejaVuSans-28" x="259.119141"/>
      <use xlink:href="#DejaVuSans-47" x="298.132812"/>
      <use xlink:href="#DejaVuSans-61" x="375.623047"/>
      <use xlink:href="#DejaVuSans-6d" x="436.902344"/>
      <use xlink:href="#DejaVuSans-6d" x="534.314453"/>
      <use xlink:href="#DejaVuSans-61" x="631.726562"/>
      <use xlink:href="#DejaVuSans-20" x="693.005859"/>
      <use xlink:href="#DejaVuSans-3d" x="724.792969"/>
      <use xlink:href="#DejaVuSans-20" x="808.582031"/>
      <use xlink:href="#DejaVuSans-30" x="840.369141"/>
      <use xlink:href="#DejaVuSans-2e" x="903.992188"/>
      <use xlink:href="#DejaVuSans-35" x="935.779297"/>
      <use xlink:href="#DejaVuSans-29" x="999.402344"/>
      <use xlink:href="#DejaVuSans-5f" x="1038.416016"/>
      <use xlink:href="#DejaVuSans-53" x="1088.416016"/>
      <use xlink:href="#DejaVuSans-47" x="1151.892578"/>
      <use xlink:href="#DejaVuSans-44" x="1229.382812"/>
     </g>
    </g>
    <g id="line2d_21">
     <path d="M 569.905966 728.101016 
L 597.405966 728.101016 
L 624.905966 728.101016 
" style="fill: none; stroke: #55a868; stroke-width: 1.5; stroke-linecap: round"/>
    </g>
    <g id="text_21">
     <!-- Focal(Gamma = 2)_SGD -->
     <g style="fill: #262626" transform="translate(646.905966 737.726016) scale(0.275 -0.275)">
      <use xlink:href="#DejaVuSans-46"/>
      <use xlink:href="#DejaVuSans-6f" x="53.894531"/>
      <use xlink:href="#DejaVuSans-63" x="115.076172"/>
      <use xlink:href="#DejaVuSans-61" x="170.056641"/>
      <use xlink:href="#DejaVuSans-6c" x="231.335938"/>
      <use xlink:href="#DejaVuSans-28" x="259.119141"/>
      <use xlink:href="#DejaVuSans-47" x="298.132812"/>
      <use xlink:href="#DejaVuSans-61" x="375.623047"/>
      <use xlink:href="#DejaVuSans-6d" x="436.902344"/>
      <use xlink:href="#DejaVuSans-6d" x="534.314453"/>
      <use xlink:href="#DejaVuSans-61" x="631.726562"/>
      <use xlink:href="#DejaVuSans-20" x="693.005859"/>
      <use xlink:href="#DejaVuSans-3d" x="724.792969"/>
      <use xlink:href="#DejaVuSans-20" x="808.582031"/>
      <use xlink:href="#DejaVuSans-32" x="840.369141"/>
      <use xlink:href="#DejaVuSans-29" x="903.992188"/>
      <use xlink:href="#DejaVuSans-5f" x="943.005859"/>
      <use xlink:href="#DejaVuSans-53" x="993.005859"/>
      <use xlink:href="#DejaVuSans-47" x="1056.482422"/>
      <use xlink:href="#DejaVuSans-44" x="1133.972656"/>
     </g>
    </g>
   </g>
  </g>
  <g id="axes_2">
   <g id="patch_8">
    <path d="M 1183.090909 768.96 
L 1944 768.96 
L 1944 103.68 
L 1183.090909 103.68 
z
" style="fill: #eaeaf2"/>
   </g>
   <g id="matplotlib.axis_3">
    <g id="xtick_10">
     <g id="line2d_22">
      <path d="M 1217.677686 768.96 
L 1217.677686 103.68 
" clip-path="url(#p4811b160fd)" style="fill: none; stroke: #ffffff; stroke-linecap: round"/>
     </g>
     <g id="text_22">
      <!-- 0 -->
      <g style="fill: #262626" transform="translate(1208.929248 799.355703) scale(0.275 -0.275)">
       <use xlink:href="#DejaVuSans-30"/>
      </g>
     </g>
    </g>
    <g id="xtick_11">
     <g id="line2d_23">
      <path d="M 1306.361729 768.96 
L 1306.361729 103.68 
" clip-path="url(#p4811b160fd)" style="fill: none; stroke: #ffffff; stroke-linecap: round"/>
     </g>
     <g id="text_23">
      <!-- 5 -->
      <g style="fill: #262626" transform="translate(1297.613292 799.355703) scale(0.275 -0.275)">
       <use xlink:href="#DejaVuSans-35"/>
      </g>
     </g>
    </g>
    <g id="xtick_12">
     <g id="line2d_24">
      <path d="M 1395.045772 768.96 
L 1395.045772 103.68 
" clip-path="url(#p4811b160fd)" style="fill: none; stroke: #ffffff; stroke-linecap: round"/>
     </g>
     <g id="text_24">
      <!-- 10 -->
      <g style="fill: #262626" transform="translate(1377.548897 799.355703) scale(0.275 -0.275)">
       <use xlink:href="#DejaVuSans-31"/>
       <use xlink:href="#DejaVuSans-30" x="63.623047"/>
      </g>
     </g>
    </g>
    <g id="xtick_13">
     <g id="line2d_25">
      <path d="M 1483.729816 768.96 
L 1483.729816 103.68 
" clip-path="url(#p4811b160fd)" style="fill: none; stroke: #ffffff; stroke-linecap: round"/>
     </g>
     <g id="text_25">
      <!-- 15 -->
      <g style="fill: #262626" transform="translate(1466.232941 799.355703) scale(0.275 -0.275)">
       <use xlink:href="#DejaVuSans-31"/>
       <use xlink:href="#DejaVuSans-35" x="63.623047"/>
      </g>
     </g>
    </g>
    <g id="xtick_14">
     <g id="line2d_26">
      <path d="M 1572.413859 768.96 
L 1572.413859 103.68 
" clip-path="url(#p4811b160fd)" style="fill: none; stroke: #ffffff; stroke-linecap: round"/>
     </g>
     <g id="text_26">
      <!-- 20 -->
      <g style="fill: #262626" transform="translate(1554.916984 799.355703) scale(0.275 -0.275)">
       <use xlink:href="#DejaVuSans-32"/>
       <use xlink:href="#DejaVuSans-30" x="63.623047"/>
      </g>
     </g>
    </g>
    <g id="xtick_15">
     <g id="line2d_27">
      <path d="M 1661.097902 768.96 
L 1661.097902 103.68 
" clip-path="url(#p4811b160fd)" style="fill: none; stroke: #ffffff; stroke-linecap: round"/>
     </g>
     <g id="text_27">
      <!-- 25 -->
      <g style="fill: #262626" transform="translate(1643.601027 799.355703) scale(0.275 -0.275)">
       <use xlink:href="#DejaVuSans-32"/>
       <use xlink:href="#DejaVuSans-35" x="63.623047"/>
      </g>
     </g>
    </g>
    <g id="xtick_16">
     <g id="line2d_28">
      <path d="M 1749.781945 768.96 
L 1749.781945 103.68 
" clip-path="url(#p4811b160fd)" style="fill: none; stroke: #ffffff; stroke-linecap: round"/>
     </g>
     <g id="text_28">
      <!-- 30 -->
      <g style="fill: #262626" transform="translate(1732.28507 799.355703) scale(0.275 -0.275)">
       <use xlink:href="#DejaVuSans-33"/>
       <use xlink:href="#DejaVuSans-30" x="63.623047"/>
      </g>
     </g>
    </g>
    <g id="xtick_17">
     <g id="line2d_29">
      <path d="M 1838.465989 768.96 
L 1838.465989 103.68 
" clip-path="url(#p4811b160fd)" style="fill: none; stroke: #ffffff; stroke-linecap: round"/>
     </g>
     <g id="text_29">
      <!-- 35 -->
      <g style="fill: #262626" transform="translate(1820.969114 799.355703) scale(0.275 -0.275)">
       <use xlink:href="#DejaVuSans-33"/>
       <use xlink:href="#DejaVuSans-35" x="63.623047"/>
      </g>
     </g>
    </g>
    <g id="xtick_18">
     <g id="line2d_30">
      <path d="M 1927.150032 768.96 
L 1927.150032 103.68 
" clip-path="url(#p4811b160fd)" style="fill: none; stroke: #ffffff; stroke-linecap: round"/>
     </g>
     <g id="text_30">
      <!-- 40 -->
      <g style="fill: #262626" transform="translate(1909.653157 799.355703) scale(0.275 -0.275)">
       <use xlink:href="#DejaVuSans-34"/>
       <use xlink:href="#DejaVuSans-30" x="63.623047"/>
      </g>
     </g>
    </g>
    <g id="text_31">
     <!-- Epoch -->
     <g style="fill: #262626" transform="translate(1517.612642 831.870156) scale(0.3 -0.3)">
      <use xlink:href="#DejaVuSans-45"/>
      <use xlink:href="#DejaVuSans-70" x="63.183594"/>
      <use xlink:href="#DejaVuSans-6f" x="126.660156"/>
      <use xlink:href="#DejaVuSans-63" x="187.841797"/>
      <use xlink:href="#DejaVuSans-68" x="242.822266"/>
     </g>
    </g>
   </g>
   <g id="matplotlib.axis_4">
    <g id="ytick_7">
     <g id="line2d_31">
      <path d="M 1183.090909 744.835117 
L 1944 744.835117 
" clip-path="url(#p4811b160fd)" style="fill: none; stroke: #ffffff; stroke-linecap: round"/>
     </g>
     <g id="text_32">
      <!-- -0.11 -->
      <g style="fill: #262626" transform="translate(1102.438956 755.282969) scale(0.275 -0.275)">
       <use xlink:href="#DejaVuSans-2d"/>
       <use xlink:href="#DejaVuSans-30" x="36.083984"/>
       <use xlink:href="#DejaVuSans-2e" x="99.707031"/>
       <use xlink:href="#DejaVuSans-31" x="131.494141"/>
       <use xlink:href="#DejaVuSans-31" x="195.117188"/>
      </g>
     </g>
    </g>
    <g id="ytick_8">
     <g id="line2d_32">
      <path d="M 1183.090909 670.260518 
L 1944 670.260518 
" clip-path="url(#p4811b160fd)" style="fill: none; stroke: #ffffff; stroke-linecap: round"/>
     </g>
     <g id="text_33">
      <!-- -0.10 -->
      <g style="fill: #262626" transform="translate(1102.438956 680.708369) scale(0.275 -0.275)">
       <use xlink:href="#DejaVuSans-2d"/>
       <use xlink:href="#DejaVuSans-30" x="36.083984"/>
       <use xlink:href="#DejaVuSans-2e" x="99.707031"/>
       <use xlink:href="#DejaVuSans-31" x="131.494141"/>
       <use xlink:href="#DejaVuSans-30" x="195.117188"/>
      </g>
     </g>
    </g>
    <g id="ytick_9">
     <g id="line2d_33">
      <path d="M 1183.090909 595.685919 
L 1944 595.685919 
" clip-path="url(#p4811b160fd)" style="fill: none; stroke: #ffffff; stroke-linecap: round"/>
     </g>
     <g id="text_34">
      <!-- -0.09 -->
      <g style="fill: #262626" transform="translate(1102.438956 606.13377) scale(0.275 -0.275)">
       <defs>
        <path id="DejaVuSans-39" d="M 703 97 
L 703 672 
Q 941 559 1184 500 
Q 1428 441 1663 441 
Q 2288 441 2617 861 
Q 2947 1281 2994 2138 
Q 2813 1869 2534 1725 
Q 2256 1581 1919 1581 
Q 1219 1581 811 2004 
Q 403 2428 403 3163 
Q 403 3881 828 4315 
Q 1253 4750 1959 4750 
Q 2769 4750 3195 4129 
Q 3622 3509 3622 2328 
Q 3622 1225 3098 567 
Q 2575 -91 1691 -91 
Q 1453 -91 1209 -44 
Q 966 3 703 97 
z
M 1959 2075 
Q 2384 2075 2632 2365 
Q 2881 2656 2881 3163 
Q 2881 3666 2632 3958 
Q 2384 4250 1959 4250 
Q 1534 4250 1286 3958 
Q 1038 3666 1038 3163 
Q 1038 2656 1286 2365 
Q 1534 2075 1959 2075 
z
" transform="scale(0.015625)"/>
       </defs>
       <use xlink:href="#DejaVuSans-2d"/>
       <use xlink:href="#DejaVuSans-30" x="36.083984"/>
       <use xlink:href="#DejaVuSans-2e" x="99.707031"/>
       <use xlink:href="#DejaVuSans-30" x="131.494141"/>
       <use xlink:href="#DejaVuSans-39" x="195.117188"/>
      </g>
     </g>
    </g>
    <g id="ytick_10">
     <g id="line2d_34">
      <path d="M 1183.090909 521.111319 
L 1944 521.111319 
" clip-path="url(#p4811b160fd)" style="fill: none; stroke: #ffffff; stroke-linecap: round"/>
     </g>
     <g id="text_35">
      <!-- -0.08 -->
      <g style="fill: #262626" transform="translate(1102.438956 531.559171) scale(0.275 -0.275)">
       <use xlink:href="#DejaVuSans-2d"/>
       <use xlink:href="#DejaVuSans-30" x="36.083984"/>
       <use xlink:href="#DejaVuSans-2e" x="99.707031"/>
       <use xlink:href="#DejaVuSans-30" x="131.494141"/>
       <use xlink:href="#DejaVuSans-38" x="195.117188"/>
      </g>
     </g>
    </g>
    <g id="ytick_11">
     <g id="line2d_35">
      <path d="M 1183.090909 446.53672 
L 1944 446.53672 
" clip-path="url(#p4811b160fd)" style="fill: none; stroke: #ffffff; stroke-linecap: round"/>
     </g>
     <g id="text_36">
      <!-- -0.07 -->
      <g style="fill: #262626" transform="translate(1102.438956 456.984572) scale(0.275 -0.275)">
       <defs>
        <path id="DejaVuSans-37" d="M 525 4666 
L 3525 4666 
L 3525 4397 
L 1831 0 
L 1172 0 
L 2766 4134 
L 525 4134 
L 525 4666 
z
" transform="scale(0.015625)"/>
       </defs>
       <use xlink:href="#DejaVuSans-2d"/>
       <use xlink:href="#DejaVuSans-30" x="36.083984"/>
       <use xlink:href="#DejaVuSans-2e" x="99.707031"/>
       <use xlink:href="#DejaVuSans-30" x="131.494141"/>
       <use xlink:href="#DejaVuSans-37" x="195.117188"/>
      </g>
     </g>
    </g>
    <g id="ytick_12">
     <g id="line2d_36">
      <path d="M 1183.090909 371.962121 
L 1944 371.962121 
" clip-path="url(#p4811b160fd)" style="fill: none; stroke: #ffffff; stroke-linecap: round"/>
     </g>
     <g id="text_37">
      <!-- -0.06 -->
      <g style="fill: #262626" transform="translate(1102.438956 382.409972) scale(0.275 -0.275)">
       <use xlink:href="#DejaVuSans-2d"/>
       <use xlink:href="#DejaVuSans-30" x="36.083984"/>
       <use xlink:href="#DejaVuSans-2e" x="99.707031"/>
       <use xlink:href="#DejaVuSans-30" x="131.494141"/>
       <use xlink:href="#DejaVuSans-36" x="195.117188"/>
      </g>
     </g>
    </g>
    <g id="ytick_13">
     <g id="line2d_37">
      <path d="M 1183.090909 297.387522 
L 1944 297.387522 
" clip-path="url(#p4811b160fd)" style="fill: none; stroke: #ffffff; stroke-linecap: round"/>
     </g>
     <g id="text_38">
      <!-- -0.05 -->
      <g style="fill: #262626" transform="translate(1102.438956 307.835373) scale(0.275 -0.275)">
       <use xlink:href="#DejaVuSans-2d"/>
       <use xlink:href="#DejaVuSans-30" x="36.083984"/>
       <use xlink:href="#DejaVuSans-2e" x="99.707031"/>
       <use xlink:href="#DejaVuSans-30" x="131.494141"/>
       <use xlink:href="#DejaVuSans-35" x="195.117188"/>
      </g>
     </g>
    </g>
    <g id="ytick_14">
     <g id="line2d_38">
      <path d="M 1183.090909 222.812922 
L 1944 222.812922 
" clip-path="url(#p4811b160fd)" style="fill: none; stroke: #ffffff; stroke-linecap: round"/>
     </g>
     <g id="text_39">
      <!-- -0.04 -->
      <g style="fill: #262626" transform="translate(1102.438956 233.260774) scale(0.275 -0.275)">
       <use xlink:href="#DejaVuSans-2d"/>
       <use xlink:href="#DejaVuSans-30" x="36.083984"/>
       <use xlink:href="#DejaVuSans-2e" x="99.707031"/>
       <use xlink:href="#DejaVuSans-30" x="131.494141"/>
       <use xlink:href="#DejaVuSans-34" x="195.117188"/>
      </g>
     </g>
    </g>
    <g id="ytick_15">
     <g id="line2d_39">
      <path d="M 1183.090909 148.238323 
L 1944 148.238323 
" clip-path="url(#p4811b160fd)" style="fill: none; stroke: #ffffff; stroke-linecap: round"/>
     </g>
     <g id="text_40">
      <!-- -0.03 -->
      <g style="fill: #262626" transform="translate(1102.438956 158.686175) scale(0.275 -0.275)">
       <use xlink:href="#DejaVuSans-2d"/>
       <use xlink:href="#DejaVuSans-30" x="36.083984"/>
       <use xlink:href="#DejaVuSans-2e" x="99.707031"/>
       <use xlink:href="#DejaVuSans-30" x="131.494141"/>
       <use xlink:href="#DejaVuSans-33" x="195.117188"/>
      </g>
     </g>
    </g>
    <g id="text_41">
     <!-- Distance -->
     <g style="fill: #262626" transform="translate(1092.199893 501.9075) rotate(-90) scale(0.3 -0.3)">
      <use xlink:href="#DejaVuSans-44"/>
      <use xlink:href="#DejaVuSans-69" x="77.001953"/>
      <use xlink:href="#DejaVuSans-73" x="104.785156"/>
      <use xlink:href="#DejaVuSans-74" x="156.884766"/>
      <use xlink:href="#DejaVuSans-61" x="196.09375"/>
      <use xlink:href="#DejaVuSans-6e" x="257.373047"/>
      <use xlink:href="#DejaVuSans-63" x="320.751953"/>
      <use xlink:href="#DejaVuSans-65" x="375.732422"/>
     </g>
    </g>
   </g>
   <g id="PolyCollection_4"/>
   <g id="PolyCollection_5"/>
   <g id="PolyCollection_6"/>
   <g id="line2d_40">
    <path d="M 1217.677686 738.72 
L 1235.414495 319.014155 
L 1253.151303 315.285425 
L 1270.888112 214.162269 
L 1288.624921 245.036153 
L 1306.361729 272.181307 
L 1324.098538 299.923058 
L 1341.835346 222.365475 
L 1359.572155 305.739877 
L 1377.308964 250.107226 
L 1395.045772 263.828952 
L 1412.782581 219.829938 
L 1430.51939 240.561677 
L 1448.256198 271.58471 
L 1465.993007 175.830925 
L 1483.729816 258.161282 
L 1501.466624 224.006116 
L 1519.203433 263.828952 
L 1536.940242 217.74185 
L 1554.67705 155.248335 
L 1572.413859 227.883995 
L 1590.150668 239.368483 
L 1607.887476 247.869988 
L 1625.624285 133.92 
L 1643.361093 235.639753 
L 1661.097902 181.051147 
L 1678.834711 224.006116 
L 1696.571519 176.72582 
L 1714.308328 195.966067 
L 1732.045137 218.338446 
L 1749.781945 263.232355 
L 1767.518754 208.792898 
L 1785.255563 229.822935 
L 1802.992371 155.248335 
L 1820.72918 200.589692 
L 1838.465989 267.110234 
L 1856.202797 249.510629 
L 1873.939606 174.488582 
L 1891.676414 225.199309 
L 1909.413223 180.45455 
" clip-path="url(#p4811b160fd)" style="fill: none; stroke-dasharray: 5.55,2.4; stroke-dashoffset: 0; stroke: #4c72b0; stroke-width: 1.5"/>
   </g>
   <g id="line2d_41">
    <path d="M 1217.677686 600.756991 
L 1235.414495 384.043206 
L 1253.151303 320.953095 
L 1270.888112 265.917041 
L 1288.624921 303.651788 
L 1306.361729 191.342441 
L 1324.098538 245.63275 
L 1341.835346 299.028163 
L 1359.572155 304.695832 
L 1377.308964 264.425549 
L 1395.045772 250.107226 
L 1412.782581 260.696819 
L 1430.51939 177.322417 
L 1448.256198 186.569667 
L 1465.993007 163.74984 
L 1483.729816 193.728829 
L 1501.466624 235.341455 
L 1519.203433 164.644735 
L 1536.940242 181.647744 
L 1554.67705 200.589692 
L 1572.413859 170.759852 
L 1590.150668 240.114229 
L 1607.887476 226.243354 
L 1625.624285 165.241332 
L 1643.361093 224.602713 
L 1661.097902 218.338446 
L 1678.834711 137.350432 
L 1696.571519 206.704809 
L 1714.308328 229.077189 
L 1732.045137 190.447546 
L 1749.781945 157.187275 
L 1767.518754 188.956054 
L 1785.255563 191.64074 
L 1802.992371 188.359457 
L 1820.72918 184.332429 
L 1838.465989 199.0982 
L 1856.202797 197.905006 
L 1873.939606 177.620715 
L 1891.676414 148.238323 
L 1909.413223 175.980074 
" clip-path="url(#p4811b160fd)" style="fill: none; stroke-dasharray: 1.5,2.475; stroke-dashoffset: 0; stroke: #dd8452; stroke-width: 1.5"/>
   </g>
   <g id="line2d_42">
    <path d="M 1217.677686 709.785055 
L 1235.414495 357.643798 
L 1253.151303 336.017164 
L 1270.888112 249.36148 
L 1288.624921 310.6618 
L 1306.361729 237.131245 
L 1324.098538 295.150284 
L 1341.835346 259.951073 
L 1359.572155 313.644784 
L 1377.308964 269.198323 
L 1395.045772 213.416523 
L 1412.782581 230.568681 
L 1430.51939 288.736868 
L 1448.256198 289.780912 
L 1465.993007 219.382491 
L 1483.729816 231.612725 
L 1501.466624 251.747867 
L 1519.203433 283.814945 
L 1536.940242 241.158274 
L 1554.67705 225.348459 
L 1572.413859 351.826979 
L 1590.150668 312.302441 
L 1607.887476 290.526658 
L 1625.624285 267.110234 
L 1643.361093 242.649766 
L 1661.097902 263.978101 
L 1678.834711 276.506634 
L 1696.571519 172.251344 
L 1714.308328 304.099236 
L 1732.045137 232.955068 
L 1749.781945 277.550678 
L 1767.518754 260.100222 
L 1785.255563 253.985105 
L 1802.992371 250.703822 
L 1820.72918 218.636745 
L 1838.465989 275.164291 
L 1856.202797 245.334451 
L 1873.939606 275.31344 
L 1891.676414 213.565672 
L 1909.413223 238.622737 
" clip-path="url(#p4811b160fd)" style="fill: none; stroke: #55a868; stroke-width: 1.5; stroke-linecap: round"/>
   </g>
   <g id="patch_9">
    <path d="M 1183.090909 768.96 
L 1183.090909 103.68 
" style="fill: none; stroke: #ffffff; stroke-width: 1.25; stroke-linejoin: miter; stroke-linecap: square"/>
   </g>
   <g id="patch_10">
    <path d="M 1944 768.96 
L 1944 103.68 
" style="fill: none; stroke: #ffffff; stroke-width: 1.25; stroke-linejoin: miter; stroke-linecap: square"/>
   </g>
   <g id="patch_11">
    <path d="M 1183.090909 768.96 
L 1944 768.96 
" style="fill: none; stroke: #ffffff; stroke-width: 1.25; stroke-linejoin: miter; stroke-linecap: square"/>
   </g>
   <g id="patch_12">
    <path d="M 1183.090909 103.68 
L 1944 103.68 
" style="fill: none; stroke: #ffffff; stroke-width: 1.25; stroke-linejoin: miter; stroke-linecap: square"/>
   </g>
   <g id="text_42">
    <!-- Distance in Adam optimizer -->
    <g style="fill: #262626" transform="translate(1355.863423 97.68) scale(0.3 -0.3)">
     <defs>
      <path id="DejaVuSans-41" d="M 2188 4044 
L 1331 1722 
L 3047 1722 
L 2188 4044 
z
M 1831 4666 
L 2547 4666 
L 4325 0 
L 3669 0 
L 3244 1197 
L 1141 1197 
L 716 0 
L 50 0 
L 1831 4666 
z
" transform="scale(0.015625)"/>
      <path id="DejaVuSans-64" d="M 2906 2969 
L 2906 4863 
L 3481 4863 
L 3481 0 
L 2906 0 
L 2906 525 
Q 2725 213 2448 61 
Q 2172 -91 1784 -91 
Q 1150 -91 751 415 
Q 353 922 353 1747 
Q 353 2572 751 3078 
Q 1150 3584 1784 3584 
Q 2172 3584 2448 3432 
Q 2725 3281 2906 2969 
z
M 947 1747 
Q 947 1113 1208 752 
Q 1469 391 1925 391 
Q 2381 391 2643 752 
Q 2906 1113 2906 1747 
Q 2906 2381 2643 2742 
Q 2381 3103 1925 3103 
Q 1469 3103 1208 2742 
Q 947 2381 947 1747 
z
" transform="scale(0.015625)"/>
     </defs>
     <use xlink:href="#DejaVuSans-44"/>
     <use xlink:href="#DejaVuSans-69" x="77.001953"/>
     <use xlink:href="#DejaVuSans-73" x="104.785156"/>
     <use xlink:href="#DejaVuSans-74" x="156.884766"/>
     <use xlink:href="#DejaVuSans-61" x="196.09375"/>
     <use xlink:href="#DejaVuSans-6e" x="257.373047"/>
     <use xlink:href="#DejaVuSans-63" x="320.751953"/>
     <use xlink:href="#DejaVuSans-65" x="375.732422"/>
     <use xlink:href="#DejaVuSans-20" x="437.255859"/>
     <use xlink:href="#DejaVuSans-69" x="469.042969"/>
     <use xlink:href="#DejaVuSans-6e" x="496.826172"/>
     <use xlink:href="#DejaVuSans-20" x="560.205078"/>
     <use xlink:href="#DejaVuSans-41" x="591.992188"/>
     <use xlink:href="#DejaVuSans-64" x="658.650391"/>
     <use xlink:href="#DejaVuSans-61" x="722.126953"/>
     <use xlink:href="#DejaVuSans-6d" x="783.40625"/>
     <use xlink:href="#DejaVuSans-20" x="880.818359"/>
     <use xlink:href="#DejaVuSans-6f" x="912.605469"/>
     <use xlink:href="#DejaVuSans-70" x="973.787109"/>
     <use xlink:href="#DejaVuSans-74" x="1037.263672"/>
     <use xlink:href="#DejaVuSans-69" x="1076.472656"/>
     <use xlink:href="#DejaVuSans-6d" x="1104.255859"/>
     <use xlink:href="#DejaVuSans-69" x="1201.667969"/>
     <use xlink:href="#DejaVuSans-7a" x="1229.451172"/>
     <use xlink:href="#DejaVuSans-65" x="1281.941406"/>
     <use xlink:href="#DejaVuSans-72" x="1343.464844"/>
    </g>
   </g>
   <g id="legend_2">
    <g id="patch_13">
     <path d="M 1458.010547 755.21 
L 1924.75 755.21 
Q 1930.25 755.21 1930.25 749.71 
L 1930.25 629.070938 
Q 1930.25 623.570938 1924.75 623.570938 
L 1458.010547 623.570938 
Q 1452.510547 623.570938 1452.510547 629.070938 
L 1452.510547 749.71 
Q 1452.510547 755.21 1458.010547 755.21 
z
" style="fill: #eaeaf2; opacity: 0.8; stroke: #cccccc; stroke-linejoin: miter"/>
    </g>
    <g id="line2d_43">
     <path d="M 1463.510547 645.841641 
L 1491.010547 645.841641 
L 1518.510547 645.841641 
" style="fill: none; stroke-dasharray: 5.55,2.4; stroke-dashoffset: 0; stroke: #4c72b0; stroke-width: 1.5"/>
    </g>
    <g id="text_43">
     <!-- CE_Adam -->
     <g style="fill: #262626" transform="translate(1540.510547 655.466641) scale(0.275 -0.275)">
      <use xlink:href="#DejaVuSans-43"/>
      <use xlink:href="#DejaVuSans-45" x="69.824219"/>
      <use xlink:href="#DejaVuSans-5f" x="133.007812"/>
      <use xlink:href="#DejaVuSans-41" x="183.007812"/>
      <use xlink:href="#DejaVuSans-64" x="249.666016"/>
      <use xlink:href="#DejaVuSans-61" x="313.142578"/>
      <use xlink:href="#DejaVuSans-6d" x="374.421875"/>
     </g>
    </g>
    <g id="line2d_44">
     <path d="M 1463.510547 686.971328 
L 1491.010547 686.971328 
L 1518.510547 686.971328 
" style="fill: none; stroke-dasharray: 1.5,2.475; stroke-dashoffset: 0; stroke: #dd8452; stroke-width: 1.5"/>
    </g>
    <g id="text_44">
     <!-- Focal(Gamma = 0.5)_Adam -->
     <g style="fill: #262626" transform="translate(1540.510547 696.596328) scale(0.275 -0.275)">
      <use xlink:href="#DejaVuSans-46"/>
      <use xlink:href="#DejaVuSans-6f" x="53.894531"/>
      <use xlink:href="#DejaVuSans-63" x="115.076172"/>
      <use xlink:href="#DejaVuSans-61" x="170.056641"/>
      <use xlink:href="#DejaVuSans-6c" x="231.335938"/>
      <use xlink:href="#DejaVuSans-28" x="259.119141"/>
      <use xlink:href="#DejaVuSans-47" x="298.132812"/>
      <use xlink:href="#DejaVuSans-61" x="375.623047"/>
      <use xlink:href="#DejaVuSans-6d" x="436.902344"/>
      <use xlink:href="#DejaVuSans-6d" x="534.314453"/>
      <use xlink:href="#DejaVuSans-61" x="631.726562"/>
      <use xlink:href="#DejaVuSans-20" x="693.005859"/>
      <use xlink:href="#DejaVuSans-3d" x="724.792969"/>
      <use xlink:href="#DejaVuSans-20" x="808.582031"/>
      <use xlink:href="#DejaVuSans-30" x="840.369141"/>
      <use xlink:href="#DejaVuSans-2e" x="903.992188"/>
      <use xlink:href="#DejaVuSans-35" x="935.779297"/>
      <use xlink:href="#DejaVuSans-29" x="999.402344"/>
      <use xlink:href="#DejaVuSans-5f" x="1038.416016"/>
      <use xlink:href="#DejaVuSans-41" x="1088.416016"/>
      <use xlink:href="#DejaVuSans-64" x="1155.074219"/>
      <use xlink:href="#DejaVuSans-61" x="1218.550781"/>
      <use xlink:href="#DejaVuSans-6d" x="1279.830078"/>
     </g>
    </g>
    <g id="line2d_45">
     <path d="M 1463.510547 728.101016 
L 1491.010547 728.101016 
L 1518.510547 728.101016 
" style="fill: none; stroke: #55a868; stroke-width: 1.5; stroke-linecap: round"/>
    </g>
    <g id="text_45">
     <!-- Focal(Gamma = 2)_Adam -->
     <g style="fill: #262626" transform="translate(1540.510547 737.726016) scale(0.275 -0.275)">
      <use xlink:href="#DejaVuSans-46"/>
      <use xlink:href="#DejaVuSans-6f" x="53.894531"/>
      <use xlink:href="#DejaVuSans-63" x="115.076172"/>
      <use xlink:href="#DejaVuSans-61" x="170.056641"/>
      <use xlink:href="#DejaVuSans-6c" x="231.335938"/>
      <use xlink:href="#DejaVuSans-28" x="259.119141"/>
      <use xlink:href="#DejaVuSans-47" x="298.132812"/>
      <use xlink:href="#DejaVuSans-61" x="375.623047"/>
      <use xlink:href="#DejaVuSans-6d" x="436.902344"/>
      <use xlink:href="#DejaVuSans-6d" x="534.314453"/>
      <use xlink:href="#DejaVuSans-61" x="631.726562"/>
      <use xlink:href="#DejaVuSans-20" x="693.005859"/>
      <use xlink:href="#DejaVuSans-3d" x="724.792969"/>
      <use xlink:href="#DejaVuSans-20" x="808.582031"/>
      <use xlink:href="#DejaVuSans-32" x="840.369141"/>
      <use xlink:href="#DejaVuSans-29" x="903.992188"/>
      <use xlink:href="#DejaVuSans-5f" x="943.005859"/>
      <use xlink:href="#DejaVuSans-41" x="993.005859"/>
      <use xlink:href="#DejaVuSans-64" x="1059.664062"/>
      <use xlink:href="#DejaVuSans-61" x="1123.140625"/>
      <use xlink:href="#DejaVuSans-6d" x="1184.419922"/>
     </g>
    </g>
   </g>
  </g>
  <g id="text_46">
   <!-- Distance between training acc and test acc of different loss functions in distinct optimizers -->
   <g style="fill: #262626" transform="translate(169.534375 47.67375) scale(0.4 -0.4)">
    <defs>
     <path id="DejaVuSans-62" d="M 3116 1747 
Q 3116 2381 2855 2742 
Q 2594 3103 2138 3103 
Q 1681 3103 1420 2742 
Q 1159 2381 1159 1747 
Q 1159 1113 1420 752 
Q 1681 391 2138 391 
Q 2594 391 2855 752 
Q 3116 1113 3116 1747 
z
M 1159 2969 
Q 1341 3281 1617 3432 
Q 1894 3584 2278 3584 
Q 2916 3584 3314 3078 
Q 3713 2572 3713 1747 
Q 3713 922 3314 415 
Q 2916 -91 2278 -91 
Q 1894 -91 1617 61 
Q 1341 213 1159 525 
L 1159 0 
L 581 0 
L 581 4863 
L 1159 4863 
L 1159 2969 
z
" transform="scale(0.015625)"/>
     <path id="DejaVuSans-77" d="M 269 3500 
L 844 3500 
L 1563 769 
L 2278 3500 
L 2956 3500 
L 3675 769 
L 4391 3500 
L 4966 3500 
L 4050 0 
L 3372 0 
L 2619 2869 
L 1863 0 
L 1184 0 
L 269 3500 
z
" transform="scale(0.015625)"/>
     <path id="DejaVuSans-67" d="M 2906 1791 
Q 2906 2416 2648 2759 
Q 2391 3103 1925 3103 
Q 1463 3103 1205 2759 
Q 947 2416 947 1791 
Q 947 1169 1205 825 
Q 1463 481 1925 481 
Q 2391 481 2648 825 
Q 2906 1169 2906 1791 
z
M 3481 434 
Q 3481 -459 3084 -895 
Q 2688 -1331 1869 -1331 
Q 1566 -1331 1297 -1286 
Q 1028 -1241 775 -1147 
L 775 -588 
Q 1028 -725 1275 -790 
Q 1522 -856 1778 -856 
Q 2344 -856 2625 -561 
Q 2906 -266 2906 331 
L 2906 616 
Q 2728 306 2450 153 
Q 2172 0 1784 0 
Q 1141 0 747 490 
Q 353 981 353 1791 
Q 353 2603 747 3093 
Q 1141 3584 1784 3584 
Q 2172 3584 2450 3431 
Q 2728 3278 2906 2969 
L 2906 3500 
L 3481 3500 
L 3481 434 
z
" transform="scale(0.015625)"/>
     <path id="DejaVuSans-66" d="M 2375 4863 
L 2375 4384 
L 1825 4384 
Q 1516 4384 1395 4259 
Q 1275 4134 1275 3809 
L 1275 3500 
L 2222 3500 
L 2222 3053 
L 1275 3053 
L 1275 0 
L 697 0 
L 697 3053 
L 147 3053 
L 147 3500 
L 697 3500 
L 697 3744 
Q 697 4328 969 4595 
Q 1241 4863 1831 4863 
L 2375 4863 
z
" transform="scale(0.015625)"/>
     <path id="DejaVuSans-75" d="M 544 1381 
L 544 3500 
L 1119 3500 
L 1119 1403 
Q 1119 906 1312 657 
Q 1506 409 1894 409 
Q 2359 409 2629 706 
Q 2900 1003 2900 1516 
L 2900 3500 
L 3475 3500 
L 3475 0 
L 2900 0 
L 2900 538 
Q 2691 219 2414 64 
Q 2138 -91 1772 -91 
Q 1169 -91 856 284 
Q 544 659 544 1381 
z
M 1991 3584 
L 1991 3584 
z
" transform="scale(0.015625)"/>
    </defs>
    <use xlink:href="#DejaVuSans-44"/>
    <use xlink:href="#DejaVuSans-69" x="77.001953"/>
    <use xlink:href="#DejaVuSans-73" x="104.785156"/>
    <use xlink:href="#DejaVuSans-74" x="156.884766"/>
    <use xlink:href="#DejaVuSans-61" x="196.09375"/>
    <use xlink:href="#DejaVuSans-6e" x="257.373047"/>
    <use xlink:href="#DejaVuSans-63" x="320.751953"/>
    <use xlink:href="#DejaVuSans-65" x="375.732422"/>
    <use xlink:href="#DejaVuSans-20" x="437.255859"/>
    <use xlink:href="#DejaVuSans-62" x="469.042969"/>
    <use xlink:href="#DejaVuSans-65" x="532.519531"/>
    <use xlink:href="#DejaVuSans-74" x="594.042969"/>
    <use xlink:href="#DejaVuSans-77" x="633.251953"/>
    <use xlink:href="#DejaVuSans-65" x="715.039062"/>
    <use xlink:href="#DejaVuSans-65" x="776.5625"/>
    <use xlink:href="#DejaVuSans-6e" x="838.085938"/>
    <use xlink:href="#DejaVuSans-20" x="901.464844"/>
    <use xlink:href="#DejaVuSans-74" x="933.251953"/>
    <use xlink:href="#DejaVuSans-72" x="972.460938"/>
    <use xlink:href="#DejaVuSans-61" x="1013.574219"/>
    <use xlink:href="#DejaVuSans-69" x="1074.853516"/>
    <use xlink:href="#DejaVuSans-6e" x="1102.636719"/>
    <use xlink:href="#DejaVuSans-69" x="1166.015625"/>
    <use xlink:href="#DejaVuSans-6e" x="1193.798828"/>
    <use xlink:href="#DejaVuSans-67" x="1257.177734"/>
    <use xlink:href="#DejaVuSans-20" x="1320.654297"/>
    <use xlink:href="#DejaVuSans-61" x="1352.441406"/>
    <use xlink:href="#DejaVuSans-63" x="1413.720703"/>
    <use xlink:href="#DejaVuSans-63" x="1468.701172"/>
    <use xlink:href="#DejaVuSans-20" x="1523.681641"/>
    <use xlink:href="#DejaVuSans-61" x="1555.46875"/>
    <use xlink:href="#DejaVuSans-6e" x="1616.748047"/>
    <use xlink:href="#DejaVuSans-64" x="1680.126953"/>
    <use xlink:href="#DejaVuSans-20" x="1743.603516"/>
    <use xlink:href="#DejaVuSans-74" x="1775.390625"/>
    <use xlink:href="#DejaVuSans-65" x="1814.599609"/>
    <use xlink:href="#DejaVuSans-73" x="1876.123047"/>
    <use xlink:href="#DejaVuSans-74" x="1928.222656"/>
    <use xlink:href="#DejaVuSans-20" x="1967.431641"/>
    <use xlink:href="#DejaVuSans-61" x="1999.21875"/>
    <use xlink:href="#DejaVuSans-63" x="2060.498047"/>
    <use xlink:href="#DejaVuSans-63" x="2115.478516"/>
    <use xlink:href="#DejaVuSans-20" x="2170.458984"/>
    <use xlink:href="#DejaVuSans-6f" x="2202.246094"/>
    <use xlink:href="#DejaVuSans-66" x="2263.427734"/>
    <use xlink:href="#DejaVuSans-20" x="2298.632812"/>
    <use xlink:href="#DejaVuSans-64" x="2330.419922"/>
    <use xlink:href="#DejaVuSans-69" x="2393.896484"/>
    <use xlink:href="#DejaVuSans-66" x="2421.679688"/>
    <use xlink:href="#DejaVuSans-66" x="2456.884766"/>
    <use xlink:href="#DejaVuSans-65" x="2492.089844"/>
    <use xlink:href="#DejaVuSans-72" x="2553.613281"/>
    <use xlink:href="#DejaVuSans-65" x="2592.476562"/>
    <use xlink:href="#DejaVuSans-6e" x="2654"/>
    <use xlink:href="#DejaVuSans-74" x="2717.378906"/>
    <use xlink:href="#DejaVuSans-20" x="2756.587891"/>
    <use xlink:href="#DejaVuSans-6c" x="2788.375"/>
    <use xlink:href="#DejaVuSans-6f" x="2816.158203"/>
    <use xlink:href="#DejaVuSans-73" x="2877.339844"/>
    <use xlink:href="#DejaVuSans-73" x="2929.439453"/>
    <use xlink:href="#DejaVuSans-20" x="2981.539062"/>
    <use xlink:href="#DejaVuSans-66" x="3013.326172"/>
    <use xlink:href="#DejaVuSans-75" x="3048.53125"/>
    <use xlink:href="#DejaVuSans-6e" x="3111.910156"/>
    <use xlink:href="#DejaVuSans-63" x="3175.289062"/>
    <use xlink:href="#DejaVuSans-74" x="3230.269531"/>
    <use xlink:href="#DejaVuSans-69" x="3269.478516"/>
    <use xlink:href="#DejaVuSans-6f" x="3297.261719"/>
    <use xlink:href="#DejaVuSans-6e" x="3358.443359"/>
    <use xlink:href="#DejaVuSans-73" x="3421.822266"/>
    <use xlink:href="#DejaVuSans-20" x="3473.921875"/>
    <use xlink:href="#DejaVuSans-69" x="3505.708984"/>
    <use xlink:href="#DejaVuSans-6e" x="3533.492188"/>
    <use xlink:href="#DejaVuSans-20" x="3596.871094"/>
    <use xlink:href="#DejaVuSans-64" x="3628.658203"/>
    <use xlink:href="#DejaVuSans-69" x="3692.134766"/>
    <use xlink:href="#DejaVuSans-73" x="3719.917969"/>
    <use xlink:href="#DejaVuSans-74" x="3772.017578"/>
    <use xlink:href="#DejaVuSans-69" x="3811.226562"/>
    <use xlink:href="#DejaVuSans-6e" x="3839.009766"/>
    <use xlink:href="#DejaVuSans-63" x="3902.388672"/>
    <use xlink:href="#DejaVuSans-74" x="3957.369141"/>
    <use xlink:href="#DejaVuSans-20" x="3996.578125"/>
    <use xlink:href="#DejaVuSans-6f" x="4028.365234"/>
    <use xlink:href="#DejaVuSans-70" x="4089.546875"/>
    <use xlink:href="#DejaVuSans-74" x="4153.023438"/>
    <use xlink:href="#DejaVuSans-69" x="4192.232422"/>
    <use xlink:href="#DejaVuSans-6d" x="4220.015625"/>
    <use xlink:href="#DejaVuSans-69" x="4317.427734"/>
    <use xlink:href="#DejaVuSans-7a" x="4345.210938"/>
    <use xlink:href="#DejaVuSans-65" x="4397.701172"/>
    <use xlink:href="#DejaVuSans-72" x="4459.224609"/>
    <use xlink:href="#DejaVuSans-73" x="4500.337891"/>
   </g>
  </g>
 </g>
 <defs>
  <clipPath id="p20ff2bbda1">
   <rect x="270" y="103.68" width="760.909091" height="665.28"/>
  </clipPath>
  <clipPath id="p4811b160fd">
   <rect x="1183.090909" y="103.68" width="760.909091" height="665.28"/>
  </clipPath>
 </defs>
</svg>
