<?xml version="1.0" encoding="utf-8" standalone="no"?>
<!DOCTYPE svg PUBLIC "-//W3C//DTD SVG 1.1//EN"
  "http://www.w3.org/Graphics/SVG/1.1/DTD/svg11.dtd">
<svg xmlns:xlink="http://www.w3.org/1999/xlink" width="2160pt" height="864pt" viewBox="0 0 2160 864" xmlns="http://www.w3.org/2000/svg" version="1.1">
 <metadata>
  <rdf:RDF xmlns:dc="http://purl.org/dc/elements/1.1/" xmlns:cc="http://creativecommons.org/ns#" xmlns:rdf="http://www.w3.org/1999/02/22-rdf-syntax-ns#">
   <cc:Work>
    <dc:type rdf:resource="http://purl.org/dc/dcmitype/StillImage"/>
    <dc:date>2023-10-28T01:12:54.079586</dc:date>
    <dc:format>image/svg+xml</dc:format>
    <dc:creator>
     <cc:Agent>
      <dc:title>Matplotlib v3.5.1, https://matplotlib.org/</dc:title>
     </cc:Agent>
    </dc:creator>
   </cc:Work>
  </rdf:RDF>
 </metadata>
 <defs>
  <style type="text/css">*{stroke-linejoin: round; stroke-linecap: butt}</style>
 </defs>
 <g id="figure_1">
  <g id="patch_1">
   <path d="M 0 864 
L 2160 864 
L 2160 0 
L 0 0 
z
" style="fill: #ffffff"/>
  </g>
  <g id="axes_1">
   <g id="patch_2">
    <path d="M 270 756 
L 1030.909091 756 
L 1030.909091 103.68 
L 270 103.68 
z
" style="fill: #eaeaf2"/>
   </g>
   <g id="matplotlib.axis_1">
    <g id="xtick_1">
     <g id="line2d_1">
      <path d="M 304.586777 756 
L 304.586777 103.68 
" clip-path="url(#pca4abc8ef0)" style="fill: none; stroke: #ffffff; stroke-linecap: round"/>
     </g>
     <g id="text_1">
      <!-- 0 -->
      <g style="fill: #262626" transform="translate(296.940488 785.183984)scale(0.275 -0.275)">
       <defs>
        <path id="ArialMT-30" d="M 266 2259 
Q 266 3072 433 3567 
Q 600 4063 929 4331 
Q 1259 4600 1759 4600 
Q 2128 4600 2406 4451 
Q 2684 4303 2865 4023 
Q 3047 3744 3150 3342 
Q 3253 2941 3253 2259 
Q 3253 1453 3087 958 
Q 2922 463 2592 192 
Q 2263 -78 1759 -78 
Q 1097 -78 719 397 
Q 266 969 266 2259 
z
M 844 2259 
Q 844 1131 1108 757 
Q 1372 384 1759 384 
Q 2147 384 2411 759 
Q 2675 1134 2675 2259 
Q 2675 3391 2411 3762 
Q 2147 4134 1753 4134 
Q 1366 4134 1134 3806 
Q 844 3388 844 2259 
z
" transform="scale(0.015625)"/>
       </defs>
       <use xlink:href="#ArialMT-30"/>
      </g>
     </g>
    </g>
    <g id="xtick_2">
     <g id="line2d_2">
      <path d="M 393.27082 756 
L 393.27082 103.68 
" clip-path="url(#pca4abc8ef0)" style="fill: none; stroke: #ffffff; stroke-linecap: round"/>
     </g>
     <g id="text_2">
      <!-- 5 -->
      <g style="fill: #262626" transform="translate(385.624531 785.183984)scale(0.275 -0.275)">
       <defs>
        <path id="ArialMT-35" d="M 266 1200 
L 856 1250 
Q 922 819 1161 601 
Q 1400 384 1738 384 
Q 2144 384 2425 690 
Q 2706 997 2706 1503 
Q 2706 1984 2436 2262 
Q 2166 2541 1728 2541 
Q 1456 2541 1237 2417 
Q 1019 2294 894 2097 
L 366 2166 
L 809 4519 
L 3088 4519 
L 3088 3981 
L 1259 3981 
L 1013 2750 
Q 1425 3038 1878 3038 
Q 2478 3038 2890 2622 
Q 3303 2206 3303 1553 
Q 3303 931 2941 478 
Q 2500 -78 1738 -78 
Q 1113 -78 717 272 
Q 322 622 266 1200 
z
" transform="scale(0.015625)"/>
       </defs>
       <use xlink:href="#ArialMT-35"/>
      </g>
     </g>
    </g>
    <g id="xtick_3">
     <g id="line2d_3">
      <path d="M 481.954863 756 
L 481.954863 103.68 
" clip-path="url(#pca4abc8ef0)" style="fill: none; stroke: #ffffff; stroke-linecap: round"/>
     </g>
     <g id="text_3">
      <!-- 10 -->
      <g style="fill: #262626" transform="translate(466.662285 785.183984)scale(0.275 -0.275)">
       <defs>
        <path id="ArialMT-31" d="M 2384 0 
L 1822 0 
L 1822 3584 
Q 1619 3391 1289 3197 
Q 959 3003 697 2906 
L 697 3450 
Q 1169 3672 1522 3987 
Q 1875 4303 2022 4600 
L 2384 4600 
L 2384 0 
z
" transform="scale(0.015625)"/>
       </defs>
       <use xlink:href="#ArialMT-31"/>
       <use xlink:href="#ArialMT-30" x="55.615234"/>
      </g>
     </g>
    </g>
    <g id="xtick_4">
     <g id="line2d_4">
      <path d="M 570.638907 756 
L 570.638907 103.68 
" clip-path="url(#pca4abc8ef0)" style="fill: none; stroke: #ffffff; stroke-linecap: round"/>
     </g>
     <g id="text_4">
      <!-- 15 -->
      <g style="fill: #262626" transform="translate(555.346328 785.183984)scale(0.275 -0.275)">
       <use xlink:href="#ArialMT-31"/>
       <use xlink:href="#ArialMT-35" x="55.615234"/>
      </g>
     </g>
    </g>
    <g id="xtick_5">
     <g id="line2d_5">
      <path d="M 659.32295 756 
L 659.32295 103.68 
" clip-path="url(#pca4abc8ef0)" style="fill: none; stroke: #ffffff; stroke-linecap: round"/>
     </g>
     <g id="text_5">
      <!-- 20 -->
      <g style="fill: #262626" transform="translate(644.030372 785.183984)scale(0.275 -0.275)">
       <defs>
        <path id="ArialMT-32" d="M 3222 541 
L 3222 0 
L 194 0 
Q 188 203 259 391 
Q 375 700 629 1000 
Q 884 1300 1366 1694 
Q 2113 2306 2375 2664 
Q 2638 3022 2638 3341 
Q 2638 3675 2398 3904 
Q 2159 4134 1775 4134 
Q 1369 4134 1125 3890 
Q 881 3647 878 3216 
L 300 3275 
Q 359 3922 746 4261 
Q 1134 4600 1788 4600 
Q 2447 4600 2831 4234 
Q 3216 3869 3216 3328 
Q 3216 3053 3103 2787 
Q 2991 2522 2730 2228 
Q 2469 1934 1863 1422 
Q 1356 997 1212 845 
Q 1069 694 975 541 
L 3222 541 
z
" transform="scale(0.015625)"/>
       </defs>
       <use xlink:href="#ArialMT-32"/>
       <use xlink:href="#ArialMT-30" x="55.615234"/>
      </g>
     </g>
    </g>
    <g id="xtick_6">
     <g id="line2d_6">
      <path d="M 748.006993 756 
L 748.006993 103.68 
" clip-path="url(#pca4abc8ef0)" style="fill: none; stroke: #ffffff; stroke-linecap: round"/>
     </g>
     <g id="text_6">
      <!-- 25 -->
      <g style="fill: #262626" transform="translate(732.714415 785.183984)scale(0.275 -0.275)">
       <use xlink:href="#ArialMT-32"/>
       <use xlink:href="#ArialMT-35" x="55.615234"/>
      </g>
     </g>
    </g>
    <g id="xtick_7">
     <g id="line2d_7">
      <path d="M 836.691036 756 
L 836.691036 103.68 
" clip-path="url(#pca4abc8ef0)" style="fill: none; stroke: #ffffff; stroke-linecap: round"/>
     </g>
     <g id="text_7">
      <!-- 30 -->
      <g style="fill: #262626" transform="translate(821.398458 785.183984)scale(0.275 -0.275)">
       <defs>
        <path id="ArialMT-33" d="M 269 1209 
L 831 1284 
Q 928 806 1161 595 
Q 1394 384 1728 384 
Q 2125 384 2398 659 
Q 2672 934 2672 1341 
Q 2672 1728 2419 1979 
Q 2166 2231 1775 2231 
Q 1616 2231 1378 2169 
L 1441 2663 
Q 1497 2656 1531 2656 
Q 1891 2656 2178 2843 
Q 2466 3031 2466 3422 
Q 2466 3731 2256 3934 
Q 2047 4138 1716 4138 
Q 1388 4138 1169 3931 
Q 950 3725 888 3313 
L 325 3413 
Q 428 3978 793 4289 
Q 1159 4600 1703 4600 
Q 2078 4600 2393 4439 
Q 2709 4278 2876 4000 
Q 3044 3722 3044 3409 
Q 3044 3113 2884 2869 
Q 2725 2625 2413 2481 
Q 2819 2388 3044 2092 
Q 3269 1797 3269 1353 
Q 3269 753 2831 336 
Q 2394 -81 1725 -81 
Q 1122 -81 723 278 
Q 325 638 269 1209 
z
" transform="scale(0.015625)"/>
       </defs>
       <use xlink:href="#ArialMT-33"/>
       <use xlink:href="#ArialMT-30" x="55.615234"/>
      </g>
     </g>
    </g>
    <g id="xtick_8">
     <g id="line2d_8">
      <path d="M 925.375079 756 
L 925.375079 103.68 
" clip-path="url(#pca4abc8ef0)" style="fill: none; stroke: #ffffff; stroke-linecap: round"/>
     </g>
     <g id="text_8">
      <!-- 35 -->
      <g style="fill: #262626" transform="translate(910.082501 785.183984)scale(0.275 -0.275)">
       <use xlink:href="#ArialMT-33"/>
       <use xlink:href="#ArialMT-35" x="55.615234"/>
      </g>
     </g>
    </g>
    <g id="xtick_9">
     <g id="line2d_9">
      <path d="M 1014.059123 756 
L 1014.059123 103.68 
" clip-path="url(#pca4abc8ef0)" style="fill: none; stroke: #ffffff; stroke-linecap: round"/>
     </g>
     <g id="text_9">
      <!-- 40 -->
      <g style="fill: #262626" transform="translate(998.766545 785.183984)scale(0.275 -0.275)">
       <defs>
        <path id="ArialMT-34" d="M 2069 0 
L 2069 1097 
L 81 1097 
L 81 1613 
L 2172 4581 
L 2631 4581 
L 2631 1613 
L 3250 1613 
L 3250 1097 
L 2631 1097 
L 2631 0 
L 2069 0 
z
M 2069 1613 
L 2069 3678 
L 634 1613 
L 2069 1613 
z
" transform="scale(0.015625)"/>
       </defs>
       <use xlink:href="#ArialMT-34"/>
       <use xlink:href="#ArialMT-30" x="55.615234"/>
      </g>
     </g>
    </g>
    <g id="text_10">
     <!-- Epoch -->
     <g style="fill: #262626" transform="translate(607.924858 816.123047)scale(0.3 -0.3)">
      <defs>
       <path id="ArialMT-45" d="M 506 0 
L 506 4581 
L 3819 4581 
L 3819 4041 
L 1113 4041 
L 1113 2638 
L 3647 2638 
L 3647 2100 
L 1113 2100 
L 1113 541 
L 3925 541 
L 3925 0 
L 506 0 
z
" transform="scale(0.015625)"/>
       <path id="ArialMT-70" d="M 422 -1272 
L 422 3319 
L 934 3319 
L 934 2888 
Q 1116 3141 1344 3267 
Q 1572 3394 1897 3394 
Q 2322 3394 2647 3175 
Q 2972 2956 3137 2557 
Q 3303 2159 3303 1684 
Q 3303 1175 3120 767 
Q 2938 359 2589 142 
Q 2241 -75 1856 -75 
Q 1575 -75 1351 44 
Q 1128 163 984 344 
L 984 -1272 
L 422 -1272 
z
M 931 1641 
Q 931 1000 1190 694 
Q 1450 388 1819 388 
Q 2194 388 2461 705 
Q 2728 1022 2728 1688 
Q 2728 2322 2467 2637 
Q 2206 2953 1844 2953 
Q 1484 2953 1207 2617 
Q 931 2281 931 1641 
z
" transform="scale(0.015625)"/>
       <path id="ArialMT-6f" d="M 213 1659 
Q 213 2581 725 3025 
Q 1153 3394 1769 3394 
Q 2453 3394 2887 2945 
Q 3322 2497 3322 1706 
Q 3322 1066 3130 698 
Q 2938 331 2570 128 
Q 2203 -75 1769 -75 
Q 1072 -75 642 372 
Q 213 819 213 1659 
z
M 791 1659 
Q 791 1022 1069 705 
Q 1347 388 1769 388 
Q 2188 388 2466 706 
Q 2744 1025 2744 1678 
Q 2744 2294 2464 2611 
Q 2184 2928 1769 2928 
Q 1347 2928 1069 2612 
Q 791 2297 791 1659 
z
" transform="scale(0.015625)"/>
       <path id="ArialMT-63" d="M 2588 1216 
L 3141 1144 
Q 3050 572 2676 248 
Q 2303 -75 1759 -75 
Q 1078 -75 664 370 
Q 250 816 250 1647 
Q 250 2184 428 2587 
Q 606 2991 970 3192 
Q 1334 3394 1763 3394 
Q 2303 3394 2647 3120 
Q 2991 2847 3088 2344 
L 2541 2259 
Q 2463 2594 2264 2762 
Q 2066 2931 1784 2931 
Q 1359 2931 1093 2626 
Q 828 2322 828 1663 
Q 828 994 1084 691 
Q 1341 388 1753 388 
Q 2084 388 2306 591 
Q 2528 794 2588 1216 
z
" transform="scale(0.015625)"/>
       <path id="ArialMT-68" d="M 422 0 
L 422 4581 
L 984 4581 
L 984 2938 
Q 1378 3394 1978 3394 
Q 2347 3394 2619 3248 
Q 2891 3103 3008 2847 
Q 3125 2591 3125 2103 
L 3125 0 
L 2563 0 
L 2563 2103 
Q 2563 2525 2380 2717 
Q 2197 2909 1863 2909 
Q 1613 2909 1392 2779 
Q 1172 2650 1078 2428 
Q 984 2206 984 1816 
L 984 0 
L 422 0 
z
" transform="scale(0.015625)"/>
      </defs>
      <use xlink:href="#ArialMT-45"/>
      <use xlink:href="#ArialMT-70" x="66.699219"/>
      <use xlink:href="#ArialMT-6f" x="122.314453"/>
      <use xlink:href="#ArialMT-63" x="177.929688"/>
      <use xlink:href="#ArialMT-68" x="227.929688"/>
     </g>
    </g>
   </g>
   <g id="matplotlib.axis_2">
    <g id="ytick_1">
     <g id="line2d_10">
      <path d="M 270 733.992047 
L 1030.909091 733.992047 
" clip-path="url(#pca4abc8ef0)" style="fill: none; stroke: #ffffff; stroke-linecap: round"/>
     </g>
     <g id="text_11">
      <!-- -0.10 -->
      <g style="fill: #262626" transform="translate(197.825781 743.834039)scale(0.275 -0.275)">
       <defs>
        <path id="ArialMT-2d" d="M 203 1375 
L 203 1941 
L 1931 1941 
L 1931 1375 
L 203 1375 
z
" transform="scale(0.015625)"/>
        <path id="ArialMT-2e" d="M 581 0 
L 581 641 
L 1222 641 
L 1222 0 
L 581 0 
z
" transform="scale(0.015625)"/>
       </defs>
       <use xlink:href="#ArialMT-2d"/>
       <use xlink:href="#ArialMT-30" x="33.300781"/>
       <use xlink:href="#ArialMT-2e" x="88.916016"/>
       <use xlink:href="#ArialMT-31" x="116.699219"/>
       <use xlink:href="#ArialMT-30" x="172.314453"/>
      </g>
     </g>
    </g>
    <g id="ytick_2">
     <g id="line2d_11">
      <path d="M 270 608.697692 
L 1030.909091 608.697692 
" clip-path="url(#pca4abc8ef0)" style="fill: none; stroke: #ffffff; stroke-linecap: round"/>
     </g>
     <g id="text_12">
      <!-- -0.08 -->
      <g style="fill: #262626" transform="translate(197.825781 618.539684)scale(0.275 -0.275)">
       <defs>
        <path id="ArialMT-38" d="M 1131 2484 
Q 781 2613 612 2850 
Q 444 3088 444 3419 
Q 444 3919 803 4259 
Q 1163 4600 1759 4600 
Q 2359 4600 2725 4251 
Q 3091 3903 3091 3403 
Q 3091 3084 2923 2848 
Q 2756 2613 2416 2484 
Q 2838 2347 3058 2040 
Q 3278 1734 3278 1309 
Q 3278 722 2862 322 
Q 2447 -78 1769 -78 
Q 1091 -78 675 323 
Q 259 725 259 1325 
Q 259 1772 486 2073 
Q 713 2375 1131 2484 
z
M 1019 3438 
Q 1019 3113 1228 2906 
Q 1438 2700 1772 2700 
Q 2097 2700 2305 2904 
Q 2513 3109 2513 3406 
Q 2513 3716 2298 3927 
Q 2084 4138 1766 4138 
Q 1444 4138 1231 3931 
Q 1019 3725 1019 3438 
z
M 838 1322 
Q 838 1081 952 856 
Q 1066 631 1291 507 
Q 1516 384 1775 384 
Q 2178 384 2440 643 
Q 2703 903 2703 1303 
Q 2703 1709 2433 1975 
Q 2163 2241 1756 2241 
Q 1359 2241 1098 1978 
Q 838 1716 838 1322 
z
" transform="scale(0.015625)"/>
       </defs>
       <use xlink:href="#ArialMT-2d"/>
       <use xlink:href="#ArialMT-30" x="33.300781"/>
       <use xlink:href="#ArialMT-2e" x="88.916016"/>
       <use xlink:href="#ArialMT-30" x="116.699219"/>
       <use xlink:href="#ArialMT-38" x="172.314453"/>
      </g>
     </g>
    </g>
    <g id="ytick_3">
     <g id="line2d_12">
      <path d="M 270 483.403337 
L 1030.909091 483.403337 
" clip-path="url(#pca4abc8ef0)" style="fill: none; stroke: #ffffff; stroke-linecap: round"/>
     </g>
     <g id="text_13">
      <!-- -0.06 -->
      <g style="fill: #262626" transform="translate(197.825781 493.245329)scale(0.275 -0.275)">
       <defs>
        <path id="ArialMT-36" d="M 3184 3459 
L 2625 3416 
Q 2550 3747 2413 3897 
Q 2184 4138 1850 4138 
Q 1581 4138 1378 3988 
Q 1113 3794 959 3422 
Q 806 3050 800 2363 
Q 1003 2672 1297 2822 
Q 1591 2972 1913 2972 
Q 2475 2972 2870 2558 
Q 3266 2144 3266 1488 
Q 3266 1056 3080 686 
Q 2894 316 2569 119 
Q 2244 -78 1831 -78 
Q 1128 -78 684 439 
Q 241 956 241 2144 
Q 241 3472 731 4075 
Q 1159 4600 1884 4600 
Q 2425 4600 2770 4297 
Q 3116 3994 3184 3459 
z
M 888 1484 
Q 888 1194 1011 928 
Q 1134 663 1356 523 
Q 1578 384 1822 384 
Q 2178 384 2434 671 
Q 2691 959 2691 1453 
Q 2691 1928 2437 2201 
Q 2184 2475 1800 2475 
Q 1419 2475 1153 2201 
Q 888 1928 888 1484 
z
" transform="scale(0.015625)"/>
       </defs>
       <use xlink:href="#ArialMT-2d"/>
       <use xlink:href="#ArialMT-30" x="33.300781"/>
       <use xlink:href="#ArialMT-2e" x="88.916016"/>
       <use xlink:href="#ArialMT-30" x="116.699219"/>
       <use xlink:href="#ArialMT-36" x="172.314453"/>
      </g>
     </g>
    </g>
    <g id="ytick_4">
     <g id="line2d_13">
      <path d="M 270 358.108982 
L 1030.909091 358.108982 
" clip-path="url(#pca4abc8ef0)" style="fill: none; stroke: #ffffff; stroke-linecap: round"/>
     </g>
     <g id="text_14">
      <!-- -0.04 -->
      <g style="fill: #262626" transform="translate(197.825781 367.950974)scale(0.275 -0.275)">
       <use xlink:href="#ArialMT-2d"/>
       <use xlink:href="#ArialMT-30" x="33.300781"/>
       <use xlink:href="#ArialMT-2e" x="88.916016"/>
       <use xlink:href="#ArialMT-30" x="116.699219"/>
       <use xlink:href="#ArialMT-34" x="172.314453"/>
      </g>
     </g>
    </g>
    <g id="ytick_5">
     <g id="line2d_14">
      <path d="M 270 232.814627 
L 1030.909091 232.814627 
" clip-path="url(#pca4abc8ef0)" style="fill: none; stroke: #ffffff; stroke-linecap: round"/>
     </g>
     <g id="text_15">
      <!-- -0.02 -->
      <g style="fill: #262626" transform="translate(197.825781 242.656619)scale(0.275 -0.275)">
       <use xlink:href="#ArialMT-2d"/>
       <use xlink:href="#ArialMT-30" x="33.300781"/>
       <use xlink:href="#ArialMT-2e" x="88.916016"/>
       <use xlink:href="#ArialMT-30" x="116.699219"/>
       <use xlink:href="#ArialMT-32" x="172.314453"/>
      </g>
     </g>
    </g>
    <g id="ytick_6">
     <g id="line2d_15">
      <path d="M 270 107.520272 
L 1030.909091 107.520272 
" clip-path="url(#pca4abc8ef0)" style="fill: none; stroke: #ffffff; stroke-linecap: round"/>
     </g>
     <g id="text_16">
      <!-- 0.00 -->
      <g style="fill: #262626" transform="translate(206.982422 117.362264)scale(0.275 -0.275)">
       <use xlink:href="#ArialMT-30"/>
       <use xlink:href="#ArialMT-2e" x="55.615234"/>
       <use xlink:href="#ArialMT-30" x="83.398438"/>
       <use xlink:href="#ArialMT-30" x="139.013672"/>
      </g>
     </g>
    </g>
    <g id="text_17">
     <!-- Distance -->
     <g style="fill: #262626" transform="translate(187.863281 488.197031)rotate(-90)scale(0.3 -0.3)">
      <defs>
       <path id="ArialMT-44" d="M 494 0 
L 494 4581 
L 2072 4581 
Q 2606 4581 2888 4516 
Q 3281 4425 3559 4188 
Q 3922 3881 4101 3404 
Q 4281 2928 4281 2316 
Q 4281 1794 4159 1391 
Q 4038 988 3847 723 
Q 3656 459 3429 307 
Q 3203 156 2883 78 
Q 2563 0 2147 0 
L 494 0 
z
M 1100 541 
L 2078 541 
Q 2531 541 2789 625 
Q 3047 709 3200 863 
Q 3416 1078 3536 1442 
Q 3656 1806 3656 2325 
Q 3656 3044 3420 3430 
Q 3184 3816 2847 3947 
Q 2603 4041 2063 4041 
L 1100 4041 
L 1100 541 
z
" transform="scale(0.015625)"/>
       <path id="ArialMT-69" d="M 425 3934 
L 425 4581 
L 988 4581 
L 988 3934 
L 425 3934 
z
M 425 0 
L 425 3319 
L 988 3319 
L 988 0 
L 425 0 
z
" transform="scale(0.015625)"/>
       <path id="ArialMT-73" d="M 197 991 
L 753 1078 
Q 800 744 1014 566 
Q 1228 388 1613 388 
Q 2000 388 2187 545 
Q 2375 703 2375 916 
Q 2375 1106 2209 1216 
Q 2094 1291 1634 1406 
Q 1016 1563 777 1677 
Q 538 1791 414 1992 
Q 291 2194 291 2438 
Q 291 2659 392 2848 
Q 494 3038 669 3163 
Q 800 3259 1026 3326 
Q 1253 3394 1513 3394 
Q 1903 3394 2198 3281 
Q 2494 3169 2634 2976 
Q 2775 2784 2828 2463 
L 2278 2388 
Q 2241 2644 2061 2787 
Q 1881 2931 1553 2931 
Q 1166 2931 1000 2803 
Q 834 2675 834 2503 
Q 834 2394 903 2306 
Q 972 2216 1119 2156 
Q 1203 2125 1616 2013 
Q 2213 1853 2448 1751 
Q 2684 1650 2818 1456 
Q 2953 1263 2953 975 
Q 2953 694 2789 445 
Q 2625 197 2315 61 
Q 2006 -75 1616 -75 
Q 969 -75 630 194 
Q 291 463 197 991 
z
" transform="scale(0.015625)"/>
       <path id="ArialMT-74" d="M 1650 503 
L 1731 6 
Q 1494 -44 1306 -44 
Q 1000 -44 831 53 
Q 663 150 594 308 
Q 525 466 525 972 
L 525 2881 
L 113 2881 
L 113 3319 
L 525 3319 
L 525 4141 
L 1084 4478 
L 1084 3319 
L 1650 3319 
L 1650 2881 
L 1084 2881 
L 1084 941 
Q 1084 700 1114 631 
Q 1144 563 1211 522 
Q 1278 481 1403 481 
Q 1497 481 1650 503 
z
" transform="scale(0.015625)"/>
       <path id="ArialMT-61" d="M 2588 409 
Q 2275 144 1986 34 
Q 1697 -75 1366 -75 
Q 819 -75 525 192 
Q 231 459 231 875 
Q 231 1119 342 1320 
Q 453 1522 633 1644 
Q 813 1766 1038 1828 
Q 1203 1872 1538 1913 
Q 2219 1994 2541 2106 
Q 2544 2222 2544 2253 
Q 2544 2597 2384 2738 
Q 2169 2928 1744 2928 
Q 1347 2928 1158 2789 
Q 969 2650 878 2297 
L 328 2372 
Q 403 2725 575 2942 
Q 747 3159 1072 3276 
Q 1397 3394 1825 3394 
Q 2250 3394 2515 3294 
Q 2781 3194 2906 3042 
Q 3031 2891 3081 2659 
Q 3109 2516 3109 2141 
L 3109 1391 
Q 3109 606 3145 398 
Q 3181 191 3288 0 
L 2700 0 
Q 2613 175 2588 409 
z
M 2541 1666 
Q 2234 1541 1622 1453 
Q 1275 1403 1131 1340 
Q 988 1278 909 1158 
Q 831 1038 831 891 
Q 831 666 1001 516 
Q 1172 366 1500 366 
Q 1825 366 2078 508 
Q 2331 650 2450 897 
Q 2541 1088 2541 1459 
L 2541 1666 
z
" transform="scale(0.015625)"/>
       <path id="ArialMT-6e" d="M 422 0 
L 422 3319 
L 928 3319 
L 928 2847 
Q 1294 3394 1984 3394 
Q 2284 3394 2536 3286 
Q 2788 3178 2913 3003 
Q 3038 2828 3088 2588 
Q 3119 2431 3119 2041 
L 3119 0 
L 2556 0 
L 2556 2019 
Q 2556 2363 2490 2533 
Q 2425 2703 2258 2804 
Q 2091 2906 1866 2906 
Q 1506 2906 1245 2678 
Q 984 2450 984 1813 
L 984 0 
L 422 0 
z
" transform="scale(0.015625)"/>
       <path id="ArialMT-65" d="M 2694 1069 
L 3275 997 
Q 3138 488 2766 206 
Q 2394 -75 1816 -75 
Q 1088 -75 661 373 
Q 234 822 234 1631 
Q 234 2469 665 2931 
Q 1097 3394 1784 3394 
Q 2450 3394 2872 2941 
Q 3294 2488 3294 1666 
Q 3294 1616 3291 1516 
L 816 1516 
Q 847 969 1125 678 
Q 1403 388 1819 388 
Q 2128 388 2347 550 
Q 2566 713 2694 1069 
z
M 847 1978 
L 2700 1978 
Q 2663 2397 2488 2606 
Q 2219 2931 1791 2931 
Q 1403 2931 1139 2672 
Q 875 2413 847 1978 
z
" transform="scale(0.015625)"/>
      </defs>
      <use xlink:href="#ArialMT-44"/>
      <use xlink:href="#ArialMT-69" x="72.216797"/>
      <use xlink:href="#ArialMT-73" x="94.433594"/>
      <use xlink:href="#ArialMT-74" x="144.433594"/>
      <use xlink:href="#ArialMT-61" x="172.216797"/>
      <use xlink:href="#ArialMT-6e" x="227.832031"/>
      <use xlink:href="#ArialMT-63" x="283.447266"/>
      <use xlink:href="#ArialMT-65" x="333.447266"/>
     </g>
    </g>
   </g>
   <g id="line2d_16">
    <path d="M 304.586777 726.349091 
L 322.323586 352.345441 
L 340.060394 215.148123 
L 357.797203 393.316696 
L 375.534011 162.148611 
L 393.27082 422.760869 
L 411.007629 272.282349 
L 428.744437 337.05953 
L 446.481246 371.390183 
L 464.218055 278.92295 
L 481.954863 284.68649 
L 499.691672 348.711905 
L 517.428481 394.068462 
L 535.165289 378.78255 
L 552.902098 332.17305 
L 570.638907 434.162655 
L 588.375715 344.076014 
L 606.112524 407.099075 
L 623.849332 441.304433 
L 641.586141 435.415599 
L 659.32295 421.257337 
L 677.059758 423.512635 
L 694.796567 430.779708 
L 712.533376 397.952587 
L 730.270184 388.680804 
L 748.006993 370.763712 
L 765.743802 380.78726 
L 783.48061 403.089655 
L 801.217419 369.260179 
L 818.954228 367.631353 
L 836.691036 371.515478 
L 854.427845 389.056687 
L 872.164654 380.912554 
L 889.901462 394.444345 
L 907.638271 376.276663 
L 925.375079 368.13253 
L 943.111888 366.002526 
L 960.848697 390.434925 
L 978.585505 369.260179 
L 996.322314 374.647837 
" clip-path="url(#pca4abc8ef0)" style="fill: none; stroke-dasharray: 5.55,2.4; stroke-dashoffset: 0; stroke: #4c72b0; stroke-width: 1.5"/>
   </g>
   <g id="line2d_17">
    <path d="M 304.586777 489.54276 
L 322.323586 462.353885 
L 340.060394 362.995462 
L 357.797203 376.026075 
L 375.534011 376.026075 
L 393.27082 264.764687 
L 411.007629 307.865945 
L 428.744437 382.165498 
L 446.481246 289.071792 
L 464.218055 319.267732 
L 481.954863 235.320514 
L 499.691672 362.744873 
L 517.428481 337.686002 
L 535.165289 319.51832 
L 552.902098 249.854659 
L 570.638907 331.671873 
L 588.375715 283.182958 
L 606.112524 348.336022 
L 623.849332 290.825913 
L 641.586141 133.330909 
L 659.32295 349.964849 
L 677.059758 367.380764 
L 694.796567 318.265377 
L 712.533376 315.634195 
L 730.270184 303.480643 
L 748.006993 337.184825 
L 765.743802 281.052954 
L 783.48061 290.951208 
L 801.217419 336.18247 
L 818.954228 247.348772 
L 836.691036 320.270087 
L 854.427845 330.669518 
L 872.164654 290.074147 
L 889.901462 301.475933 
L 907.638271 274.412353 
L 925.375079 313.253603 
L 943.111888 277.419417 
L 960.848697 298.970046 
L 978.585505 289.698264 
L 996.322314 294.584744 
" clip-path="url(#pca4abc8ef0)" style="fill: none; stroke-dasharray: 1.5,2.475; stroke-dashoffset: 0; stroke: #dd8452; stroke-width: 1.5"/>
   </g>
   <g id="line2d_18">
    <path d="M 304.586777 603.059446 
L 322.323586 390.184337 
L 340.060394 444.311498 
L 357.797203 410.732611 
L 375.534011 376.401958 
L 393.27082 375.650191 
L 411.007629 269.14999 
L 428.744437 340.567772 
L 446.481246 246.221123 
L 464.218055 369.385474 
L 481.954863 357.106627 
L 499.691672 383.543736 
L 517.428481 377.153724 
L 535.165289 336.808941 
L 552.902098 322.650679 
L 570.638907 277.920595 
L 588.375715 334.303054 
L 606.112524 387.302567 
L 623.849332 313.253603 
L 641.586141 291.953562 
L 659.32295 364.3737 
L 677.059758 358.359571 
L 694.796567 300.724167 
L 712.533376 318.140083 
L 730.270184 376.652546 
L 748.006993 314.381252 
L 765.743802 357.48251 
L 783.48061 353.347796 
L 801.217419 286.440611 
L 818.954228 325.783038 
L 836.691036 328.41422 
L 854.427845 372.392538 
L 872.164654 322.400091 
L 889.901462 349.213083 
L 907.638271 333.551288 
L 925.375079 331.922462 
L 943.111888 343.449542 
L 960.848697 309.99595 
L 978.585505 340.191889 
L 996.322314 360.36428 
" clip-path="url(#pca4abc8ef0)" style="fill: none; stroke: #55a868; stroke-width: 1.5; stroke-linecap: round"/>
   </g>
   <g id="patch_3">
    <path d="M 270 756 
L 270 103.68 
" style="fill: none; stroke: #ffffff; stroke-width: 1.25; stroke-linejoin: miter; stroke-linecap: square"/>
   </g>
   <g id="patch_4">
    <path d="M 1030.909091 756 
L 1030.909091 103.68 
" style="fill: none; stroke: #ffffff; stroke-width: 1.25; stroke-linejoin: miter; stroke-linecap: square"/>
   </g>
   <g id="patch_5">
    <path d="M 270 756 
L 1030.909091 756 
" style="fill: none; stroke: #ffffff; stroke-width: 1.25; stroke-linejoin: miter; stroke-linecap: square"/>
   </g>
   <g id="patch_6">
    <path d="M 270 103.68 
L 1030.909091 103.68 
" style="fill: none; stroke: #ffffff; stroke-width: 1.25; stroke-linejoin: miter; stroke-linecap: square"/>
   </g>
   <g id="text_18">
    <!-- Distance in SGD optimizer -->
    <g style="fill: #262626" transform="translate(474.57017 97.68)scale(0.3 -0.3)">
     <defs>
      <path id="ArialMT-20" transform="scale(0.015625)"/>
      <path id="ArialMT-53" d="M 288 1472 
L 859 1522 
Q 900 1178 1048 958 
Q 1197 738 1509 602 
Q 1822 466 2213 466 
Q 2559 466 2825 569 
Q 3091 672 3220 851 
Q 3350 1031 3350 1244 
Q 3350 1459 3225 1620 
Q 3100 1781 2813 1891 
Q 2628 1963 1997 2114 
Q 1366 2266 1113 2400 
Q 784 2572 623 2826 
Q 463 3081 463 3397 
Q 463 3744 659 4045 
Q 856 4347 1234 4503 
Q 1613 4659 2075 4659 
Q 2584 4659 2973 4495 
Q 3363 4331 3572 4012 
Q 3781 3694 3797 3291 
L 3216 3247 
Q 3169 3681 2898 3903 
Q 2628 4125 2100 4125 
Q 1550 4125 1298 3923 
Q 1047 3722 1047 3438 
Q 1047 3191 1225 3031 
Q 1400 2872 2139 2705 
Q 2878 2538 3153 2413 
Q 3553 2228 3743 1945 
Q 3934 1663 3934 1294 
Q 3934 928 3725 604 
Q 3516 281 3123 101 
Q 2731 -78 2241 -78 
Q 1619 -78 1198 103 
Q 778 284 539 648 
Q 300 1013 288 1472 
z
" transform="scale(0.015625)"/>
      <path id="ArialMT-47" d="M 2638 1797 
L 2638 2334 
L 4578 2338 
L 4578 638 
Q 4131 281 3656 101 
Q 3181 -78 2681 -78 
Q 2006 -78 1454 211 
Q 903 500 622 1047 
Q 341 1594 341 2269 
Q 341 2938 620 3517 
Q 900 4097 1425 4378 
Q 1950 4659 2634 4659 
Q 3131 4659 3532 4498 
Q 3934 4338 4162 4050 
Q 4391 3763 4509 3300 
L 3963 3150 
Q 3859 3500 3706 3700 
Q 3553 3900 3268 4020 
Q 2984 4141 2638 4141 
Q 2222 4141 1919 4014 
Q 1616 3888 1430 3681 
Q 1244 3475 1141 3228 
Q 966 2803 966 2306 
Q 966 1694 1177 1281 
Q 1388 869 1791 669 
Q 2194 469 2647 469 
Q 3041 469 3416 620 
Q 3791 772 3984 944 
L 3984 1797 
L 2638 1797 
z
" transform="scale(0.015625)"/>
      <path id="ArialMT-6d" d="M 422 0 
L 422 3319 
L 925 3319 
L 925 2853 
Q 1081 3097 1340 3245 
Q 1600 3394 1931 3394 
Q 2300 3394 2536 3241 
Q 2772 3088 2869 2813 
Q 3263 3394 3894 3394 
Q 4388 3394 4653 3120 
Q 4919 2847 4919 2278 
L 4919 0 
L 4359 0 
L 4359 2091 
Q 4359 2428 4304 2576 
Q 4250 2725 4106 2815 
Q 3963 2906 3769 2906 
Q 3419 2906 3187 2673 
Q 2956 2441 2956 1928 
L 2956 0 
L 2394 0 
L 2394 2156 
Q 2394 2531 2256 2718 
Q 2119 2906 1806 2906 
Q 1569 2906 1367 2781 
Q 1166 2656 1075 2415 
Q 984 2175 984 1722 
L 984 0 
L 422 0 
z
" transform="scale(0.015625)"/>
      <path id="ArialMT-7a" d="M 125 0 
L 125 456 
L 2238 2881 
Q 1878 2863 1603 2863 
L 250 2863 
L 250 3319 
L 2963 3319 
L 2963 2947 
L 1166 841 
L 819 456 
Q 1197 484 1528 484 
L 3063 484 
L 3063 0 
L 125 0 
z
" transform="scale(0.015625)"/>
      <path id="ArialMT-72" d="M 416 0 
L 416 3319 
L 922 3319 
L 922 2816 
Q 1116 3169 1280 3281 
Q 1444 3394 1641 3394 
Q 1925 3394 2219 3213 
L 2025 2691 
Q 1819 2813 1613 2813 
Q 1428 2813 1281 2702 
Q 1134 2591 1072 2394 
Q 978 2094 978 1738 
L 978 0 
L 416 0 
z
" transform="scale(0.015625)"/>
     </defs>
     <use xlink:href="#ArialMT-44"/>
     <use xlink:href="#ArialMT-69" x="72.216797"/>
     <use xlink:href="#ArialMT-73" x="94.433594"/>
     <use xlink:href="#ArialMT-74" x="144.433594"/>
     <use xlink:href="#ArialMT-61" x="172.216797"/>
     <use xlink:href="#ArialMT-6e" x="227.832031"/>
     <use xlink:href="#ArialMT-63" x="283.447266"/>
     <use xlink:href="#ArialMT-65" x="333.447266"/>
     <use xlink:href="#ArialMT-20" x="389.0625"/>
     <use xlink:href="#ArialMT-69" x="416.845703"/>
     <use xlink:href="#ArialMT-6e" x="439.0625"/>
     <use xlink:href="#ArialMT-20" x="494.677734"/>
     <use xlink:href="#ArialMT-53" x="522.460938"/>
     <use xlink:href="#ArialMT-47" x="589.160156"/>
     <use xlink:href="#ArialMT-44" x="666.943359"/>
     <use xlink:href="#ArialMT-20" x="739.160156"/>
     <use xlink:href="#ArialMT-6f" x="766.943359"/>
     <use xlink:href="#ArialMT-70" x="822.558594"/>
     <use xlink:href="#ArialMT-74" x="878.173828"/>
     <use xlink:href="#ArialMT-69" x="905.957031"/>
     <use xlink:href="#ArialMT-6d" x="928.173828"/>
     <use xlink:href="#ArialMT-69" x="1011.474609"/>
     <use xlink:href="#ArialMT-7a" x="1033.691406"/>
     <use xlink:href="#ArialMT-65" x="1083.691406"/>
     <use xlink:href="#ArialMT-72" x="1139.306641"/>
    </g>
   </g>
   <g id="legend_1">
    <g id="patch_7">
     <path d="M 595.863388 742.25 
L 1011.659091 742.25 
Q 1017.159091 742.25 1017.159091 736.75 
L 1017.159091 621.151172 
Q 1017.159091 615.651172 1011.659091 615.651172 
L 595.863388 615.651172 
Q 590.363388 615.651172 590.363388 621.151172 
L 590.363388 736.75 
Q 590.363388 742.25 595.863388 742.25 
z
" style="fill: #eaeaf2; opacity: 0.8; stroke: #cccccc; stroke-linejoin: miter"/>
    </g>
    <g id="line2d_19">
     <path d="M 601.363388 637.045313 
L 628.863388 637.045313 
L 656.363388 637.045313 
" style="fill: none; stroke-dasharray: 5.55,2.4; stroke-dashoffset: 0; stroke: #4c72b0; stroke-width: 1.5"/>
    </g>
    <g id="text_19">
     <!-- CE_SGD -->
     <g style="fill: #262626" transform="translate(678.363388 646.670313)scale(0.275 -0.275)">
      <defs>
       <path id="ArialMT-43" d="M 3763 1606 
L 4369 1453 
Q 4178 706 3683 314 
Q 3188 -78 2472 -78 
Q 1731 -78 1267 223 
Q 803 525 561 1097 
Q 319 1669 319 2325 
Q 319 3041 592 3573 
Q 866 4106 1370 4382 
Q 1875 4659 2481 4659 
Q 3169 4659 3637 4309 
Q 4106 3959 4291 3325 
L 3694 3184 
Q 3534 3684 3231 3912 
Q 2928 4141 2469 4141 
Q 1941 4141 1586 3887 
Q 1231 3634 1087 3207 
Q 944 2781 944 2328 
Q 944 1744 1114 1308 
Q 1284 872 1643 656 
Q 2003 441 2422 441 
Q 2931 441 3284 734 
Q 3638 1028 3763 1606 
z
" transform="scale(0.015625)"/>
       <path id="ArialMT-5f" d="M -97 -1272 
L -97 -866 
L 3631 -866 
L 3631 -1272 
L -97 -1272 
z
" transform="scale(0.015625)"/>
      </defs>
      <use xlink:href="#ArialMT-43"/>
      <use xlink:href="#ArialMT-45" x="72.216797"/>
      <use xlink:href="#ArialMT-5f" x="138.916016"/>
      <use xlink:href="#ArialMT-53" x="194.53125"/>
      <use xlink:href="#ArialMT-47" x="261.230469"/>
      <use xlink:href="#ArialMT-44" x="339.013672"/>
     </g>
    </g>
    <g id="line2d_20">
     <path d="M 601.363388 676.280078 
L 628.863388 676.280078 
L 656.363388 676.280078 
" style="fill: none; stroke-dasharray: 1.5,2.475; stroke-dashoffset: 0; stroke: #dd8452; stroke-width: 1.5"/>
    </g>
    <g id="text_20">
     <!-- Focal(Gamma = 0.5)_SGD -->
     <g style="fill: #262626" transform="translate(678.363388 685.905078)scale(0.275 -0.275)">
      <defs>
       <path id="ArialMT-46" d="M 525 0 
L 525 4581 
L 3616 4581 
L 3616 4041 
L 1131 4041 
L 1131 2622 
L 3281 2622 
L 3281 2081 
L 1131 2081 
L 1131 0 
L 525 0 
z
" transform="scale(0.015625)"/>
       <path id="ArialMT-6c" d="M 409 0 
L 409 4581 
L 972 4581 
L 972 0 
L 409 0 
z
" transform="scale(0.015625)"/>
       <path id="ArialMT-28" d="M 1497 -1347 
Q 1031 -759 709 28 
Q 388 816 388 1659 
Q 388 2403 628 3084 
Q 909 3875 1497 4659 
L 1900 4659 
Q 1522 4009 1400 3731 
Q 1209 3300 1100 2831 
Q 966 2247 966 1656 
Q 966 153 1900 -1347 
L 1497 -1347 
z
" transform="scale(0.015625)"/>
       <path id="ArialMT-3d" d="M 3381 2694 
L 356 2694 
L 356 3219 
L 3381 3219 
L 3381 2694 
z
M 3381 1303 
L 356 1303 
L 356 1828 
L 3381 1828 
L 3381 1303 
z
" transform="scale(0.015625)"/>
       <path id="ArialMT-29" d="M 791 -1347 
L 388 -1347 
Q 1322 153 1322 1656 
Q 1322 2244 1188 2822 
Q 1081 3291 891 3722 
Q 769 4003 388 4659 
L 791 4659 
Q 1378 3875 1659 3084 
Q 1900 2403 1900 1659 
Q 1900 816 1576 28 
Q 1253 -759 791 -1347 
z
" transform="scale(0.015625)"/>
      </defs>
      <use xlink:href="#ArialMT-46"/>
      <use xlink:href="#ArialMT-6f" x="61.083984"/>
      <use xlink:href="#ArialMT-63" x="116.699219"/>
      <use xlink:href="#ArialMT-61" x="166.699219"/>
      <use xlink:href="#ArialMT-6c" x="222.314453"/>
      <use xlink:href="#ArialMT-28" x="244.53125"/>
      <use xlink:href="#ArialMT-47" x="277.832031"/>
      <use xlink:href="#ArialMT-61" x="355.615234"/>
      <use xlink:href="#ArialMT-6d" x="411.230469"/>
      <use xlink:href="#ArialMT-6d" x="494.53125"/>
      <use xlink:href="#ArialMT-61" x="577.832031"/>
      <use xlink:href="#ArialMT-20" x="633.447266"/>
      <use xlink:href="#ArialMT-3d" x="661.230469"/>
      <use xlink:href="#ArialMT-20" x="719.628906"/>
      <use xlink:href="#ArialMT-30" x="747.412109"/>
      <use xlink:href="#ArialMT-2e" x="803.027344"/>
      <use xlink:href="#ArialMT-35" x="830.810547"/>
      <use xlink:href="#ArialMT-29" x="886.425781"/>
      <use xlink:href="#ArialMT-5f" x="919.726562"/>
      <use xlink:href="#ArialMT-53" x="975.341797"/>
      <use xlink:href="#ArialMT-47" x="1042.041016"/>
      <use xlink:href="#ArialMT-44" x="1119.824219"/>
     </g>
    </g>
    <g id="line2d_21">
     <path d="M 601.363388 715.837109 
L 628.863388 715.837109 
L 656.363388 715.837109 
" style="fill: none; stroke: #55a868; stroke-width: 1.5; stroke-linecap: round"/>
    </g>
    <g id="text_21">
     <!-- Focal(Gamma = 2)_SGD -->
     <g style="fill: #262626" transform="translate(678.363388 725.462109)scale(0.275 -0.275)">
      <use xlink:href="#ArialMT-46"/>
      <use xlink:href="#ArialMT-6f" x="61.083984"/>
      <use xlink:href="#ArialMT-63" x="116.699219"/>
      <use xlink:href="#ArialMT-61" x="166.699219"/>
      <use xlink:href="#ArialMT-6c" x="222.314453"/>
      <use xlink:href="#ArialMT-28" x="244.53125"/>
      <use xlink:href="#ArialMT-47" x="277.832031"/>
      <use xlink:href="#ArialMT-61" x="355.615234"/>
      <use xlink:href="#ArialMT-6d" x="411.230469"/>
      <use xlink:href="#ArialMT-6d" x="494.53125"/>
      <use xlink:href="#ArialMT-61" x="577.832031"/>
      <use xlink:href="#ArialMT-20" x="633.447266"/>
      <use xlink:href="#ArialMT-3d" x="661.230469"/>
      <use xlink:href="#ArialMT-20" x="719.628906"/>
      <use xlink:href="#ArialMT-32" x="747.412109"/>
      <use xlink:href="#ArialMT-29" x="803.027344"/>
      <use xlink:href="#ArialMT-5f" x="836.328125"/>
      <use xlink:href="#ArialMT-53" x="891.943359"/>
      <use xlink:href="#ArialMT-47" x="958.642578"/>
      <use xlink:href="#ArialMT-44" x="1036.425781"/>
     </g>
    </g>
   </g>
  </g>
  <g id="axes_2">
   <g id="patch_8">
    <path d="M 1183.090909 756 
L 1944 756 
L 1944 103.68 
L 1183.090909 103.68 
z
" style="fill: #eaeaf2"/>
   </g>
   <g id="matplotlib.axis_3">
    <g id="xtick_10">
     <g id="line2d_22">
      <path d="M 1217.677686 756 
L 1217.677686 103.68 
" clip-path="url(#p684e686dba)" style="fill: none; stroke: #ffffff; stroke-linecap: round"/>
     </g>
     <g id="text_22">
      <!-- 0 -->
      <g style="fill: #262626" transform="translate(1210.031397 785.183984)scale(0.275 -0.275)">
       <use xlink:href="#ArialMT-30"/>
      </g>
     </g>
    </g>
    <g id="xtick_11">
     <g id="line2d_23">
      <path d="M 1306.361729 756 
L 1306.361729 103.68 
" clip-path="url(#p684e686dba)" style="fill: none; stroke: #ffffff; stroke-linecap: round"/>
     </g>
     <g id="text_23">
      <!-- 5 -->
      <g style="fill: #262626" transform="translate(1298.71544 785.183984)scale(0.275 -0.275)">
       <use xlink:href="#ArialMT-35"/>
      </g>
     </g>
    </g>
    <g id="xtick_12">
     <g id="line2d_24">
      <path d="M 1395.045772 756 
L 1395.045772 103.68 
" clip-path="url(#p684e686dba)" style="fill: none; stroke: #ffffff; stroke-linecap: round"/>
     </g>
     <g id="text_24">
      <!-- 10 -->
      <g style="fill: #262626" transform="translate(1379.753194 785.183984)scale(0.275 -0.275)">
       <use xlink:href="#ArialMT-31"/>
       <use xlink:href="#ArialMT-30" x="55.615234"/>
      </g>
     </g>
    </g>
    <g id="xtick_13">
     <g id="line2d_25">
      <path d="M 1483.729816 756 
L 1483.729816 103.68 
" clip-path="url(#p684e686dba)" style="fill: none; stroke: #ffffff; stroke-linecap: round"/>
     </g>
     <g id="text_25">
      <!-- 15 -->
      <g style="fill: #262626" transform="translate(1468.437238 785.183984)scale(0.275 -0.275)">
       <use xlink:href="#ArialMT-31"/>
       <use xlink:href="#ArialMT-35" x="55.615234"/>
      </g>
     </g>
    </g>
    <g id="xtick_14">
     <g id="line2d_26">
      <path d="M 1572.413859 756 
L 1572.413859 103.68 
" clip-path="url(#p684e686dba)" style="fill: none; stroke: #ffffff; stroke-linecap: round"/>
     </g>
     <g id="text_26">
      <!-- 20 -->
      <g style="fill: #262626" transform="translate(1557.121281 785.183984)scale(0.275 -0.275)">
       <use xlink:href="#ArialMT-32"/>
       <use xlink:href="#ArialMT-30" x="55.615234"/>
      </g>
     </g>
    </g>
    <g id="xtick_15">
     <g id="line2d_27">
      <path d="M 1661.097902 756 
L 1661.097902 103.68 
" clip-path="url(#p684e686dba)" style="fill: none; stroke: #ffffff; stroke-linecap: round"/>
     </g>
     <g id="text_27">
      <!-- 25 -->
      <g style="fill: #262626" transform="translate(1645.805324 785.183984)scale(0.275 -0.275)">
       <use xlink:href="#ArialMT-32"/>
       <use xlink:href="#ArialMT-35" x="55.615234"/>
      </g>
     </g>
    </g>
    <g id="xtick_16">
     <g id="line2d_28">
      <path d="M 1749.781945 756 
L 1749.781945 103.68 
" clip-path="url(#p684e686dba)" style="fill: none; stroke: #ffffff; stroke-linecap: round"/>
     </g>
     <g id="text_28">
      <!-- 30 -->
      <g style="fill: #262626" transform="translate(1734.489367 785.183984)scale(0.275 -0.275)">
       <use xlink:href="#ArialMT-33"/>
       <use xlink:href="#ArialMT-30" x="55.615234"/>
      </g>
     </g>
    </g>
    <g id="xtick_17">
     <g id="line2d_29">
      <path d="M 1838.465989 756 
L 1838.465989 103.68 
" clip-path="url(#p684e686dba)" style="fill: none; stroke: #ffffff; stroke-linecap: round"/>
     </g>
     <g id="text_29">
      <!-- 35 -->
      <g style="fill: #262626" transform="translate(1823.17341 785.183984)scale(0.275 -0.275)">
       <use xlink:href="#ArialMT-33"/>
       <use xlink:href="#ArialMT-35" x="55.615234"/>
      </g>
     </g>
    </g>
    <g id="xtick_18">
     <g id="line2d_30">
      <path d="M 1927.150032 756 
L 1927.150032 103.68 
" clip-path="url(#p684e686dba)" style="fill: none; stroke: #ffffff; stroke-linecap: round"/>
     </g>
     <g id="text_30">
      <!-- 40 -->
      <g style="fill: #262626" transform="translate(1911.857454 785.183984)scale(0.275 -0.275)">
       <use xlink:href="#ArialMT-34"/>
       <use xlink:href="#ArialMT-30" x="55.615234"/>
      </g>
     </g>
    </g>
    <g id="text_31">
     <!-- Epoch -->
     <g style="fill: #262626" transform="translate(1521.015767 816.123047)scale(0.3 -0.3)">
      <use xlink:href="#ArialMT-45"/>
      <use xlink:href="#ArialMT-70" x="66.699219"/>
      <use xlink:href="#ArialMT-6f" x="122.314453"/>
      <use xlink:href="#ArialMT-63" x="177.929688"/>
      <use xlink:href="#ArialMT-68" x="227.929688"/>
     </g>
    </g>
   </g>
   <g id="matplotlib.axis_4">
    <g id="ytick_7">
     <g id="line2d_31">
      <path d="M 1183.090909 640.871453 
L 1944 640.871453 
" clip-path="url(#p684e686dba)" style="fill: none; stroke: #ffffff; stroke-linecap: round"/>
     </g>
     <g id="text_32">
      <!-- -0.10 -->
      <g style="fill: #262626" transform="translate(1110.91669 650.713445)scale(0.275 -0.275)">
       <use xlink:href="#ArialMT-2d"/>
       <use xlink:href="#ArialMT-30" x="33.300781"/>
       <use xlink:href="#ArialMT-2e" x="88.916016"/>
       <use xlink:href="#ArialMT-31" x="116.699219"/>
       <use xlink:href="#ArialMT-30" x="172.314453"/>
      </g>
     </g>
    </g>
    <g id="ytick_8">
     <g id="line2d_32">
      <path d="M 1183.090909 504.325705 
L 1944 504.325705 
" clip-path="url(#p684e686dba)" style="fill: none; stroke: #ffffff; stroke-linecap: round"/>
     </g>
     <g id="text_33">
      <!-- -0.08 -->
      <g style="fill: #262626" transform="translate(1110.91669 514.167698)scale(0.275 -0.275)">
       <use xlink:href="#ArialMT-2d"/>
       <use xlink:href="#ArialMT-30" x="33.300781"/>
       <use xlink:href="#ArialMT-2e" x="88.916016"/>
       <use xlink:href="#ArialMT-30" x="116.699219"/>
       <use xlink:href="#ArialMT-38" x="172.314453"/>
      </g>
     </g>
    </g>
    <g id="ytick_9">
     <g id="line2d_33">
      <path d="M 1183.090909 367.779958 
L 1944 367.779958 
" clip-path="url(#p684e686dba)" style="fill: none; stroke: #ffffff; stroke-linecap: round"/>
     </g>
     <g id="text_34">
      <!-- -0.06 -->
      <g style="fill: #262626" transform="translate(1110.91669 377.62195)scale(0.275 -0.275)">
       <use xlink:href="#ArialMT-2d"/>
       <use xlink:href="#ArialMT-30" x="33.300781"/>
       <use xlink:href="#ArialMT-2e" x="88.916016"/>
       <use xlink:href="#ArialMT-30" x="116.699219"/>
       <use xlink:href="#ArialMT-36" x="172.314453"/>
      </g>
     </g>
    </g>
    <g id="ytick_10">
     <g id="line2d_34">
      <path d="M 1183.090909 231.23421 
L 1944 231.23421 
" clip-path="url(#p684e686dba)" style="fill: none; stroke: #ffffff; stroke-linecap: round"/>
     </g>
     <g id="text_35">
      <!-- -0.04 -->
      <g style="fill: #262626" transform="translate(1110.91669 241.076202)scale(0.275 -0.275)">
       <use xlink:href="#ArialMT-2d"/>
       <use xlink:href="#ArialMT-30" x="33.300781"/>
       <use xlink:href="#ArialMT-2e" x="88.916016"/>
       <use xlink:href="#ArialMT-30" x="116.699219"/>
       <use xlink:href="#ArialMT-34" x="172.314453"/>
      </g>
     </g>
    </g>
    <g id="text_36">
     <!-- Distance -->
     <g style="fill: #262626" transform="translate(1100.95419 488.197031)rotate(-90)scale(0.3 -0.3)">
      <use xlink:href="#ArialMT-44"/>
      <use xlink:href="#ArialMT-69" x="72.216797"/>
      <use xlink:href="#ArialMT-73" x="94.433594"/>
      <use xlink:href="#ArialMT-74" x="144.433594"/>
      <use xlink:href="#ArialMT-61" x="172.216797"/>
      <use xlink:href="#ArialMT-6e" x="227.832031"/>
      <use xlink:href="#ArialMT-63" x="283.447266"/>
      <use xlink:href="#ArialMT-65" x="333.447266"/>
     </g>
    </g>
   </g>
   <g id="line2d_35">
    <path d="M 1217.677686 726.349091 
L 1235.414495 348.663553 
L 1253.151303 312.752021 
L 1270.888112 283.667777 
L 1288.624921 254.173896 
L 1306.361729 227.274383 
L 1324.098538 306.607463 
L 1341.835346 303.057273 
L 1359.572155 272.33448 
L 1377.308964 323.266044 
L 1395.045772 290.358519 
L 1412.782581 253.218075 
L 1430.51939 270.832477 
L 1448.256198 231.916939 
L 1465.993007 213.756354 
L 1483.729816 229.049478 
L 1501.466624 227.957112 
L 1519.203433 253.764258 
L 1536.940242 287.76415 
L 1554.67705 220.174005 
L 1572.413859 221.129825 
L 1590.150668 249.53134 
L 1607.887476 213.210171 
L 1625.624285 229.049478 
L 1643.361093 133.330909 
L 1661.097902 224.133831 
L 1678.834711 264.824464 
L 1696.571519 258.406814 
L 1714.308328 268.374653 
L 1732.045137 207.065613 
L 1749.781945 245.571514 
L 1767.518754 172.929176 
L 1785.255563 230.414936 
L 1802.992371 206.382884 
L 1820.72918 224.543468 
L 1838.465989 240.246229 
L 1856.202797 228.639841 
L 1873.939606 256.358628 
L 1891.676414 217.989273 
L 1909.413223 198.190139 
" clip-path="url(#p684e686dba)" style="fill: none; stroke-dasharray: 5.55,2.4; stroke-dashoffset: 0; stroke: #4c72b0; stroke-width: 1.5"/>
   </g>
   <g id="line2d_36">
    <path d="M 1217.677686 706.823049 
L 1235.414495 244.342602 
L 1253.151303 362.727765 
L 1270.888112 321.900587 
L 1288.624921 357.675572 
L 1306.361729 332.824246 
L 1324.098538 312.205838 
L 1341.835346 248.57552 
L 1359.572155 303.057273 
L 1377.308964 243.796419 
L 1395.045772 293.908708 
L 1412.782581 235.194037 
L 1430.51939 271.242114 
L 1448.256198 204.744335 
L 1465.993007 160.640059 
L 1483.729816 226.7282 
L 1501.466624 191.08976 
L 1519.203433 274.928849 
L 1536.940242 197.370865 
L 1554.67705 256.904811 
L 1572.413859 274.519212 
L 1590.150668 208.567616 
L 1607.887476 218.39891 
L 1625.624285 253.900804 
L 1643.361093 234.7844 
L 1661.097902 220.583642 
L 1678.834711 228.093658 
L 1696.571519 244.206056 
L 1714.308328 242.294416 
L 1732.045137 275.201941 
L 1749.781945 257.860631 
L 1767.518754 232.053485 
L 1785.255563 246.66388 
L 1802.992371 221.812554 
L 1820.72918 262.639732 
L 1838.465989 274.928849 
L 1856.202797 201.467237 
L 1873.939606 243.659873 
L 1891.676414 223.178011 
L 1909.413223 279.844496 
" clip-path="url(#p684e686dba)" style="fill: none; stroke-dasharray: 1.5,2.475; stroke-dashoffset: 0; stroke: #dd8452; stroke-width: 1.5"/>
   </g>
   <g id="line2d_37">
    <path d="M 1217.677686 585.297334 
L 1235.414495 291.587431 
L 1253.151303 293.362525 
L 1270.888112 313.707842 
L 1288.624921 265.507193 
L 1306.361729 286.125601 
L 1324.098538 229.595661 
L 1341.835346 280.800316 
L 1359.572155 319.8524 
L 1377.308964 290.221973 
L 1395.045772 256.495173 
L 1412.782581 236.013311 
L 1430.51939 217.306544 
L 1448.256198 250.760252 
L 1465.993007 186.856842 
L 1483.729816 193.274492 
L 1501.466624 301.145633 
L 1519.203433 240.655867 
L 1536.940242 242.021324 
L 1554.67705 233.965125 
L 1572.413859 236.559494 
L 1590.150668 213.483263 
L 1607.887476 254.173896 
L 1625.624285 250.350615 
L 1643.361093 285.033235 
L 1661.097902 212.663988 
L 1678.834711 168.423166 
L 1696.571519 226.864746 
L 1714.308328 214.302537 
L 1732.045137 228.639841 
L 1749.781945 236.832586 
L 1767.518754 225.635834 
L 1785.255563 242.294416 
L 1802.992371 258.952997 
L 1820.72918 187.812662 
L 1838.465989 224.270377 
L 1856.202797 227.820566 
L 1873.939606 256.768265 
L 1891.676414 232.053485 
L 1909.413223 216.623815 
" clip-path="url(#p684e686dba)" style="fill: none; stroke: #55a868; stroke-width: 1.5; stroke-linecap: round"/>
   </g>
   <g id="patch_9">
    <path d="M 1183.090909 756 
L 1183.090909 103.68 
" style="fill: none; stroke: #ffffff; stroke-width: 1.25; stroke-linejoin: miter; stroke-linecap: square"/>
   </g>
   <g id="patch_10">
    <path d="M 1944 756 
L 1944 103.68 
" style="fill: none; stroke: #ffffff; stroke-width: 1.25; stroke-linejoin: miter; stroke-linecap: square"/>
   </g>
   <g id="patch_11">
    <path d="M 1183.090909 756 
L 1944 756 
" style="fill: none; stroke: #ffffff; stroke-width: 1.25; stroke-linejoin: miter; stroke-linecap: square"/>
   </g>
   <g id="patch_12">
    <path d="M 1183.090909 103.68 
L 1944 103.68 
" style="fill: none; stroke: #ffffff; stroke-width: 1.25; stroke-linejoin: miter; stroke-linecap: square"/>
   </g>
   <g id="text_37">
    <!-- Distance in Adam optimizer -->
    <g style="fill: #262626" transform="translate(1381.808736 97.68)scale(0.3 -0.3)">
     <defs>
      <path id="ArialMT-41" d="M -9 0 
L 1750 4581 
L 2403 4581 
L 4278 0 
L 3588 0 
L 3053 1388 
L 1138 1388 
L 634 0 
L -9 0 
z
M 1313 1881 
L 2866 1881 
L 2388 3150 
Q 2169 3728 2063 4100 
Q 1975 3659 1816 3225 
L 1313 1881 
z
" transform="scale(0.015625)"/>
      <path id="ArialMT-64" d="M 2575 0 
L 2575 419 
Q 2259 -75 1647 -75 
Q 1250 -75 917 144 
Q 584 363 401 755 
Q 219 1147 219 1656 
Q 219 2153 384 2558 
Q 550 2963 881 3178 
Q 1213 3394 1622 3394 
Q 1922 3394 2156 3267 
Q 2391 3141 2538 2938 
L 2538 4581 
L 3097 4581 
L 3097 0 
L 2575 0 
z
M 797 1656 
Q 797 1019 1065 703 
Q 1334 388 1700 388 
Q 2069 388 2326 689 
Q 2584 991 2584 1609 
Q 2584 2291 2321 2609 
Q 2059 2928 1675 2928 
Q 1300 2928 1048 2622 
Q 797 2316 797 1656 
z
" transform="scale(0.015625)"/>
     </defs>
     <use xlink:href="#ArialMT-44"/>
     <use xlink:href="#ArialMT-69" x="72.216797"/>
     <use xlink:href="#ArialMT-73" x="94.433594"/>
     <use xlink:href="#ArialMT-74" x="144.433594"/>
     <use xlink:href="#ArialMT-61" x="172.216797"/>
     <use xlink:href="#ArialMT-6e" x="227.832031"/>
     <use xlink:href="#ArialMT-63" x="283.447266"/>
     <use xlink:href="#ArialMT-65" x="333.447266"/>
     <use xlink:href="#ArialMT-20" x="389.0625"/>
     <use xlink:href="#ArialMT-69" x="416.845703"/>
     <use xlink:href="#ArialMT-6e" x="439.0625"/>
     <use xlink:href="#ArialMT-20" x="494.677734"/>
     <use xlink:href="#ArialMT-41" x="516.960938"/>
     <use xlink:href="#ArialMT-64" x="583.660156"/>
     <use xlink:href="#ArialMT-61" x="639.275391"/>
     <use xlink:href="#ArialMT-6d" x="694.890625"/>
     <use xlink:href="#ArialMT-20" x="778.191406"/>
     <use xlink:href="#ArialMT-6f" x="805.974609"/>
     <use xlink:href="#ArialMT-70" x="861.589844"/>
     <use xlink:href="#ArialMT-74" x="917.205078"/>
     <use xlink:href="#ArialMT-69" x="944.988281"/>
     <use xlink:href="#ArialMT-6d" x="967.205078"/>
     <use xlink:href="#ArialMT-69" x="1050.505859"/>
     <use xlink:href="#ArialMT-7a" x="1072.722656"/>
     <use xlink:href="#ArialMT-65" x="1122.722656"/>
     <use xlink:href="#ArialMT-72" x="1178.337891"/>
    </g>
   </g>
   <g id="legend_2">
    <g id="patch_13">
     <path d="M 1496.7125 742.25 
L 1924.75 742.25 
Q 1930.25 742.25 1930.25 736.75 
L 1930.25 621.151172 
Q 1930.25 615.651172 1924.75 615.651172 
L 1496.7125 615.651172 
Q 1491.2125 615.651172 1491.2125 621.151172 
L 1491.2125 736.75 
Q 1491.2125 742.25 1496.7125 742.25 
z
" style="fill: #eaeaf2; opacity: 0.8; stroke: #cccccc; stroke-linejoin: miter"/>
    </g>
    <g id="line2d_38">
     <path d="M 1502.2125 637.045313 
L 1529.7125 637.045313 
L 1557.2125 637.045313 
" style="fill: none; stroke-dasharray: 5.55,2.4; stroke-dashoffset: 0; stroke: #4c72b0; stroke-width: 1.5"/>
    </g>
    <g id="text_38">
     <!-- CE_Adam -->
     <g style="fill: #262626" transform="translate(1579.2125 646.670313)scale(0.275 -0.275)">
      <use xlink:href="#ArialMT-43"/>
      <use xlink:href="#ArialMT-45" x="72.216797"/>
      <use xlink:href="#ArialMT-5f" x="138.916016"/>
      <use xlink:href="#ArialMT-41" x="194.53125"/>
      <use xlink:href="#ArialMT-64" x="261.230469"/>
      <use xlink:href="#ArialMT-61" x="316.845703"/>
      <use xlink:href="#ArialMT-6d" x="372.460938"/>
     </g>
    </g>
    <g id="line2d_39">
     <path d="M 1502.2125 676.280078 
L 1529.7125 676.280078 
L 1557.2125 676.280078 
" style="fill: none; stroke-dasharray: 1.5,2.475; stroke-dashoffset: 0; stroke: #dd8452; stroke-width: 1.5"/>
    </g>
    <g id="text_39">
     <!-- Focal(Gamma = 0.5)_Adam -->
     <g style="fill: #262626" transform="translate(1579.2125 685.905078)scale(0.275 -0.275)">
      <use xlink:href="#ArialMT-46"/>
      <use xlink:href="#ArialMT-6f" x="61.083984"/>
      <use xlink:href="#ArialMT-63" x="116.699219"/>
      <use xlink:href="#ArialMT-61" x="166.699219"/>
      <use xlink:href="#ArialMT-6c" x="222.314453"/>
      <use xlink:href="#ArialMT-28" x="244.53125"/>
      <use xlink:href="#ArialMT-47" x="277.832031"/>
      <use xlink:href="#ArialMT-61" x="355.615234"/>
      <use xlink:href="#ArialMT-6d" x="411.230469"/>
      <use xlink:href="#ArialMT-6d" x="494.53125"/>
      <use xlink:href="#ArialMT-61" x="577.832031"/>
      <use xlink:href="#ArialMT-20" x="633.447266"/>
      <use xlink:href="#ArialMT-3d" x="661.230469"/>
      <use xlink:href="#ArialMT-20" x="719.628906"/>
      <use xlink:href="#ArialMT-30" x="747.412109"/>
      <use xlink:href="#ArialMT-2e" x="803.027344"/>
      <use xlink:href="#ArialMT-35" x="830.810547"/>
      <use xlink:href="#ArialMT-29" x="886.425781"/>
      <use xlink:href="#ArialMT-5f" x="919.726562"/>
      <use xlink:href="#ArialMT-41" x="975.341797"/>
      <use xlink:href="#ArialMT-64" x="1042.041016"/>
      <use xlink:href="#ArialMT-61" x="1097.65625"/>
      <use xlink:href="#ArialMT-6d" x="1153.271484"/>
     </g>
    </g>
    <g id="line2d_40">
     <path d="M 1502.2125 715.837109 
L 1529.7125 715.837109 
L 1557.2125 715.837109 
" style="fill: none; stroke: #55a868; stroke-width: 1.5; stroke-linecap: round"/>
    </g>
    <g id="text_40">
     <!-- Focal(Gamma = 2)_Adam -->
     <g style="fill: #262626" transform="translate(1579.2125 725.462109)scale(0.275 -0.275)">
      <use xlink:href="#ArialMT-46"/>
      <use xlink:href="#ArialMT-6f" x="61.083984"/>
      <use xlink:href="#ArialMT-63" x="116.699219"/>
      <use xlink:href="#ArialMT-61" x="166.699219"/>
      <use xlink:href="#ArialMT-6c" x="222.314453"/>
      <use xlink:href="#ArialMT-28" x="244.53125"/>
      <use xlink:href="#ArialMT-47" x="277.832031"/>
      <use xlink:href="#ArialMT-61" x="355.615234"/>
      <use xlink:href="#ArialMT-6d" x="411.230469"/>
      <use xlink:href="#ArialMT-6d" x="494.53125"/>
      <use xlink:href="#ArialMT-61" x="577.832031"/>
      <use xlink:href="#ArialMT-20" x="633.447266"/>
      <use xlink:href="#ArialMT-3d" x="661.230469"/>
      <use xlink:href="#ArialMT-20" x="719.628906"/>
      <use xlink:href="#ArialMT-32" x="747.412109"/>
      <use xlink:href="#ArialMT-29" x="803.027344"/>
      <use xlink:href="#ArialMT-5f" x="836.328125"/>
      <use xlink:href="#ArialMT-41" x="891.943359"/>
      <use xlink:href="#ArialMT-64" x="958.642578"/>
      <use xlink:href="#ArialMT-61" x="1014.257812"/>
      <use xlink:href="#ArialMT-6d" x="1069.873047"/>
     </g>
    </g>
   </g>
  </g>
  <g id="text_41">
   <!-- Distance between training acc and test acc of different loss functions in distinct optimizers -->
   <g style="fill: #262626" transform="translate(287.78125 46.39875)scale(0.4 -0.4)">
    <defs>
     <path id="ArialMT-62" d="M 941 0 
L 419 0 
L 419 4581 
L 981 4581 
L 981 2947 
Q 1338 3394 1891 3394 
Q 2197 3394 2470 3270 
Q 2744 3147 2920 2923 
Q 3097 2700 3197 2384 
Q 3297 2069 3297 1709 
Q 3297 856 2875 390 
Q 2453 -75 1863 -75 
Q 1275 -75 941 416 
L 941 0 
z
M 934 1684 
Q 934 1088 1097 822 
Q 1363 388 1816 388 
Q 2184 388 2453 708 
Q 2722 1028 2722 1663 
Q 2722 2313 2464 2622 
Q 2206 2931 1841 2931 
Q 1472 2931 1203 2611 
Q 934 2291 934 1684 
z
" transform="scale(0.015625)"/>
     <path id="ArialMT-77" d="M 1034 0 
L 19 3319 
L 600 3319 
L 1128 1403 
L 1325 691 
Q 1338 744 1497 1375 
L 2025 3319 
L 2603 3319 
L 3100 1394 
L 3266 759 
L 3456 1400 
L 4025 3319 
L 4572 3319 
L 3534 0 
L 2950 0 
L 2422 1988 
L 2294 2553 
L 1622 0 
L 1034 0 
z
" transform="scale(0.015625)"/>
     <path id="ArialMT-67" d="M 319 -275 
L 866 -356 
Q 900 -609 1056 -725 
Q 1266 -881 1628 -881 
Q 2019 -881 2231 -725 
Q 2444 -569 2519 -288 
Q 2563 -116 2559 434 
Q 2191 0 1641 0 
Q 956 0 581 494 
Q 206 988 206 1678 
Q 206 2153 378 2554 
Q 550 2956 876 3175 
Q 1203 3394 1644 3394 
Q 2231 3394 2613 2919 
L 2613 3319 
L 3131 3319 
L 3131 450 
Q 3131 -325 2973 -648 
Q 2816 -972 2473 -1159 
Q 2131 -1347 1631 -1347 
Q 1038 -1347 672 -1080 
Q 306 -813 319 -275 
z
M 784 1719 
Q 784 1066 1043 766 
Q 1303 466 1694 466 
Q 2081 466 2343 764 
Q 2606 1063 2606 1700 
Q 2606 2309 2336 2618 
Q 2066 2928 1684 2928 
Q 1309 2928 1046 2623 
Q 784 2319 784 1719 
z
" transform="scale(0.015625)"/>
     <path id="ArialMT-66" d="M 556 0 
L 556 2881 
L 59 2881 
L 59 3319 
L 556 3319 
L 556 3672 
Q 556 4006 616 4169 
Q 697 4388 901 4523 
Q 1106 4659 1475 4659 
Q 1713 4659 2000 4603 
L 1916 4113 
Q 1741 4144 1584 4144 
Q 1328 4144 1222 4034 
Q 1116 3925 1116 3625 
L 1116 3319 
L 1763 3319 
L 1763 2881 
L 1116 2881 
L 1116 0 
L 556 0 
z
" transform="scale(0.015625)"/>
     <path id="ArialMT-75" d="M 2597 0 
L 2597 488 
Q 2209 -75 1544 -75 
Q 1250 -75 995 37 
Q 741 150 617 320 
Q 494 491 444 738 
Q 409 903 409 1263 
L 409 3319 
L 972 3319 
L 972 1478 
Q 972 1038 1006 884 
Q 1059 663 1231 536 
Q 1403 409 1656 409 
Q 1909 409 2131 539 
Q 2353 669 2445 892 
Q 2538 1116 2538 1541 
L 2538 3319 
L 3100 3319 
L 3100 0 
L 2597 0 
z
" transform="scale(0.015625)"/>
    </defs>
    <use xlink:href="#ArialMT-44"/>
    <use xlink:href="#ArialMT-69" x="72.216797"/>
    <use xlink:href="#ArialMT-73" x="94.433594"/>
    <use xlink:href="#ArialMT-74" x="144.433594"/>
    <use xlink:href="#ArialMT-61" x="172.216797"/>
    <use xlink:href="#ArialMT-6e" x="227.832031"/>
    <use xlink:href="#ArialMT-63" x="283.447266"/>
    <use xlink:href="#ArialMT-65" x="333.447266"/>
    <use xlink:href="#ArialMT-20" x="389.0625"/>
    <use xlink:href="#ArialMT-62" x="416.845703"/>
    <use xlink:href="#ArialMT-65" x="472.460938"/>
    <use xlink:href="#ArialMT-74" x="528.076172"/>
    <use xlink:href="#ArialMT-77" x="555.859375"/>
    <use xlink:href="#ArialMT-65" x="628.076172"/>
    <use xlink:href="#ArialMT-65" x="683.691406"/>
    <use xlink:href="#ArialMT-6e" x="739.306641"/>
    <use xlink:href="#ArialMT-20" x="794.921875"/>
    <use xlink:href="#ArialMT-74" x="822.705078"/>
    <use xlink:href="#ArialMT-72" x="850.488281"/>
    <use xlink:href="#ArialMT-61" x="883.789062"/>
    <use xlink:href="#ArialMT-69" x="939.404297"/>
    <use xlink:href="#ArialMT-6e" x="961.621094"/>
    <use xlink:href="#ArialMT-69" x="1017.236328"/>
    <use xlink:href="#ArialMT-6e" x="1039.453125"/>
    <use xlink:href="#ArialMT-67" x="1095.068359"/>
    <use xlink:href="#ArialMT-20" x="1150.683594"/>
    <use xlink:href="#ArialMT-61" x="1178.466797"/>
    <use xlink:href="#ArialMT-63" x="1234.082031"/>
    <use xlink:href="#ArialMT-63" x="1284.082031"/>
    <use xlink:href="#ArialMT-20" x="1334.082031"/>
    <use xlink:href="#ArialMT-61" x="1361.865234"/>
    <use xlink:href="#ArialMT-6e" x="1417.480469"/>
    <use xlink:href="#ArialMT-64" x="1473.095703"/>
    <use xlink:href="#ArialMT-20" x="1528.710938"/>
    <use xlink:href="#ArialMT-74" x="1556.494141"/>
    <use xlink:href="#ArialMT-65" x="1584.277344"/>
    <use xlink:href="#ArialMT-73" x="1639.892578"/>
    <use xlink:href="#ArialMT-74" x="1689.892578"/>
    <use xlink:href="#ArialMT-20" x="1717.675781"/>
    <use xlink:href="#ArialMT-61" x="1745.458984"/>
    <use xlink:href="#ArialMT-63" x="1801.074219"/>
    <use xlink:href="#ArialMT-63" x="1851.074219"/>
    <use xlink:href="#ArialMT-20" x="1901.074219"/>
    <use xlink:href="#ArialMT-6f" x="1928.857422"/>
    <use xlink:href="#ArialMT-66" x="1984.472656"/>
    <use xlink:href="#ArialMT-20" x="2012.255859"/>
    <use xlink:href="#ArialMT-64" x="2040.039062"/>
    <use xlink:href="#ArialMT-69" x="2095.654297"/>
    <use xlink:href="#ArialMT-66" x="2117.871094"/>
    <use xlink:href="#ArialMT-66" x="2143.904297"/>
    <use xlink:href="#ArialMT-65" x="2171.6875"/>
    <use xlink:href="#ArialMT-72" x="2227.302734"/>
    <use xlink:href="#ArialMT-65" x="2260.603516"/>
    <use xlink:href="#ArialMT-6e" x="2316.21875"/>
    <use xlink:href="#ArialMT-74" x="2371.833984"/>
    <use xlink:href="#ArialMT-20" x="2399.617188"/>
    <use xlink:href="#ArialMT-6c" x="2427.400391"/>
    <use xlink:href="#ArialMT-6f" x="2449.617188"/>
    <use xlink:href="#ArialMT-73" x="2505.232422"/>
    <use xlink:href="#ArialMT-73" x="2555.232422"/>
    <use xlink:href="#ArialMT-20" x="2605.232422"/>
    <use xlink:href="#ArialMT-66" x="2633.015625"/>
    <use xlink:href="#ArialMT-75" x="2660.798828"/>
    <use xlink:href="#ArialMT-6e" x="2716.414062"/>
    <use xlink:href="#ArialMT-63" x="2772.029297"/>
    <use xlink:href="#ArialMT-74" x="2822.029297"/>
    <use xlink:href="#ArialMT-69" x="2849.8125"/>
    <use xlink:href="#ArialMT-6f" x="2872.029297"/>
    <use xlink:href="#ArialMT-6e" x="2927.644531"/>
    <use xlink:href="#ArialMT-73" x="2983.259766"/>
    <use xlink:href="#ArialMT-20" x="3033.259766"/>
    <use xlink:href="#ArialMT-69" x="3061.042969"/>
    <use xlink:href="#ArialMT-6e" x="3083.259766"/>
    <use xlink:href="#ArialMT-20" x="3138.875"/>
    <use xlink:href="#ArialMT-64" x="3166.658203"/>
    <use xlink:href="#ArialMT-69" x="3222.273438"/>
    <use xlink:href="#ArialMT-73" x="3244.490234"/>
    <use xlink:href="#ArialMT-74" x="3294.490234"/>
    <use xlink:href="#ArialMT-69" x="3322.273438"/>
    <use xlink:href="#ArialMT-6e" x="3344.490234"/>
    <use xlink:href="#ArialMT-63" x="3400.105469"/>
    <use xlink:href="#ArialMT-74" x="3450.105469"/>
    <use xlink:href="#ArialMT-20" x="3477.888672"/>
    <use xlink:href="#ArialMT-6f" x="3505.671875"/>
    <use xlink:href="#ArialMT-70" x="3561.287109"/>
    <use xlink:href="#ArialMT-74" x="3616.902344"/>
    <use xlink:href="#ArialMT-69" x="3644.685547"/>
    <use xlink:href="#ArialMT-6d" x="3666.902344"/>
    <use xlink:href="#ArialMT-69" x="3750.203125"/>
    <use xlink:href="#ArialMT-7a" x="3772.419922"/>
    <use xlink:href="#ArialMT-65" x="3822.419922"/>
    <use xlink:href="#ArialMT-72" x="3878.035156"/>
    <use xlink:href="#ArialMT-73" x="3911.335938"/>
   </g>
  </g>
 </g>
 <defs>
  <clipPath id="pca4abc8ef0">
   <rect x="270" y="103.68" width="760.909091" height="652.32"/>
  </clipPath>
  <clipPath id="p684e686dba">
   <rect x="1183.090909" y="103.68" width="760.909091" height="652.32"/>
  </clipPath>
 </defs>
</svg>
