<?xml version="1.0" encoding="utf-8" standalone="no"?>
<!DOCTYPE svg PUBLIC "-//W3C//DTD SVG 1.1//EN"
  "http://www.w3.org/Graphics/SVG/1.1/DTD/svg11.dtd">
<svg xmlns:xlink="http://www.w3.org/1999/xlink" width="2160pt" height="1080pt" viewBox="0 0 2160 1080" xmlns="http://www.w3.org/2000/svg" version="1.1">
 <metadata>
  <rdf:RDF xmlns:dc="http://purl.org/dc/elements/1.1/" xmlns:cc="http://creativecommons.org/ns#" xmlns:rdf="http://www.w3.org/1999/02/22-rdf-syntax-ns#">
   <cc:Work>
    <dc:type rdf:resource="http://purl.org/dc/dcmitype/StillImage"/>
    <dc:date>2023-10-27T14:20:53.083886</dc:date>
    <dc:format>image/svg+xml</dc:format>
    <dc:creator>
     <cc:Agent>
      <dc:title>Matplotlib v3.7.3, https://matplotlib.org/</dc:title>
     </cc:Agent>
    </dc:creator>
   </cc:Work>
  </rdf:RDF>
 </metadata>
 <defs>
  <style type="text/css">*{stroke-linejoin: round; stroke-linecap: butt}</style>
 </defs>
 <g id="figure_1">
  <g id="patch_1">
   <path d="M 0 1080 
L 2160 1080 
L 2160 0 
L 0 0 
z
" style="fill: #ffffff"/>
  </g>
  <g id="axes_1">
   <g id="patch_2">
    <path d="M 270 961.2 
L 1030.909091 961.2 
L 1030.909091 129.6 
L 270 129.6 
z
" style="fill: #eaeaf2"/>
   </g>
   <g id="matplotlib.axis_1">
    <g id="xtick_1">
     <g id="line2d_1">
      <path d="M 304.586777 961.2 
L 304.586777 129.6 
" clip-path="url(#p1dc9b42d99)" style="fill: none; stroke: #ffffff; stroke-linecap: round"/>
     </g>
     <g id="text_1">
      <!-- 0 -->
      <g style="fill: #262626" transform="translate(295.838339 991.595703) scale(0.275 -0.275)">
       <defs>
        <path id="DejaVuSans-30" d="M 2034 4250 
Q 1547 4250 1301 3770 
Q 1056 3291 1056 2328 
Q 1056 1369 1301 889 
Q 1547 409 2034 409 
Q 2525 409 2770 889 
Q 3016 1369 3016 2328 
Q 3016 3291 2770 3770 
Q 2525 4250 2034 4250 
z
M 2034 4750 
Q 2819 4750 3233 4129 
Q 3647 3509 3647 2328 
Q 3647 1150 3233 529 
Q 2819 -91 2034 -91 
Q 1250 -91 836 529 
Q 422 1150 422 2328 
Q 422 3509 836 4129 
Q 1250 4750 2034 4750 
z
" transform="scale(0.015625)"/>
       </defs>
       <use xlink:href="#DejaVuSans-30"/>
      </g>
     </g>
    </g>
    <g id="xtick_2">
     <g id="line2d_2">
      <path d="M 393.27082 961.2 
L 393.27082 129.6 
" clip-path="url(#p1dc9b42d99)" style="fill: none; stroke: #ffffff; stroke-linecap: round"/>
     </g>
     <g id="text_2">
      <!-- 5 -->
      <g style="fill: #262626" transform="translate(384.522383 991.595703) scale(0.275 -0.275)">
       <defs>
        <path id="DejaVuSans-35" d="M 691 4666 
L 3169 4666 
L 3169 4134 
L 1269 4134 
L 1269 2991 
Q 1406 3038 1543 3061 
Q 1681 3084 1819 3084 
Q 2600 3084 3056 2656 
Q 3513 2228 3513 1497 
Q 3513 744 3044 326 
Q 2575 -91 1722 -91 
Q 1428 -91 1123 -41 
Q 819 9 494 109 
L 494 744 
Q 775 591 1075 516 
Q 1375 441 1709 441 
Q 2250 441 2565 725 
Q 2881 1009 2881 1497 
Q 2881 1984 2565 2268 
Q 2250 2553 1709 2553 
Q 1456 2553 1204 2497 
Q 953 2441 691 2322 
L 691 4666 
z
" transform="scale(0.015625)"/>
       </defs>
       <use xlink:href="#DejaVuSans-35"/>
      </g>
     </g>
    </g>
    <g id="xtick_3">
     <g id="line2d_3">
      <path d="M 481.954863 961.2 
L 481.954863 129.6 
" clip-path="url(#p1dc9b42d99)" style="fill: none; stroke: #ffffff; stroke-linecap: round"/>
     </g>
     <g id="text_3">
      <!-- 10 -->
      <g style="fill: #262626" transform="translate(464.457988 991.595703) scale(0.275 -0.275)">
       <defs>
        <path id="DejaVuSans-31" d="M 794 531 
L 1825 531 
L 1825 4091 
L 703 3866 
L 703 4441 
L 1819 4666 
L 2450 4666 
L 2450 531 
L 3481 531 
L 3481 0 
L 794 0 
L 794 531 
z
" transform="scale(0.015625)"/>
       </defs>
       <use xlink:href="#DejaVuSans-31"/>
       <use xlink:href="#DejaVuSans-30" x="63.623047"/>
      </g>
     </g>
    </g>
    <g id="xtick_4">
     <g id="line2d_4">
      <path d="M 570.638907 961.2 
L 570.638907 129.6 
" clip-path="url(#p1dc9b42d99)" style="fill: none; stroke: #ffffff; stroke-linecap: round"/>
     </g>
     <g id="text_4">
      <!-- 15 -->
      <g style="fill: #262626" transform="translate(553.142032 991.595703) scale(0.275 -0.275)">
       <use xlink:href="#DejaVuSans-31"/>
       <use xlink:href="#DejaVuSans-35" x="63.623047"/>
      </g>
     </g>
    </g>
    <g id="xtick_5">
     <g id="line2d_5">
      <path d="M 659.32295 961.2 
L 659.32295 129.6 
" clip-path="url(#p1dc9b42d99)" style="fill: none; stroke: #ffffff; stroke-linecap: round"/>
     </g>
     <g id="text_5">
      <!-- 20 -->
      <g style="fill: #262626" transform="translate(641.826075 991.595703) scale(0.275 -0.275)">
       <defs>
        <path id="DejaVuSans-32" d="M 1228 531 
L 3431 531 
L 3431 0 
L 469 0 
L 469 531 
Q 828 903 1448 1529 
Q 2069 2156 2228 2338 
Q 2531 2678 2651 2914 
Q 2772 3150 2772 3378 
Q 2772 3750 2511 3984 
Q 2250 4219 1831 4219 
Q 1534 4219 1204 4116 
Q 875 4013 500 3803 
L 500 4441 
Q 881 4594 1212 4672 
Q 1544 4750 1819 4750 
Q 2544 4750 2975 4387 
Q 3406 4025 3406 3419 
Q 3406 3131 3298 2873 
Q 3191 2616 2906 2266 
Q 2828 2175 2409 1742 
Q 1991 1309 1228 531 
z
" transform="scale(0.015625)"/>
       </defs>
       <use xlink:href="#DejaVuSans-32"/>
       <use xlink:href="#DejaVuSans-30" x="63.623047"/>
      </g>
     </g>
    </g>
    <g id="xtick_6">
     <g id="line2d_6">
      <path d="M 748.006993 961.2 
L 748.006993 129.6 
" clip-path="url(#p1dc9b42d99)" style="fill: none; stroke: #ffffff; stroke-linecap: round"/>
     </g>
     <g id="text_6">
      <!-- 25 -->
      <g style="fill: #262626" transform="translate(730.510118 991.595703) scale(0.275 -0.275)">
       <use xlink:href="#DejaVuSans-32"/>
       <use xlink:href="#DejaVuSans-35" x="63.623047"/>
      </g>
     </g>
    </g>
    <g id="xtick_7">
     <g id="line2d_7">
      <path d="M 836.691036 961.2 
L 836.691036 129.6 
" clip-path="url(#p1dc9b42d99)" style="fill: none; stroke: #ffffff; stroke-linecap: round"/>
     </g>
     <g id="text_7">
      <!-- 30 -->
      <g style="fill: #262626" transform="translate(819.194161 991.595703) scale(0.275 -0.275)">
       <defs>
        <path id="DejaVuSans-33" d="M 2597 2516 
Q 3050 2419 3304 2112 
Q 3559 1806 3559 1356 
Q 3559 666 3084 287 
Q 2609 -91 1734 -91 
Q 1441 -91 1130 -33 
Q 819 25 488 141 
L 488 750 
Q 750 597 1062 519 
Q 1375 441 1716 441 
Q 2309 441 2620 675 
Q 2931 909 2931 1356 
Q 2931 1769 2642 2001 
Q 2353 2234 1838 2234 
L 1294 2234 
L 1294 2753 
L 1863 2753 
Q 2328 2753 2575 2939 
Q 2822 3125 2822 3475 
Q 2822 3834 2567 4026 
Q 2313 4219 1838 4219 
Q 1578 4219 1281 4162 
Q 984 4106 628 3988 
L 628 4550 
Q 988 4650 1302 4700 
Q 1616 4750 1894 4750 
Q 2613 4750 3031 4423 
Q 3450 4097 3450 3541 
Q 3450 3153 3228 2886 
Q 3006 2619 2597 2516 
z
" transform="scale(0.015625)"/>
       </defs>
       <use xlink:href="#DejaVuSans-33"/>
       <use xlink:href="#DejaVuSans-30" x="63.623047"/>
      </g>
     </g>
    </g>
    <g id="xtick_8">
     <g id="line2d_8">
      <path d="M 925.375079 961.2 
L 925.375079 129.6 
" clip-path="url(#p1dc9b42d99)" style="fill: none; stroke: #ffffff; stroke-linecap: round"/>
     </g>
     <g id="text_8">
      <!-- 35 -->
      <g style="fill: #262626" transform="translate(907.878204 991.595703) scale(0.275 -0.275)">
       <use xlink:href="#DejaVuSans-33"/>
       <use xlink:href="#DejaVuSans-35" x="63.623047"/>
      </g>
     </g>
    </g>
    <g id="xtick_9">
     <g id="line2d_9">
      <path d="M 1014.059123 961.2 
L 1014.059123 129.6 
" clip-path="url(#p1dc9b42d99)" style="fill: none; stroke: #ffffff; stroke-linecap: round"/>
     </g>
     <g id="text_9">
      <!-- 40 -->
      <g style="fill: #262626" transform="translate(996.562248 991.595703) scale(0.275 -0.275)">
       <defs>
        <path id="DejaVuSans-34" d="M 2419 4116 
L 825 1625 
L 2419 1625 
L 2419 4116 
z
M 2253 4666 
L 3047 4666 
L 3047 1625 
L 3713 1625 
L 3713 1100 
L 3047 1100 
L 3047 0 
L 2419 0 
L 2419 1100 
L 313 1100 
L 313 1709 
L 2253 4666 
z
" transform="scale(0.015625)"/>
       </defs>
       <use xlink:href="#DejaVuSans-34"/>
       <use xlink:href="#DejaVuSans-30" x="63.623047"/>
      </g>
     </g>
    </g>
    <g id="text_10">
     <!-- Epoch -->
     <g style="fill: #262626" transform="translate(604.521733 1024.110156) scale(0.3 -0.3)">
      <defs>
       <path id="DejaVuSans-45" d="M 628 4666 
L 3578 4666 
L 3578 4134 
L 1259 4134 
L 1259 2753 
L 3481 2753 
L 3481 2222 
L 1259 2222 
L 1259 531 
L 3634 531 
L 3634 0 
L 628 0 
L 628 4666 
z
" transform="scale(0.015625)"/>
       <path id="DejaVuSans-70" d="M 1159 525 
L 1159 -1331 
L 581 -1331 
L 581 3500 
L 1159 3500 
L 1159 2969 
Q 1341 3281 1617 3432 
Q 1894 3584 2278 3584 
Q 2916 3584 3314 3078 
Q 3713 2572 3713 1747 
Q 3713 922 3314 415 
Q 2916 -91 2278 -91 
Q 1894 -91 1617 61 
Q 1341 213 1159 525 
z
M 3116 1747 
Q 3116 2381 2855 2742 
Q 2594 3103 2138 3103 
Q 1681 3103 1420 2742 
Q 1159 2381 1159 1747 
Q 1159 1113 1420 752 
Q 1681 391 2138 391 
Q 2594 391 2855 752 
Q 3116 1113 3116 1747 
z
" transform="scale(0.015625)"/>
       <path id="DejaVuSans-6f" d="M 1959 3097 
Q 1497 3097 1228 2736 
Q 959 2375 959 1747 
Q 959 1119 1226 758 
Q 1494 397 1959 397 
Q 2419 397 2687 759 
Q 2956 1122 2956 1747 
Q 2956 2369 2687 2733 
Q 2419 3097 1959 3097 
z
M 1959 3584 
Q 2709 3584 3137 3096 
Q 3566 2609 3566 1747 
Q 3566 888 3137 398 
Q 2709 -91 1959 -91 
Q 1206 -91 779 398 
Q 353 888 353 1747 
Q 353 2609 779 3096 
Q 1206 3584 1959 3584 
z
" transform="scale(0.015625)"/>
       <path id="DejaVuSans-63" d="M 3122 3366 
L 3122 2828 
Q 2878 2963 2633 3030 
Q 2388 3097 2138 3097 
Q 1578 3097 1268 2742 
Q 959 2388 959 1747 
Q 959 1106 1268 751 
Q 1578 397 2138 397 
Q 2388 397 2633 464 
Q 2878 531 3122 666 
L 3122 134 
Q 2881 22 2623 -34 
Q 2366 -91 2075 -91 
Q 1284 -91 818 406 
Q 353 903 353 1747 
Q 353 2603 823 3093 
Q 1294 3584 2113 3584 
Q 2378 3584 2631 3529 
Q 2884 3475 3122 3366 
z
" transform="scale(0.015625)"/>
       <path id="DejaVuSans-68" d="M 3513 2113 
L 3513 0 
L 2938 0 
L 2938 2094 
Q 2938 2591 2744 2837 
Q 2550 3084 2163 3084 
Q 1697 3084 1428 2787 
Q 1159 2491 1159 1978 
L 1159 0 
L 581 0 
L 581 4863 
L 1159 4863 
L 1159 2956 
Q 1366 3272 1645 3428 
Q 1925 3584 2291 3584 
Q 2894 3584 3203 3211 
Q 3513 2838 3513 2113 
z
" transform="scale(0.015625)"/>
      </defs>
      <use xlink:href="#DejaVuSans-45"/>
      <use xlink:href="#DejaVuSans-70" x="63.183594"/>
      <use xlink:href="#DejaVuSans-6f" x="126.660156"/>
      <use xlink:href="#DejaVuSans-63" x="187.841797"/>
      <use xlink:href="#DejaVuSans-68" x="242.822266"/>
     </g>
    </g>
   </g>
   <g id="matplotlib.axis_2">
    <g id="ytick_1">
     <g id="line2d_10">
      <path d="M 270 906.271267 
L 1030.909091 906.271267 
" clip-path="url(#p1dc9b42d99)" style="fill: none; stroke: #ffffff; stroke-linecap: round"/>
     </g>
     <g id="text_11">
      <!-- -0.08 -->
      <g style="fill: #262626" transform="translate(189.348047 916.719118) scale(0.275 -0.275)">
       <defs>
        <path id="DejaVuSans-2d" d="M 313 2009 
L 1997 2009 
L 1997 1497 
L 313 1497 
L 313 2009 
z
" transform="scale(0.015625)"/>
        <path id="DejaVuSans-2e" d="M 684 794 
L 1344 794 
L 1344 0 
L 684 0 
L 684 794 
z
" transform="scale(0.015625)"/>
        <path id="DejaVuSans-38" d="M 2034 2216 
Q 1584 2216 1326 1975 
Q 1069 1734 1069 1313 
Q 1069 891 1326 650 
Q 1584 409 2034 409 
Q 2484 409 2743 651 
Q 3003 894 3003 1313 
Q 3003 1734 2745 1975 
Q 2488 2216 2034 2216 
z
M 1403 2484 
Q 997 2584 770 2862 
Q 544 3141 544 3541 
Q 544 4100 942 4425 
Q 1341 4750 2034 4750 
Q 2731 4750 3128 4425 
Q 3525 4100 3525 3541 
Q 3525 3141 3298 2862 
Q 3072 2584 2669 2484 
Q 3125 2378 3379 2068 
Q 3634 1759 3634 1313 
Q 3634 634 3220 271 
Q 2806 -91 2034 -91 
Q 1263 -91 848 271 
Q 434 634 434 1313 
Q 434 1759 690 2068 
Q 947 2378 1403 2484 
z
M 1172 3481 
Q 1172 3119 1398 2916 
Q 1625 2713 2034 2713 
Q 2441 2713 2670 2916 
Q 2900 3119 2900 3481 
Q 2900 3844 2670 4047 
Q 2441 4250 2034 4250 
Q 1625 4250 1398 4047 
Q 1172 3844 1172 3481 
z
" transform="scale(0.015625)"/>
       </defs>
       <use xlink:href="#DejaVuSans-2d"/>
       <use xlink:href="#DejaVuSans-30" x="36.083984"/>
       <use xlink:href="#DejaVuSans-2e" x="99.707031"/>
       <use xlink:href="#DejaVuSans-30" x="131.494141"/>
       <use xlink:href="#DejaVuSans-38" x="195.117188"/>
      </g>
     </g>
    </g>
    <g id="ytick_2">
     <g id="line2d_11">
      <path d="M 270 750.55551 
L 1030.909091 750.55551 
" clip-path="url(#p1dc9b42d99)" style="fill: none; stroke: #ffffff; stroke-linecap: round"/>
     </g>
     <g id="text_12">
      <!-- -0.06 -->
      <g style="fill: #262626" transform="translate(189.348047 761.003361) scale(0.275 -0.275)">
       <defs>
        <path id="DejaVuSans-36" d="M 2113 2584 
Q 1688 2584 1439 2293 
Q 1191 2003 1191 1497 
Q 1191 994 1439 701 
Q 1688 409 2113 409 
Q 2538 409 2786 701 
Q 3034 994 3034 1497 
Q 3034 2003 2786 2293 
Q 2538 2584 2113 2584 
z
M 3366 4563 
L 3366 3988 
Q 3128 4100 2886 4159 
Q 2644 4219 2406 4219 
Q 1781 4219 1451 3797 
Q 1122 3375 1075 2522 
Q 1259 2794 1537 2939 
Q 1816 3084 2150 3084 
Q 2853 3084 3261 2657 
Q 3669 2231 3669 1497 
Q 3669 778 3244 343 
Q 2819 -91 2113 -91 
Q 1303 -91 875 529 
Q 447 1150 447 2328 
Q 447 3434 972 4092 
Q 1497 4750 2381 4750 
Q 2619 4750 2861 4703 
Q 3103 4656 3366 4563 
z
" transform="scale(0.015625)"/>
       </defs>
       <use xlink:href="#DejaVuSans-2d"/>
       <use xlink:href="#DejaVuSans-30" x="36.083984"/>
       <use xlink:href="#DejaVuSans-2e" x="99.707031"/>
       <use xlink:href="#DejaVuSans-30" x="131.494141"/>
       <use xlink:href="#DejaVuSans-36" x="195.117188"/>
      </g>
     </g>
    </g>
    <g id="ytick_3">
     <g id="line2d_12">
      <path d="M 270 594.839753 
L 1030.909091 594.839753 
" clip-path="url(#p1dc9b42d99)" style="fill: none; stroke: #ffffff; stroke-linecap: round"/>
     </g>
     <g id="text_13">
      <!-- -0.04 -->
      <g style="fill: #262626" transform="translate(189.348047 605.287604) scale(0.275 -0.275)">
       <use xlink:href="#DejaVuSans-2d"/>
       <use xlink:href="#DejaVuSans-30" x="36.083984"/>
       <use xlink:href="#DejaVuSans-2e" x="99.707031"/>
       <use xlink:href="#DejaVuSans-30" x="131.494141"/>
       <use xlink:href="#DejaVuSans-34" x="195.117188"/>
      </g>
     </g>
    </g>
    <g id="ytick_4">
     <g id="line2d_13">
      <path d="M 270 439.123996 
L 1030.909091 439.123996 
" clip-path="url(#p1dc9b42d99)" style="fill: none; stroke: #ffffff; stroke-linecap: round"/>
     </g>
     <g id="text_14">
      <!-- -0.02 -->
      <g style="fill: #262626" transform="translate(189.348047 449.571847) scale(0.275 -0.275)">
       <use xlink:href="#DejaVuSans-2d"/>
       <use xlink:href="#DejaVuSans-30" x="36.083984"/>
       <use xlink:href="#DejaVuSans-2e" x="99.707031"/>
       <use xlink:href="#DejaVuSans-30" x="131.494141"/>
       <use xlink:href="#DejaVuSans-32" x="195.117188"/>
      </g>
     </g>
    </g>
    <g id="ytick_5">
     <g id="line2d_14">
      <path d="M 270 283.408239 
L 1030.909091 283.408239 
" clip-path="url(#p1dc9b42d99)" style="fill: none; stroke: #ffffff; stroke-linecap: round"/>
     </g>
     <g id="text_15">
      <!-- 0.00 -->
      <g style="fill: #262626" transform="translate(199.269531 293.85609) scale(0.275 -0.275)">
       <use xlink:href="#DejaVuSans-30"/>
       <use xlink:href="#DejaVuSans-2e" x="63.623047"/>
       <use xlink:href="#DejaVuSans-30" x="95.410156"/>
       <use xlink:href="#DejaVuSans-30" x="159.033203"/>
      </g>
     </g>
    </g>
    <g id="text_16">
     <!-- Distance -->
     <g style="fill: #262626" transform="translate(179.108984 610.9875) rotate(-90) scale(0.3 -0.3)">
      <defs>
       <path id="DejaVuSans-44" d="M 1259 4147 
L 1259 519 
L 2022 519 
Q 2988 519 3436 956 
Q 3884 1394 3884 2338 
Q 3884 3275 3436 3711 
Q 2988 4147 2022 4147 
L 1259 4147 
z
M 628 4666 
L 1925 4666 
Q 3281 4666 3915 4102 
Q 4550 3538 4550 2338 
Q 4550 1131 3912 565 
Q 3275 0 1925 0 
L 628 0 
L 628 4666 
z
" transform="scale(0.015625)"/>
       <path id="DejaVuSans-69" d="M 603 3500 
L 1178 3500 
L 1178 0 
L 603 0 
L 603 3500 
z
M 603 4863 
L 1178 4863 
L 1178 4134 
L 603 4134 
L 603 4863 
z
" transform="scale(0.015625)"/>
       <path id="DejaVuSans-73" d="M 2834 3397 
L 2834 2853 
Q 2591 2978 2328 3040 
Q 2066 3103 1784 3103 
Q 1356 3103 1142 2972 
Q 928 2841 928 2578 
Q 928 2378 1081 2264 
Q 1234 2150 1697 2047 
L 1894 2003 
Q 2506 1872 2764 1633 
Q 3022 1394 3022 966 
Q 3022 478 2636 193 
Q 2250 -91 1575 -91 
Q 1294 -91 989 -36 
Q 684 19 347 128 
L 347 722 
Q 666 556 975 473 
Q 1284 391 1588 391 
Q 1994 391 2212 530 
Q 2431 669 2431 922 
Q 2431 1156 2273 1281 
Q 2116 1406 1581 1522 
L 1381 1569 
Q 847 1681 609 1914 
Q 372 2147 372 2553 
Q 372 3047 722 3315 
Q 1072 3584 1716 3584 
Q 2034 3584 2315 3537 
Q 2597 3491 2834 3397 
z
" transform="scale(0.015625)"/>
       <path id="DejaVuSans-74" d="M 1172 4494 
L 1172 3500 
L 2356 3500 
L 2356 3053 
L 1172 3053 
L 1172 1153 
Q 1172 725 1289 603 
Q 1406 481 1766 481 
L 2356 481 
L 2356 0 
L 1766 0 
Q 1100 0 847 248 
Q 594 497 594 1153 
L 594 3053 
L 172 3053 
L 172 3500 
L 594 3500 
L 594 4494 
L 1172 4494 
z
" transform="scale(0.015625)"/>
       <path id="DejaVuSans-61" d="M 2194 1759 
Q 1497 1759 1228 1600 
Q 959 1441 959 1056 
Q 959 750 1161 570 
Q 1363 391 1709 391 
Q 2188 391 2477 730 
Q 2766 1069 2766 1631 
L 2766 1759 
L 2194 1759 
z
M 3341 1997 
L 3341 0 
L 2766 0 
L 2766 531 
Q 2569 213 2275 61 
Q 1981 -91 1556 -91 
Q 1019 -91 701 211 
Q 384 513 384 1019 
Q 384 1609 779 1909 
Q 1175 2209 1959 2209 
L 2766 2209 
L 2766 2266 
Q 2766 2663 2505 2880 
Q 2244 3097 1772 3097 
Q 1472 3097 1187 3025 
Q 903 2953 641 2809 
L 641 3341 
Q 956 3463 1253 3523 
Q 1550 3584 1831 3584 
Q 2591 3584 2966 3190 
Q 3341 2797 3341 1997 
z
" transform="scale(0.015625)"/>
       <path id="DejaVuSans-6e" d="M 3513 2113 
L 3513 0 
L 2938 0 
L 2938 2094 
Q 2938 2591 2744 2837 
Q 2550 3084 2163 3084 
Q 1697 3084 1428 2787 
Q 1159 2491 1159 1978 
L 1159 0 
L 581 0 
L 581 3500 
L 1159 3500 
L 1159 2956 
Q 1366 3272 1645 3428 
Q 1925 3584 2291 3584 
Q 2894 3584 3203 3211 
Q 3513 2838 3513 2113 
z
" transform="scale(0.015625)"/>
       <path id="DejaVuSans-65" d="M 3597 1894 
L 3597 1613 
L 953 1613 
Q 991 1019 1311 708 
Q 1631 397 2203 397 
Q 2534 397 2845 478 
Q 3156 559 3463 722 
L 3463 178 
Q 3153 47 2828 -22 
Q 2503 -91 2169 -91 
Q 1331 -91 842 396 
Q 353 884 353 1716 
Q 353 2575 817 3079 
Q 1281 3584 2069 3584 
Q 2775 3584 3186 3129 
Q 3597 2675 3597 1894 
z
M 3022 2063 
Q 3016 2534 2758 2815 
Q 2500 3097 2075 3097 
Q 1594 3097 1305 2825 
Q 1016 2553 972 2059 
L 3022 2063 
z
" transform="scale(0.015625)"/>
      </defs>
      <use xlink:href="#DejaVuSans-44"/>
      <use xlink:href="#DejaVuSans-69" x="77.001953"/>
      <use xlink:href="#DejaVuSans-73" x="104.785156"/>
      <use xlink:href="#DejaVuSans-74" x="156.884766"/>
      <use xlink:href="#DejaVuSans-61" x="196.09375"/>
      <use xlink:href="#DejaVuSans-6e" x="257.373047"/>
      <use xlink:href="#DejaVuSans-63" x="320.751953"/>
      <use xlink:href="#DejaVuSans-65" x="375.732422"/>
     </g>
    </g>
   </g>
   <g id="PolyCollection_1"/>
   <g id="PolyCollection_2"/>
   <g id="PolyCollection_3"/>
   <g id="line2d_15">
    <path d="M 304.586777 664.133265 
L 322.323586 359.553244 
L 340.060394 641.55448 
L 357.797203 582.382492 
L 375.534011 218.474768 
L 393.27082 569.769516 
L 411.007629 566.188054 
L 428.744437 628.162925 
L 446.481246 469.177137 
L 464.218055 352.390319 
L 481.954863 568.056643 
L 499.691672 614.927085 
L 517.428481 567.589495 
L 535.165289 452.359835 
L 552.902098 631.744387 
L 570.638907 522.587642 
L 588.375715 492.067353 
L 606.112524 574.285273 
L 623.849332 594.372606 
L 641.586141 533.799176 
L 659.32295 565.409475 
L 677.059758 557.15654 
L 694.796567 566.032338 
L 712.533376 542.986406 
L 730.270184 571.170958 
L 748.006993 512.933265 
L 765.743802 546.412152 
L 783.48061 543.297837 
L 801.217419 541.273532 
L 818.954228 553.730793 
L 836.691036 560.115139 
L 854.427845 585.496807 
L 872.164654 539.249228 
L 889.901462 624.114315 
L 907.638271 568.679506 
L 925.375079 551.550772 
L 943.111888 615.082801 
L 960.848697 546.100721 
L 978.585505 560.582286 
L 996.322314 545.789289 
" clip-path="url(#p1dc9b42d99)" style="fill: none; stroke-dasharray: 5.55,2.4; stroke-dashoffset: 0; stroke: #4c72b0; stroke-width: 1.5"/>
   </g>
   <g id="line2d_16">
    <path d="M 304.586777 877.775283 
L 322.323586 520.874768 
L 340.060394 549.837899 
L 357.797203 632.990113 
L 375.534011 483.658702 
L 393.27082 573.506694 
L 411.007629 720.346653 
L 428.744437 584.251081 
L 446.481246 618.508548 
L 464.218055 559.959423 
L 481.954863 601.846962 
L 499.691672 546.100721 
L 517.428481 528.349125 
L 535.165289 554.976519 
L 552.902098 521.653347 
L 570.638907 635.948713 
L 588.375715 575.219567 
L 606.112524 637.194439 
L 623.849332 576.153862 
L 641.586141 522.27621 
L 659.32295 611.034192 
L 677.059758 578.956746 
L 694.796567 613.369928 
L 712.533376 659.461792 
L 730.270184 489.575901 
L 748.006993 559.803708 
L 765.743802 604.182698 
L 783.48061 530.217714 
L 801.217419 573.66241 
L 818.954228 566.655201 
L 836.691036 582.538208 
L 854.427845 600.134089 
L 872.164654 528.816272 
L 889.901462 563.38517 
L 907.638271 579.112461 
L 925.375079 560.582286 
L 943.111888 527.881977 
L 960.848697 549.215036 
L 978.585505 558.869413 
L 996.322314 540.027806 
" clip-path="url(#p1dc9b42d99)" style="fill: none; stroke-dasharray: 1.5,2.475; stroke-dashoffset: 0; stroke: #dd8452; stroke-width: 1.5"/>
   </g>
   <g id="line2d_17">
    <path d="M 304.586777 923.4 
L 322.323586 536.134912 
L 340.060394 529.750566 
L 357.797203 582.84964 
L 375.534011 419.192379 
L 393.27082 584.095366 
L 411.007629 567.745211 
L 428.744437 517.604737 
L 446.481246 694.342122 
L 464.218055 167.4 
L 481.954863 560.115139 
L 499.691672 566.655201 
L 517.428481 584.718229 
L 535.165289 459.055613 
L 552.902098 440.992585 
L 570.638907 601.691246 
L 588.375715 527.41483 
L 606.112524 578.489598 
L 623.849332 278.269619 
L 641.586141 596.864058 
L 659.32295 613.681359 
L 677.059758 562.450875 
L 694.796567 578.022451 
L 712.533376 591.102575 
L 730.270184 567.745211 
L 748.006993 565.565191 
L 765.743802 539.716375 
L 783.48061 575.375283 
L 801.217419 585.808239 
L 818.954228 510.90896 
L 836.691036 579.112461 
L 854.427845 546.8793 
L 872.164654 585.02966 
L 889.901462 568.056643 
L 907.638271 561.828012 
L 925.375079 574.440989 
L 943.111888 575.998146 
L 960.848697 551.239341 
L 978.585505 588.922554 
L 996.322314 590.323996 
" clip-path="url(#p1dc9b42d99)" style="fill: none; stroke: #55a868; stroke-width: 1.5; stroke-linecap: round"/>
   </g>
   <g id="patch_3">
    <path d="M 270 961.2 
L 270 129.6 
" style="fill: none; stroke: #ffffff; stroke-width: 1.25; stroke-linejoin: miter; stroke-linecap: square"/>
   </g>
   <g id="patch_4">
    <path d="M 1030.909091 961.2 
L 1030.909091 129.6 
" style="fill: none; stroke: #ffffff; stroke-width: 1.25; stroke-linejoin: miter; stroke-linecap: square"/>
   </g>
   <g id="patch_5">
    <path d="M 270 961.2 
L 1030.909091 961.2 
" style="fill: none; stroke: #ffffff; stroke-width: 1.25; stroke-linejoin: miter; stroke-linecap: square"/>
   </g>
   <g id="patch_6">
    <path d="M 270 129.6 
L 1030.909091 129.6 
" style="fill: none; stroke: #ffffff; stroke-width: 1.25; stroke-linejoin: miter; stroke-linecap: square"/>
   </g>
   <g id="text_17">
    <!-- Distance in SGD optimizer -->
    <g style="fill: #262626" transform="translate(453.40142 123.6) scale(0.3 -0.3)">
     <defs>
      <path id="DejaVuSans-20" transform="scale(0.015625)"/>
      <path id="DejaVuSans-53" d="M 3425 4513 
L 3425 3897 
Q 3066 4069 2747 4153 
Q 2428 4238 2131 4238 
Q 1616 4238 1336 4038 
Q 1056 3838 1056 3469 
Q 1056 3159 1242 3001 
Q 1428 2844 1947 2747 
L 2328 2669 
Q 3034 2534 3370 2195 
Q 3706 1856 3706 1288 
Q 3706 609 3251 259 
Q 2797 -91 1919 -91 
Q 1588 -91 1214 -16 
Q 841 59 441 206 
L 441 856 
Q 825 641 1194 531 
Q 1563 422 1919 422 
Q 2459 422 2753 634 
Q 3047 847 3047 1241 
Q 3047 1584 2836 1778 
Q 2625 1972 2144 2069 
L 1759 2144 
Q 1053 2284 737 2584 
Q 422 2884 422 3419 
Q 422 4038 858 4394 
Q 1294 4750 2059 4750 
Q 2388 4750 2728 4690 
Q 3069 4631 3425 4513 
z
" transform="scale(0.015625)"/>
      <path id="DejaVuSans-47" d="M 3809 666 
L 3809 1919 
L 2778 1919 
L 2778 2438 
L 4434 2438 
L 4434 434 
Q 4069 175 3628 42 
Q 3188 -91 2688 -91 
Q 1594 -91 976 548 
Q 359 1188 359 2328 
Q 359 3472 976 4111 
Q 1594 4750 2688 4750 
Q 3144 4750 3555 4637 
Q 3966 4525 4313 4306 
L 4313 3634 
Q 3963 3931 3569 4081 
Q 3175 4231 2741 4231 
Q 1884 4231 1454 3753 
Q 1025 3275 1025 2328 
Q 1025 1384 1454 906 
Q 1884 428 2741 428 
Q 3075 428 3337 486 
Q 3600 544 3809 666 
z
" transform="scale(0.015625)"/>
      <path id="DejaVuSans-6d" d="M 3328 2828 
Q 3544 3216 3844 3400 
Q 4144 3584 4550 3584 
Q 5097 3584 5394 3201 
Q 5691 2819 5691 2113 
L 5691 0 
L 5113 0 
L 5113 2094 
Q 5113 2597 4934 2840 
Q 4756 3084 4391 3084 
Q 3944 3084 3684 2787 
Q 3425 2491 3425 1978 
L 3425 0 
L 2847 0 
L 2847 2094 
Q 2847 2600 2669 2842 
Q 2491 3084 2119 3084 
Q 1678 3084 1418 2786 
Q 1159 2488 1159 1978 
L 1159 0 
L 581 0 
L 581 3500 
L 1159 3500 
L 1159 2956 
Q 1356 3278 1631 3431 
Q 1906 3584 2284 3584 
Q 2666 3584 2933 3390 
Q 3200 3197 3328 2828 
z
" transform="scale(0.015625)"/>
      <path id="DejaVuSans-7a" d="M 353 3500 
L 3084 3500 
L 3084 2975 
L 922 459 
L 3084 459 
L 3084 0 
L 275 0 
L 275 525 
L 2438 3041 
L 353 3041 
L 353 3500 
z
" transform="scale(0.015625)"/>
      <path id="DejaVuSans-72" d="M 2631 2963 
Q 2534 3019 2420 3045 
Q 2306 3072 2169 3072 
Q 1681 3072 1420 2755 
Q 1159 2438 1159 1844 
L 1159 0 
L 581 0 
L 581 3500 
L 1159 3500 
L 1159 2956 
Q 1341 3275 1631 3429 
Q 1922 3584 2338 3584 
Q 2397 3584 2469 3576 
Q 2541 3569 2628 3553 
L 2631 2963 
z
" transform="scale(0.015625)"/>
     </defs>
     <use xlink:href="#DejaVuSans-44"/>
     <use xlink:href="#DejaVuSans-69" x="77.001953"/>
     <use xlink:href="#DejaVuSans-73" x="104.785156"/>
     <use xlink:href="#DejaVuSans-74" x="156.884766"/>
     <use xlink:href="#DejaVuSans-61" x="196.09375"/>
     <use xlink:href="#DejaVuSans-6e" x="257.373047"/>
     <use xlink:href="#DejaVuSans-63" x="320.751953"/>
     <use xlink:href="#DejaVuSans-65" x="375.732422"/>
     <use xlink:href="#DejaVuSans-20" x="437.255859"/>
     <use xlink:href="#DejaVuSans-69" x="469.042969"/>
     <use xlink:href="#DejaVuSans-6e" x="496.826172"/>
     <use xlink:href="#DejaVuSans-20" x="560.205078"/>
     <use xlink:href="#DejaVuSans-53" x="591.992188"/>
     <use xlink:href="#DejaVuSans-47" x="655.46875"/>
     <use xlink:href="#DejaVuSans-44" x="732.958984"/>
     <use xlink:href="#DejaVuSans-20" x="809.960938"/>
     <use xlink:href="#DejaVuSans-6f" x="841.748047"/>
     <use xlink:href="#DejaVuSans-70" x="902.929688"/>
     <use xlink:href="#DejaVuSans-74" x="966.40625"/>
     <use xlink:href="#DejaVuSans-69" x="1005.615234"/>
     <use xlink:href="#DejaVuSans-6d" x="1033.398438"/>
     <use xlink:href="#DejaVuSans-69" x="1130.810547"/>
     <use xlink:href="#DejaVuSans-7a" x="1158.59375"/>
     <use xlink:href="#DejaVuSans-65" x="1211.083984"/>
     <use xlink:href="#DejaVuSans-72" x="1272.607422"/>
    </g>
   </g>
   <g id="legend_1">
    <g id="patch_7">
     <path d="M 564.405966 274.989063 
L 1011.659091 274.989063 
Q 1017.159091 274.989063 1017.159091 269.489063 
L 1017.159091 148.85 
Q 1017.159091 143.35 1011.659091 143.35 
L 564.405966 143.35 
Q 558.905966 143.35 558.905966 148.85 
L 558.905966 269.489063 
Q 558.905966 274.989063 564.405966 274.989063 
z
" style="fill: #eaeaf2; opacity: 0.8; stroke: #cccccc; stroke-linejoin: miter"/>
    </g>
    <g id="line2d_18">
     <path d="M 569.905966 165.620703 
L 597.405966 165.620703 
L 624.905966 165.620703 
" style="fill: none; stroke-dasharray: 5.55,2.4; stroke-dashoffset: 0; stroke: #4c72b0; stroke-width: 1.5"/>
    </g>
    <g id="text_18">
     <!-- CE_SGD -->
     <g style="fill: #262626" transform="translate(646.905966 175.245703) scale(0.275 -0.275)">
      <defs>
       <path id="DejaVuSans-43" d="M 4122 4306 
L 4122 3641 
Q 3803 3938 3442 4084 
Q 3081 4231 2675 4231 
Q 1875 4231 1450 3742 
Q 1025 3253 1025 2328 
Q 1025 1406 1450 917 
Q 1875 428 2675 428 
Q 3081 428 3442 575 
Q 3803 722 4122 1019 
L 4122 359 
Q 3791 134 3420 21 
Q 3050 -91 2638 -91 
Q 1578 -91 968 557 
Q 359 1206 359 2328 
Q 359 3453 968 4101 
Q 1578 4750 2638 4750 
Q 3056 4750 3426 4639 
Q 3797 4528 4122 4306 
z
" transform="scale(0.015625)"/>
       <path id="DejaVuSans-5f" d="M 3263 -1063 
L 3263 -1509 
L -63 -1509 
L -63 -1063 
L 3263 -1063 
z
" transform="scale(0.015625)"/>
      </defs>
      <use xlink:href="#DejaVuSans-43"/>
      <use xlink:href="#DejaVuSans-45" x="69.824219"/>
      <use xlink:href="#DejaVuSans-5f" x="133.007812"/>
      <use xlink:href="#DejaVuSans-53" x="183.007812"/>
      <use xlink:href="#DejaVuSans-47" x="246.484375"/>
      <use xlink:href="#DejaVuSans-44" x="323.974609"/>
     </g>
    </g>
    <g id="line2d_19">
     <path d="M 569.905966 206.750391 
L 597.405966 206.750391 
L 624.905966 206.750391 
" style="fill: none; stroke-dasharray: 1.5,2.475; stroke-dashoffset: 0; stroke: #dd8452; stroke-width: 1.5"/>
    </g>
    <g id="text_19">
     <!-- Focal(Gamma = 0.5)_SGD -->
     <g style="fill: #262626" transform="translate(646.905966 216.375391) scale(0.275 -0.275)">
      <defs>
       <path id="DejaVuSans-46" d="M 628 4666 
L 3309 4666 
L 3309 4134 
L 1259 4134 
L 1259 2759 
L 3109 2759 
L 3109 2228 
L 1259 2228 
L 1259 0 
L 628 0 
L 628 4666 
z
" transform="scale(0.015625)"/>
       <path id="DejaVuSans-6c" d="M 603 4863 
L 1178 4863 
L 1178 0 
L 603 0 
L 603 4863 
z
" transform="scale(0.015625)"/>
       <path id="DejaVuSans-28" d="M 1984 4856 
Q 1566 4138 1362 3434 
Q 1159 2731 1159 2009 
Q 1159 1288 1364 580 
Q 1569 -128 1984 -844 
L 1484 -844 
Q 1016 -109 783 600 
Q 550 1309 550 2009 
Q 550 2706 781 3412 
Q 1013 4119 1484 4856 
L 1984 4856 
z
" transform="scale(0.015625)"/>
       <path id="DejaVuSans-3d" d="M 678 2906 
L 4684 2906 
L 4684 2381 
L 678 2381 
L 678 2906 
z
M 678 1631 
L 4684 1631 
L 4684 1100 
L 678 1100 
L 678 1631 
z
" transform="scale(0.015625)"/>
       <path id="DejaVuSans-29" d="M 513 4856 
L 1013 4856 
Q 1481 4119 1714 3412 
Q 1947 2706 1947 2009 
Q 1947 1309 1714 600 
Q 1481 -109 1013 -844 
L 513 -844 
Q 928 -128 1133 580 
Q 1338 1288 1338 2009 
Q 1338 2731 1133 3434 
Q 928 4138 513 4856 
z
" transform="scale(0.015625)"/>
      </defs>
      <use xlink:href="#DejaVuSans-46"/>
      <use xlink:href="#DejaVuSans-6f" x="53.894531"/>
      <use xlink:href="#DejaVuSans-63" x="115.076172"/>
      <use xlink:href="#DejaVuSans-61" x="170.056641"/>
      <use xlink:href="#DejaVuSans-6c" x="231.335938"/>
      <use xlink:href="#DejaVuSans-28" x="259.119141"/>
      <use xlink:href="#DejaVuSans-47" x="298.132812"/>
      <use xlink:href="#DejaVuSans-61" x="375.623047"/>
      <use xlink:href="#DejaVuSans-6d" x="436.902344"/>
      <use xlink:href="#DejaVuSans-6d" x="534.314453"/>
      <use xlink:href="#DejaVuSans-61" x="631.726562"/>
      <use xlink:href="#DejaVuSans-20" x="693.005859"/>
      <use xlink:href="#DejaVuSans-3d" x="724.792969"/>
      <use xlink:href="#DejaVuSans-20" x="808.582031"/>
      <use xlink:href="#DejaVuSans-30" x="840.369141"/>
      <use xlink:href="#DejaVuSans-2e" x="903.992188"/>
      <use xlink:href="#DejaVuSans-35" x="935.779297"/>
      <use xlink:href="#DejaVuSans-29" x="999.402344"/>
      <use xlink:href="#DejaVuSans-5f" x="1038.416016"/>
      <use xlink:href="#DejaVuSans-53" x="1088.416016"/>
      <use xlink:href="#DejaVuSans-47" x="1151.892578"/>
      <use xlink:href="#DejaVuSans-44" x="1229.382812"/>
     </g>
    </g>
    <g id="line2d_20">
     <path d="M 569.905966 247.880078 
L 597.405966 247.880078 
L 624.905966 247.880078 
" style="fill: none; stroke: #55a868; stroke-width: 1.5; stroke-linecap: round"/>
    </g>
    <g id="text_20">
     <!-- Focal(Gamma = 2)_SGD -->
     <g style="fill: #262626" transform="translate(646.905966 257.505078) scale(0.275 -0.275)">
      <use xlink:href="#DejaVuSans-46"/>
      <use xlink:href="#DejaVuSans-6f" x="53.894531"/>
      <use xlink:href="#DejaVuSans-63" x="115.076172"/>
      <use xlink:href="#DejaVuSans-61" x="170.056641"/>
      <use xlink:href="#DejaVuSans-6c" x="231.335938"/>
      <use xlink:href="#DejaVuSans-28" x="259.119141"/>
      <use xlink:href="#DejaVuSans-47" x="298.132812"/>
      <use xlink:href="#DejaVuSans-61" x="375.623047"/>
      <use xlink:href="#DejaVuSans-6d" x="436.902344"/>
      <use xlink:href="#DejaVuSans-6d" x="534.314453"/>
      <use xlink:href="#DejaVuSans-61" x="631.726562"/>
      <use xlink:href="#DejaVuSans-20" x="693.005859"/>
      <use xlink:href="#DejaVuSans-3d" x="724.792969"/>
      <use xlink:href="#DejaVuSans-20" x="808.582031"/>
      <use xlink:href="#DejaVuSans-32" x="840.369141"/>
      <use xlink:href="#DejaVuSans-29" x="903.992188"/>
      <use xlink:href="#DejaVuSans-5f" x="943.005859"/>
      <use xlink:href="#DejaVuSans-53" x="993.005859"/>
      <use xlink:href="#DejaVuSans-47" x="1056.482422"/>
      <use xlink:href="#DejaVuSans-44" x="1133.972656"/>
     </g>
    </g>
   </g>
  </g>
  <g id="axes_2">
   <g id="patch_8">
    <path d="M 1183.090909 961.2 
L 1944 961.2 
L 1944 129.6 
L 1183.090909 129.6 
z
" style="fill: #eaeaf2"/>
   </g>
   <g id="matplotlib.axis_3">
    <g id="xtick_10">
     <g id="line2d_21">
      <path d="M 1217.677686 961.2 
L 1217.677686 129.6 
" clip-path="url(#p55d19df698)" style="fill: none; stroke: #ffffff; stroke-linecap: round"/>
     </g>
     <g id="text_21">
      <!-- 0 -->
      <g style="fill: #262626" transform="translate(1208.929248 991.595703) scale(0.275 -0.275)">
       <use xlink:href="#DejaVuSans-30"/>
      </g>
     </g>
    </g>
    <g id="xtick_11">
     <g id="line2d_22">
      <path d="M 1306.361729 961.2 
L 1306.361729 129.6 
" clip-path="url(#p55d19df698)" style="fill: none; stroke: #ffffff; stroke-linecap: round"/>
     </g>
     <g id="text_22">
      <!-- 5 -->
      <g style="fill: #262626" transform="translate(1297.613292 991.595703) scale(0.275 -0.275)">
       <use xlink:href="#DejaVuSans-35"/>
      </g>
     </g>
    </g>
    <g id="xtick_12">
     <g id="line2d_23">
      <path d="M 1395.045772 961.2 
L 1395.045772 129.6 
" clip-path="url(#p55d19df698)" style="fill: none; stroke: #ffffff; stroke-linecap: round"/>
     </g>
     <g id="text_23">
      <!-- 10 -->
      <g style="fill: #262626" transform="translate(1377.548897 991.595703) scale(0.275 -0.275)">
       <use xlink:href="#DejaVuSans-31"/>
       <use xlink:href="#DejaVuSans-30" x="63.623047"/>
      </g>
     </g>
    </g>
    <g id="xtick_13">
     <g id="line2d_24">
      <path d="M 1483.729816 961.2 
L 1483.729816 129.6 
" clip-path="url(#p55d19df698)" style="fill: none; stroke: #ffffff; stroke-linecap: round"/>
     </g>
     <g id="text_24">
      <!-- 15 -->
      <g style="fill: #262626" transform="translate(1466.232941 991.595703) scale(0.275 -0.275)">
       <use xlink:href="#DejaVuSans-31"/>
       <use xlink:href="#DejaVuSans-35" x="63.623047"/>
      </g>
     </g>
    </g>
    <g id="xtick_14">
     <g id="line2d_25">
      <path d="M 1572.413859 961.2 
L 1572.413859 129.6 
" clip-path="url(#p55d19df698)" style="fill: none; stroke: #ffffff; stroke-linecap: round"/>
     </g>
     <g id="text_25">
      <!-- 20 -->
      <g style="fill: #262626" transform="translate(1554.916984 991.595703) scale(0.275 -0.275)">
       <use xlink:href="#DejaVuSans-32"/>
       <use xlink:href="#DejaVuSans-30" x="63.623047"/>
      </g>
     </g>
    </g>
    <g id="xtick_15">
     <g id="line2d_26">
      <path d="M 1661.097902 961.2 
L 1661.097902 129.6 
" clip-path="url(#p55d19df698)" style="fill: none; stroke: #ffffff; stroke-linecap: round"/>
     </g>
     <g id="text_26">
      <!-- 25 -->
      <g style="fill: #262626" transform="translate(1643.601027 991.595703) scale(0.275 -0.275)">
       <use xlink:href="#DejaVuSans-32"/>
       <use xlink:href="#DejaVuSans-35" x="63.623047"/>
      </g>
     </g>
    </g>
    <g id="xtick_16">
     <g id="line2d_27">
      <path d="M 1749.781945 961.2 
L 1749.781945 129.6 
" clip-path="url(#p55d19df698)" style="fill: none; stroke: #ffffff; stroke-linecap: round"/>
     </g>
     <g id="text_27">
      <!-- 30 -->
      <g style="fill: #262626" transform="translate(1732.28507 991.595703) scale(0.275 -0.275)">
       <use xlink:href="#DejaVuSans-33"/>
       <use xlink:href="#DejaVuSans-30" x="63.623047"/>
      </g>
     </g>
    </g>
    <g id="xtick_17">
     <g id="line2d_28">
      <path d="M 1838.465989 961.2 
L 1838.465989 129.6 
" clip-path="url(#p55d19df698)" style="fill: none; stroke: #ffffff; stroke-linecap: round"/>
     </g>
     <g id="text_28">
      <!-- 35 -->
      <g style="fill: #262626" transform="translate(1820.969114 991.595703) scale(0.275 -0.275)">
       <use xlink:href="#DejaVuSans-33"/>
       <use xlink:href="#DejaVuSans-35" x="63.623047"/>
      </g>
     </g>
    </g>
    <g id="xtick_18">
     <g id="line2d_29">
      <path d="M 1927.150032 961.2 
L 1927.150032 129.6 
" clip-path="url(#p55d19df698)" style="fill: none; stroke: #ffffff; stroke-linecap: round"/>
     </g>
     <g id="text_29">
      <!-- 40 -->
      <g style="fill: #262626" transform="translate(1909.653157 991.595703) scale(0.275 -0.275)">
       <use xlink:href="#DejaVuSans-34"/>
       <use xlink:href="#DejaVuSans-30" x="63.623047"/>
      </g>
     </g>
    </g>
    <g id="text_30">
     <!-- Epoch -->
     <g style="fill: #262626" transform="translate(1517.612642 1024.110156) scale(0.3 -0.3)">
      <use xlink:href="#DejaVuSans-45"/>
      <use xlink:href="#DejaVuSans-70" x="63.183594"/>
      <use xlink:href="#DejaVuSans-6f" x="126.660156"/>
      <use xlink:href="#DejaVuSans-63" x="187.841797"/>
      <use xlink:href="#DejaVuSans-68" x="242.822266"/>
     </g>
    </g>
   </g>
   <g id="matplotlib.axis_4">
    <g id="ytick_6">
     <g id="line2d_30">
      <path d="M 1183.090909 817.119283 
L 1944 817.119283 
" clip-path="url(#p55d19df698)" style="fill: none; stroke: #ffffff; stroke-linecap: round"/>
     </g>
     <g id="text_31">
      <!-- -0.10 -->
      <g style="fill: #262626" transform="translate(1102.438956 827.567134) scale(0.275 -0.275)">
       <use xlink:href="#DejaVuSans-2d"/>
       <use xlink:href="#DejaVuSans-30" x="36.083984"/>
       <use xlink:href="#DejaVuSans-2e" x="99.707031"/>
       <use xlink:href="#DejaVuSans-31" x="131.494141"/>
       <use xlink:href="#DejaVuSans-30" x="195.117188"/>
      </g>
     </g>
    </g>
    <g id="ytick_7">
     <g id="line2d_31">
      <path d="M 1183.090909 647.612556 
L 1944 647.612556 
" clip-path="url(#p55d19df698)" style="fill: none; stroke: #ffffff; stroke-linecap: round"/>
     </g>
     <g id="text_32">
      <!-- -0.08 -->
      <g style="fill: #262626" transform="translate(1102.438956 658.060408) scale(0.275 -0.275)">
       <use xlink:href="#DejaVuSans-2d"/>
       <use xlink:href="#DejaVuSans-30" x="36.083984"/>
       <use xlink:href="#DejaVuSans-2e" x="99.707031"/>
       <use xlink:href="#DejaVuSans-30" x="131.494141"/>
       <use xlink:href="#DejaVuSans-38" x="195.117188"/>
      </g>
     </g>
    </g>
    <g id="ytick_8">
     <g id="line2d_32">
      <path d="M 1183.090909 478.10583 
L 1944 478.10583 
" clip-path="url(#p55d19df698)" style="fill: none; stroke: #ffffff; stroke-linecap: round"/>
     </g>
     <g id="text_33">
      <!-- -0.06 -->
      <g style="fill: #262626" transform="translate(1102.438956 488.553681) scale(0.275 -0.275)">
       <use xlink:href="#DejaVuSans-2d"/>
       <use xlink:href="#DejaVuSans-30" x="36.083984"/>
       <use xlink:href="#DejaVuSans-2e" x="99.707031"/>
       <use xlink:href="#DejaVuSans-30" x="131.494141"/>
       <use xlink:href="#DejaVuSans-36" x="195.117188"/>
      </g>
     </g>
    </g>
    <g id="ytick_9">
     <g id="line2d_33">
      <path d="M 1183.090909 308.599103 
L 1944 308.599103 
" clip-path="url(#p55d19df698)" style="fill: none; stroke: #ffffff; stroke-linecap: round"/>
     </g>
     <g id="text_34">
      <!-- -0.04 -->
      <g style="fill: #262626" transform="translate(1102.438956 319.046955) scale(0.275 -0.275)">
       <use xlink:href="#DejaVuSans-2d"/>
       <use xlink:href="#DejaVuSans-30" x="36.083984"/>
       <use xlink:href="#DejaVuSans-2e" x="99.707031"/>
       <use xlink:href="#DejaVuSans-30" x="131.494141"/>
       <use xlink:href="#DejaVuSans-34" x="195.117188"/>
      </g>
     </g>
    </g>
    <g id="ytick_10">
     <g id="line2d_34">
      <path d="M 1183.090909 139.092377 
L 1944 139.092377 
" clip-path="url(#p55d19df698)" style="fill: none; stroke: #ffffff; stroke-linecap: round"/>
     </g>
     <g id="text_35">
      <!-- -0.02 -->
      <g style="fill: #262626" transform="translate(1102.438956 149.540228) scale(0.275 -0.275)">
       <use xlink:href="#DejaVuSans-2d"/>
       <use xlink:href="#DejaVuSans-30" x="36.083984"/>
       <use xlink:href="#DejaVuSans-2e" x="99.707031"/>
       <use xlink:href="#DejaVuSans-30" x="131.494141"/>
       <use xlink:href="#DejaVuSans-32" x="195.117188"/>
      </g>
     </g>
    </g>
    <g id="text_36">
     <!-- Distance -->
     <g style="fill: #262626" transform="translate(1092.199893 610.9875) rotate(-90) scale(0.3 -0.3)">
      <use xlink:href="#DejaVuSans-44"/>
      <use xlink:href="#DejaVuSans-69" x="77.001953"/>
      <use xlink:href="#DejaVuSans-73" x="104.785156"/>
      <use xlink:href="#DejaVuSans-74" x="156.884766"/>
      <use xlink:href="#DejaVuSans-61" x="196.09375"/>
      <use xlink:href="#DejaVuSans-6e" x="257.373047"/>
      <use xlink:href="#DejaVuSans-63" x="320.751953"/>
      <use xlink:href="#DejaVuSans-65" x="375.732422"/>
     </g>
    </g>
   </g>
   <g id="PolyCollection_4"/>
   <g id="PolyCollection_5"/>
   <g id="PolyCollection_6"/>
   <g id="line2d_35">
    <path d="M 1217.677686 792.879821 
L 1235.414495 429.965919 
L 1253.151303 402.844843 
L 1270.888112 326.397309 
L 1288.624921 356.90852 
L 1306.361729 379.283408 
L 1324.098538 382.165022 
L 1341.835346 377.079821 
L 1359.572155 389.962332 
L 1377.308964 371.655605 
L 1395.045772 335.211659 
L 1412.782581 387.080717 
L 1430.51939 326.90583 
L 1448.256198 396.064574 
L 1465.993007 286.224215 
L 1483.729816 373.181166 
L 1501.466624 314.362332 
L 1519.203433 372.672646 
L 1536.940242 317.58296 
L 1554.67705 281.647534 
L 1572.413859 284.529148 
L 1590.150668 263.849327 
L 1607.887476 368.604484 
L 1625.624285 351.145291 
L 1643.361093 256.221525 
L 1661.097902 291.987444 
L 1678.834711 288.258296 
L 1696.571519 248.254709 
L 1714.308328 309.616143 
L 1732.045137 330.465471 
L 1749.781945 253.84843 
L 1767.518754 266.561435 
L 1785.255563 330.973991 
L 1802.992371 338.432287 
L 1820.72918 307.921076 
L 1838.465989 284.868161 
L 1856.202797 287.071749 
L 1873.939606 281.478027 
L 1891.676414 222.489686 
L 1909.413223 275.206278 
" clip-path="url(#p55d19df698)" style="fill: none; stroke-dasharray: 5.55,2.4; stroke-dashoffset: 0; stroke: #4c72b0; stroke-width: 1.5"/>
   </g>
   <g id="line2d_36">
    <path d="M 1217.677686 923.4 
L 1235.414495 439.458296 
L 1253.151303 356.90852 
L 1270.888112 367.926457 
L 1288.624921 348.941704 
L 1306.361729 268.426009 
L 1324.098538 328.261883 
L 1341.835346 353.518386 
L 1359.572155 339.957848 
L 1377.308964 332.838565 
L 1395.045772 286.054709 
L 1412.782581 364.197309 
L 1430.51939 334.872646 
L 1448.256198 336.398206 
L 1465.993007 313.514798 
L 1483.729816 319.956054 
L 1501.466624 314.870852 
L 1519.203433 366.73991 
L 1536.940242 361.315695 
L 1554.67705 313.853812 
L 1572.413859 250.119283 
L 1590.150668 317.243946 
L 1607.887476 300.632287 
L 1625.624285 328.43139 
L 1643.361093 348.602691 
L 1661.097902 341.822422 
L 1678.834711 289.10583 
L 1696.571519 307.75157 
L 1714.308328 281.647534 
L 1732.045137 259.442152 
L 1749.781945 232.829596 
L 1767.518754 324.024215 
L 1785.255563 297.411659 
L 1802.992371 241.135426 
L 1820.72918 173.841256 
L 1838.465989 191.130942 
L 1856.202797 270.629596 
L 1873.939606 167.4 
L 1891.676414 245.034081 
L 1909.413223 238.592825 
" clip-path="url(#p55d19df698)" style="fill: none; stroke-dasharray: 1.5,2.475; stroke-dashoffset: 0; stroke: #dd8452; stroke-width: 1.5"/>
   </g>
   <g id="line2d_37">
    <path d="M 1217.677686 665.919283 
L 1235.414495 435.390135 
L 1253.151303 412.676233 
L 1270.888112 369.282511 
L 1288.624921 293.852018 
L 1306.361729 281.986547 
L 1324.098538 449.967713 
L 1341.835346 328.261883 
L 1359.572155 361.315695 
L 1377.308964 365.044843 
L 1395.045772 323.176682 
L 1412.782581 225.879821 
L 1430.51939 387.758744 
L 1448.256198 334.872646 
L 1465.993007 404.878924 
L 1483.729816 324.363229 
L 1501.466624 341.483408 
L 1519.203433 348.433184 
L 1536.940242 282.834081 
L 1554.67705 370.299552 
L 1572.413859 343.517489 
L 1590.150668 339.618834 
L 1607.887476 312.836771 
L 1625.624285 333.177578 
L 1643.361093 277.240359 
L 1661.097902 329.617937 
L 1678.834711 327.583857 
L 1696.571519 350.297758 
L 1714.308328 275.714798 
L 1732.045137 289.444843 
L 1749.781945 268.765022 
L 1767.518754 329.956951 
L 1785.255563 315.209865 
L 1802.992371 338.26278 
L 1820.72918 245.373094 
L 1838.465989 301.649327 
L 1856.202797 255.713004 
L 1873.939606 332.499552 
L 1891.676414 285.715695 
L 1909.413223 337.584753 
" clip-path="url(#p55d19df698)" style="fill: none; stroke: #55a868; stroke-width: 1.5; stroke-linecap: round"/>
   </g>
   <g id="patch_9">
    <path d="M 1183.090909 961.2 
L 1183.090909 129.6 
" style="fill: none; stroke: #ffffff; stroke-width: 1.25; stroke-linejoin: miter; stroke-linecap: square"/>
   </g>
   <g id="patch_10">
    <path d="M 1944 961.2 
L 1944 129.6 
" style="fill: none; stroke: #ffffff; stroke-width: 1.25; stroke-linejoin: miter; stroke-linecap: square"/>
   </g>
   <g id="patch_11">
    <path d="M 1183.090909 961.2 
L 1944 961.2 
" style="fill: none; stroke: #ffffff; stroke-width: 1.25; stroke-linejoin: miter; stroke-linecap: square"/>
   </g>
   <g id="patch_12">
    <path d="M 1183.090909 129.6 
L 1944 129.6 
" style="fill: none; stroke: #ffffff; stroke-width: 1.25; stroke-linejoin: miter; stroke-linecap: square"/>
   </g>
   <g id="text_37">
    <!-- Distance in Adam optimizer -->
    <g style="fill: #262626" transform="translate(1355.863423 123.6) scale(0.3 -0.3)">
     <defs>
      <path id="DejaVuSans-41" d="M 2188 4044 
L 1331 1722 
L 3047 1722 
L 2188 4044 
z
M 1831 4666 
L 2547 4666 
L 4325 0 
L 3669 0 
L 3244 1197 
L 1141 1197 
L 716 0 
L 50 0 
L 1831 4666 
z
" transform="scale(0.015625)"/>
      <path id="DejaVuSans-64" d="M 2906 2969 
L 2906 4863 
L 3481 4863 
L 3481 0 
L 2906 0 
L 2906 525 
Q 2725 213 2448 61 
Q 2172 -91 1784 -91 
Q 1150 -91 751 415 
Q 353 922 353 1747 
Q 353 2572 751 3078 
Q 1150 3584 1784 3584 
Q 2172 3584 2448 3432 
Q 2725 3281 2906 2969 
z
M 947 1747 
Q 947 1113 1208 752 
Q 1469 391 1925 391 
Q 2381 391 2643 752 
Q 2906 1113 2906 1747 
Q 2906 2381 2643 2742 
Q 2381 3103 1925 3103 
Q 1469 3103 1208 2742 
Q 947 2381 947 1747 
z
" transform="scale(0.015625)"/>
     </defs>
     <use xlink:href="#DejaVuSans-44"/>
     <use xlink:href="#DejaVuSans-69" x="77.001953"/>
     <use xlink:href="#DejaVuSans-73" x="104.785156"/>
     <use xlink:href="#DejaVuSans-74" x="156.884766"/>
     <use xlink:href="#DejaVuSans-61" x="196.09375"/>
     <use xlink:href="#DejaVuSans-6e" x="257.373047"/>
     <use xlink:href="#DejaVuSans-63" x="320.751953"/>
     <use xlink:href="#DejaVuSans-65" x="375.732422"/>
     <use xlink:href="#DejaVuSans-20" x="437.255859"/>
     <use xlink:href="#DejaVuSans-69" x="469.042969"/>
     <use xlink:href="#DejaVuSans-6e" x="496.826172"/>
     <use xlink:href="#DejaVuSans-20" x="560.205078"/>
     <use xlink:href="#DejaVuSans-41" x="591.992188"/>
     <use xlink:href="#DejaVuSans-64" x="658.650391"/>
     <use xlink:href="#DejaVuSans-61" x="722.126953"/>
     <use xlink:href="#DejaVuSans-6d" x="783.40625"/>
     <use xlink:href="#DejaVuSans-20" x="880.818359"/>
     <use xlink:href="#DejaVuSans-6f" x="912.605469"/>
     <use xlink:href="#DejaVuSans-70" x="973.787109"/>
     <use xlink:href="#DejaVuSans-74" x="1037.263672"/>
     <use xlink:href="#DejaVuSans-69" x="1076.472656"/>
     <use xlink:href="#DejaVuSans-6d" x="1104.255859"/>
     <use xlink:href="#DejaVuSans-69" x="1201.667969"/>
     <use xlink:href="#DejaVuSans-7a" x="1229.451172"/>
     <use xlink:href="#DejaVuSans-65" x="1281.941406"/>
     <use xlink:href="#DejaVuSans-72" x="1343.464844"/>
    </g>
   </g>
   <g id="legend_2">
    <g id="patch_13">
     <path d="M 1458.010547 947.45 
L 1924.75 947.45 
Q 1930.25 947.45 1930.25 941.95 
L 1930.25 821.310938 
Q 1930.25 815.810938 1924.75 815.810938 
L 1458.010547 815.810938 
Q 1452.510547 815.810938 1452.510547 821.310938 
L 1452.510547 941.95 
Q 1452.510547 947.45 1458.010547 947.45 
z
" style="fill: #eaeaf2; opacity: 0.8; stroke: #cccccc; stroke-linejoin: miter"/>
    </g>
    <g id="line2d_38">
     <path d="M 1463.510547 838.081641 
L 1491.010547 838.081641 
L 1518.510547 838.081641 
" style="fill: none; stroke-dasharray: 5.55,2.4; stroke-dashoffset: 0; stroke: #4c72b0; stroke-width: 1.5"/>
    </g>
    <g id="text_38">
     <!-- CE_Adam -->
     <g style="fill: #262626" transform="translate(1540.510547 847.706641) scale(0.275 -0.275)">
      <use xlink:href="#DejaVuSans-43"/>
      <use xlink:href="#DejaVuSans-45" x="69.824219"/>
      <use xlink:href="#DejaVuSans-5f" x="133.007812"/>
      <use xlink:href="#DejaVuSans-41" x="183.007812"/>
      <use xlink:href="#DejaVuSans-64" x="249.666016"/>
      <use xlink:href="#DejaVuSans-61" x="313.142578"/>
      <use xlink:href="#DejaVuSans-6d" x="374.421875"/>
     </g>
    </g>
    <g id="line2d_39">
     <path d="M 1463.510547 879.211328 
L 1491.010547 879.211328 
L 1518.510547 879.211328 
" style="fill: none; stroke-dasharray: 1.5,2.475; stroke-dashoffset: 0; stroke: #dd8452; stroke-width: 1.5"/>
    </g>
    <g id="text_39">
     <!-- Focal(Gamma = 0.5)_Adam -->
     <g style="fill: #262626" transform="translate(1540.510547 888.836328) scale(0.275 -0.275)">
      <use xlink:href="#DejaVuSans-46"/>
      <use xlink:href="#DejaVuSans-6f" x="53.894531"/>
      <use xlink:href="#DejaVuSans-63" x="115.076172"/>
      <use xlink:href="#DejaVuSans-61" x="170.056641"/>
      <use xlink:href="#DejaVuSans-6c" x="231.335938"/>
      <use xlink:href="#DejaVuSans-28" x="259.119141"/>
      <use xlink:href="#DejaVuSans-47" x="298.132812"/>
      <use xlink:href="#DejaVuSans-61" x="375.623047"/>
      <use xlink:href="#DejaVuSans-6d" x="436.902344"/>
      <use xlink:href="#DejaVuSans-6d" x="534.314453"/>
      <use xlink:href="#DejaVuSans-61" x="631.726562"/>
      <use xlink:href="#DejaVuSans-20" x="693.005859"/>
      <use xlink:href="#DejaVuSans-3d" x="724.792969"/>
      <use xlink:href="#DejaVuSans-20" x="808.582031"/>
      <use xlink:href="#DejaVuSans-30" x="840.369141"/>
      <use xlink:href="#DejaVuSans-2e" x="903.992188"/>
      <use xlink:href="#DejaVuSans-35" x="935.779297"/>
      <use xlink:href="#DejaVuSans-29" x="999.402344"/>
      <use xlink:href="#DejaVuSans-5f" x="1038.416016"/>
      <use xlink:href="#DejaVuSans-41" x="1088.416016"/>
      <use xlink:href="#DejaVuSans-64" x="1155.074219"/>
      <use xlink:href="#DejaVuSans-61" x="1218.550781"/>
      <use xlink:href="#DejaVuSans-6d" x="1279.830078"/>
     </g>
    </g>
    <g id="line2d_40">
     <path d="M 1463.510547 920.341016 
L 1491.010547 920.341016 
L 1518.510547 920.341016 
" style="fill: none; stroke: #55a868; stroke-width: 1.5; stroke-linecap: round"/>
    </g>
    <g id="text_40">
     <!-- Focal(Gamma = 2)_Adam -->
     <g style="fill: #262626" transform="translate(1540.510547 929.966016) scale(0.275 -0.275)">
      <use xlink:href="#DejaVuSans-46"/>
      <use xlink:href="#DejaVuSans-6f" x="53.894531"/>
      <use xlink:href="#DejaVuSans-63" x="115.076172"/>
      <use xlink:href="#DejaVuSans-61" x="170.056641"/>
      <use xlink:href="#DejaVuSans-6c" x="231.335938"/>
      <use xlink:href="#DejaVuSans-28" x="259.119141"/>
      <use xlink:href="#DejaVuSans-47" x="298.132812"/>
      <use xlink:href="#DejaVuSans-61" x="375.623047"/>
      <use xlink:href="#DejaVuSans-6d" x="436.902344"/>
      <use xlink:href="#DejaVuSans-6d" x="534.314453"/>
      <use xlink:href="#DejaVuSans-61" x="631.726562"/>
      <use xlink:href="#DejaVuSans-20" x="693.005859"/>
      <use xlink:href="#DejaVuSans-3d" x="724.792969"/>
      <use xlink:href="#DejaVuSans-20" x="808.582031"/>
      <use xlink:href="#DejaVuSans-32" x="840.369141"/>
      <use xlink:href="#DejaVuSans-29" x="903.992188"/>
      <use xlink:href="#DejaVuSans-5f" x="943.005859"/>
      <use xlink:href="#DejaVuSans-41" x="993.005859"/>
      <use xlink:href="#DejaVuSans-64" x="1059.664062"/>
      <use xlink:href="#DejaVuSans-61" x="1123.140625"/>
      <use xlink:href="#DejaVuSans-6d" x="1184.419922"/>
     </g>
    </g>
   </g>
  </g>
  <g id="text_41">
   <!-- Distance between training acc and test acc of different loss functions in distinct optimizers -->
   <g style="fill: #262626" transform="translate(169.534375 51.99375) scale(0.4 -0.4)">
    <defs>
     <path id="DejaVuSans-62" d="M 3116 1747 
Q 3116 2381 2855 2742 
Q 2594 3103 2138 3103 
Q 1681 3103 1420 2742 
Q 1159 2381 1159 1747 
Q 1159 1113 1420 752 
Q 1681 391 2138 391 
Q 2594 391 2855 752 
Q 3116 1113 3116 1747 
z
M 1159 2969 
Q 1341 3281 1617 3432 
Q 1894 3584 2278 3584 
Q 2916 3584 3314 3078 
Q 3713 2572 3713 1747 
Q 3713 922 3314 415 
Q 2916 -91 2278 -91 
Q 1894 -91 1617 61 
Q 1341 213 1159 525 
L 1159 0 
L 581 0 
L 581 4863 
L 1159 4863 
L 1159 2969 
z
" transform="scale(0.015625)"/>
     <path id="DejaVuSans-77" d="M 269 3500 
L 844 3500 
L 1563 769 
L 2278 3500 
L 2956 3500 
L 3675 769 
L 4391 3500 
L 4966 3500 
L 4050 0 
L 3372 0 
L 2619 2869 
L 1863 0 
L 1184 0 
L 269 3500 
z
" transform="scale(0.015625)"/>
     <path id="DejaVuSans-67" d="M 2906 1791 
Q 2906 2416 2648 2759 
Q 2391 3103 1925 3103 
Q 1463 3103 1205 2759 
Q 947 2416 947 1791 
Q 947 1169 1205 825 
Q 1463 481 1925 481 
Q 2391 481 2648 825 
Q 2906 1169 2906 1791 
z
M 3481 434 
Q 3481 -459 3084 -895 
Q 2688 -1331 1869 -1331 
Q 1566 -1331 1297 -1286 
Q 1028 -1241 775 -1147 
L 775 -588 
Q 1028 -725 1275 -790 
Q 1522 -856 1778 -856 
Q 2344 -856 2625 -561 
Q 2906 -266 2906 331 
L 2906 616 
Q 2728 306 2450 153 
Q 2172 0 1784 0 
Q 1141 0 747 490 
Q 353 981 353 1791 
Q 353 2603 747 3093 
Q 1141 3584 1784 3584 
Q 2172 3584 2450 3431 
Q 2728 3278 2906 2969 
L 2906 3500 
L 3481 3500 
L 3481 434 
z
" transform="scale(0.015625)"/>
     <path id="DejaVuSans-66" d="M 2375 4863 
L 2375 4384 
L 1825 4384 
Q 1516 4384 1395 4259 
Q 1275 4134 1275 3809 
L 1275 3500 
L 2222 3500 
L 2222 3053 
L 1275 3053 
L 1275 0 
L 697 0 
L 697 3053 
L 147 3053 
L 147 3500 
L 697 3500 
L 697 3744 
Q 697 4328 969 4595 
Q 1241 4863 1831 4863 
L 2375 4863 
z
" transform="scale(0.015625)"/>
     <path id="DejaVuSans-75" d="M 544 1381 
L 544 3500 
L 1119 3500 
L 1119 1403 
Q 1119 906 1312 657 
Q 1506 409 1894 409 
Q 2359 409 2629 706 
Q 2900 1003 2900 1516 
L 2900 3500 
L 3475 3500 
L 3475 0 
L 2900 0 
L 2900 538 
Q 2691 219 2414 64 
Q 2138 -91 1772 -91 
Q 1169 -91 856 284 
Q 544 659 544 1381 
z
M 1991 3584 
L 1991 3584 
z
" transform="scale(0.015625)"/>
    </defs>
    <use xlink:href="#DejaVuSans-44"/>
    <use xlink:href="#DejaVuSans-69" x="77.001953"/>
    <use xlink:href="#DejaVuSans-73" x="104.785156"/>
    <use xlink:href="#DejaVuSans-74" x="156.884766"/>
    <use xlink:href="#DejaVuSans-61" x="196.09375"/>
    <use xlink:href="#DejaVuSans-6e" x="257.373047"/>
    <use xlink:href="#DejaVuSans-63" x="320.751953"/>
    <use xlink:href="#DejaVuSans-65" x="375.732422"/>
    <use xlink:href="#DejaVuSans-20" x="437.255859"/>
    <use xlink:href="#DejaVuSans-62" x="469.042969"/>
    <use xlink:href="#DejaVuSans-65" x="532.519531"/>
    <use xlink:href="#DejaVuSans-74" x="594.042969"/>
    <use xlink:href="#DejaVuSans-77" x="633.251953"/>
    <use xlink:href="#DejaVuSans-65" x="715.039062"/>
    <use xlink:href="#DejaVuSans-65" x="776.5625"/>
    <use xlink:href="#DejaVuSans-6e" x="838.085938"/>
    <use xlink:href="#DejaVuSans-20" x="901.464844"/>
    <use xlink:href="#DejaVuSans-74" x="933.251953"/>
    <use xlink:href="#DejaVuSans-72" x="972.460938"/>
    <use xlink:href="#DejaVuSans-61" x="1013.574219"/>
    <use xlink:href="#DejaVuSans-69" x="1074.853516"/>
    <use xlink:href="#DejaVuSans-6e" x="1102.636719"/>
    <use xlink:href="#DejaVuSans-69" x="1166.015625"/>
    <use xlink:href="#DejaVuSans-6e" x="1193.798828"/>
    <use xlink:href="#DejaVuSans-67" x="1257.177734"/>
    <use xlink:href="#DejaVuSans-20" x="1320.654297"/>
    <use xlink:href="#DejaVuSans-61" x="1352.441406"/>
    <use xlink:href="#DejaVuSans-63" x="1413.720703"/>
    <use xlink:href="#DejaVuSans-63" x="1468.701172"/>
    <use xlink:href="#DejaVuSans-20" x="1523.681641"/>
    <use xlink:href="#DejaVuSans-61" x="1555.46875"/>
    <use xlink:href="#DejaVuSans-6e" x="1616.748047"/>
    <use xlink:href="#DejaVuSans-64" x="1680.126953"/>
    <use xlink:href="#DejaVuSans-20" x="1743.603516"/>
    <use xlink:href="#DejaVuSans-74" x="1775.390625"/>
    <use xlink:href="#DejaVuSans-65" x="1814.599609"/>
    <use xlink:href="#DejaVuSans-73" x="1876.123047"/>
    <use xlink:href="#DejaVuSans-74" x="1928.222656"/>
    <use xlink:href="#DejaVuSans-20" x="1967.431641"/>
    <use xlink:href="#DejaVuSans-61" x="1999.21875"/>
    <use xlink:href="#DejaVuSans-63" x="2060.498047"/>
    <use xlink:href="#DejaVuSans-63" x="2115.478516"/>
    <use xlink:href="#DejaVuSans-20" x="2170.458984"/>
    <use xlink:href="#DejaVuSans-6f" x="2202.246094"/>
    <use xlink:href="#DejaVuSans-66" x="2263.427734"/>
    <use xlink:href="#DejaVuSans-20" x="2298.632812"/>
    <use xlink:href="#DejaVuSans-64" x="2330.419922"/>
    <use xlink:href="#DejaVuSans-69" x="2393.896484"/>
    <use xlink:href="#DejaVuSans-66" x="2421.679688"/>
    <use xlink:href="#DejaVuSans-66" x="2456.884766"/>
    <use xlink:href="#DejaVuSans-65" x="2492.089844"/>
    <use xlink:href="#DejaVuSans-72" x="2553.613281"/>
    <use xlink:href="#DejaVuSans-65" x="2592.476562"/>
    <use xlink:href="#DejaVuSans-6e" x="2654"/>
    <use xlink:href="#DejaVuSans-74" x="2717.378906"/>
    <use xlink:href="#DejaVuSans-20" x="2756.587891"/>
    <use xlink:href="#DejaVuSans-6c" x="2788.375"/>
    <use xlink:href="#DejaVuSans-6f" x="2816.158203"/>
    <use xlink:href="#DejaVuSans-73" x="2877.339844"/>
    <use xlink:href="#DejaVuSans-73" x="2929.439453"/>
    <use xlink:href="#DejaVuSans-20" x="2981.539062"/>
    <use xlink:href="#DejaVuSans-66" x="3013.326172"/>
    <use xlink:href="#DejaVuSans-75" x="3048.53125"/>
    <use xlink:href="#DejaVuSans-6e" x="3111.910156"/>
    <use xlink:href="#DejaVuSans-63" x="3175.289062"/>
    <use xlink:href="#DejaVuSans-74" x="3230.269531"/>
    <use xlink:href="#DejaVuSans-69" x="3269.478516"/>
    <use xlink:href="#DejaVuSans-6f" x="3297.261719"/>
    <use xlink:href="#DejaVuSans-6e" x="3358.443359"/>
    <use xlink:href="#DejaVuSans-73" x="3421.822266"/>
    <use xlink:href="#DejaVuSans-20" x="3473.921875"/>
    <use xlink:href="#DejaVuSans-69" x="3505.708984"/>
    <use xlink:href="#DejaVuSans-6e" x="3533.492188"/>
    <use xlink:href="#DejaVuSans-20" x="3596.871094"/>
    <use xlink:href="#DejaVuSans-64" x="3628.658203"/>
    <use xlink:href="#DejaVuSans-69" x="3692.134766"/>
    <use xlink:href="#DejaVuSans-73" x="3719.917969"/>
    <use xlink:href="#DejaVuSans-74" x="3772.017578"/>
    <use xlink:href="#DejaVuSans-69" x="3811.226562"/>
    <use xlink:href="#DejaVuSans-6e" x="3839.009766"/>
    <use xlink:href="#DejaVuSans-63" x="3902.388672"/>
    <use xlink:href="#DejaVuSans-74" x="3957.369141"/>
    <use xlink:href="#DejaVuSans-20" x="3996.578125"/>
    <use xlink:href="#DejaVuSans-6f" x="4028.365234"/>
    <use xlink:href="#DejaVuSans-70" x="4089.546875"/>
    <use xlink:href="#DejaVuSans-74" x="4153.023438"/>
    <use xlink:href="#DejaVuSans-69" x="4192.232422"/>
    <use xlink:href="#DejaVuSans-6d" x="4220.015625"/>
    <use xlink:href="#DejaVuSans-69" x="4317.427734"/>
    <use xlink:href="#DejaVuSans-7a" x="4345.210938"/>
    <use xlink:href="#DejaVuSans-65" x="4397.701172"/>
    <use xlink:href="#DejaVuSans-72" x="4459.224609"/>
    <use xlink:href="#DejaVuSans-73" x="4500.337891"/>
   </g>
  </g>
 </g>
 <defs>
  <clipPath id="p1dc9b42d99">
   <rect x="270" y="129.6" width="760.909091" height="831.6"/>
  </clipPath>
  <clipPath id="p55d19df698">
   <rect x="1183.090909" y="129.6" width="760.909091" height="831.6"/>
  </clipPath>
 </defs>
</svg>
