<?xml version="1.0" encoding="utf-8" standalone="no"?>
<!DOCTYPE svg PUBLIC "-//W3C//DTD SVG 1.1//EN"
  "http://www.w3.org/Graphics/SVG/1.1/DTD/svg11.dtd">
<svg xmlns:xlink="http://www.w3.org/1999/xlink" width="2160pt" height="864pt" viewBox="0 0 2160 864" xmlns="http://www.w3.org/2000/svg" version="1.1">
 <metadata>
  <rdf:RDF xmlns:dc="http://purl.org/dc/elements/1.1/" xmlns:cc="http://creativecommons.org/ns#" xmlns:rdf="http://www.w3.org/1999/02/22-rdf-syntax-ns#">
   <cc:Work>
    <dc:type rdf:resource="http://purl.org/dc/dcmitype/StillImage"/>
    <dc:date>2023-10-28T18:07:32.078279</dc:date>
    <dc:format>image/svg+xml</dc:format>
    <dc:creator>
     <cc:Agent>
      <dc:title>Matplotlib v3.5.1, https://matplotlib.org/</dc:title>
     </cc:Agent>
    </dc:creator>
   </cc:Work>
  </rdf:RDF>
 </metadata>
 <defs>
  <style type="text/css">*{stroke-linejoin: round; stroke-linecap: butt}</style>
 </defs>
 <g id="figure_1">
  <g id="patch_1">
   <path d="M 0 864 
L 2160 864 
L 2160 0 
L 0 0 
z
" style="fill: #ffffff"/>
  </g>
  <g id="axes_1">
   <g id="patch_2">
    <path d="M 270 756 
L 1030.909091 756 
L 1030.909091 103.68 
L 270 103.68 
z
" style="fill: #eaeaf2"/>
   </g>
   <g id="matplotlib.axis_1">
    <g id="xtick_1">
     <g id="line2d_1">
      <path d="M 304.586777 756 
L 304.586777 103.68 
" clip-path="url(#p327ef09cab)" style="fill: none; stroke: #ffffff; stroke-linecap: round"/>
     </g>
     <g id="text_1">
      <!-- 0 -->
      <g style="fill: #262626" transform="translate(296.940488 785.183984)scale(0.275 -0.275)">
       <defs>
        <path id="ArialMT-30" d="M 266 2259 
Q 266 3072 433 3567 
Q 600 4063 929 4331 
Q 1259 4600 1759 4600 
Q 2128 4600 2406 4451 
Q 2684 4303 2865 4023 
Q 3047 3744 3150 3342 
Q 3253 2941 3253 2259 
Q 3253 1453 3087 958 
Q 2922 463 2592 192 
Q 2263 -78 1759 -78 
Q 1097 -78 719 397 
Q 266 969 266 2259 
z
M 844 2259 
Q 844 1131 1108 757 
Q 1372 384 1759 384 
Q 2147 384 2411 759 
Q 2675 1134 2675 2259 
Q 2675 3391 2411 3762 
Q 2147 4134 1753 4134 
Q 1366 4134 1134 3806 
Q 844 3388 844 2259 
z
" transform="scale(0.015625)"/>
       </defs>
       <use xlink:href="#ArialMT-30"/>
      </g>
     </g>
    </g>
    <g id="xtick_2">
     <g id="line2d_2">
      <path d="M 393.27082 756 
L 393.27082 103.68 
" clip-path="url(#p327ef09cab)" style="fill: none; stroke: #ffffff; stroke-linecap: round"/>
     </g>
     <g id="text_2">
      <!-- 5 -->
      <g style="fill: #262626" transform="translate(385.624531 785.183984)scale(0.275 -0.275)">
       <defs>
        <path id="ArialMT-35" d="M 266 1200 
L 856 1250 
Q 922 819 1161 601 
Q 1400 384 1738 384 
Q 2144 384 2425 690 
Q 2706 997 2706 1503 
Q 2706 1984 2436 2262 
Q 2166 2541 1728 2541 
Q 1456 2541 1237 2417 
Q 1019 2294 894 2097 
L 366 2166 
L 809 4519 
L 3088 4519 
L 3088 3981 
L 1259 3981 
L 1013 2750 
Q 1425 3038 1878 3038 
Q 2478 3038 2890 2622 
Q 3303 2206 3303 1553 
Q 3303 931 2941 478 
Q 2500 -78 1738 -78 
Q 1113 -78 717 272 
Q 322 622 266 1200 
z
" transform="scale(0.015625)"/>
       </defs>
       <use xlink:href="#ArialMT-35"/>
      </g>
     </g>
    </g>
    <g id="xtick_3">
     <g id="line2d_3">
      <path d="M 481.954863 756 
L 481.954863 103.68 
" clip-path="url(#p327ef09cab)" style="fill: none; stroke: #ffffff; stroke-linecap: round"/>
     </g>
     <g id="text_3">
      <!-- 10 -->
      <g style="fill: #262626" transform="translate(466.662285 785.183984)scale(0.275 -0.275)">
       <defs>
        <path id="ArialMT-31" d="M 2384 0 
L 1822 0 
L 1822 3584 
Q 1619 3391 1289 3197 
Q 959 3003 697 2906 
L 697 3450 
Q 1169 3672 1522 3987 
Q 1875 4303 2022 4600 
L 2384 4600 
L 2384 0 
z
" transform="scale(0.015625)"/>
       </defs>
       <use xlink:href="#ArialMT-31"/>
       <use xlink:href="#ArialMT-30" x="55.615234"/>
      </g>
     </g>
    </g>
    <g id="xtick_4">
     <g id="line2d_4">
      <path d="M 570.638907 756 
L 570.638907 103.68 
" clip-path="url(#p327ef09cab)" style="fill: none; stroke: #ffffff; stroke-linecap: round"/>
     </g>
     <g id="text_4">
      <!-- 15 -->
      <g style="fill: #262626" transform="translate(555.346328 785.183984)scale(0.275 -0.275)">
       <use xlink:href="#ArialMT-31"/>
       <use xlink:href="#ArialMT-35" x="55.615234"/>
      </g>
     </g>
    </g>
    <g id="xtick_5">
     <g id="line2d_5">
      <path d="M 659.32295 756 
L 659.32295 103.68 
" clip-path="url(#p327ef09cab)" style="fill: none; stroke: #ffffff; stroke-linecap: round"/>
     </g>
     <g id="text_5">
      <!-- 20 -->
      <g style="fill: #262626" transform="translate(644.030372 785.183984)scale(0.275 -0.275)">
       <defs>
        <path id="ArialMT-32" d="M 3222 541 
L 3222 0 
L 194 0 
Q 188 203 259 391 
Q 375 700 629 1000 
Q 884 1300 1366 1694 
Q 2113 2306 2375 2664 
Q 2638 3022 2638 3341 
Q 2638 3675 2398 3904 
Q 2159 4134 1775 4134 
Q 1369 4134 1125 3890 
Q 881 3647 878 3216 
L 300 3275 
Q 359 3922 746 4261 
Q 1134 4600 1788 4600 
Q 2447 4600 2831 4234 
Q 3216 3869 3216 3328 
Q 3216 3053 3103 2787 
Q 2991 2522 2730 2228 
Q 2469 1934 1863 1422 
Q 1356 997 1212 845 
Q 1069 694 975 541 
L 3222 541 
z
" transform="scale(0.015625)"/>
       </defs>
       <use xlink:href="#ArialMT-32"/>
       <use xlink:href="#ArialMT-30" x="55.615234"/>
      </g>
     </g>
    </g>
    <g id="xtick_6">
     <g id="line2d_6">
      <path d="M 748.006993 756 
L 748.006993 103.68 
" clip-path="url(#p327ef09cab)" style="fill: none; stroke: #ffffff; stroke-linecap: round"/>
     </g>
     <g id="text_6">
      <!-- 25 -->
      <g style="fill: #262626" transform="translate(732.714415 785.183984)scale(0.275 -0.275)">
       <use xlink:href="#ArialMT-32"/>
       <use xlink:href="#ArialMT-35" x="55.615234"/>
      </g>
     </g>
    </g>
    <g id="xtick_7">
     <g id="line2d_7">
      <path d="M 836.691036 756 
L 836.691036 103.68 
" clip-path="url(#p327ef09cab)" style="fill: none; stroke: #ffffff; stroke-linecap: round"/>
     </g>
     <g id="text_7">
      <!-- 30 -->
      <g style="fill: #262626" transform="translate(821.398458 785.183984)scale(0.275 -0.275)">
       <defs>
        <path id="ArialMT-33" d="M 269 1209 
L 831 1284 
Q 928 806 1161 595 
Q 1394 384 1728 384 
Q 2125 384 2398 659 
Q 2672 934 2672 1341 
Q 2672 1728 2419 1979 
Q 2166 2231 1775 2231 
Q 1616 2231 1378 2169 
L 1441 2663 
Q 1497 2656 1531 2656 
Q 1891 2656 2178 2843 
Q 2466 3031 2466 3422 
Q 2466 3731 2256 3934 
Q 2047 4138 1716 4138 
Q 1388 4138 1169 3931 
Q 950 3725 888 3313 
L 325 3413 
Q 428 3978 793 4289 
Q 1159 4600 1703 4600 
Q 2078 4600 2393 4439 
Q 2709 4278 2876 4000 
Q 3044 3722 3044 3409 
Q 3044 3113 2884 2869 
Q 2725 2625 2413 2481 
Q 2819 2388 3044 2092 
Q 3269 1797 3269 1353 
Q 3269 753 2831 336 
Q 2394 -81 1725 -81 
Q 1122 -81 723 278 
Q 325 638 269 1209 
z
" transform="scale(0.015625)"/>
       </defs>
       <use xlink:href="#ArialMT-33"/>
       <use xlink:href="#ArialMT-30" x="55.615234"/>
      </g>
     </g>
    </g>
    <g id="xtick_8">
     <g id="line2d_8">
      <path d="M 925.375079 756 
L 925.375079 103.68 
" clip-path="url(#p327ef09cab)" style="fill: none; stroke: #ffffff; stroke-linecap: round"/>
     </g>
     <g id="text_8">
      <!-- 35 -->
      <g style="fill: #262626" transform="translate(910.082501 785.183984)scale(0.275 -0.275)">
       <use xlink:href="#ArialMT-33"/>
       <use xlink:href="#ArialMT-35" x="55.615234"/>
      </g>
     </g>
    </g>
    <g id="xtick_9">
     <g id="line2d_9">
      <path d="M 1014.059123 756 
L 1014.059123 103.68 
" clip-path="url(#p327ef09cab)" style="fill: none; stroke: #ffffff; stroke-linecap: round"/>
     </g>
     <g id="text_9">
      <!-- 40 -->
      <g style="fill: #262626" transform="translate(998.766545 785.183984)scale(0.275 -0.275)">
       <defs>
        <path id="ArialMT-34" d="M 2069 0 
L 2069 1097 
L 81 1097 
L 81 1613 
L 2172 4581 
L 2631 4581 
L 2631 1613 
L 3250 1613 
L 3250 1097 
L 2631 1097 
L 2631 0 
L 2069 0 
z
M 2069 1613 
L 2069 3678 
L 634 1613 
L 2069 1613 
z
" transform="scale(0.015625)"/>
       </defs>
       <use xlink:href="#ArialMT-34"/>
       <use xlink:href="#ArialMT-30" x="55.615234"/>
      </g>
     </g>
    </g>
    <g id="text_10">
     <!-- Epoch -->
     <g style="fill: #262626" transform="translate(607.924858 816.123047)scale(0.3 -0.3)">
      <defs>
       <path id="ArialMT-45" d="M 506 0 
L 506 4581 
L 3819 4581 
L 3819 4041 
L 1113 4041 
L 1113 2638 
L 3647 2638 
L 3647 2100 
L 1113 2100 
L 1113 541 
L 3925 541 
L 3925 0 
L 506 0 
z
" transform="scale(0.015625)"/>
       <path id="ArialMT-70" d="M 422 -1272 
L 422 3319 
L 934 3319 
L 934 2888 
Q 1116 3141 1344 3267 
Q 1572 3394 1897 3394 
Q 2322 3394 2647 3175 
Q 2972 2956 3137 2557 
Q 3303 2159 3303 1684 
Q 3303 1175 3120 767 
Q 2938 359 2589 142 
Q 2241 -75 1856 -75 
Q 1575 -75 1351 44 
Q 1128 163 984 344 
L 984 -1272 
L 422 -1272 
z
M 931 1641 
Q 931 1000 1190 694 
Q 1450 388 1819 388 
Q 2194 388 2461 705 
Q 2728 1022 2728 1688 
Q 2728 2322 2467 2637 
Q 2206 2953 1844 2953 
Q 1484 2953 1207 2617 
Q 931 2281 931 1641 
z
" transform="scale(0.015625)"/>
       <path id="ArialMT-6f" d="M 213 1659 
Q 213 2581 725 3025 
Q 1153 3394 1769 3394 
Q 2453 3394 2887 2945 
Q 3322 2497 3322 1706 
Q 3322 1066 3130 698 
Q 2938 331 2570 128 
Q 2203 -75 1769 -75 
Q 1072 -75 642 372 
Q 213 819 213 1659 
z
M 791 1659 
Q 791 1022 1069 705 
Q 1347 388 1769 388 
Q 2188 388 2466 706 
Q 2744 1025 2744 1678 
Q 2744 2294 2464 2611 
Q 2184 2928 1769 2928 
Q 1347 2928 1069 2612 
Q 791 2297 791 1659 
z
" transform="scale(0.015625)"/>
       <path id="ArialMT-63" d="M 2588 1216 
L 3141 1144 
Q 3050 572 2676 248 
Q 2303 -75 1759 -75 
Q 1078 -75 664 370 
Q 250 816 250 1647 
Q 250 2184 428 2587 
Q 606 2991 970 3192 
Q 1334 3394 1763 3394 
Q 2303 3394 2647 3120 
Q 2991 2847 3088 2344 
L 2541 2259 
Q 2463 2594 2264 2762 
Q 2066 2931 1784 2931 
Q 1359 2931 1093 2626 
Q 828 2322 828 1663 
Q 828 994 1084 691 
Q 1341 388 1753 388 
Q 2084 388 2306 591 
Q 2528 794 2588 1216 
z
" transform="scale(0.015625)"/>
       <path id="ArialMT-68" d="M 422 0 
L 422 4581 
L 984 4581 
L 984 2938 
Q 1378 3394 1978 3394 
Q 2347 3394 2619 3248 
Q 2891 3103 3008 2847 
Q 3125 2591 3125 2103 
L 3125 0 
L 2563 0 
L 2563 2103 
Q 2563 2525 2380 2717 
Q 2197 2909 1863 2909 
Q 1613 2909 1392 2779 
Q 1172 2650 1078 2428 
Q 984 2206 984 1816 
L 984 0 
L 422 0 
z
" transform="scale(0.015625)"/>
      </defs>
      <use xlink:href="#ArialMT-45"/>
      <use xlink:href="#ArialMT-70" x="66.699219"/>
      <use xlink:href="#ArialMT-6f" x="122.314453"/>
      <use xlink:href="#ArialMT-63" x="177.929688"/>
      <use xlink:href="#ArialMT-68" x="227.929688"/>
     </g>
    </g>
   </g>
   <g id="matplotlib.axis_2">
    <g id="ytick_1">
     <g id="line2d_10">
      <path d="M 270 678.169892 
L 1030.909091 678.169892 
" clip-path="url(#p327ef09cab)" style="fill: none; stroke: #ffffff; stroke-linecap: round"/>
     </g>
     <g id="text_11">
      <!-- -0.40 -->
      <g style="fill: #262626" transform="translate(197.825781 688.011885)scale(0.275 -0.275)">
       <defs>
        <path id="ArialMT-2d" d="M 203 1375 
L 203 1941 
L 1931 1941 
L 1931 1375 
L 203 1375 
z
" transform="scale(0.015625)"/>
        <path id="ArialMT-2e" d="M 581 0 
L 581 641 
L 1222 641 
L 1222 0 
L 581 0 
z
" transform="scale(0.015625)"/>
       </defs>
       <use xlink:href="#ArialMT-2d"/>
       <use xlink:href="#ArialMT-30" x="33.300781"/>
       <use xlink:href="#ArialMT-2e" x="88.916016"/>
       <use xlink:href="#ArialMT-34" x="116.699219"/>
       <use xlink:href="#ArialMT-30" x="172.314453"/>
      </g>
     </g>
    </g>
    <g id="ytick_2">
     <g id="line2d_11">
      <path d="M 270 584.069895 
L 1030.909091 584.069895 
" clip-path="url(#p327ef09cab)" style="fill: none; stroke: #ffffff; stroke-linecap: round"/>
     </g>
     <g id="text_12">
      <!-- -0.35 -->
      <g style="fill: #262626" transform="translate(197.825781 593.911887)scale(0.275 -0.275)">
       <use xlink:href="#ArialMT-2d"/>
       <use xlink:href="#ArialMT-30" x="33.300781"/>
       <use xlink:href="#ArialMT-2e" x="88.916016"/>
       <use xlink:href="#ArialMT-33" x="116.699219"/>
       <use xlink:href="#ArialMT-35" x="172.314453"/>
      </g>
     </g>
    </g>
    <g id="ytick_3">
     <g id="line2d_12">
      <path d="M 270 489.969898 
L 1030.909091 489.969898 
" clip-path="url(#p327ef09cab)" style="fill: none; stroke: #ffffff; stroke-linecap: round"/>
     </g>
     <g id="text_13">
      <!-- -0.30 -->
      <g style="fill: #262626" transform="translate(197.825781 499.81189)scale(0.275 -0.275)">
       <use xlink:href="#ArialMT-2d"/>
       <use xlink:href="#ArialMT-30" x="33.300781"/>
       <use xlink:href="#ArialMT-2e" x="88.916016"/>
       <use xlink:href="#ArialMT-33" x="116.699219"/>
       <use xlink:href="#ArialMT-30" x="172.314453"/>
      </g>
     </g>
    </g>
    <g id="ytick_4">
     <g id="line2d_13">
      <path d="M 270 395.869901 
L 1030.909091 395.869901 
" clip-path="url(#p327ef09cab)" style="fill: none; stroke: #ffffff; stroke-linecap: round"/>
     </g>
     <g id="text_14">
      <!-- -0.25 -->
      <g style="fill: #262626" transform="translate(197.825781 405.711893)scale(0.275 -0.275)">
       <use xlink:href="#ArialMT-2d"/>
       <use xlink:href="#ArialMT-30" x="33.300781"/>
       <use xlink:href="#ArialMT-2e" x="88.916016"/>
       <use xlink:href="#ArialMT-32" x="116.699219"/>
       <use xlink:href="#ArialMT-35" x="172.314453"/>
      </g>
     </g>
    </g>
    <g id="ytick_5">
     <g id="line2d_14">
      <path d="M 270 301.769904 
L 1030.909091 301.769904 
" clip-path="url(#p327ef09cab)" style="fill: none; stroke: #ffffff; stroke-linecap: round"/>
     </g>
     <g id="text_15">
      <!-- -0.20 -->
      <g style="fill: #262626" transform="translate(197.825781 311.611896)scale(0.275 -0.275)">
       <use xlink:href="#ArialMT-2d"/>
       <use xlink:href="#ArialMT-30" x="33.300781"/>
       <use xlink:href="#ArialMT-2e" x="88.916016"/>
       <use xlink:href="#ArialMT-32" x="116.699219"/>
       <use xlink:href="#ArialMT-30" x="172.314453"/>
      </g>
     </g>
    </g>
    <g id="ytick_6">
     <g id="line2d_15">
      <path d="M 270 207.669907 
L 1030.909091 207.669907 
" clip-path="url(#p327ef09cab)" style="fill: none; stroke: #ffffff; stroke-linecap: round"/>
     </g>
     <g id="text_16">
      <!-- -0.15 -->
      <g style="fill: #262626" transform="translate(197.825781 217.511899)scale(0.275 -0.275)">
       <use xlink:href="#ArialMT-2d"/>
       <use xlink:href="#ArialMT-30" x="33.300781"/>
       <use xlink:href="#ArialMT-2e" x="88.916016"/>
       <use xlink:href="#ArialMT-31" x="116.699219"/>
       <use xlink:href="#ArialMT-35" x="172.314453"/>
      </g>
     </g>
    </g>
    <g id="ytick_7">
     <g id="line2d_16">
      <path d="M 270 113.56991 
L 1030.909091 113.56991 
" clip-path="url(#p327ef09cab)" style="fill: none; stroke: #ffffff; stroke-linecap: round"/>
     </g>
     <g id="text_17">
      <!-- -0.10 -->
      <g style="fill: #262626" transform="translate(197.825781 123.411902)scale(0.275 -0.275)">
       <use xlink:href="#ArialMT-2d"/>
       <use xlink:href="#ArialMT-30" x="33.300781"/>
       <use xlink:href="#ArialMT-2e" x="88.916016"/>
       <use xlink:href="#ArialMT-31" x="116.699219"/>
       <use xlink:href="#ArialMT-30" x="172.314453"/>
      </g>
     </g>
    </g>
    <g id="text_18">
     <!-- Change of acc -->
     <g style="fill: #262626" transform="translate(187.511719 526.564219)rotate(-90)scale(0.3 -0.3)">
      <defs>
       <path id="ArialMT-43" d="M 3763 1606 
L 4369 1453 
Q 4178 706 3683 314 
Q 3188 -78 2472 -78 
Q 1731 -78 1267 223 
Q 803 525 561 1097 
Q 319 1669 319 2325 
Q 319 3041 592 3573 
Q 866 4106 1370 4382 
Q 1875 4659 2481 4659 
Q 3169 4659 3637 4309 
Q 4106 3959 4291 3325 
L 3694 3184 
Q 3534 3684 3231 3912 
Q 2928 4141 2469 4141 
Q 1941 4141 1586 3887 
Q 1231 3634 1087 3207 
Q 944 2781 944 2328 
Q 944 1744 1114 1308 
Q 1284 872 1643 656 
Q 2003 441 2422 441 
Q 2931 441 3284 734 
Q 3638 1028 3763 1606 
z
" transform="scale(0.015625)"/>
       <path id="ArialMT-61" d="M 2588 409 
Q 2275 144 1986 34 
Q 1697 -75 1366 -75 
Q 819 -75 525 192 
Q 231 459 231 875 
Q 231 1119 342 1320 
Q 453 1522 633 1644 
Q 813 1766 1038 1828 
Q 1203 1872 1538 1913 
Q 2219 1994 2541 2106 
Q 2544 2222 2544 2253 
Q 2544 2597 2384 2738 
Q 2169 2928 1744 2928 
Q 1347 2928 1158 2789 
Q 969 2650 878 2297 
L 328 2372 
Q 403 2725 575 2942 
Q 747 3159 1072 3276 
Q 1397 3394 1825 3394 
Q 2250 3394 2515 3294 
Q 2781 3194 2906 3042 
Q 3031 2891 3081 2659 
Q 3109 2516 3109 2141 
L 3109 1391 
Q 3109 606 3145 398 
Q 3181 191 3288 0 
L 2700 0 
Q 2613 175 2588 409 
z
M 2541 1666 
Q 2234 1541 1622 1453 
Q 1275 1403 1131 1340 
Q 988 1278 909 1158 
Q 831 1038 831 891 
Q 831 666 1001 516 
Q 1172 366 1500 366 
Q 1825 366 2078 508 
Q 2331 650 2450 897 
Q 2541 1088 2541 1459 
L 2541 1666 
z
" transform="scale(0.015625)"/>
       <path id="ArialMT-6e" d="M 422 0 
L 422 3319 
L 928 3319 
L 928 2847 
Q 1294 3394 1984 3394 
Q 2284 3394 2536 3286 
Q 2788 3178 2913 3003 
Q 3038 2828 3088 2588 
Q 3119 2431 3119 2041 
L 3119 0 
L 2556 0 
L 2556 2019 
Q 2556 2363 2490 2533 
Q 2425 2703 2258 2804 
Q 2091 2906 1866 2906 
Q 1506 2906 1245 2678 
Q 984 2450 984 1813 
L 984 0 
L 422 0 
z
" transform="scale(0.015625)"/>
       <path id="ArialMT-67" d="M 319 -275 
L 866 -356 
Q 900 -609 1056 -725 
Q 1266 -881 1628 -881 
Q 2019 -881 2231 -725 
Q 2444 -569 2519 -288 
Q 2563 -116 2559 434 
Q 2191 0 1641 0 
Q 956 0 581 494 
Q 206 988 206 1678 
Q 206 2153 378 2554 
Q 550 2956 876 3175 
Q 1203 3394 1644 3394 
Q 2231 3394 2613 2919 
L 2613 3319 
L 3131 3319 
L 3131 450 
Q 3131 -325 2973 -648 
Q 2816 -972 2473 -1159 
Q 2131 -1347 1631 -1347 
Q 1038 -1347 672 -1080 
Q 306 -813 319 -275 
z
M 784 1719 
Q 784 1066 1043 766 
Q 1303 466 1694 466 
Q 2081 466 2343 764 
Q 2606 1063 2606 1700 
Q 2606 2309 2336 2618 
Q 2066 2928 1684 2928 
Q 1309 2928 1046 2623 
Q 784 2319 784 1719 
z
" transform="scale(0.015625)"/>
       <path id="ArialMT-65" d="M 2694 1069 
L 3275 997 
Q 3138 488 2766 206 
Q 2394 -75 1816 -75 
Q 1088 -75 661 373 
Q 234 822 234 1631 
Q 234 2469 665 2931 
Q 1097 3394 1784 3394 
Q 2450 3394 2872 2941 
Q 3294 2488 3294 1666 
Q 3294 1616 3291 1516 
L 816 1516 
Q 847 969 1125 678 
Q 1403 388 1819 388 
Q 2128 388 2347 550 
Q 2566 713 2694 1069 
z
M 847 1978 
L 2700 1978 
Q 2663 2397 2488 2606 
Q 2219 2931 1791 2931 
Q 1403 2931 1139 2672 
Q 875 2413 847 1978 
z
" transform="scale(0.015625)"/>
       <path id="ArialMT-20" transform="scale(0.015625)"/>
       <path id="ArialMT-66" d="M 556 0 
L 556 2881 
L 59 2881 
L 59 3319 
L 556 3319 
L 556 3672 
Q 556 4006 616 4169 
Q 697 4388 901 4523 
Q 1106 4659 1475 4659 
Q 1713 4659 2000 4603 
L 1916 4113 
Q 1741 4144 1584 4144 
Q 1328 4144 1222 4034 
Q 1116 3925 1116 3625 
L 1116 3319 
L 1763 3319 
L 1763 2881 
L 1116 2881 
L 1116 0 
L 556 0 
z
" transform="scale(0.015625)"/>
      </defs>
      <use xlink:href="#ArialMT-43"/>
      <use xlink:href="#ArialMT-68" x="72.216797"/>
      <use xlink:href="#ArialMT-61" x="127.832031"/>
      <use xlink:href="#ArialMT-6e" x="183.447266"/>
      <use xlink:href="#ArialMT-67" x="239.0625"/>
      <use xlink:href="#ArialMT-65" x="294.677734"/>
      <use xlink:href="#ArialMT-20" x="350.292969"/>
      <use xlink:href="#ArialMT-6f" x="378.076172"/>
      <use xlink:href="#ArialMT-66" x="433.691406"/>
      <use xlink:href="#ArialMT-20" x="461.474609"/>
      <use xlink:href="#ArialMT-61" x="489.257812"/>
      <use xlink:href="#ArialMT-63" x="544.873047"/>
      <use xlink:href="#ArialMT-63" x="594.873047"/>
     </g>
    </g>
   </g>
   <g id="line2d_17">
    <path d="M 304.586777 265.447305 
L 322.323586 231.194906 
L 340.060394 368.204502 
L 357.797203 353.524902 
L 375.534011 347.878903 
L 393.27082 471.526299 
L 411.007629 476.984099 
L 428.744437 491.287298 
L 446.481246 368.580902 
L 464.218055 501.826498 
L 481.954863 514.812297 
L 499.691672 566.379096 
L 517.428481 556.028096 
L 535.165289 524.034097 
L 552.902098 546.994496 
L 570.638907 572.213296 
L 588.375715 524.786897 
L 606.112524 517.635297 
L 623.849332 542.854097 
L 641.586141 604.583695 
L 659.32295 541.724897 
L 677.059758 586.140095 
L 694.796567 589.527695 
L 712.533376 550.946696 
L 730.270184 534.949697 
L 748.006993 559.603896 
L 765.743802 602.137095 
L 783.48061 553.957896 
L 801.217419 578.988495 
L 818.954228 528.362697 
L 836.691036 597.432095 
L 854.427845 587.457495 
L 872.164654 596.302895 
L 889.901462 609.288694 
L 907.638271 585.010895 
L 925.375079 601.572495 
L 943.111888 588.210295 
L 960.848697 598.561295 
L 978.585505 588.963095 
L 996.322314 587.457495 
" clip-path="url(#p327ef09cab)" style="fill: none; stroke-dasharray: 5.55,2.4; stroke-dashoffset: 0; stroke: #4c72b0; stroke-width: 1.5"/>
   </g>
   <g id="line2d_18">
    <path d="M 304.586777 205.411507 
L 322.323586 261.871505 
L 340.060394 174.923108 
L 357.797203 197.883507 
L 375.534011 200.706507 
L 393.27082 310.427104 
L 411.007629 338.092503 
L 428.744437 358.418102 
L 446.481246 343.926703 
L 464.218055 401.892301 
L 481.954863 461.739899 
L 499.691672 469.644299 
L 517.428481 429.7459 
L 535.165289 473.408299 
L 552.902098 502.955698 
L 570.638907 521.963897 
L 588.375715 548.500096 
L 606.112524 590.468695 
L 623.849332 561.485896 
L 641.586141 635.448494 
L 659.32295 589.339495 
L 677.059758 618.886894 
L 694.796567 694.731492 
L 712.533376 595.173695 
L 730.270184 679.299092 
L 748.006993 679.675492 
L 765.743802 715.998091 
L 783.48061 726.349091 
L 801.217419 687.579892 
L 818.954228 691.720292 
L 836.691036 701.694892 
L 854.427845 713.927891 
L 872.164654 723.149691 
L 889.901462 712.045891 
L 907.638271 697.554492 
L 925.375079 717.503691 
L 943.111888 713.927891 
L 960.848697 714.680691 
L 978.585505 699.060092 
L 996.322314 709.599291 
" clip-path="url(#p327ef09cab)" style="fill: none; stroke-dasharray: 1.5,2.475; stroke-dashoffset: 0; stroke: #dd8452; stroke-width: 1.5"/>
   </g>
   <g id="line2d_19">
    <path d="M 304.586777 147.822309 
L 322.323586 183.015708 
L 340.060394 133.330909 
L 357.797203 221.784906 
L 375.534011 184.897708 
L 393.27082 248.321106 
L 411.007629 391.541301 
L 428.744437 412.619701 
L 446.481246 299.135104 
L 464.218055 360.864702 
L 481.954863 420.7123 
L 499.691672 417.3247 
L 517.428481 482.630098 
L 535.165289 469.644299 
L 552.902098 468.891499 
L 570.638907 491.663698 
L 588.375715 492.792898 
L 606.112524 522.904897 
L 623.849332 496.368698 
L 641.586141 532.879497 
L 659.32295 582.564295 
L 677.059758 553.016896 
L 694.796567 575.789096 
L 712.533376 561.109496 
L 730.270184 577.671095 
L 748.006993 600.819695 
L 765.743802 585.387295 
L 783.48061 577.294695 
L 801.217419 594.609095 
L 818.954228 629.802494 
L 836.691036 618.510494 
L 854.427845 591.033295 
L 872.164654 589.904095 
L 889.901462 650.504493 
L 907.638271 630.931694 
L 925.375079 633.566494 
L 943.111888 629.802494 
L 960.848697 632.625494 
L 978.585505 625.850294 
L 996.322314 616.440294 
" clip-path="url(#p327ef09cab)" style="fill: none; stroke: #55a868; stroke-width: 1.5; stroke-linecap: round"/>
   </g>
   <g id="patch_3">
    <path d="M 270 756 
L 270 103.68 
" style="fill: none; stroke: #ffffff; stroke-width: 1.25; stroke-linejoin: miter; stroke-linecap: square"/>
   </g>
   <g id="patch_4">
    <path d="M 1030.909091 756 
L 1030.909091 103.68 
" style="fill: none; stroke: #ffffff; stroke-width: 1.25; stroke-linejoin: miter; stroke-linecap: square"/>
   </g>
   <g id="patch_5">
    <path d="M 270 756 
L 1030.909091 756 
" style="fill: none; stroke: #ffffff; stroke-width: 1.25; stroke-linejoin: miter; stroke-linecap: square"/>
   </g>
   <g id="patch_6">
    <path d="M 270 103.68 
L 1030.909091 103.68 
" style="fill: none; stroke: #ffffff; stroke-width: 1.25; stroke-linejoin: miter; stroke-linecap: square"/>
   </g>
   <g id="text_19">
    <!-- Change in SGD optimizer -->
    <g style="fill: #262626" transform="translate(480.387358 97.68)scale(0.3 -0.3)">
     <defs>
      <path id="ArialMT-69" d="M 425 3934 
L 425 4581 
L 988 4581 
L 988 3934 
L 425 3934 
z
M 425 0 
L 425 3319 
L 988 3319 
L 988 0 
L 425 0 
z
" transform="scale(0.015625)"/>
      <path id="ArialMT-53" d="M 288 1472 
L 859 1522 
Q 900 1178 1048 958 
Q 1197 738 1509 602 
Q 1822 466 2213 466 
Q 2559 466 2825 569 
Q 3091 672 3220 851 
Q 3350 1031 3350 1244 
Q 3350 1459 3225 1620 
Q 3100 1781 2813 1891 
Q 2628 1963 1997 2114 
Q 1366 2266 1113 2400 
Q 784 2572 623 2826 
Q 463 3081 463 3397 
Q 463 3744 659 4045 
Q 856 4347 1234 4503 
Q 1613 4659 2075 4659 
Q 2584 4659 2973 4495 
Q 3363 4331 3572 4012 
Q 3781 3694 3797 3291 
L 3216 3247 
Q 3169 3681 2898 3903 
Q 2628 4125 2100 4125 
Q 1550 4125 1298 3923 
Q 1047 3722 1047 3438 
Q 1047 3191 1225 3031 
Q 1400 2872 2139 2705 
Q 2878 2538 3153 2413 
Q 3553 2228 3743 1945 
Q 3934 1663 3934 1294 
Q 3934 928 3725 604 
Q 3516 281 3123 101 
Q 2731 -78 2241 -78 
Q 1619 -78 1198 103 
Q 778 284 539 648 
Q 300 1013 288 1472 
z
" transform="scale(0.015625)"/>
      <path id="ArialMT-47" d="M 2638 1797 
L 2638 2334 
L 4578 2338 
L 4578 638 
Q 4131 281 3656 101 
Q 3181 -78 2681 -78 
Q 2006 -78 1454 211 
Q 903 500 622 1047 
Q 341 1594 341 2269 
Q 341 2938 620 3517 
Q 900 4097 1425 4378 
Q 1950 4659 2634 4659 
Q 3131 4659 3532 4498 
Q 3934 4338 4162 4050 
Q 4391 3763 4509 3300 
L 3963 3150 
Q 3859 3500 3706 3700 
Q 3553 3900 3268 4020 
Q 2984 4141 2638 4141 
Q 2222 4141 1919 4014 
Q 1616 3888 1430 3681 
Q 1244 3475 1141 3228 
Q 966 2803 966 2306 
Q 966 1694 1177 1281 
Q 1388 869 1791 669 
Q 2194 469 2647 469 
Q 3041 469 3416 620 
Q 3791 772 3984 944 
L 3984 1797 
L 2638 1797 
z
" transform="scale(0.015625)"/>
      <path id="ArialMT-44" d="M 494 0 
L 494 4581 
L 2072 4581 
Q 2606 4581 2888 4516 
Q 3281 4425 3559 4188 
Q 3922 3881 4101 3404 
Q 4281 2928 4281 2316 
Q 4281 1794 4159 1391 
Q 4038 988 3847 723 
Q 3656 459 3429 307 
Q 3203 156 2883 78 
Q 2563 0 2147 0 
L 494 0 
z
M 1100 541 
L 2078 541 
Q 2531 541 2789 625 
Q 3047 709 3200 863 
Q 3416 1078 3536 1442 
Q 3656 1806 3656 2325 
Q 3656 3044 3420 3430 
Q 3184 3816 2847 3947 
Q 2603 4041 2063 4041 
L 1100 4041 
L 1100 541 
z
" transform="scale(0.015625)"/>
      <path id="ArialMT-74" d="M 1650 503 
L 1731 6 
Q 1494 -44 1306 -44 
Q 1000 -44 831 53 
Q 663 150 594 308 
Q 525 466 525 972 
L 525 2881 
L 113 2881 
L 113 3319 
L 525 3319 
L 525 4141 
L 1084 4478 
L 1084 3319 
L 1650 3319 
L 1650 2881 
L 1084 2881 
L 1084 941 
Q 1084 700 1114 631 
Q 1144 563 1211 522 
Q 1278 481 1403 481 
Q 1497 481 1650 503 
z
" transform="scale(0.015625)"/>
      <path id="ArialMT-6d" d="M 422 0 
L 422 3319 
L 925 3319 
L 925 2853 
Q 1081 3097 1340 3245 
Q 1600 3394 1931 3394 
Q 2300 3394 2536 3241 
Q 2772 3088 2869 2813 
Q 3263 3394 3894 3394 
Q 4388 3394 4653 3120 
Q 4919 2847 4919 2278 
L 4919 0 
L 4359 0 
L 4359 2091 
Q 4359 2428 4304 2576 
Q 4250 2725 4106 2815 
Q 3963 2906 3769 2906 
Q 3419 2906 3187 2673 
Q 2956 2441 2956 1928 
L 2956 0 
L 2394 0 
L 2394 2156 
Q 2394 2531 2256 2718 
Q 2119 2906 1806 2906 
Q 1569 2906 1367 2781 
Q 1166 2656 1075 2415 
Q 984 2175 984 1722 
L 984 0 
L 422 0 
z
" transform="scale(0.015625)"/>
      <path id="ArialMT-7a" d="M 125 0 
L 125 456 
L 2238 2881 
Q 1878 2863 1603 2863 
L 250 2863 
L 250 3319 
L 2963 3319 
L 2963 2947 
L 1166 841 
L 819 456 
Q 1197 484 1528 484 
L 3063 484 
L 3063 0 
L 125 0 
z
" transform="scale(0.015625)"/>
      <path id="ArialMT-72" d="M 416 0 
L 416 3319 
L 922 3319 
L 922 2816 
Q 1116 3169 1280 3281 
Q 1444 3394 1641 3394 
Q 1925 3394 2219 3213 
L 2025 2691 
Q 1819 2813 1613 2813 
Q 1428 2813 1281 2702 
Q 1134 2591 1072 2394 
Q 978 2094 978 1738 
L 978 0 
L 416 0 
z
" transform="scale(0.015625)"/>
     </defs>
     <use xlink:href="#ArialMT-43"/>
     <use xlink:href="#ArialMT-68" x="72.216797"/>
     <use xlink:href="#ArialMT-61" x="127.832031"/>
     <use xlink:href="#ArialMT-6e" x="183.447266"/>
     <use xlink:href="#ArialMT-67" x="239.0625"/>
     <use xlink:href="#ArialMT-65" x="294.677734"/>
     <use xlink:href="#ArialMT-20" x="350.292969"/>
     <use xlink:href="#ArialMT-69" x="378.076172"/>
     <use xlink:href="#ArialMT-6e" x="400.292969"/>
     <use xlink:href="#ArialMT-20" x="455.908203"/>
     <use xlink:href="#ArialMT-53" x="483.691406"/>
     <use xlink:href="#ArialMT-47" x="550.390625"/>
     <use xlink:href="#ArialMT-44" x="628.173828"/>
     <use xlink:href="#ArialMT-20" x="700.390625"/>
     <use xlink:href="#ArialMT-6f" x="728.173828"/>
     <use xlink:href="#ArialMT-70" x="783.789062"/>
     <use xlink:href="#ArialMT-74" x="839.404297"/>
     <use xlink:href="#ArialMT-69" x="867.1875"/>
     <use xlink:href="#ArialMT-6d" x="889.404297"/>
     <use xlink:href="#ArialMT-69" x="972.705078"/>
     <use xlink:href="#ArialMT-7a" x="994.921875"/>
     <use xlink:href="#ArialMT-65" x="1044.921875"/>
     <use xlink:href="#ArialMT-72" x="1100.537109"/>
    </g>
   </g>
   <g id="legend_1">
    <g id="patch_7">
     <path d="M 620.304013 243.693672 
L 1011.659091 243.693672 
Q 1017.159091 243.693672 1017.159091 238.193672 
L 1017.159091 122.93 
Q 1017.159091 117.43 1011.659091 117.43 
L 620.304013 117.43 
Q 614.804013 117.43 614.804013 122.93 
L 614.804013 238.193672 
Q 614.804013 243.693672 620.304013 243.693672 
z
" style="fill: #eaeaf2; opacity: 0.8; stroke: #cccccc; stroke-linejoin: miter"/>
    </g>
    <g id="line2d_20">
     <path d="M 625.804013 138.488984 
L 653.304013 138.488984 
L 680.804013 138.488984 
" style="fill: none; stroke-dasharray: 5.55,2.4; stroke-dashoffset: 0; stroke: #4c72b0; stroke-width: 1.5"/>
    </g>
    <g id="text_20">
     <!-- CE Loss -->
     <g style="fill: #262626" transform="translate(702.804013 148.113984)scale(0.275 -0.275)">
      <defs>
       <path id="ArialMT-4c" d="M 469 0 
L 469 4581 
L 1075 4581 
L 1075 541 
L 3331 541 
L 3331 0 
L 469 0 
z
" transform="scale(0.015625)"/>
       <path id="ArialMT-73" d="M 197 991 
L 753 1078 
Q 800 744 1014 566 
Q 1228 388 1613 388 
Q 2000 388 2187 545 
Q 2375 703 2375 916 
Q 2375 1106 2209 1216 
Q 2094 1291 1634 1406 
Q 1016 1563 777 1677 
Q 538 1791 414 1992 
Q 291 2194 291 2438 
Q 291 2659 392 2848 
Q 494 3038 669 3163 
Q 800 3259 1026 3326 
Q 1253 3394 1513 3394 
Q 1903 3394 2198 3281 
Q 2494 3169 2634 2976 
Q 2775 2784 2828 2463 
L 2278 2388 
Q 2241 2644 2061 2787 
Q 1881 2931 1553 2931 
Q 1166 2931 1000 2803 
Q 834 2675 834 2503 
Q 834 2394 903 2306 
Q 972 2216 1119 2156 
Q 1203 2125 1616 2013 
Q 2213 1853 2448 1751 
Q 2684 1650 2818 1456 
Q 2953 1263 2953 975 
Q 2953 694 2789 445 
Q 2625 197 2315 61 
Q 2006 -75 1616 -75 
Q 969 -75 630 194 
Q 291 463 197 991 
z
" transform="scale(0.015625)"/>
      </defs>
      <use xlink:href="#ArialMT-43"/>
      <use xlink:href="#ArialMT-45" x="72.216797"/>
      <use xlink:href="#ArialMT-20" x="138.916016"/>
      <use xlink:href="#ArialMT-4c" x="166.699219"/>
      <use xlink:href="#ArialMT-6f" x="222.314453"/>
      <use xlink:href="#ArialMT-73" x="277.929688"/>
      <use xlink:href="#ArialMT-73" x="327.929688"/>
     </g>
    </g>
    <g id="line2d_21">
     <path d="M 625.804013 177.72375 
L 653.304013 177.72375 
L 680.804013 177.72375 
" style="fill: none; stroke-dasharray: 1.5,2.475; stroke-dashoffset: 0; stroke: #dd8452; stroke-width: 1.5"/>
    </g>
    <g id="text_21">
     <!-- Focal Loss(Gamma=0.5) -->
     <g style="fill: #262626" transform="translate(702.804013 187.34875)scale(0.275 -0.275)">
      <defs>
       <path id="ArialMT-46" d="M 525 0 
L 525 4581 
L 3616 4581 
L 3616 4041 
L 1131 4041 
L 1131 2622 
L 3281 2622 
L 3281 2081 
L 1131 2081 
L 1131 0 
L 525 0 
z
" transform="scale(0.015625)"/>
       <path id="ArialMT-6c" d="M 409 0 
L 409 4581 
L 972 4581 
L 972 0 
L 409 0 
z
" transform="scale(0.015625)"/>
       <path id="ArialMT-28" d="M 1497 -1347 
Q 1031 -759 709 28 
Q 388 816 388 1659 
Q 388 2403 628 3084 
Q 909 3875 1497 4659 
L 1900 4659 
Q 1522 4009 1400 3731 
Q 1209 3300 1100 2831 
Q 966 2247 966 1656 
Q 966 153 1900 -1347 
L 1497 -1347 
z
" transform="scale(0.015625)"/>
       <path id="ArialMT-3d" d="M 3381 2694 
L 356 2694 
L 356 3219 
L 3381 3219 
L 3381 2694 
z
M 3381 1303 
L 356 1303 
L 356 1828 
L 3381 1828 
L 3381 1303 
z
" transform="scale(0.015625)"/>
       <path id="ArialMT-29" d="M 791 -1347 
L 388 -1347 
Q 1322 153 1322 1656 
Q 1322 2244 1188 2822 
Q 1081 3291 891 3722 
Q 769 4003 388 4659 
L 791 4659 
Q 1378 3875 1659 3084 
Q 1900 2403 1900 1659 
Q 1900 816 1576 28 
Q 1253 -759 791 -1347 
z
" transform="scale(0.015625)"/>
      </defs>
      <use xlink:href="#ArialMT-46"/>
      <use xlink:href="#ArialMT-6f" x="61.083984"/>
      <use xlink:href="#ArialMT-63" x="116.699219"/>
      <use xlink:href="#ArialMT-61" x="166.699219"/>
      <use xlink:href="#ArialMT-6c" x="222.314453"/>
      <use xlink:href="#ArialMT-20" x="244.53125"/>
      <use xlink:href="#ArialMT-4c" x="272.314453"/>
      <use xlink:href="#ArialMT-6f" x="327.929688"/>
      <use xlink:href="#ArialMT-73" x="383.544922"/>
      <use xlink:href="#ArialMT-73" x="433.544922"/>
      <use xlink:href="#ArialMT-28" x="483.544922"/>
      <use xlink:href="#ArialMT-47" x="516.845703"/>
      <use xlink:href="#ArialMT-61" x="594.628906"/>
      <use xlink:href="#ArialMT-6d" x="650.244141"/>
      <use xlink:href="#ArialMT-6d" x="733.544922"/>
      <use xlink:href="#ArialMT-61" x="816.845703"/>
      <use xlink:href="#ArialMT-3d" x="872.460938"/>
      <use xlink:href="#ArialMT-30" x="930.859375"/>
      <use xlink:href="#ArialMT-2e" x="986.474609"/>
      <use xlink:href="#ArialMT-35" x="1014.257812"/>
      <use xlink:href="#ArialMT-29" x="1069.873047"/>
     </g>
    </g>
    <g id="line2d_22">
     <path d="M 625.804013 217.280781 
L 653.304013 217.280781 
L 680.804013 217.280781 
" style="fill: none; stroke: #55a868; stroke-width: 1.5; stroke-linecap: round"/>
    </g>
    <g id="text_22">
     <!-- Focal Loss(Gamma=2) -->
     <g style="fill: #262626" transform="translate(702.804013 226.905781)scale(0.275 -0.275)">
      <use xlink:href="#ArialMT-46"/>
      <use xlink:href="#ArialMT-6f" x="61.083984"/>
      <use xlink:href="#ArialMT-63" x="116.699219"/>
      <use xlink:href="#ArialMT-61" x="166.699219"/>
      <use xlink:href="#ArialMT-6c" x="222.314453"/>
      <use xlink:href="#ArialMT-20" x="244.53125"/>
      <use xlink:href="#ArialMT-4c" x="272.314453"/>
      <use xlink:href="#ArialMT-6f" x="327.929688"/>
      <use xlink:href="#ArialMT-73" x="383.544922"/>
      <use xlink:href="#ArialMT-73" x="433.544922"/>
      <use xlink:href="#ArialMT-28" x="483.544922"/>
      <use xlink:href="#ArialMT-47" x="516.845703"/>
      <use xlink:href="#ArialMT-61" x="594.628906"/>
      <use xlink:href="#ArialMT-6d" x="650.244141"/>
      <use xlink:href="#ArialMT-6d" x="733.544922"/>
      <use xlink:href="#ArialMT-61" x="816.845703"/>
      <use xlink:href="#ArialMT-3d" x="872.460938"/>
      <use xlink:href="#ArialMT-32" x="930.859375"/>
      <use xlink:href="#ArialMT-29" x="986.474609"/>
     </g>
    </g>
   </g>
  </g>
  <g id="axes_2">
   <g id="patch_8">
    <path d="M 1183.090909 756 
L 1944 756 
L 1944 103.68 
L 1183.090909 103.68 
z
" style="fill: #eaeaf2"/>
   </g>
   <g id="matplotlib.axis_3">
    <g id="xtick_10">
     <g id="line2d_23">
      <path d="M 1217.677686 756 
L 1217.677686 103.68 
" clip-path="url(#p83cef7e888)" style="fill: none; stroke: #ffffff; stroke-linecap: round"/>
     </g>
     <g id="text_23">
      <!-- 0 -->
      <g style="fill: #262626" transform="translate(1210.031397 785.183984)scale(0.275 -0.275)">
       <use xlink:href="#ArialMT-30"/>
      </g>
     </g>
    </g>
    <g id="xtick_11">
     <g id="line2d_24">
      <path d="M 1306.361729 756 
L 1306.361729 103.68 
" clip-path="url(#p83cef7e888)" style="fill: none; stroke: #ffffff; stroke-linecap: round"/>
     </g>
     <g id="text_24">
      <!-- 5 -->
      <g style="fill: #262626" transform="translate(1298.71544 785.183984)scale(0.275 -0.275)">
       <use xlink:href="#ArialMT-35"/>
      </g>
     </g>
    </g>
    <g id="xtick_12">
     <g id="line2d_25">
      <path d="M 1395.045772 756 
L 1395.045772 103.68 
" clip-path="url(#p83cef7e888)" style="fill: none; stroke: #ffffff; stroke-linecap: round"/>
     </g>
     <g id="text_25">
      <!-- 10 -->
      <g style="fill: #262626" transform="translate(1379.753194 785.183984)scale(0.275 -0.275)">
       <use xlink:href="#ArialMT-31"/>
       <use xlink:href="#ArialMT-30" x="55.615234"/>
      </g>
     </g>
    </g>
    <g id="xtick_13">
     <g id="line2d_26">
      <path d="M 1483.729816 756 
L 1483.729816 103.68 
" clip-path="url(#p83cef7e888)" style="fill: none; stroke: #ffffff; stroke-linecap: round"/>
     </g>
     <g id="text_26">
      <!-- 15 -->
      <g style="fill: #262626" transform="translate(1468.437238 785.183984)scale(0.275 -0.275)">
       <use xlink:href="#ArialMT-31"/>
       <use xlink:href="#ArialMT-35" x="55.615234"/>
      </g>
     </g>
    </g>
    <g id="xtick_14">
     <g id="line2d_27">
      <path d="M 1572.413859 756 
L 1572.413859 103.68 
" clip-path="url(#p83cef7e888)" style="fill: none; stroke: #ffffff; stroke-linecap: round"/>
     </g>
     <g id="text_27">
      <!-- 20 -->
      <g style="fill: #262626" transform="translate(1557.121281 785.183984)scale(0.275 -0.275)">
       <use xlink:href="#ArialMT-32"/>
       <use xlink:href="#ArialMT-30" x="55.615234"/>
      </g>
     </g>
    </g>
    <g id="xtick_15">
     <g id="line2d_28">
      <path d="M 1661.097902 756 
L 1661.097902 103.68 
" clip-path="url(#p83cef7e888)" style="fill: none; stroke: #ffffff; stroke-linecap: round"/>
     </g>
     <g id="text_28">
      <!-- 25 -->
      <g style="fill: #262626" transform="translate(1645.805324 785.183984)scale(0.275 -0.275)">
       <use xlink:href="#ArialMT-32"/>
       <use xlink:href="#ArialMT-35" x="55.615234"/>
      </g>
     </g>
    </g>
    <g id="xtick_16">
     <g id="line2d_29">
      <path d="M 1749.781945 756 
L 1749.781945 103.68 
" clip-path="url(#p83cef7e888)" style="fill: none; stroke: #ffffff; stroke-linecap: round"/>
     </g>
     <g id="text_29">
      <!-- 30 -->
      <g style="fill: #262626" transform="translate(1734.489367 785.183984)scale(0.275 -0.275)">
       <use xlink:href="#ArialMT-33"/>
       <use xlink:href="#ArialMT-30" x="55.615234"/>
      </g>
     </g>
    </g>
    <g id="xtick_17">
     <g id="line2d_30">
      <path d="M 1838.465989 756 
L 1838.465989 103.68 
" clip-path="url(#p83cef7e888)" style="fill: none; stroke: #ffffff; stroke-linecap: round"/>
     </g>
     <g id="text_30">
      <!-- 35 -->
      <g style="fill: #262626" transform="translate(1823.17341 785.183984)scale(0.275 -0.275)">
       <use xlink:href="#ArialMT-33"/>
       <use xlink:href="#ArialMT-35" x="55.615234"/>
      </g>
     </g>
    </g>
    <g id="xtick_18">
     <g id="line2d_31">
      <path d="M 1927.150032 756 
L 1927.150032 103.68 
" clip-path="url(#p83cef7e888)" style="fill: none; stroke: #ffffff; stroke-linecap: round"/>
     </g>
     <g id="text_31">
      <!-- 40 -->
      <g style="fill: #262626" transform="translate(1911.857454 785.183984)scale(0.275 -0.275)">
       <use xlink:href="#ArialMT-34"/>
       <use xlink:href="#ArialMT-30" x="55.615234"/>
      </g>
     </g>
    </g>
    <g id="text_32">
     <!-- Epoch -->
     <g style="fill: #262626" transform="translate(1521.015767 816.123047)scale(0.3 -0.3)">
      <use xlink:href="#ArialMT-45"/>
      <use xlink:href="#ArialMT-70" x="66.699219"/>
      <use xlink:href="#ArialMT-6f" x="122.314453"/>
      <use xlink:href="#ArialMT-63" x="177.929688"/>
      <use xlink:href="#ArialMT-68" x="227.929688"/>
     </g>
    </g>
   </g>
   <g id="matplotlib.axis_4">
    <g id="ytick_8">
     <g id="line2d_32">
      <path d="M 1183.090909 752.610818 
L 1944 752.610818 
" clip-path="url(#p83cef7e888)" style="fill: none; stroke: #ffffff; stroke-linecap: round"/>
     </g>
     <g id="text_33">
      <!-- 0.200 -->
      <g style="fill: #262626" transform="translate(1104.780753 762.45281)scale(0.275 -0.275)">
       <use xlink:href="#ArialMT-30"/>
       <use xlink:href="#ArialMT-2e" x="55.615234"/>
       <use xlink:href="#ArialMT-32" x="83.398438"/>
       <use xlink:href="#ArialMT-30" x="139.013672"/>
       <use xlink:href="#ArialMT-30" x="194.628906"/>
      </g>
     </g>
    </g>
    <g id="ytick_9">
     <g id="line2d_33">
      <path d="M 1183.090909 663.888768 
L 1944 663.888768 
" clip-path="url(#p83cef7e888)" style="fill: none; stroke: #ffffff; stroke-linecap: round"/>
     </g>
     <g id="text_34">
      <!-- 0.225 -->
      <g style="fill: #262626" transform="translate(1104.780753 673.73076)scale(0.275 -0.275)">
       <use xlink:href="#ArialMT-30"/>
       <use xlink:href="#ArialMT-2e" x="55.615234"/>
       <use xlink:href="#ArialMT-32" x="83.398438"/>
       <use xlink:href="#ArialMT-32" x="139.013672"/>
       <use xlink:href="#ArialMT-35" x="194.628906"/>
      </g>
     </g>
    </g>
    <g id="ytick_10">
     <g id="line2d_34">
      <path d="M 1183.090909 575.166718 
L 1944 575.166718 
" clip-path="url(#p83cef7e888)" style="fill: none; stroke: #ffffff; stroke-linecap: round"/>
     </g>
     <g id="text_35">
      <!-- 0.250 -->
      <g style="fill: #262626" transform="translate(1104.780753 585.00871)scale(0.275 -0.275)">
       <use xlink:href="#ArialMT-30"/>
       <use xlink:href="#ArialMT-2e" x="55.615234"/>
       <use xlink:href="#ArialMT-32" x="83.398438"/>
       <use xlink:href="#ArialMT-35" x="139.013672"/>
       <use xlink:href="#ArialMT-30" x="194.628906"/>
      </g>
     </g>
    </g>
    <g id="ytick_11">
     <g id="line2d_35">
      <path d="M 1183.090909 486.444668 
L 1944 486.444668 
" clip-path="url(#p83cef7e888)" style="fill: none; stroke: #ffffff; stroke-linecap: round"/>
     </g>
     <g id="text_36">
      <!-- 0.275 -->
      <g style="fill: #262626" transform="translate(1104.780753 496.28666)scale(0.275 -0.275)">
       <defs>
        <path id="ArialMT-37" d="M 303 3981 
L 303 4522 
L 3269 4522 
L 3269 4084 
Q 2831 3619 2401 2847 
Q 1972 2075 1738 1259 
Q 1569 684 1522 0 
L 944 0 
Q 953 541 1156 1306 
Q 1359 2072 1739 2783 
Q 2119 3494 2547 3981 
L 303 3981 
z
" transform="scale(0.015625)"/>
       </defs>
       <use xlink:href="#ArialMT-30"/>
       <use xlink:href="#ArialMT-2e" x="55.615234"/>
       <use xlink:href="#ArialMT-32" x="83.398438"/>
       <use xlink:href="#ArialMT-37" x="139.013672"/>
       <use xlink:href="#ArialMT-35" x="194.628906"/>
      </g>
     </g>
    </g>
    <g id="ytick_12">
     <g id="line2d_36">
      <path d="M 1183.090909 397.722618 
L 1944 397.722618 
" clip-path="url(#p83cef7e888)" style="fill: none; stroke: #ffffff; stroke-linecap: round"/>
     </g>
     <g id="text_37">
      <!-- 0.300 -->
      <g style="fill: #262626" transform="translate(1104.780753 407.56461)scale(0.275 -0.275)">
       <use xlink:href="#ArialMT-30"/>
       <use xlink:href="#ArialMT-2e" x="55.615234"/>
       <use xlink:href="#ArialMT-33" x="83.398438"/>
       <use xlink:href="#ArialMT-30" x="139.013672"/>
       <use xlink:href="#ArialMT-30" x="194.628906"/>
      </g>
     </g>
    </g>
    <g id="ytick_13">
     <g id="line2d_37">
      <path d="M 1183.090909 309.000568 
L 1944 309.000568 
" clip-path="url(#p83cef7e888)" style="fill: none; stroke: #ffffff; stroke-linecap: round"/>
     </g>
     <g id="text_38">
      <!-- 0.325 -->
      <g style="fill: #262626" transform="translate(1104.780753 318.84256)scale(0.275 -0.275)">
       <use xlink:href="#ArialMT-30"/>
       <use xlink:href="#ArialMT-2e" x="55.615234"/>
       <use xlink:href="#ArialMT-33" x="83.398438"/>
       <use xlink:href="#ArialMT-32" x="139.013672"/>
       <use xlink:href="#ArialMT-35" x="194.628906"/>
      </g>
     </g>
    </g>
    <g id="ytick_14">
     <g id="line2d_38">
      <path d="M 1183.090909 220.278518 
L 1944 220.278518 
" clip-path="url(#p83cef7e888)" style="fill: none; stroke: #ffffff; stroke-linecap: round"/>
     </g>
     <g id="text_39">
      <!-- 0.350 -->
      <g style="fill: #262626" transform="translate(1104.780753 230.12051)scale(0.275 -0.275)">
       <use xlink:href="#ArialMT-30"/>
       <use xlink:href="#ArialMT-2e" x="55.615234"/>
       <use xlink:href="#ArialMT-33" x="83.398438"/>
       <use xlink:href="#ArialMT-35" x="139.013672"/>
       <use xlink:href="#ArialMT-30" x="194.628906"/>
      </g>
     </g>
    </g>
    <g id="ytick_15">
     <g id="line2d_39">
      <path d="M 1183.090909 131.556468 
L 1944 131.556468 
" clip-path="url(#p83cef7e888)" style="fill: none; stroke: #ffffff; stroke-linecap: round"/>
     </g>
     <g id="text_40">
      <!-- 0.375 -->
      <g style="fill: #262626" transform="translate(1104.780753 141.39846)scale(0.275 -0.275)">
       <use xlink:href="#ArialMT-30"/>
       <use xlink:href="#ArialMT-2e" x="55.615234"/>
       <use xlink:href="#ArialMT-33" x="83.398438"/>
       <use xlink:href="#ArialMT-37" x="139.013672"/>
       <use xlink:href="#ArialMT-35" x="194.628906"/>
      </g>
     </g>
    </g>
    <g id="text_41">
     <!-- Change of acc -->
     <g style="fill: #262626" transform="translate(1094.46669 526.564219)rotate(-90)scale(0.3 -0.3)">
      <use xlink:href="#ArialMT-43"/>
      <use xlink:href="#ArialMT-68" x="72.216797"/>
      <use xlink:href="#ArialMT-61" x="127.832031"/>
      <use xlink:href="#ArialMT-6e" x="183.447266"/>
      <use xlink:href="#ArialMT-67" x="239.0625"/>
      <use xlink:href="#ArialMT-65" x="294.677734"/>
      <use xlink:href="#ArialMT-20" x="350.292969"/>
      <use xlink:href="#ArialMT-6f" x="378.076172"/>
      <use xlink:href="#ArialMT-66" x="433.691406"/>
      <use xlink:href="#ArialMT-20" x="461.474609"/>
      <use xlink:href="#ArialMT-61" x="489.257812"/>
      <use xlink:href="#ArialMT-63" x="544.873047"/>
      <use xlink:href="#ArialMT-63" x="594.873047"/>
     </g>
    </g>
   </g>
   <g id="line2d_40">
    <path d="M 1217.677686 359.394692 
L 1235.414495 255.767338 
L 1253.151303 236.248487 
L 1270.888112 339.166065 
L 1288.624921 265.704208 
L 1306.361729 285.223059 
L 1324.098538 290.191493 
L 1341.835346 301.193028 
L 1359.572155 415.467028 
L 1377.308964 403.755717 
L 1395.045772 508.802624 
L 1412.782581 461.957382 
L 1430.51939 471.184475 
L 1448.256198 572.327612 
L 1465.993007 530.095916 
L 1483.729816 603.557774 
L 1501.466624 564.520072 
L 1519.203433 481.476233 
L 1536.940242 527.611699 
L 1554.67705 447.406966 
L 1572.413859 673.115861 
L 1590.150668 581.199817 
L 1607.887476 505.608631 
L 1625.624285 585.813364 
L 1643.361093 726.349091 
L 1661.097902 563.455407 
L 1678.834711 620.592407 
L 1696.571519 618.10819 
L 1714.308328 600.008892 
L 1732.045137 641.530811 
L 1749.781945 671.696308 
L 1767.518754 604.977327 
L 1785.255563 690.860271 
L 1802.992371 675.24519 
L 1820.72918 653.59701 
L 1838.465989 604.622438 
L 1856.202797 592.201351 
L 1873.939606 635.497712 
L 1891.676414 674.180526 
L 1909.413223 666.727873 
" clip-path="url(#p83cef7e888)" style="fill: none; stroke-dasharray: 5.55,2.4; stroke-dashoffset: 0; stroke: #4c72b0; stroke-width: 1.5"/>
   </g>
   <g id="line2d_41">
    <path d="M 1217.677686 394.528624 
L 1235.414495 321.421655 
L 1253.151303 343.069835 
L 1270.888112 145.04222 
L 1288.624921 361.524022 
L 1306.361729 187.983692 
L 1324.098538 255.767338 
L 1341.835346 367.557121 
L 1359.572155 302.61258 
L 1377.308964 385.656419 
L 1395.045772 436.76032 
L 1412.782581 428.243003 
L 1430.51939 573.037389 
L 1448.256198 411.918146 
L 1465.993007 536.129016 
L 1483.729816 547.13055 
L 1501.466624 569.488507 
L 1519.203433 426.113674 
L 1536.940242 621.302184 
L 1554.67705 541.807227 
L 1572.413859 498.865755 
L 1590.150668 578.7156 
L 1607.887476 629.109724 
L 1625.624285 603.202886 
L 1643.361093 642.240588 
L 1661.097902 629.819501 
L 1678.834711 548.550103 
L 1696.571519 680.568513 
L 1714.308328 592.911128 
L 1732.045137 627.335283 
L 1749.781945 487.864221 
L 1767.518754 676.309855 
L 1785.255563 614.20442 
L 1802.992371 682.342954 
L 1820.72918 624.141289 
L 1838.465989 597.524674 
L 1856.202797 670.631644 
L 1873.939606 629.109724 
L 1891.676414 552.098985 
L 1909.413223 601.073556 
" clip-path="url(#p83cef7e888)" style="fill: none; stroke-dasharray: 1.5,2.475; stroke-dashoffset: 0; stroke: #dd8452; stroke-width: 1.5"/>
   </g>
   <g id="line2d_42">
    <path d="M 1217.677686 227.73117 
L 1235.414495 133.330909 
L 1253.151303 146.816661 
L 1270.888112 164.206182 
L 1288.624921 178.756599 
L 1306.361729 216.729636 
L 1324.098538 275.641077 
L 1341.835346 299.418587 
L 1359.572155 345.199164 
L 1377.308964 425.049009 
L 1395.045772 419.370798 
L 1412.782581 411.20837 
L 1430.51939 480.766457 
L 1448.256198 428.597891 
L 1465.993007 500.995084 
L 1483.729816 645.78947 
L 1501.466624 457.698724 
L 1519.203433 556.712531 
L 1536.940242 579.425376 
L 1554.67705 589.362246 
L 1572.413859 590.781799 
L 1590.150668 547.840326 
L 1607.887476 603.912662 
L 1625.624285 531.515469 
L 1643.361093 591.846463 
L 1661.097902 572.327612 
L 1678.834711 601.073556 
L 1696.571519 609.235985 
L 1714.308328 526.901923 
L 1732.045137 635.497712 
L 1749.781945 646.144358 
L 1767.518754 516.610165 
L 1785.255563 534.709463 
L 1802.992371 580.490041 
L 1820.72918 564.87496 
L 1838.465989 586.52314 
L 1856.202797 564.165184 
L 1873.939606 561.326078 
L 1891.676414 554.93809 
L 1909.413223 568.068954 
" clip-path="url(#p83cef7e888)" style="fill: none; stroke: #55a868; stroke-width: 1.5; stroke-linecap: round"/>
   </g>
   <g id="patch_9">
    <path d="M 1183.090909 756 
L 1183.090909 103.68 
" style="fill: none; stroke: #ffffff; stroke-width: 1.25; stroke-linejoin: miter; stroke-linecap: square"/>
   </g>
   <g id="patch_10">
    <path d="M 1944 756 
L 1944 103.68 
" style="fill: none; stroke: #ffffff; stroke-width: 1.25; stroke-linejoin: miter; stroke-linecap: square"/>
   </g>
   <g id="patch_11">
    <path d="M 1183.090909 756 
L 1944 756 
" style="fill: none; stroke: #ffffff; stroke-width: 1.25; stroke-linejoin: miter; stroke-linecap: square"/>
   </g>
   <g id="patch_12">
    <path d="M 1183.090909 103.68 
L 1944 103.68 
" style="fill: none; stroke: #ffffff; stroke-width: 1.25; stroke-linejoin: miter; stroke-linecap: square"/>
   </g>
   <g id="text_42">
    <!-- Change in Adam optimizer -->
    <g style="fill: #262626" transform="translate(1387.625923 97.68)scale(0.3 -0.3)">
     <defs>
      <path id="ArialMT-41" d="M -9 0 
L 1750 4581 
L 2403 4581 
L 4278 0 
L 3588 0 
L 3053 1388 
L 1138 1388 
L 634 0 
L -9 0 
z
M 1313 1881 
L 2866 1881 
L 2388 3150 
Q 2169 3728 2063 4100 
Q 1975 3659 1816 3225 
L 1313 1881 
z
" transform="scale(0.015625)"/>
      <path id="ArialMT-64" d="M 2575 0 
L 2575 419 
Q 2259 -75 1647 -75 
Q 1250 -75 917 144 
Q 584 363 401 755 
Q 219 1147 219 1656 
Q 219 2153 384 2558 
Q 550 2963 881 3178 
Q 1213 3394 1622 3394 
Q 1922 3394 2156 3267 
Q 2391 3141 2538 2938 
L 2538 4581 
L 3097 4581 
L 3097 0 
L 2575 0 
z
M 797 1656 
Q 797 1019 1065 703 
Q 1334 388 1700 388 
Q 2069 388 2326 689 
Q 2584 991 2584 1609 
Q 2584 2291 2321 2609 
Q 2059 2928 1675 2928 
Q 1300 2928 1048 2622 
Q 797 2316 797 1656 
z
" transform="scale(0.015625)"/>
     </defs>
     <use xlink:href="#ArialMT-43"/>
     <use xlink:href="#ArialMT-68" x="72.216797"/>
     <use xlink:href="#ArialMT-61" x="127.832031"/>
     <use xlink:href="#ArialMT-6e" x="183.447266"/>
     <use xlink:href="#ArialMT-67" x="239.0625"/>
     <use xlink:href="#ArialMT-65" x="294.677734"/>
     <use xlink:href="#ArialMT-20" x="350.292969"/>
     <use xlink:href="#ArialMT-69" x="378.076172"/>
     <use xlink:href="#ArialMT-6e" x="400.292969"/>
     <use xlink:href="#ArialMT-20" x="455.908203"/>
     <use xlink:href="#ArialMT-41" x="478.191406"/>
     <use xlink:href="#ArialMT-64" x="544.890625"/>
     <use xlink:href="#ArialMT-61" x="600.505859"/>
     <use xlink:href="#ArialMT-6d" x="656.121094"/>
     <use xlink:href="#ArialMT-20" x="739.421875"/>
     <use xlink:href="#ArialMT-6f" x="767.205078"/>
     <use xlink:href="#ArialMT-70" x="822.820312"/>
     <use xlink:href="#ArialMT-74" x="878.435547"/>
     <use xlink:href="#ArialMT-69" x="906.21875"/>
     <use xlink:href="#ArialMT-6d" x="928.435547"/>
     <use xlink:href="#ArialMT-69" x="1011.736328"/>
     <use xlink:href="#ArialMT-7a" x="1033.953125"/>
     <use xlink:href="#ArialMT-65" x="1083.953125"/>
     <use xlink:href="#ArialMT-72" x="1139.568359"/>
    </g>
   </g>
   <g id="legend_2">
    <g id="patch_13">
     <path d="M 1533.394922 243.693672 
L 1924.75 243.693672 
Q 1930.25 243.693672 1930.25 238.193672 
L 1930.25 122.93 
Q 1930.25 117.43 1924.75 117.43 
L 1533.394922 117.43 
Q 1527.894922 117.43 1527.894922 122.93 
L 1527.894922 238.193672 
Q 1527.894922 243.693672 1533.394922 243.693672 
z
" style="fill: #eaeaf2; opacity: 0.8; stroke: #cccccc; stroke-linejoin: miter"/>
    </g>
    <g id="line2d_43">
     <path d="M 1538.894922 138.488984 
L 1566.394922 138.488984 
L 1593.894922 138.488984 
" style="fill: none; stroke-dasharray: 5.55,2.4; stroke-dashoffset: 0; stroke: #4c72b0; stroke-width: 1.5"/>
    </g>
    <g id="text_43">
     <!-- CE Loss -->
     <g style="fill: #262626" transform="translate(1615.894922 148.113984)scale(0.275 -0.275)">
      <use xlink:href="#ArialMT-43"/>
      <use xlink:href="#ArialMT-45" x="72.216797"/>
      <use xlink:href="#ArialMT-20" x="138.916016"/>
      <use xlink:href="#ArialMT-4c" x="166.699219"/>
      <use xlink:href="#ArialMT-6f" x="222.314453"/>
      <use xlink:href="#ArialMT-73" x="277.929688"/>
      <use xlink:href="#ArialMT-73" x="327.929688"/>
     </g>
    </g>
    <g id="line2d_44">
     <path d="M 1538.894922 177.72375 
L 1566.394922 177.72375 
L 1593.894922 177.72375 
" style="fill: none; stroke-dasharray: 1.5,2.475; stroke-dashoffset: 0; stroke: #dd8452; stroke-width: 1.5"/>
    </g>
    <g id="text_44">
     <!-- Focal Loss(Gamma=0.5) -->
     <g style="fill: #262626" transform="translate(1615.894922 187.34875)scale(0.275 -0.275)">
      <use xlink:href="#ArialMT-46"/>
      <use xlink:href="#ArialMT-6f" x="61.083984"/>
      <use xlink:href="#ArialMT-63" x="116.699219"/>
      <use xlink:href="#ArialMT-61" x="166.699219"/>
      <use xlink:href="#ArialMT-6c" x="222.314453"/>
      <use xlink:href="#ArialMT-20" x="244.53125"/>
      <use xlink:href="#ArialMT-4c" x="272.314453"/>
      <use xlink:href="#ArialMT-6f" x="327.929688"/>
      <use xlink:href="#ArialMT-73" x="383.544922"/>
      <use xlink:href="#ArialMT-73" x="433.544922"/>
      <use xlink:href="#ArialMT-28" x="483.544922"/>
      <use xlink:href="#ArialMT-47" x="516.845703"/>
      <use xlink:href="#ArialMT-61" x="594.628906"/>
      <use xlink:href="#ArialMT-6d" x="650.244141"/>
      <use xlink:href="#ArialMT-6d" x="733.544922"/>
      <use xlink:href="#ArialMT-61" x="816.845703"/>
      <use xlink:href="#ArialMT-3d" x="872.460938"/>
      <use xlink:href="#ArialMT-30" x="930.859375"/>
      <use xlink:href="#ArialMT-2e" x="986.474609"/>
      <use xlink:href="#ArialMT-35" x="1014.257812"/>
      <use xlink:href="#ArialMT-29" x="1069.873047"/>
     </g>
    </g>
    <g id="line2d_45">
     <path d="M 1538.894922 217.280781 
L 1566.394922 217.280781 
L 1593.894922 217.280781 
" style="fill: none; stroke: #55a868; stroke-width: 1.5; stroke-linecap: round"/>
    </g>
    <g id="text_45">
     <!-- Focal Loss(Gamma=2) -->
     <g style="fill: #262626" transform="translate(1615.894922 226.905781)scale(0.275 -0.275)">
      <use xlink:href="#ArialMT-46"/>
      <use xlink:href="#ArialMT-6f" x="61.083984"/>
      <use xlink:href="#ArialMT-63" x="116.699219"/>
      <use xlink:href="#ArialMT-61" x="166.699219"/>
      <use xlink:href="#ArialMT-6c" x="222.314453"/>
      <use xlink:href="#ArialMT-20" x="244.53125"/>
      <use xlink:href="#ArialMT-4c" x="272.314453"/>
      <use xlink:href="#ArialMT-6f" x="327.929688"/>
      <use xlink:href="#ArialMT-73" x="383.544922"/>
      <use xlink:href="#ArialMT-73" x="433.544922"/>
      <use xlink:href="#ArialMT-28" x="483.544922"/>
      <use xlink:href="#ArialMT-47" x="516.845703"/>
      <use xlink:href="#ArialMT-61" x="594.628906"/>
      <use xlink:href="#ArialMT-6d" x="650.244141"/>
      <use xlink:href="#ArialMT-6d" x="733.544922"/>
      <use xlink:href="#ArialMT-61" x="816.845703"/>
      <use xlink:href="#ArialMT-3d" x="872.460938"/>
      <use xlink:href="#ArialMT-32" x="930.859375"/>
      <use xlink:href="#ArialMT-29" x="986.474609"/>
     </g>
    </g>
   </g>
  </g>
  <g id="text_46">
   <!-- Change between noise and origin tesing of different loss functions in distinct optimizers -->
   <g style="fill: #262626" transform="translate(311.075 46.39875)scale(0.4 -0.4)">
    <defs>
     <path id="ArialMT-62" d="M 941 0 
L 419 0 
L 419 4581 
L 981 4581 
L 981 2947 
Q 1338 3394 1891 3394 
Q 2197 3394 2470 3270 
Q 2744 3147 2920 2923 
Q 3097 2700 3197 2384 
Q 3297 2069 3297 1709 
Q 3297 856 2875 390 
Q 2453 -75 1863 -75 
Q 1275 -75 941 416 
L 941 0 
z
M 934 1684 
Q 934 1088 1097 822 
Q 1363 388 1816 388 
Q 2184 388 2453 708 
Q 2722 1028 2722 1663 
Q 2722 2313 2464 2622 
Q 2206 2931 1841 2931 
Q 1472 2931 1203 2611 
Q 934 2291 934 1684 
z
" transform="scale(0.015625)"/>
     <path id="ArialMT-77" d="M 1034 0 
L 19 3319 
L 600 3319 
L 1128 1403 
L 1325 691 
Q 1338 744 1497 1375 
L 2025 3319 
L 2603 3319 
L 3100 1394 
L 3266 759 
L 3456 1400 
L 4025 3319 
L 4572 3319 
L 3534 0 
L 2950 0 
L 2422 1988 
L 2294 2553 
L 1622 0 
L 1034 0 
z
" transform="scale(0.015625)"/>
     <path id="ArialMT-75" d="M 2597 0 
L 2597 488 
Q 2209 -75 1544 -75 
Q 1250 -75 995 37 
Q 741 150 617 320 
Q 494 491 444 738 
Q 409 903 409 1263 
L 409 3319 
L 972 3319 
L 972 1478 
Q 972 1038 1006 884 
Q 1059 663 1231 536 
Q 1403 409 1656 409 
Q 1909 409 2131 539 
Q 2353 669 2445 892 
Q 2538 1116 2538 1541 
L 2538 3319 
L 3100 3319 
L 3100 0 
L 2597 0 
z
" transform="scale(0.015625)"/>
    </defs>
    <use xlink:href="#ArialMT-43"/>
    <use xlink:href="#ArialMT-68" x="72.216797"/>
    <use xlink:href="#ArialMT-61" x="127.832031"/>
    <use xlink:href="#ArialMT-6e" x="183.447266"/>
    <use xlink:href="#ArialMT-67" x="239.0625"/>
    <use xlink:href="#ArialMT-65" x="294.677734"/>
    <use xlink:href="#ArialMT-20" x="350.292969"/>
    <use xlink:href="#ArialMT-62" x="378.076172"/>
    <use xlink:href="#ArialMT-65" x="433.691406"/>
    <use xlink:href="#ArialMT-74" x="489.306641"/>
    <use xlink:href="#ArialMT-77" x="517.089844"/>
    <use xlink:href="#ArialMT-65" x="589.306641"/>
    <use xlink:href="#ArialMT-65" x="644.921875"/>
    <use xlink:href="#ArialMT-6e" x="700.537109"/>
    <use xlink:href="#ArialMT-20" x="756.152344"/>
    <use xlink:href="#ArialMT-6e" x="783.935547"/>
    <use xlink:href="#ArialMT-6f" x="839.550781"/>
    <use xlink:href="#ArialMT-69" x="895.166016"/>
    <use xlink:href="#ArialMT-73" x="917.382812"/>
    <use xlink:href="#ArialMT-65" x="967.382812"/>
    <use xlink:href="#ArialMT-20" x="1022.998047"/>
    <use xlink:href="#ArialMT-61" x="1050.78125"/>
    <use xlink:href="#ArialMT-6e" x="1106.396484"/>
    <use xlink:href="#ArialMT-64" x="1162.011719"/>
    <use xlink:href="#ArialMT-20" x="1217.626953"/>
    <use xlink:href="#ArialMT-6f" x="1245.410156"/>
    <use xlink:href="#ArialMT-72" x="1301.025391"/>
    <use xlink:href="#ArialMT-69" x="1334.326172"/>
    <use xlink:href="#ArialMT-67" x="1356.542969"/>
    <use xlink:href="#ArialMT-69" x="1412.158203"/>
    <use xlink:href="#ArialMT-6e" x="1434.375"/>
    <use xlink:href="#ArialMT-20" x="1489.990234"/>
    <use xlink:href="#ArialMT-74" x="1517.773438"/>
    <use xlink:href="#ArialMT-65" x="1545.556641"/>
    <use xlink:href="#ArialMT-73" x="1601.171875"/>
    <use xlink:href="#ArialMT-69" x="1651.171875"/>
    <use xlink:href="#ArialMT-6e" x="1673.388672"/>
    <use xlink:href="#ArialMT-67" x="1729.003906"/>
    <use xlink:href="#ArialMT-20" x="1784.619141"/>
    <use xlink:href="#ArialMT-6f" x="1812.402344"/>
    <use xlink:href="#ArialMT-66" x="1868.017578"/>
    <use xlink:href="#ArialMT-20" x="1895.800781"/>
    <use xlink:href="#ArialMT-64" x="1923.583984"/>
    <use xlink:href="#ArialMT-69" x="1979.199219"/>
    <use xlink:href="#ArialMT-66" x="2001.416016"/>
    <use xlink:href="#ArialMT-66" x="2027.449219"/>
    <use xlink:href="#ArialMT-65" x="2055.232422"/>
    <use xlink:href="#ArialMT-72" x="2110.847656"/>
    <use xlink:href="#ArialMT-65" x="2144.148438"/>
    <use xlink:href="#ArialMT-6e" x="2199.763672"/>
    <use xlink:href="#ArialMT-74" x="2255.378906"/>
    <use xlink:href="#ArialMT-20" x="2283.162109"/>
    <use xlink:href="#ArialMT-6c" x="2310.945312"/>
    <use xlink:href="#ArialMT-6f" x="2333.162109"/>
    <use xlink:href="#ArialMT-73" x="2388.777344"/>
    <use xlink:href="#ArialMT-73" x="2438.777344"/>
    <use xlink:href="#ArialMT-20" x="2488.777344"/>
    <use xlink:href="#ArialMT-66" x="2516.560547"/>
    <use xlink:href="#ArialMT-75" x="2544.34375"/>
    <use xlink:href="#ArialMT-6e" x="2599.958984"/>
    <use xlink:href="#ArialMT-63" x="2655.574219"/>
    <use xlink:href="#ArialMT-74" x="2705.574219"/>
    <use xlink:href="#ArialMT-69" x="2733.357422"/>
    <use xlink:href="#ArialMT-6f" x="2755.574219"/>
    <use xlink:href="#ArialMT-6e" x="2811.189453"/>
    <use xlink:href="#ArialMT-73" x="2866.804688"/>
    <use xlink:href="#ArialMT-20" x="2916.804688"/>
    <use xlink:href="#ArialMT-69" x="2944.587891"/>
    <use xlink:href="#ArialMT-6e" x="2966.804688"/>
    <use xlink:href="#ArialMT-20" x="3022.419922"/>
    <use xlink:href="#ArialMT-64" x="3050.203125"/>
    <use xlink:href="#ArialMT-69" x="3105.818359"/>
    <use xlink:href="#ArialMT-73" x="3128.035156"/>
    <use xlink:href="#ArialMT-74" x="3178.035156"/>
    <use xlink:href="#ArialMT-69" x="3205.818359"/>
    <use xlink:href="#ArialMT-6e" x="3228.035156"/>
    <use xlink:href="#ArialMT-63" x="3283.650391"/>
    <use xlink:href="#ArialMT-74" x="3333.650391"/>
    <use xlink:href="#ArialMT-20" x="3361.433594"/>
    <use xlink:href="#ArialMT-6f" x="3389.216797"/>
    <use xlink:href="#ArialMT-70" x="3444.832031"/>
    <use xlink:href="#ArialMT-74" x="3500.447266"/>
    <use xlink:href="#ArialMT-69" x="3528.230469"/>
    <use xlink:href="#ArialMT-6d" x="3550.447266"/>
    <use xlink:href="#ArialMT-69" x="3633.748047"/>
    <use xlink:href="#ArialMT-7a" x="3655.964844"/>
    <use xlink:href="#ArialMT-65" x="3705.964844"/>
    <use xlink:href="#ArialMT-72" x="3761.580078"/>
    <use xlink:href="#ArialMT-73" x="3794.880859"/>
   </g>
  </g>
 </g>
 <defs>
  <clipPath id="p327ef09cab">
   <rect x="270" y="103.68" width="760.909091" height="652.32"/>
  </clipPath>
  <clipPath id="p83cef7e888">
   <rect x="1183.090909" y="103.68" width="760.909091" height="652.32"/>
  </clipPath>
 </defs>
</svg>
