<?xml version="1.0" encoding="utf-8" standalone="no"?>
<!DOCTYPE svg PUBLIC "-//W3C//DTD SVG 1.1//EN"
  "http://www.w3.org/Graphics/SVG/1.1/DTD/svg11.dtd">
<svg xmlns:xlink="http://www.w3.org/1999/xlink" width="2160pt" height="864pt" viewBox="0 0 2160 864" xmlns="http://www.w3.org/2000/svg" version="1.1">
 <metadata>
  <rdf:RDF xmlns:dc="http://purl.org/dc/elements/1.1/" xmlns:cc="http://creativecommons.org/ns#" xmlns:rdf="http://www.w3.org/1999/02/22-rdf-syntax-ns#">
   <cc:Work>
    <dc:type rdf:resource="http://purl.org/dc/dcmitype/StillImage"/>
    <dc:date>2023-10-28T08:01:47.715502</dc:date>
    <dc:format>image/svg+xml</dc:format>
    <dc:creator>
     <cc:Agent>
      <dc:title>Matplotlib v3.7.3, https://matplotlib.org/</dc:title>
     </cc:Agent>
    </dc:creator>
   </cc:Work>
  </rdf:RDF>
 </metadata>
 <defs>
  <style type="text/css">*{stroke-linejoin: round; stroke-linecap: butt}</style>
 </defs>
 <g id="figure_1">
  <g id="patch_1">
   <path d="M 0 864 
L 2160 864 
L 2160 0 
L 0 0 
z
" style="fill: #ffffff"/>
  </g>
  <g id="axes_1">
   <g id="patch_2">
    <path d="M 270 768.96 
L 1030.909091 768.96 
L 1030.909091 103.68 
L 270 103.68 
z
" style="fill: #eaeaf2"/>
   </g>
   <g id="matplotlib.axis_1">
    <g id="xtick_1">
     <g id="line2d_1">
      <path d="M 304.586777 768.96 
L 304.586777 103.68 
" clip-path="url(#pfa326be012)" style="fill: none; stroke: #ffffff; stroke-linecap: round"/>
     </g>
     <g id="text_1">
      <!-- 0 -->
      <g style="fill: #262626" transform="translate(295.838339 799.355703) scale(0.275 -0.275)">
       <defs>
        <path id="DejaVuSans-30" d="M 2034 4250 
Q 1547 4250 1301 3770 
Q 1056 3291 1056 2328 
Q 1056 1369 1301 889 
Q 1547 409 2034 409 
Q 2525 409 2770 889 
Q 3016 1369 3016 2328 
Q 3016 3291 2770 3770 
Q 2525 4250 2034 4250 
z
M 2034 4750 
Q 2819 4750 3233 4129 
Q 3647 3509 3647 2328 
Q 3647 1150 3233 529 
Q 2819 -91 2034 -91 
Q 1250 -91 836 529 
Q 422 1150 422 2328 
Q 422 3509 836 4129 
Q 1250 4750 2034 4750 
z
" transform="scale(0.015625)"/>
       </defs>
       <use xlink:href="#DejaVuSans-30"/>
      </g>
     </g>
    </g>
    <g id="xtick_2">
     <g id="line2d_2">
      <path d="M 393.27082 768.96 
L 393.27082 103.68 
" clip-path="url(#pfa326be012)" style="fill: none; stroke: #ffffff; stroke-linecap: round"/>
     </g>
     <g id="text_2">
      <!-- 5 -->
      <g style="fill: #262626" transform="translate(384.522383 799.355703) scale(0.275 -0.275)">
       <defs>
        <path id="DejaVuSans-35" d="M 691 4666 
L 3169 4666 
L 3169 4134 
L 1269 4134 
L 1269 2991 
Q 1406 3038 1543 3061 
Q 1681 3084 1819 3084 
Q 2600 3084 3056 2656 
Q 3513 2228 3513 1497 
Q 3513 744 3044 326 
Q 2575 -91 1722 -91 
Q 1428 -91 1123 -41 
Q 819 9 494 109 
L 494 744 
Q 775 591 1075 516 
Q 1375 441 1709 441 
Q 2250 441 2565 725 
Q 2881 1009 2881 1497 
Q 2881 1984 2565 2268 
Q 2250 2553 1709 2553 
Q 1456 2553 1204 2497 
Q 953 2441 691 2322 
L 691 4666 
z
" transform="scale(0.015625)"/>
       </defs>
       <use xlink:href="#DejaVuSans-35"/>
      </g>
     </g>
    </g>
    <g id="xtick_3">
     <g id="line2d_3">
      <path d="M 481.954863 768.96 
L 481.954863 103.68 
" clip-path="url(#pfa326be012)" style="fill: none; stroke: #ffffff; stroke-linecap: round"/>
     </g>
     <g id="text_3">
      <!-- 10 -->
      <g style="fill: #262626" transform="translate(464.457988 799.355703) scale(0.275 -0.275)">
       <defs>
        <path id="DejaVuSans-31" d="M 794 531 
L 1825 531 
L 1825 4091 
L 703 3866 
L 703 4441 
L 1819 4666 
L 2450 4666 
L 2450 531 
L 3481 531 
L 3481 0 
L 794 0 
L 794 531 
z
" transform="scale(0.015625)"/>
       </defs>
       <use xlink:href="#DejaVuSans-31"/>
       <use xlink:href="#DejaVuSans-30" x="63.623047"/>
      </g>
     </g>
    </g>
    <g id="xtick_4">
     <g id="line2d_4">
      <path d="M 570.638907 768.96 
L 570.638907 103.68 
" clip-path="url(#pfa326be012)" style="fill: none; stroke: #ffffff; stroke-linecap: round"/>
     </g>
     <g id="text_4">
      <!-- 15 -->
      <g style="fill: #262626" transform="translate(553.142032 799.355703) scale(0.275 -0.275)">
       <use xlink:href="#DejaVuSans-31"/>
       <use xlink:href="#DejaVuSans-35" x="63.623047"/>
      </g>
     </g>
    </g>
    <g id="xtick_5">
     <g id="line2d_5">
      <path d="M 659.32295 768.96 
L 659.32295 103.68 
" clip-path="url(#pfa326be012)" style="fill: none; stroke: #ffffff; stroke-linecap: round"/>
     </g>
     <g id="text_5">
      <!-- 20 -->
      <g style="fill: #262626" transform="translate(641.826075 799.355703) scale(0.275 -0.275)">
       <defs>
        <path id="DejaVuSans-32" d="M 1228 531 
L 3431 531 
L 3431 0 
L 469 0 
L 469 531 
Q 828 903 1448 1529 
Q 2069 2156 2228 2338 
Q 2531 2678 2651 2914 
Q 2772 3150 2772 3378 
Q 2772 3750 2511 3984 
Q 2250 4219 1831 4219 
Q 1534 4219 1204 4116 
Q 875 4013 500 3803 
L 500 4441 
Q 881 4594 1212 4672 
Q 1544 4750 1819 4750 
Q 2544 4750 2975 4387 
Q 3406 4025 3406 3419 
Q 3406 3131 3298 2873 
Q 3191 2616 2906 2266 
Q 2828 2175 2409 1742 
Q 1991 1309 1228 531 
z
" transform="scale(0.015625)"/>
       </defs>
       <use xlink:href="#DejaVuSans-32"/>
       <use xlink:href="#DejaVuSans-30" x="63.623047"/>
      </g>
     </g>
    </g>
    <g id="xtick_6">
     <g id="line2d_6">
      <path d="M 748.006993 768.96 
L 748.006993 103.68 
" clip-path="url(#pfa326be012)" style="fill: none; stroke: #ffffff; stroke-linecap: round"/>
     </g>
     <g id="text_6">
      <!-- 25 -->
      <g style="fill: #262626" transform="translate(730.510118 799.355703) scale(0.275 -0.275)">
       <use xlink:href="#DejaVuSans-32"/>
       <use xlink:href="#DejaVuSans-35" x="63.623047"/>
      </g>
     </g>
    </g>
    <g id="xtick_7">
     <g id="line2d_7">
      <path d="M 836.691036 768.96 
L 836.691036 103.68 
" clip-path="url(#pfa326be012)" style="fill: none; stroke: #ffffff; stroke-linecap: round"/>
     </g>
     <g id="text_7">
      <!-- 30 -->
      <g style="fill: #262626" transform="translate(819.194161 799.355703) scale(0.275 -0.275)">
       <defs>
        <path id="DejaVuSans-33" d="M 2597 2516 
Q 3050 2419 3304 2112 
Q 3559 1806 3559 1356 
Q 3559 666 3084 287 
Q 2609 -91 1734 -91 
Q 1441 -91 1130 -33 
Q 819 25 488 141 
L 488 750 
Q 750 597 1062 519 
Q 1375 441 1716 441 
Q 2309 441 2620 675 
Q 2931 909 2931 1356 
Q 2931 1769 2642 2001 
Q 2353 2234 1838 2234 
L 1294 2234 
L 1294 2753 
L 1863 2753 
Q 2328 2753 2575 2939 
Q 2822 3125 2822 3475 
Q 2822 3834 2567 4026 
Q 2313 4219 1838 4219 
Q 1578 4219 1281 4162 
Q 984 4106 628 3988 
L 628 4550 
Q 988 4650 1302 4700 
Q 1616 4750 1894 4750 
Q 2613 4750 3031 4423 
Q 3450 4097 3450 3541 
Q 3450 3153 3228 2886 
Q 3006 2619 2597 2516 
z
" transform="scale(0.015625)"/>
       </defs>
       <use xlink:href="#DejaVuSans-33"/>
       <use xlink:href="#DejaVuSans-30" x="63.623047"/>
      </g>
     </g>
    </g>
    <g id="xtick_8">
     <g id="line2d_8">
      <path d="M 925.375079 768.96 
L 925.375079 103.68 
" clip-path="url(#pfa326be012)" style="fill: none; stroke: #ffffff; stroke-linecap: round"/>
     </g>
     <g id="text_8">
      <!-- 35 -->
      <g style="fill: #262626" transform="translate(907.878204 799.355703) scale(0.275 -0.275)">
       <use xlink:href="#DejaVuSans-33"/>
       <use xlink:href="#DejaVuSans-35" x="63.623047"/>
      </g>
     </g>
    </g>
    <g id="xtick_9">
     <g id="line2d_9">
      <path d="M 1014.059123 768.96 
L 1014.059123 103.68 
" clip-path="url(#pfa326be012)" style="fill: none; stroke: #ffffff; stroke-linecap: round"/>
     </g>
     <g id="text_9">
      <!-- 40 -->
      <g style="fill: #262626" transform="translate(996.562248 799.355703) scale(0.275 -0.275)">
       <defs>
        <path id="DejaVuSans-34" d="M 2419 4116 
L 825 1625 
L 2419 1625 
L 2419 4116 
z
M 2253 4666 
L 3047 4666 
L 3047 1625 
L 3713 1625 
L 3713 1100 
L 3047 1100 
L 3047 0 
L 2419 0 
L 2419 1100 
L 313 1100 
L 313 1709 
L 2253 4666 
z
" transform="scale(0.015625)"/>
       </defs>
       <use xlink:href="#DejaVuSans-34"/>
       <use xlink:href="#DejaVuSans-30" x="63.623047"/>
      </g>
     </g>
    </g>
    <g id="text_10">
     <!-- Epoch -->
     <g style="fill: #262626" transform="translate(604.521733 831.870156) scale(0.3 -0.3)">
      <defs>
       <path id="DejaVuSans-45" d="M 628 4666 
L 3578 4666 
L 3578 4134 
L 1259 4134 
L 1259 2753 
L 3481 2753 
L 3481 2222 
L 1259 2222 
L 1259 531 
L 3634 531 
L 3634 0 
L 628 0 
L 628 4666 
z
" transform="scale(0.015625)"/>
       <path id="DejaVuSans-70" d="M 1159 525 
L 1159 -1331 
L 581 -1331 
L 581 3500 
L 1159 3500 
L 1159 2969 
Q 1341 3281 1617 3432 
Q 1894 3584 2278 3584 
Q 2916 3584 3314 3078 
Q 3713 2572 3713 1747 
Q 3713 922 3314 415 
Q 2916 -91 2278 -91 
Q 1894 -91 1617 61 
Q 1341 213 1159 525 
z
M 3116 1747 
Q 3116 2381 2855 2742 
Q 2594 3103 2138 3103 
Q 1681 3103 1420 2742 
Q 1159 2381 1159 1747 
Q 1159 1113 1420 752 
Q 1681 391 2138 391 
Q 2594 391 2855 752 
Q 3116 1113 3116 1747 
z
" transform="scale(0.015625)"/>
       <path id="DejaVuSans-6f" d="M 1959 3097 
Q 1497 3097 1228 2736 
Q 959 2375 959 1747 
Q 959 1119 1226 758 
Q 1494 397 1959 397 
Q 2419 397 2687 759 
Q 2956 1122 2956 1747 
Q 2956 2369 2687 2733 
Q 2419 3097 1959 3097 
z
M 1959 3584 
Q 2709 3584 3137 3096 
Q 3566 2609 3566 1747 
Q 3566 888 3137 398 
Q 2709 -91 1959 -91 
Q 1206 -91 779 398 
Q 353 888 353 1747 
Q 353 2609 779 3096 
Q 1206 3584 1959 3584 
z
" transform="scale(0.015625)"/>
       <path id="DejaVuSans-63" d="M 3122 3366 
L 3122 2828 
Q 2878 2963 2633 3030 
Q 2388 3097 2138 3097 
Q 1578 3097 1268 2742 
Q 959 2388 959 1747 
Q 959 1106 1268 751 
Q 1578 397 2138 397 
Q 2388 397 2633 464 
Q 2878 531 3122 666 
L 3122 134 
Q 2881 22 2623 -34 
Q 2366 -91 2075 -91 
Q 1284 -91 818 406 
Q 353 903 353 1747 
Q 353 2603 823 3093 
Q 1294 3584 2113 3584 
Q 2378 3584 2631 3529 
Q 2884 3475 3122 3366 
z
" transform="scale(0.015625)"/>
       <path id="DejaVuSans-68" d="M 3513 2113 
L 3513 0 
L 2938 0 
L 2938 2094 
Q 2938 2591 2744 2837 
Q 2550 3084 2163 3084 
Q 1697 3084 1428 2787 
Q 1159 2491 1159 1978 
L 1159 0 
L 581 0 
L 581 4863 
L 1159 4863 
L 1159 2956 
Q 1366 3272 1645 3428 
Q 1925 3584 2291 3584 
Q 2894 3584 3203 3211 
Q 3513 2838 3513 2113 
z
" transform="scale(0.015625)"/>
      </defs>
      <use xlink:href="#DejaVuSans-45"/>
      <use xlink:href="#DejaVuSans-70" x="63.183594"/>
      <use xlink:href="#DejaVuSans-6f" x="126.660156"/>
      <use xlink:href="#DejaVuSans-63" x="187.841797"/>
      <use xlink:href="#DejaVuSans-68" x="242.822266"/>
     </g>
    </g>
   </g>
   <g id="matplotlib.axis_2">
    <g id="ytick_1">
     <g id="line2d_10">
      <path d="M 270 689.583599 
L 1030.909091 689.583599 
" clip-path="url(#pfa326be012)" style="fill: none; stroke: #ffffff; stroke-linecap: round"/>
     </g>
     <g id="text_11">
      <!-- -0.40 -->
      <g style="fill: #262626" transform="translate(189.348047 700.03145) scale(0.275 -0.275)">
       <defs>
        <path id="DejaVuSans-2d" d="M 313 2009 
L 1997 2009 
L 1997 1497 
L 313 1497 
L 313 2009 
z
" transform="scale(0.015625)"/>
        <path id="DejaVuSans-2e" d="M 684 794 
L 1344 794 
L 1344 0 
L 684 0 
L 684 794 
z
" transform="scale(0.015625)"/>
       </defs>
       <use xlink:href="#DejaVuSans-2d"/>
       <use xlink:href="#DejaVuSans-30" x="36.083984"/>
       <use xlink:href="#DejaVuSans-2e" x="99.707031"/>
       <use xlink:href="#DejaVuSans-34" x="131.494141"/>
       <use xlink:href="#DejaVuSans-30" x="195.117188"/>
      </g>
     </g>
    </g>
    <g id="ytick_2">
     <g id="line2d_11">
      <path d="M 270 593.614065 
L 1030.909091 593.614065 
" clip-path="url(#pfa326be012)" style="fill: none; stroke: #ffffff; stroke-linecap: round"/>
     </g>
     <g id="text_12">
      <!-- -0.35 -->
      <g style="fill: #262626" transform="translate(189.348047 604.061917) scale(0.275 -0.275)">
       <use xlink:href="#DejaVuSans-2d"/>
       <use xlink:href="#DejaVuSans-30" x="36.083984"/>
       <use xlink:href="#DejaVuSans-2e" x="99.707031"/>
       <use xlink:href="#DejaVuSans-33" x="131.494141"/>
       <use xlink:href="#DejaVuSans-35" x="195.117188"/>
      </g>
     </g>
    </g>
    <g id="ytick_3">
     <g id="line2d_12">
      <path d="M 270 497.644532 
L 1030.909091 497.644532 
" clip-path="url(#pfa326be012)" style="fill: none; stroke: #ffffff; stroke-linecap: round"/>
     </g>
     <g id="text_13">
      <!-- -0.30 -->
      <g style="fill: #262626" transform="translate(189.348047 508.092383) scale(0.275 -0.275)">
       <use xlink:href="#DejaVuSans-2d"/>
       <use xlink:href="#DejaVuSans-30" x="36.083984"/>
       <use xlink:href="#DejaVuSans-2e" x="99.707031"/>
       <use xlink:href="#DejaVuSans-33" x="131.494141"/>
       <use xlink:href="#DejaVuSans-30" x="195.117188"/>
      </g>
     </g>
    </g>
    <g id="ytick_4">
     <g id="line2d_13">
      <path d="M 270 401.674998 
L 1030.909091 401.674998 
" clip-path="url(#pfa326be012)" style="fill: none; stroke: #ffffff; stroke-linecap: round"/>
     </g>
     <g id="text_14">
      <!-- -0.25 -->
      <g style="fill: #262626" transform="translate(189.348047 412.12285) scale(0.275 -0.275)">
       <use xlink:href="#DejaVuSans-2d"/>
       <use xlink:href="#DejaVuSans-30" x="36.083984"/>
       <use xlink:href="#DejaVuSans-2e" x="99.707031"/>
       <use xlink:href="#DejaVuSans-32" x="131.494141"/>
       <use xlink:href="#DejaVuSans-35" x="195.117188"/>
      </g>
     </g>
    </g>
    <g id="ytick_5">
     <g id="line2d_14">
      <path d="M 270 305.705465 
L 1030.909091 305.705465 
" clip-path="url(#pfa326be012)" style="fill: none; stroke: #ffffff; stroke-linecap: round"/>
     </g>
     <g id="text_15">
      <!-- -0.20 -->
      <g style="fill: #262626" transform="translate(189.348047 316.153316) scale(0.275 -0.275)">
       <use xlink:href="#DejaVuSans-2d"/>
       <use xlink:href="#DejaVuSans-30" x="36.083984"/>
       <use xlink:href="#DejaVuSans-2e" x="99.707031"/>
       <use xlink:href="#DejaVuSans-32" x="131.494141"/>
       <use xlink:href="#DejaVuSans-30" x="195.117188"/>
      </g>
     </g>
    </g>
    <g id="ytick_6">
     <g id="line2d_15">
      <path d="M 270 209.735931 
L 1030.909091 209.735931 
" clip-path="url(#pfa326be012)" style="fill: none; stroke: #ffffff; stroke-linecap: round"/>
     </g>
     <g id="text_16">
      <!-- -0.15 -->
      <g style="fill: #262626" transform="translate(189.348047 220.183783) scale(0.275 -0.275)">
       <use xlink:href="#DejaVuSans-2d"/>
       <use xlink:href="#DejaVuSans-30" x="36.083984"/>
       <use xlink:href="#DejaVuSans-2e" x="99.707031"/>
       <use xlink:href="#DejaVuSans-31" x="131.494141"/>
       <use xlink:href="#DejaVuSans-35" x="195.117188"/>
      </g>
     </g>
    </g>
    <g id="ytick_7">
     <g id="line2d_16">
      <path d="M 270 113.766398 
L 1030.909091 113.766398 
" clip-path="url(#pfa326be012)" style="fill: none; stroke: #ffffff; stroke-linecap: round"/>
     </g>
     <g id="text_17">
      <!-- -0.10 -->
      <g style="fill: #262626" transform="translate(189.348047 124.21425) scale(0.275 -0.275)">
       <use xlink:href="#DejaVuSans-2d"/>
       <use xlink:href="#DejaVuSans-30" x="36.083984"/>
       <use xlink:href="#DejaVuSans-2e" x="99.707031"/>
       <use xlink:href="#DejaVuSans-31" x="131.494141"/>
       <use xlink:href="#DejaVuSans-30" x="195.117188"/>
      </g>
     </g>
    </g>
    <g id="text_18">
     <!-- Change of acc -->
     <g style="fill: #262626" transform="translate(179.108984 543.431719) rotate(-90) scale(0.3 -0.3)">
      <defs>
       <path id="DejaVuSans-43" d="M 4122 4306 
L 4122 3641 
Q 3803 3938 3442 4084 
Q 3081 4231 2675 4231 
Q 1875 4231 1450 3742 
Q 1025 3253 1025 2328 
Q 1025 1406 1450 917 
Q 1875 428 2675 428 
Q 3081 428 3442 575 
Q 3803 722 4122 1019 
L 4122 359 
Q 3791 134 3420 21 
Q 3050 -91 2638 -91 
Q 1578 -91 968 557 
Q 359 1206 359 2328 
Q 359 3453 968 4101 
Q 1578 4750 2638 4750 
Q 3056 4750 3426 4639 
Q 3797 4528 4122 4306 
z
" transform="scale(0.015625)"/>
       <path id="DejaVuSans-61" d="M 2194 1759 
Q 1497 1759 1228 1600 
Q 959 1441 959 1056 
Q 959 750 1161 570 
Q 1363 391 1709 391 
Q 2188 391 2477 730 
Q 2766 1069 2766 1631 
L 2766 1759 
L 2194 1759 
z
M 3341 1997 
L 3341 0 
L 2766 0 
L 2766 531 
Q 2569 213 2275 61 
Q 1981 -91 1556 -91 
Q 1019 -91 701 211 
Q 384 513 384 1019 
Q 384 1609 779 1909 
Q 1175 2209 1959 2209 
L 2766 2209 
L 2766 2266 
Q 2766 2663 2505 2880 
Q 2244 3097 1772 3097 
Q 1472 3097 1187 3025 
Q 903 2953 641 2809 
L 641 3341 
Q 956 3463 1253 3523 
Q 1550 3584 1831 3584 
Q 2591 3584 2966 3190 
Q 3341 2797 3341 1997 
z
" transform="scale(0.015625)"/>
       <path id="DejaVuSans-6e" d="M 3513 2113 
L 3513 0 
L 2938 0 
L 2938 2094 
Q 2938 2591 2744 2837 
Q 2550 3084 2163 3084 
Q 1697 3084 1428 2787 
Q 1159 2491 1159 1978 
L 1159 0 
L 581 0 
L 581 3500 
L 1159 3500 
L 1159 2956 
Q 1366 3272 1645 3428 
Q 1925 3584 2291 3584 
Q 2894 3584 3203 3211 
Q 3513 2838 3513 2113 
z
" transform="scale(0.015625)"/>
       <path id="DejaVuSans-67" d="M 2906 1791 
Q 2906 2416 2648 2759 
Q 2391 3103 1925 3103 
Q 1463 3103 1205 2759 
Q 947 2416 947 1791 
Q 947 1169 1205 825 
Q 1463 481 1925 481 
Q 2391 481 2648 825 
Q 2906 1169 2906 1791 
z
M 3481 434 
Q 3481 -459 3084 -895 
Q 2688 -1331 1869 -1331 
Q 1566 -1331 1297 -1286 
Q 1028 -1241 775 -1147 
L 775 -588 
Q 1028 -725 1275 -790 
Q 1522 -856 1778 -856 
Q 2344 -856 2625 -561 
Q 2906 -266 2906 331 
L 2906 616 
Q 2728 306 2450 153 
Q 2172 0 1784 0 
Q 1141 0 747 490 
Q 353 981 353 1791 
Q 353 2603 747 3093 
Q 1141 3584 1784 3584 
Q 2172 3584 2450 3431 
Q 2728 3278 2906 2969 
L 2906 3500 
L 3481 3500 
L 3481 434 
z
" transform="scale(0.015625)"/>
       <path id="DejaVuSans-65" d="M 3597 1894 
L 3597 1613 
L 953 1613 
Q 991 1019 1311 708 
Q 1631 397 2203 397 
Q 2534 397 2845 478 
Q 3156 559 3463 722 
L 3463 178 
Q 3153 47 2828 -22 
Q 2503 -91 2169 -91 
Q 1331 -91 842 396 
Q 353 884 353 1716 
Q 353 2575 817 3079 
Q 1281 3584 2069 3584 
Q 2775 3584 3186 3129 
Q 3597 2675 3597 1894 
z
M 3022 2063 
Q 3016 2534 2758 2815 
Q 2500 3097 2075 3097 
Q 1594 3097 1305 2825 
Q 1016 2553 972 2059 
L 3022 2063 
z
" transform="scale(0.015625)"/>
       <path id="DejaVuSans-20" transform="scale(0.015625)"/>
       <path id="DejaVuSans-66" d="M 2375 4863 
L 2375 4384 
L 1825 4384 
Q 1516 4384 1395 4259 
Q 1275 4134 1275 3809 
L 1275 3500 
L 2222 3500 
L 2222 3053 
L 1275 3053 
L 1275 0 
L 697 0 
L 697 3053 
L 147 3053 
L 147 3500 
L 697 3500 
L 697 3744 
Q 697 4328 969 4595 
Q 1241 4863 1831 4863 
L 2375 4863 
z
" transform="scale(0.015625)"/>
      </defs>
      <use xlink:href="#DejaVuSans-43"/>
      <use xlink:href="#DejaVuSans-68" x="69.824219"/>
      <use xlink:href="#DejaVuSans-61" x="133.203125"/>
      <use xlink:href="#DejaVuSans-6e" x="194.482422"/>
      <use xlink:href="#DejaVuSans-67" x="257.861328"/>
      <use xlink:href="#DejaVuSans-65" x="321.337891"/>
      <use xlink:href="#DejaVuSans-20" x="382.861328"/>
      <use xlink:href="#DejaVuSans-6f" x="414.648438"/>
      <use xlink:href="#DejaVuSans-66" x="475.830078"/>
      <use xlink:href="#DejaVuSans-20" x="511.035156"/>
      <use xlink:href="#DejaVuSans-61" x="542.822266"/>
      <use xlink:href="#DejaVuSans-63" x="604.101562"/>
      <use xlink:href="#DejaVuSans-63" x="659.082031"/>
     </g>
    </g>
   </g>
   <g id="PolyCollection_1"/>
   <g id="PolyCollection_2"/>
   <g id="PolyCollection_3"/>
   <g id="line2d_17">
    <path d="M 304.586777 268.661225 
L 322.323586 233.728315 
L 340.060394 373.459956 
L 357.797203 358.488708 
L 375.534011 352.730536 
L 393.27082 478.834503 
L 411.007629 484.400736 
L 428.744437 498.988105 
L 446.481246 373.843834 
L 464.218055 509.736693 
L 481.954863 522.980489 
L 499.691672 575.571793 
L 517.428481 565.015144 
L 535.165289 532.385503 
L 552.902098 555.802069 
L 570.638907 581.521904 
L 588.375715 533.153259 
L 606.112524 525.859575 
L 623.849332 551.57941 
L 641.586141 614.535424 
L 659.32295 550.427775 
L 677.059758 595.725395 
L 694.796567 599.180298 
L 712.533376 559.83279 
L 730.270184 543.517969 
L 748.006993 568.661987 
L 765.743802 612.040216 
L 783.48061 562.903815 
L 801.217419 588.431711 
L 818.954228 536.800102 
L 836.691036 607.241739 
L 854.427845 597.068969 
L 872.164654 606.090105 
L 889.901462 619.3339 
L 907.638271 594.573761 
L 925.375079 611.464399 
L 943.111888 597.836725 
L 960.848697 608.393374 
L 978.585505 598.604481 
L 996.322314 597.068969 
" clip-path="url(#pfa326be012)" style="fill: none; stroke-dasharray: 5.55,2.4; stroke-dashoffset: 0; stroke: #4c72b0; stroke-width: 1.5"/>
   </g>
   <g id="line2d_18">
    <path d="M 304.586777 207.432663 
L 322.323586 265.014383 
L 340.060394 176.338534 
L 357.797203 199.7551 
L 375.534011 202.634186 
L 393.27082 314.534662 
L 411.007629 342.749705 
L 428.744437 363.479124 
L 446.481246 348.699816 
L 464.218055 407.817049 
L 481.954863 468.853672 
L 499.691672 476.915113 
L 517.428481 436.22403 
L 535.165289 480.753894 
L 552.902098 510.888328 
L 570.638907 530.274173 
L 588.375715 557.337582 
L 606.112524 600.139994 
L 623.849332 570.581377 
L 641.586141 646.013431 
L 659.32295 598.988359 
L 677.059758 629.122793 
L 694.796567 706.474237 
L 712.533376 604.93847 
L 730.270184 690.735233 
L 748.006993 691.119111 
L 765.743802 728.163351 
L 783.48061 738.72 
L 801.217419 699.180552 
L 818.954228 703.403212 
L 836.691036 713.575982 
L 854.427845 726.052022 
L 872.164654 735.457036 
L 889.901462 724.132631 
L 907.638271 709.353323 
L 925.375079 729.698864 
L 943.111888 726.052022 
L 960.848697 726.819778 
L 978.585505 710.888835 
L 996.322314 721.637423 
" clip-path="url(#pfa326be012)" style="fill: none; stroke-dasharray: 1.5,2.475; stroke-dashoffset: 0; stroke: #dd8452; stroke-width: 1.5"/>
   </g>
   <g id="line2d_19">
    <path d="M 304.586777 148.699308 
L 322.323586 184.591914 
L 340.060394 133.92 
L 357.797203 224.131361 
L 375.534011 186.511304 
L 393.27082 251.19477 
L 411.007629 397.2604 
L 428.744437 418.757575 
L 446.481246 303.018318 
L 464.218055 365.974332 
L 481.954863 427.010955 
L 499.691672 423.556052 
L 517.428481 490.158908 
L 535.165289 476.915113 
L 552.902098 476.147356 
L 570.638907 499.371983 
L 588.375715 500.523618 
L 606.112524 531.233869 
L 623.849332 504.17046 
L 641.586141 541.406639 
L 659.32295 592.078553 
L 677.059758 561.944119 
L 694.796567 585.168746 
L 712.533376 570.197499 
L 730.270184 587.088137 
L 748.006993 610.696642 
L 765.743802 594.957639 
L 783.48061 586.704259 
L 801.217419 604.362653 
L 818.954228 640.255259 
L 836.691036 628.738915 
L 854.427845 600.715811 
L 872.164654 599.564176 
L 889.901462 661.368556 
L 907.638271 641.406893 
L 925.375079 644.09404 
L 943.111888 640.255259 
L 960.848697 643.134345 
L 978.585505 636.224538 
L 996.322314 626.627585 
" clip-path="url(#pfa326be012)" style="fill: none; stroke: #55a868; stroke-width: 1.5; stroke-linecap: round"/>
   </g>
   <g id="patch_3">
    <path d="M 270 768.96 
L 270 103.68 
" style="fill: none; stroke: #ffffff; stroke-width: 1.25; stroke-linejoin: miter; stroke-linecap: square"/>
   </g>
   <g id="patch_4">
    <path d="M 1030.909091 768.96 
L 1030.909091 103.68 
" style="fill: none; stroke: #ffffff; stroke-width: 1.25; stroke-linejoin: miter; stroke-linecap: square"/>
   </g>
   <g id="patch_5">
    <path d="M 270 768.96 
L 1030.909091 768.96 
" style="fill: none; stroke: #ffffff; stroke-width: 1.25; stroke-linejoin: miter; stroke-linecap: square"/>
   </g>
   <g id="patch_6">
    <path d="M 270 103.68 
L 1030.909091 103.68 
" style="fill: none; stroke: #ffffff; stroke-width: 1.25; stroke-linejoin: miter; stroke-linecap: square"/>
   </g>
   <g id="text_19">
    <!-- Change in SGD optimizer -->
    <g style="fill: #262626" transform="translate(461.55767 97.68) scale(0.3 -0.3)">
     <defs>
      <path id="DejaVuSans-69" d="M 603 3500 
L 1178 3500 
L 1178 0 
L 603 0 
L 603 3500 
z
M 603 4863 
L 1178 4863 
L 1178 4134 
L 603 4134 
L 603 4863 
z
" transform="scale(0.015625)"/>
      <path id="DejaVuSans-53" d="M 3425 4513 
L 3425 3897 
Q 3066 4069 2747 4153 
Q 2428 4238 2131 4238 
Q 1616 4238 1336 4038 
Q 1056 3838 1056 3469 
Q 1056 3159 1242 3001 
Q 1428 2844 1947 2747 
L 2328 2669 
Q 3034 2534 3370 2195 
Q 3706 1856 3706 1288 
Q 3706 609 3251 259 
Q 2797 -91 1919 -91 
Q 1588 -91 1214 -16 
Q 841 59 441 206 
L 441 856 
Q 825 641 1194 531 
Q 1563 422 1919 422 
Q 2459 422 2753 634 
Q 3047 847 3047 1241 
Q 3047 1584 2836 1778 
Q 2625 1972 2144 2069 
L 1759 2144 
Q 1053 2284 737 2584 
Q 422 2884 422 3419 
Q 422 4038 858 4394 
Q 1294 4750 2059 4750 
Q 2388 4750 2728 4690 
Q 3069 4631 3425 4513 
z
" transform="scale(0.015625)"/>
      <path id="DejaVuSans-47" d="M 3809 666 
L 3809 1919 
L 2778 1919 
L 2778 2438 
L 4434 2438 
L 4434 434 
Q 4069 175 3628 42 
Q 3188 -91 2688 -91 
Q 1594 -91 976 548 
Q 359 1188 359 2328 
Q 359 3472 976 4111 
Q 1594 4750 2688 4750 
Q 3144 4750 3555 4637 
Q 3966 4525 4313 4306 
L 4313 3634 
Q 3963 3931 3569 4081 
Q 3175 4231 2741 4231 
Q 1884 4231 1454 3753 
Q 1025 3275 1025 2328 
Q 1025 1384 1454 906 
Q 1884 428 2741 428 
Q 3075 428 3337 486 
Q 3600 544 3809 666 
z
" transform="scale(0.015625)"/>
      <path id="DejaVuSans-44" d="M 1259 4147 
L 1259 519 
L 2022 519 
Q 2988 519 3436 956 
Q 3884 1394 3884 2338 
Q 3884 3275 3436 3711 
Q 2988 4147 2022 4147 
L 1259 4147 
z
M 628 4666 
L 1925 4666 
Q 3281 4666 3915 4102 
Q 4550 3538 4550 2338 
Q 4550 1131 3912 565 
Q 3275 0 1925 0 
L 628 0 
L 628 4666 
z
" transform="scale(0.015625)"/>
      <path id="DejaVuSans-74" d="M 1172 4494 
L 1172 3500 
L 2356 3500 
L 2356 3053 
L 1172 3053 
L 1172 1153 
Q 1172 725 1289 603 
Q 1406 481 1766 481 
L 2356 481 
L 2356 0 
L 1766 0 
Q 1100 0 847 248 
Q 594 497 594 1153 
L 594 3053 
L 172 3053 
L 172 3500 
L 594 3500 
L 594 4494 
L 1172 4494 
z
" transform="scale(0.015625)"/>
      <path id="DejaVuSans-6d" d="M 3328 2828 
Q 3544 3216 3844 3400 
Q 4144 3584 4550 3584 
Q 5097 3584 5394 3201 
Q 5691 2819 5691 2113 
L 5691 0 
L 5113 0 
L 5113 2094 
Q 5113 2597 4934 2840 
Q 4756 3084 4391 3084 
Q 3944 3084 3684 2787 
Q 3425 2491 3425 1978 
L 3425 0 
L 2847 0 
L 2847 2094 
Q 2847 2600 2669 2842 
Q 2491 3084 2119 3084 
Q 1678 3084 1418 2786 
Q 1159 2488 1159 1978 
L 1159 0 
L 581 0 
L 581 3500 
L 1159 3500 
L 1159 2956 
Q 1356 3278 1631 3431 
Q 1906 3584 2284 3584 
Q 2666 3584 2933 3390 
Q 3200 3197 3328 2828 
z
" transform="scale(0.015625)"/>
      <path id="DejaVuSans-7a" d="M 353 3500 
L 3084 3500 
L 3084 2975 
L 922 459 
L 3084 459 
L 3084 0 
L 275 0 
L 275 525 
L 2438 3041 
L 353 3041 
L 353 3500 
z
" transform="scale(0.015625)"/>
      <path id="DejaVuSans-72" d="M 2631 2963 
Q 2534 3019 2420 3045 
Q 2306 3072 2169 3072 
Q 1681 3072 1420 2755 
Q 1159 2438 1159 1844 
L 1159 0 
L 581 0 
L 581 3500 
L 1159 3500 
L 1159 2956 
Q 1341 3275 1631 3429 
Q 1922 3584 2338 3584 
Q 2397 3584 2469 3576 
Q 2541 3569 2628 3553 
L 2631 2963 
z
" transform="scale(0.015625)"/>
     </defs>
     <use xlink:href="#DejaVuSans-43"/>
     <use xlink:href="#DejaVuSans-68" x="69.824219"/>
     <use xlink:href="#DejaVuSans-61" x="133.203125"/>
     <use xlink:href="#DejaVuSans-6e" x="194.482422"/>
     <use xlink:href="#DejaVuSans-67" x="257.861328"/>
     <use xlink:href="#DejaVuSans-65" x="321.337891"/>
     <use xlink:href="#DejaVuSans-20" x="382.861328"/>
     <use xlink:href="#DejaVuSans-69" x="414.648438"/>
     <use xlink:href="#DejaVuSans-6e" x="442.431641"/>
     <use xlink:href="#DejaVuSans-20" x="505.810547"/>
     <use xlink:href="#DejaVuSans-53" x="537.597656"/>
     <use xlink:href="#DejaVuSans-47" x="601.074219"/>
     <use xlink:href="#DejaVuSans-44" x="678.564453"/>
     <use xlink:href="#DejaVuSans-20" x="755.566406"/>
     <use xlink:href="#DejaVuSans-6f" x="787.353516"/>
     <use xlink:href="#DejaVuSans-70" x="848.535156"/>
     <use xlink:href="#DejaVuSans-74" x="912.011719"/>
     <use xlink:href="#DejaVuSans-69" x="951.220703"/>
     <use xlink:href="#DejaVuSans-6d" x="979.003906"/>
     <use xlink:href="#DejaVuSans-69" x="1076.416016"/>
     <use xlink:href="#DejaVuSans-7a" x="1104.199219"/>
     <use xlink:href="#DejaVuSans-65" x="1156.689453"/>
     <use xlink:href="#DejaVuSans-72" x="1218.212891"/>
    </g>
   </g>
   <g id="legend_1">
    <g id="patch_7">
     <path d="M 586.517685 246.774531 
L 1011.659091 246.774531 
Q 1017.159091 246.774531 1017.159091 241.274531 
L 1017.159091 122.93 
Q 1017.159091 117.43 1011.659091 117.43 
L 586.517685 117.43 
Q 581.017685 117.43 581.017685 122.93 
L 581.017685 241.274531 
Q 581.017685 246.774531 586.517685 246.774531 
z
" style="fill: #eaeaf2; opacity: 0.8; stroke: #cccccc; stroke-linejoin: miter"/>
    </g>
    <g id="line2d_20">
     <path d="M 592.017685 139.700703 
L 619.517685 139.700703 
L 647.017685 139.700703 
" style="fill: none; stroke-dasharray: 5.55,2.4; stroke-dashoffset: 0; stroke: #4c72b0; stroke-width: 1.5"/>
    </g>
    <g id="text_20">
     <!-- CE Loss -->
     <g style="fill: #262626" transform="translate(669.017685 149.325703) scale(0.275 -0.275)">
      <defs>
       <path id="DejaVuSans-4c" d="M 628 4666 
L 1259 4666 
L 1259 531 
L 3531 531 
L 3531 0 
L 628 0 
L 628 4666 
z
" transform="scale(0.015625)"/>
       <path id="DejaVuSans-73" d="M 2834 3397 
L 2834 2853 
Q 2591 2978 2328 3040 
Q 2066 3103 1784 3103 
Q 1356 3103 1142 2972 
Q 928 2841 928 2578 
Q 928 2378 1081 2264 
Q 1234 2150 1697 2047 
L 1894 2003 
Q 2506 1872 2764 1633 
Q 3022 1394 3022 966 
Q 3022 478 2636 193 
Q 2250 -91 1575 -91 
Q 1294 -91 989 -36 
Q 684 19 347 128 
L 347 722 
Q 666 556 975 473 
Q 1284 391 1588 391 
Q 1994 391 2212 530 
Q 2431 669 2431 922 
Q 2431 1156 2273 1281 
Q 2116 1406 1581 1522 
L 1381 1569 
Q 847 1681 609 1914 
Q 372 2147 372 2553 
Q 372 3047 722 3315 
Q 1072 3584 1716 3584 
Q 2034 3584 2315 3537 
Q 2597 3491 2834 3397 
z
" transform="scale(0.015625)"/>
      </defs>
      <use xlink:href="#DejaVuSans-43"/>
      <use xlink:href="#DejaVuSans-45" x="69.824219"/>
      <use xlink:href="#DejaVuSans-20" x="133.007812"/>
      <use xlink:href="#DejaVuSans-4c" x="164.794922"/>
      <use xlink:href="#DejaVuSans-6f" x="218.757812"/>
      <use xlink:href="#DejaVuSans-73" x="279.939453"/>
      <use xlink:href="#DejaVuSans-73" x="332.039062"/>
     </g>
    </g>
    <g id="line2d_21">
     <path d="M 592.017685 180.065547 
L 619.517685 180.065547 
L 647.017685 180.065547 
" style="fill: none; stroke-dasharray: 1.5,2.475; stroke-dashoffset: 0; stroke: #dd8452; stroke-width: 1.5"/>
    </g>
    <g id="text_21">
     <!-- Focal Loss(Gamma=0.5) -->
     <g style="fill: #262626" transform="translate(669.017685 189.690547) scale(0.275 -0.275)">
      <defs>
       <path id="DejaVuSans-46" d="M 628 4666 
L 3309 4666 
L 3309 4134 
L 1259 4134 
L 1259 2759 
L 3109 2759 
L 3109 2228 
L 1259 2228 
L 1259 0 
L 628 0 
L 628 4666 
z
" transform="scale(0.015625)"/>
       <path id="DejaVuSans-6c" d="M 603 4863 
L 1178 4863 
L 1178 0 
L 603 0 
L 603 4863 
z
" transform="scale(0.015625)"/>
       <path id="DejaVuSans-28" d="M 1984 4856 
Q 1566 4138 1362 3434 
Q 1159 2731 1159 2009 
Q 1159 1288 1364 580 
Q 1569 -128 1984 -844 
L 1484 -844 
Q 1016 -109 783 600 
Q 550 1309 550 2009 
Q 550 2706 781 3412 
Q 1013 4119 1484 4856 
L 1984 4856 
z
" transform="scale(0.015625)"/>
       <path id="DejaVuSans-3d" d="M 678 2906 
L 4684 2906 
L 4684 2381 
L 678 2381 
L 678 2906 
z
M 678 1631 
L 4684 1631 
L 4684 1100 
L 678 1100 
L 678 1631 
z
" transform="scale(0.015625)"/>
       <path id="DejaVuSans-29" d="M 513 4856 
L 1013 4856 
Q 1481 4119 1714 3412 
Q 1947 2706 1947 2009 
Q 1947 1309 1714 600 
Q 1481 -109 1013 -844 
L 513 -844 
Q 928 -128 1133 580 
Q 1338 1288 1338 2009 
Q 1338 2731 1133 3434 
Q 928 4138 513 4856 
z
" transform="scale(0.015625)"/>
      </defs>
      <use xlink:href="#DejaVuSans-46"/>
      <use xlink:href="#DejaVuSans-6f" x="53.894531"/>
      <use xlink:href="#DejaVuSans-63" x="115.076172"/>
      <use xlink:href="#DejaVuSans-61" x="170.056641"/>
      <use xlink:href="#DejaVuSans-6c" x="231.335938"/>
      <use xlink:href="#DejaVuSans-20" x="259.119141"/>
      <use xlink:href="#DejaVuSans-4c" x="290.90625"/>
      <use xlink:href="#DejaVuSans-6f" x="344.869141"/>
      <use xlink:href="#DejaVuSans-73" x="406.050781"/>
      <use xlink:href="#DejaVuSans-73" x="458.150391"/>
      <use xlink:href="#DejaVuSans-28" x="510.25"/>
      <use xlink:href="#DejaVuSans-47" x="549.263672"/>
      <use xlink:href="#DejaVuSans-61" x="626.753906"/>
      <use xlink:href="#DejaVuSans-6d" x="688.033203"/>
      <use xlink:href="#DejaVuSans-6d" x="785.445312"/>
      <use xlink:href="#DejaVuSans-61" x="882.857422"/>
      <use xlink:href="#DejaVuSans-3d" x="944.136719"/>
      <use xlink:href="#DejaVuSans-30" x="1027.925781"/>
      <use xlink:href="#DejaVuSans-2e" x="1091.548828"/>
      <use xlink:href="#DejaVuSans-35" x="1123.335938"/>
      <use xlink:href="#DejaVuSans-29" x="1186.958984"/>
     </g>
    </g>
    <g id="line2d_22">
     <path d="M 592.017685 220.430391 
L 619.517685 220.430391 
L 647.017685 220.430391 
" style="fill: none; stroke: #55a868; stroke-width: 1.5; stroke-linecap: round"/>
    </g>
    <g id="text_22">
     <!-- Focal Loss(Gamma=2) -->
     <g style="fill: #262626" transform="translate(669.017685 230.055391) scale(0.275 -0.275)">
      <use xlink:href="#DejaVuSans-46"/>
      <use xlink:href="#DejaVuSans-6f" x="53.894531"/>
      <use xlink:href="#DejaVuSans-63" x="115.076172"/>
      <use xlink:href="#DejaVuSans-61" x="170.056641"/>
      <use xlink:href="#DejaVuSans-6c" x="231.335938"/>
      <use xlink:href="#DejaVuSans-20" x="259.119141"/>
      <use xlink:href="#DejaVuSans-4c" x="290.90625"/>
      <use xlink:href="#DejaVuSans-6f" x="344.869141"/>
      <use xlink:href="#DejaVuSans-73" x="406.050781"/>
      <use xlink:href="#DejaVuSans-73" x="458.150391"/>
      <use xlink:href="#DejaVuSans-28" x="510.25"/>
      <use xlink:href="#DejaVuSans-47" x="549.263672"/>
      <use xlink:href="#DejaVuSans-61" x="626.753906"/>
      <use xlink:href="#DejaVuSans-6d" x="688.033203"/>
      <use xlink:href="#DejaVuSans-6d" x="785.445312"/>
      <use xlink:href="#DejaVuSans-61" x="882.857422"/>
      <use xlink:href="#DejaVuSans-3d" x="944.136719"/>
      <use xlink:href="#DejaVuSans-32" x="1027.925781"/>
      <use xlink:href="#DejaVuSans-29" x="1091.548828"/>
     </g>
    </g>
   </g>
  </g>
  <g id="axes_2">
   <g id="patch_8">
    <path d="M 1183.090909 768.96 
L 1944 768.96 
L 1944 103.68 
L 1183.090909 103.68 
z
" style="fill: #eaeaf2"/>
   </g>
   <g id="matplotlib.axis_3">
    <g id="xtick_10">
     <g id="line2d_23">
      <path d="M 1217.677686 768.96 
L 1217.677686 103.68 
" clip-path="url(#pae8cc1de6e)" style="fill: none; stroke: #ffffff; stroke-linecap: round"/>
     </g>
     <g id="text_23">
      <!-- 0 -->
      <g style="fill: #262626" transform="translate(1208.929248 799.355703) scale(0.275 -0.275)">
       <use xlink:href="#DejaVuSans-30"/>
      </g>
     </g>
    </g>
    <g id="xtick_11">
     <g id="line2d_24">
      <path d="M 1306.361729 768.96 
L 1306.361729 103.68 
" clip-path="url(#pae8cc1de6e)" style="fill: none; stroke: #ffffff; stroke-linecap: round"/>
     </g>
     <g id="text_24">
      <!-- 5 -->
      <g style="fill: #262626" transform="translate(1297.613292 799.355703) scale(0.275 -0.275)">
       <use xlink:href="#DejaVuSans-35"/>
      </g>
     </g>
    </g>
    <g id="xtick_12">
     <g id="line2d_25">
      <path d="M 1395.045772 768.96 
L 1395.045772 103.68 
" clip-path="url(#pae8cc1de6e)" style="fill: none; stroke: #ffffff; stroke-linecap: round"/>
     </g>
     <g id="text_25">
      <!-- 10 -->
      <g style="fill: #262626" transform="translate(1377.548897 799.355703) scale(0.275 -0.275)">
       <use xlink:href="#DejaVuSans-31"/>
       <use xlink:href="#DejaVuSans-30" x="63.623047"/>
      </g>
     </g>
    </g>
    <g id="xtick_13">
     <g id="line2d_26">
      <path d="M 1483.729816 768.96 
L 1483.729816 103.68 
" clip-path="url(#pae8cc1de6e)" style="fill: none; stroke: #ffffff; stroke-linecap: round"/>
     </g>
     <g id="text_26">
      <!-- 15 -->
      <g style="fill: #262626" transform="translate(1466.232941 799.355703) scale(0.275 -0.275)">
       <use xlink:href="#DejaVuSans-31"/>
       <use xlink:href="#DejaVuSans-35" x="63.623047"/>
      </g>
     </g>
    </g>
    <g id="xtick_14">
     <g id="line2d_27">
      <path d="M 1572.413859 768.96 
L 1572.413859 103.68 
" clip-path="url(#pae8cc1de6e)" style="fill: none; stroke: #ffffff; stroke-linecap: round"/>
     </g>
     <g id="text_27">
      <!-- 20 -->
      <g style="fill: #262626" transform="translate(1554.916984 799.355703) scale(0.275 -0.275)">
       <use xlink:href="#DejaVuSans-32"/>
       <use xlink:href="#DejaVuSans-30" x="63.623047"/>
      </g>
     </g>
    </g>
    <g id="xtick_15">
     <g id="line2d_28">
      <path d="M 1661.097902 768.96 
L 1661.097902 103.68 
" clip-path="url(#pae8cc1de6e)" style="fill: none; stroke: #ffffff; stroke-linecap: round"/>
     </g>
     <g id="text_28">
      <!-- 25 -->
      <g style="fill: #262626" transform="translate(1643.601027 799.355703) scale(0.275 -0.275)">
       <use xlink:href="#DejaVuSans-32"/>
       <use xlink:href="#DejaVuSans-35" x="63.623047"/>
      </g>
     </g>
    </g>
    <g id="xtick_16">
     <g id="line2d_29">
      <path d="M 1749.781945 768.96 
L 1749.781945 103.68 
" clip-path="url(#pae8cc1de6e)" style="fill: none; stroke: #ffffff; stroke-linecap: round"/>
     </g>
     <g id="text_29">
      <!-- 30 -->
      <g style="fill: #262626" transform="translate(1732.28507 799.355703) scale(0.275 -0.275)">
       <use xlink:href="#DejaVuSans-33"/>
       <use xlink:href="#DejaVuSans-30" x="63.623047"/>
      </g>
     </g>
    </g>
    <g id="xtick_17">
     <g id="line2d_30">
      <path d="M 1838.465989 768.96 
L 1838.465989 103.68 
" clip-path="url(#pae8cc1de6e)" style="fill: none; stroke: #ffffff; stroke-linecap: round"/>
     </g>
     <g id="text_30">
      <!-- 35 -->
      <g style="fill: #262626" transform="translate(1820.969114 799.355703) scale(0.275 -0.275)">
       <use xlink:href="#DejaVuSans-33"/>
       <use xlink:href="#DejaVuSans-35" x="63.623047"/>
      </g>
     </g>
    </g>
    <g id="xtick_18">
     <g id="line2d_31">
      <path d="M 1927.150032 768.96 
L 1927.150032 103.68 
" clip-path="url(#pae8cc1de6e)" style="fill: none; stroke: #ffffff; stroke-linecap: round"/>
     </g>
     <g id="text_31">
      <!-- 40 -->
      <g style="fill: #262626" transform="translate(1909.653157 799.355703) scale(0.275 -0.275)">
       <use xlink:href="#DejaVuSans-34"/>
       <use xlink:href="#DejaVuSans-30" x="63.623047"/>
      </g>
     </g>
    </g>
    <g id="text_32">
     <!-- Epoch -->
     <g style="fill: #262626" transform="translate(1517.612642 831.870156) scale(0.3 -0.3)">
      <use xlink:href="#DejaVuSans-45"/>
      <use xlink:href="#DejaVuSans-70" x="63.183594"/>
      <use xlink:href="#DejaVuSans-6f" x="126.660156"/>
      <use xlink:href="#DejaVuSans-63" x="187.841797"/>
      <use xlink:href="#DejaVuSans-68" x="242.822266"/>
     </g>
    </g>
   </g>
   <g id="matplotlib.axis_4">
    <g id="ytick_8">
     <g id="line2d_32">
      <path d="M 1183.090909 765.503483 
L 1944 765.503483 
" clip-path="url(#pae8cc1de6e)" style="fill: none; stroke: #ffffff; stroke-linecap: round"/>
     </g>
     <g id="text_33">
      <!-- 0.200 -->
      <g style="fill: #262626" transform="translate(1094.863565 775.951335) scale(0.275 -0.275)">
       <use xlink:href="#DejaVuSans-30"/>
       <use xlink:href="#DejaVuSans-2e" x="63.623047"/>
       <use xlink:href="#DejaVuSans-32" x="95.410156"/>
       <use xlink:href="#DejaVuSans-30" x="159.033203"/>
       <use xlink:href="#DejaVuSans-30" x="222.65625"/>
      </g>
     </g>
    </g>
    <g id="ytick_9">
     <g id="line2d_33">
      <path d="M 1183.090909 675.018743 
L 1944 675.018743 
" clip-path="url(#pae8cc1de6e)" style="fill: none; stroke: #ffffff; stroke-linecap: round"/>
     </g>
     <g id="text_34">
      <!-- 0.225 -->
      <g style="fill: #262626" transform="translate(1094.863565 685.466595) scale(0.275 -0.275)">
       <use xlink:href="#DejaVuSans-30"/>
       <use xlink:href="#DejaVuSans-2e" x="63.623047"/>
       <use xlink:href="#DejaVuSans-32" x="95.410156"/>
       <use xlink:href="#DejaVuSans-32" x="159.033203"/>
       <use xlink:href="#DejaVuSans-35" x="222.65625"/>
      </g>
     </g>
    </g>
    <g id="ytick_10">
     <g id="line2d_34">
      <path d="M 1183.090909 584.534004 
L 1944 584.534004 
" clip-path="url(#pae8cc1de6e)" style="fill: none; stroke: #ffffff; stroke-linecap: round"/>
     </g>
     <g id="text_35">
      <!-- 0.250 -->
      <g style="fill: #262626" transform="translate(1094.863565 594.981855) scale(0.275 -0.275)">
       <use xlink:href="#DejaVuSans-30"/>
       <use xlink:href="#DejaVuSans-2e" x="63.623047"/>
       <use xlink:href="#DejaVuSans-32" x="95.410156"/>
       <use xlink:href="#DejaVuSans-35" x="159.033203"/>
       <use xlink:href="#DejaVuSans-30" x="222.65625"/>
      </g>
     </g>
    </g>
    <g id="ytick_11">
     <g id="line2d_35">
      <path d="M 1183.090909 494.049264 
L 1944 494.049264 
" clip-path="url(#pae8cc1de6e)" style="fill: none; stroke: #ffffff; stroke-linecap: round"/>
     </g>
     <g id="text_36">
      <!-- 0.275 -->
      <g style="fill: #262626" transform="translate(1094.863565 504.497115) scale(0.275 -0.275)">
       <defs>
        <path id="DejaVuSans-37" d="M 525 4666 
L 3525 4666 
L 3525 4397 
L 1831 0 
L 1172 0 
L 2766 4134 
L 525 4134 
L 525 4666 
z
" transform="scale(0.015625)"/>
       </defs>
       <use xlink:href="#DejaVuSans-30"/>
       <use xlink:href="#DejaVuSans-2e" x="63.623047"/>
       <use xlink:href="#DejaVuSans-32" x="95.410156"/>
       <use xlink:href="#DejaVuSans-37" x="159.033203"/>
       <use xlink:href="#DejaVuSans-35" x="222.65625"/>
      </g>
     </g>
    </g>
    <g id="ytick_12">
     <g id="line2d_36">
      <path d="M 1183.090909 403.564524 
L 1944 403.564524 
" clip-path="url(#pae8cc1de6e)" style="fill: none; stroke: #ffffff; stroke-linecap: round"/>
     </g>
     <g id="text_37">
      <!-- 0.300 -->
      <g style="fill: #262626" transform="translate(1094.863565 414.012376) scale(0.275 -0.275)">
       <use xlink:href="#DejaVuSans-30"/>
       <use xlink:href="#DejaVuSans-2e" x="63.623047"/>
       <use xlink:href="#DejaVuSans-33" x="95.410156"/>
       <use xlink:href="#DejaVuSans-30" x="159.033203"/>
       <use xlink:href="#DejaVuSans-30" x="222.65625"/>
      </g>
     </g>
    </g>
    <g id="ytick_13">
     <g id="line2d_37">
      <path d="M 1183.090909 313.079785 
L 1944 313.079785 
" clip-path="url(#pae8cc1de6e)" style="fill: none; stroke: #ffffff; stroke-linecap: round"/>
     </g>
     <g id="text_38">
      <!-- 0.325 -->
      <g style="fill: #262626" transform="translate(1094.863565 323.527636) scale(0.275 -0.275)">
       <use xlink:href="#DejaVuSans-30"/>
       <use xlink:href="#DejaVuSans-2e" x="63.623047"/>
       <use xlink:href="#DejaVuSans-33" x="95.410156"/>
       <use xlink:href="#DejaVuSans-32" x="159.033203"/>
       <use xlink:href="#DejaVuSans-35" x="222.65625"/>
      </g>
     </g>
    </g>
    <g id="ytick_14">
     <g id="line2d_38">
      <path d="M 1183.090909 222.595045 
L 1944 222.595045 
" clip-path="url(#pae8cc1de6e)" style="fill: none; stroke: #ffffff; stroke-linecap: round"/>
     </g>
     <g id="text_39">
      <!-- 0.350 -->
      <g style="fill: #262626" transform="translate(1094.863565 233.042896) scale(0.275 -0.275)">
       <use xlink:href="#DejaVuSans-30"/>
       <use xlink:href="#DejaVuSans-2e" x="63.623047"/>
       <use xlink:href="#DejaVuSans-33" x="95.410156"/>
       <use xlink:href="#DejaVuSans-35" x="159.033203"/>
       <use xlink:href="#DejaVuSans-30" x="222.65625"/>
      </g>
     </g>
    </g>
    <g id="ytick_15">
     <g id="line2d_39">
      <path d="M 1183.090909 132.110305 
L 1944 132.110305 
" clip-path="url(#pae8cc1de6e)" style="fill: none; stroke: #ffffff; stroke-linecap: round"/>
     </g>
     <g id="text_40">
      <!-- 0.375 -->
      <g style="fill: #262626" transform="translate(1094.863565 142.558157) scale(0.275 -0.275)">
       <use xlink:href="#DejaVuSans-30"/>
       <use xlink:href="#DejaVuSans-2e" x="63.623047"/>
       <use xlink:href="#DejaVuSans-33" x="95.410156"/>
       <use xlink:href="#DejaVuSans-37" x="159.033203"/>
       <use xlink:href="#DejaVuSans-35" x="222.65625"/>
      </g>
     </g>
    </g>
    <g id="text_41">
     <!-- Change of acc -->
     <g style="fill: #262626" transform="translate(1084.624503 543.431719) rotate(-90) scale(0.3 -0.3)">
      <use xlink:href="#DejaVuSans-43"/>
      <use xlink:href="#DejaVuSans-68" x="69.824219"/>
      <use xlink:href="#DejaVuSans-61" x="133.203125"/>
      <use xlink:href="#DejaVuSans-6e" x="194.482422"/>
      <use xlink:href="#DejaVuSans-67" x="257.861328"/>
      <use xlink:href="#DejaVuSans-65" x="321.337891"/>
      <use xlink:href="#DejaVuSans-20" x="382.861328"/>
      <use xlink:href="#DejaVuSans-6f" x="414.648438"/>
      <use xlink:href="#DejaVuSans-66" x="475.830078"/>
      <use xlink:href="#DejaVuSans-20" x="511.035156"/>
      <use xlink:href="#DejaVuSans-61" x="542.822266"/>
      <use xlink:href="#DejaVuSans-63" x="604.101562"/>
      <use xlink:href="#DejaVuSans-63" x="659.082031"/>
     </g>
    </g>
   </g>
   <g id="PolyCollection_4"/>
   <g id="PolyCollection_5"/>
   <g id="PolyCollection_6"/>
   <g id="line2d_40">
    <path d="M 1217.677686 364.475117 
L 1235.414495 258.788941 
L 1253.151303 238.882298 
L 1270.888112 343.844596 
L 1288.624921 268.923232 
L 1306.361729 288.829874 
L 1324.098538 293.89702 
L 1341.835346 305.117127 
L 1359.572155 421.661472 
L 1377.308964 409.717487 
L 1395.045772 516.851418 
L 1412.782581 469.075476 
L 1430.51939 478.485889 
L 1448.256198 581.638492 
L 1465.993007 538.567756 
L 1483.729816 613.48912 
L 1501.466624 573.675835 
L 1519.203433 488.982118 
L 1536.940242 536.034183 
L 1554.67705 454.235978 
L 1572.413859 684.429156 
L 1590.150668 590.686966 
L 1607.887476 513.593968 
L 1625.624285 595.392172 
L 1643.361093 738.72 
L 1661.097902 572.590018 
L 1678.834711 630.86219 
L 1696.571519 628.328618 
L 1714.308328 609.869731 
L 1732.045137 652.216589 
L 1749.781945 682.9814 
L 1767.518754 614.936876 
L 1785.255563 702.526104 
L 1802.992371 686.60079 
L 1820.72918 664.522513 
L 1838.465989 614.574937 
L 1856.202797 601.907074 
L 1873.939606 646.063627 
L 1891.676414 685.514973 
L 1909.413223 677.914255 
" clip-path="url(#pae8cc1de6e)" style="fill: none; stroke-dasharray: 5.55,2.4; stroke-dashoffset: 0; stroke: #4c72b0; stroke-width: 1.5"/>
   </g>
   <g id="line2d_41">
    <path d="M 1217.677686 400.307074 
L 1235.414495 325.747648 
L 1253.151303 347.825925 
L 1270.888112 145.863986 
L 1288.624921 366.64675 
L 1306.361729 189.6586 
L 1324.098538 258.788941 
L 1341.835346 372.799713 
L 1359.572155 306.564883 
L 1377.308964 391.2586 
L 1395.045772 443.37781 
L 1412.782581 434.691275 
L 1430.51939 582.36237 
L 1448.256198 418.042083 
L 1465.993007 544.720718 
L 1483.729816 555.940826 
L 1501.466624 578.74298 
L 1519.203433 432.519641 
L 1536.940242 631.586068 
L 1554.67705 550.511741 
L 1572.413859 506.717127 
L 1590.150668 588.153393 
L 1607.887476 639.548725 
L 1625.624285 613.127181 
L 1643.361093 652.940467 
L 1661.097902 640.272603 
L 1678.834711 557.388582 
L 1696.571519 692.029874 
L 1714.308328 602.630952 
L 1732.045137 637.739031 
L 1749.781945 495.49702 
L 1767.518754 687.686607 
L 1785.255563 624.347289 
L 1802.992371 693.839569 
L 1820.72918 634.48158 
L 1838.465989 607.336158 
L 1856.202797 681.895583 
L 1873.939606 639.548725 
L 1891.676414 561.007971 
L 1909.413223 610.955548 
" clip-path="url(#pae8cc1de6e)" style="fill: none; stroke-dasharray: 1.5,2.475; stroke-dashoffset: 0; stroke: #dd8452; stroke-width: 1.5"/>
   </g>
   <g id="line2d_42">
    <path d="M 1217.677686 230.195763 
L 1235.414495 133.92 
L 1253.151303 147.67368 
L 1270.888112 165.408689 
L 1288.624921 180.248187 
L 1306.361729 218.975655 
L 1324.098538 279.057522 
L 1341.835346 303.307433 
L 1359.572155 349.997558 
L 1377.308964 431.433824 
L 1395.045772 425.642801 
L 1412.782581 417.318205 
L 1430.51939 488.258241 
L 1448.256198 435.053214 
L 1465.993007 508.888761 
L 1483.729816 656.559856 
L 1501.466624 464.732208 
L 1519.203433 565.713178 
L 1536.940242 588.877271 
L 1554.67705 599.011562 
L 1572.413859 600.459318 
L 1590.150668 556.664704 
L 1607.887476 613.851059 
L 1625.624285 540.015512 
L 1643.361093 601.545135 
L 1661.097902 581.638492 
L 1678.834711 610.955548 
L 1696.571519 619.280144 
L 1714.308328 535.310305 
L 1732.045137 646.063627 
L 1749.781945 656.921795 
L 1767.518754 524.814075 
L 1785.255563 543.272962 
L 1802.992371 589.963088 
L 1820.72918 574.037774 
L 1838.465989 596.11605 
L 1856.202797 573.313896 
L 1873.939606 570.418384 
L 1891.676414 563.903483 
L 1909.413223 577.295224 
" clip-path="url(#pae8cc1de6e)" style="fill: none; stroke: #55a868; stroke-width: 1.5; stroke-linecap: round"/>
   </g>
   <g id="patch_9">
    <path d="M 1183.090909 768.96 
L 1183.090909 103.68 
" style="fill: none; stroke: #ffffff; stroke-width: 1.25; stroke-linejoin: miter; stroke-linecap: square"/>
   </g>
   <g id="patch_10">
    <path d="M 1944 768.96 
L 1944 103.68 
" style="fill: none; stroke: #ffffff; stroke-width: 1.25; stroke-linejoin: miter; stroke-linecap: square"/>
   </g>
   <g id="patch_11">
    <path d="M 1183.090909 768.96 
L 1944 768.96 
" style="fill: none; stroke: #ffffff; stroke-width: 1.25; stroke-linejoin: miter; stroke-linecap: square"/>
   </g>
   <g id="patch_12">
    <path d="M 1183.090909 103.68 
L 1944 103.68 
" style="fill: none; stroke: #ffffff; stroke-width: 1.25; stroke-linejoin: miter; stroke-linecap: square"/>
   </g>
   <g id="text_42">
    <!-- Change in Adam optimizer -->
    <g style="fill: #262626" transform="translate(1364.019673 97.68) scale(0.3 -0.3)">
     <defs>
      <path id="DejaVuSans-41" d="M 2188 4044 
L 1331 1722 
L 3047 1722 
L 2188 4044 
z
M 1831 4666 
L 2547 4666 
L 4325 0 
L 3669 0 
L 3244 1197 
L 1141 1197 
L 716 0 
L 50 0 
L 1831 4666 
z
" transform="scale(0.015625)"/>
      <path id="DejaVuSans-64" d="M 2906 2969 
L 2906 4863 
L 3481 4863 
L 3481 0 
L 2906 0 
L 2906 525 
Q 2725 213 2448 61 
Q 2172 -91 1784 -91 
Q 1150 -91 751 415 
Q 353 922 353 1747 
Q 353 2572 751 3078 
Q 1150 3584 1784 3584 
Q 2172 3584 2448 3432 
Q 2725 3281 2906 2969 
z
M 947 1747 
Q 947 1113 1208 752 
Q 1469 391 1925 391 
Q 2381 391 2643 752 
Q 2906 1113 2906 1747 
Q 2906 2381 2643 2742 
Q 2381 3103 1925 3103 
Q 1469 3103 1208 2742 
Q 947 2381 947 1747 
z
" transform="scale(0.015625)"/>
     </defs>
     <use xlink:href="#DejaVuSans-43"/>
     <use xlink:href="#DejaVuSans-68" x="69.824219"/>
     <use xlink:href="#DejaVuSans-61" x="133.203125"/>
     <use xlink:href="#DejaVuSans-6e" x="194.482422"/>
     <use xlink:href="#DejaVuSans-67" x="257.861328"/>
     <use xlink:href="#DejaVuSans-65" x="321.337891"/>
     <use xlink:href="#DejaVuSans-20" x="382.861328"/>
     <use xlink:href="#DejaVuSans-69" x="414.648438"/>
     <use xlink:href="#DejaVuSans-6e" x="442.431641"/>
     <use xlink:href="#DejaVuSans-20" x="505.810547"/>
     <use xlink:href="#DejaVuSans-41" x="537.597656"/>
     <use xlink:href="#DejaVuSans-64" x="604.255859"/>
     <use xlink:href="#DejaVuSans-61" x="667.732422"/>
     <use xlink:href="#DejaVuSans-6d" x="729.011719"/>
     <use xlink:href="#DejaVuSans-20" x="826.423828"/>
     <use xlink:href="#DejaVuSans-6f" x="858.210938"/>
     <use xlink:href="#DejaVuSans-70" x="919.392578"/>
     <use xlink:href="#DejaVuSans-74" x="982.869141"/>
     <use xlink:href="#DejaVuSans-69" x="1022.078125"/>
     <use xlink:href="#DejaVuSans-6d" x="1049.861328"/>
     <use xlink:href="#DejaVuSans-69" x="1147.273438"/>
     <use xlink:href="#DejaVuSans-7a" x="1175.056641"/>
     <use xlink:href="#DejaVuSans-65" x="1227.546875"/>
     <use xlink:href="#DejaVuSans-72" x="1289.070312"/>
    </g>
   </g>
   <g id="legend_2">
    <g id="patch_13">
     <path d="M 1499.608594 246.774531 
L 1924.75 246.774531 
Q 1930.25 246.774531 1930.25 241.274531 
L 1930.25 122.93 
Q 1930.25 117.43 1924.75 117.43 
L 1499.608594 117.43 
Q 1494.108594 117.43 1494.108594 122.93 
L 1494.108594 241.274531 
Q 1494.108594 246.774531 1499.608594 246.774531 
z
" style="fill: #eaeaf2; opacity: 0.8; stroke: #cccccc; stroke-linejoin: miter"/>
    </g>
    <g id="line2d_43">
     <path d="M 1505.108594 139.700703 
L 1532.608594 139.700703 
L 1560.108594 139.700703 
" style="fill: none; stroke-dasharray: 5.55,2.4; stroke-dashoffset: 0; stroke: #4c72b0; stroke-width: 1.5"/>
    </g>
    <g id="text_43">
     <!-- CE Loss -->
     <g style="fill: #262626" transform="translate(1582.108594 149.325703) scale(0.275 -0.275)">
      <use xlink:href="#DejaVuSans-43"/>
      <use xlink:href="#DejaVuSans-45" x="69.824219"/>
      <use xlink:href="#DejaVuSans-20" x="133.007812"/>
      <use xlink:href="#DejaVuSans-4c" x="164.794922"/>
      <use xlink:href="#DejaVuSans-6f" x="218.757812"/>
      <use xlink:href="#DejaVuSans-73" x="279.939453"/>
      <use xlink:href="#DejaVuSans-73" x="332.039062"/>
     </g>
    </g>
    <g id="line2d_44">
     <path d="M 1505.108594 180.065547 
L 1532.608594 180.065547 
L 1560.108594 180.065547 
" style="fill: none; stroke-dasharray: 1.5,2.475; stroke-dashoffset: 0; stroke: #dd8452; stroke-width: 1.5"/>
    </g>
    <g id="text_44">
     <!-- Focal Loss(Gamma=0.5) -->
     <g style="fill: #262626" transform="translate(1582.108594 189.690547) scale(0.275 -0.275)">
      <use xlink:href="#DejaVuSans-46"/>
      <use xlink:href="#DejaVuSans-6f" x="53.894531"/>
      <use xlink:href="#DejaVuSans-63" x="115.076172"/>
      <use xlink:href="#DejaVuSans-61" x="170.056641"/>
      <use xlink:href="#DejaVuSans-6c" x="231.335938"/>
      <use xlink:href="#DejaVuSans-20" x="259.119141"/>
      <use xlink:href="#DejaVuSans-4c" x="290.90625"/>
      <use xlink:href="#DejaVuSans-6f" x="344.869141"/>
      <use xlink:href="#DejaVuSans-73" x="406.050781"/>
      <use xlink:href="#DejaVuSans-73" x="458.150391"/>
      <use xlink:href="#DejaVuSans-28" x="510.25"/>
      <use xlink:href="#DejaVuSans-47" x="549.263672"/>
      <use xlink:href="#DejaVuSans-61" x="626.753906"/>
      <use xlink:href="#DejaVuSans-6d" x="688.033203"/>
      <use xlink:href="#DejaVuSans-6d" x="785.445312"/>
      <use xlink:href="#DejaVuSans-61" x="882.857422"/>
      <use xlink:href="#DejaVuSans-3d" x="944.136719"/>
      <use xlink:href="#DejaVuSans-30" x="1027.925781"/>
      <use xlink:href="#DejaVuSans-2e" x="1091.548828"/>
      <use xlink:href="#DejaVuSans-35" x="1123.335938"/>
      <use xlink:href="#DejaVuSans-29" x="1186.958984"/>
     </g>
    </g>
    <g id="line2d_45">
     <path d="M 1505.108594 220.430391 
L 1532.608594 220.430391 
L 1560.108594 220.430391 
" style="fill: none; stroke: #55a868; stroke-width: 1.5; stroke-linecap: round"/>
    </g>
    <g id="text_45">
     <!-- Focal Loss(Gamma=2) -->
     <g style="fill: #262626" transform="translate(1582.108594 230.055391) scale(0.275 -0.275)">
      <use xlink:href="#DejaVuSans-46"/>
      <use xlink:href="#DejaVuSans-6f" x="53.894531"/>
      <use xlink:href="#DejaVuSans-63" x="115.076172"/>
      <use xlink:href="#DejaVuSans-61" x="170.056641"/>
      <use xlink:href="#DejaVuSans-6c" x="231.335938"/>
      <use xlink:href="#DejaVuSans-20" x="259.119141"/>
      <use xlink:href="#DejaVuSans-4c" x="290.90625"/>
      <use xlink:href="#DejaVuSans-6f" x="344.869141"/>
      <use xlink:href="#DejaVuSans-73" x="406.050781"/>
      <use xlink:href="#DejaVuSans-73" x="458.150391"/>
      <use xlink:href="#DejaVuSans-28" x="510.25"/>
      <use xlink:href="#DejaVuSans-47" x="549.263672"/>
      <use xlink:href="#DejaVuSans-61" x="626.753906"/>
      <use xlink:href="#DejaVuSans-6d" x="688.033203"/>
      <use xlink:href="#DejaVuSans-6d" x="785.445312"/>
      <use xlink:href="#DejaVuSans-61" x="882.857422"/>
      <use xlink:href="#DejaVuSans-3d" x="944.136719"/>
      <use xlink:href="#DejaVuSans-32" x="1027.925781"/>
      <use xlink:href="#DejaVuSans-29" x="1091.548828"/>
     </g>
    </g>
   </g>
  </g>
  <g id="text_46">
   <!-- Change between noise and origin tesing of different loss functions in distinct optimizers -->
   <g style="fill: #262626" transform="translate(199.51875 47.67375) scale(0.4 -0.4)">
    <defs>
     <path id="DejaVuSans-62" d="M 3116 1747 
Q 3116 2381 2855 2742 
Q 2594 3103 2138 3103 
Q 1681 3103 1420 2742 
Q 1159 2381 1159 1747 
Q 1159 1113 1420 752 
Q 1681 391 2138 391 
Q 2594 391 2855 752 
Q 3116 1113 3116 1747 
z
M 1159 2969 
Q 1341 3281 1617 3432 
Q 1894 3584 2278 3584 
Q 2916 3584 3314 3078 
Q 3713 2572 3713 1747 
Q 3713 922 3314 415 
Q 2916 -91 2278 -91 
Q 1894 -91 1617 61 
Q 1341 213 1159 525 
L 1159 0 
L 581 0 
L 581 4863 
L 1159 4863 
L 1159 2969 
z
" transform="scale(0.015625)"/>
     <path id="DejaVuSans-77" d="M 269 3500 
L 844 3500 
L 1563 769 
L 2278 3500 
L 2956 3500 
L 3675 769 
L 4391 3500 
L 4966 3500 
L 4050 0 
L 3372 0 
L 2619 2869 
L 1863 0 
L 1184 0 
L 269 3500 
z
" transform="scale(0.015625)"/>
     <path id="DejaVuSans-75" d="M 544 1381 
L 544 3500 
L 1119 3500 
L 1119 1403 
Q 1119 906 1312 657 
Q 1506 409 1894 409 
Q 2359 409 2629 706 
Q 2900 1003 2900 1516 
L 2900 3500 
L 3475 3500 
L 3475 0 
L 2900 0 
L 2900 538 
Q 2691 219 2414 64 
Q 2138 -91 1772 -91 
Q 1169 -91 856 284 
Q 544 659 544 1381 
z
M 1991 3584 
L 1991 3584 
z
" transform="scale(0.015625)"/>
    </defs>
    <use xlink:href="#DejaVuSans-43"/>
    <use xlink:href="#DejaVuSans-68" x="69.824219"/>
    <use xlink:href="#DejaVuSans-61" x="133.203125"/>
    <use xlink:href="#DejaVuSans-6e" x="194.482422"/>
    <use xlink:href="#DejaVuSans-67" x="257.861328"/>
    <use xlink:href="#DejaVuSans-65" x="321.337891"/>
    <use xlink:href="#DejaVuSans-20" x="382.861328"/>
    <use xlink:href="#DejaVuSans-62" x="414.648438"/>
    <use xlink:href="#DejaVuSans-65" x="478.125"/>
    <use xlink:href="#DejaVuSans-74" x="539.648438"/>
    <use xlink:href="#DejaVuSans-77" x="578.857422"/>
    <use xlink:href="#DejaVuSans-65" x="660.644531"/>
    <use xlink:href="#DejaVuSans-65" x="722.167969"/>
    <use xlink:href="#DejaVuSans-6e" x="783.691406"/>
    <use xlink:href="#DejaVuSans-20" x="847.070312"/>
    <use xlink:href="#DejaVuSans-6e" x="878.857422"/>
    <use xlink:href="#DejaVuSans-6f" x="942.236328"/>
    <use xlink:href="#DejaVuSans-69" x="1003.417969"/>
    <use xlink:href="#DejaVuSans-73" x="1031.201172"/>
    <use xlink:href="#DejaVuSans-65" x="1083.300781"/>
    <use xlink:href="#DejaVuSans-20" x="1144.824219"/>
    <use xlink:href="#DejaVuSans-61" x="1176.611328"/>
    <use xlink:href="#DejaVuSans-6e" x="1237.890625"/>
    <use xlink:href="#DejaVuSans-64" x="1301.269531"/>
    <use xlink:href="#DejaVuSans-20" x="1364.746094"/>
    <use xlink:href="#DejaVuSans-6f" x="1396.533203"/>
    <use xlink:href="#DejaVuSans-72" x="1457.714844"/>
    <use xlink:href="#DejaVuSans-69" x="1498.828125"/>
    <use xlink:href="#DejaVuSans-67" x="1526.611328"/>
    <use xlink:href="#DejaVuSans-69" x="1590.087891"/>
    <use xlink:href="#DejaVuSans-6e" x="1617.871094"/>
    <use xlink:href="#DejaVuSans-20" x="1681.25"/>
    <use xlink:href="#DejaVuSans-74" x="1713.037109"/>
    <use xlink:href="#DejaVuSans-65" x="1752.246094"/>
    <use xlink:href="#DejaVuSans-73" x="1813.769531"/>
    <use xlink:href="#DejaVuSans-69" x="1865.869141"/>
    <use xlink:href="#DejaVuSans-6e" x="1893.652344"/>
    <use xlink:href="#DejaVuSans-67" x="1957.03125"/>
    <use xlink:href="#DejaVuSans-20" x="2020.507812"/>
    <use xlink:href="#DejaVuSans-6f" x="2052.294922"/>
    <use xlink:href="#DejaVuSans-66" x="2113.476562"/>
    <use xlink:href="#DejaVuSans-20" x="2148.681641"/>
    <use xlink:href="#DejaVuSans-64" x="2180.46875"/>
    <use xlink:href="#DejaVuSans-69" x="2243.945312"/>
    <use xlink:href="#DejaVuSans-66" x="2271.728516"/>
    <use xlink:href="#DejaVuSans-66" x="2306.933594"/>
    <use xlink:href="#DejaVuSans-65" x="2342.138672"/>
    <use xlink:href="#DejaVuSans-72" x="2403.662109"/>
    <use xlink:href="#DejaVuSans-65" x="2442.525391"/>
    <use xlink:href="#DejaVuSans-6e" x="2504.048828"/>
    <use xlink:href="#DejaVuSans-74" x="2567.427734"/>
    <use xlink:href="#DejaVuSans-20" x="2606.636719"/>
    <use xlink:href="#DejaVuSans-6c" x="2638.423828"/>
    <use xlink:href="#DejaVuSans-6f" x="2666.207031"/>
    <use xlink:href="#DejaVuSans-73" x="2727.388672"/>
    <use xlink:href="#DejaVuSans-73" x="2779.488281"/>
    <use xlink:href="#DejaVuSans-20" x="2831.587891"/>
    <use xlink:href="#DejaVuSans-66" x="2863.375"/>
    <use xlink:href="#DejaVuSans-75" x="2898.580078"/>
    <use xlink:href="#DejaVuSans-6e" x="2961.958984"/>
    <use xlink:href="#DejaVuSans-63" x="3025.337891"/>
    <use xlink:href="#DejaVuSans-74" x="3080.318359"/>
    <use xlink:href="#DejaVuSans-69" x="3119.527344"/>
    <use xlink:href="#DejaVuSans-6f" x="3147.310547"/>
    <use xlink:href="#DejaVuSans-6e" x="3208.492188"/>
    <use xlink:href="#DejaVuSans-73" x="3271.871094"/>
    <use xlink:href="#DejaVuSans-20" x="3323.970703"/>
    <use xlink:href="#DejaVuSans-69" x="3355.757812"/>
    <use xlink:href="#DejaVuSans-6e" x="3383.541016"/>
    <use xlink:href="#DejaVuSans-20" x="3446.919922"/>
    <use xlink:href="#DejaVuSans-64" x="3478.707031"/>
    <use xlink:href="#DejaVuSans-69" x="3542.183594"/>
    <use xlink:href="#DejaVuSans-73" x="3569.966797"/>
    <use xlink:href="#DejaVuSans-74" x="3622.066406"/>
    <use xlink:href="#DejaVuSans-69" x="3661.275391"/>
    <use xlink:href="#DejaVuSans-6e" x="3689.058594"/>
    <use xlink:href="#DejaVuSans-63" x="3752.4375"/>
    <use xlink:href="#DejaVuSans-74" x="3807.417969"/>
    <use xlink:href="#DejaVuSans-20" x="3846.626953"/>
    <use xlink:href="#DejaVuSans-6f" x="3878.414062"/>
    <use xlink:href="#DejaVuSans-70" x="3939.595703"/>
    <use xlink:href="#DejaVuSans-74" x="4003.072266"/>
    <use xlink:href="#DejaVuSans-69" x="4042.28125"/>
    <use xlink:href="#DejaVuSans-6d" x="4070.064453"/>
    <use xlink:href="#DejaVuSans-69" x="4167.476562"/>
    <use xlink:href="#DejaVuSans-7a" x="4195.259766"/>
    <use xlink:href="#DejaVuSans-65" x="4247.75"/>
    <use xlink:href="#DejaVuSans-72" x="4309.273438"/>
    <use xlink:href="#DejaVuSans-73" x="4350.386719"/>
   </g>
  </g>
 </g>
 <defs>
  <clipPath id="pfa326be012">
   <rect x="270" y="103.68" width="760.909091" height="665.28"/>
  </clipPath>
  <clipPath id="pae8cc1de6e">
   <rect x="1183.090909" y="103.68" width="760.909091" height="665.28"/>
  </clipPath>
 </defs>
</svg>
