<?xml version="1.0" encoding="utf-8" standalone="no"?>
<!DOCTYPE svg PUBLIC "-//W3C//DTD SVG 1.1//EN"
  "http://www.w3.org/Graphics/SVG/1.1/DTD/svg11.dtd">
<svg xmlns:xlink="http://www.w3.org/1999/xlink" width="2160pt" height="1080pt" viewBox="0 0 2160 1080" xmlns="http://www.w3.org/2000/svg" version="1.1">
 <metadata>
  <rdf:RDF xmlns:dc="http://purl.org/dc/elements/1.1/" xmlns:cc="http://creativecommons.org/ns#" xmlns:rdf="http://www.w3.org/1999/02/22-rdf-syntax-ns#">
   <cc:Work>
    <dc:type rdf:resource="http://purl.org/dc/dcmitype/StillImage"/>
    <dc:date>2023-10-23T23:16:17.943883</dc:date>
    <dc:format>image/svg+xml</dc:format>
    <dc:creator>
     <cc:Agent>
      <dc:title>Matplotlib v3.5.1, https://matplotlib.org/</dc:title>
     </cc:Agent>
    </dc:creator>
   </cc:Work>
  </rdf:RDF>
 </metadata>
 <defs>
  <style type="text/css">*{stroke-linejoin: round; stroke-linecap: butt}</style>
 </defs>
 <g id="figure_1">
  <g id="patch_1">
   <path d="M 0 1080 
L 2160 1080 
L 2160 0 
L 0 0 
z
" style="fill: #ffffff"/>
  </g>
  <g id="axes_1">
   <g id="patch_2">
    <path d="M 270 945 
L 1030.909091 945 
L 1030.909091 129.6 
L 270 129.6 
z
" style="fill: #eaeaf2"/>
   </g>
   <g id="matplotlib.axis_1">
    <g id="xtick_1">
     <g id="line2d_1">
      <path d="M 286.38321 945 
L 286.38321 129.6 
" clip-path="url(#pb89ff9c91a)" style="fill: none; stroke: #ffffff; stroke-linecap: round"/>
     </g>
     <g id="text_1">
      <!-- 0 -->
      <g style="fill: #262626" transform="translate(278.736921 974.183984)scale(0.275 -0.275)">
       <defs>
        <path id="ArialMT-30" d="M 266 2259 
Q 266 3072 433 3567 
Q 600 4063 929 4331 
Q 1259 4600 1759 4600 
Q 2128 4600 2406 4451 
Q 2684 4303 2865 4023 
Q 3047 3744 3150 3342 
Q 3253 2941 3253 2259 
Q 3253 1453 3087 958 
Q 2922 463 2592 192 
Q 2263 -78 1759 -78 
Q 1097 -78 719 397 
Q 266 969 266 2259 
z
M 844 2259 
Q 844 1131 1108 757 
Q 1372 384 1759 384 
Q 2147 384 2411 759 
Q 2675 1134 2675 2259 
Q 2675 3391 2411 3762 
Q 2147 4134 1753 4134 
Q 1366 4134 1134 3806 
Q 844 3388 844 2259 
z
" transform="scale(0.015625)"/>
       </defs>
       <use xlink:href="#ArialMT-30"/>
      </g>
     </g>
    </g>
    <g id="xtick_2">
     <g id="line2d_2">
      <path d="M 377.401044 945 
L 377.401044 129.6 
" clip-path="url(#pb89ff9c91a)" style="fill: none; stroke: #ffffff; stroke-linecap: round"/>
     </g>
     <g id="text_2">
      <!-- 5 -->
      <g style="fill: #262626" transform="translate(369.754755 974.183984)scale(0.275 -0.275)">
       <defs>
        <path id="ArialMT-35" d="M 266 1200 
L 856 1250 
Q 922 819 1161 601 
Q 1400 384 1738 384 
Q 2144 384 2425 690 
Q 2706 997 2706 1503 
Q 2706 1984 2436 2262 
Q 2166 2541 1728 2541 
Q 1456 2541 1237 2417 
Q 1019 2294 894 2097 
L 366 2166 
L 809 4519 
L 3088 4519 
L 3088 3981 
L 1259 3981 
L 1013 2750 
Q 1425 3038 1878 3038 
Q 2478 3038 2890 2622 
Q 3303 2206 3303 1553 
Q 3303 931 2941 478 
Q 2500 -78 1738 -78 
Q 1113 -78 717 272 
Q 322 622 266 1200 
z
" transform="scale(0.015625)"/>
       </defs>
       <use xlink:href="#ArialMT-35"/>
      </g>
     </g>
    </g>
    <g id="xtick_3">
     <g id="line2d_3">
      <path d="M 468.418878 945 
L 468.418878 129.6 
" clip-path="url(#pb89ff9c91a)" style="fill: none; stroke: #ffffff; stroke-linecap: round"/>
     </g>
     <g id="text_3">
      <!-- 10 -->
      <g style="fill: #262626" transform="translate(453.1263 974.183984)scale(0.275 -0.275)">
       <defs>
        <path id="ArialMT-31" d="M 2384 0 
L 1822 0 
L 1822 3584 
Q 1619 3391 1289 3197 
Q 959 3003 697 2906 
L 697 3450 
Q 1169 3672 1522 3987 
Q 1875 4303 2022 4600 
L 2384 4600 
L 2384 0 
z
" transform="scale(0.015625)"/>
       </defs>
       <use xlink:href="#ArialMT-31"/>
       <use xlink:href="#ArialMT-30" x="55.615234"/>
      </g>
     </g>
    </g>
    <g id="xtick_4">
     <g id="line2d_4">
      <path d="M 559.436712 945 
L 559.436712 129.6 
" clip-path="url(#pb89ff9c91a)" style="fill: none; stroke: #ffffff; stroke-linecap: round"/>
     </g>
     <g id="text_4">
      <!-- 15 -->
      <g style="fill: #262626" transform="translate(544.144133 974.183984)scale(0.275 -0.275)">
       <use xlink:href="#ArialMT-31"/>
       <use xlink:href="#ArialMT-35" x="55.615234"/>
      </g>
     </g>
    </g>
    <g id="xtick_5">
     <g id="line2d_5">
      <path d="M 650.454545 945 
L 650.454545 129.6 
" clip-path="url(#pb89ff9c91a)" style="fill: none; stroke: #ffffff; stroke-linecap: round"/>
     </g>
     <g id="text_5">
      <!-- 20 -->
      <g style="fill: #262626" transform="translate(635.161967 974.183984)scale(0.275 -0.275)">
       <defs>
        <path id="ArialMT-32" d="M 3222 541 
L 3222 0 
L 194 0 
Q 188 203 259 391 
Q 375 700 629 1000 
Q 884 1300 1366 1694 
Q 2113 2306 2375 2664 
Q 2638 3022 2638 3341 
Q 2638 3675 2398 3904 
Q 2159 4134 1775 4134 
Q 1369 4134 1125 3890 
Q 881 3647 878 3216 
L 300 3275 
Q 359 3922 746 4261 
Q 1134 4600 1788 4600 
Q 2447 4600 2831 4234 
Q 3216 3869 3216 3328 
Q 3216 3053 3103 2787 
Q 2991 2522 2730 2228 
Q 2469 1934 1863 1422 
Q 1356 997 1212 845 
Q 1069 694 975 541 
L 3222 541 
z
" transform="scale(0.015625)"/>
       </defs>
       <use xlink:href="#ArialMT-32"/>
       <use xlink:href="#ArialMT-30" x="55.615234"/>
      </g>
     </g>
    </g>
    <g id="xtick_6">
     <g id="line2d_6">
      <path d="M 741.472379 945 
L 741.472379 129.6 
" clip-path="url(#pb89ff9c91a)" style="fill: none; stroke: #ffffff; stroke-linecap: round"/>
     </g>
     <g id="text_6">
      <!-- 25 -->
      <g style="fill: #262626" transform="translate(726.179801 974.183984)scale(0.275 -0.275)">
       <use xlink:href="#ArialMT-32"/>
       <use xlink:href="#ArialMT-35" x="55.615234"/>
      </g>
     </g>
    </g>
    <g id="xtick_7">
     <g id="line2d_7">
      <path d="M 832.490213 945 
L 832.490213 129.6 
" clip-path="url(#pb89ff9c91a)" style="fill: none; stroke: #ffffff; stroke-linecap: round"/>
     </g>
     <g id="text_7">
      <!-- 30 -->
      <g style="fill: #262626" transform="translate(817.197635 974.183984)scale(0.275 -0.275)">
       <defs>
        <path id="ArialMT-33" d="M 269 1209 
L 831 1284 
Q 928 806 1161 595 
Q 1394 384 1728 384 
Q 2125 384 2398 659 
Q 2672 934 2672 1341 
Q 2672 1728 2419 1979 
Q 2166 2231 1775 2231 
Q 1616 2231 1378 2169 
L 1441 2663 
Q 1497 2656 1531 2656 
Q 1891 2656 2178 2843 
Q 2466 3031 2466 3422 
Q 2466 3731 2256 3934 
Q 2047 4138 1716 4138 
Q 1388 4138 1169 3931 
Q 950 3725 888 3313 
L 325 3413 
Q 428 3978 793 4289 
Q 1159 4600 1703 4600 
Q 2078 4600 2393 4439 
Q 2709 4278 2876 4000 
Q 3044 3722 3044 3409 
Q 3044 3113 2884 2869 
Q 2725 2625 2413 2481 
Q 2819 2388 3044 2092 
Q 3269 1797 3269 1353 
Q 3269 753 2831 336 
Q 2394 -81 1725 -81 
Q 1122 -81 723 278 
Q 325 638 269 1209 
z
" transform="scale(0.015625)"/>
       </defs>
       <use xlink:href="#ArialMT-33"/>
       <use xlink:href="#ArialMT-30" x="55.615234"/>
      </g>
     </g>
    </g>
    <g id="xtick_8">
     <g id="line2d_8">
      <path d="M 923.508047 945 
L 923.508047 129.6 
" clip-path="url(#pb89ff9c91a)" style="fill: none; stroke: #ffffff; stroke-linecap: round"/>
     </g>
     <g id="text_8">
      <!-- 35 -->
      <g style="fill: #262626" transform="translate(908.215469 974.183984)scale(0.275 -0.275)">
       <use xlink:href="#ArialMT-33"/>
       <use xlink:href="#ArialMT-35" x="55.615234"/>
      </g>
     </g>
    </g>
    <g id="xtick_9">
     <g id="line2d_9">
      <path d="M 1014.525881 945 
L 1014.525881 129.6 
" clip-path="url(#pb89ff9c91a)" style="fill: none; stroke: #ffffff; stroke-linecap: round"/>
     </g>
     <g id="text_9">
      <!-- 40 -->
      <g style="fill: #262626" transform="translate(999.233303 974.183984)scale(0.275 -0.275)">
       <defs>
        <path id="ArialMT-34" d="M 2069 0 
L 2069 1097 
L 81 1097 
L 81 1613 
L 2172 4581 
L 2631 4581 
L 2631 1613 
L 3250 1613 
L 3250 1097 
L 2631 1097 
L 2631 0 
L 2069 0 
z
M 2069 1613 
L 2069 3678 
L 634 1613 
L 2069 1613 
z
" transform="scale(0.015625)"/>
       </defs>
       <use xlink:href="#ArialMT-34"/>
       <use xlink:href="#ArialMT-30" x="55.615234"/>
      </g>
     </g>
    </g>
    <g id="text_10">
     <!-- Epoch -->
     <g style="fill: #262626" transform="translate(607.924858 1005.123047)scale(0.3 -0.3)">
      <defs>
       <path id="ArialMT-45" d="M 506 0 
L 506 4581 
L 3819 4581 
L 3819 4041 
L 1113 4041 
L 1113 2638 
L 3647 2638 
L 3647 2100 
L 1113 2100 
L 1113 541 
L 3925 541 
L 3925 0 
L 506 0 
z
" transform="scale(0.015625)"/>
       <path id="ArialMT-70" d="M 422 -1272 
L 422 3319 
L 934 3319 
L 934 2888 
Q 1116 3141 1344 3267 
Q 1572 3394 1897 3394 
Q 2322 3394 2647 3175 
Q 2972 2956 3137 2557 
Q 3303 2159 3303 1684 
Q 3303 1175 3120 767 
Q 2938 359 2589 142 
Q 2241 -75 1856 -75 
Q 1575 -75 1351 44 
Q 1128 163 984 344 
L 984 -1272 
L 422 -1272 
z
M 931 1641 
Q 931 1000 1190 694 
Q 1450 388 1819 388 
Q 2194 388 2461 705 
Q 2728 1022 2728 1688 
Q 2728 2322 2467 2637 
Q 2206 2953 1844 2953 
Q 1484 2953 1207 2617 
Q 931 2281 931 1641 
z
" transform="scale(0.015625)"/>
       <path id="ArialMT-6f" d="M 213 1659 
Q 213 2581 725 3025 
Q 1153 3394 1769 3394 
Q 2453 3394 2887 2945 
Q 3322 2497 3322 1706 
Q 3322 1066 3130 698 
Q 2938 331 2570 128 
Q 2203 -75 1769 -75 
Q 1072 -75 642 372 
Q 213 819 213 1659 
z
M 791 1659 
Q 791 1022 1069 705 
Q 1347 388 1769 388 
Q 2188 388 2466 706 
Q 2744 1025 2744 1678 
Q 2744 2294 2464 2611 
Q 2184 2928 1769 2928 
Q 1347 2928 1069 2612 
Q 791 2297 791 1659 
z
" transform="scale(0.015625)"/>
       <path id="ArialMT-63" d="M 2588 1216 
L 3141 1144 
Q 3050 572 2676 248 
Q 2303 -75 1759 -75 
Q 1078 -75 664 370 
Q 250 816 250 1647 
Q 250 2184 428 2587 
Q 606 2991 970 3192 
Q 1334 3394 1763 3394 
Q 2303 3394 2647 3120 
Q 2991 2847 3088 2344 
L 2541 2259 
Q 2463 2594 2264 2762 
Q 2066 2931 1784 2931 
Q 1359 2931 1093 2626 
Q 828 2322 828 1663 
Q 828 994 1084 691 
Q 1341 388 1753 388 
Q 2084 388 2306 591 
Q 2528 794 2588 1216 
z
" transform="scale(0.015625)"/>
       <path id="ArialMT-68" d="M 422 0 
L 422 4581 
L 984 4581 
L 984 2938 
Q 1378 3394 1978 3394 
Q 2347 3394 2619 3248 
Q 2891 3103 3008 2847 
Q 3125 2591 3125 2103 
L 3125 0 
L 2563 0 
L 2563 2103 
Q 2563 2525 2380 2717 
Q 2197 2909 1863 2909 
Q 1613 2909 1392 2779 
Q 1172 2650 1078 2428 
Q 984 2206 984 1816 
L 984 0 
L 422 0 
z
" transform="scale(0.015625)"/>
      </defs>
      <use xlink:href="#ArialMT-45"/>
      <use xlink:href="#ArialMT-70" x="66.699219"/>
      <use xlink:href="#ArialMT-6f" x="122.314453"/>
      <use xlink:href="#ArialMT-63" x="177.929688"/>
      <use xlink:href="#ArialMT-68" x="227.929688"/>
     </g>
    </g>
   </g>
   <g id="matplotlib.axis_2">
    <g id="ytick_1">
     <g id="line2d_10">
      <path d="M 270 832.547603 
L 1030.909091 832.547603 
" clip-path="url(#pb89ff9c91a)" style="fill: none; stroke: #ffffff; stroke-linecap: round"/>
     </g>
     <g id="text_11">
      <!-- -0.15 -->
      <g style="fill: #262626" transform="translate(197.825781 842.389595)scale(0.275 -0.275)">
       <defs>
        <path id="ArialMT-2d" d="M 203 1375 
L 203 1941 
L 1931 1941 
L 1931 1375 
L 203 1375 
z
" transform="scale(0.015625)"/>
        <path id="ArialMT-2e" d="M 581 0 
L 581 641 
L 1222 641 
L 1222 0 
L 581 0 
z
" transform="scale(0.015625)"/>
       </defs>
       <use xlink:href="#ArialMT-2d"/>
       <use xlink:href="#ArialMT-30" x="33.300781"/>
       <use xlink:href="#ArialMT-2e" x="88.916016"/>
       <use xlink:href="#ArialMT-31" x="116.699219"/>
       <use xlink:href="#ArialMT-35" x="172.314453"/>
      </g>
     </g>
    </g>
    <g id="ytick_2">
     <g id="line2d_11">
      <path d="M 270 714.936627 
L 1030.909091 714.936627 
" clip-path="url(#pb89ff9c91a)" style="fill: none; stroke: #ffffff; stroke-linecap: round"/>
     </g>
     <g id="text_12">
      <!-- -0.10 -->
      <g style="fill: #262626" transform="translate(197.825781 724.778619)scale(0.275 -0.275)">
       <use xlink:href="#ArialMT-2d"/>
       <use xlink:href="#ArialMT-30" x="33.300781"/>
       <use xlink:href="#ArialMT-2e" x="88.916016"/>
       <use xlink:href="#ArialMT-31" x="116.699219"/>
       <use xlink:href="#ArialMT-30" x="172.314453"/>
      </g>
     </g>
    </g>
    <g id="ytick_3">
     <g id="line2d_12">
      <path d="M 270 597.325652 
L 1030.909091 597.325652 
" clip-path="url(#pb89ff9c91a)" style="fill: none; stroke: #ffffff; stroke-linecap: round"/>
     </g>
     <g id="text_13">
      <!-- -0.05 -->
      <g style="fill: #262626" transform="translate(197.825781 607.167644)scale(0.275 -0.275)">
       <use xlink:href="#ArialMT-2d"/>
       <use xlink:href="#ArialMT-30" x="33.300781"/>
       <use xlink:href="#ArialMT-2e" x="88.916016"/>
       <use xlink:href="#ArialMT-30" x="116.699219"/>
       <use xlink:href="#ArialMT-35" x="172.314453"/>
      </g>
     </g>
    </g>
    <g id="ytick_4">
     <g id="line2d_13">
      <path d="M 270 479.714676 
L 1030.909091 479.714676 
" clip-path="url(#pb89ff9c91a)" style="fill: none; stroke: #ffffff; stroke-linecap: round"/>
     </g>
     <g id="text_14">
      <!-- 0.00 -->
      <g style="fill: #262626" transform="translate(206.982422 489.556668)scale(0.275 -0.275)">
       <use xlink:href="#ArialMT-30"/>
       <use xlink:href="#ArialMT-2e" x="55.615234"/>
       <use xlink:href="#ArialMT-30" x="83.398438"/>
       <use xlink:href="#ArialMT-30" x="139.013672"/>
      </g>
     </g>
    </g>
    <g id="ytick_5">
     <g id="line2d_14">
      <path d="M 270 362.1037 
L 1030.909091 362.1037 
" clip-path="url(#pb89ff9c91a)" style="fill: none; stroke: #ffffff; stroke-linecap: round"/>
     </g>
     <g id="text_15">
      <!-- 0.05 -->
      <g style="fill: #262626" transform="translate(206.982422 371.945693)scale(0.275 -0.275)">
       <use xlink:href="#ArialMT-30"/>
       <use xlink:href="#ArialMT-2e" x="55.615234"/>
       <use xlink:href="#ArialMT-30" x="83.398438"/>
       <use xlink:href="#ArialMT-35" x="139.013672"/>
      </g>
     </g>
    </g>
    <g id="ytick_6">
     <g id="line2d_15">
      <path d="M 270 244.492725 
L 1030.909091 244.492725 
" clip-path="url(#pb89ff9c91a)" style="fill: none; stroke: #ffffff; stroke-linecap: round"/>
     </g>
     <g id="text_16">
      <!-- 0.10 -->
      <g style="fill: #262626" transform="translate(206.982422 254.334717)scale(0.275 -0.275)">
       <use xlink:href="#ArialMT-30"/>
       <use xlink:href="#ArialMT-2e" x="55.615234"/>
       <use xlink:href="#ArialMT-31" x="83.398438"/>
       <use xlink:href="#ArialMT-30" x="139.013672"/>
      </g>
     </g>
    </g>
    <g id="text_17">
     <!-- Testing changing rate -->
     <g style="fill: #262626" transform="translate(187.511719 679.877344)rotate(-90)scale(0.3 -0.3)">
      <defs>
       <path id="ArialMT-54" d="M 1659 0 
L 1659 4041 
L 150 4041 
L 150 4581 
L 3781 4581 
L 3781 4041 
L 2266 4041 
L 2266 0 
L 1659 0 
z
" transform="scale(0.015625)"/>
       <path id="ArialMT-65" d="M 2694 1069 
L 3275 997 
Q 3138 488 2766 206 
Q 2394 -75 1816 -75 
Q 1088 -75 661 373 
Q 234 822 234 1631 
Q 234 2469 665 2931 
Q 1097 3394 1784 3394 
Q 2450 3394 2872 2941 
Q 3294 2488 3294 1666 
Q 3294 1616 3291 1516 
L 816 1516 
Q 847 969 1125 678 
Q 1403 388 1819 388 
Q 2128 388 2347 550 
Q 2566 713 2694 1069 
z
M 847 1978 
L 2700 1978 
Q 2663 2397 2488 2606 
Q 2219 2931 1791 2931 
Q 1403 2931 1139 2672 
Q 875 2413 847 1978 
z
" transform="scale(0.015625)"/>
       <path id="ArialMT-73" d="M 197 991 
L 753 1078 
Q 800 744 1014 566 
Q 1228 388 1613 388 
Q 2000 388 2187 545 
Q 2375 703 2375 916 
Q 2375 1106 2209 1216 
Q 2094 1291 1634 1406 
Q 1016 1563 777 1677 
Q 538 1791 414 1992 
Q 291 2194 291 2438 
Q 291 2659 392 2848 
Q 494 3038 669 3163 
Q 800 3259 1026 3326 
Q 1253 3394 1513 3394 
Q 1903 3394 2198 3281 
Q 2494 3169 2634 2976 
Q 2775 2784 2828 2463 
L 2278 2388 
Q 2241 2644 2061 2787 
Q 1881 2931 1553 2931 
Q 1166 2931 1000 2803 
Q 834 2675 834 2503 
Q 834 2394 903 2306 
Q 972 2216 1119 2156 
Q 1203 2125 1616 2013 
Q 2213 1853 2448 1751 
Q 2684 1650 2818 1456 
Q 2953 1263 2953 975 
Q 2953 694 2789 445 
Q 2625 197 2315 61 
Q 2006 -75 1616 -75 
Q 969 -75 630 194 
Q 291 463 197 991 
z
" transform="scale(0.015625)"/>
       <path id="ArialMT-74" d="M 1650 503 
L 1731 6 
Q 1494 -44 1306 -44 
Q 1000 -44 831 53 
Q 663 150 594 308 
Q 525 466 525 972 
L 525 2881 
L 113 2881 
L 113 3319 
L 525 3319 
L 525 4141 
L 1084 4478 
L 1084 3319 
L 1650 3319 
L 1650 2881 
L 1084 2881 
L 1084 941 
Q 1084 700 1114 631 
Q 1144 563 1211 522 
Q 1278 481 1403 481 
Q 1497 481 1650 503 
z
" transform="scale(0.015625)"/>
       <path id="ArialMT-69" d="M 425 3934 
L 425 4581 
L 988 4581 
L 988 3934 
L 425 3934 
z
M 425 0 
L 425 3319 
L 988 3319 
L 988 0 
L 425 0 
z
" transform="scale(0.015625)"/>
       <path id="ArialMT-6e" d="M 422 0 
L 422 3319 
L 928 3319 
L 928 2847 
Q 1294 3394 1984 3394 
Q 2284 3394 2536 3286 
Q 2788 3178 2913 3003 
Q 3038 2828 3088 2588 
Q 3119 2431 3119 2041 
L 3119 0 
L 2556 0 
L 2556 2019 
Q 2556 2363 2490 2533 
Q 2425 2703 2258 2804 
Q 2091 2906 1866 2906 
Q 1506 2906 1245 2678 
Q 984 2450 984 1813 
L 984 0 
L 422 0 
z
" transform="scale(0.015625)"/>
       <path id="ArialMT-67" d="M 319 -275 
L 866 -356 
Q 900 -609 1056 -725 
Q 1266 -881 1628 -881 
Q 2019 -881 2231 -725 
Q 2444 -569 2519 -288 
Q 2563 -116 2559 434 
Q 2191 0 1641 0 
Q 956 0 581 494 
Q 206 988 206 1678 
Q 206 2153 378 2554 
Q 550 2956 876 3175 
Q 1203 3394 1644 3394 
Q 2231 3394 2613 2919 
L 2613 3319 
L 3131 3319 
L 3131 450 
Q 3131 -325 2973 -648 
Q 2816 -972 2473 -1159 
Q 2131 -1347 1631 -1347 
Q 1038 -1347 672 -1080 
Q 306 -813 319 -275 
z
M 784 1719 
Q 784 1066 1043 766 
Q 1303 466 1694 466 
Q 2081 466 2343 764 
Q 2606 1063 2606 1700 
Q 2606 2309 2336 2618 
Q 2066 2928 1684 2928 
Q 1309 2928 1046 2623 
Q 784 2319 784 1719 
z
" transform="scale(0.015625)"/>
       <path id="ArialMT-20" transform="scale(0.015625)"/>
       <path id="ArialMT-61" d="M 2588 409 
Q 2275 144 1986 34 
Q 1697 -75 1366 -75 
Q 819 -75 525 192 
Q 231 459 231 875 
Q 231 1119 342 1320 
Q 453 1522 633 1644 
Q 813 1766 1038 1828 
Q 1203 1872 1538 1913 
Q 2219 1994 2541 2106 
Q 2544 2222 2544 2253 
Q 2544 2597 2384 2738 
Q 2169 2928 1744 2928 
Q 1347 2928 1158 2789 
Q 969 2650 878 2297 
L 328 2372 
Q 403 2725 575 2942 
Q 747 3159 1072 3276 
Q 1397 3394 1825 3394 
Q 2250 3394 2515 3294 
Q 2781 3194 2906 3042 
Q 3031 2891 3081 2659 
Q 3109 2516 3109 2141 
L 3109 1391 
Q 3109 606 3145 398 
Q 3181 191 3288 0 
L 2700 0 
Q 2613 175 2588 409 
z
M 2541 1666 
Q 2234 1541 1622 1453 
Q 1275 1403 1131 1340 
Q 988 1278 909 1158 
Q 831 1038 831 891 
Q 831 666 1001 516 
Q 1172 366 1500 366 
Q 1825 366 2078 508 
Q 2331 650 2450 897 
Q 2541 1088 2541 1459 
L 2541 1666 
z
" transform="scale(0.015625)"/>
       <path id="ArialMT-72" d="M 416 0 
L 416 3319 
L 922 3319 
L 922 2816 
Q 1116 3169 1280 3281 
Q 1444 3394 1641 3394 
Q 1925 3394 2219 3213 
L 2025 2691 
Q 1819 2813 1613 2813 
Q 1428 2813 1281 2702 
Q 1134 2591 1072 2394 
Q 978 2094 978 1738 
L 978 0 
L 416 0 
z
" transform="scale(0.015625)"/>
      </defs>
      <use xlink:href="#ArialMT-54"/>
      <use xlink:href="#ArialMT-65" x="49.958984"/>
      <use xlink:href="#ArialMT-73" x="105.574219"/>
      <use xlink:href="#ArialMT-74" x="155.574219"/>
      <use xlink:href="#ArialMT-69" x="183.357422"/>
      <use xlink:href="#ArialMT-6e" x="205.574219"/>
      <use xlink:href="#ArialMT-67" x="261.189453"/>
      <use xlink:href="#ArialMT-20" x="316.804688"/>
      <use xlink:href="#ArialMT-63" x="344.587891"/>
      <use xlink:href="#ArialMT-68" x="394.587891"/>
      <use xlink:href="#ArialMT-61" x="450.203125"/>
      <use xlink:href="#ArialMT-6e" x="505.818359"/>
      <use xlink:href="#ArialMT-67" x="561.433594"/>
      <use xlink:href="#ArialMT-69" x="617.048828"/>
      <use xlink:href="#ArialMT-6e" x="639.265625"/>
      <use xlink:href="#ArialMT-67" x="694.880859"/>
      <use xlink:href="#ArialMT-20" x="750.496094"/>
      <use xlink:href="#ArialMT-72" x="778.279297"/>
      <use xlink:href="#ArialMT-61" x="811.580078"/>
      <use xlink:href="#ArialMT-74" x="867.195312"/>
      <use xlink:href="#ArialMT-65" x="894.978516"/>
     </g>
    </g>
   </g>
   <g id="line2d_16">
    <path d="M 304.586777 653.674108 
L 322.790344 515.823655 
L 340.99391 476.190048 
L 359.197477 506.214592 
L 377.401044 613.727855 
L 395.604611 459.457305 
L 413.808177 538.858088 
L 432.011744 524.684294 
L 450.215311 514.545973 
L 468.418878 480.211733 
L 486.622445 531.05674 
L 504.826011 531.42691 
L 523.029578 485.458201 
L 541.233145 489.697081 
L 559.436712 559.393728 
L 577.640278 502.717272 
L 595.843845 491.118869 
L 614.047412 513.794388 
L 632.250979 422.23857 
L 650.454545 512.946209 
L 668.658112 549.47253 
L 686.861679 483.542819 
L 705.065246 438.377586 
L 723.268813 527.311426 
L 741.472379 505.513729 
L 759.675946 471.873479 
L 777.879513 491.166089 
L 796.08308 453.957069 
L 814.286646 503.167114 
L 832.490213 494.002512 
L 850.69378 481.919262 
L 868.897347 489.046507 
L 887.100913 481.450066 
L 905.30448 463.237416 
L 923.508047 502.779469 
L 941.711614 473.447443 
L 959.915181 480.66623 
L 978.118747 483.866751 
L 996.322314 480.288281 
" clip-path="url(#pb89ff9c91a)" style="fill: none; stroke-dasharray: 5.55,2.4; stroke-dashoffset: 0; stroke: #4c72b0; stroke-width: 1.5"/>
   </g>
   <g id="line2d_17">
    <path d="M 304.586777 677.689701 
L 322.790344 409.522122 
L 340.99391 561.544985 
L 359.197477 426.693062 
L 377.401044 735.820621 
L 395.604611 577.184519 
L 413.808177 472.552988 
L 432.011744 534.149993 
L 450.215311 531.909031 
L 468.418878 556.819816 
L 486.622445 396.67686 
L 504.826011 587.076352 
L 523.029578 362.576067 
L 541.233145 580.691569 
L 559.436712 595.097543 
L 577.640278 370.747719 
L 595.843845 620.464105 
L 614.047412 443.874342 
L 632.250979 452.397793 
L 650.454545 609.30381 
L 668.658112 471.756246 
L 686.861679 493.887585 
L 705.065246 461.682981 
L 723.268813 486.467762 
L 741.472379 522.072849 
L 759.675946 499.71238 
L 777.879513 440.69271 
L 796.08308 512.048075 
L 814.286646 499.571317 
L 832.490213 491.760188 
L 850.69378 483.296441 
L 868.897347 472.087315 
L 887.100913 479.396649 
L 905.30448 484.340485 
L 923.508047 481.277862 
L 941.711614 497.798349 
L 959.915181 476.012868 
L 978.118747 482.144346 
L 996.322314 479.123352 
" clip-path="url(#pb89ff9c91a)" style="fill: none; stroke-dasharray: 1.5,2.475; stroke-dashoffset: 0; stroke: #dd8452; stroke-width: 1.5"/>
   </g>
   <g id="line2d_18">
    <path d="M 304.586777 594.062741 
L 322.790344 521.284492 
L 340.99391 527.333064 
L 359.197477 166.663636 
L 377.401044 907.936364 
L 395.604611 519.050027 
L 413.808177 542.926783 
L 432.011744 465.652638 
L 450.215311 475.427989 
L 468.418878 567.987371 
L 486.622445 522.487929 
L 504.826011 514.819945 
L 523.029578 566.131926 
L 541.233145 430.689675 
L 559.436712 536.869994 
L 577.640278 477.626167 
L 595.843845 556.910466 
L 614.047412 474.304983 
L 632.250979 472.740464 
L 650.454545 541.789165 
L 668.658112 472.823997 
L 686.861679 529.057079 
L 705.065246 494.459717 
L 723.268813 462.09523 
L 741.472379 504.712902 
L 759.675946 456.105231 
L 777.879513 520.19816 
L 796.08308 473.913571 
L 814.286646 493.805189 
L 832.490213 493.979896 
L 850.69378 477.928099 
L 868.897347 483.715304 
L 887.100913 477.207496 
L 905.30448 502.612084 
L 923.508047 479.740335 
L 941.711614 467.3562 
L 959.915181 478.84745 
L 978.118747 490.977011 
L 996.322314 476.823112 
" clip-path="url(#pb89ff9c91a)" style="fill: none; stroke: #55a868; stroke-width: 1.5; stroke-linecap: round"/>
   </g>
   <g id="patch_3">
    <path d="M 270 945 
L 270 129.6 
" style="fill: none; stroke: #ffffff; stroke-width: 1.25; stroke-linejoin: miter; stroke-linecap: square"/>
   </g>
   <g id="patch_4">
    <path d="M 1030.909091 945 
L 1030.909091 129.6 
" style="fill: none; stroke: #ffffff; stroke-width: 1.25; stroke-linejoin: miter; stroke-linecap: square"/>
   </g>
   <g id="patch_5">
    <path d="M 270 945 
L 1030.909091 945 
" style="fill: none; stroke: #ffffff; stroke-width: 1.25; stroke-linejoin: miter; stroke-linecap: square"/>
   </g>
   <g id="patch_6">
    <path d="M 270 129.6 
L 1030.909091 129.6 
" style="fill: none; stroke: #ffffff; stroke-width: 1.25; stroke-linejoin: miter; stroke-linecap: square"/>
   </g>
   <g id="text_18">
    <!-- Testing changing rate of different loss functions in SGD optimizer -->
    <g style="fill: #262626" transform="translate(220.533452 123.6)scale(0.3 -0.3)">
     <defs>
      <path id="ArialMT-66" d="M 556 0 
L 556 2881 
L 59 2881 
L 59 3319 
L 556 3319 
L 556 3672 
Q 556 4006 616 4169 
Q 697 4388 901 4523 
Q 1106 4659 1475 4659 
Q 1713 4659 2000 4603 
L 1916 4113 
Q 1741 4144 1584 4144 
Q 1328 4144 1222 4034 
Q 1116 3925 1116 3625 
L 1116 3319 
L 1763 3319 
L 1763 2881 
L 1116 2881 
L 1116 0 
L 556 0 
z
" transform="scale(0.015625)"/>
      <path id="ArialMT-64" d="M 2575 0 
L 2575 419 
Q 2259 -75 1647 -75 
Q 1250 -75 917 144 
Q 584 363 401 755 
Q 219 1147 219 1656 
Q 219 2153 384 2558 
Q 550 2963 881 3178 
Q 1213 3394 1622 3394 
Q 1922 3394 2156 3267 
Q 2391 3141 2538 2938 
L 2538 4581 
L 3097 4581 
L 3097 0 
L 2575 0 
z
M 797 1656 
Q 797 1019 1065 703 
Q 1334 388 1700 388 
Q 2069 388 2326 689 
Q 2584 991 2584 1609 
Q 2584 2291 2321 2609 
Q 2059 2928 1675 2928 
Q 1300 2928 1048 2622 
Q 797 2316 797 1656 
z
" transform="scale(0.015625)"/>
      <path id="ArialMT-6c" d="M 409 0 
L 409 4581 
L 972 4581 
L 972 0 
L 409 0 
z
" transform="scale(0.015625)"/>
      <path id="ArialMT-75" d="M 2597 0 
L 2597 488 
Q 2209 -75 1544 -75 
Q 1250 -75 995 37 
Q 741 150 617 320 
Q 494 491 444 738 
Q 409 903 409 1263 
L 409 3319 
L 972 3319 
L 972 1478 
Q 972 1038 1006 884 
Q 1059 663 1231 536 
Q 1403 409 1656 409 
Q 1909 409 2131 539 
Q 2353 669 2445 892 
Q 2538 1116 2538 1541 
L 2538 3319 
L 3100 3319 
L 3100 0 
L 2597 0 
z
" transform="scale(0.015625)"/>
      <path id="ArialMT-53" d="M 288 1472 
L 859 1522 
Q 900 1178 1048 958 
Q 1197 738 1509 602 
Q 1822 466 2213 466 
Q 2559 466 2825 569 
Q 3091 672 3220 851 
Q 3350 1031 3350 1244 
Q 3350 1459 3225 1620 
Q 3100 1781 2813 1891 
Q 2628 1963 1997 2114 
Q 1366 2266 1113 2400 
Q 784 2572 623 2826 
Q 463 3081 463 3397 
Q 463 3744 659 4045 
Q 856 4347 1234 4503 
Q 1613 4659 2075 4659 
Q 2584 4659 2973 4495 
Q 3363 4331 3572 4012 
Q 3781 3694 3797 3291 
L 3216 3247 
Q 3169 3681 2898 3903 
Q 2628 4125 2100 4125 
Q 1550 4125 1298 3923 
Q 1047 3722 1047 3438 
Q 1047 3191 1225 3031 
Q 1400 2872 2139 2705 
Q 2878 2538 3153 2413 
Q 3553 2228 3743 1945 
Q 3934 1663 3934 1294 
Q 3934 928 3725 604 
Q 3516 281 3123 101 
Q 2731 -78 2241 -78 
Q 1619 -78 1198 103 
Q 778 284 539 648 
Q 300 1013 288 1472 
z
" transform="scale(0.015625)"/>
      <path id="ArialMT-47" d="M 2638 1797 
L 2638 2334 
L 4578 2338 
L 4578 638 
Q 4131 281 3656 101 
Q 3181 -78 2681 -78 
Q 2006 -78 1454 211 
Q 903 500 622 1047 
Q 341 1594 341 2269 
Q 341 2938 620 3517 
Q 900 4097 1425 4378 
Q 1950 4659 2634 4659 
Q 3131 4659 3532 4498 
Q 3934 4338 4162 4050 
Q 4391 3763 4509 3300 
L 3963 3150 
Q 3859 3500 3706 3700 
Q 3553 3900 3268 4020 
Q 2984 4141 2638 4141 
Q 2222 4141 1919 4014 
Q 1616 3888 1430 3681 
Q 1244 3475 1141 3228 
Q 966 2803 966 2306 
Q 966 1694 1177 1281 
Q 1388 869 1791 669 
Q 2194 469 2647 469 
Q 3041 469 3416 620 
Q 3791 772 3984 944 
L 3984 1797 
L 2638 1797 
z
" transform="scale(0.015625)"/>
      <path id="ArialMT-44" d="M 494 0 
L 494 4581 
L 2072 4581 
Q 2606 4581 2888 4516 
Q 3281 4425 3559 4188 
Q 3922 3881 4101 3404 
Q 4281 2928 4281 2316 
Q 4281 1794 4159 1391 
Q 4038 988 3847 723 
Q 3656 459 3429 307 
Q 3203 156 2883 78 
Q 2563 0 2147 0 
L 494 0 
z
M 1100 541 
L 2078 541 
Q 2531 541 2789 625 
Q 3047 709 3200 863 
Q 3416 1078 3536 1442 
Q 3656 1806 3656 2325 
Q 3656 3044 3420 3430 
Q 3184 3816 2847 3947 
Q 2603 4041 2063 4041 
L 1100 4041 
L 1100 541 
z
" transform="scale(0.015625)"/>
      <path id="ArialMT-6d" d="M 422 0 
L 422 3319 
L 925 3319 
L 925 2853 
Q 1081 3097 1340 3245 
Q 1600 3394 1931 3394 
Q 2300 3394 2536 3241 
Q 2772 3088 2869 2813 
Q 3263 3394 3894 3394 
Q 4388 3394 4653 3120 
Q 4919 2847 4919 2278 
L 4919 0 
L 4359 0 
L 4359 2091 
Q 4359 2428 4304 2576 
Q 4250 2725 4106 2815 
Q 3963 2906 3769 2906 
Q 3419 2906 3187 2673 
Q 2956 2441 2956 1928 
L 2956 0 
L 2394 0 
L 2394 2156 
Q 2394 2531 2256 2718 
Q 2119 2906 1806 2906 
Q 1569 2906 1367 2781 
Q 1166 2656 1075 2415 
Q 984 2175 984 1722 
L 984 0 
L 422 0 
z
" transform="scale(0.015625)"/>
      <path id="ArialMT-7a" d="M 125 0 
L 125 456 
L 2238 2881 
Q 1878 2863 1603 2863 
L 250 2863 
L 250 3319 
L 2963 3319 
L 2963 2947 
L 1166 841 
L 819 456 
Q 1197 484 1528 484 
L 3063 484 
L 3063 0 
L 125 0 
z
" transform="scale(0.015625)"/>
     </defs>
     <use xlink:href="#ArialMT-54"/>
     <use xlink:href="#ArialMT-65" x="49.958984"/>
     <use xlink:href="#ArialMT-73" x="105.574219"/>
     <use xlink:href="#ArialMT-74" x="155.574219"/>
     <use xlink:href="#ArialMT-69" x="183.357422"/>
     <use xlink:href="#ArialMT-6e" x="205.574219"/>
     <use xlink:href="#ArialMT-67" x="261.189453"/>
     <use xlink:href="#ArialMT-20" x="316.804688"/>
     <use xlink:href="#ArialMT-63" x="344.587891"/>
     <use xlink:href="#ArialMT-68" x="394.587891"/>
     <use xlink:href="#ArialMT-61" x="450.203125"/>
     <use xlink:href="#ArialMT-6e" x="505.818359"/>
     <use xlink:href="#ArialMT-67" x="561.433594"/>
     <use xlink:href="#ArialMT-69" x="617.048828"/>
     <use xlink:href="#ArialMT-6e" x="639.265625"/>
     <use xlink:href="#ArialMT-67" x="694.880859"/>
     <use xlink:href="#ArialMT-20" x="750.496094"/>
     <use xlink:href="#ArialMT-72" x="778.279297"/>
     <use xlink:href="#ArialMT-61" x="811.580078"/>
     <use xlink:href="#ArialMT-74" x="867.195312"/>
     <use xlink:href="#ArialMT-65" x="894.978516"/>
     <use xlink:href="#ArialMT-20" x="950.59375"/>
     <use xlink:href="#ArialMT-6f" x="978.376953"/>
     <use xlink:href="#ArialMT-66" x="1033.992188"/>
     <use xlink:href="#ArialMT-20" x="1061.775391"/>
     <use xlink:href="#ArialMT-64" x="1089.558594"/>
     <use xlink:href="#ArialMT-69" x="1145.173828"/>
     <use xlink:href="#ArialMT-66" x="1167.390625"/>
     <use xlink:href="#ArialMT-66" x="1193.423828"/>
     <use xlink:href="#ArialMT-65" x="1221.207031"/>
     <use xlink:href="#ArialMT-72" x="1276.822266"/>
     <use xlink:href="#ArialMT-65" x="1310.123047"/>
     <use xlink:href="#ArialMT-6e" x="1365.738281"/>
     <use xlink:href="#ArialMT-74" x="1421.353516"/>
     <use xlink:href="#ArialMT-20" x="1449.136719"/>
     <use xlink:href="#ArialMT-6c" x="1476.919922"/>
     <use xlink:href="#ArialMT-6f" x="1499.136719"/>
     <use xlink:href="#ArialMT-73" x="1554.751953"/>
     <use xlink:href="#ArialMT-73" x="1604.751953"/>
     <use xlink:href="#ArialMT-20" x="1654.751953"/>
     <use xlink:href="#ArialMT-66" x="1682.535156"/>
     <use xlink:href="#ArialMT-75" x="1710.318359"/>
     <use xlink:href="#ArialMT-6e" x="1765.933594"/>
     <use xlink:href="#ArialMT-63" x="1821.548828"/>
     <use xlink:href="#ArialMT-74" x="1871.548828"/>
     <use xlink:href="#ArialMT-69" x="1899.332031"/>
     <use xlink:href="#ArialMT-6f" x="1921.548828"/>
     <use xlink:href="#ArialMT-6e" x="1977.164062"/>
     <use xlink:href="#ArialMT-73" x="2032.779297"/>
     <use xlink:href="#ArialMT-20" x="2082.779297"/>
     <use xlink:href="#ArialMT-69" x="2110.5625"/>
     <use xlink:href="#ArialMT-6e" x="2132.779297"/>
     <use xlink:href="#ArialMT-20" x="2188.394531"/>
     <use xlink:href="#ArialMT-53" x="2216.177734"/>
     <use xlink:href="#ArialMT-47" x="2282.876953"/>
     <use xlink:href="#ArialMT-44" x="2360.660156"/>
     <use xlink:href="#ArialMT-20" x="2432.876953"/>
     <use xlink:href="#ArialMT-6f" x="2460.660156"/>
     <use xlink:href="#ArialMT-70" x="2516.275391"/>
     <use xlink:href="#ArialMT-74" x="2571.890625"/>
     <use xlink:href="#ArialMT-69" x="2599.673828"/>
     <use xlink:href="#ArialMT-6d" x="2621.890625"/>
     <use xlink:href="#ArialMT-69" x="2705.191406"/>
     <use xlink:href="#ArialMT-7a" x="2727.408203"/>
     <use xlink:href="#ArialMT-65" x="2777.408203"/>
     <use xlink:href="#ArialMT-72" x="2833.023438"/>
    </g>
   </g>
   <g id="legend_1">
    <g id="patch_7">
     <path d="M 595.863388 269.948828 
L 1011.659091 269.948828 
Q 1017.159091 269.948828 1017.159091 264.448828 
L 1017.159091 148.85 
Q 1017.159091 143.35 1011.659091 143.35 
L 595.863388 143.35 
Q 590.363388 143.35 590.363388 148.85 
L 590.363388 264.448828 
Q 590.363388 269.948828 595.863388 269.948828 
z
" style="fill: #eaeaf2; opacity: 0.8; stroke: #cccccc; stroke-linejoin: miter"/>
    </g>
    <g id="line2d_19">
     <path d="M 601.363388 164.744141 
L 628.863388 164.744141 
L 656.363388 164.744141 
" style="fill: none; stroke-dasharray: 5.55,2.4; stroke-dashoffset: 0; stroke: #4c72b0; stroke-width: 1.5"/>
    </g>
    <g id="text_19">
     <!-- CE_SGD -->
     <g style="fill: #262626" transform="translate(678.363388 174.369141)scale(0.275 -0.275)">
      <defs>
       <path id="ArialMT-43" d="M 3763 1606 
L 4369 1453 
Q 4178 706 3683 314 
Q 3188 -78 2472 -78 
Q 1731 -78 1267 223 
Q 803 525 561 1097 
Q 319 1669 319 2325 
Q 319 3041 592 3573 
Q 866 4106 1370 4382 
Q 1875 4659 2481 4659 
Q 3169 4659 3637 4309 
Q 4106 3959 4291 3325 
L 3694 3184 
Q 3534 3684 3231 3912 
Q 2928 4141 2469 4141 
Q 1941 4141 1586 3887 
Q 1231 3634 1087 3207 
Q 944 2781 944 2328 
Q 944 1744 1114 1308 
Q 1284 872 1643 656 
Q 2003 441 2422 441 
Q 2931 441 3284 734 
Q 3638 1028 3763 1606 
z
" transform="scale(0.015625)"/>
       <path id="ArialMT-5f" d="M -97 -1272 
L -97 -866 
L 3631 -866 
L 3631 -1272 
L -97 -1272 
z
" transform="scale(0.015625)"/>
      </defs>
      <use xlink:href="#ArialMT-43"/>
      <use xlink:href="#ArialMT-45" x="72.216797"/>
      <use xlink:href="#ArialMT-5f" x="138.916016"/>
      <use xlink:href="#ArialMT-53" x="194.53125"/>
      <use xlink:href="#ArialMT-47" x="261.230469"/>
      <use xlink:href="#ArialMT-44" x="339.013672"/>
     </g>
    </g>
    <g id="line2d_20">
     <path d="M 601.363388 203.978906 
L 628.863388 203.978906 
L 656.363388 203.978906 
" style="fill: none; stroke-dasharray: 1.5,2.475; stroke-dashoffset: 0; stroke: #dd8452; stroke-width: 1.5"/>
    </g>
    <g id="text_20">
     <!-- Focal(Gamma = 0.5)_SGD -->
     <g style="fill: #262626" transform="translate(678.363388 213.603906)scale(0.275 -0.275)">
      <defs>
       <path id="ArialMT-46" d="M 525 0 
L 525 4581 
L 3616 4581 
L 3616 4041 
L 1131 4041 
L 1131 2622 
L 3281 2622 
L 3281 2081 
L 1131 2081 
L 1131 0 
L 525 0 
z
" transform="scale(0.015625)"/>
       <path id="ArialMT-28" d="M 1497 -1347 
Q 1031 -759 709 28 
Q 388 816 388 1659 
Q 388 2403 628 3084 
Q 909 3875 1497 4659 
L 1900 4659 
Q 1522 4009 1400 3731 
Q 1209 3300 1100 2831 
Q 966 2247 966 1656 
Q 966 153 1900 -1347 
L 1497 -1347 
z
" transform="scale(0.015625)"/>
       <path id="ArialMT-3d" d="M 3381 2694 
L 356 2694 
L 356 3219 
L 3381 3219 
L 3381 2694 
z
M 3381 1303 
L 356 1303 
L 356 1828 
L 3381 1828 
L 3381 1303 
z
" transform="scale(0.015625)"/>
       <path id="ArialMT-29" d="M 791 -1347 
L 388 -1347 
Q 1322 153 1322 1656 
Q 1322 2244 1188 2822 
Q 1081 3291 891 3722 
Q 769 4003 388 4659 
L 791 4659 
Q 1378 3875 1659 3084 
Q 1900 2403 1900 1659 
Q 1900 816 1576 28 
Q 1253 -759 791 -1347 
z
" transform="scale(0.015625)"/>
      </defs>
      <use xlink:href="#ArialMT-46"/>
      <use xlink:href="#ArialMT-6f" x="61.083984"/>
      <use xlink:href="#ArialMT-63" x="116.699219"/>
      <use xlink:href="#ArialMT-61" x="166.699219"/>
      <use xlink:href="#ArialMT-6c" x="222.314453"/>
      <use xlink:href="#ArialMT-28" x="244.53125"/>
      <use xlink:href="#ArialMT-47" x="277.832031"/>
      <use xlink:href="#ArialMT-61" x="355.615234"/>
      <use xlink:href="#ArialMT-6d" x="411.230469"/>
      <use xlink:href="#ArialMT-6d" x="494.53125"/>
      <use xlink:href="#ArialMT-61" x="577.832031"/>
      <use xlink:href="#ArialMT-20" x="633.447266"/>
      <use xlink:href="#ArialMT-3d" x="661.230469"/>
      <use xlink:href="#ArialMT-20" x="719.628906"/>
      <use xlink:href="#ArialMT-30" x="747.412109"/>
      <use xlink:href="#ArialMT-2e" x="803.027344"/>
      <use xlink:href="#ArialMT-35" x="830.810547"/>
      <use xlink:href="#ArialMT-29" x="886.425781"/>
      <use xlink:href="#ArialMT-5f" x="919.726562"/>
      <use xlink:href="#ArialMT-53" x="975.341797"/>
      <use xlink:href="#ArialMT-47" x="1042.041016"/>
      <use xlink:href="#ArialMT-44" x="1119.824219"/>
     </g>
    </g>
    <g id="line2d_21">
     <path d="M 601.363388 243.535938 
L 628.863388 243.535938 
L 656.363388 243.535938 
" style="fill: none; stroke: #55a868; stroke-width: 1.5; stroke-linecap: round"/>
    </g>
    <g id="text_21">
     <!-- Focal(Gamma = 2)_SGD -->
     <g style="fill: #262626" transform="translate(678.363388 253.160938)scale(0.275 -0.275)">
      <use xlink:href="#ArialMT-46"/>
      <use xlink:href="#ArialMT-6f" x="61.083984"/>
      <use xlink:href="#ArialMT-63" x="116.699219"/>
      <use xlink:href="#ArialMT-61" x="166.699219"/>
      <use xlink:href="#ArialMT-6c" x="222.314453"/>
      <use xlink:href="#ArialMT-28" x="244.53125"/>
      <use xlink:href="#ArialMT-47" x="277.832031"/>
      <use xlink:href="#ArialMT-61" x="355.615234"/>
      <use xlink:href="#ArialMT-6d" x="411.230469"/>
      <use xlink:href="#ArialMT-6d" x="494.53125"/>
      <use xlink:href="#ArialMT-61" x="577.832031"/>
      <use xlink:href="#ArialMT-20" x="633.447266"/>
      <use xlink:href="#ArialMT-3d" x="661.230469"/>
      <use xlink:href="#ArialMT-20" x="719.628906"/>
      <use xlink:href="#ArialMT-32" x="747.412109"/>
      <use xlink:href="#ArialMT-29" x="803.027344"/>
      <use xlink:href="#ArialMT-5f" x="836.328125"/>
      <use xlink:href="#ArialMT-53" x="891.943359"/>
      <use xlink:href="#ArialMT-47" x="958.642578"/>
      <use xlink:href="#ArialMT-44" x="1036.425781"/>
     </g>
    </g>
   </g>
  </g>
  <g id="axes_2">
   <g id="patch_8">
    <path d="M 1183.090909 945 
L 1944 945 
L 1944 129.6 
L 1183.090909 129.6 
z
" style="fill: #eaeaf2"/>
   </g>
   <g id="matplotlib.axis_3">
    <g id="xtick_10">
     <g id="line2d_22">
      <path d="M 1199.474119 945 
L 1199.474119 129.6 
" clip-path="url(#pde277b75c6)" style="fill: none; stroke: #ffffff; stroke-linecap: round"/>
     </g>
     <g id="text_22">
      <!-- 0 -->
      <g style="fill: #262626" transform="translate(1191.82783 974.183984)scale(0.275 -0.275)">
       <use xlink:href="#ArialMT-30"/>
      </g>
     </g>
    </g>
    <g id="xtick_11">
     <g id="line2d_23">
      <path d="M 1290.491953 945 
L 1290.491953 129.6 
" clip-path="url(#pde277b75c6)" style="fill: none; stroke: #ffffff; stroke-linecap: round"/>
     </g>
     <g id="text_23">
      <!-- 5 -->
      <g style="fill: #262626" transform="translate(1282.845664 974.183984)scale(0.275 -0.275)">
       <use xlink:href="#ArialMT-35"/>
      </g>
     </g>
    </g>
    <g id="xtick_12">
     <g id="line2d_24">
      <path d="M 1381.509787 945 
L 1381.509787 129.6 
" clip-path="url(#pde277b75c6)" style="fill: none; stroke: #ffffff; stroke-linecap: round"/>
     </g>
     <g id="text_24">
      <!-- 10 -->
      <g style="fill: #262626" transform="translate(1366.217209 974.183984)scale(0.275 -0.275)">
       <use xlink:href="#ArialMT-31"/>
       <use xlink:href="#ArialMT-30" x="55.615234"/>
      </g>
     </g>
    </g>
    <g id="xtick_13">
     <g id="line2d_25">
      <path d="M 1472.527621 945 
L 1472.527621 129.6 
" clip-path="url(#pde277b75c6)" style="fill: none; stroke: #ffffff; stroke-linecap: round"/>
     </g>
     <g id="text_25">
      <!-- 15 -->
      <g style="fill: #262626" transform="translate(1457.235043 974.183984)scale(0.275 -0.275)">
       <use xlink:href="#ArialMT-31"/>
       <use xlink:href="#ArialMT-35" x="55.615234"/>
      </g>
     </g>
    </g>
    <g id="xtick_14">
     <g id="line2d_26">
      <path d="M 1563.545455 945 
L 1563.545455 129.6 
" clip-path="url(#pde277b75c6)" style="fill: none; stroke: #ffffff; stroke-linecap: round"/>
     </g>
     <g id="text_26">
      <!-- 20 -->
      <g style="fill: #262626" transform="translate(1548.252876 974.183984)scale(0.275 -0.275)">
       <use xlink:href="#ArialMT-32"/>
       <use xlink:href="#ArialMT-30" x="55.615234"/>
      </g>
     </g>
    </g>
    <g id="xtick_15">
     <g id="line2d_27">
      <path d="M 1654.563288 945 
L 1654.563288 129.6 
" clip-path="url(#pde277b75c6)" style="fill: none; stroke: #ffffff; stroke-linecap: round"/>
     </g>
     <g id="text_27">
      <!-- 25 -->
      <g style="fill: #262626" transform="translate(1639.27071 974.183984)scale(0.275 -0.275)">
       <use xlink:href="#ArialMT-32"/>
       <use xlink:href="#ArialMT-35" x="55.615234"/>
      </g>
     </g>
    </g>
    <g id="xtick_16">
     <g id="line2d_28">
      <path d="M 1745.581122 945 
L 1745.581122 129.6 
" clip-path="url(#pde277b75c6)" style="fill: none; stroke: #ffffff; stroke-linecap: round"/>
     </g>
     <g id="text_28">
      <!-- 30 -->
      <g style="fill: #262626" transform="translate(1730.288544 974.183984)scale(0.275 -0.275)">
       <use xlink:href="#ArialMT-33"/>
       <use xlink:href="#ArialMT-30" x="55.615234"/>
      </g>
     </g>
    </g>
    <g id="xtick_17">
     <g id="line2d_29">
      <path d="M 1836.598956 945 
L 1836.598956 129.6 
" clip-path="url(#pde277b75c6)" style="fill: none; stroke: #ffffff; stroke-linecap: round"/>
     </g>
     <g id="text_29">
      <!-- 35 -->
      <g style="fill: #262626" transform="translate(1821.306378 974.183984)scale(0.275 -0.275)">
       <use xlink:href="#ArialMT-33"/>
       <use xlink:href="#ArialMT-35" x="55.615234"/>
      </g>
     </g>
    </g>
    <g id="xtick_18">
     <g id="line2d_30">
      <path d="M 1927.61679 945 
L 1927.61679 129.6 
" clip-path="url(#pde277b75c6)" style="fill: none; stroke: #ffffff; stroke-linecap: round"/>
     </g>
     <g id="text_30">
      <!-- 40 -->
      <g style="fill: #262626" transform="translate(1912.324212 974.183984)scale(0.275 -0.275)">
       <use xlink:href="#ArialMT-34"/>
       <use xlink:href="#ArialMT-30" x="55.615234"/>
      </g>
     </g>
    </g>
    <g id="text_31">
     <!-- Epoch -->
     <g style="fill: #262626" transform="translate(1521.015767 1005.123047)scale(0.3 -0.3)">
      <use xlink:href="#ArialMT-45"/>
      <use xlink:href="#ArialMT-70" x="66.699219"/>
      <use xlink:href="#ArialMT-6f" x="122.314453"/>
      <use xlink:href="#ArialMT-63" x="177.929688"/>
      <use xlink:href="#ArialMT-68" x="227.929688"/>
     </g>
    </g>
   </g>
   <g id="matplotlib.axis_4">
    <g id="ytick_7">
     <g id="line2d_31">
      <path d="M 1183.090909 884.176573 
L 1944 884.176573 
" clip-path="url(#pde277b75c6)" style="fill: none; stroke: #ffffff; stroke-linecap: round"/>
     </g>
     <g id="text_32">
      <!-- -0.015 -->
      <g style="fill: #262626" transform="translate(1095.624112 894.018565)scale(0.275 -0.275)">
       <use xlink:href="#ArialMT-2d"/>
       <use xlink:href="#ArialMT-30" x="33.300781"/>
       <use xlink:href="#ArialMT-2e" x="88.916016"/>
       <use xlink:href="#ArialMT-30" x="116.699219"/>
       <use xlink:href="#ArialMT-31" x="172.314453"/>
       <use xlink:href="#ArialMT-35" x="227.929688"/>
      </g>
     </g>
    </g>
    <g id="ytick_8">
     <g id="line2d_32">
      <path d="M 1183.090909 788.569186 
L 1944 788.569186 
" clip-path="url(#pde277b75c6)" style="fill: none; stroke: #ffffff; stroke-linecap: round"/>
     </g>
     <g id="text_33">
      <!-- -0.010 -->
      <g style="fill: #262626" transform="translate(1095.624112 798.411178)scale(0.275 -0.275)">
       <use xlink:href="#ArialMT-2d"/>
       <use xlink:href="#ArialMT-30" x="33.300781"/>
       <use xlink:href="#ArialMT-2e" x="88.916016"/>
       <use xlink:href="#ArialMT-30" x="116.699219"/>
       <use xlink:href="#ArialMT-31" x="172.314453"/>
       <use xlink:href="#ArialMT-30" x="227.929688"/>
      </g>
     </g>
    </g>
    <g id="ytick_9">
     <g id="line2d_33">
      <path d="M 1183.090909 692.961798 
L 1944 692.961798 
" clip-path="url(#pde277b75c6)" style="fill: none; stroke: #ffffff; stroke-linecap: round"/>
     </g>
     <g id="text_34">
      <!-- -0.005 -->
      <g style="fill: #262626" transform="translate(1095.624112 702.803791)scale(0.275 -0.275)">
       <use xlink:href="#ArialMT-2d"/>
       <use xlink:href="#ArialMT-30" x="33.300781"/>
       <use xlink:href="#ArialMT-2e" x="88.916016"/>
       <use xlink:href="#ArialMT-30" x="116.699219"/>
       <use xlink:href="#ArialMT-30" x="172.314453"/>
       <use xlink:href="#ArialMT-35" x="227.929688"/>
      </g>
     </g>
    </g>
    <g id="ytick_10">
     <g id="line2d_34">
      <path d="M 1183.090909 597.354411 
L 1944 597.354411 
" clip-path="url(#pde277b75c6)" style="fill: none; stroke: #ffffff; stroke-linecap: round"/>
     </g>
     <g id="text_35">
      <!-- 0.000 -->
      <g style="fill: #262626" transform="translate(1104.780753 607.196403)scale(0.275 -0.275)">
       <use xlink:href="#ArialMT-30"/>
       <use xlink:href="#ArialMT-2e" x="55.615234"/>
       <use xlink:href="#ArialMT-30" x="83.398438"/>
       <use xlink:href="#ArialMT-30" x="139.013672"/>
       <use xlink:href="#ArialMT-30" x="194.628906"/>
      </g>
     </g>
    </g>
    <g id="ytick_11">
     <g id="line2d_35">
      <path d="M 1183.090909 501.747024 
L 1944 501.747024 
" clip-path="url(#pde277b75c6)" style="fill: none; stroke: #ffffff; stroke-linecap: round"/>
     </g>
     <g id="text_36">
      <!-- 0.005 -->
      <g style="fill: #262626" transform="translate(1104.780753 511.589016)scale(0.275 -0.275)">
       <use xlink:href="#ArialMT-30"/>
       <use xlink:href="#ArialMT-2e" x="55.615234"/>
       <use xlink:href="#ArialMT-30" x="83.398438"/>
       <use xlink:href="#ArialMT-30" x="139.013672"/>
       <use xlink:href="#ArialMT-35" x="194.628906"/>
      </g>
     </g>
    </g>
    <g id="ytick_12">
     <g id="line2d_36">
      <path d="M 1183.090909 406.139637 
L 1944 406.139637 
" clip-path="url(#pde277b75c6)" style="fill: none; stroke: #ffffff; stroke-linecap: round"/>
     </g>
     <g id="text_37">
      <!-- 0.010 -->
      <g style="fill: #262626" transform="translate(1104.780753 415.981629)scale(0.275 -0.275)">
       <use xlink:href="#ArialMT-30"/>
       <use xlink:href="#ArialMT-2e" x="55.615234"/>
       <use xlink:href="#ArialMT-30" x="83.398438"/>
       <use xlink:href="#ArialMT-31" x="139.013672"/>
       <use xlink:href="#ArialMT-30" x="194.628906"/>
      </g>
     </g>
    </g>
    <g id="ytick_13">
     <g id="line2d_37">
      <path d="M 1183.090909 310.53225 
L 1944 310.53225 
" clip-path="url(#pde277b75c6)" style="fill: none; stroke: #ffffff; stroke-linecap: round"/>
     </g>
     <g id="text_38">
      <!-- 0.015 -->
      <g style="fill: #262626" transform="translate(1104.780753 320.374242)scale(0.275 -0.275)">
       <use xlink:href="#ArialMT-30"/>
       <use xlink:href="#ArialMT-2e" x="55.615234"/>
       <use xlink:href="#ArialMT-30" x="83.398438"/>
       <use xlink:href="#ArialMT-31" x="139.013672"/>
       <use xlink:href="#ArialMT-35" x="194.628906"/>
      </g>
     </g>
    </g>
    <g id="ytick_14">
     <g id="line2d_38">
      <path d="M 1183.090909 214.924863 
L 1944 214.924863 
" clip-path="url(#pde277b75c6)" style="fill: none; stroke: #ffffff; stroke-linecap: round"/>
     </g>
     <g id="text_39">
      <!-- 0.020 -->
      <g style="fill: #262626" transform="translate(1104.780753 224.766855)scale(0.275 -0.275)">
       <use xlink:href="#ArialMT-30"/>
       <use xlink:href="#ArialMT-2e" x="55.615234"/>
       <use xlink:href="#ArialMT-30" x="83.398438"/>
       <use xlink:href="#ArialMT-32" x="139.013672"/>
       <use xlink:href="#ArialMT-30" x="194.628906"/>
      </g>
     </g>
    </g>
    <g id="text_40">
     <!-- Testing changing rate -->
     <g style="fill: #262626" transform="translate(1085.31005 679.877344)rotate(-90)scale(0.3 -0.3)">
      <use xlink:href="#ArialMT-54"/>
      <use xlink:href="#ArialMT-65" x="49.958984"/>
      <use xlink:href="#ArialMT-73" x="105.574219"/>
      <use xlink:href="#ArialMT-74" x="155.574219"/>
      <use xlink:href="#ArialMT-69" x="183.357422"/>
      <use xlink:href="#ArialMT-6e" x="205.574219"/>
      <use xlink:href="#ArialMT-67" x="261.189453"/>
      <use xlink:href="#ArialMT-20" x="316.804688"/>
      <use xlink:href="#ArialMT-63" x="344.587891"/>
      <use xlink:href="#ArialMT-68" x="394.587891"/>
      <use xlink:href="#ArialMT-61" x="450.203125"/>
      <use xlink:href="#ArialMT-6e" x="505.818359"/>
      <use xlink:href="#ArialMT-67" x="561.433594"/>
      <use xlink:href="#ArialMT-69" x="617.048828"/>
      <use xlink:href="#ArialMT-6e" x="639.265625"/>
      <use xlink:href="#ArialMT-67" x="694.880859"/>
      <use xlink:href="#ArialMT-20" x="750.496094"/>
      <use xlink:href="#ArialMT-72" x="778.279297"/>
      <use xlink:href="#ArialMT-61" x="811.580078"/>
      <use xlink:href="#ArialMT-74" x="867.195312"/>
      <use xlink:href="#ArialMT-65" x="894.978516"/>
     </g>
    </g>
   </g>
   <g id="line2d_39">
    <path d="M 1217.677686 630.545894 
L 1235.881253 531.1963 
L 1254.084819 529.675238 
L 1272.288386 588.02453 
L 1290.491953 682.661574 
L 1308.69552 759.437971 
L 1326.899087 563.628464 
L 1345.102653 544.734571 
L 1363.30622 623.190727 
L 1381.509787 737.067435 
L 1399.713354 574.053042 
L 1417.91692 586.523536 
L 1436.120487 628.156979 
L 1454.324054 582.888966 
L 1472.527621 540.154767 
L 1490.731187 676.396714 
L 1508.934754 600.870308 
L 1527.138321 700.810198 
L 1545.341888 537.203593 
L 1563.545455 620.682883 
L 1581.749021 572.36042 
L 1599.952588 653.685727 
L 1618.156155 666.875393 
L 1636.359722 504.129468 
L 1654.563288 570.433587 
L 1672.766855 651.6171 
L 1690.970422 677.746299 
L 1709.173989 666.169829 
L 1727.377555 443.340322 
L 1745.581122 687.014608 
L 1763.784689 692.006478 
L 1781.988256 562.63846 
L 1800.191823 573.578543 
L 1818.395389 701.146776 
L 1836.598956 459.619477 
L 1854.802523 767.033943 
L 1873.00609 612.032291 
L 1891.209656 445.656882 
L 1909.413223 639.503062 
" clip-path="url(#pde277b75c6)" style="fill: none; stroke-dasharray: 5.55,2.4; stroke-dashoffset: 0; stroke: #4c72b0; stroke-width: 1.5"/>
   </g>
   <g id="line2d_40">
    <path d="M 1217.677686 635.459807 
L 1235.881253 683.909201 
L 1254.084819 581.263838 
L 1272.288386 724.792141 
L 1290.491953 674.245132 
L 1308.69552 559.397034 
L 1326.899087 600.49512 
L 1345.102653 672.298999 
L 1363.30622 615.67126 
L 1381.509787 579.264337 
L 1399.713354 575.148412 
L 1417.91692 728.091848 
L 1436.120487 662.73944 
L 1454.324054 525.970884 
L 1472.527621 551.080392 
L 1490.731187 617.070483 
L 1508.934754 663.075939 
L 1527.138321 602.536284 
L 1545.341888 786.373482 
L 1563.545455 383.866903 
L 1581.749021 780.556236 
L 1599.952588 528.154763 
L 1618.156155 665.087924 
L 1636.359722 512.324206 
L 1654.563288 741.094489 
L 1672.766855 337.50315 
L 1690.970422 769.385721 
L 1709.173989 656.188953 
L 1727.377555 676.807925 
L 1745.581122 666.733858 
L 1763.784689 365.23722 
L 1781.988256 650.396369 
L 1800.191823 648.007566 
L 1818.395389 742.932897 
L 1836.598956 701.415512 
L 1854.802523 595.300481 
L 1873.00609 473.166143 
L 1891.209656 559.273177 
L 1909.413223 670.570046 
" clip-path="url(#pde277b75c6)" style="fill: none; stroke-dasharray: 1.5,2.475; stroke-dashoffset: 0; stroke: #dd8452; stroke-width: 1.5"/>
   </g>
   <g id="line2d_41">
    <path d="M 1217.677686 521.232084 
L 1235.881253 809.398069 
L 1254.084819 612.8578 
L 1272.288386 449.56447 
L 1290.491953 813.173868 
L 1308.69552 544.454376 
L 1326.899087 538.979257 
L 1345.102653 529.72187 
L 1363.30622 728.733591 
L 1381.509787 701.864747 
L 1399.713354 652.406659 
L 1417.91692 601.044855 
L 1436.120487 629.859736 
L 1454.324054 439.360321 
L 1472.527621 868.911771 
L 1490.731187 406.56833 
L 1508.934754 762.727553 
L 1527.138321 629.64242 
L 1545.341888 663.767059 
L 1563.545455 513.974706 
L 1581.749021 767.372137 
L 1599.952588 503.978785 
L 1618.156155 630.268735 
L 1636.359722 609.078837 
L 1654.563288 640.796386 
L 1672.766855 558.60737 
L 1690.970422 643.241734 
L 1709.173989 757.50889 
L 1727.377555 569.2795 
L 1745.581122 474.093522 
L 1763.784689 578.894326 
L 1781.988256 572.626878 
L 1800.191823 704.877564 
L 1818.395389 674.90872 
L 1836.598956 547.223004 
L 1854.802523 622.327976 
L 1873.00609 435.567485 
L 1891.209656 907.936364 
L 1909.413223 166.663636 
" clip-path="url(#pde277b75c6)" style="fill: none; stroke: #55a868; stroke-width: 1.5; stroke-linecap: round"/>
   </g>
   <g id="patch_9">
    <path d="M 1183.090909 945 
L 1183.090909 129.6 
" style="fill: none; stroke: #ffffff; stroke-width: 1.25; stroke-linejoin: miter; stroke-linecap: square"/>
   </g>
   <g id="patch_10">
    <path d="M 1944 945 
L 1944 129.6 
" style="fill: none; stroke: #ffffff; stroke-width: 1.25; stroke-linejoin: miter; stroke-linecap: square"/>
   </g>
   <g id="patch_11">
    <path d="M 1183.090909 945 
L 1944 945 
" style="fill: none; stroke: #ffffff; stroke-width: 1.25; stroke-linejoin: miter; stroke-linecap: square"/>
   </g>
   <g id="patch_12">
    <path d="M 1183.090909 129.6 
L 1944 129.6 
" style="fill: none; stroke: #ffffff; stroke-width: 1.25; stroke-linejoin: miter; stroke-linecap: square"/>
   </g>
   <g id="text_41">
    <!-- Testing changing rate of different loss functions in Adam optimizer -->
    <g style="fill: #262626" transform="translate(1127.772017 123.6)scale(0.3 -0.3)">
     <defs>
      <path id="ArialMT-41" d="M -9 0 
L 1750 4581 
L 2403 4581 
L 4278 0 
L 3588 0 
L 3053 1388 
L 1138 1388 
L 634 0 
L -9 0 
z
M 1313 1881 
L 2866 1881 
L 2388 3150 
Q 2169 3728 2063 4100 
Q 1975 3659 1816 3225 
L 1313 1881 
z
" transform="scale(0.015625)"/>
     </defs>
     <use xlink:href="#ArialMT-54"/>
     <use xlink:href="#ArialMT-65" x="49.958984"/>
     <use xlink:href="#ArialMT-73" x="105.574219"/>
     <use xlink:href="#ArialMT-74" x="155.574219"/>
     <use xlink:href="#ArialMT-69" x="183.357422"/>
     <use xlink:href="#ArialMT-6e" x="205.574219"/>
     <use xlink:href="#ArialMT-67" x="261.189453"/>
     <use xlink:href="#ArialMT-20" x="316.804688"/>
     <use xlink:href="#ArialMT-63" x="344.587891"/>
     <use xlink:href="#ArialMT-68" x="394.587891"/>
     <use xlink:href="#ArialMT-61" x="450.203125"/>
     <use xlink:href="#ArialMT-6e" x="505.818359"/>
     <use xlink:href="#ArialMT-67" x="561.433594"/>
     <use xlink:href="#ArialMT-69" x="617.048828"/>
     <use xlink:href="#ArialMT-6e" x="639.265625"/>
     <use xlink:href="#ArialMT-67" x="694.880859"/>
     <use xlink:href="#ArialMT-20" x="750.496094"/>
     <use xlink:href="#ArialMT-72" x="778.279297"/>
     <use xlink:href="#ArialMT-61" x="811.580078"/>
     <use xlink:href="#ArialMT-74" x="867.195312"/>
     <use xlink:href="#ArialMT-65" x="894.978516"/>
     <use xlink:href="#ArialMT-20" x="950.59375"/>
     <use xlink:href="#ArialMT-6f" x="978.376953"/>
     <use xlink:href="#ArialMT-66" x="1033.992188"/>
     <use xlink:href="#ArialMT-20" x="1061.775391"/>
     <use xlink:href="#ArialMT-64" x="1089.558594"/>
     <use xlink:href="#ArialMT-69" x="1145.173828"/>
     <use xlink:href="#ArialMT-66" x="1167.390625"/>
     <use xlink:href="#ArialMT-66" x="1193.423828"/>
     <use xlink:href="#ArialMT-65" x="1221.207031"/>
     <use xlink:href="#ArialMT-72" x="1276.822266"/>
     <use xlink:href="#ArialMT-65" x="1310.123047"/>
     <use xlink:href="#ArialMT-6e" x="1365.738281"/>
     <use xlink:href="#ArialMT-74" x="1421.353516"/>
     <use xlink:href="#ArialMT-20" x="1449.136719"/>
     <use xlink:href="#ArialMT-6c" x="1476.919922"/>
     <use xlink:href="#ArialMT-6f" x="1499.136719"/>
     <use xlink:href="#ArialMT-73" x="1554.751953"/>
     <use xlink:href="#ArialMT-73" x="1604.751953"/>
     <use xlink:href="#ArialMT-20" x="1654.751953"/>
     <use xlink:href="#ArialMT-66" x="1682.535156"/>
     <use xlink:href="#ArialMT-75" x="1710.318359"/>
     <use xlink:href="#ArialMT-6e" x="1765.933594"/>
     <use xlink:href="#ArialMT-63" x="1821.548828"/>
     <use xlink:href="#ArialMT-74" x="1871.548828"/>
     <use xlink:href="#ArialMT-69" x="1899.332031"/>
     <use xlink:href="#ArialMT-6f" x="1921.548828"/>
     <use xlink:href="#ArialMT-6e" x="1977.164062"/>
     <use xlink:href="#ArialMT-73" x="2032.779297"/>
     <use xlink:href="#ArialMT-20" x="2082.779297"/>
     <use xlink:href="#ArialMT-69" x="2110.5625"/>
     <use xlink:href="#ArialMT-6e" x="2132.779297"/>
     <use xlink:href="#ArialMT-20" x="2188.394531"/>
     <use xlink:href="#ArialMT-41" x="2210.677734"/>
     <use xlink:href="#ArialMT-64" x="2277.376953"/>
     <use xlink:href="#ArialMT-61" x="2332.992188"/>
     <use xlink:href="#ArialMT-6d" x="2388.607422"/>
     <use xlink:href="#ArialMT-20" x="2471.908203"/>
     <use xlink:href="#ArialMT-6f" x="2499.691406"/>
     <use xlink:href="#ArialMT-70" x="2555.306641"/>
     <use xlink:href="#ArialMT-74" x="2610.921875"/>
     <use xlink:href="#ArialMT-69" x="2638.705078"/>
     <use xlink:href="#ArialMT-6d" x="2660.921875"/>
     <use xlink:href="#ArialMT-69" x="2744.222656"/>
     <use xlink:href="#ArialMT-7a" x="2766.439453"/>
     <use xlink:href="#ArialMT-65" x="2816.439453"/>
     <use xlink:href="#ArialMT-72" x="2872.054688"/>
    </g>
   </g>
   <g id="legend_2">
    <g id="patch_13">
     <path d="M 1202.340909 269.948828 
L 1630.378409 269.948828 
Q 1635.878409 269.948828 1635.878409 264.448828 
L 1635.878409 148.85 
Q 1635.878409 143.35 1630.378409 143.35 
L 1202.340909 143.35 
Q 1196.840909 143.35 1196.840909 148.85 
L 1196.840909 264.448828 
Q 1196.840909 269.948828 1202.340909 269.948828 
z
" style="fill: #eaeaf2; opacity: 0.8; stroke: #cccccc; stroke-linejoin: miter"/>
    </g>
    <g id="line2d_42">
     <path d="M 1207.840909 164.744141 
L 1235.340909 164.744141 
L 1262.840909 164.744141 
" style="fill: none; stroke-dasharray: 5.55,2.4; stroke-dashoffset: 0; stroke: #4c72b0; stroke-width: 1.5"/>
    </g>
    <g id="text_42">
     <!-- CE_Adam -->
     <g style="fill: #262626" transform="translate(1284.840909 174.369141)scale(0.275 -0.275)">
      <use xlink:href="#ArialMT-43"/>
      <use xlink:href="#ArialMT-45" x="72.216797"/>
      <use xlink:href="#ArialMT-5f" x="138.916016"/>
      <use xlink:href="#ArialMT-41" x="194.53125"/>
      <use xlink:href="#ArialMT-64" x="261.230469"/>
      <use xlink:href="#ArialMT-61" x="316.845703"/>
      <use xlink:href="#ArialMT-6d" x="372.460938"/>
     </g>
    </g>
    <g id="line2d_43">
     <path d="M 1207.840909 203.978906 
L 1235.340909 203.978906 
L 1262.840909 203.978906 
" style="fill: none; stroke-dasharray: 1.5,2.475; stroke-dashoffset: 0; stroke: #dd8452; stroke-width: 1.5"/>
    </g>
    <g id="text_43">
     <!-- Focal(Gamma = 0.5)_Adam -->
     <g style="fill: #262626" transform="translate(1284.840909 213.603906)scale(0.275 -0.275)">
      <use xlink:href="#ArialMT-46"/>
      <use xlink:href="#ArialMT-6f" x="61.083984"/>
      <use xlink:href="#ArialMT-63" x="116.699219"/>
      <use xlink:href="#ArialMT-61" x="166.699219"/>
      <use xlink:href="#ArialMT-6c" x="222.314453"/>
      <use xlink:href="#ArialMT-28" x="244.53125"/>
      <use xlink:href="#ArialMT-47" x="277.832031"/>
      <use xlink:href="#ArialMT-61" x="355.615234"/>
      <use xlink:href="#ArialMT-6d" x="411.230469"/>
      <use xlink:href="#ArialMT-6d" x="494.53125"/>
      <use xlink:href="#ArialMT-61" x="577.832031"/>
      <use xlink:href="#ArialMT-20" x="633.447266"/>
      <use xlink:href="#ArialMT-3d" x="661.230469"/>
      <use xlink:href="#ArialMT-20" x="719.628906"/>
      <use xlink:href="#ArialMT-30" x="747.412109"/>
      <use xlink:href="#ArialMT-2e" x="803.027344"/>
      <use xlink:href="#ArialMT-35" x="830.810547"/>
      <use xlink:href="#ArialMT-29" x="886.425781"/>
      <use xlink:href="#ArialMT-5f" x="919.726562"/>
      <use xlink:href="#ArialMT-41" x="975.341797"/>
      <use xlink:href="#ArialMT-64" x="1042.041016"/>
      <use xlink:href="#ArialMT-61" x="1097.65625"/>
      <use xlink:href="#ArialMT-6d" x="1153.271484"/>
     </g>
    </g>
    <g id="line2d_44">
     <path d="M 1207.840909 243.535938 
L 1235.340909 243.535938 
L 1262.840909 243.535938 
" style="fill: none; stroke: #55a868; stroke-width: 1.5; stroke-linecap: round"/>
    </g>
    <g id="text_44">
     <!-- Focal(Gamma = 2)_Adam -->
     <g style="fill: #262626" transform="translate(1284.840909 253.160938)scale(0.275 -0.275)">
      <use xlink:href="#ArialMT-46"/>
      <use xlink:href="#ArialMT-6f" x="61.083984"/>
      <use xlink:href="#ArialMT-63" x="116.699219"/>
      <use xlink:href="#ArialMT-61" x="166.699219"/>
      <use xlink:href="#ArialMT-6c" x="222.314453"/>
      <use xlink:href="#ArialMT-28" x="244.53125"/>
      <use xlink:href="#ArialMT-47" x="277.832031"/>
      <use xlink:href="#ArialMT-61" x="355.615234"/>
      <use xlink:href="#ArialMT-6d" x="411.230469"/>
      <use xlink:href="#ArialMT-6d" x="494.53125"/>
      <use xlink:href="#ArialMT-61" x="577.832031"/>
      <use xlink:href="#ArialMT-20" x="633.447266"/>
      <use xlink:href="#ArialMT-3d" x="661.230469"/>
      <use xlink:href="#ArialMT-20" x="719.628906"/>
      <use xlink:href="#ArialMT-32" x="747.412109"/>
      <use xlink:href="#ArialMT-29" x="803.027344"/>
      <use xlink:href="#ArialMT-5f" x="836.328125"/>
      <use xlink:href="#ArialMT-41" x="891.943359"/>
      <use xlink:href="#ArialMT-64" x="958.642578"/>
      <use xlink:href="#ArialMT-61" x="1014.257812"/>
      <use xlink:href="#ArialMT-6d" x="1069.873047"/>
     </g>
    </g>
   </g>
  </g>
  <g id="text_45">
   <!-- Testing changing rate of different loss functions in distinct optimizers -->
   <g style="fill: #262626" transform="translate(477.86875 50.71875)scale(0.4 -0.4)">
    <use xlink:href="#ArialMT-54"/>
    <use xlink:href="#ArialMT-65" x="49.958984"/>
    <use xlink:href="#ArialMT-73" x="105.574219"/>
    <use xlink:href="#ArialMT-74" x="155.574219"/>
    <use xlink:href="#ArialMT-69" x="183.357422"/>
    <use xlink:href="#ArialMT-6e" x="205.574219"/>
    <use xlink:href="#ArialMT-67" x="261.189453"/>
    <use xlink:href="#ArialMT-20" x="316.804688"/>
    <use xlink:href="#ArialMT-63" x="344.587891"/>
    <use xlink:href="#ArialMT-68" x="394.587891"/>
    <use xlink:href="#ArialMT-61" x="450.203125"/>
    <use xlink:href="#ArialMT-6e" x="505.818359"/>
    <use xlink:href="#ArialMT-67" x="561.433594"/>
    <use xlink:href="#ArialMT-69" x="617.048828"/>
    <use xlink:href="#ArialMT-6e" x="639.265625"/>
    <use xlink:href="#ArialMT-67" x="694.880859"/>
    <use xlink:href="#ArialMT-20" x="750.496094"/>
    <use xlink:href="#ArialMT-72" x="778.279297"/>
    <use xlink:href="#ArialMT-61" x="811.580078"/>
    <use xlink:href="#ArialMT-74" x="867.195312"/>
    <use xlink:href="#ArialMT-65" x="894.978516"/>
    <use xlink:href="#ArialMT-20" x="950.59375"/>
    <use xlink:href="#ArialMT-6f" x="978.376953"/>
    <use xlink:href="#ArialMT-66" x="1033.992188"/>
    <use xlink:href="#ArialMT-20" x="1061.775391"/>
    <use xlink:href="#ArialMT-64" x="1089.558594"/>
    <use xlink:href="#ArialMT-69" x="1145.173828"/>
    <use xlink:href="#ArialMT-66" x="1167.390625"/>
    <use xlink:href="#ArialMT-66" x="1193.423828"/>
    <use xlink:href="#ArialMT-65" x="1221.207031"/>
    <use xlink:href="#ArialMT-72" x="1276.822266"/>
    <use xlink:href="#ArialMT-65" x="1310.123047"/>
    <use xlink:href="#ArialMT-6e" x="1365.738281"/>
    <use xlink:href="#ArialMT-74" x="1421.353516"/>
    <use xlink:href="#ArialMT-20" x="1449.136719"/>
    <use xlink:href="#ArialMT-6c" x="1476.919922"/>
    <use xlink:href="#ArialMT-6f" x="1499.136719"/>
    <use xlink:href="#ArialMT-73" x="1554.751953"/>
    <use xlink:href="#ArialMT-73" x="1604.751953"/>
    <use xlink:href="#ArialMT-20" x="1654.751953"/>
    <use xlink:href="#ArialMT-66" x="1682.535156"/>
    <use xlink:href="#ArialMT-75" x="1710.318359"/>
    <use xlink:href="#ArialMT-6e" x="1765.933594"/>
    <use xlink:href="#ArialMT-63" x="1821.548828"/>
    <use xlink:href="#ArialMT-74" x="1871.548828"/>
    <use xlink:href="#ArialMT-69" x="1899.332031"/>
    <use xlink:href="#ArialMT-6f" x="1921.548828"/>
    <use xlink:href="#ArialMT-6e" x="1977.164062"/>
    <use xlink:href="#ArialMT-73" x="2032.779297"/>
    <use xlink:href="#ArialMT-20" x="2082.779297"/>
    <use xlink:href="#ArialMT-69" x="2110.5625"/>
    <use xlink:href="#ArialMT-6e" x="2132.779297"/>
    <use xlink:href="#ArialMT-20" x="2188.394531"/>
    <use xlink:href="#ArialMT-64" x="2216.177734"/>
    <use xlink:href="#ArialMT-69" x="2271.792969"/>
    <use xlink:href="#ArialMT-73" x="2294.009766"/>
    <use xlink:href="#ArialMT-74" x="2344.009766"/>
    <use xlink:href="#ArialMT-69" x="2371.792969"/>
    <use xlink:href="#ArialMT-6e" x="2394.009766"/>
    <use xlink:href="#ArialMT-63" x="2449.625"/>
    <use xlink:href="#ArialMT-74" x="2499.625"/>
    <use xlink:href="#ArialMT-20" x="2527.408203"/>
    <use xlink:href="#ArialMT-6f" x="2555.191406"/>
    <use xlink:href="#ArialMT-70" x="2610.806641"/>
    <use xlink:href="#ArialMT-74" x="2666.421875"/>
    <use xlink:href="#ArialMT-69" x="2694.205078"/>
    <use xlink:href="#ArialMT-6d" x="2716.421875"/>
    <use xlink:href="#ArialMT-69" x="2799.722656"/>
    <use xlink:href="#ArialMT-7a" x="2821.939453"/>
    <use xlink:href="#ArialMT-65" x="2871.939453"/>
    <use xlink:href="#ArialMT-72" x="2927.554688"/>
    <use xlink:href="#ArialMT-73" x="2960.855469"/>
   </g>
  </g>
 </g>
 <defs>
  <clipPath id="pb89ff9c91a">
   <rect x="270" y="129.6" width="760.909091" height="815.4"/>
  </clipPath>
  <clipPath id="pde277b75c6">
   <rect x="1183.090909" y="129.6" width="760.909091" height="815.4"/>
  </clipPath>
 </defs>
</svg>
